<?xml version="1.0" encoding="UTF-8" standalone="no"?>
<!-- Created with Inkscape (http://www.inkscape.org/) -->

<svg
   width="8.1419048in"
   height="3.5791225in"
   viewBox="0 0 206.80438 90.909713"
   version="1.1"
   id="svg5"
   inkscape:version="1.1.1 (3bf5ae0d25, 2021-09-20)"
   sodipodi:docname="casagrande.svg"
   xmlns:inkscape="http://www.inkscape.org/namespaces/inkscape"
   xmlns:sodipodi="http://sodipodi.sourceforge.net/DTD/sodipodi-0.dtd"
   xmlns="http://www.w3.org/2000/svg"
   xmlns:svg="http://www.w3.org/2000/svg"
   xmlns:ns1="http://www.iki.fi/pav/software/textext/">
  <sodipodi:namedview
     id="namedview7"
     pagecolor="#505050"
     bordercolor="#ffffff"
     borderopacity="1"
     inkscape:pageshadow="0"
     inkscape:pageopacity="0"
     inkscape:pagecheckerboard="1"
     inkscape:document-units="mm"
     showgrid="false"
     units="in"
     inkscape:zoom="1.1474186"
     inkscape:cx="223.54526"
     inkscape:cy="198.7069"
     inkscape:window-width="1920"
     inkscape:window-height="1028"
     inkscape:window-x="1912"
     inkscape:window-y="-8"
     inkscape:window-maximized="1"
     inkscape:current-layer="layer7"
     inkscape:snap-intersection-paths="true"
     inkscape:snap-smooth-nodes="true"
     inkscape:snap-page="false"
     inkscape:snap-midpoints="true"
     inkscape:snap-bbox="true"
     inkscape:bbox-nodes="true"
     inkscape:snap-bbox-midpoints="true"
     inkscape:snap-bbox-edge-midpoints="true"
     inkscape:bbox-paths="true"
     inkscape:snap-nodes="true"
     inkscape:snap-object-midpoints="true" />
  <defs
     id="defs2">
    <marker
       style="overflow:visible"
       id="DotM"
       refX="0.0"
       refY="0.0"
       orient="auto"
       inkscape:stockid="DotM"
       inkscape:isstock="true">
      <path
         transform="scale(0.4) translate(7.4, 1)"
         style="fill-rule:evenodd;fill:context-stroke;stroke:context-stroke;stroke-width:1.0pt"
         d="M -2.5,-1.0 C -2.5,1.7600000 -4.7400000,4.0 -7.5,4.0 C -10.260000,4.0 -12.5,1.7600000 -12.5,-1.0 C -12.5,-3.7600000 -10.260000,-6.0 -7.5,-6.0 C -4.7400000,-6.0 -2.5,-3.7600000 -2.5,-1.0 z "
         id="path1130" />
    </marker>
    <marker
       style="overflow:visible;"
       id="marker23301"
       refX="0.0"
       refY="0.0"
       orient="auto"
       inkscape:stockid="Arrow1Mend"
       inkscape:isstock="true">
      <path
         transform="scale(0.4) rotate(180) translate(10,0)"
         style="fill-rule:evenodd;fill:context-stroke;stroke:context-stroke;stroke-width:1.0pt;"
         d="M 0.0,0.0 L 5.0,-5.0 L -12.5,0.0 L 5.0,5.0 L 0.0,0.0 z "
         id="path23299" />
    </marker>
    <marker
       style="overflow:visible"
       id="Arrow1Sstart"
       refX="0"
       refY="0"
       orient="auto"
       inkscape:stockid="Arrow1Sstart"
       inkscape:isstock="true">
      <path
         transform="matrix(0.2,0,0,0.2,1.2,0)"
         style="fill:context-stroke;fill-rule:evenodd;stroke:context-stroke;stroke-width:1pt"
         d="M 0,0 5,-5 -12.5,0 5,5 Z"
         id="path1078" />
    </marker>
    <marker
       style="overflow:visible"
       id="Arrow1Send"
       refX="0"
       refY="0"
       orient="auto"
       inkscape:stockid="Arrow1Send"
       inkscape:isstock="true">
      <path
         transform="matrix(-0.2,0,0,-0.2,-1.2,0)"
         style="fill:context-stroke;fill-rule:evenodd;stroke:context-stroke;stroke-width:1pt"
         d="M 0,0 5,-5 -12.5,0 5,5 Z"
         id="path1081" />
    </marker>
    <marker
       style="overflow:visible"
       id="Arrow1Mstart"
       refX="0"
       refY="0"
       orient="auto"
       inkscape:stockid="Arrow1Mstart"
       inkscape:isstock="true">
      <path
         transform="matrix(0.4,0,0,0.4,4,0)"
         style="fill:context-stroke;fill-rule:evenodd;stroke:context-stroke;stroke-width:1pt"
         d="M 0,0 5,-5 -12.5,0 5,5 Z"
         id="path1072" />
    </marker>
    <marker
       style="overflow:visible"
       id="Arrow1Lstart"
       refX="0"
       refY="0"
       orient="auto"
       inkscape:stockid="Arrow1Lstart"
       inkscape:isstock="true">
      <path
         transform="matrix(0.8,0,0,0.8,10,0)"
         style="fill:context-stroke;fill-rule:evenodd;stroke:context-stroke;stroke-width:1pt"
         d="M 0,0 5,-5 -12.5,0 5,5 Z"
         id="path1066" />
    </marker>
    <marker
       style="overflow:visible"
       id="Arrow1Mend"
       refX="0"
       refY="0"
       orient="auto"
       inkscape:stockid="Arrow1Mend"
       inkscape:isstock="true">
      <path
         transform="matrix(-0.4,0,0,-0.4,-4,0)"
         style="fill:context-stroke;fill-rule:evenodd;stroke:context-stroke;stroke-width:1pt"
         d="M 0,0 5,-5 -12.5,0 5,5 Z"
         id="path1075" />
    </marker>
  </defs>
  <g
     inkscape:label="Axis"
     inkscape:groupmode="layer"
     id="layer1"
     transform="translate(-5.4175506,-4.6109894)"
     sodipodi:insensitive="true">
    <g
       transform="matrix(0.915539,0,0,0.915539,190.3853,84.33842)"
       ns1:version="1.1.0"
       ns1:texconverter="pdflatex"
       ns1:pdfconverter="inkscape"
       ns1:text="log $\\sigma'$"
       ns1:preamble="C:\\Users\\zamcr\\AppData\\Roaming\\inkscape\\extensions\\textext\\default_packages.tex"
       ns1:scale="2.5952292114219997"
       ns1:alignment="middle center"
       ns1:inkscapeversion="1.1.1"
       ns1:jacobian_sqrt="0.915539"
       style="fill:#ffffff;stroke-width:0"
       id="g1704">
      <defs
         id="id-6ae82533-61e1-4e90-9521-24fd8a71303a"
         style="fill:#ffffff;stroke-width:0">
        <g
           id="id-9bc55657-4697-495b-83c0-23d756c5e7ee"
           style="fill:#ffffff;stroke-width:0">
          <symbol
             overflow="visible"
             id="id-eae76167-6af9-490a-b6bc-d0f60413d1b7"
             style="fill:#ffffff;stroke-width:0">
            <path
               style="fill:#ffffff;stroke:none;stroke-width:0"
               d=""
               id="id-8fa62937-b230-4b47-8613-178c264eb182" />
          </symbol>
          <symbol
             overflow="visible"
             id="id-6865d0c8-4948-4abc-81fb-b5a1a1427cd7"
             style="fill:#ffffff;stroke-width:0">
            <path
               style="fill:#ffffff;stroke:none;stroke-width:0"
               d="M 1.765625,-6.921875 0.328125,-6.8125 V -6.5 c 0.703125,0 0.78125,0.0625 0.78125,0.5625 V -0.75 c 0,0.4375 -0.109375,0.4375 -0.78125,0.4375 V 0 C 0.65625,-0.015625 1.1875,-0.03125 1.4375,-0.03125 c 0.25,0 0.734375,0.015625 1.109375,0.03125 v -0.3125 c -0.671875,0 -0.78125,0 -0.78125,-0.4375 z m 0,0"
               id="id-6b8dc460-d5e3-46b6-8eea-b8b47892cf05" />
          </symbol>
          <symbol
             overflow="visible"
             id="id-7aa28591-308d-48f6-8b52-dc34c208f58e"
             style="fill:#ffffff;stroke-width:0">
            <path
               style="fill:#ffffff;stroke:none;stroke-width:0"
               d="M 4.6875,-2.140625 C 4.6875,-3.40625 3.703125,-4.46875 2.5,-4.46875 c -1.25,0 -2.21875,1.09375 -2.21875,2.328125 0,1.296875 1.03125,2.25 2.203125,2.25 1.203125,0 2.203125,-0.984375 2.203125,-2.25 z m -2.1875,2 c -0.4375,0 -0.875,-0.203125 -1.140625,-0.671875 -0.25,-0.4375 -0.25,-1.046875 -0.25,-1.40625 0,-0.390625 0,-0.921875 0.234375,-1.359375 C 1.609375,-4.03125 2.078125,-4.25 2.484375,-4.25 c 0.4375,0 0.859375,0.21875 1.125,0.65625 0.265625,0.421875 0.265625,1 0.265625,1.375 0,0.359375 0,0.90625 -0.21875,1.34375 C 3.421875,-0.421875 2.984375,-0.140625 2.5,-0.140625 Z m 0,0"
               id="id-8a571a8f-6bf0-4bf5-86a6-84eeced07b6e" />
          </symbol>
          <symbol
             overflow="visible"
             id="id-f5e74208-efa0-4907-941e-eff877cacadc"
             style="fill:#ffffff;stroke-width:0">
            <path
               style="fill:#ffffff;stroke:none;stroke-width:0"
               d="m 2.21875,-1.71875 c -0.875,0 -0.875,-1 -0.875,-1.21875 0,-0.265625 0.015625,-0.59375 0.15625,-0.84375 0.078125,-0.109375 0.3125,-0.390625 0.71875,-0.390625 0.859375,0 0.859375,0.984375 0.859375,1.21875 0,0.265625 0,0.59375 -0.15625,0.84375 C 2.84375,-2 2.609375,-1.71875 2.21875,-1.71875 Z M 1.0625,-1.328125 c 0,-0.03125 0,-0.265625 0.15625,-0.46875 0.390625,0.28125 0.8125,0.3125 1,0.3125 0.921875,0 1.609375,-0.6875 1.609375,-1.453125 0,-0.375 -0.15625,-0.734375 -0.40625,-0.96875 C 3.78125,-4.25 4.140625,-4.296875 4.3125,-4.296875 c 0.03125,0 0.078125,0 0.109375,0.015625 C 4.3125,-4.25 4.25,-4.140625 4.25,-4.015625 c 0,0.171875 0.140625,0.28125 0.296875,0.28125 0.09375,0 0.28125,-0.0625 0.28125,-0.296875 0,-0.171875 -0.109375,-0.484375 -0.5,-0.484375 -0.203125,0 -0.640625,0.0625 -1.0625,0.46875 C 2.84375,-4.375 2.4375,-4.40625 2.21875,-4.40625 c -0.9375,0 -1.625,0.6875 -1.625,1.453125 0,0.4375 0.21875,0.8125 0.46875,1.03125 -0.125,0.140625 -0.3125,0.46875 -0.3125,0.828125 0,0.3125 0.140625,0.6875 0.453125,0.890625 -0.609375,0.15625 -0.921875,0.59375 -0.921875,0.984375 0,0.71875 0.984375,1.265625 2.203125,1.265625 1.171875,0 2.203125,-0.5 2.203125,-1.28125 0,-0.34375 -0.125,-0.859375 -0.640625,-1.140625 -0.53125,-0.265625 -1.109375,-0.265625 -1.71875,-0.265625 -0.25,0 -0.671875,0 -0.75,-0.015625 C 1.265625,-0.703125 1.0625,-1 1.0625,-1.328125 Z M 2.5,1.828125 c -1.015625,0 -1.703125,-0.515625 -1.703125,-1.046875 0,-0.453125 0.375,-0.828125 0.8125,-0.84375 h 0.59375 c 0.859375,0 1.96875,0 1.96875,0.84375 0,0.546875 -0.703125,1.046875 -1.671875,1.046875 z m 0,0"
               id="id-9f71bdec-090a-4433-9196-c73a229097c9" />
          </symbol>
          <symbol
             overflow="visible"
             id="id-204b913b-9d3e-477f-873d-8f036fe45ef8"
             style="fill:#ffffff;stroke-width:0">
            <path
               style="fill:#ffffff;stroke:none;stroke-width:0"
               d=""
               id="id-d39f4476-0a0f-420a-8911-1b0f37e166b8" />
          </symbol>
          <symbol
             overflow="visible"
             id="id-62dc06f9-661d-49a7-a31f-a1f834dfb671"
             style="fill:#ffffff;stroke-width:0">
            <path
               style="fill:#ffffff;stroke:none;stroke-width:0"
               d="m 5.15625,-3.71875 c 0.140625,0 0.5,0 0.5,-0.34375 0,-0.234375 -0.21875,-0.234375 -0.390625,-0.234375 h -2.28125 c -1.5,0 -2.609375,1.640625 -2.609375,2.828125 0,0.875 0.59375,1.578125 1.5,1.578125 1.171875,0 2.5,-1.203125 2.5,-2.734375 0,-0.171875 0,-0.65625 -0.3125,-1.09375 z M 1.890625,-0.109375 C 1.390625,-0.109375 1,-0.46875 1,-1.1875 c 0,-0.296875 0.109375,-1.109375 0.46875,-1.703125 0.421875,-0.6875 1.015625,-0.828125 1.359375,-0.828125 0.828125,0 0.90625,0.65625 0.90625,0.96875 0,0.46875 -0.203125,1.28125 -0.53125,1.796875 -0.390625,0.578125 -0.9375,0.84375 -1.3125,0.84375 z m 0,0"
               id="id-99e720f7-6356-4941-9924-08be6a267d36" />
          </symbol>
          <symbol
             overflow="visible"
             id="id-812b6767-97f9-4dfa-b33c-3bad7a9ba241"
             style="fill:#ffffff;stroke-width:0">
            <path
               style="fill:#ffffff;stroke:none;stroke-width:0"
               d=""
               id="id-69f13c99-d0c3-4a76-a607-8f697a0cf549" />
          </symbol>
          <symbol
             overflow="visible"
             id="id-b7f50341-d9a3-4341-8993-52a99b9171be"
             style="fill:#ffffff;stroke-width:0">
            <path
               style="fill:#ffffff;stroke:none;stroke-width:0"
               d="m 2.015625,-3.296875 c 0.0625,-0.109375 0.0625,-0.171875 0.0625,-0.21875 0,-0.21875 -0.1875,-0.375 -0.40625,-0.375 -0.265625,0 -0.34375,0.21875 -0.375,0.328125 L 0.375,-0.546875 c -0.015625,0.015625 -0.046875,0.09375 -0.046875,0.109375 0,0.078125 0.21875,0.15625 0.28125,0.15625 0.046875,0 0.046875,-0.015625 0.09375,-0.125 z m 0,0"
               id="id-3596fc8a-b7f0-4030-b623-fffb6b39872f" />
          </symbol>
        </g>
      </defs>
      <g
         id="id-1ea89aa1-2331-4bf5-b20f-32e14b8fb101"
         transform="translate(-149.04,-127.258)"
         style="fill:#ffffff;stroke-width:0">
        <g
           style="fill:#ffffff;fill-opacity:1;stroke-width:0"
           id="id-72ee3f0a-62a9-410b-80ed-bbefd8d19139">
          <g
             transform="translate(148.712,134.765)"
             style="fill:#ffffff;stroke-width:0"
             id="g1686">
            <path
               style="fill:#ffffff;stroke:none;stroke-width:0"
               d="M 1.765625,-6.921875 0.328125,-6.8125 V -6.5 c 0.703125,0 0.78125,0.0625 0.78125,0.5625 V -0.75 c 0,0.4375 -0.109375,0.4375 -0.78125,0.4375 V 0 C 0.65625,-0.015625 1.1875,-0.03125 1.4375,-0.03125 c 0.25,0 0.734375,0.015625 1.109375,0.03125 v -0.3125 c -0.671875,0 -0.78125,0 -0.78125,-0.4375 z m 0,0"
               id="id-536534dd-80af-4cd6-bd74-c718c5762fa5" />
          </g>
          <g
             transform="translate(151.48,134.765)"
             style="fill:#ffffff;stroke-width:0"
             id="g1689">
            <path
               style="fill:#ffffff;stroke:none;stroke-width:0"
               d="M 4.6875,-2.140625 C 4.6875,-3.40625 3.703125,-4.46875 2.5,-4.46875 c -1.25,0 -2.21875,1.09375 -2.21875,2.328125 0,1.296875 1.03125,2.25 2.203125,2.25 1.203125,0 2.203125,-0.984375 2.203125,-2.25 z m -2.1875,2 c -0.4375,0 -0.875,-0.203125 -1.140625,-0.671875 -0.25,-0.4375 -0.25,-1.046875 -0.25,-1.40625 0,-0.390625 0,-0.921875 0.234375,-1.359375 C 1.609375,-4.03125 2.078125,-4.25 2.484375,-4.25 c 0.4375,0 0.859375,0.21875 1.125,0.65625 0.265625,0.421875 0.265625,1 0.265625,1.375 0,0.359375 0,0.90625 -0.21875,1.34375 C 3.421875,-0.421875 2.984375,-0.140625 2.5,-0.140625 Z m 0,0"
               id="id-bd7f3bea-2a44-43be-8d89-404d49dc1dc1" />
          </g>
          <g
             transform="translate(156.461,134.765)"
             style="fill:#ffffff;stroke-width:0"
             id="g1692">
            <path
               style="fill:#ffffff;stroke:none;stroke-width:0"
               d="m 2.21875,-1.71875 c -0.875,0 -0.875,-1 -0.875,-1.21875 0,-0.265625 0.015625,-0.59375 0.15625,-0.84375 0.078125,-0.109375 0.3125,-0.390625 0.71875,-0.390625 0.859375,0 0.859375,0.984375 0.859375,1.21875 0,0.265625 0,0.59375 -0.15625,0.84375 C 2.84375,-2 2.609375,-1.71875 2.21875,-1.71875 Z M 1.0625,-1.328125 c 0,-0.03125 0,-0.265625 0.15625,-0.46875 0.390625,0.28125 0.8125,0.3125 1,0.3125 0.921875,0 1.609375,-0.6875 1.609375,-1.453125 0,-0.375 -0.15625,-0.734375 -0.40625,-0.96875 C 3.78125,-4.25 4.140625,-4.296875 4.3125,-4.296875 c 0.03125,0 0.078125,0 0.109375,0.015625 C 4.3125,-4.25 4.25,-4.140625 4.25,-4.015625 c 0,0.171875 0.140625,0.28125 0.296875,0.28125 0.09375,0 0.28125,-0.0625 0.28125,-0.296875 0,-0.171875 -0.109375,-0.484375 -0.5,-0.484375 -0.203125,0 -0.640625,0.0625 -1.0625,0.46875 C 2.84375,-4.375 2.4375,-4.40625 2.21875,-4.40625 c -0.9375,0 -1.625,0.6875 -1.625,1.453125 0,0.4375 0.21875,0.8125 0.46875,1.03125 -0.125,0.140625 -0.3125,0.46875 -0.3125,0.828125 0,0.3125 0.140625,0.6875 0.453125,0.890625 -0.609375,0.15625 -0.921875,0.59375 -0.921875,0.984375 0,0.71875 0.984375,1.265625 2.203125,1.265625 1.171875,0 2.203125,-0.5 2.203125,-1.28125 0,-0.34375 -0.125,-0.859375 -0.640625,-1.140625 -0.53125,-0.265625 -1.109375,-0.265625 -1.71875,-0.265625 -0.25,0 -0.671875,0 -0.75,-0.015625 C 1.265625,-0.703125 1.0625,-1 1.0625,-1.328125 Z M 2.5,1.828125 c -1.015625,0 -1.703125,-0.515625 -1.703125,-1.046875 0,-0.453125 0.375,-0.828125 0.8125,-0.84375 h 0.59375 c 0.859375,0 1.96875,0 1.96875,0.84375 0,0.546875 -0.703125,1.046875 -1.671875,1.046875 z m 0,0"
               id="id-c34e77b2-68f7-464a-8695-25766b406c8c" />
          </g>
        </g>
        <g
           style="fill:#ffffff;fill-opacity:1;stroke-width:0"
           id="id-f5447dc3-d051-43f5-ada6-3f43bdc02e18">
          <g
             transform="translate(164.763,134.765)"
             style="fill:#ffffff;stroke-width:0"
             id="g1696">
            <path
               style="fill:#ffffff;stroke:none;stroke-width:0"
               d="m 5.15625,-3.71875 c 0.140625,0 0.5,0 0.5,-0.34375 0,-0.234375 -0.21875,-0.234375 -0.390625,-0.234375 h -2.28125 c -1.5,0 -2.609375,1.640625 -2.609375,2.828125 0,0.875 0.59375,1.578125 1.5,1.578125 1.171875,0 2.5,-1.203125 2.5,-2.734375 0,-0.171875 0,-0.65625 -0.3125,-1.09375 z M 1.890625,-0.109375 C 1.390625,-0.109375 1,-0.46875 1,-1.1875 c 0,-0.296875 0.109375,-1.109375 0.46875,-1.703125 0.421875,-0.6875 1.015625,-0.828125 1.359375,-0.828125 0.828125,0 0.90625,0.65625 0.90625,0.96875 0,0.46875 -0.203125,1.28125 -0.53125,1.796875 -0.390625,0.578125 -0.9375,0.84375 -1.3125,0.84375 z m 0,0"
               id="id-38064054-04cf-466c-aea7-a3f2e6b52ddd" />
          </g>
        </g>
        <g
           style="fill:#ffffff;fill-opacity:1;stroke-width:0"
           id="id-8d8b704b-3f0e-4a1d-b621-2df03f580207">
          <g
             transform="translate(170.813,131.149)"
             style="fill:#ffffff;stroke-width:0"
             id="g1700">
            <path
               style="fill:#ffffff;stroke:none;stroke-width:0"
               d="m 2.015625,-3.296875 c 0.0625,-0.109375 0.0625,-0.171875 0.0625,-0.21875 0,-0.21875 -0.1875,-0.375 -0.40625,-0.375 -0.265625,0 -0.34375,0.21875 -0.375,0.328125 L 0.375,-0.546875 c -0.015625,0.015625 -0.046875,0.09375 -0.046875,0.109375 0,0.078125 0.21875,0.15625 0.28125,0.15625 0.046875,0 0.046875,-0.015625 0.09375,-0.125 z m 0,0"
               id="id-8e11ebec-f3d8-4e8c-ac80-576817ccd5d1" />
          </g>
        </g>
      </g>
    </g>
    <g
       id="path1064">
      <path
         style="color:#000000;fill:#ffffff;-inkscape-stroke:none"
         d="M 6.1875,6.3964844 V 94.751953 h 202.95703 v -1 H 7.1875 V 6.3964844 Z"
         id="path1956" />
      <g
         id="g1938">
        <g
           id="path1948">
          <path
             style="color:#000000;fill:#ffffff;fill-rule:evenodd;stroke-width:0.2pt;-inkscape-stroke:none"
             d="m 207.94518,94.251141 -1,1 3.5,-1 -3.5,-1 z"
             id="path1952" />
          <path
             style="color:#000000;fill:#ffffff;fill-rule:evenodd;-inkscape-stroke:none"
             d="m 206.48633,92.982422 1.26953,1.269531 -1.26953,1.269531 4.44336,-1.269531 z m 0.91601,0.537109 2.5586,0.730469 -2.5586,0.732422 0.73047,-0.730469 -0.0937,-0.0957 z"
             id="path1954" />
        </g>
        <g
           id="path1940">
          <path
             style="color:#000000;fill:#ffffff;fill-rule:evenodd;stroke-width:0.2pt;-inkscape-stroke:none"
             d="m 6.6871116,7.5963301 1,1 -1,-3.5 -1,3.5 z"
             id="path1944" />
          <path
             style="color:#000000;fill:#ffffff;fill-rule:evenodd;-inkscape-stroke:none"
             d="M 6.6875,4.6113281 5.4179687,9.0546875 6.6875,7.7851562 7.9570312,9.0546875 Z m 0,0.96875 L 7.4179687,8.1386719 6.6875,7.4082031 6.59375,7.5019531 5.9550781,8.140625 Z"
             id="path1946" />
        </g>
      </g>
    </g>
    <g
       transform="matrix(0.9155394,0,0,0.9155394,9.5328459,5.2549756)"
       ns1:version="1.1.0"
       ns1:texconverter="pdflatex"
       ns1:pdfconverter="inkscape"
       ns1:text="$e$"
       ns1:preamble="C:\\Users\\zamcr\\AppData\\Roaming\\inkscape\\extensions\\textext\\default_packages.tex"
       ns1:scale="1.4"
       ns1:alignment="middle center"
       ns1:inkscapeversion="1.1.1"
       ns1:jacobian_sqrt="0.493889"
       id="g1533"
       style="fill:#ffffff;stroke-width:0.539451">
      <defs
         id="id-a357c61c-72b3-4cec-9932-c838fcb8590f">
        <g
           id="id-ab8bc89c-e4e8-4e77-b9e7-4d3482c8527a">
          <symbol
             overflow="visible"
             id="id-dc583dce-3fce-4d58-9d52-8e9de6f43416">
            <path
               style="stroke:none"
               d=""
               id="id-e533fe66-73ea-4180-bb3e-3f980dd0179e" />
          </symbol>
          <symbol
             overflow="visible"
             id="id-aaa47ab4-1935-4669-83f5-a60a40aad0e1">
            <path
               style="stroke:none"
               d="m 1.859375,-2.296875 c 0.296875,0 1.03125,-0.03125 1.53125,-0.234375 0.703125,-0.296875 0.75,-0.890625 0.75,-1.03125 0,-0.4375 -0.375,-0.84375 -1.0625,-0.84375 -1.109375,0 -2.625,0.96875 -2.625,2.71875 0,1.015625 0.59375,1.796875 1.578125,1.796875 1.421875,0 2.25,-1.0625 2.25,-1.171875 0,-0.0625 -0.046875,-0.140625 -0.109375,-0.140625 -0.0625,0 -0.078125,0.03125 -0.140625,0.109375 -0.78125,0.984375 -1.875,0.984375 -1.984375,0.984375 -0.78125,0 -0.875,-0.84375 -0.875,-1.15625 0,-0.125 0.015625,-0.421875 0.15625,-1.03125 z m -0.46875,-0.21875 C 1.78125,-4.03125 2.8125,-4.1875 3.078125,-4.1875 c 0.453125,0 0.734375,0.296875 0.734375,0.625 0,1.046875 -1.59375,1.046875 -2.015625,1.046875 z m 0,0"
               id="id-22f2a6ba-12c5-4cef-bf27-c009523fc8f2" />
          </symbol>
        </g>
      </defs>
      <g
         id="id-4472b05d-336a-44bf-8c66-4c258df2ba7a"
         transform="translate(-149.165,-130.359)"
         style="fill:#ffffff;stroke-width:0.539451">
        <g
           style="fill:#ffffff;fill-opacity:1;stroke-width:0.539451"
           id="id-f0f3c5f5-7137-4813-8c8f-4a0b5dc4a5f6">
          <g
             transform="translate(148.712,134.765)"
             id="g1529"
             style="fill:#ffffff;stroke-width:0.539451">
            <path
               style="fill:#ffffff;stroke:none;stroke-width:0.539451"
               d="m 1.859375,-2.296875 c 0.296875,0 1.03125,-0.03125 1.53125,-0.234375 0.703125,-0.296875 0.75,-0.890625 0.75,-1.03125 0,-0.4375 -0.375,-0.84375 -1.0625,-0.84375 -1.109375,0 -2.625,0.96875 -2.625,2.71875 0,1.015625 0.59375,1.796875 1.578125,1.796875 1.421875,0 2.25,-1.0625 2.25,-1.171875 0,-0.0625 -0.046875,-0.140625 -0.109375,-0.140625 -0.0625,0 -0.078125,0.03125 -0.140625,0.109375 -0.78125,0.984375 -1.875,0.984375 -1.984375,0.984375 -0.78125,0 -0.875,-0.84375 -0.875,-1.15625 0,-0.125 0.015625,-0.421875 0.15625,-1.03125 z m -0.46875,-0.21875 C 1.78125,-4.03125 2.8125,-4.1875 3.078125,-4.1875 c 0.453125,0 0.734375,0.296875 0.734375,0.625 0,1.046875 -1.59375,1.046875 -2.015625,1.046875 z m 0,0"
               id="id-3a78292d-488d-4f54-a54c-0f6f4238d75e" />
          </g>
        </g>
      </g>
    </g>
  </g>
  <g
     inkscape:groupmode="layer"
     id="layer2"
     inkscape:label="consol_curve"
     sodipodi:insensitive="true">
    <path
       style="fill:none;stroke:#ff0000;stroke-width:1.5;stroke-linecap:round;stroke-linejoin:miter;stroke-miterlimit:4;stroke-dasharray:none;stroke-opacity:1"
       d="m 6.6734849,10.145963 65.9088451,2.07531 c 14.083571,0.144189 25.722318,5.178027 36.12577,12.682453 17.75993,13.244202 22.51523,16.102873 55.90949,59.261647"
       id="path2267"
       sodipodi:nodetypes="cccc" />
  </g>
  <g
     inkscape:groupmode="layer"
     id="layer3"
     inkscape:label="s1"
     sodipodi:insensitive="true"
     style="display:inline">
    <circle
       style="fill:#0000ff;stroke:none;stroke-width:1.5;stroke-linecap:round;stroke-linejoin:round;stroke-miterlimit:4;stroke-dasharray:none;paint-order:stroke fill markers"
       id="path2686"
       cx="91.54425"
       cy="15.507182"
       r="2.2194293" />
    <text
       xml:space="preserve"
       style="font-size:4.93889px;line-height:1;font-family:'Times New Roman';-inkscape-font-specification:'Times New Roman, ';text-align:center;text-anchor:middle;fill:#0000ff;stroke-width:0.264583"
       x="36.412682"
       y="59.190807"
       id="text4970"><tspan
         sodipodi:role="line"
         id="tspan4968"
         style="font-size:4.93889px;fill:#0000ff;stroke-width:0.264583"
         x="36.412682"
         y="59.190807">(1) Find point of max. curvature</tspan></text>
    <text
       xml:space="preserve"
       style="font-size:4.93889px;line-height:1;font-family:'Times New Roman';-inkscape-font-specification:'Times New Roman, ';text-align:center;text-anchor:middle;fill:#ff00ff;stroke-width:0.264583"
       x="40.116852"
       y="64.082367"
       id="text8821"><tspan
         sodipodi:role="line"
         id="tspan8819"
         style="font-size:4.93889px;fill:#ff00ff;stroke-width:0.264583"
         x="40.116852"
         y="64.082367">(2) Horizontal  line through  point 1</tspan></text>
    <path
       style="fill:none;stroke:#ff00ff;stroke-width:1;stroke-linecap:butt;stroke-linejoin:miter;stroke-miterlimit:4;stroke-dasharray:2, 1;stroke-dashoffset:0;stroke-opacity:1"
       d="M 93.763678,15.507182 H 161.74738"
       id="path8856" />
  </g>
  <g
     inkscape:groupmode="layer"
     id="layer4"
     inkscape:label="s2"
     sodipodi:insensitive="true">
    <path
       style="fill:#00ff00;stroke:#00ff00;stroke-width:1;stroke-linecap:butt;stroke-linejoin:miter;stroke-miterlimit:4;stroke-dasharray:2, 1;stroke-dashoffset:0;stroke-opacity:1"
       d="M 133.05046,30.207299 C 131.66692,29.746117 58.339285,2.9976707 58.339285,2.9976707"
       id="path14467" />
    <text
       xml:space="preserve"
       style="font-size:7.05556px;line-height:1;font-family:'Times New Roman';-inkscape-font-specification:'Times New Roman, ';text-align:center;text-anchor:middle;stroke-width:0.264583"
       x="6.6871114"
       y="71.252327"
       id="text16147"><tspan
         sodipodi:role="line"
         id="tspan16145"
         style="stroke-width:0.264583"
         x="6.6871114"
         y="71.252327" /></text>
    <text
       xml:space="preserve"
       style="font-size:4.9389px;line-height:1;font-family:'Times New Roman';-inkscape-font-specification:'Times New Roman, ';text-align:center;text-anchor:middle;fill:#00ff00;stroke-width:0.264583"
       x="35.280277"
       y="69.177017"
       id="text18241"><tspan
         sodipodi:role="line"
         id="tspan18239"
         style="fill:#00ff00;stroke-width:0.264583"
         x="35.280277"
         y="69.177017">(3) tangent line through point 1</tspan></text>
  </g>
  <g
     inkscape:groupmode="layer"
     id="layer5"
     inkscape:label="s3"
     sodipodi:insensitive="true">
    <path
       style="fill:#ffff00;stroke:#ffff00;stroke-width:1;stroke-linecap:butt;stroke-linejoin:miter;stroke-miterlimit:4;stroke-dasharray:2, 1;stroke-dashoffset:0;stroke-opacity:1"
       d="M 138.244,23.487627 91.54425,15.507182"
       id="path18797"
       sodipodi:nodetypes="cc" />
    <text
       xml:space="preserve"
       style="font-size:4.9389px;line-height:1;font-family:'Times New Roman';-inkscape-font-specification:'Times New Roman, ';text-align:center;text-anchor:middle;fill:#ffff00;stroke-width:0.264583"
       x="31.918545"
       y="74.201355"
       id="text20388"><tspan
         sodipodi:role="line"
         id="tspan20386"
         style="fill:#ffff00;stroke-width:0.264583"
         x="31.918545"
         y="74.201355">(4) Bisector of lines 2 and 3</tspan></text>
  </g>
  <g
     inkscape:groupmode="layer"
     id="layer6"
     inkscape:label="s4"
     sodipodi:insensitive="true">
    <path
       style="fill:none;stroke:#00ffff;stroke-width:1;stroke-linecap:butt;stroke-linejoin:miter;stroke-miterlimit:4;stroke-dasharray:2, 1;stroke-dashoffset:0;stroke-opacity:1"
       d="m 164.61759,84.165373 -60.045,-73.442935"
       id="path20999" />
    <text
       xml:space="preserve"
       style="font-size:4.9389px;line-height:1;font-family:'Times New Roman';-inkscape-font-specification:'Times New Roman, ';text-align:center;text-anchor:middle;fill:#00ffff;stroke-width:0.264583"
       x="43.665314"
       y="79.216049"
       id="text21974"><tspan
         sodipodi:role="line"
         id="tspan21972"
         style="fill:#00ffff;stroke-width:0.264583"
         x="43.665314"
         y="79.216049">(5) Intersect virgin curve tangent with 4</tspan></text>
  </g>
  <g
     inkscape:groupmode="layer"
     id="layer7"
     inkscape:label="s5">
    <path
       style="fill:#ffff00;stroke:#ff6600;stroke-width:1.00000003;stroke-linecap:butt;stroke-linejoin:miter;stroke-opacity:1;stroke-miterlimit:4;stroke-dasharray:2.00000006, 2.00000006;stroke-dashoffset:0;marker-end:url(#Arrow1Send);marker-start:url(#DotM)"
       d="M 111.23563,18.87221 V 89.140963"
       id="path23132" />
    <text
       xml:space="preserve"
       style="font-size:4.9389px;line-height:1;font-family:'Times New Roman';-inkscape-font-specification:'Times New Roman, ';text-align:center;text-anchor:middle;stroke-width:0.264583;fill:#ff6600"
       x="46.589344"
       y="84.242798"
       id="text24519"><tspan
         sodipodi:role="line"
         id="tspan24517"
         style="stroke-width:0.264583;fill:#ff6600"
         x="46.589344"
         y="84.242798">(6) Project intersection of 4 and 5 and read</tspan></text>
  </g>
</svg>
