<?xml version="1.0" encoding="UTF-8" standalone="no"?>
<!-- Created with Inkscape (http://www.inkscape.org/) -->

<svg
   width="2in"
   height="2in"
   viewBox="0 0 50.800001 50.8"
   version="1.1"
   id="svg1"
   inkscape:version="1.3.2 (091e20e, 2023-11-25, custom)"
   sodipodi:docname="Consolidation_EOP.svg"
   xmlns:inkscape="http://www.inkscape.org/namespaces/inkscape"
   xmlns:sodipodi="http://sodipodi.sourceforge.net/DTD/sodipodi-0.dtd"
   xmlns="http://www.w3.org/2000/svg"
   xmlns:svg="http://www.w3.org/2000/svg"
   xmlns:ns1="http://www.iki.fi/pav/software/textext/">
  <sodipodi:namedview
     id="namedview1"
     pagecolor="#ffffff"
     bordercolor="#111111"
     borderopacity="1"
     inkscape:showpageshadow="0"
     inkscape:pageopacity="0"
     inkscape:pagecheckerboard="1"
     inkscape:deskcolor="#d1d1d1"
     inkscape:document-units="mm"
     inkscape:zoom="5.5660494"
     inkscape:cx="98.903183"
     inkscape:cy="118.66585"
     inkscape:window-width="1920"
     inkscape:window-height="1015"
     inkscape:window-x="1217"
     inkscape:window-y="1347"
     inkscape:window-maximized="1"
     inkscape:current-layer="layer1" />
  <defs
     id="defs1">
    <marker
       style="overflow:visible"
       id="DartArrow"
       refX="0"
       refY="0"
       orient="auto-start-reverse"
       inkscape:stockid="Dart arrow"
       markerWidth="0.80000001"
       markerHeight="0.80000001"
       viewBox="0 0 1 1"
       inkscape:isstock="true"
       inkscape:collect="always"
       preserveAspectRatio="xMidYMid">
      <path
         style="fill:context-stroke;fill-rule:evenodd;stroke:none"
         d="M 0,0 5,-5 -12.5,0 5,5 Z"
         transform="scale(-0.5)"
         id="path6" />
    </marker>
  </defs>
  <g
     inkscape:label="Layer 1"
     inkscape:groupmode="layer"
     id="layer1">
    <path
       style="fill:none;stroke:#008000;stroke-width:0.264583px;stroke-linecap:butt;stroke-linejoin:miter;stroke-opacity:1;stroke-dasharray:1.05833197, 1.05833197;stroke-dashoffset:0"
       d="M 31.127533,32.754596 V 29.775663"
       id="path35" />
    <path
       style="fill:none;stroke:#000000;stroke-width:0.264583px;stroke-linecap:butt;stroke-linejoin:miter;stroke-opacity:1;marker-end:url(#DartArrow);marker-start:url(#DartArrow)"
       d="M 1.4117237,2.2856479 V 21.511981 H 49.151407"
       id="path1" />
    <g
       transform="matrix(0.352778,0,0,0.352778,2.319469,0.96282112)"
       ns1:version="1.10.2"
       ns1:texconverter="pdflatex"
       ns1:pdfconverter="inkscape"
       ns1:text="$e$"
       ns1:preamble="C:\Users\zamcr\AppData\Roaming\inkscape\extensions\textext\default_packages.tex"
       ns1:scale="1.0"
       ns1:alignment="middle center"
       ns1:stroke-to-path="0"
       ns1:inkscapeversion="1.3.2"
       id="g7435"
       ns1:jacobian_sqrt="0.352778">
      <defs
         id="id-940ab995-35fe-476d-8994-55f945097781">
        <g
           id="id-67dd3769-a81e-4e33-af6e-5258d9e1d712">
          <g
             id="id-cdc77720-7f03-4007-a492-19d031bd1050">
            <path
               d="m 1.859375,-2.296875 c 0.296875,0 1.03125,-0.03125 1.53125,-0.234375 0.703125,-0.296875 0.75,-0.890625 0.75,-1.03125 0,-0.4375 -0.375,-0.84375 -1.0625,-0.84375 -1.109375,0 -2.625,0.96875 -2.625,2.71875 0,1.015625 0.59375,1.796875 1.578125,1.796875 1.421875,0 2.25,-1.0625 2.25,-1.171875 0,-0.0625 -0.046875,-0.140625 -0.109375,-0.140625 -0.0625,0 -0.078125,0.03125 -0.140625,0.109375 -0.78125,0.984375 -1.875,0.984375 -1.984375,0.984375 -0.78125,0 -0.875,-0.84375 -0.875,-1.15625 0,-0.125 0.015625,-0.421875 0.15625,-1.03125 z m -0.46875,-0.21875 C 1.78125,-4.03125 2.8125,-4.1875 3.078125,-4.1875 c 0.453125,0 0.734375,0.296875 0.734375,0.625 0,1.046875 -1.59375,1.046875 -2.015625,1.046875 z m 0,0"
               id="id-d4bcb3ab-09f4-40ff-a773-8f73369363de" />
          </g>
        </g>
      </defs>
      <g
         fill="#000000"
         fill-opacity="1"
         id="id-5e424a2e-f935-4530-a009-6133bf4b7f26"
         transform="translate(-149.165,-130.359)">
        <g
           transform="translate(148.712,134.765)"
           id="g5388">
          <path
             d="m 1.859375,-2.296875 c 0.296875,0 1.03125,-0.03125 1.53125,-0.234375 0.703125,-0.296875 0.75,-0.890625 0.75,-1.03125 0,-0.4375 -0.375,-0.84375 -1.0625,-0.84375 -1.109375,0 -2.625,0.96875 -2.625,2.71875 0,1.015625 0.59375,1.796875 1.578125,1.796875 1.421875,0 2.25,-1.0625 2.25,-1.171875 0,-0.0625 -0.046875,-0.140625 -0.109375,-0.140625 -0.0625,0 -0.078125,0.03125 -0.140625,0.109375 -0.78125,0.984375 -1.875,0.984375 -1.984375,0.984375 -0.78125,0 -0.875,-0.84375 -0.875,-1.15625 0,-0.125 0.015625,-0.421875 0.15625,-1.03125 z m -0.46875,-0.21875 C 1.78125,-4.03125 2.8125,-4.1875 3.078125,-4.1875 c 0.453125,0 0.734375,0.296875 0.734375,0.625 0,1.046875 -1.59375,1.046875 -2.015625,1.046875 z m 0,0"
             id="id-56080f63-319f-45cd-a8a6-178f65c65ff4" />
        </g>
      </g>
    </g>
    <g
       transform="matrix(0.352778,0,0,0.352778,43.243123,22.295984)"
       ns1:version="1.10.2"
       ns1:texconverter="pdflatex"
       ns1:pdfconverter="inkscape"
       ns1:text="$\\log t$"
       ns1:preamble="C:\Users\zamcr\AppData\Roaming\inkscape\extensions\textext\default_packages.tex"
       ns1:scale="1.0"
       ns1:alignment="middle center"
       ns1:stroke-to-path="0"
       ns1:inkscapeversion="1.3.2"
       id="g3276"
       ns1:jacobian_sqrt="0.352778">
      <defs
         id="id-d970cc3b-01d3-4c57-bccb-c3ebca4a86a1">
        <g
           id="id-bc3ada6e-bbcc-4a29-906b-d80fac389c60">
          <g
             id="id-c6aa8958-9037-4a0c-9d2b-a8bc25552073">
            <path
               d="M 1.765625,-6.921875 0.328125,-6.8125 V -6.5 c 0.703125,0 0.78125,0.0625 0.78125,0.5625 V -0.75 c 0,0.4375 -0.109375,0.4375 -0.78125,0.4375 V 0 C 0.65625,-0.015625 1.1875,-0.03125 1.4375,-0.03125 c 0.25,0 0.734375,0.015625 1.109375,0.03125 v -0.3125 c -0.671875,0 -0.78125,0 -0.78125,-0.4375 z m 0,0"
               id="id-cb75f4b3-4332-4532-a34c-69677653b2ad" />
          </g>
          <g
             id="id-9b8462c4-9e74-46e8-a111-8f4246d41c41">
            <path
               d="M 4.6875,-2.140625 C 4.6875,-3.40625 3.703125,-4.46875 2.5,-4.46875 c -1.25,0 -2.21875,1.09375 -2.21875,2.328125 0,1.296875 1.03125,2.25 2.203125,2.25 1.203125,0 2.203125,-0.984375 2.203125,-2.25 z m -2.1875,2 c -0.4375,0 -0.875,-0.203125 -1.140625,-0.671875 -0.25,-0.4375 -0.25,-1.046875 -0.25,-1.40625 0,-0.390625 0,-0.921875 0.234375,-1.359375 C 1.609375,-4.03125 2.078125,-4.25 2.484375,-4.25 c 0.4375,0 0.859375,0.21875 1.125,0.65625 0.265625,0.421875 0.265625,1 0.265625,1.375 0,0.359375 0,0.90625 -0.21875,1.34375 C 3.421875,-0.421875 2.984375,-0.140625 2.5,-0.140625 Z m 0,0"
               id="id-34453336-e8b8-4dab-9a48-f7ab9ecc42f5" />
          </g>
          <g
             id="id-0500c432-9e49-490d-a672-0bffa3132824">
            <path
               d="m 2.21875,-1.71875 c -0.875,0 -0.875,-1 -0.875,-1.21875 0,-0.265625 0.015625,-0.59375 0.15625,-0.84375 0.078125,-0.109375 0.3125,-0.390625 0.71875,-0.390625 0.859375,0 0.859375,0.984375 0.859375,1.21875 0,0.265625 0,0.59375 -0.15625,0.84375 C 2.84375,-2 2.609375,-1.71875 2.21875,-1.71875 Z M 1.0625,-1.328125 c 0,-0.03125 0,-0.265625 0.15625,-0.46875 0.390625,0.28125 0.8125,0.3125 1,0.3125 0.921875,0 1.609375,-0.6875 1.609375,-1.453125 0,-0.375 -0.15625,-0.734375 -0.40625,-0.96875 C 3.78125,-4.25 4.140625,-4.296875 4.3125,-4.296875 c 0.03125,0 0.078125,0 0.109375,0.015625 C 4.3125,-4.25 4.25,-4.140625 4.25,-4.015625 c 0,0.171875 0.140625,0.28125 0.296875,0.28125 0.09375,0 0.28125,-0.0625 0.28125,-0.296875 0,-0.171875 -0.109375,-0.484375 -0.5,-0.484375 -0.203125,0 -0.640625,0.0625 -1.0625,0.46875 C 2.84375,-4.375 2.4375,-4.40625 2.21875,-4.40625 c -0.9375,0 -1.625,0.6875 -1.625,1.453125 0,0.4375 0.21875,0.8125 0.46875,1.03125 -0.125,0.140625 -0.3125,0.46875 -0.3125,0.828125 0,0.3125 0.140625,0.6875 0.453125,0.890625 -0.609375,0.15625 -0.921875,0.59375 -0.921875,0.984375 0,0.71875 0.984375,1.265625 2.203125,1.265625 1.171875,0 2.203125,-0.5 2.203125,-1.28125 0,-0.34375 -0.125,-0.859375 -0.640625,-1.140625 -0.53125,-0.265625 -1.109375,-0.265625 -1.71875,-0.265625 -0.25,0 -0.671875,0 -0.75,-0.015625 C 1.265625,-0.703125 1.0625,-1 1.0625,-1.328125 Z M 2.5,1.828125 c -1.015625,0 -1.703125,-0.515625 -1.703125,-1.046875 0,-0.453125 0.375,-0.828125 0.8125,-0.84375 h 0.59375 c 0.859375,0 1.96875,0 1.96875,0.84375 0,0.546875 -0.703125,1.046875 -1.671875,1.046875 z m 0,0"
               id="id-681fb3f5-6563-41aa-9c9c-6356e7ace5e2" />
          </g>
          <g
             id="id-63d6c6bc-74f1-4419-95c1-8e723167d0f2">
            <path
               d="m 2.046875,-3.984375 h 0.9375 c 0.203125,0 0.3125,0 0.3125,-0.203125 0,-0.109375 -0.109375,-0.109375 -0.28125,-0.109375 h -0.875 C 2.5,-5.71875 2.546875,-5.90625 2.546875,-5.96875 c 0,-0.171875 -0.125,-0.265625 -0.296875,-0.265625 -0.03125,0 -0.3125,0 -0.390625,0.359375 L 1.46875,-4.296875 h -0.9375 c -0.203125,0 -0.296875,0 -0.296875,0.1875 0,0.125 0.078125,0.125 0.28125,0.125 h 0.875 C 0.671875,-1.15625 0.625,-0.984375 0.625,-0.8125 0.625,-0.265625 1,0.109375 1.546875,0.109375 2.5625,0.109375 3.125,-1.34375 3.125,-1.421875 3.125,-1.53125 3.046875,-1.53125 3.015625,-1.53125 2.921875,-1.53125 2.90625,-1.5 2.859375,-1.390625 2.4375,-0.34375 1.90625,-0.109375 1.5625,-0.109375 c -0.203125,0 -0.3125,-0.125 -0.3125,-0.453125 0,-0.25 0.03125,-0.3125 0.0625,-0.484375 z m 0,0"
               id="id-ac93d99e-eb09-4880-95df-6a4be84da9b9" />
          </g>
        </g>
      </defs>
      <g
         fill="#000000"
         fill-opacity="1"
         id="id-012ce361-376a-4cdb-a21c-0723bf443c0e"
         transform="translate(-149.04,-127.843)">
        <g
           transform="translate(148.712,134.765)"
           id="g8761">
          <path
             d="M 1.765625,-6.921875 0.328125,-6.8125 V -6.5 c 0.703125,0 0.78125,0.0625 0.78125,0.5625 V -0.75 c 0,0.4375 -0.109375,0.4375 -0.78125,0.4375 V 0 C 0.65625,-0.015625 1.1875,-0.03125 1.4375,-0.03125 c 0.25,0 0.734375,0.015625 1.109375,0.03125 v -0.3125 c -0.671875,0 -0.78125,0 -0.78125,-0.4375 z m 0,0"
             id="id-a358e520-c656-46dc-a2d6-4501e98b8608" />
        </g>
        <g
           transform="translate(151.48,134.765)"
           id="g4815">
          <path
             d="M 4.6875,-2.140625 C 4.6875,-3.40625 3.703125,-4.46875 2.5,-4.46875 c -1.25,0 -2.21875,1.09375 -2.21875,2.328125 0,1.296875 1.03125,2.25 2.203125,2.25 1.203125,0 2.203125,-0.984375 2.203125,-2.25 z m -2.1875,2 c -0.4375,0 -0.875,-0.203125 -1.140625,-0.671875 -0.25,-0.4375 -0.25,-1.046875 -0.25,-1.40625 0,-0.390625 0,-0.921875 0.234375,-1.359375 C 1.609375,-4.03125 2.078125,-4.25 2.484375,-4.25 c 0.4375,0 0.859375,0.21875 1.125,0.65625 0.265625,0.421875 0.265625,1 0.265625,1.375 0,0.359375 0,0.90625 -0.21875,1.34375 C 3.421875,-0.421875 2.984375,-0.140625 2.5,-0.140625 Z m 0,0"
             id="id-498ba47c-8f2a-496a-a9c6-f28beaca5e83" />
        </g>
        <g
           transform="translate(156.461,134.765)"
           id="g6097">
          <path
             d="m 2.21875,-1.71875 c -0.875,0 -0.875,-1 -0.875,-1.21875 0,-0.265625 0.015625,-0.59375 0.15625,-0.84375 0.078125,-0.109375 0.3125,-0.390625 0.71875,-0.390625 0.859375,0 0.859375,0.984375 0.859375,1.21875 0,0.265625 0,0.59375 -0.15625,0.84375 C 2.84375,-2 2.609375,-1.71875 2.21875,-1.71875 Z M 1.0625,-1.328125 c 0,-0.03125 0,-0.265625 0.15625,-0.46875 0.390625,0.28125 0.8125,0.3125 1,0.3125 0.921875,0 1.609375,-0.6875 1.609375,-1.453125 0,-0.375 -0.15625,-0.734375 -0.40625,-0.96875 C 3.78125,-4.25 4.140625,-4.296875 4.3125,-4.296875 c 0.03125,0 0.078125,0 0.109375,0.015625 C 4.3125,-4.25 4.25,-4.140625 4.25,-4.015625 c 0,0.171875 0.140625,0.28125 0.296875,0.28125 0.09375,0 0.28125,-0.0625 0.28125,-0.296875 0,-0.171875 -0.109375,-0.484375 -0.5,-0.484375 -0.203125,0 -0.640625,0.0625 -1.0625,0.46875 C 2.84375,-4.375 2.4375,-4.40625 2.21875,-4.40625 c -0.9375,0 -1.625,0.6875 -1.625,1.453125 0,0.4375 0.21875,0.8125 0.46875,1.03125 -0.125,0.140625 -0.3125,0.46875 -0.3125,0.828125 0,0.3125 0.140625,0.6875 0.453125,0.890625 -0.609375,0.15625 -0.921875,0.59375 -0.921875,0.984375 0,0.71875 0.984375,1.265625 2.203125,1.265625 1.171875,0 2.203125,-0.5 2.203125,-1.28125 0,-0.34375 -0.125,-0.859375 -0.640625,-1.140625 -0.53125,-0.265625 -1.109375,-0.265625 -1.71875,-0.265625 -0.25,0 -0.671875,0 -0.75,-0.015625 C 1.265625,-0.703125 1.0625,-1 1.0625,-1.328125 Z M 2.5,1.828125 c -1.015625,0 -1.703125,-0.515625 -1.703125,-1.046875 0,-0.453125 0.375,-0.828125 0.8125,-0.84375 h 0.59375 c 0.859375,0 1.96875,0 1.96875,0.84375 0,0.546875 -0.703125,1.046875 -1.671875,1.046875 z m 0,0"
             id="id-a8db0a06-5670-462f-98e3-36b9bd2a1e6f" />
        </g>
      </g>
      <g
         fill="#000000"
         fill-opacity="1"
         id="id-b6bd7272-9c2b-48f4-9fb8-4f3678a1475e"
         transform="translate(-149.04,-127.843)">
        <g
           transform="translate(163.241,134.765)"
           id="g8905">
          <path
             d="m 2.046875,-3.984375 h 0.9375 c 0.203125,0 0.3125,0 0.3125,-0.203125 0,-0.109375 -0.109375,-0.109375 -0.28125,-0.109375 h -0.875 C 2.5,-5.71875 2.546875,-5.90625 2.546875,-5.96875 c 0,-0.171875 -0.125,-0.265625 -0.296875,-0.265625 -0.03125,0 -0.3125,0 -0.390625,0.359375 L 1.46875,-4.296875 h -0.9375 c -0.203125,0 -0.296875,0 -0.296875,0.1875 0,0.125 0.078125,0.125 0.28125,0.125 h 0.875 C 0.671875,-1.15625 0.625,-0.984375 0.625,-0.8125 0.625,-0.265625 1,0.109375 1.546875,0.109375 2.5625,0.109375 3.125,-1.34375 3.125,-1.421875 3.125,-1.53125 3.046875,-1.53125 3.015625,-1.53125 2.921875,-1.53125 2.90625,-1.5 2.859375,-1.390625 2.4375,-0.34375 1.90625,-0.109375 1.5625,-0.109375 c -0.203125,0 -0.3125,-0.125 -0.3125,-0.453125 0,-0.25 0.03125,-0.3125 0.0625,-0.484375 z m 0,0"
             id="id-44e0e1c4-13fc-4499-ad8b-1eff5544c411" />
        </g>
      </g>
    </g>
    <path
       style="fill:none;stroke:#ff0000;stroke-width:0.264583px;stroke-linecap:butt;stroke-linejoin:miter;stroke-opacity:1"
       d="m 1.4117237,5.0387323 c 6.4625419,-0.03327 11.1709283,1.4930657 13.9227583,6.1824707 1.606135,2.737022 2.074473,5.054978 7.006969,6.53896 5.52233,1.661438 4.480328,1.303225 26.619816,2.014485"
       id="path2"
       sodipodi:nodetypes="cssc" />
    <path
       style="fill:none;stroke:#000000;stroke-width:0.264583px;stroke-linecap:butt;stroke-linejoin:miter;stroke-opacity:1;stroke-dasharray:1.05833197,1.05833197;stroke-dashoffset:0"
       d="m 13.377763,7.999768 7.125843,12.100489"
       id="path3"
       sodipodi:nodetypes="cc" />
    <path
       style="fill:none;stroke:#000000;stroke-width:0.264583px;stroke-linecap:butt;stroke-linejoin:miter;stroke-opacity:1;stroke-dasharray:1.05833197,1.05833197;stroke-dashoffset:0"
       d="M 49.880906,19.898582 15.663411,18.755758"
       id="path4" />
    <path
       style="fill:none;stroke:#666666;stroke-width:0.264583px;stroke-linecap:butt;stroke-linejoin:miter;stroke-opacity:1;stroke-dasharray:1.05833197, 1.05833197;stroke-dashoffset:0"
       d="m 19.793068,16.729919 v 4.782062"
       id="path5"
       sodipodi:nodetypes="cc" />
    <path
       style="fill:none;stroke:#666666;stroke-width:0.264583px;stroke-linecap:butt;stroke-linejoin:miter;stroke-opacity:1;stroke-dasharray:1.05833197, 1.05833197;stroke-dashoffset:0"
       d="M 19.793068,16.729919 H 1.4117237"
       id="path7" />
    <path
       style="fill:none;stroke:#000080;stroke-width:0.264583px;stroke-linecap:butt;stroke-linejoin:miter;stroke-opacity:1;stroke-dasharray:1.05833197, 1.05833197;stroke-dashoffset:0"
       d="M 48.961267,19.774648 H 1.4117237"
       id="path8" />
    <g
       transform="matrix(0.352778,0,0,0.352778,16.100386,21.962036)"
       ns1:version="1.10.2"
       ns1:texconverter="pdflatex"
       ns1:pdfconverter="inkscape"
       ns1:text="$t_{EOP}$"
       ns1:preamble="C:\Users\zamcr\AppData\Roaming\inkscape\extensions\textext\default_packages.tex"
       ns1:scale="1.0"
       ns1:alignment="middle center"
       ns1:stroke-to-path="0"
       ns1:inkscapeversion="1.3.2"
       id="g8650"
       ns1:jacobian_sqrt="0.352778"
       style="fill:#008000">
      <defs
         id="id-707f61cd-83b0-4c1f-ad5a-6af786832593">
        <g
           id="id-34d394be-2880-4ce5-ac01-3b1323daeb42">
          <g
             id="id-92ca9ecb-653c-4bb4-8bb9-5ff9c60bc0eb">
            <path
               d="m 2.046875,-3.984375 h 0.9375 c 0.203125,0 0.3125,0 0.3125,-0.203125 0,-0.109375 -0.109375,-0.109375 -0.28125,-0.109375 h -0.875 C 2.5,-5.71875 2.546875,-5.90625 2.546875,-5.96875 c 0,-0.171875 -0.125,-0.265625 -0.296875,-0.265625 -0.03125,0 -0.3125,0 -0.390625,0.359375 L 1.46875,-4.296875 h -0.9375 c -0.203125,0 -0.296875,0 -0.296875,0.1875 0,0.125 0.078125,0.125 0.28125,0.125 h 0.875 C 0.671875,-1.15625 0.625,-0.984375 0.625,-0.8125 0.625,-0.265625 1,0.109375 1.546875,0.109375 2.5625,0.109375 3.125,-1.34375 3.125,-1.421875 3.125,-1.53125 3.046875,-1.53125 3.015625,-1.53125 2.921875,-1.53125 2.90625,-1.5 2.859375,-1.390625 2.4375,-0.34375 1.90625,-0.109375 1.5625,-0.109375 c -0.203125,0 -0.3125,-0.125 -0.3125,-0.453125 0,-0.25 0.03125,-0.3125 0.0625,-0.484375 z m 0,0"
               id="id-766273b5-bf3c-40aa-96b2-e842dada095c" />
          </g>
          <g
             id="id-b3572bb4-4ce1-4395-8be9-dbce3b966894">
            <path
               d="m 5.515625,-1.609375 c 0.046875,-0.09375 0.046875,-0.125 0.046875,-0.125 0,-0.046875 -0.03125,-0.09375 -0.125,-0.09375 -0.015625,0 -0.046875,0 -0.078125,0.015625 0,0.015625 -0.015625,0.03125 -0.09375,0.203125 C 4.8125,-0.59375 4.453125,-0.25 3.3125,-0.25 H 2.125 c -0.203125,0 -0.21875,-0.015625 -0.21875,-0.078125 0,0 0,-0.03125 0.03125,-0.140625 L 2.40625,-2.328125 H 3.1875 c 0.546875,0 0.625,0.078125 0.625,0.3125 0,0.078125 -0.015625,0.203125 -0.046875,0.3125 C 3.75,-1.640625 3.75,-1.625 3.75,-1.609375 c 0,0 0,0.09375 0.125,0.09375 0.09375,0 0.09375,-0.03125 0.125,-0.15625 l 0.390625,-1.53125 c 0.015625,-0.078125 0.015625,-0.09375 0.015625,-0.09375 0,-0.078125 -0.0625,-0.109375 -0.125,-0.109375 -0.09375,0 -0.09375,0.046875 -0.140625,0.1875 C 4,-2.671875 3.796875,-2.578125 3.203125,-2.578125 H 2.46875 L 2.890625,-4.25 c 0.046875,-0.203125 0.0625,-0.234375 0.34375,-0.234375 H 4.375 c 0.921875,0 1.140625,0.1875 1.140625,0.8125 0,0.1875 -0.03125,0.390625 -0.03125,0.421875 0,0.0625 0.03125,0.125 0.125,0.125 0.109375,0 0.109375,-0.0625 0.125,-0.1875 l 0.125,-1.203125 C 5.875,-4.734375 5.828125,-4.734375 5.65625,-4.734375 H 1.828125 c -0.140625,0 -0.21875,0 -0.21875,0.15625 0,0.09375 0.0625,0.09375 0.21875,0.09375 0.109375,0 0.140625,0 0.265625,0.015625 C 2.234375,-4.453125 2.25,-4.4375 2.25,-4.375 c 0,0.046875 -0.015625,0.125 -0.03125,0.15625 L 1.3125,-0.578125 C 1.234375,-0.296875 1.234375,-0.25 0.6875,-0.25 c -0.125,0 -0.203125,0 -0.203125,0.15625 C 0.484375,0 0.5625,0 0.6875,0 H 4.625 c 0.171875,0 0.1875,0 0.234375,-0.125 z m 0,0"
               id="id-3d6bf861-ffa5-4677-b937-ed2df9b38cec" />
          </g>
          <g
             id="id-5de44229-e7d5-45ee-a94d-615049ccaf02">
            <path
               d="m 5.78125,-2.96875 c 0,-1.09375 -0.796875,-1.9375 -2.03125,-1.9375 -1.65625,0 -3.265625,1.5625 -3.265625,3.140625 0,1.125 0.828125,1.90625 2.03125,1.90625 1.65625,0 3.265625,-1.515625 3.265625,-3.109375 z m -3.21875,2.875 c -0.734375,0 -1.359375,-0.5 -1.359375,-1.53125 0,-0.359375 0.09375,-1.34375 0.734375,-2.140625 0.46875,-0.5625 1.140625,-0.90625 1.765625,-0.90625 0.71875,0 1.390625,0.453125 1.390625,1.46875 0,0.5 -0.21875,1.53125 -0.859375,2.265625 C 3.75,-0.375 3.109375,-0.09375 2.5625,-0.09375 Z m 0,0"
               id="id-db465182-8df8-4bb1-9495-71771d664a92" />
          </g>
          <g
             id="id-45377db4-cd8e-4c96-9b97-04d2c07b8254">
            <path
               d="m 2.375,-2.15625 h 1.265625 c 1.171875,0 2.171875,-0.75 2.171875,-1.515625 0,-0.59375 -0.578125,-1.09375 -1.53125,-1.09375 h -2.4375 c -0.140625,0 -0.21875,0 -0.21875,0.15625 0,0.09375 0.078125,0.09375 0.234375,0.09375 0.109375,0 0.140625,0 0.265625,0.015625 0.140625,0.015625 0.140625,0.03125 0.140625,0.109375 0,0 0,0.046875 -0.015625,0.140625 L 1.328125,-0.578125 C 1.25,-0.296875 1.25,-0.25 0.703125,-0.25 0.578125,-0.25 0.5,-0.25 0.5,-0.09375 0.5,-0.09375 0.5,0 0.609375,0 0.8125,0 1.3125,-0.03125 1.515625,-0.03125 1.625,-0.03125 1.875,-0.03125 2,-0.015625 2.125,-0.015625 2.3125,0 2.4375,0 2.484375,0 2.578125,0 2.578125,-0.15625 2.578125,-0.25 2.5,-0.25 2.359375,-0.25 c 0,0 -0.140625,0 -0.265625,-0.015625 C 1.9375,-0.28125 1.9375,-0.296875 1.9375,-0.375 c 0,0 0,-0.046875 0.03125,-0.140625 z m 0.5,-2.109375 c 0.0625,-0.21875 0.0625,-0.25 0.359375,-0.25 h 0.8125 c 0.65625,0 1.046875,0.203125 1.046875,0.703125 0,0.203125 -0.078125,0.765625 -0.421875,1.078125 -0.25,0.21875 -0.65625,0.34375 -1.15625,0.34375 H 2.40625 Z m 0,0"
               id="id-31ad6f58-a3b1-4c13-9b02-81f308830428" />
          </g>
        </g>
      </defs>
      <g
         fill="#000000"
         fill-opacity="1"
         id="id-46e08b4d-f9a1-4e26-9602-14120e521ac1"
         transform="translate(-148.946,-128.531)"
         style="fill:#008000">
        <g
           transform="translate(148.712,134.765)"
           id="g5056"
           style="fill:#008000">
          <path
             d="m 2.046875,-3.984375 h 0.9375 c 0.203125,0 0.3125,0 0.3125,-0.203125 0,-0.109375 -0.109375,-0.109375 -0.28125,-0.109375 h -0.875 C 2.5,-5.71875 2.546875,-5.90625 2.546875,-5.96875 c 0,-0.171875 -0.125,-0.265625 -0.296875,-0.265625 -0.03125,0 -0.3125,0 -0.390625,0.359375 L 1.46875,-4.296875 h -0.9375 c -0.203125,0 -0.296875,0 -0.296875,0.1875 0,0.125 0.078125,0.125 0.28125,0.125 h 0.875 C 0.671875,-1.15625 0.625,-0.984375 0.625,-0.8125 0.625,-0.265625 1,0.109375 1.546875,0.109375 2.5625,0.109375 3.125,-1.34375 3.125,-1.421875 3.125,-1.53125 3.046875,-1.53125 3.015625,-1.53125 2.921875,-1.53125 2.90625,-1.5 2.859375,-1.390625 2.4375,-0.34375 1.90625,-0.109375 1.5625,-0.109375 c -0.203125,0 -0.3125,-0.125 -0.3125,-0.453125 0,-0.25 0.03125,-0.3125 0.0625,-0.484375 z m 0,0"
             id="id-3f709774-dd27-44c4-b9b2-0ffd584c9fbc"
             style="fill:#008000" />
        </g>
      </g>
      <g
         fill="#000000"
         fill-opacity="1"
         id="id-c06c1700-f977-4a22-9069-5c8a84a2e44e"
         transform="translate(-148.946,-128.531)"
         style="fill:#008000">
        <g
           transform="translate(152.31,136.259)"
           id="g270"
           style="fill:#008000">
          <path
             d="m 5.515625,-1.609375 c 0.046875,-0.09375 0.046875,-0.125 0.046875,-0.125 0,-0.046875 -0.03125,-0.09375 -0.125,-0.09375 -0.015625,0 -0.046875,0 -0.078125,0.015625 0,0.015625 -0.015625,0.03125 -0.09375,0.203125 C 4.8125,-0.59375 4.453125,-0.25 3.3125,-0.25 H 2.125 c -0.203125,0 -0.21875,-0.015625 -0.21875,-0.078125 0,0 0,-0.03125 0.03125,-0.140625 L 2.40625,-2.328125 H 3.1875 c 0.546875,0 0.625,0.078125 0.625,0.3125 0,0.078125 -0.015625,0.203125 -0.046875,0.3125 C 3.75,-1.640625 3.75,-1.625 3.75,-1.609375 c 0,0 0,0.09375 0.125,0.09375 0.09375,0 0.09375,-0.03125 0.125,-0.15625 l 0.390625,-1.53125 c 0.015625,-0.078125 0.015625,-0.09375 0.015625,-0.09375 0,-0.078125 -0.0625,-0.109375 -0.125,-0.109375 -0.09375,0 -0.09375,0.046875 -0.140625,0.1875 C 4,-2.671875 3.796875,-2.578125 3.203125,-2.578125 H 2.46875 L 2.890625,-4.25 c 0.046875,-0.203125 0.0625,-0.234375 0.34375,-0.234375 H 4.375 c 0.921875,0 1.140625,0.1875 1.140625,0.8125 0,0.1875 -0.03125,0.390625 -0.03125,0.421875 0,0.0625 0.03125,0.125 0.125,0.125 0.109375,0 0.109375,-0.0625 0.125,-0.1875 l 0.125,-1.203125 C 5.875,-4.734375 5.828125,-4.734375 5.65625,-4.734375 H 1.828125 c -0.140625,0 -0.21875,0 -0.21875,0.15625 0,0.09375 0.0625,0.09375 0.21875,0.09375 0.109375,0 0.140625,0 0.265625,0.015625 C 2.234375,-4.453125 2.25,-4.4375 2.25,-4.375 c 0,0.046875 -0.015625,0.125 -0.03125,0.15625 L 1.3125,-0.578125 C 1.234375,-0.296875 1.234375,-0.25 0.6875,-0.25 c -0.125,0 -0.203125,0 -0.203125,0.15625 C 0.484375,0 0.5625,0 0.6875,0 H 4.625 c 0.171875,0 0.1875,0 0.234375,-0.125 z m 0,0"
             id="id-e6ca17eb-4989-47d2-8455-546b5ad492d2"
             style="fill:#008000" />
        </g>
      </g>
      <g
         fill="#000000"
         fill-opacity="1"
         id="id-6bd6b073-3b4f-431d-b902-668b4ba36f75"
         transform="translate(-148.946,-128.531)"
         style="fill:#008000">
        <g
           transform="translate(158.542,136.259)"
           id="g4416"
           style="fill:#008000">
          <path
             d="m 5.78125,-2.96875 c 0,-1.09375 -0.796875,-1.9375 -2.03125,-1.9375 -1.65625,0 -3.265625,1.5625 -3.265625,3.140625 0,1.125 0.828125,1.90625 2.03125,1.90625 1.65625,0 3.265625,-1.515625 3.265625,-3.109375 z m -3.21875,2.875 c -0.734375,0 -1.359375,-0.5 -1.359375,-1.53125 0,-0.359375 0.09375,-1.34375 0.734375,-2.140625 0.46875,-0.5625 1.140625,-0.90625 1.765625,-0.90625 0.71875,0 1.390625,0.453125 1.390625,1.46875 0,0.5 -0.21875,1.53125 -0.859375,2.265625 C 3.75,-0.375 3.109375,-0.09375 2.5625,-0.09375 Z m 0,0"
             id="id-ae405672-7603-48b2-9c16-b54d13f1bbf0"
             style="fill:#008000" />
        </g>
      </g>
      <g
         fill="#000000"
         fill-opacity="1"
         id="id-b39273b6-8bc8-4528-b863-856349124c80"
         transform="translate(-148.946,-128.531)"
         style="fill:#008000">
        <g
           transform="translate(164.818,136.259)"
           id="g5377"
           style="fill:#008000">
          <path
             d="m 2.375,-2.15625 h 1.265625 c 1.171875,0 2.171875,-0.75 2.171875,-1.515625 0,-0.59375 -0.578125,-1.09375 -1.53125,-1.09375 h -2.4375 c -0.140625,0 -0.21875,0 -0.21875,0.15625 0,0.09375 0.078125,0.09375 0.234375,0.09375 0.109375,0 0.140625,0 0.265625,0.015625 0.140625,0.015625 0.140625,0.03125 0.140625,0.109375 0,0 0,0.046875 -0.015625,0.140625 L 1.328125,-0.578125 C 1.25,-0.296875 1.25,-0.25 0.703125,-0.25 0.578125,-0.25 0.5,-0.25 0.5,-0.09375 0.5,-0.09375 0.5,0 0.609375,0 0.8125,0 1.3125,-0.03125 1.515625,-0.03125 1.625,-0.03125 1.875,-0.03125 2,-0.015625 2.125,-0.015625 2.3125,0 2.4375,0 2.484375,0 2.578125,0 2.578125,-0.15625 2.578125,-0.25 2.5,-0.25 2.359375,-0.25 c 0,0 -0.140625,0 -0.265625,-0.015625 C 1.9375,-0.28125 1.9375,-0.296875 1.9375,-0.375 c 0,0 0,-0.046875 0.03125,-0.140625 z m 0.5,-2.109375 c 0.0625,-0.21875 0.0625,-0.25 0.359375,-0.25 h 0.8125 c 0.65625,0 1.046875,0.203125 1.046875,0.703125 0,0.203125 -0.078125,0.765625 -0.421875,1.078125 -0.25,0.21875 -0.65625,0.34375 -1.15625,0.34375 H 2.40625 Z m 0,0"
             id="id-f998ef0d-58fb-4f52-829b-67274a1a251a"
             style="fill:#008000" />
        </g>
      </g>
    </g>
    <g
       transform="matrix(0.352778,0,0,0.352778,1.9122879,13.937461)"
       ns1:version="1.10.2"
       ns1:texconverter="pdflatex"
       ns1:pdfconverter="inkscape"
       ns1:text="$e_{EOP}$"
       ns1:preamble="C:\Users\zamcr\AppData\Roaming\inkscape\extensions\textext\default_packages.tex"
       ns1:scale="1.0"
       ns1:alignment="middle center"
       ns1:stroke-to-path="0"
       ns1:inkscapeversion="1.3.2"
       id="g7557"
       ns1:jacobian_sqrt="0.352778"
       style="fill:#008000">
      <defs
         id="id-2bf1a84f-751a-4ef6-917e-cd0365c0c1a0">
        <g
           id="id-50d62b7e-8dcf-419d-bc1e-27f597c8dca3">
          <g
             id="id-71334188-b17a-4ff5-8cb6-91c0e63125a4">
            <path
               d="m 1.859375,-2.296875 c 0.296875,0 1.03125,-0.03125 1.53125,-0.234375 0.703125,-0.296875 0.75,-0.890625 0.75,-1.03125 0,-0.4375 -0.375,-0.84375 -1.0625,-0.84375 -1.109375,0 -2.625,0.96875 -2.625,2.71875 0,1.015625 0.59375,1.796875 1.578125,1.796875 1.421875,0 2.25,-1.0625 2.25,-1.171875 0,-0.0625 -0.046875,-0.140625 -0.109375,-0.140625 -0.0625,0 -0.078125,0.03125 -0.140625,0.109375 -0.78125,0.984375 -1.875,0.984375 -1.984375,0.984375 -0.78125,0 -0.875,-0.84375 -0.875,-1.15625 0,-0.125 0.015625,-0.421875 0.15625,-1.03125 z m -0.46875,-0.21875 C 1.78125,-4.03125 2.8125,-4.1875 3.078125,-4.1875 c 0.453125,0 0.734375,0.296875 0.734375,0.625 0,1.046875 -1.59375,1.046875 -2.015625,1.046875 z m 0,0"
               id="id-364815a9-f921-4330-a8cd-c8044fbe7618" />
          </g>
          <g
             id="id-448faa66-fcf4-4ec1-bfc5-f454509def1f">
            <path
               d="m 5.515625,-1.609375 c 0.046875,-0.09375 0.046875,-0.125 0.046875,-0.125 0,-0.046875 -0.03125,-0.09375 -0.125,-0.09375 -0.015625,0 -0.046875,0 -0.078125,0.015625 0,0.015625 -0.015625,0.03125 -0.09375,0.203125 C 4.8125,-0.59375 4.453125,-0.25 3.3125,-0.25 H 2.125 c -0.203125,0 -0.21875,-0.015625 -0.21875,-0.078125 0,0 0,-0.03125 0.03125,-0.140625 L 2.40625,-2.328125 H 3.1875 c 0.546875,0 0.625,0.078125 0.625,0.3125 0,0.078125 -0.015625,0.203125 -0.046875,0.3125 C 3.75,-1.640625 3.75,-1.625 3.75,-1.609375 c 0,0 0,0.09375 0.125,0.09375 0.09375,0 0.09375,-0.03125 0.125,-0.15625 l 0.390625,-1.53125 c 0.015625,-0.078125 0.015625,-0.09375 0.015625,-0.09375 0,-0.078125 -0.0625,-0.109375 -0.125,-0.109375 -0.09375,0 -0.09375,0.046875 -0.140625,0.1875 C 4,-2.671875 3.796875,-2.578125 3.203125,-2.578125 H 2.46875 L 2.890625,-4.25 c 0.046875,-0.203125 0.0625,-0.234375 0.34375,-0.234375 H 4.375 c 0.921875,0 1.140625,0.1875 1.140625,0.8125 0,0.1875 -0.03125,0.390625 -0.03125,0.421875 0,0.0625 0.03125,0.125 0.125,0.125 0.109375,0 0.109375,-0.0625 0.125,-0.1875 l 0.125,-1.203125 C 5.875,-4.734375 5.828125,-4.734375 5.65625,-4.734375 H 1.828125 c -0.140625,0 -0.21875,0 -0.21875,0.15625 0,0.09375 0.0625,0.09375 0.21875,0.09375 0.109375,0 0.140625,0 0.265625,0.015625 C 2.234375,-4.453125 2.25,-4.4375 2.25,-4.375 c 0,0.046875 -0.015625,0.125 -0.03125,0.15625 L 1.3125,-0.578125 C 1.234375,-0.296875 1.234375,-0.25 0.6875,-0.25 c -0.125,0 -0.203125,0 -0.203125,0.15625 C 0.484375,0 0.5625,0 0.6875,0 H 4.625 c 0.171875,0 0.1875,0 0.234375,-0.125 z m 0,0"
               id="id-3dd1bed9-fbb9-4301-b0b6-b77c391259bb" />
          </g>
          <g
             id="id-2a3b2c16-f085-4e67-b0df-e7504326668f">
            <path
               d="m 5.78125,-2.96875 c 0,-1.09375 -0.796875,-1.9375 -2.03125,-1.9375 -1.65625,0 -3.265625,1.5625 -3.265625,3.140625 0,1.125 0.828125,1.90625 2.03125,1.90625 1.65625,0 3.265625,-1.515625 3.265625,-3.109375 z m -3.21875,2.875 c -0.734375,0 -1.359375,-0.5 -1.359375,-1.53125 0,-0.359375 0.09375,-1.34375 0.734375,-2.140625 0.46875,-0.5625 1.140625,-0.90625 1.765625,-0.90625 0.71875,0 1.390625,0.453125 1.390625,1.46875 0,0.5 -0.21875,1.53125 -0.859375,2.265625 C 3.75,-0.375 3.109375,-0.09375 2.5625,-0.09375 Z m 0,0"
               id="id-3fba2590-9ebd-4f5b-94f0-9b606521ab09" />
          </g>
          <g
             id="id-198f0a86-39b4-4b5b-b4c9-c1990606d96d">
            <path
               d="m 2.375,-2.15625 h 1.265625 c 1.171875,0 2.171875,-0.75 2.171875,-1.515625 0,-0.59375 -0.578125,-1.09375 -1.53125,-1.09375 h -2.4375 c -0.140625,0 -0.21875,0 -0.21875,0.15625 0,0.09375 0.078125,0.09375 0.234375,0.09375 0.109375,0 0.140625,0 0.265625,0.015625 0.140625,0.015625 0.140625,0.03125 0.140625,0.109375 0,0 0,0.046875 -0.015625,0.140625 L 1.328125,-0.578125 C 1.25,-0.296875 1.25,-0.25 0.703125,-0.25 0.578125,-0.25 0.5,-0.25 0.5,-0.09375 0.5,-0.09375 0.5,0 0.609375,0 0.8125,0 1.3125,-0.03125 1.515625,-0.03125 1.625,-0.03125 1.875,-0.03125 2,-0.015625 2.125,-0.015625 2.3125,0 2.4375,0 2.484375,0 2.578125,0 2.578125,-0.15625 2.578125,-0.25 2.5,-0.25 2.359375,-0.25 c 0,0 -0.140625,0 -0.265625,-0.015625 C 1.9375,-0.28125 1.9375,-0.296875 1.9375,-0.375 c 0,0 0,-0.046875 0.03125,-0.140625 z m 0.5,-2.109375 c 0.0625,-0.21875 0.0625,-0.25 0.359375,-0.25 h 0.8125 c 0.65625,0 1.046875,0.203125 1.046875,0.703125 0,0.203125 -0.078125,0.765625 -0.421875,1.078125 -0.25,0.21875 -0.65625,0.34375 -1.15625,0.34375 H 2.40625 Z m 0,0"
               id="id-c8dfdc78-f657-49ea-809a-a59f321fb9c2" />
          </g>
        </g>
      </defs>
      <g
         fill="#000000"
         fill-opacity="1"
         id="id-4a0488c1-0b29-4c22-b1ff-b06de21d48f6"
         transform="translate(-149.165,-130.359)"
         style="fill:#008000">
        <g
           transform="translate(148.712,134.765)"
           id="g3097"
           style="fill:#008000">
          <path
             d="m 1.859375,-2.296875 c 0.296875,0 1.03125,-0.03125 1.53125,-0.234375 0.703125,-0.296875 0.75,-0.890625 0.75,-1.03125 0,-0.4375 -0.375,-0.84375 -1.0625,-0.84375 -1.109375,0 -2.625,0.96875 -2.625,2.71875 0,1.015625 0.59375,1.796875 1.578125,1.796875 1.421875,0 2.25,-1.0625 2.25,-1.171875 0,-0.0625 -0.046875,-0.140625 -0.109375,-0.140625 -0.0625,0 -0.078125,0.03125 -0.140625,0.109375 -0.78125,0.984375 -1.875,0.984375 -1.984375,0.984375 -0.78125,0 -0.875,-0.84375 -0.875,-1.15625 0,-0.125 0.015625,-0.421875 0.15625,-1.03125 z m -0.46875,-0.21875 C 1.78125,-4.03125 2.8125,-4.1875 3.078125,-4.1875 c 0.453125,0 0.734375,0.296875 0.734375,0.625 0,1.046875 -1.59375,1.046875 -2.015625,1.046875 z m 0,0"
             id="id-b98d573b-fd94-40cf-b041-72c1d5924a16"
             style="fill:#008000" />
        </g>
      </g>
      <g
         fill="#000000"
         fill-opacity="1"
         id="id-ab6752bf-2a61-45aa-bb5d-10d7a183c344"
         transform="translate(-149.165,-130.359)"
         style="fill:#008000">
        <g
           transform="translate(153.351,136.259)"
           id="g6094"
           style="fill:#008000">
          <path
             d="m 5.515625,-1.609375 c 0.046875,-0.09375 0.046875,-0.125 0.046875,-0.125 0,-0.046875 -0.03125,-0.09375 -0.125,-0.09375 -0.015625,0 -0.046875,0 -0.078125,0.015625 0,0.015625 -0.015625,0.03125 -0.09375,0.203125 C 4.8125,-0.59375 4.453125,-0.25 3.3125,-0.25 H 2.125 c -0.203125,0 -0.21875,-0.015625 -0.21875,-0.078125 0,0 0,-0.03125 0.03125,-0.140625 L 2.40625,-2.328125 H 3.1875 c 0.546875,0 0.625,0.078125 0.625,0.3125 0,0.078125 -0.015625,0.203125 -0.046875,0.3125 C 3.75,-1.640625 3.75,-1.625 3.75,-1.609375 c 0,0 0,0.09375 0.125,0.09375 0.09375,0 0.09375,-0.03125 0.125,-0.15625 l 0.390625,-1.53125 c 0.015625,-0.078125 0.015625,-0.09375 0.015625,-0.09375 0,-0.078125 -0.0625,-0.109375 -0.125,-0.109375 -0.09375,0 -0.09375,0.046875 -0.140625,0.1875 C 4,-2.671875 3.796875,-2.578125 3.203125,-2.578125 H 2.46875 L 2.890625,-4.25 c 0.046875,-0.203125 0.0625,-0.234375 0.34375,-0.234375 H 4.375 c 0.921875,0 1.140625,0.1875 1.140625,0.8125 0,0.1875 -0.03125,0.390625 -0.03125,0.421875 0,0.0625 0.03125,0.125 0.125,0.125 0.109375,0 0.109375,-0.0625 0.125,-0.1875 l 0.125,-1.203125 C 5.875,-4.734375 5.828125,-4.734375 5.65625,-4.734375 H 1.828125 c -0.140625,0 -0.21875,0 -0.21875,0.15625 0,0.09375 0.0625,0.09375 0.21875,0.09375 0.109375,0 0.140625,0 0.265625,0.015625 C 2.234375,-4.453125 2.25,-4.4375 2.25,-4.375 c 0,0.046875 -0.015625,0.125 -0.03125,0.15625 L 1.3125,-0.578125 C 1.234375,-0.296875 1.234375,-0.25 0.6875,-0.25 c -0.125,0 -0.203125,0 -0.203125,0.15625 C 0.484375,0 0.5625,0 0.6875,0 H 4.625 c 0.171875,0 0.1875,0 0.234375,-0.125 z m 0,0"
             id="id-8beaea06-c49f-4002-a24d-535a4441d3a9"
             style="fill:#008000" />
        </g>
      </g>
      <g
         fill="#000000"
         fill-opacity="1"
         id="id-ccc301cb-80a2-499a-aeb0-bcdf6dc70d85"
         transform="translate(-149.165,-130.359)"
         style="fill:#008000">
        <g
           transform="translate(159.583,136.259)"
           id="g8071"
           style="fill:#008000">
          <path
             d="m 5.78125,-2.96875 c 0,-1.09375 -0.796875,-1.9375 -2.03125,-1.9375 -1.65625,0 -3.265625,1.5625 -3.265625,3.140625 0,1.125 0.828125,1.90625 2.03125,1.90625 1.65625,0 3.265625,-1.515625 3.265625,-3.109375 z m -3.21875,2.875 c -0.734375,0 -1.359375,-0.5 -1.359375,-1.53125 0,-0.359375 0.09375,-1.34375 0.734375,-2.140625 0.46875,-0.5625 1.140625,-0.90625 1.765625,-0.90625 0.71875,0 1.390625,0.453125 1.390625,1.46875 0,0.5 -0.21875,1.53125 -0.859375,2.265625 C 3.75,-0.375 3.109375,-0.09375 2.5625,-0.09375 Z m 0,0"
             id="id-a126da6f-4058-4d20-89b4-320e60b900d3"
             style="fill:#008000" />
        </g>
      </g>
      <g
         fill="#000000"
         fill-opacity="1"
         id="id-9ef436a3-1932-4800-aa51-9c9a9fbc88b8"
         transform="translate(-149.165,-130.359)"
         style="fill:#008000">
        <g
           transform="translate(165.859,136.259)"
           id="g9332"
           style="fill:#008000">
          <path
             d="m 2.375,-2.15625 h 1.265625 c 1.171875,0 2.171875,-0.75 2.171875,-1.515625 0,-0.59375 -0.578125,-1.09375 -1.53125,-1.09375 h -2.4375 c -0.140625,0 -0.21875,0 -0.21875,0.15625 0,0.09375 0.078125,0.09375 0.234375,0.09375 0.109375,0 0.140625,0 0.265625,0.015625 0.140625,0.015625 0.140625,0.03125 0.140625,0.109375 0,0 0,0.046875 -0.015625,0.140625 L 1.328125,-0.578125 C 1.25,-0.296875 1.25,-0.25 0.703125,-0.25 0.578125,-0.25 0.5,-0.25 0.5,-0.09375 0.5,-0.09375 0.5,0 0.609375,0 0.8125,0 1.3125,-0.03125 1.515625,-0.03125 1.625,-0.03125 1.875,-0.03125 2,-0.015625 2.125,-0.015625 2.3125,0 2.4375,0 2.484375,0 2.578125,0 2.578125,-0.15625 2.578125,-0.25 2.5,-0.25 2.359375,-0.25 c 0,0 -0.140625,0 -0.265625,-0.015625 C 1.9375,-0.28125 1.9375,-0.296875 1.9375,-0.375 c 0,0 0,-0.046875 0.03125,-0.140625 z m 0.5,-2.109375 c 0.0625,-0.21875 0.0625,-0.25 0.359375,-0.25 h 0.8125 c 0.65625,0 1.046875,0.203125 1.046875,0.703125 0,0.203125 -0.078125,0.765625 -0.421875,1.078125 -0.25,0.21875 -0.65625,0.34375 -1.15625,0.34375 H 2.40625 Z m 0,0"
             id="id-61899f36-828b-435e-ac5e-1fc1b5320a7b"
             style="fill:#008000" />
        </g>
      </g>
    </g>
    <g
       transform="matrix(0.352778,0,0,0.352778,1.7083381,17.558085)"
       ns1:version="1.10.2"
       ns1:texconverter="pdflatex"
       ns1:pdfconverter="inkscape"
       ns1:text="$e_{EOI}$"
       ns1:preamble="C:\Users\zamcr\AppData\Roaming\inkscape\extensions\textext\default_packages.tex"
       ns1:scale="1.0"
       ns1:alignment="middle center"
       ns1:stroke-to-path="0"
       ns1:inkscapeversion="1.3.2"
       id="g908"
       ns1:jacobian_sqrt="0.352778"
       style="fill:#000080">
      <defs
         id="id-9dfad1b7-db52-47a6-a842-1794696d1ebe">
        <g
           id="id-054544a7-7256-4c21-b034-224deba816e9">
          <g
             id="id-a568d218-c98d-44d4-9a36-3e7e5535940b">
            <path
               d="m 1.859375,-2.296875 c 0.296875,0 1.03125,-0.03125 1.53125,-0.234375 0.703125,-0.296875 0.75,-0.890625 0.75,-1.03125 0,-0.4375 -0.375,-0.84375 -1.0625,-0.84375 -1.109375,0 -2.625,0.96875 -2.625,2.71875 0,1.015625 0.59375,1.796875 1.578125,1.796875 1.421875,0 2.25,-1.0625 2.25,-1.171875 0,-0.0625 -0.046875,-0.140625 -0.109375,-0.140625 -0.0625,0 -0.078125,0.03125 -0.140625,0.109375 -0.78125,0.984375 -1.875,0.984375 -1.984375,0.984375 -0.78125,0 -0.875,-0.84375 -0.875,-1.15625 0,-0.125 0.015625,-0.421875 0.15625,-1.03125 z m -0.46875,-0.21875 C 1.78125,-4.03125 2.8125,-4.1875 3.078125,-4.1875 c 0.453125,0 0.734375,0.296875 0.734375,0.625 0,1.046875 -1.59375,1.046875 -2.015625,1.046875 z m 0,0"
               id="id-6bbc19eb-010c-4ec9-b20d-e37f4831d76e" />
          </g>
          <g
             id="id-0f69816a-a642-4424-b00c-c039baa76fa4">
            <path
               d="m 5.515625,-1.609375 c 0.046875,-0.09375 0.046875,-0.125 0.046875,-0.125 0,-0.046875 -0.03125,-0.09375 -0.125,-0.09375 -0.015625,0 -0.046875,0 -0.078125,0.015625 0,0.015625 -0.015625,0.03125 -0.09375,0.203125 C 4.8125,-0.59375 4.453125,-0.25 3.3125,-0.25 H 2.125 c -0.203125,0 -0.21875,-0.015625 -0.21875,-0.078125 0,0 0,-0.03125 0.03125,-0.140625 L 2.40625,-2.328125 H 3.1875 c 0.546875,0 0.625,0.078125 0.625,0.3125 0,0.078125 -0.015625,0.203125 -0.046875,0.3125 C 3.75,-1.640625 3.75,-1.625 3.75,-1.609375 c 0,0 0,0.09375 0.125,0.09375 0.09375,0 0.09375,-0.03125 0.125,-0.15625 l 0.390625,-1.53125 c 0.015625,-0.078125 0.015625,-0.09375 0.015625,-0.09375 0,-0.078125 -0.0625,-0.109375 -0.125,-0.109375 -0.09375,0 -0.09375,0.046875 -0.140625,0.1875 C 4,-2.671875 3.796875,-2.578125 3.203125,-2.578125 H 2.46875 L 2.890625,-4.25 c 0.046875,-0.203125 0.0625,-0.234375 0.34375,-0.234375 H 4.375 c 0.921875,0 1.140625,0.1875 1.140625,0.8125 0,0.1875 -0.03125,0.390625 -0.03125,0.421875 0,0.0625 0.03125,0.125 0.125,0.125 0.109375,0 0.109375,-0.0625 0.125,-0.1875 l 0.125,-1.203125 C 5.875,-4.734375 5.828125,-4.734375 5.65625,-4.734375 H 1.828125 c -0.140625,0 -0.21875,0 -0.21875,0.15625 0,0.09375 0.0625,0.09375 0.21875,0.09375 0.109375,0 0.140625,0 0.265625,0.015625 C 2.234375,-4.453125 2.25,-4.4375 2.25,-4.375 c 0,0.046875 -0.015625,0.125 -0.03125,0.15625 L 1.3125,-0.578125 C 1.234375,-0.296875 1.234375,-0.25 0.6875,-0.25 c -0.125,0 -0.203125,0 -0.203125,0.15625 C 0.484375,0 0.5625,0 0.6875,0 H 4.625 c 0.171875,0 0.1875,0 0.234375,-0.125 z m 0,0"
               id="id-3ad3ae93-0cc8-49d3-b8c2-344b412261b7" />
          </g>
          <g
             id="id-c4bb23d4-1ab3-410a-b20a-1265836281c9">
            <path
               d="m 5.78125,-2.96875 c 0,-1.09375 -0.796875,-1.9375 -2.03125,-1.9375 -1.65625,0 -3.265625,1.5625 -3.265625,3.140625 0,1.125 0.828125,1.90625 2.03125,1.90625 1.65625,0 3.265625,-1.515625 3.265625,-3.109375 z m -3.21875,2.875 c -0.734375,0 -1.359375,-0.5 -1.359375,-1.53125 0,-0.359375 0.09375,-1.34375 0.734375,-2.140625 0.46875,-0.5625 1.140625,-0.90625 1.765625,-0.90625 0.71875,0 1.390625,0.453125 1.390625,1.46875 0,0.5 -0.21875,1.53125 -0.859375,2.265625 C 3.75,-0.375 3.109375,-0.09375 2.5625,-0.09375 Z m 0,0"
               id="id-c7eac6f4-8d5e-44c1-8697-9bd3d54e2e32" />
          </g>
          <g
             id="id-b6c4b46d-f873-4419-b05a-5ad774b50d2a">
            <path
               d="m 2.875,-4.203125 c 0.0625,-0.25 0.078125,-0.3125 0.609375,-0.3125 0.171875,0 0.25,0 0.25,-0.140625 0,-0.0625 -0.046875,-0.109375 -0.109375,-0.109375 -0.140625,0 -0.328125,0.03125 -0.46875,0.03125 -0.15625,0 -0.3125,0 -0.46875,0 0,0 -0.484375,0 -0.484375,0 -0.15625,0 -0.328125,-0.03125 -0.484375,-0.03125 -0.046875,0 -0.140625,0 -0.140625,0.15625 0,0.09375 0.078125,0.09375 0.234375,0.09375 0,0 0.140625,0 0.25,0.015625 0.140625,0.015625 0.203125,0.03125 0.203125,0.109375 0,0.03125 -0.015625,0.078125 -0.03125,0.140625 l -0.9375,3.703125 C 1.25,-0.328125 1.21875,-0.25 0.703125,-0.25 c -0.1875,0 -0.25,0 -0.25,0.15625 0,0 0,0.09375 0.109375,0.09375 C 0.765625,0 1.296875,-0.03125 1.5,-0.03125 l 0.484375,0.015625 C 2.125,-0.015625 2.3125,0 2.453125,0 2.5,0 2.609375,0 2.609375,-0.15625 2.609375,-0.25 2.515625,-0.25 2.390625,-0.25 2.375,-0.25 2.21875,-0.25 2.078125,-0.265625 1.921875,-0.28125 1.921875,-0.3125 1.921875,-0.375 c 0,0 0,-0.046875 0.03125,-0.140625 z m 0,0"
               id="id-611141ca-a47c-4a9a-9225-0203579e539c" />
          </g>
        </g>
      </defs>
      <g
         fill="#000000"
         fill-opacity="1"
         id="id-da3a3af3-fa0b-4c04-9b5d-c49e5611670e"
         transform="translate(-149.165,-130.359)"
         style="fill:#000080">
        <g
           transform="translate(148.712,134.765)"
           id="g5532"
           style="fill:#000080">
          <path
             d="m 1.859375,-2.296875 c 0.296875,0 1.03125,-0.03125 1.53125,-0.234375 0.703125,-0.296875 0.75,-0.890625 0.75,-1.03125 0,-0.4375 -0.375,-0.84375 -1.0625,-0.84375 -1.109375,0 -2.625,0.96875 -2.625,2.71875 0,1.015625 0.59375,1.796875 1.578125,1.796875 1.421875,0 2.25,-1.0625 2.25,-1.171875 0,-0.0625 -0.046875,-0.140625 -0.109375,-0.140625 -0.0625,0 -0.078125,0.03125 -0.140625,0.109375 -0.78125,0.984375 -1.875,0.984375 -1.984375,0.984375 -0.78125,0 -0.875,-0.84375 -0.875,-1.15625 0,-0.125 0.015625,-0.421875 0.15625,-1.03125 z m -0.46875,-0.21875 C 1.78125,-4.03125 2.8125,-4.1875 3.078125,-4.1875 c 0.453125,0 0.734375,0.296875 0.734375,0.625 0,1.046875 -1.59375,1.046875 -2.015625,1.046875 z m 0,0"
             id="id-01cbceba-a103-4cb7-b751-6db971fdee09"
             style="fill:#000080" />
        </g>
      </g>
      <g
         fill="#000000"
         fill-opacity="1"
         id="id-6d0f9709-5d77-46bd-a1cd-865c9ed01f98"
         transform="translate(-149.165,-130.359)"
         style="fill:#000080">
        <g
           transform="translate(153.351,136.259)"
           id="g5150"
           style="fill:#000080">
          <path
             d="m 5.515625,-1.609375 c 0.046875,-0.09375 0.046875,-0.125 0.046875,-0.125 0,-0.046875 -0.03125,-0.09375 -0.125,-0.09375 -0.015625,0 -0.046875,0 -0.078125,0.015625 0,0.015625 -0.015625,0.03125 -0.09375,0.203125 C 4.8125,-0.59375 4.453125,-0.25 3.3125,-0.25 H 2.125 c -0.203125,0 -0.21875,-0.015625 -0.21875,-0.078125 0,0 0,-0.03125 0.03125,-0.140625 L 2.40625,-2.328125 H 3.1875 c 0.546875,0 0.625,0.078125 0.625,0.3125 0,0.078125 -0.015625,0.203125 -0.046875,0.3125 C 3.75,-1.640625 3.75,-1.625 3.75,-1.609375 c 0,0 0,0.09375 0.125,0.09375 0.09375,0 0.09375,-0.03125 0.125,-0.15625 l 0.390625,-1.53125 c 0.015625,-0.078125 0.015625,-0.09375 0.015625,-0.09375 0,-0.078125 -0.0625,-0.109375 -0.125,-0.109375 -0.09375,0 -0.09375,0.046875 -0.140625,0.1875 C 4,-2.671875 3.796875,-2.578125 3.203125,-2.578125 H 2.46875 L 2.890625,-4.25 c 0.046875,-0.203125 0.0625,-0.234375 0.34375,-0.234375 H 4.375 c 0.921875,0 1.140625,0.1875 1.140625,0.8125 0,0.1875 -0.03125,0.390625 -0.03125,0.421875 0,0.0625 0.03125,0.125 0.125,0.125 0.109375,0 0.109375,-0.0625 0.125,-0.1875 l 0.125,-1.203125 C 5.875,-4.734375 5.828125,-4.734375 5.65625,-4.734375 H 1.828125 c -0.140625,0 -0.21875,0 -0.21875,0.15625 0,0.09375 0.0625,0.09375 0.21875,0.09375 0.109375,0 0.140625,0 0.265625,0.015625 C 2.234375,-4.453125 2.25,-4.4375 2.25,-4.375 c 0,0.046875 -0.015625,0.125 -0.03125,0.15625 L 1.3125,-0.578125 C 1.234375,-0.296875 1.234375,-0.25 0.6875,-0.25 c -0.125,0 -0.203125,0 -0.203125,0.15625 C 0.484375,0 0.5625,0 0.6875,0 H 4.625 c 0.171875,0 0.1875,0 0.234375,-0.125 z m 0,0"
             id="id-72eafca5-0cb9-4b82-b2b6-27613df7f742"
             style="fill:#000080" />
        </g>
      </g>
      <g
         fill="#000000"
         fill-opacity="1"
         id="id-5cc80d6e-80ba-40ea-8df6-7912cd571391"
         transform="translate(-149.165,-130.359)"
         style="fill:#000080">
        <g
           transform="translate(159.583,136.259)"
           id="g4639"
           style="fill:#000080">
          <path
             d="m 5.78125,-2.96875 c 0,-1.09375 -0.796875,-1.9375 -2.03125,-1.9375 -1.65625,0 -3.265625,1.5625 -3.265625,3.140625 0,1.125 0.828125,1.90625 2.03125,1.90625 1.65625,0 3.265625,-1.515625 3.265625,-3.109375 z m -3.21875,2.875 c -0.734375,0 -1.359375,-0.5 -1.359375,-1.53125 0,-0.359375 0.09375,-1.34375 0.734375,-2.140625 0.46875,-0.5625 1.140625,-0.90625 1.765625,-0.90625 0.71875,0 1.390625,0.453125 1.390625,1.46875 0,0.5 -0.21875,1.53125 -0.859375,2.265625 C 3.75,-0.375 3.109375,-0.09375 2.5625,-0.09375 Z m 0,0"
             id="id-eabcad83-13d5-48ec-8c9f-668c6018e985"
             style="fill:#000080" />
        </g>
      </g>
      <g
         fill="#000000"
         fill-opacity="1"
         id="id-0832e9dd-684a-4748-8426-1c6faac7c973"
         transform="translate(-149.165,-130.359)"
         style="fill:#000080">
        <g
           transform="translate(165.859,136.259)"
           id="g6952"
           style="fill:#000080">
          <path
             d="m 2.875,-4.203125 c 0.0625,-0.25 0.078125,-0.3125 0.609375,-0.3125 0.171875,0 0.25,0 0.25,-0.140625 0,-0.0625 -0.046875,-0.109375 -0.109375,-0.109375 -0.140625,0 -0.328125,0.03125 -0.46875,0.03125 -0.15625,0 -0.3125,0 -0.46875,0 0,0 -0.484375,0 -0.484375,0 -0.15625,0 -0.328125,-0.03125 -0.484375,-0.03125 -0.046875,0 -0.140625,0 -0.140625,0.15625 0,0.09375 0.078125,0.09375 0.234375,0.09375 0,0 0.140625,0 0.25,0.015625 0.140625,0.015625 0.203125,0.03125 0.203125,0.109375 0,0.03125 -0.015625,0.078125 -0.03125,0.140625 l -0.9375,3.703125 C 1.25,-0.328125 1.21875,-0.25 0.703125,-0.25 c -0.1875,0 -0.25,0 -0.25,0.15625 0,0 0,0.09375 0.109375,0.09375 C 0.765625,0 1.296875,-0.03125 1.5,-0.03125 l 0.484375,0.015625 C 2.125,-0.015625 2.3125,0 2.453125,0 2.5,0 2.609375,0 2.609375,-0.15625 2.609375,-0.25 2.515625,-0.25 2.390625,-0.25 2.375,-0.25 2.21875,-0.25 2.078125,-0.265625 1.921875,-0.28125 1.921875,-0.3125 1.921875,-0.375 c 0,0 0,-0.046875 0.03125,-0.140625 z m 0,0"
             id="id-94a04abb-b4dd-4717-8a13-42df6c08b697"
             style="fill:#000080" />
        </g>
      </g>
    </g>
    <path
       style="fill:none;stroke:#000000;stroke-width:0.264583px;stroke-linecap:butt;stroke-linejoin:miter;stroke-opacity:1;marker-end:url(#DartArrow);marker-start:url(#DartArrow)"
       d="M 1.4117237,25.4 V 49.208655 L 49.415988,49.27588"
       id="path9" />
    <g
       transform="matrix(0.352778,0,0,0.352778,2.319469,23.530533)"
       ns1:version="1.10.2"
       ns1:texconverter="pdflatex"
       ns1:pdfconverter="inkscape"
       ns1:text="$e$"
       ns1:preamble="C:\Users\zamcr\AppData\Roaming\inkscape\extensions\textext\default_packages.tex"
       ns1:scale="1.0"
       ns1:alignment="middle center"
       ns1:stroke-to-path="0"
       ns1:inkscapeversion="1.3.2"
       id="g14"
       ns1:jacobian_sqrt="0.352778">
      <defs
         id="defs11">
        <g
           id="g11">
          <g
             id="g10">
            <path
               d="m 1.859375,-2.296875 c 0.296875,0 1.03125,-0.03125 1.53125,-0.234375 0.703125,-0.296875 0.75,-0.890625 0.75,-1.03125 0,-0.4375 -0.375,-0.84375 -1.0625,-0.84375 -1.109375,0 -2.625,0.96875 -2.625,2.71875 0,1.015625 0.59375,1.796875 1.578125,1.796875 1.421875,0 2.25,-1.0625 2.25,-1.171875 0,-0.0625 -0.046875,-0.140625 -0.109375,-0.140625 -0.0625,0 -0.078125,0.03125 -0.140625,0.109375 -0.78125,0.984375 -1.875,0.984375 -1.984375,0.984375 -0.78125,0 -0.875,-0.84375 -0.875,-1.15625 0,-0.125 0.015625,-0.421875 0.15625,-1.03125 z m -0.46875,-0.21875 C 1.78125,-4.03125 2.8125,-4.1875 3.078125,-4.1875 c 0.453125,0 0.734375,0.296875 0.734375,0.625 0,1.046875 -1.59375,1.046875 -2.015625,1.046875 z m 0,0"
               id="path10" />
          </g>
        </g>
      </defs>
      <g
         fill="#000000"
         fill-opacity="1"
         id="g13"
         transform="translate(-149.165,-130.359)">
        <g
           transform="translate(148.712,134.765)"
           id="g12">
          <path
             d="m 1.859375,-2.296875 c 0.296875,0 1.03125,-0.03125 1.53125,-0.234375 0.703125,-0.296875 0.75,-0.890625 0.75,-1.03125 0,-0.4375 -0.375,-0.84375 -1.0625,-0.84375 -1.109375,0 -2.625,0.96875 -2.625,2.71875 0,1.015625 0.59375,1.796875 1.578125,1.796875 1.421875,0 2.25,-1.0625 2.25,-1.171875 0,-0.0625 -0.046875,-0.140625 -0.109375,-0.140625 -0.0625,0 -0.078125,0.03125 -0.140625,0.109375 -0.78125,0.984375 -1.875,0.984375 -1.984375,0.984375 -0.78125,0 -0.875,-0.84375 -0.875,-1.15625 0,-0.125 0.015625,-0.421875 0.15625,-1.03125 z m -0.46875,-0.21875 C 1.78125,-4.03125 2.8125,-4.1875 3.078125,-4.1875 c 0.453125,0 0.734375,0.296875 0.734375,0.625 0,1.046875 -1.59375,1.046875 -2.015625,1.046875 z m 0,0"
             id="path11" />
        </g>
      </g>
    </g>
    <g
       transform="matrix(0.352778,0,0,0.352778,42.986852,46.096871)"
       ns1:version="1.10.2"
       ns1:texconverter="pdflatex"
       ns1:pdfconverter="inkscape"
       ns1:text="$\\log \\sigma$"
       ns1:preamble="C:\Users\zamcr\AppData\Roaming\inkscape\extensions\textext\default_packages.tex"
       ns1:scale="1.0"
       ns1:alignment="middle center"
       ns1:stroke-to-path="0"
       ns1:inkscapeversion="1.3.2"
       id="g9667"
       ns1:jacobian_sqrt="0.352778">
      <defs
         id="id-8b2d4554-a0ea-426e-aeeb-45bed98e7bfb">
        <g
           id="id-ac276db6-7552-465d-8174-6322465b59c3">
          <g
             id="id-60f99fad-06c4-4241-a4e9-64a39afd815a">
            <path
               d="M 1.765625,-6.921875 0.328125,-6.8125 V -6.5 c 0.703125,0 0.78125,0.0625 0.78125,0.5625 V -0.75 c 0,0.4375 -0.109375,0.4375 -0.78125,0.4375 V 0 C 0.65625,-0.015625 1.1875,-0.03125 1.4375,-0.03125 c 0.25,0 0.734375,0.015625 1.109375,0.03125 v -0.3125 c -0.671875,0 -0.78125,0 -0.78125,-0.4375 z m 0,0"
               id="id-c9f3f252-c750-4817-ab29-91a164f68254" />
          </g>
          <g
             id="id-cdcae19d-d0ca-4230-a4ee-e7455bfd6cc7">
            <path
               d="M 4.6875,-2.140625 C 4.6875,-3.40625 3.703125,-4.46875 2.5,-4.46875 c -1.25,0 -2.21875,1.09375 -2.21875,2.328125 0,1.296875 1.03125,2.25 2.203125,2.25 1.203125,0 2.203125,-0.984375 2.203125,-2.25 z m -2.1875,2 c -0.4375,0 -0.875,-0.203125 -1.140625,-0.671875 -0.25,-0.4375 -0.25,-1.046875 -0.25,-1.40625 0,-0.390625 0,-0.921875 0.234375,-1.359375 C 1.609375,-4.03125 2.078125,-4.25 2.484375,-4.25 c 0.4375,0 0.859375,0.21875 1.125,0.65625 0.265625,0.421875 0.265625,1 0.265625,1.375 0,0.359375 0,0.90625 -0.21875,1.34375 C 3.421875,-0.421875 2.984375,-0.140625 2.5,-0.140625 Z m 0,0"
               id="id-d62b139c-1ac8-4d81-b281-c2d096be7a23" />
          </g>
          <g
             id="id-6a5837aa-173a-4d5e-b1e1-c5ec6957fb31">
            <path
               d="m 2.21875,-1.71875 c -0.875,0 -0.875,-1 -0.875,-1.21875 0,-0.265625 0.015625,-0.59375 0.15625,-0.84375 0.078125,-0.109375 0.3125,-0.390625 0.71875,-0.390625 0.859375,0 0.859375,0.984375 0.859375,1.21875 0,0.265625 0,0.59375 -0.15625,0.84375 C 2.84375,-2 2.609375,-1.71875 2.21875,-1.71875 Z M 1.0625,-1.328125 c 0,-0.03125 0,-0.265625 0.15625,-0.46875 0.390625,0.28125 0.8125,0.3125 1,0.3125 0.921875,0 1.609375,-0.6875 1.609375,-1.453125 0,-0.375 -0.15625,-0.734375 -0.40625,-0.96875 C 3.78125,-4.25 4.140625,-4.296875 4.3125,-4.296875 c 0.03125,0 0.078125,0 0.109375,0.015625 C 4.3125,-4.25 4.25,-4.140625 4.25,-4.015625 c 0,0.171875 0.140625,0.28125 0.296875,0.28125 0.09375,0 0.28125,-0.0625 0.28125,-0.296875 0,-0.171875 -0.109375,-0.484375 -0.5,-0.484375 -0.203125,0 -0.640625,0.0625 -1.0625,0.46875 C 2.84375,-4.375 2.4375,-4.40625 2.21875,-4.40625 c -0.9375,0 -1.625,0.6875 -1.625,1.453125 0,0.4375 0.21875,0.8125 0.46875,1.03125 -0.125,0.140625 -0.3125,0.46875 -0.3125,0.828125 0,0.3125 0.140625,0.6875 0.453125,0.890625 -0.609375,0.15625 -0.921875,0.59375 -0.921875,0.984375 0,0.71875 0.984375,1.265625 2.203125,1.265625 1.171875,0 2.203125,-0.5 2.203125,-1.28125 0,-0.34375 -0.125,-0.859375 -0.640625,-1.140625 -0.53125,-0.265625 -1.109375,-0.265625 -1.71875,-0.265625 -0.25,0 -0.671875,0 -0.75,-0.015625 C 1.265625,-0.703125 1.0625,-1 1.0625,-1.328125 Z M 2.5,1.828125 c -1.015625,0 -1.703125,-0.515625 -1.703125,-1.046875 0,-0.453125 0.375,-0.828125 0.8125,-0.84375 h 0.59375 c 0.859375,0 1.96875,0 1.96875,0.84375 0,0.546875 -0.703125,1.046875 -1.671875,1.046875 z m 0,0"
               id="id-c12e26e7-d9a3-469a-9442-8538f1c78da0" />
          </g>
          <g
             id="id-fee2b735-9f82-4603-8cc8-6bc95fd548b4">
            <path
               d="m 5.15625,-3.71875 c 0.140625,0 0.5,0 0.5,-0.34375 0,-0.234375 -0.21875,-0.234375 -0.390625,-0.234375 h -2.28125 c -1.5,0 -2.609375,1.640625 -2.609375,2.828125 0,0.875 0.59375,1.578125 1.5,1.578125 1.171875,0 2.5,-1.203125 2.5,-2.734375 0,-0.171875 0,-0.65625 -0.3125,-1.09375 z M 1.890625,-0.109375 C 1.390625,-0.109375 1,-0.46875 1,-1.1875 c 0,-0.296875 0.109375,-1.109375 0.46875,-1.703125 0.421875,-0.6875 1.015625,-0.828125 1.359375,-0.828125 0.828125,0 0.90625,0.65625 0.90625,0.96875 0,0.46875 -0.203125,1.28125 -0.53125,1.796875 -0.390625,0.578125 -0.9375,0.84375 -1.3125,0.84375 z m 0,0"
               id="id-b81488c4-7bd3-48df-826a-2d70cf13c890" />
          </g>
        </g>
      </defs>
      <g
         fill="#000000"
         fill-opacity="1"
         id="id-985f74dc-3e19-4e16-9b22-0063067d6c31"
         transform="translate(-149.04,-127.843)">
        <g
           transform="translate(148.712,134.765)"
           id="g7434">
          <path
             d="M 1.765625,-6.921875 0.328125,-6.8125 V -6.5 c 0.703125,0 0.78125,0.0625 0.78125,0.5625 V -0.75 c 0,0.4375 -0.109375,0.4375 -0.78125,0.4375 V 0 C 0.65625,-0.015625 1.1875,-0.03125 1.4375,-0.03125 c 0.25,0 0.734375,0.015625 1.109375,0.03125 v -0.3125 c -0.671875,0 -0.78125,0 -0.78125,-0.4375 z m 0,0"
             id="id-804055f4-49d3-4227-a91c-049adbcef5bb" />
        </g>
        <g
           transform="translate(151.48,134.765)"
           id="g1160">
          <path
             d="M 4.6875,-2.140625 C 4.6875,-3.40625 3.703125,-4.46875 2.5,-4.46875 c -1.25,0 -2.21875,1.09375 -2.21875,2.328125 0,1.296875 1.03125,2.25 2.203125,2.25 1.203125,0 2.203125,-0.984375 2.203125,-2.25 z m -2.1875,2 c -0.4375,0 -0.875,-0.203125 -1.140625,-0.671875 -0.25,-0.4375 -0.25,-1.046875 -0.25,-1.40625 0,-0.390625 0,-0.921875 0.234375,-1.359375 C 1.609375,-4.03125 2.078125,-4.25 2.484375,-4.25 c 0.4375,0 0.859375,0.21875 1.125,0.65625 0.265625,0.421875 0.265625,1 0.265625,1.375 0,0.359375 0,0.90625 -0.21875,1.34375 C 3.421875,-0.421875 2.984375,-0.140625 2.5,-0.140625 Z m 0,0"
             id="id-686ab343-96bc-4c5a-847f-77b44932d01b" />
        </g>
        <g
           transform="translate(156.461,134.765)"
           id="g825">
          <path
             d="m 2.21875,-1.71875 c -0.875,0 -0.875,-1 -0.875,-1.21875 0,-0.265625 0.015625,-0.59375 0.15625,-0.84375 0.078125,-0.109375 0.3125,-0.390625 0.71875,-0.390625 0.859375,0 0.859375,0.984375 0.859375,1.21875 0,0.265625 0,0.59375 -0.15625,0.84375 C 2.84375,-2 2.609375,-1.71875 2.21875,-1.71875 Z M 1.0625,-1.328125 c 0,-0.03125 0,-0.265625 0.15625,-0.46875 0.390625,0.28125 0.8125,0.3125 1,0.3125 0.921875,0 1.609375,-0.6875 1.609375,-1.453125 0,-0.375 -0.15625,-0.734375 -0.40625,-0.96875 C 3.78125,-4.25 4.140625,-4.296875 4.3125,-4.296875 c 0.03125,0 0.078125,0 0.109375,0.015625 C 4.3125,-4.25 4.25,-4.140625 4.25,-4.015625 c 0,0.171875 0.140625,0.28125 0.296875,0.28125 0.09375,0 0.28125,-0.0625 0.28125,-0.296875 0,-0.171875 -0.109375,-0.484375 -0.5,-0.484375 -0.203125,0 -0.640625,0.0625 -1.0625,0.46875 C 2.84375,-4.375 2.4375,-4.40625 2.21875,-4.40625 c -0.9375,0 -1.625,0.6875 -1.625,1.453125 0,0.4375 0.21875,0.8125 0.46875,1.03125 -0.125,0.140625 -0.3125,0.46875 -0.3125,0.828125 0,0.3125 0.140625,0.6875 0.453125,0.890625 -0.609375,0.15625 -0.921875,0.59375 -0.921875,0.984375 0,0.71875 0.984375,1.265625 2.203125,1.265625 1.171875,0 2.203125,-0.5 2.203125,-1.28125 0,-0.34375 -0.125,-0.859375 -0.640625,-1.140625 -0.53125,-0.265625 -1.109375,-0.265625 -1.71875,-0.265625 -0.25,0 -0.671875,0 -0.75,-0.015625 C 1.265625,-0.703125 1.0625,-1 1.0625,-1.328125 Z M 2.5,1.828125 c -1.015625,0 -1.703125,-0.515625 -1.703125,-1.046875 0,-0.453125 0.375,-0.828125 0.8125,-0.84375 h 0.59375 c 0.859375,0 1.96875,0 1.96875,0.84375 0,0.546875 -0.703125,1.046875 -1.671875,1.046875 z m 0,0"
             id="id-76249f44-6323-4d09-9bff-c103f0289216" />
        </g>
      </g>
      <g
         fill="#000000"
         fill-opacity="1"
         id="id-2032eeb2-930d-43b3-aeeb-b0de197ff60a"
         transform="translate(-149.04,-127.843)">
        <g
           transform="translate(163.241,134.765)"
           id="g4352">
          <path
             d="m 5.15625,-3.71875 c 0.140625,0 0.5,0 0.5,-0.34375 0,-0.234375 -0.21875,-0.234375 -0.390625,-0.234375 h -2.28125 c -1.5,0 -2.609375,1.640625 -2.609375,2.828125 0,0.875 0.59375,1.578125 1.5,1.578125 1.171875,0 2.5,-1.203125 2.5,-2.734375 0,-0.171875 0,-0.65625 -0.3125,-1.09375 z M 1.890625,-0.109375 C 1.390625,-0.109375 1,-0.46875 1,-1.1875 c 0,-0.296875 0.109375,-1.109375 0.46875,-1.703125 0.421875,-0.6875 1.015625,-0.828125 1.359375,-0.828125 0.828125,0 0.90625,0.65625 0.90625,0.96875 0,0.46875 -0.203125,1.28125 -0.53125,1.796875 -0.390625,0.578125 -0.9375,0.84375 -1.3125,0.84375 z m 0,0"
             id="id-81c1fbfd-26ea-4a10-88b9-c4b4c5d6c4b4" />
        </g>
      </g>
    </g>
    <path
       style="fill:none;stroke:#000080;stroke-width:0.365;stroke-linecap:butt;stroke-linejoin:miter;stroke-opacity:1;stroke-dasharray:none"
       d="m 3.8470238,27.598228 c 10.9536422,-0.06399 20.8434462,1.306468 23.4297032,2.537526 3.270473,1.556745 4.89862,1.800145 14.390235,17.41978"
       id="path14"
       sodipodi:nodetypes="csc" />
    <path
       sodipodi:type="star"
       style="fill:#000080;stroke:none;stroke-width:0.465;stroke-linecap:round;stroke-miterlimit:4.1;stroke-dasharray:1.05833, 1.05833;stroke-dashoffset:0"
       id="path15"
       inkscape:flatsided="false"
       sodipodi:sides="5"
       sodipodi:cx="30.18486"
       sodipodi:cy="27.522888"
       sodipodi:r1="0.89689255"
       sodipodi:r2="0.44844636"
       sodipodi:arg1="1.0471976"
       sodipodi:arg2="1.6755161"
       inkscape:rounded="0"
       inkscape:randomized="0"
       d="m 30.633306,28.29962 -0.495321,-0.330742 -0.553263,0.220531 0.161491,-0.573284 -0.380705,-0.458036 0.595129,-0.02357 0.317974,-0.503613 0.206318,0.558719 0.577225,0.146786 -0.467618,0.368874 z"
       inkscape:transform-center-x="-0.028970211"
       inkscape:transform-center-y="-0.057624122"
       transform="translate(0.94267341,5.2317095)" />
    <path
       style="fill:none;stroke:#008000;stroke-width:0.365;stroke-linecap:round;stroke-linejoin:miter;stroke-opacity:1;stroke-dasharray:none"
       d="M 3.8459577,26.489016 C 14.7996,26.425026 26.654543,27.608688 29.2408,28.839744 c 3.270473,1.556745 4.89862,1.800145 14.390235,17.41978"
       id="path16"
       sodipodi:nodetypes="csc" />
    <path
       sodipodi:type="star"
       style="fill:#000080;stroke:none;stroke-width:0.465;stroke-linecap:round;stroke-miterlimit:4.1;stroke-dasharray:1.05833, 1.05833;stroke-dashoffset:0"
       id="path17"
       inkscape:flatsided="false"
       sodipodi:sides="5"
       sodipodi:cx="30.18486"
       sodipodi:cy="27.522888"
       sodipodi:r1="0.89689255"
       sodipodi:r2="0.44844636"
       sodipodi:arg1="1.0471976"
       sodipodi:arg2="1.6755161"
       inkscape:rounded="0"
       inkscape:randomized="0"
       d="m 30.633306,28.29962 -0.495321,-0.330742 -0.553263,0.220531 0.161491,-0.573284 -0.380705,-0.458036 0.595129,-0.02357 0.317974,-0.503613 0.206318,0.558719 0.577225,0.146786 -0.467618,0.368874 z"
       inkscape:transform-center-x="-0.028970211"
       inkscape:transform-center-y="-0.057624122"
       transform="translate(-28.802107,-7.6906164)" />
    <path
       style="fill:none;stroke:#000080;stroke-width:0.264583px;stroke-linecap:butt;stroke-linejoin:miter;stroke-opacity:1;stroke-dasharray:1.05833197, 1.05833197;stroke-dashoffset:0"
       d="M 31.127533,32.754596 H 1.4117237"
       id="path18" />
    <path
       sodipodi:type="star"
       style="fill:#000080;stroke:none;stroke-width:0.465;stroke-linecap:round;stroke-miterlimit:4.1;stroke-dasharray:1.05833, 1.05833;stroke-dashoffset:0"
       id="path19"
       inkscape:flatsided="false"
       sodipodi:sides="5"
       sodipodi:cx="30.18486"
       sodipodi:cy="27.522888"
       sodipodi:r1="0.89689255"
       sodipodi:r2="0.44844636"
       sodipodi:arg1="1.0471976"
       sodipodi:arg2="1.6755161"
       inkscape:rounded="0"
       inkscape:randomized="0"
       d="m 30.633306,28.29962 -0.495321,-0.330742 -0.553263,0.220531 0.161491,-0.573284 -0.380705,-0.458036 0.595129,-0.02357 0.317974,-0.503613 0.206318,0.558719 0.577225,0.146786 -0.467618,0.368874 z"
       inkscape:transform-center-x="-0.028970211"
       inkscape:transform-center-y="-0.057624122"
       transform="translate(-28.773137,5.2317078)" />
    <g
       transform="matrix(0.352778,0,0,0.352778,1.7083381,33.123605)"
       ns1:version="1.10.2"
       ns1:texconverter="pdflatex"
       ns1:pdfconverter="inkscape"
       ns1:text="$e_{EOI}$"
       ns1:preamble="C:\Users\zamcr\AppData\Roaming\inkscape\extensions\textext\default_packages.tex"
       ns1:scale="1.0"
       ns1:alignment="middle center"
       ns1:stroke-to-path="0"
       ns1:inkscapeversion="1.3.2"
       id="g33"
       ns1:jacobian_sqrt="0.352778"
       style="fill:#000080">
      <defs
         id="defs24">
        <g
           id="g24">
          <g
             id="g20">
            <path
               d="m 1.859375,-2.296875 c 0.296875,0 1.03125,-0.03125 1.53125,-0.234375 0.703125,-0.296875 0.75,-0.890625 0.75,-1.03125 0,-0.4375 -0.375,-0.84375 -1.0625,-0.84375 -1.109375,0 -2.625,0.96875 -2.625,2.71875 0,1.015625 0.59375,1.796875 1.578125,1.796875 1.421875,0 2.25,-1.0625 2.25,-1.171875 0,-0.0625 -0.046875,-0.140625 -0.109375,-0.140625 -0.0625,0 -0.078125,0.03125 -0.140625,0.109375 -0.78125,0.984375 -1.875,0.984375 -1.984375,0.984375 -0.78125,0 -0.875,-0.84375 -0.875,-1.15625 0,-0.125 0.015625,-0.421875 0.15625,-1.03125 z m -0.46875,-0.21875 C 1.78125,-4.03125 2.8125,-4.1875 3.078125,-4.1875 c 0.453125,0 0.734375,0.296875 0.734375,0.625 0,1.046875 -1.59375,1.046875 -2.015625,1.046875 z m 0,0"
               id="path20" />
          </g>
          <g
             id="g21">
            <path
               d="m 5.515625,-1.609375 c 0.046875,-0.09375 0.046875,-0.125 0.046875,-0.125 0,-0.046875 -0.03125,-0.09375 -0.125,-0.09375 -0.015625,0 -0.046875,0 -0.078125,0.015625 0,0.015625 -0.015625,0.03125 -0.09375,0.203125 C 4.8125,-0.59375 4.453125,-0.25 3.3125,-0.25 H 2.125 c -0.203125,0 -0.21875,-0.015625 -0.21875,-0.078125 0,0 0,-0.03125 0.03125,-0.140625 L 2.40625,-2.328125 H 3.1875 c 0.546875,0 0.625,0.078125 0.625,0.3125 0,0.078125 -0.015625,0.203125 -0.046875,0.3125 C 3.75,-1.640625 3.75,-1.625 3.75,-1.609375 c 0,0 0,0.09375 0.125,0.09375 0.09375,0 0.09375,-0.03125 0.125,-0.15625 l 0.390625,-1.53125 c 0.015625,-0.078125 0.015625,-0.09375 0.015625,-0.09375 0,-0.078125 -0.0625,-0.109375 -0.125,-0.109375 -0.09375,0 -0.09375,0.046875 -0.140625,0.1875 C 4,-2.671875 3.796875,-2.578125 3.203125,-2.578125 H 2.46875 L 2.890625,-4.25 c 0.046875,-0.203125 0.0625,-0.234375 0.34375,-0.234375 H 4.375 c 0.921875,0 1.140625,0.1875 1.140625,0.8125 0,0.1875 -0.03125,0.390625 -0.03125,0.421875 0,0.0625 0.03125,0.125 0.125,0.125 0.109375,0 0.109375,-0.0625 0.125,-0.1875 l 0.125,-1.203125 C 5.875,-4.734375 5.828125,-4.734375 5.65625,-4.734375 H 1.828125 c -0.140625,0 -0.21875,0 -0.21875,0.15625 0,0.09375 0.0625,0.09375 0.21875,0.09375 0.109375,0 0.140625,0 0.265625,0.015625 C 2.234375,-4.453125 2.25,-4.4375 2.25,-4.375 c 0,0.046875 -0.015625,0.125 -0.03125,0.15625 L 1.3125,-0.578125 C 1.234375,-0.296875 1.234375,-0.25 0.6875,-0.25 c -0.125,0 -0.203125,0 -0.203125,0.15625 C 0.484375,0 0.5625,0 0.6875,0 H 4.625 c 0.171875,0 0.1875,0 0.234375,-0.125 z m 0,0"
               id="path21" />
          </g>
          <g
             id="g22">
            <path
               d="m 5.78125,-2.96875 c 0,-1.09375 -0.796875,-1.9375 -2.03125,-1.9375 -1.65625,0 -3.265625,1.5625 -3.265625,3.140625 0,1.125 0.828125,1.90625 2.03125,1.90625 1.65625,0 3.265625,-1.515625 3.265625,-3.109375 z m -3.21875,2.875 c -0.734375,0 -1.359375,-0.5 -1.359375,-1.53125 0,-0.359375 0.09375,-1.34375 0.734375,-2.140625 0.46875,-0.5625 1.140625,-0.90625 1.765625,-0.90625 0.71875,0 1.390625,0.453125 1.390625,1.46875 0,0.5 -0.21875,1.53125 -0.859375,2.265625 C 3.75,-0.375 3.109375,-0.09375 2.5625,-0.09375 Z m 0,0"
               id="path22" />
          </g>
          <g
             id="g23">
            <path
               d="m 2.875,-4.203125 c 0.0625,-0.25 0.078125,-0.3125 0.609375,-0.3125 0.171875,0 0.25,0 0.25,-0.140625 0,-0.0625 -0.046875,-0.109375 -0.109375,-0.109375 -0.140625,0 -0.328125,0.03125 -0.46875,0.03125 -0.15625,0 -0.3125,0 -0.46875,0 0,0 -0.484375,0 -0.484375,0 -0.15625,0 -0.328125,-0.03125 -0.484375,-0.03125 -0.046875,0 -0.140625,0 -0.140625,0.15625 0,0.09375 0.078125,0.09375 0.234375,0.09375 0,0 0.140625,0 0.25,0.015625 0.140625,0.015625 0.203125,0.03125 0.203125,0.109375 0,0.03125 -0.015625,0.078125 -0.03125,0.140625 l -0.9375,3.703125 C 1.25,-0.328125 1.21875,-0.25 0.703125,-0.25 c -0.1875,0 -0.25,0 -0.25,0.15625 0,0 0,0.09375 0.109375,0.09375 C 0.765625,0 1.296875,-0.03125 1.5,-0.03125 l 0.484375,0.015625 C 2.125,-0.015625 2.3125,0 2.453125,0 2.5,0 2.609375,0 2.609375,-0.15625 2.609375,-0.25 2.515625,-0.25 2.390625,-0.25 2.375,-0.25 2.21875,-0.25 2.078125,-0.265625 1.921875,-0.28125 1.921875,-0.3125 1.921875,-0.375 c 0,0 0,-0.046875 0.03125,-0.140625 z m 0,0"
               id="path23" />
          </g>
        </g>
      </defs>
      <g
         fill="#000000"
         fill-opacity="1"
         id="g26"
         transform="translate(-149.165,-130.359)"
         style="fill:#000080">
        <g
           transform="translate(148.712,134.765)"
           id="g25"
           style="fill:#000080">
          <path
             d="m 1.859375,-2.296875 c 0.296875,0 1.03125,-0.03125 1.53125,-0.234375 0.703125,-0.296875 0.75,-0.890625 0.75,-1.03125 0,-0.4375 -0.375,-0.84375 -1.0625,-0.84375 -1.109375,0 -2.625,0.96875 -2.625,2.71875 0,1.015625 0.59375,1.796875 1.578125,1.796875 1.421875,0 2.25,-1.0625 2.25,-1.171875 0,-0.0625 -0.046875,-0.140625 -0.109375,-0.140625 -0.0625,0 -0.078125,0.03125 -0.140625,0.109375 -0.78125,0.984375 -1.875,0.984375 -1.984375,0.984375 -0.78125,0 -0.875,-0.84375 -0.875,-1.15625 0,-0.125 0.015625,-0.421875 0.15625,-1.03125 z m -0.46875,-0.21875 C 1.78125,-4.03125 2.8125,-4.1875 3.078125,-4.1875 c 0.453125,0 0.734375,0.296875 0.734375,0.625 0,1.046875 -1.59375,1.046875 -2.015625,1.046875 z m 0,0"
             id="path24"
             style="fill:#000080" />
        </g>
      </g>
      <g
         fill="#000000"
         fill-opacity="1"
         id="g28"
         transform="translate(-149.165,-130.359)"
         style="fill:#000080">
        <g
           transform="translate(153.351,136.259)"
           id="g27"
           style="fill:#000080">
          <path
             d="m 5.515625,-1.609375 c 0.046875,-0.09375 0.046875,-0.125 0.046875,-0.125 0,-0.046875 -0.03125,-0.09375 -0.125,-0.09375 -0.015625,0 -0.046875,0 -0.078125,0.015625 0,0.015625 -0.015625,0.03125 -0.09375,0.203125 C 4.8125,-0.59375 4.453125,-0.25 3.3125,-0.25 H 2.125 c -0.203125,0 -0.21875,-0.015625 -0.21875,-0.078125 0,0 0,-0.03125 0.03125,-0.140625 L 2.40625,-2.328125 H 3.1875 c 0.546875,0 0.625,0.078125 0.625,0.3125 0,0.078125 -0.015625,0.203125 -0.046875,0.3125 C 3.75,-1.640625 3.75,-1.625 3.75,-1.609375 c 0,0 0,0.09375 0.125,0.09375 0.09375,0 0.09375,-0.03125 0.125,-0.15625 l 0.390625,-1.53125 c 0.015625,-0.078125 0.015625,-0.09375 0.015625,-0.09375 0,-0.078125 -0.0625,-0.109375 -0.125,-0.109375 -0.09375,0 -0.09375,0.046875 -0.140625,0.1875 C 4,-2.671875 3.796875,-2.578125 3.203125,-2.578125 H 2.46875 L 2.890625,-4.25 c 0.046875,-0.203125 0.0625,-0.234375 0.34375,-0.234375 H 4.375 c 0.921875,0 1.140625,0.1875 1.140625,0.8125 0,0.1875 -0.03125,0.390625 -0.03125,0.421875 0,0.0625 0.03125,0.125 0.125,0.125 0.109375,0 0.109375,-0.0625 0.125,-0.1875 l 0.125,-1.203125 C 5.875,-4.734375 5.828125,-4.734375 5.65625,-4.734375 H 1.828125 c -0.140625,0 -0.21875,0 -0.21875,0.15625 0,0.09375 0.0625,0.09375 0.21875,0.09375 0.109375,0 0.140625,0 0.265625,0.015625 C 2.234375,-4.453125 2.25,-4.4375 2.25,-4.375 c 0,0.046875 -0.015625,0.125 -0.03125,0.15625 L 1.3125,-0.578125 C 1.234375,-0.296875 1.234375,-0.25 0.6875,-0.25 c -0.125,0 -0.203125,0 -0.203125,0.15625 C 0.484375,0 0.5625,0 0.6875,0 H 4.625 c 0.171875,0 0.1875,0 0.234375,-0.125 z m 0,0"
             id="path26"
             style="fill:#000080" />
        </g>
      </g>
      <g
         fill="#000000"
         fill-opacity="1"
         id="g30"
         transform="translate(-149.165,-130.359)"
         style="fill:#000080">
        <g
           transform="translate(159.583,136.259)"
           id="g29"
           style="fill:#000080">
          <path
             d="m 5.78125,-2.96875 c 0,-1.09375 -0.796875,-1.9375 -2.03125,-1.9375 -1.65625,0 -3.265625,1.5625 -3.265625,3.140625 0,1.125 0.828125,1.90625 2.03125,1.90625 1.65625,0 3.265625,-1.515625 3.265625,-3.109375 z m -3.21875,2.875 c -0.734375,0 -1.359375,-0.5 -1.359375,-1.53125 0,-0.359375 0.09375,-1.34375 0.734375,-2.140625 0.46875,-0.5625 1.140625,-0.90625 1.765625,-0.90625 0.71875,0 1.390625,0.453125 1.390625,1.46875 0,0.5 -0.21875,1.53125 -0.859375,2.265625 C 3.75,-0.375 3.109375,-0.09375 2.5625,-0.09375 Z m 0,0"
             id="path28"
             style="fill:#000080" />
        </g>
      </g>
      <g
         fill="#000000"
         fill-opacity="1"
         id="g32"
         transform="translate(-149.165,-130.359)"
         style="fill:#000080">
        <g
           transform="translate(165.859,136.259)"
           id="g31"
           style="fill:#000080">
          <path
             d="m 2.875,-4.203125 c 0.0625,-0.25 0.078125,-0.3125 0.609375,-0.3125 0.171875,0 0.25,0 0.25,-0.140625 0,-0.0625 -0.046875,-0.109375 -0.109375,-0.109375 -0.140625,0 -0.328125,0.03125 -0.46875,0.03125 -0.15625,0 -0.3125,0 -0.46875,0 0,0 -0.484375,0 -0.484375,0 -0.15625,0 -0.328125,-0.03125 -0.484375,-0.03125 -0.046875,0 -0.140625,0 -0.140625,0.15625 0,0.09375 0.078125,0.09375 0.234375,0.09375 0,0 0.140625,0 0.25,0.015625 0.140625,0.015625 0.203125,0.03125 0.203125,0.109375 0,0.03125 -0.015625,0.078125 -0.03125,0.140625 l -0.9375,3.703125 C 1.25,-0.328125 1.21875,-0.25 0.703125,-0.25 c -0.1875,0 -0.25,0 -0.25,0.15625 0,0 0,0.09375 0.109375,0.09375 C 0.765625,0 1.296875,-0.03125 1.5,-0.03125 l 0.484375,0.015625 C 2.125,-0.015625 2.3125,0 2.453125,0 2.5,0 2.609375,0 2.609375,-0.15625 2.609375,-0.25 2.515625,-0.25 2.390625,-0.25 2.375,-0.25 2.21875,-0.25 2.078125,-0.265625 1.921875,-0.28125 1.921875,-0.3125 1.921875,-0.375 c 0,0 0,-0.046875 0.03125,-0.140625 z m 0,0"
             id="path30"
             style="fill:#000080" />
        </g>
      </g>
    </g>
    <path
       style="fill:none;stroke:#000080;stroke-width:0.264583px;stroke-linecap:butt;stroke-linejoin:miter;stroke-opacity:1;stroke-dasharray:1.05833197, 1.05833197;stroke-dashoffset:0"
       d="M 31.127533,32.754596 V 49.250269"
       id="path33" />
    <ellipse
       style="fill:#008000;stroke:#008000;stroke-width:0.365001;stroke-linecap:round;stroke-miterlimit:4.1;stroke-dasharray:none;stroke-dashoffset:0"
       id="path34"
       cx="1.440963"
       cy="16.597628"
       rx="0.37590486"
       ry="0.39206037" />
    <ellipse
       style="fill:#008000;stroke:#008000;stroke-width:0.365001;stroke-linecap:round;stroke-miterlimit:4.1;stroke-dasharray:none;stroke-dashoffset:0"
       id="ellipse34"
       cx="31.127533"
       cy="29.775663"
       rx="0.37590486"
       ry="0.39206037" />
    <path
       style="fill:none;stroke:#008000;stroke-width:0.264583px;stroke-linecap:butt;stroke-linejoin:miter;stroke-opacity:1;stroke-dasharray:1.05833197, 1.05833197;stroke-dashoffset:0"
       d="M 31.127533,29.775663 H 1.4117237"
       id="path36" />
    <g
       transform="matrix(0.352778,0,0,0.352778,1.9122879,29.904014)"
       ns1:version="1.10.2"
       ns1:texconverter="pdflatex"
       ns1:pdfconverter="inkscape"
       ns1:text="$e_{EOP}$"
       ns1:preamble="C:\Users\zamcr\AppData\Roaming\inkscape\extensions\textext\default_packages.tex"
       ns1:scale="1.0"
       ns1:alignment="middle center"
       ns1:stroke-to-path="0"
       ns1:inkscapeversion="1.3.2"
       id="g50"
       ns1:jacobian_sqrt="0.352778"
       style="fill:#008000">
      <defs
         id="defs41">
        <g
           id="g41">
          <g
             id="g37">
            <path
               d="m 1.859375,-2.296875 c 0.296875,0 1.03125,-0.03125 1.53125,-0.234375 0.703125,-0.296875 0.75,-0.890625 0.75,-1.03125 0,-0.4375 -0.375,-0.84375 -1.0625,-0.84375 -1.109375,0 -2.625,0.96875 -2.625,2.71875 0,1.015625 0.59375,1.796875 1.578125,1.796875 1.421875,0 2.25,-1.0625 2.25,-1.171875 0,-0.0625 -0.046875,-0.140625 -0.109375,-0.140625 -0.0625,0 -0.078125,0.03125 -0.140625,0.109375 -0.78125,0.984375 -1.875,0.984375 -1.984375,0.984375 -0.78125,0 -0.875,-0.84375 -0.875,-1.15625 0,-0.125 0.015625,-0.421875 0.15625,-1.03125 z m -0.46875,-0.21875 C 1.78125,-4.03125 2.8125,-4.1875 3.078125,-4.1875 c 0.453125,0 0.734375,0.296875 0.734375,0.625 0,1.046875 -1.59375,1.046875 -2.015625,1.046875 z m 0,0"
               id="path37" />
          </g>
          <g
             id="g38">
            <path
               d="m 5.515625,-1.609375 c 0.046875,-0.09375 0.046875,-0.125 0.046875,-0.125 0,-0.046875 -0.03125,-0.09375 -0.125,-0.09375 -0.015625,0 -0.046875,0 -0.078125,0.015625 0,0.015625 -0.015625,0.03125 -0.09375,0.203125 C 4.8125,-0.59375 4.453125,-0.25 3.3125,-0.25 H 2.125 c -0.203125,0 -0.21875,-0.015625 -0.21875,-0.078125 0,0 0,-0.03125 0.03125,-0.140625 L 2.40625,-2.328125 H 3.1875 c 0.546875,0 0.625,0.078125 0.625,0.3125 0,0.078125 -0.015625,0.203125 -0.046875,0.3125 C 3.75,-1.640625 3.75,-1.625 3.75,-1.609375 c 0,0 0,0.09375 0.125,0.09375 0.09375,0 0.09375,-0.03125 0.125,-0.15625 l 0.390625,-1.53125 c 0.015625,-0.078125 0.015625,-0.09375 0.015625,-0.09375 0,-0.078125 -0.0625,-0.109375 -0.125,-0.109375 -0.09375,0 -0.09375,0.046875 -0.140625,0.1875 C 4,-2.671875 3.796875,-2.578125 3.203125,-2.578125 H 2.46875 L 2.890625,-4.25 c 0.046875,-0.203125 0.0625,-0.234375 0.34375,-0.234375 H 4.375 c 0.921875,0 1.140625,0.1875 1.140625,0.8125 0,0.1875 -0.03125,0.390625 -0.03125,0.421875 0,0.0625 0.03125,0.125 0.125,0.125 0.109375,0 0.109375,-0.0625 0.125,-0.1875 l 0.125,-1.203125 C 5.875,-4.734375 5.828125,-4.734375 5.65625,-4.734375 H 1.828125 c -0.140625,0 -0.21875,0 -0.21875,0.15625 0,0.09375 0.0625,0.09375 0.21875,0.09375 0.109375,0 0.140625,0 0.265625,0.015625 C 2.234375,-4.453125 2.25,-4.4375 2.25,-4.375 c 0,0.046875 -0.015625,0.125 -0.03125,0.15625 L 1.3125,-0.578125 C 1.234375,-0.296875 1.234375,-0.25 0.6875,-0.25 c -0.125,0 -0.203125,0 -0.203125,0.15625 C 0.484375,0 0.5625,0 0.6875,0 H 4.625 c 0.171875,0 0.1875,0 0.234375,-0.125 z m 0,0"
               id="path38" />
          </g>
          <g
             id="g39">
            <path
               d="m 5.78125,-2.96875 c 0,-1.09375 -0.796875,-1.9375 -2.03125,-1.9375 -1.65625,0 -3.265625,1.5625 -3.265625,3.140625 0,1.125 0.828125,1.90625 2.03125,1.90625 1.65625,0 3.265625,-1.515625 3.265625,-3.109375 z m -3.21875,2.875 c -0.734375,0 -1.359375,-0.5 -1.359375,-1.53125 0,-0.359375 0.09375,-1.34375 0.734375,-2.140625 0.46875,-0.5625 1.140625,-0.90625 1.765625,-0.90625 0.71875,0 1.390625,0.453125 1.390625,1.46875 0,0.5 -0.21875,1.53125 -0.859375,2.265625 C 3.75,-0.375 3.109375,-0.09375 2.5625,-0.09375 Z m 0,0"
               id="path39" />
          </g>
          <g
             id="g40">
            <path
               d="m 2.375,-2.15625 h 1.265625 c 1.171875,0 2.171875,-0.75 2.171875,-1.515625 0,-0.59375 -0.578125,-1.09375 -1.53125,-1.09375 h -2.4375 c -0.140625,0 -0.21875,0 -0.21875,0.15625 0,0.09375 0.078125,0.09375 0.234375,0.09375 0.109375,0 0.140625,0 0.265625,0.015625 0.140625,0.015625 0.140625,0.03125 0.140625,0.109375 0,0 0,0.046875 -0.015625,0.140625 L 1.328125,-0.578125 C 1.25,-0.296875 1.25,-0.25 0.703125,-0.25 0.578125,-0.25 0.5,-0.25 0.5,-0.09375 0.5,-0.09375 0.5,0 0.609375,0 0.8125,0 1.3125,-0.03125 1.515625,-0.03125 1.625,-0.03125 1.875,-0.03125 2,-0.015625 2.125,-0.015625 2.3125,0 2.4375,0 2.484375,0 2.578125,0 2.578125,-0.15625 2.578125,-0.25 2.5,-0.25 2.359375,-0.25 c 0,0 -0.140625,0 -0.265625,-0.015625 C 1.9375,-0.28125 1.9375,-0.296875 1.9375,-0.375 c 0,0 0,-0.046875 0.03125,-0.140625 z m 0.5,-2.109375 c 0.0625,-0.21875 0.0625,-0.25 0.359375,-0.25 h 0.8125 c 0.65625,0 1.046875,0.203125 1.046875,0.703125 0,0.203125 -0.078125,0.765625 -0.421875,1.078125 -0.25,0.21875 -0.65625,0.34375 -1.15625,0.34375 H 2.40625 Z m 0,0"
               id="path40" />
          </g>
        </g>
      </defs>
      <g
         fill="#000000"
         fill-opacity="1"
         id="g43"
         transform="translate(-149.165,-130.359)"
         style="fill:#008000">
        <g
           transform="translate(148.712,134.765)"
           id="g42"
           style="fill:#008000">
          <path
             d="m 1.859375,-2.296875 c 0.296875,0 1.03125,-0.03125 1.53125,-0.234375 0.703125,-0.296875 0.75,-0.890625 0.75,-1.03125 0,-0.4375 -0.375,-0.84375 -1.0625,-0.84375 -1.109375,0 -2.625,0.96875 -2.625,2.71875 0,1.015625 0.59375,1.796875 1.578125,1.796875 1.421875,0 2.25,-1.0625 2.25,-1.171875 0,-0.0625 -0.046875,-0.140625 -0.109375,-0.140625 -0.0625,0 -0.078125,0.03125 -0.140625,0.109375 -0.78125,0.984375 -1.875,0.984375 -1.984375,0.984375 -0.78125,0 -0.875,-0.84375 -0.875,-1.15625 0,-0.125 0.015625,-0.421875 0.15625,-1.03125 z m -0.46875,-0.21875 C 1.78125,-4.03125 2.8125,-4.1875 3.078125,-4.1875 c 0.453125,0 0.734375,0.296875 0.734375,0.625 0,1.046875 -1.59375,1.046875 -2.015625,1.046875 z m 0,0"
             id="path41"
             style="fill:#008000" />
        </g>
      </g>
      <g
         fill="#000000"
         fill-opacity="1"
         id="g45"
         transform="translate(-149.165,-130.359)"
         style="fill:#008000">
        <g
           transform="translate(153.351,136.259)"
           id="g44"
           style="fill:#008000">
          <path
             d="m 5.515625,-1.609375 c 0.046875,-0.09375 0.046875,-0.125 0.046875,-0.125 0,-0.046875 -0.03125,-0.09375 -0.125,-0.09375 -0.015625,0 -0.046875,0 -0.078125,0.015625 0,0.015625 -0.015625,0.03125 -0.09375,0.203125 C 4.8125,-0.59375 4.453125,-0.25 3.3125,-0.25 H 2.125 c -0.203125,0 -0.21875,-0.015625 -0.21875,-0.078125 0,0 0,-0.03125 0.03125,-0.140625 L 2.40625,-2.328125 H 3.1875 c 0.546875,0 0.625,0.078125 0.625,0.3125 0,0.078125 -0.015625,0.203125 -0.046875,0.3125 C 3.75,-1.640625 3.75,-1.625 3.75,-1.609375 c 0,0 0,0.09375 0.125,0.09375 0.09375,0 0.09375,-0.03125 0.125,-0.15625 l 0.390625,-1.53125 c 0.015625,-0.078125 0.015625,-0.09375 0.015625,-0.09375 0,-0.078125 -0.0625,-0.109375 -0.125,-0.109375 -0.09375,0 -0.09375,0.046875 -0.140625,0.1875 C 4,-2.671875 3.796875,-2.578125 3.203125,-2.578125 H 2.46875 L 2.890625,-4.25 c 0.046875,-0.203125 0.0625,-0.234375 0.34375,-0.234375 H 4.375 c 0.921875,0 1.140625,0.1875 1.140625,0.8125 0,0.1875 -0.03125,0.390625 -0.03125,0.421875 0,0.0625 0.03125,0.125 0.125,0.125 0.109375,0 0.109375,-0.0625 0.125,-0.1875 l 0.125,-1.203125 C 5.875,-4.734375 5.828125,-4.734375 5.65625,-4.734375 H 1.828125 c -0.140625,0 -0.21875,0 -0.21875,0.15625 0,0.09375 0.0625,0.09375 0.21875,0.09375 0.109375,0 0.140625,0 0.265625,0.015625 C 2.234375,-4.453125 2.25,-4.4375 2.25,-4.375 c 0,0.046875 -0.015625,0.125 -0.03125,0.15625 L 1.3125,-0.578125 C 1.234375,-0.296875 1.234375,-0.25 0.6875,-0.25 c -0.125,0 -0.203125,0 -0.203125,0.15625 C 0.484375,0 0.5625,0 0.6875,0 H 4.625 c 0.171875,0 0.1875,0 0.234375,-0.125 z m 0,0"
             id="path43"
             style="fill:#008000" />
        </g>
      </g>
      <g
         fill="#000000"
         fill-opacity="1"
         id="g47"
         transform="translate(-149.165,-130.359)"
         style="fill:#008000">
        <g
           transform="translate(159.583,136.259)"
           id="g46"
           style="fill:#008000">
          <path
             d="m 5.78125,-2.96875 c 0,-1.09375 -0.796875,-1.9375 -2.03125,-1.9375 -1.65625,0 -3.265625,1.5625 -3.265625,3.140625 0,1.125 0.828125,1.90625 2.03125,1.90625 1.65625,0 3.265625,-1.515625 3.265625,-3.109375 z m -3.21875,2.875 c -0.734375,0 -1.359375,-0.5 -1.359375,-1.53125 0,-0.359375 0.09375,-1.34375 0.734375,-2.140625 0.46875,-0.5625 1.140625,-0.90625 1.765625,-0.90625 0.71875,0 1.390625,0.453125 1.390625,1.46875 0,0.5 -0.21875,1.53125 -0.859375,2.265625 C 3.75,-0.375 3.109375,-0.09375 2.5625,-0.09375 Z m 0,0"
             id="path45"
             style="fill:#008000" />
        </g>
      </g>
      <g
         fill="#000000"
         fill-opacity="1"
         id="g49"
         transform="translate(-149.165,-130.359)"
         style="fill:#008000">
        <g
           transform="translate(165.859,136.259)"
           id="g48"
           style="fill:#008000">
          <path
             d="m 2.375,-2.15625 h 1.265625 c 1.171875,0 2.171875,-0.75 2.171875,-1.515625 0,-0.59375 -0.578125,-1.09375 -1.53125,-1.09375 h -2.4375 c -0.140625,0 -0.21875,0 -0.21875,0.15625 0,0.09375 0.078125,0.09375 0.234375,0.09375 0.109375,0 0.140625,0 0.265625,0.015625 0.140625,0.015625 0.140625,0.03125 0.140625,0.109375 0,0 0,0.046875 -0.015625,0.140625 L 1.328125,-0.578125 C 1.25,-0.296875 1.25,-0.25 0.703125,-0.25 0.578125,-0.25 0.5,-0.25 0.5,-0.09375 0.5,-0.09375 0.5,0 0.609375,0 0.8125,0 1.3125,-0.03125 1.515625,-0.03125 1.625,-0.03125 1.875,-0.03125 2,-0.015625 2.125,-0.015625 2.3125,0 2.4375,0 2.484375,0 2.578125,0 2.578125,-0.15625 2.578125,-0.25 2.5,-0.25 2.359375,-0.25 c 0,0 -0.140625,0 -0.265625,-0.015625 C 1.9375,-0.28125 1.9375,-0.296875 1.9375,-0.375 c 0,0 0,-0.046875 0.03125,-0.140625 z m 0.5,-2.109375 c 0.0625,-0.21875 0.0625,-0.25 0.359375,-0.25 h 0.8125 c 0.65625,0 1.046875,0.203125 1.046875,0.703125 0,0.203125 -0.078125,0.765625 -0.421875,1.078125 -0.25,0.21875 -0.65625,0.34375 -1.15625,0.34375 H 2.40625 Z m 0,0"
             id="path47"
             style="fill:#008000" />
        </g>
      </g>
    </g>
    <ellipse
       style="fill:#008000;stroke:#008000;stroke-width:0.365001;stroke-linecap:round;stroke-miterlimit:4.1;stroke-dasharray:none;stroke-dashoffset:0"
       id="ellipse50"
       cx="1.4117237"
       cy="29.775663"
       rx="0.37590486"
       ry="0.39206037" />
    <text
       xml:space="preserve"
       style="font-size:3.175px;line-height:0.95;font-family:'Times New Roman';-inkscape-font-specification:'Times New Roman, ';text-align:center;text-anchor:middle;stroke-width:0.264583;fill:#008000"
       x="40.59507"
       y="30.235512"
       id="text50"><tspan
         sodipodi:role="line"
         id="tspan50"
         style="font-size:3.175px;stroke-width:0.264583;fill:#008000"
         x="40.59507"
         y="30.235512">Method B</tspan></text>
    <text
       xml:space="preserve"
       style="font-size:3.175px;line-height:0.95;font-family:'Times New Roman';-inkscape-font-specification:'Times New Roman, ';text-align:center;text-anchor:middle;fill:#000080;stroke-width:0.264583"
       x="30.299654"
       y="43.682301"
       id="text51"><tspan
         sodipodi:role="line"
         id="tspan51"
         style="font-size:3.175px;fill:#000080;stroke-width:0.264583"
         x="30.299654"
         y="43.682301">Method A</tspan></text>
    <path
       style="fill:none;stroke:#000000;stroke-width:0.264583px;stroke-linecap:butt;stroke-linejoin:miter;stroke-opacity:1"
       d="m 36.658179,30.700432 -2.230816,1.940967"
       id="path51" />
    <path
       style="fill:none;stroke:#000000;stroke-width:0.264583px;stroke-linecap:butt;stroke-linejoin:miter;stroke-opacity:1"
       d="M 36.316901,42.601745 37.92911,41.562009"
       id="path52" />
  </g>
</svg>
