<?xml version="1.0" encoding="UTF-8" standalone="no"?>
<svg
   height="2.2070999in"
   version="1.1"
   viewBox="0 0 210.74334 158.91119"
   width="2.9269907in"
   id="svg73"
   sodipodi:docname="u_consol.svg"
   inkscape:version="1.3.2 (091e20e, 2023-11-25, custom)"
   xmlns:inkscape="http://www.inkscape.org/namespaces/inkscape"
   xmlns:sodipodi="http://sodipodi.sourceforge.net/DTD/sodipodi-0.dtd"
   xmlns:xlink="http://www.w3.org/1999/xlink"
   xmlns="http://www.w3.org/2000/svg"
   xmlns:svg="http://www.w3.org/2000/svg"
   xmlns:rdf="http://www.w3.org/1999/02/22-rdf-syntax-ns#"
   xmlns:cc="http://creativecommons.org/ns#"
   xmlns:dc="http://purl.org/dc/elements/1.1/"
   xmlns:ns4="http://www.iki.fi/pav/software/textext/">
  <sodipodi:namedview
     id="namedview73"
     pagecolor="#ffffff"
     bordercolor="#111111"
     borderopacity="1"
     inkscape:showpageshadow="0"
     inkscape:pageopacity="0"
     inkscape:pagecheckerboard="1"
     inkscape:deskcolor="#d1d1d1"
     inkscape:document-units="pt"
     inkscape:zoom="1.6051078"
     inkscape:cx="380.65979"
     inkscape:cy="77.876389"
     inkscape:window-width="2400"
     inkscape:window-height="1280"
     inkscape:window-x="2391"
     inkscape:window-y="-9"
     inkscape:window-maximized="1"
     inkscape:current-layer="svg73" />
  <metadata
     id="metadata1">
    <rdf:RDF>
      <cc:Work>
        <dc:type
           rdf:resource="http://purl.org/dc/dcmitype/StillImage" />
        <dc:date>2024-09-04T05:01:11.327164</dc:date>
        <dc:format>image/svg+xml</dc:format>
        <dc:creator>
          <cc:Agent>
            <dc:title>Matplotlib v3.4.3, https://matplotlib.org/</dc:title>
          </cc:Agent>
        </dc:creator>
      </cc:Work>
    </rdf:RDF>
  </metadata>
  <defs
     id="defs1">
    <style
       type="text/css"
       id="style1">*{stroke-linecap:butt;stroke-linejoin:round;}</style>
    <defs
       id="id-74847d95-c50c-4641-a484-183bbf8b7938"
       style="fill:#0000ff;stroke-width:0">
      <g
         id="id-e27d594d-1626-4590-b649-09c14a244f35"
         style="fill:#0000ff;stroke-width:0">
        <g
           id="id-5352fb54-2ac6-4d78-89ca-3a58291febd3"
           style="fill:#0000ff;stroke-width:0">
          <path
             d="m 4.25,-6.046875 c 0.078125,-0.28125 0.109375,-0.34375 0.234375,-0.375 0.09375,-0.015625 0.421875,-0.015625 0.625,-0.015625 1.015625,0 1.453125,0.03125 1.453125,0.8125 0,0.15625 -0.03125,0.546875 -0.078125,0.796875 0,0.046875 -0.03125,0.15625 -0.03125,0.1875 0,0.0625 0.03125,0.140625 0.125,0.140625 0.109375,0 0.125,-0.078125 0.15625,-0.234375 L 7,-6.46875 C 7.015625,-6.515625 7.015625,-6.609375 7.015625,-6.640625 7.015625,-6.75 6.921875,-6.75 6.75,-6.75 H 1.21875 c -0.234375,0 -0.25,0.015625 -0.328125,0.203125 l -0.59375,1.75 c 0,0.015625 -0.0625,0.15625 -0.0625,0.1875 0,0.046875 0.0625,0.109375 0.125,0.109375 0.09375,0 0.109375,-0.0625 0.171875,-0.21875 C 1.0625,-6.265625 1.328125,-6.4375 2.796875,-6.4375 H 3.1875 c 0.28125,0 0.28125,0.03125 0.28125,0.125 0,0.046875 -0.03125,0.171875 -0.046875,0.203125 L 2.09375,-0.78125 C 2,-0.421875 1.96875,-0.3125 0.90625,-0.3125 c -0.359375,0 -0.421875,0 -0.421875,0.1875 C 0.484375,0 0.59375,0 0.65625,0 c 0.265625,0 0.546875,-0.015625 0.8125,-0.015625 0.28125,0 0.578125,-0.015625 0.859375,-0.015625 0.28125,0 0.546875,0.015625 0.828125,0.015625 C 3.4375,-0.015625 3.734375,0 4.015625,0 c 0.09375,0 0.21875,0 0.21875,-0.203125 0,-0.109375 -0.078125,-0.109375 -0.34375,-0.109375 -0.234375,0 -0.375,0 -0.625,-0.015625 -0.296875,-0.03125 -0.375,-0.0625 -0.375,-0.21875 0,-0.015625 0,-0.0625 0.046875,-0.203125 z m 0,0"
             id="id-d4ec9fb5-a278-4c21-8f31-430d4fe8579d"
             style="fill:#0000ff;stroke-width:0" />
        </g>
        <g
           id="id-56524f99-ea08-4b2d-81c0-e6ee9e1331a8"
           style="fill:#0000ff;stroke-width:0">
          <path
             d="m 3.71875,-2.53125 c 0,-0.546875 -0.328125,-0.546875 -0.34375,-0.546875 -0.1875,0 -0.375,0.1875 -0.375,0.375 0,0.109375 0.0625,0.171875 0.109375,0.203125 0.125,0.109375 0.265625,0.28125 0.265625,0.5625 0,0.3125 -0.46875,1.8125 -1.296875,1.8125 -0.5625,0 -0.5625,-0.5 -0.5625,-0.625 0,-0.3125 0.125,-0.703125 0.390625,-1.359375 C 1.953125,-2.25 2,-2.359375 2,-2.46875 2,-2.84375 1.6875,-3.078125 1.34375,-3.078125 0.640625,-3.078125 0.328125,-2.125 0.328125,-2 c 0,0.078125 0.09375,0.078125 0.125,0.078125 0.09375,0 0.09375,-0.03125 0.125,-0.109375 C 0.734375,-2.59375 1.03125,-2.875 1.3125,-2.875 c 0.125,0 0.171875,0.078125 0.171875,0.234375 0,0.171875 -0.046875,0.3125 -0.125,0.46875 -0.296875,0.78125 -0.375,1.078125 -0.375,1.328125 0,0.6875 0.546875,0.90625 1.078125,0.90625 1.171875,0 1.65625,-2.015625 1.65625,-2.59375 z m 0,0"
             id="id-839d70fb-c332-4b9e-90ad-fdcacb193cf9"
             style="fill:#0000ff;stroke-width:0" />
        </g>
        <g
           id="id-4e6c8461-5103-4d70-9baa-3ff8a01c9421"
           style="fill:#0000ff;stroke-width:0">
          <path
             d="m 6.84375,-3.265625 c 0.15625,0 0.34375,0 0.34375,-0.1875 C 7.1875,-3.65625 7,-3.65625 6.859375,-3.65625 h -5.96875 c -0.140625,0 -0.328125,0 -0.328125,0.203125 0,0.1875 0.1875,0.1875 0.328125,0.1875 z m 0.015625,1.9375 c 0.140625,0 0.328125,0 0.328125,-0.203125 0,-0.1875 -0.1875,-0.1875 -0.34375,-0.1875 H 0.890625 c -0.140625,0 -0.328125,0 -0.328125,0.1875 0,0.203125 0.1875,0.203125 0.328125,0.203125 z m 0,0"
             id="id-75ef5f7c-44e7-4966-8dad-d933e9d287e2"
             style="fill:#0000ff;stroke-width:0" />
        </g>
        <g
           id="id-739ae4c2-29a0-4459-8aec-0c9bc57362af"
           style="fill:#0000ff;stroke-width:0">
          <path
             d="M 5.0625,-2.703125 C 4.53125,-3.375 4.40625,-3.53125 4.09375,-3.78125 c -0.5625,-0.453125 -1.109375,-0.625 -1.625,-0.625 -1.15625,0 -1.921875,1.09375 -1.921875,2.265625 0,1.140625 0.734375,2.25 1.890625,2.25 1.140625,0 1.96875,-0.90625 2.453125,-1.703125 0.546875,0.671875 0.65625,0.828125 0.96875,1.078125 0.5625,0.453125 1.125,0.625 1.625,0.625 1.171875,0 1.921875,-1.09375 1.921875,-2.265625 0,-1.140625 -0.734375,-2.25 -1.875,-2.25 -1.15625,0 -1.984375,0.90625 -2.46875,1.703125 z m 0.265625,0.34375 c 0.40625,-0.71875 1.140625,-1.734375 2.265625,-1.734375 1.0625,0 1.59375,1.046875 1.59375,1.9375 0,0.984375 -0.671875,1.78125 -1.546875,1.78125 C 7.0625,-0.375 6.625,-0.78125 6.40625,-1 6.15625,-1.265625 5.9375,-1.578125 5.328125,-2.359375 Z m -0.6875,0.421875 c -0.40625,0.71875 -1.15625,1.734375 -2.28125,1.734375 -1.046875,0 -1.59375,-1.046875 -1.59375,-1.9375 0,-0.984375 0.671875,-1.78125 1.546875,-1.78125 0.578125,0 1.03125,0.40625 1.234375,0.625 0.25,0.265625 0.484375,0.578125 1.09375,1.359375 z m 0,0"
             id="id-d613b39e-0044-497c-9da9-497d023f13d6"
             style="fill:#0000ff;stroke-width:0" />
        </g>
      </g>
    </defs>
  </defs>
  <g
     id="g73"
     transform="translate(-7.823902,-10.888817)">
    <g
       id="patch_2"
       transform="translate(10.807232,-9.4471831)">
      <path
         d="M 28.8,151.2 H 207.36 V 20.736 H 28.8 Z"
         style="fill:#ffffff"
         id="path2" />
    </g>
    <g
       id="matplotlib.axis_1"
       transform="translate(10.807232,-9.4471831)">
      <g
         id="xtick_1">
        <g
           id="line2d_1">
          <path
             clip-path="url(#pa84b2d7912)"
             d="M 36.916364,151.2 V 20.736"
             style="fill:none;stroke:#b0b0b0;stroke-width:0.5;stroke-linecap:square"
             id="path3" />
        </g>
        <g
           id="line2d_2">
          <defs
             id="defs3">
            <path
               d="M 0,0 V 3.5"
               id="ma3f4200e88"
               style="stroke:#000000;stroke-width:0.8" />
          </defs>
          <g
             id="g3">
            <use
               style="stroke:#000000;stroke-width:0.8"
               x="36.916363"
               xlink:href="#ma3f4200e88"
               y="151.2"
               id="use3" />
          </g>
        </g>
        <g
           id="text_1">
          <!-- $\mathdefault{0.0}$ -->
          <g
             transform="matrix(0.08,0,0,-0.08,31.506019,163.7348)"
             id="g6">
            <defs
               id="defs4">
              <path
                 d="m 2688,2038 c 0,392 -6,1061 -275,1575 -237,450 -615,611 -947,611 -308,0 -698,-142 -941,-604 C 269,3137 243,2539 243,2038 c 0,-367 7,-926 205,-1415 275,-662 768,-751 1018,-751 294,0 742,121 1004,732 192,444 218,964 218,1434 z M 1466,-26 c -410,0 -653,354 -743,842 -70,380 -70,933 -70,1293 0,495 0,906 83,1298 122,547 480,714 730,714 262,0 601,-174 723,-701 83,-366 89,-797 89,-1311 0,-418 0,-933 -76,-1312 C 2067,96 1690,-26 1466,-26 Z"
                 id="CMR17-30"
                 transform="scale(0.015625)" />
              <path
                 d="M 1178,307 C 1178,492 1024,620 870,620 685,620 557,467 557,313 557,128 710,0 864,0 c 186,0 314,153 314,307 z"
                 id="CMMI12-3a"
                 transform="scale(0.015625)" />
            </defs>
            <use
               transform="scale(0.996264)"
               xlink:href="#CMR17-30"
               id="use4" />
            <use
               transform="matrix(0.996264,0,0,0.996264,45.690477,0)"
               xlink:href="#CMMI12-3a"
               id="use5" />
            <use
               transform="matrix(0.996264,0,0,0.996264,72.787654,0)"
               xlink:href="#CMR17-30"
               id="use6" />
          </g>
        </g>
      </g>
      <g
         id="xtick_2">
        <g
           id="line2d_3">
          <path
             clip-path="url(#pa84b2d7912)"
             d="M 69.484347,151.2 V 20.736"
             style="fill:none;stroke:#b0b0b0;stroke-width:0.5;stroke-linecap:square"
             id="path6" />
        </g>
        <g
           id="line2d_4">
          <g
             id="g7">
            <use
               style="stroke:#000000;stroke-width:0.8"
               x="69.484344"
               xlink:href="#ma3f4200e88"
               y="151.2"
               id="use7" />
          </g>
        </g>
        <g
           id="text_2">
          <!-- $\mathdefault{0.2}$ -->
          <g
             transform="matrix(0.08,0,0,-0.08,64.074003,163.7348)"
             id="g10">
            <defs
               id="defs7">
              <path
                 d="M 2669,990 H 2554 C 2490,537 2438,460 2413,422 2381,371 1920,371 1830,371 H 602 c 230,249 678,702 1222,1225 390,370 845,804 845,1437 0,755 -602,1191 -1274,1191 -704,0 -1133,-621 -1133,-1197 0,-250 186,-282 263,-282 64,0 256,38 256,262 0,199 -167,257 -256,257 -39,0 -77,-7 -103,-20 122,544 493,813 884,813 556,0 921,-441 921,-1024 0,-556 -326,-1035 -691,-1450 L 262,147 V 0 h 2253 z"
                 id="CMR17-32"
                 transform="scale(0.015625)" />
            </defs>
            <use
               transform="scale(0.996264)"
               xlink:href="#CMR17-30"
               id="use8" />
            <use
               transform="matrix(0.996264,0,0,0.996264,45.690477,0)"
               xlink:href="#CMMI12-3a"
               id="use9" />
            <use
               transform="matrix(0.996264,0,0,0.996264,72.787654,0)"
               xlink:href="#CMR17-32"
               id="use10" />
          </g>
        </g>
      </g>
      <g
         id="xtick_3">
        <g
           id="line2d_5">
          <path
             clip-path="url(#pa84b2d7912)"
             d="M 102.05233,151.2 V 20.736"
             style="fill:none;stroke:#b0b0b0;stroke-width:0.5;stroke-linecap:square"
             id="path10" />
        </g>
        <g
           id="line2d_6">
          <g
             id="g11">
            <use
               style="stroke:#000000;stroke-width:0.8"
               x="102.05233"
               xlink:href="#ma3f4200e88"
               y="151.2"
               id="use11" />
          </g>
        </g>
        <g
           id="text_3">
          <!-- $\mathdefault{0.4}$ -->
          <g
             transform="matrix(0.08,0,0,-0.08,96.641986,163.7348)"
             id="g14">
            <defs
               id="defs11">
              <path
                 d="m 2150,4147 c 0,134 -6,141 -121,141 L 128,1254 V 1088 H 1779 V 460 c 0,-230 -13,-294 -461,-294 H 1197 V 0 c 205,12 550,12 768,12 217,0 563,0 768,-12 v 166 h -122 c -448,0 -461,64 -461,294 v 628 h 653 v 166 H 2150 Z M 1798,3723 V 1254 H 256 Z"
                 id="CMR17-34"
                 transform="scale(0.015625)" />
            </defs>
            <use
               transform="scale(0.996264)"
               xlink:href="#CMR17-30"
               id="use12" />
            <use
               transform="matrix(0.996264,0,0,0.996264,45.690477,0)"
               xlink:href="#CMMI12-3a"
               id="use13" />
            <use
               transform="matrix(0.996264,0,0,0.996264,72.787654,0)"
               xlink:href="#CMR17-34"
               id="use14" />
          </g>
        </g>
      </g>
      <g
         id="xtick_4">
        <g
           id="line2d_7">
          <path
             clip-path="url(#pa84b2d7912)"
             d="M 134.62031,151.2 V 20.736"
             style="fill:none;stroke:#b0b0b0;stroke-width:0.5;stroke-linecap:square"
             id="path14" />
        </g>
        <g
           id="line2d_8">
          <g
             id="g15">
            <use
               style="stroke:#000000;stroke-width:0.8"
               x="134.62032"
               xlink:href="#ma3f4200e88"
               y="151.2"
               id="use15" />
          </g>
        </g>
        <g
           id="text_4">
          <!-- $\mathdefault{0.6}$ -->
          <g
             transform="matrix(0.08,0,0,-0.08,129.20997,163.7348)"
             id="g18">
            <defs
               id="defs15">
              <path
                 d="m 678,2198 c 0,1514 717,1878 1133,1878 135,0 461,-27 589,-294 -102,0 -294,0 -294,-224 0,-173 140,-230 230,-230 58,0 230,25 230,243 0,416 -320,653 -761,653 -762,0 -1562,-813 -1562,-2213 0,-1754 723,-2139 1235,-2139 621,0 1210,559 1210,1423 0,806 -518,1393 -1171,1393 -391,0 -679,-258 -839,-709 z M 1478,25 c -787,0 -787,1187 -787,1425 0,464 218,1135 813,1135 109,0 422,0 634,-445 115,-251 115,-516 115,-838 0,-348 0,-606 -135,-864 C 1978,173 1773,25 1478,25 Z"
                 id="CMR17-36"
                 transform="scale(0.015625)" />
            </defs>
            <use
               transform="scale(0.996264)"
               xlink:href="#CMR17-30"
               id="use16" />
            <use
               transform="matrix(0.996264,0,0,0.996264,45.690477,0)"
               xlink:href="#CMMI12-3a"
               id="use17" />
            <use
               transform="matrix(0.996264,0,0,0.996264,72.787654,0)"
               xlink:href="#CMR17-36"
               id="use18" />
          </g>
        </g>
      </g>
      <g
         id="xtick_5">
        <g
           id="line2d_9">
          <path
             clip-path="url(#pa84b2d7912)"
             d="M 167.1883,151.2 V 20.736"
             style="fill:none;stroke:#b0b0b0;stroke-width:0.5;stroke-linecap:square"
             id="path18" />
        </g>
        <g
           id="line2d_10">
          <g
             id="g19">
            <use
               style="stroke:#000000;stroke-width:0.8"
               x="167.18829"
               xlink:href="#ma3f4200e88"
               y="151.2"
               id="use19" />
          </g>
        </g>
        <g
           id="text_5">
          <!-- $\mathdefault{0.8}$ -->
          <g
             transform="matrix(0.08,0,0,-0.08,161.77795,163.7348)"
             id="g22">
            <defs
               id="defs19">
              <path
                 d="m 1741,2289 c 403,205 813,514 813,1009 0,586 -564,926 -1082,926 -582,0 -1094,-424 -1094,-1009 0,-161 38,-438 288,-682 64,-64 332,-257 505,-379 C 883,2006 211,1652 211,945 211,282 838,-128 1459,-128 c 685,0 1261,494 1261,1150 0,585 -390,855 -646,1029 z m -839,566 c -51,32 -307,231 -307,533 0,393 403,688 864,688 506,0 877,-360 877,-778 0,-598 -666,-939 -698,-939 -6,0 -12,0 -64,39 z M 2080,1536 c 96,-70 403,-283 403,-675 C 2483,385 2010,25 1472,25 890,25 448,443 448,951 c 0,508 390,933 832,1132 z"
                 id="CMR17-38"
                 transform="scale(0.015625)" />
            </defs>
            <use
               transform="scale(0.996264)"
               xlink:href="#CMR17-30"
               id="use20" />
            <use
               transform="matrix(0.996264,0,0,0.996264,45.690477,0)"
               xlink:href="#CMMI12-3a"
               id="use21" />
            <use
               transform="matrix(0.996264,0,0,0.996264,72.787654,0)"
               xlink:href="#CMR17-38"
               id="use22" />
          </g>
        </g>
      </g>
      <g
         id="xtick_6">
        <g
           id="line2d_11">
          <path
             clip-path="url(#pa84b2d7912)"
             d="M 199.75628,151.2 V 20.736"
             style="fill:none;stroke:#b0b0b0;stroke-width:0.5;stroke-linecap:square"
             id="path22" />
        </g>
        <g
           id="line2d_12">
          <g
             id="g23">
            <use
               style="stroke:#000000;stroke-width:0.8"
               x="199.75629"
               xlink:href="#ma3f4200e88"
               y="151.2"
               id="use23" />
          </g>
        </g>
        <g
           id="text_6">
          <!-- $\mathdefault{1.0}$ -->
          <g
             transform="matrix(0.08,0,0,-0.08,194.34594,163.7348)"
             id="g26">
            <defs
               id="defs23">
              <path
                 d="m 1702,4083 c 0,134 -6,141 -96,141 -249,-297 -627,-391 -985,-404 -19,0 -51,0 -58,-12 -6,-13 -6,-26 -6,-160 198,0 531,38 787,191 V 467 C 1344,243 1331,166 781,166 H 589 V 0 c 307,6 627,12 934,12 307,0 627,-6 935,-12 v 166 h -192 c -551,0 -564,70 -564,301 z"
                 id="CMR17-31"
                 transform="scale(0.015625)" />
            </defs>
            <use
               transform="scale(0.996264)"
               xlink:href="#CMR17-31"
               id="use24" />
            <use
               transform="matrix(0.996264,0,0,0.996264,45.690477,0)"
               xlink:href="#CMMI12-3a"
               id="use25" />
            <use
               transform="matrix(0.996264,0,0,0.996264,72.787654,0)"
               xlink:href="#CMR17-30"
               id="use26" />
          </g>
        </g>
      </g>
      <g
         id="text_7">
        <!-- $u/q$ [-] -->
        <g
           transform="matrix(0.1,0,0,-0.1,104.24701,176.75653)"
           id="g32">
          <defs
             id="defs26">
            <path
               d="m 2182,370 c 84,-358 391,-434 544,-434 205,0 359,134 461,351 109,230 192,606 192,626 0,31 -25,57 -64,57 -57,0 -64,-32 -89,-128 C 3110,402 2995,64 2739,64 c -192,0 -192,210 -192,293 0,147 19,211 83,479 45,172 90,345 128,523 l 263,1041 c 45,160 45,172 45,191 0,96 -77,161 -173,161 -186,0 -231,-161 -269,-320 -64,-249 -410,-1622 -454,-1845 -7,0 -256,-523 -724,-523 -332,0 -396,287 -396,523 0,364 179,875 345,1303 77,204 109,287 109,415 0,274 -198,511 -506,511 -588,0 -825,-926 -825,-978 0,-25 25,-57 70,-57 58,0 64,26 90,115 153,549 403,791 646,791 64,0 167,-6 167,-210 0,-166 -71,-351 -167,-594 C 698,1123 666,881 666,689 c 0,-651 492,-753 755,-753 409,0 633,281 761,434 z"
               id="CMMI12-75"
               transform="scale(0.015625)" />
            <path
               d="m 2746,4563 c 0,6 38,102 38,115 0,77 -64,122 -115,122 -32,0 -90,0 -141,-141 L 384,-1364 c 0,-6 -38,-102 -38,-115 0,-77 64,-121 115,-121 38,0 96,6 141,140 z"
               id="CMMI12-3d"
               transform="scale(0.015625)" />
            <path
               d="m 2822,2751 c 0,32 -25,58 -57,58 -51,0 -301,-230 -423,-453 -115,287 -313,460 -588,460 C 1030,2816 250,1883 250,938 250,306 621,-64 1056,-64 c 339,0 621,255 755,402 l 7,-6 -244,-945 -57,-225 c -58,-187 -154,-187 -455,-193 -70,0 -134,0 -134,-121 0,-45 38,-64 83,-64 90,0 205,12 295,12 h 652 c 96,0 205,-12 301,-12 39,0 115,0 115,121 0,64 -51,64 -147,64 -301,0 -320,44 -320,94 0,31 7,37 26,118 z M 1920,759 C 1888,651 1888,638 1798,517 1658,338 1376,64 1075,64 813,64 666,300 666,676 c 0,352 198,1067 320,1335 217,447 518,676 768,676 422,0 505,-523 505,-574 0,-6 -19,-89 -25,-102 z"
               id="CMMI12-71"
               transform="scale(0.015625)" />
            <path
               d="m 1504,-1600 v 224 H 902 v 5951 h 602 v 225 H 678 v -6400 z"
               id="CMR17-5b"
               transform="scale(0.015625)" />
            <path
               d="m 1632,1254 v 282 H 26 v -282 z"
               id="CMR17-2d"
               transform="scale(0.015625)" />
            <path
               d="M 915,4800 H 90 V 4575 H 691 V -1376 H 90 v -224 h 825 z"
               id="CMR17-5d"
               transform="scale(0.015625)" />
          </defs>
          <use
             transform="scale(0.996264)"
             xlink:href="#CMMI12-75"
             id="use27" />
          <use
             transform="matrix(0.996264,0,0,0.996264,55.52033,0)"
             xlink:href="#CMMI12-3d"
             id="use28" />
          <use
             transform="matrix(0.996264,0,0,0.996264,104.29525,0)"
             xlink:href="#CMMI12-71"
             id="use29" />
          <use
             transform="matrix(0.996264,0,0,0.996264,181.19754,0)"
             xlink:href="#CMR17-5b"
             id="use30" />
          <use
             transform="matrix(0.996264,0,0,0.996264,206.0686,0)"
             xlink:href="#CMR17-2d"
             id="use31" />
          <use
             transform="matrix(0.996264,0,0,0.996264,236.14456,0)"
             xlink:href="#CMR17-5d"
             id="use32" />
        </g>
      </g>
    </g>
    <g
       id="matplotlib.axis_2"
       transform="translate(10.807232,-9.4471831)">
      <g
         id="ytick_1">
        <g
           id="line2d_13">
          <path
             clip-path="url(#pa84b2d7912)"
             d="M 28.8,145.26982 H 207.36"
             style="fill:none;stroke:#b0b0b0;stroke-width:0.5;stroke-linecap:square"
             id="path32" />
        </g>
        <g
           id="line2d_14">
          <defs
             id="defs32">
            <path
               d="M 0,0 H -3.5"
               id="m8264d483b0"
               style="stroke:#000000;stroke-width:0.8" />
          </defs>
          <g
             id="g33">
            <use
               style="stroke:#000000;stroke-width:0.8"
               x="28.799999"
               xlink:href="#m8264d483b0"
               y="145.26982"
               id="use33" />
          </g>
        </g>
        <g
           id="text_8">
          <!-- $\mathdefault{0.0}$ -->
          <g
             transform="matrix(0.08,0,0,-0.08,10.97931,148.03722)"
             id="g36">
            <use
               transform="scale(0.996264)"
               xlink:href="#CMR17-30"
               id="use34" />
            <use
               transform="matrix(0.996264,0,0,0.996264,45.690477,0)"
               xlink:href="#CMMI12-3a"
               id="use35" />
            <use
               transform="matrix(0.996264,0,0,0.996264,72.787654,0)"
               xlink:href="#CMR17-30"
               id="use36" />
          </g>
        </g>
      </g>
      <g
         id="ytick_2">
        <g
           id="line2d_15">
          <path
             clip-path="url(#pa84b2d7912)"
             d="M 28.8,115.61891 H 207.36"
             style="fill:none;stroke:#b0b0b0;stroke-width:0.5;stroke-linecap:square"
             id="path36" />
        </g>
        <g
           id="line2d_16">
          <g
             id="g37">
            <use
               style="stroke:#000000;stroke-width:0.8"
               x="28.799999"
               xlink:href="#m8264d483b0"
               y="115.61891"
               id="use37" />
          </g>
        </g>
        <g
           id="text_9">
          <!-- $\mathdefault{0.5}$ -->
          <g
             transform="matrix(0.08,0,0,-0.08,10.97931,118.38631)"
             id="g40">
            <defs
               id="defs37">
              <path
                 d="m 730,3750 c 64,-26 326,-109 595,-109 595,0 921,320 1107,499 0,51 0,84 -38,84 -7,0 -20,0 -71,-26 -224,-96 -486,-166 -806,-166 -192,0 -480,23 -794,159 -70,33 -83,33 -89,33 -32,0 -39,-7 -39,-134 V 2231 c 0,-118 0,-151 64,-151 32,0 45,13 77,59 205,296 486,421 806,421 224,0 704,-145 704,-1267 0,-206 0,-577 -192,-871 C 1894,159 1645,25 1370,25 947,25 518,319 403,812 c 26,-6 77,-19 103,-19 83,0 243,45 243,243 0,173 -122,244 -243,244 -148,0 -244,-90 -244,-269 0,-557 442,-1139 1120,-1139 660,0 1287,569 1287,1395 0,787 -499,1395 -1120,1395 -327,0 -602,-122 -819,-358 z"
                 id="CMR17-35"
                 transform="scale(0.015625)" />
            </defs>
            <use
               transform="scale(0.996264)"
               xlink:href="#CMR17-30"
               id="use38" />
            <use
               transform="matrix(0.996264,0,0,0.996264,45.690477,0)"
               xlink:href="#CMMI12-3a"
               id="use39" />
            <use
               transform="matrix(0.996264,0,0,0.996264,72.787654,0)"
               xlink:href="#CMR17-35"
               id="use40" />
          </g>
        </g>
      </g>
      <g
         id="ytick_3">
        <g
           id="line2d_17">
          <path
             clip-path="url(#pa84b2d7912)"
             d="M 28.8,85.968 H 207.36"
             style="fill:none;stroke:#b0b0b0;stroke-width:0.5;stroke-linecap:square"
             id="path40" />
        </g>
        <g
           id="line2d_18">
          <g
             id="g41">
            <use
               style="stroke:#000000;stroke-width:0.8"
               x="28.799999"
               xlink:href="#m8264d483b0"
               y="85.968002"
               id="use41" />
          </g>
        </g>
        <g
           id="text_10">
          <!-- $\mathdefault{1.0}$ -->
          <g
             transform="matrix(0.08,0,0,-0.08,10.97931,88.735401)"
             id="g44">
            <use
               transform="scale(0.996264)"
               xlink:href="#CMR17-31"
               id="use42" />
            <use
               transform="matrix(0.996264,0,0,0.996264,45.690477,0)"
               xlink:href="#CMMI12-3a"
               id="use43" />
            <use
               transform="matrix(0.996264,0,0,0.996264,72.787654,0)"
               xlink:href="#CMR17-30"
               id="use44" />
          </g>
        </g>
      </g>
      <g
         id="ytick_4">
        <g
           id="line2d_19">
          <path
             clip-path="url(#pa84b2d7912)"
             d="M 28.8,56.317091 H 207.36"
             style="fill:none;stroke:#b0b0b0;stroke-width:0.5;stroke-linecap:square"
             id="path44" />
        </g>
        <g
           id="line2d_20">
          <g
             id="g45">
            <use
               style="stroke:#000000;stroke-width:0.8"
               x="28.799999"
               xlink:href="#m8264d483b0"
               y="56.317093"
               id="use45" />
          </g>
        </g>
        <g
           id="text_11">
          <!-- $\mathdefault{1.5}$ -->
          <g
             transform="matrix(0.08,0,0,-0.08,10.97931,59.084492)"
             id="g48">
            <use
               transform="scale(0.996264)"
               xlink:href="#CMR17-31"
               id="use46" />
            <use
               transform="matrix(0.996264,0,0,0.996264,45.690477,0)"
               xlink:href="#CMMI12-3a"
               id="use47" />
            <use
               transform="matrix(0.996264,0,0,0.996264,72.787654,0)"
               xlink:href="#CMR17-35"
               id="use48" />
          </g>
        </g>
      </g>
      <g
         id="ytick_5">
        <g
           id="line2d_21">
          <path
             clip-path="url(#pa84b2d7912)"
             d="M 28.8,26.666182 H 207.36"
             style="fill:none;stroke:#b0b0b0;stroke-width:0.5;stroke-linecap:square"
             id="path48" />
        </g>
        <g
           id="line2d_22">
          <g
             id="g49">
            <use
               style="stroke:#000000;stroke-width:0.8"
               x="28.799999"
               xlink:href="#m8264d483b0"
               y="26.666182"
               id="use49" />
          </g>
        </g>
        <g
           id="text_12">
          <!-- $\mathdefault{2.0}$ -->
          <g
             transform="matrix(0.08,0,0,-0.08,10.97931,29.433583)"
             id="g52">
            <use
               transform="scale(0.996264)"
               xlink:href="#CMR17-32"
               id="use50" />
            <use
               transform="matrix(0.996264,0,0,0.996264,45.690477,0)"
               xlink:href="#CMMI12-3a"
               id="use51" />
            <use
               transform="matrix(0.996264,0,0,0.996264,72.787654,0)"
               xlink:href="#CMR17-30"
               id="use52" />
          </g>
        </g>
      </g>
      <g
         id="text_13">
        <!-- $Z$ [-] -->
        <g
           transform="matrix(0,-0.1,-0.1,0,4.48865,95.813032)"
           id="g56">
          <defs
             id="defs52">
            <path
               d="m 4480,4153 c 38,45 70,83 70,147 0,45 -6,52 -153,52 H 1754 c -148,0 -154,-7 -192,-122 L 1210,3083 c -20,-64 -20,-76 -20,-89 0,-26 20,-64 64,-64 52,0 64,26 90,109 237,687 550,1127 1562,1127 H 3955 L 448,217 C 390,147 365,121 365,51 365,0 397,0 518,0 h 2733 c 147,0 154,6 192,121 l 448,1408 c 7,19 19,64 19,89 0,32 -25,64 -64,64 -51,0 -57,-6 -108,-166 C 3469,695 3187,198 2074,198 H 966 Z"
               id="CMMI12-5a"
               transform="scale(0.015625)" />
          </defs>
          <use
             transform="scale(0.996264)"
             xlink:href="#CMMI12-5a"
             id="use53" />
          <use
             transform="matrix(0.996264,0,0,0.996264,103.99956,0)"
             xlink:href="#CMR17-5b"
             id="use54" />
          <use
             transform="matrix(0.996264,0,0,0.996264,128.87062,0)"
             xlink:href="#CMR17-2d"
             id="use55" />
          <use
             transform="matrix(0.996264,0,0,0.996264,158.94658,0)"
             xlink:href="#CMR17-5d"
             id="use56" />
        </g>
      </g>
    </g>
    <g
       id="line2d_23"
       transform="translate(10.807232,-9.4471831)">
      <path
         clip-path="url(#pa84b2d7912)"
         d="m 36.916364,145.26982 8.294694,-1.19802 8.260923,-1.19802 8.193791,-1.19801 8.094114,-1.19802 7.963096,-1.19801 7.802301,-1.19802 7.613627,-1.19802 7.39927,-1.19801 7.16166,-1.19802 6.90347,-1.19802 6.62748,-1.19801 6.33663,-1.19802 6.03388,-1.19802 5.72218,-1.19801 5.40451,-1.19802 5.08368,-1.19802 4.76243,-1.19801 4.44331,-1.19802 4.1287,-1.19802 3.82074,-1.19801 3.52135,-1.19802 3.2322,-1.19801 2.95471,-1.19802 2.69004,-1.19802 2.43909,-1.19801 2.20254,-1.19802 1.98081,-1.19802 1.77411,-1.19802 1.58249,-1.19801 1.40577,-1.19802 1.24362,-1.19801 1.09563,-1.19802 0.96119,-1.19802 0.83969,-1.19801 0.73035,-1.19802 0.63243,-1.19802 0.54509,-1.19801 0.46749,-1.19802 0.39877,-1.198016 0.3381,-1.198017 0.28462,-1.198017 0.23754,-1.198016 0.19604,-1.198017 0.15934,-1.198016 0.12671,-1.198017 0.0974,-1.198016 0.0708,-1.198017 0.0461,-1.198016 0.0227,-1.198017 v -1.198016 l -0.0227,-1.198017 -0.0461,-1.198016 -0.0708,-1.198017 -0.0974,-1.198016 -0.12671,-1.198017 -0.15934,-1.198016 -0.19604,-1.198017 -0.23754,-1.198016 -0.28462,-1.198017 -0.3381,-1.198017 -0.39877,-1.198016 -0.46749,-1.198017 -0.54509,-1.198016 -0.63243,-1.198017 -0.73035,-1.198016 -0.83969,-1.198017 -0.96119,-1.198016 -1.09563,-1.198017 -1.24362,-1.198016 -1.40577,-1.198017 -1.58249,-1.198016 -1.77411,-1.198017 -1.98081,-1.198016 -2.20254,-1.198017 -2.43909,-1.198016 -2.69004,-1.198017 -2.95471,-1.198017 -3.2322,-1.198016 -3.52135,-1.198017 -3.82074,-1.198016 -4.1287,-1.198017 -4.44331,-1.198016 -4.76243,-1.198017 -5.08368,-1.198016 -5.40451,-1.198017 -5.72218,-1.198016 -6.03388,-1.198017 -6.33663,-1.198016 -6.62748,-1.198017 -6.90347,-1.198016 -7.16166,-1.198017 -7.39927,-1.198016 -7.613627,-1.198017 -7.802301,-1.198017 -7.963096,-1.198016 -8.094114,-1.198017 -8.193791,-1.198016 -8.260923,-1.198017 -8.294694,-1.198016"
         style="fill:none;stroke:#370499;stroke-linecap:square"
         id="path56" />
    </g>
    <g
       id="line2d_24"
       transform="translate(10.807232,-9.4471831)">
      <path
         clip-path="url(#pa84b2d7912)"
         d="m 36.916364,145.26982 5.866693,-1.19802 5.854713,-1.19802 5.830828,-1.19801 5.795178,-1.19802 5.747981,-1.19801 5.689518,-1.19802 5.620135,-1.19802 5.540243,-1.19801 5.450306,-1.19802 5.350843,-1.19802 5.242421,-1.19801 5.125647,-1.19802 5.00116,-1.19802 4.86964,-1.19801 4.73178,-1.19802 4.5883,-1.19802 4.43989,-1.19801 4.28731,-1.19802 4.13128,-1.19802 3.9725,-1.19801 3.81165,-1.19802 3.64946,-1.19801 3.48653,-1.19802 3.32349,-1.19802 3.16095,-1.19801 2.99942,-1.19802 2.83942,-1.19802 2.68141,-1.19802 2.52578,-1.19801 2.37289,-1.19802 2.22306,-1.19801 2.07652,-1.19802 1.93349,-1.19802 1.79411,-1.19801 1.65847,-1.19802 1.52661,-1.19802 1.39855,-1.19801 1.27421,-1.19802 1.1535,-1.198016 1.03628,-1.198017 0.92237,-1.198017 0.81154,-1.198016 0.70355,-1.198017 0.5981,-1.198016 0.49489,-1.198017 0.39358,-1.198016 0.29382,-1.198017 0.19521,-1.198016 0.0974,-1.198017 v -1.198016 l -0.0974,-1.198017 -0.19521,-1.198016 -0.29382,-1.198017 -0.39358,-1.198016 -0.49489,-1.198017 -0.5981,-1.198016 -0.70355,-1.198017 -0.81154,-1.198016 -0.92237,-1.198017 -1.03628,-1.198017 -1.1535,-1.198016 -1.27421,-1.198017 -1.39855,-1.198016 -1.52661,-1.198017 -1.65847,-1.198016 -1.79411,-1.198017 -1.93349,-1.198016 -2.07652,-1.198017 -2.22306,-1.198016 -2.37289,-1.198017 -2.52578,-1.198016 -2.68141,-1.198017 -2.83942,-1.198016 -2.99942,-1.198017 -3.16095,-1.198016 -3.32349,-1.198017 -3.48653,-1.198017 -3.64946,-1.198016 -3.81165,-1.198017 -3.9725,-1.198016 -4.13128,-1.198017 -4.28731,-1.198016 -4.43989,-1.198017 -4.5883,-1.198016 -4.73178,-1.198017 -4.86964,-1.198016 -5.00116,-1.198017 -5.125647,-1.198016 -5.242421,-1.198017 -5.350843,-1.198016 -5.450306,-1.198017 -5.540243,-1.198016 -5.620135,-1.198017 -5.689518,-1.198017 -5.747981,-1.198016 -5.795178,-1.198017 -5.830828,-1.198016 -5.854713,-1.198017 -5.866693,-1.198016"
         style="fill:none;stroke:#5801a4;stroke-linecap:square"
         id="path57" />
    </g>
    <g
       id="line2d_25"
       transform="translate(10.807232,-9.4471831)">
      <path
         clip-path="url(#pa84b2d7912)"
         d="m 36.916364,145.26982 4.778884,-1.19802 4.772166,-1.19802 4.758754,-1.19801 4.738698,-1.19802 4.712068,-1.19801 4.678959,-1.19802 4.639491,-1.19802 4.593801,-1.19801 4.542049,-1.19802 4.484415,-1.19802 4.421093,-1.19801 4.352298,-1.19802 4.278256,-1.19802 4.199214,-1.19801 4.11541,-1.19802 4.02712,-1.19802 3.9346,-1.19801 3.83814,-1.19802 3.73801,-1.19802 3.63448,-1.19801 3.52785,-1.19802 3.41837,-1.19801 3.30635,-1.19802 3.19203,-1.19802 3.07567,-1.19801 2.95754,-1.19802 2.83787,-1.19802 2.71689,-1.19802 2.59483,-1.19801 2.47186,-1.19802 2.34821,-1.19801 2.22403,-1.19802 2.09947,-1.19802 1.97469,-1.19801 1.8498,-1.19802 1.72491,-1.19802 1.60011,-1.19801 1.47547,-1.19802 1.35107,-1.198016 1.22692,-1.198017 1.10306,-1.198017 0.97951,-1.198016 0.85626,-1.198017 0.73331,-1.198016 0.61063,-1.198017 0.48819,-1.198016 0.36596,-1.198017 0.24389,-1.198016 0.12191,-1.198017 v -1.198016 l -0.12191,-1.198017 -0.24389,-1.198016 -0.36596,-1.198017 -0.48819,-1.198016 -0.61063,-1.198017 -0.73331,-1.198016 -0.85626,-1.198017 -0.97951,-1.198016 -1.10306,-1.198017 -1.22692,-1.198017 -1.35107,-1.198016 -1.47547,-1.198017 -1.60011,-1.198016 -1.72491,-1.198017 -1.8498,-1.198016 -1.97469,-1.198017 -2.09947,-1.198016 -2.22403,-1.198017 -2.34821,-1.198016 -2.47186,-1.198017 -2.59483,-1.198016 -2.71689,-1.198017 -2.83787,-1.198016 -2.95754,-1.198017 -3.07567,-1.198016 -3.19203,-1.198017 -3.30635,-1.198017 -3.41837,-1.198016 -3.52785,-1.198017 -3.63448,-1.198016 -3.73801,-1.198017 -3.83814,-1.198016 -3.9346,-1.198017 -4.02712,-1.198016 -4.11541,-1.198017 -4.199214,-1.198016 -4.278256,-1.198017 -4.352298,-1.198016 -4.421093,-1.198017 -4.484415,-1.198016 -4.542049,-1.198017 -4.593801,-1.198016 -4.639491,-1.198017 -4.678959,-1.198017 -4.712068,-1.198016 -4.738698,-1.198017 -4.758754,-1.198016 -4.772166,-1.198017 -4.778884,-1.198016"
         style="fill:none;stroke:#7701a8;stroke-linecap:square"
         id="path58" />
    </g>
    <g
       id="line2d_26"
       transform="translate(10.807232,-9.4471831)">
      <path
         clip-path="url(#pa84b2d7912)"
         d="m 36.916364,145.26982 4.09345,-1.19802 4.088705,-1.19802 4.079224,-1.19801 4.06503,-1.19802 4.046153,-1.19801 4.022632,-1.19802 3.994523,-1.19802 3.961881,-1.19801 3.92478,-1.19802 3.883296,-1.19802 3.837515,-1.19801 3.787534,-1.19802 3.733454,-1.19802 3.675383,-1.19801 3.613435,-1.19802 3.547732,-1.19802 3.478399,-1.19801 3.40556,-1.19802 3.32936,-1.19802 3.24991,-1.19801 3.16739,-1.19802 3.08189,-1.19801 2.99358,-1.19802 2.90259,-1.19802 2.80908,-1.19801 2.71315,-1.19802 2.61498,-1.19802 2.51467,-1.19802 2.41238,-1.19801 2.30822,-1.19802 2.20232,-1.19801 2.09482,-1.19802 1.98583,-1.19802 1.87545,-1.19801 1.76382,-1.19802 1.65101,-1.19802 1.53716,-1.19801 1.42235,-1.19802 1.30667,-1.198016 1.19021,-1.198017 1.07306,-1.198017 0.95531,-1.198016 0.83701,-1.198017 0.71827,-1.198016 0.59914,-1.198017 0.47968,-1.198016 0.35998,-1.198017 0.2401,-1.198016 0.12007,-1.198017 v -1.198016 l -0.12007,-1.198017 -0.2401,-1.198016 -0.35998,-1.198017 -0.47968,-1.198016 -0.59914,-1.198017 -0.71827,-1.198016 -0.83701,-1.198017 -0.95531,-1.198016 -1.07306,-1.198017 -1.19021,-1.198017 -1.30667,-1.198016 -1.42235,-1.198017 -1.53716,-1.198016 -1.65101,-1.198017 -1.76382,-1.198016 -1.87545,-1.198017 -1.98583,-1.198016 -2.09482,-1.198017 -2.20232,-1.198016 -2.30822,-1.198017 -2.41238,-1.198016 -2.51467,-1.198017 -2.61498,-1.198016 -2.71315,-1.198017 -2.80908,-1.198016 -2.90259,-1.198017 -2.99358,-1.198017 -3.08189,-1.198016 -3.16739,-1.198017 -3.24991,-1.198016 -3.32936,-1.198017 -3.40556,-1.198016 -3.478399,-1.198017 -3.547732,-1.198016 -3.613435,-1.198017 -3.675383,-1.198016 -3.733454,-1.198017 -3.787534,-1.198016 -3.837515,-1.198017 -3.883296,-1.198016 -3.92478,-1.198017 -3.961881,-1.198016 -3.994523,-1.198017 -4.022632,-1.198017 -4.046153,-1.198016 -4.06503,-1.198017 -4.079224,-1.198016 -4.088705,-1.198017 -4.09345,-1.198016"
         style="fill:none;stroke:#920fa3;stroke-linecap:square"
         id="path59" />
    </g>
    <g
       id="line2d_27"
       transform="translate(10.807232,-9.4471831)">
      <path
         clip-path="url(#pa84b2d7912)"
         d="m 36.916364,145.26982 3.1463,-1.19802 3.143065,-1.19802 3.136597,-1.19801 3.126906,-1.19802 3.114001,-1.19801 3.097901,-1.19802 3.078621,-1.19802 3.056188,-1.19801 3.030624,-1.19802 3.001964,-1.19802 2.970238,-1.19801 2.935486,-1.19802 2.897746,-1.19802 2.857063,-1.19801 2.813485,-1.19802 2.76706,-1.19802 2.717844,-1.19801 2.66589,-1.19802 2.611259,-1.19802 2.554011,-1.19801 2.49421,-1.19802 2.431927,-1.19801 2.36722,-1.19802 2.30016,-1.19802 2.23085,-1.19801 2.15931,-1.19802 2.08567,-1.19802 2.00997,-1.19802 1.93232,-1.19801 1.85277,-1.19802 1.77143,-1.19801 1.68837,-1.19802 1.60367,-1.19802 1.51743,-1.19801 1.42973,-1.19802 1.34065,-1.19802 1.25029,-1.19801 1.15874,-1.19802 1.06608,-1.198016 0.9724,-1.198017 0.8778,-1.198017 0.78238,-1.198016 0.6862,-1.198017 0.58938,-1.198016 0.492,-1.198017 0.39416,-1.198016 0.29594,-1.198017 0.19746,-1.198016 0.0988,-1.198017 v -1.198016 l -0.0988,-1.198017 -0.19746,-1.198016 -0.29594,-1.198017 -0.39416,-1.198016 -0.492,-1.198017 -0.58938,-1.198016 -0.6862,-1.198017 -0.78238,-1.198016 -0.8778,-1.198017 -0.9724,-1.198017 -1.06608,-1.198016 -1.15874,-1.198017 -1.25029,-1.198016 -1.34065,-1.198017 -1.42973,-1.198016 -1.51743,-1.198017 -1.60367,-1.198016 -1.68837,-1.198017 -1.77143,-1.198016 -1.85277,-1.198017 -1.93232,-1.198016 -2.00997,-1.198017 -2.08567,-1.198016 -2.15931,-1.198017 -2.23085,-1.198016 -2.30016,-1.198017 -2.36722,-1.198017 -2.431927,-1.198016 -2.49421,-1.198017 -2.554011,-1.198016 -2.611259,-1.198017 -2.66589,-1.198016 -2.717844,-1.198017 -2.76706,-1.198016 -2.813485,-1.198017 -2.857063,-1.198016 -2.897746,-1.198017 -2.935486,-1.198016 -2.970238,-1.198017 -3.001964,-1.198016 -3.030624,-1.198017 -3.056188,-1.198016 -3.078621,-1.198017 -3.097901,-1.198017 -3.114001,-1.198016 -3.126906,-1.198017 -3.136597,-1.198016 -3.143065,-1.198017 -3.1463,-1.198016"
         style="fill:none;stroke:#ac2694;stroke-linecap:square"
         id="path60" />
    </g>
    <g
       id="line2d_28"
       transform="translate(10.807232,-9.4471831)">
      <path
         clip-path="url(#pa84b2d7912)"
         d="m 36.916364,145.26982 2.45269,-1.19802 2.450214,-1.19802 2.445262,-1.19801 2.437842,-1.19802 2.427959,-1.19801 2.415625,-1.19802 2.400853,-1.19802 2.383657,-1.19801 2.364055,-1.19802 2.342068,-1.19802 2.317718,-1.19801 2.291031,-1.19802 2.262033,-1.19802 2.230754,-1.19801 2.197228,-1.19802 2.161488,-1.19802 2.12357,-1.19801 2.083514,-1.19802 2.041362,-1.19802 1.997154,-1.19801 1.950939,-1.19802 1.902761,-1.19801 1.85267,-1.19802 1.800719,-1.19802 1.746959,-1.19801 1.691444,-1.19802 1.634233,-1.19802 1.575381,-1.19802 1.51495,-1.19801 1.452999,-1.19802 1.389594,-1.19801 1.3248,-1.19802 1.25867,-1.19802 1.19128,-1.19801 1.12271,-1.19802 1.05301,-1.19802 0.98225,-1.19801 0.91052,-1.19802 0.83787,-1.198016 0.76439,-1.198017 0.69015,-1.198017 0.6152,-1.198016 0.53966,-1.198017 0.46357,-1.198016 0.38701,-1.198017 0.31008,-1.198016 0.23283,-1.198017 0.15534,-1.198016 0.0777,-1.198017 v -1.198016 l -0.0777,-1.198017 -0.15534,-1.198016 -0.23283,-1.198017 -0.31008,-1.198016 -0.38701,-1.198017 -0.46357,-1.198016 -0.53966,-1.198017 -0.6152,-1.198016 -0.69015,-1.198017 -0.76439,-1.198017 -0.83787,-1.198016 -0.91052,-1.198017 -0.98225,-1.198016 -1.05301,-1.198017 -1.12271,-1.198016 -1.19128,-1.198017 -1.25867,-1.198016 -1.3248,-1.198017 -1.389594,-1.198016 -1.452999,-1.198017 -1.51495,-1.198016 -1.575381,-1.198017 -1.634233,-1.198016 -1.691444,-1.198017 -1.746959,-1.198016 -1.800719,-1.198017 -1.85267,-1.198017 -1.902761,-1.198016 -1.950939,-1.198017 -1.997154,-1.198016 -2.041362,-1.198017 -2.083514,-1.198016 -2.12357,-1.198017 -2.161488,-1.198016 -2.197228,-1.198017 -2.230754,-1.198016 -2.262033,-1.198017 -2.291031,-1.198016 -2.317718,-1.198017 -2.342068,-1.198016 -2.364055,-1.198017 -2.383657,-1.198016 -2.400853,-1.198017 -2.415625,-1.198017 -2.427959,-1.198016 -2.437842,-1.198017 -2.445262,-1.198016 -2.450214,-1.198017 -2.45269,-1.198016"
         style="fill:none;stroke:#c23c81;stroke-linecap:square"
         id="path61" />
    </g>
    <g
       id="line2d_29"
       transform="translate(10.807232,-9.4471831)">
      <path
         clip-path="url(#pa84b2d7912)"
         d="m 36.916364,145.26982 1.915781,-1.19802 1.913851,-1.19802 1.909993,-1.19801 1.904212,-1.19802 1.896512,-1.19801 1.886902,-1.19802 1.875391,-1.19802 1.861992,-1.19801 1.846716,-1.19802 1.82958,-1.19802 1.810603,-1.19801 1.789801,-1.19802 1.767197,-1.19802 1.742813,-1.19801 1.716674,-1.19802 1.688806,-1.19802 1.659238,-1.19801 1.628,-1.19802 1.595121,-1.19802 1.560637,-1.19801 1.524582,-1.19802 1.486991,-1.19801 1.447905,-1.19802 1.40736,-1.19802 1.365399,-1.19801 1.322064,-1.19802 1.277397,-1.19802 1.231446,-1.19802 1.184255,-1.19801 1.135873,-1.19802 1.086347,-1.19801 1.035728,-1.19802 0.984067,-1.19802 0.931417,-1.19801 0.877829,-1.19802 0.823358,-1.19802 0.768058,-1.19801 0.711987,-1.19802 0.655198,-1.198016 0.597752,-1.198017 0.539703,-1.198017 0.481112,-1.198016 0.422037,-1.198017 0.362537,-1.198016 0.302673,-1.198017 0.242505,-1.198016 0.182092,-1.198017 0.121497,-1.198016 0.06078,-1.198017 V 85.368992 L 97.225353,84.170975 97.103856,82.972959 96.921764,81.774942 96.679259,80.576926 96.376586,79.378909 96.014049,78.180893 95.592012,76.982876 95.1109,75.78486 94.571197,74.586843 93.973445,73.388826 93.318247,72.19081 92.60626,70.992793 91.838202,69.794777 91.014844,68.59676 l -0.877829,-1.198016 -0.931417,-1.198017 -0.984067,-1.198016 -1.035728,-1.198017 -1.086347,-1.198016 -1.135873,-1.198017 -1.184255,-1.198016 -1.231446,-1.198017 -1.277397,-1.198016 -1.322064,-1.198017 -1.365399,-1.198016 -1.40736,-1.198017 -1.447905,-1.198017 -1.486991,-1.198016 -1.524582,-1.198017 -1.560637,-1.198016 -1.595121,-1.198017 -1.628,-1.198016 -1.659238,-1.198017 -1.688806,-1.198016 -1.716674,-1.198017 -1.742813,-1.198016 -1.767197,-1.198017 -1.789801,-1.198016 -1.810603,-1.198017 -1.82958,-1.198016 -1.846716,-1.198017 -1.861992,-1.198016 -1.875391,-1.198017 -1.886902,-1.198017 -1.896512,-1.198016 -1.904212,-1.198017 -1.909993,-1.198016 -1.913851,-1.198017 -1.915781,-1.198016"
         style="fill:none;stroke:#d45270;stroke-linecap:square"
         id="path62" />
    </g>
    <g
       id="line2d_30"
       transform="translate(10.807232,-9.4471831)">
      <path
         clip-path="url(#pa84b2d7912)"
         d="m 36.916364,145.26982 1.496817,-1.19802 1.495309,-1.19802 1.492297,-1.19801 1.487781,-1.19802 1.481767,-1.19801 1.474261,-1.19802 1.465271,-1.19802 1.454805,-1.19801 1.442874,-1.19802 1.42949,-1.19802 1.414667,-1.19801 1.398419,-1.19802 1.380764,-1.19802 1.361717,-1.19801 1.3413,-1.19802 1.319532,-1.19802 1.296435,-1.19801 1.272034,-1.19802 1.24635,-1.19802 1.219413,-1.19801 1.191247,-1.19802 1.161882,-1.19801 1.131348,-1.19802 1.099673,-1.19802 1.066892,-1.19801 1.033036,-1.19802 0.998141,-1.19802 0.96224,-1.19802 0.925371,-1.19801 0.88757,-1.19802 0.848875,-1.19801 0.809326,-1.19802 0.768961,-1.19802 0.727824,-1.19801 0.685952,-1.19802 0.64339,-1.19802 0.600181,-1.19801 0.556366,-1.19802 0.511993,-1.198016 0.467104,-1.198017 0.421744,-1.198017 0.37596,-1.198016 0.329797,-1.198017 0.283302,-1.198016 0.236522,-1.198017 0.189505,-1.198016 0.142295,-1.198017 0.09494,-1.198016 0.0475,-1.198017 v -1.198016 l -0.0475,-1.198017 -0.09494,-1.198016 -0.142295,-1.198017 -0.189505,-1.198016 -0.236522,-1.198017 -0.283302,-1.198016 -0.329797,-1.198017 -0.37596,-1.198016 -0.421744,-1.198017 -0.467104,-1.198017 -0.511993,-1.198016 -0.556366,-1.198017 -0.600181,-1.198016 -0.64339,-1.198017 -0.685952,-1.198016 -0.727824,-1.198017 -0.768961,-1.198016 -0.809326,-1.198017 -0.848875,-1.198016 -0.88757,-1.198017 -0.925371,-1.198016 -0.96224,-1.198017 -0.998141,-1.198016 -1.033036,-1.198017 -1.066892,-1.198016 -1.099673,-1.198017 -1.131348,-1.198017 -1.161882,-1.198016 -1.191247,-1.198017 -1.219413,-1.198016 -1.24635,-1.198017 -1.272034,-1.198016 -1.296435,-1.198017 -1.319532,-1.198016 -1.3413,-1.198017 -1.361717,-1.198016 -1.380764,-1.198017 -1.398419,-1.198016 -1.414667,-1.198017 -1.42949,-1.198016 -1.442874,-1.198017 -1.454805,-1.198016 -1.465271,-1.198017 -1.474261,-1.198017 -1.481767,-1.198016 -1.487781,-1.198017 -1.492297,-1.198016 -1.495309,-1.198017 -1.496817,-1.198016"
         style="fill:none;stroke:#e4695e;stroke-linecap:square"
         id="path63" />
    </g>
    <g
       id="line2d_31"
       transform="translate(10.807232,-9.4471831)">
      <path
         clip-path="url(#pa84b2d7912)"
         d="m 36.916364,145.26982 1.169521,-1.19802 1.168344,-1.19802 1.165989,-1.19801 1.162462,-1.19802 1.157763,-1.19801 1.151898,-1.19802 1.144874,-1.19802 1.136698,-1.19801 1.127375,-1.19802 1.116919,-1.19802 1.105337,-1.19801 1.092643,-1.19802 1.078848,-1.19802 1.063967,-1.19801 1.048015,-1.19802 1.031007,-1.19802 1.012962,-1.19801 0.993896,-1.19802 0.97383,-1.19802 0.952782,-1.19801 0.930777,-1.19802 0.907832,-1.19801 0.883975,-1.19802 0.859227,-1.19802 0.833615,-1.19801 0.807162,-1.19802 0.779897,-1.19802 0.751846,-1.19802 0.72304,-1.19801 0.693504,-1.19802 0.66327,-1.19801 0.632369,-1.19802 0.60083,-1.19802 0.568688,-1.19801 0.535971,-1.19802 0.502716,-1.19802 0.468954,-1.19801 0.434721,-1.19802 0.400048,-1.198016 0.364975,-1.198017 0.329532,-1.198017 0.293759,-1.198016 0.257689,-1.198017 0.221361,-1.198016 0.184808,-1.198017 0.148071,-1.198016 0.111184,-1.198017 0.07418,-1.198016 0.03711,-1.198017 V 85.368992 L 73.735499,84.170975 73.661315,82.972959 73.550131,81.774942 73.40206,80.576926 73.217252,79.378909 72.995891,78.180893 72.738202,76.982876 72.444443,75.78486 72.114911,74.586843 71.749936,73.388826 71.349888,72.19081 70.915167,70.992793 70.446213,69.794777 69.943497,68.59676 69.407526,67.398744 68.838838,66.200727 68.238008,65.002711 67.605639,63.804694 66.942369,62.606678 66.248865,61.408661 65.525825,60.210645 64.773979,59.012628 63.994082,57.814612 63.18692,56.616595 62.353305,55.418579 61.494078,54.220562 60.610103,53.022545 59.702271,51.824529 58.771494,50.626512 57.818712,49.428496 56.844882,48.230479 55.850986,47.032463 54.838024,45.834446 53.807017,44.63643 52.759002,43.438413 51.695035,42.240397 50.616187,41.04238 49.523544,39.844364 48.418207,38.646347 47.301288,37.448331 46.173913,36.250314 45.037215,35.052298 43.892341,33.854281 42.740443,32.656264 41.58268,31.458248 40.420218,30.260231 39.254229,29.062215 38.085885,27.864198 36.916364,26.666182"
         style="fill:none;stroke:#f1814d;stroke-linecap:square"
         id="path64" />
    </g>
    <g
       id="line2d_32"
       transform="translate(10.807232,-9.4471831)">
      <path
         clip-path="url(#pa84b2d7912)"
         d="m 36.916364,145.26982 0.913797,-1.19802 0.912877,-1.19802 0.911038,-1.19801 0.908281,-1.19802 0.904611,-1.19801 0.900028,-1.19802 0.894539,-1.19802 0.888151,-1.19801 0.880867,-1.19802 0.872697,-1.19802 0.863648,-1.19801 0.853729,-1.19802 0.842951,-1.19802 0.831324,-1.19801 0.81886,-1.19802 0.805571,-1.19802 0.791471,-1.19801 0.776574,-1.19802 0.760896,-1.19802 0.744451,-1.19801 0.727257,-1.19802 0.709329,-1.19801 0.690689,-1.19802 0.671352,-1.19802 0.65134,-1.19801 0.630672,-1.19802 0.609368,-1.19802 0.587451,-1.19802 0.564943,-1.19801 0.541866,-1.19802 0.518243,-1.19801 0.494098,-1.19802 0.469456,-1.19802 0.444341,-1.19801 0.418779,-1.19802 0.392795,-1.19802 0.366415,-1.19801 0.339666,-1.19802 0.312577,-1.198016 0.285171,-1.198017 0.257479,-1.198017 0.229527,-1.198016 0.201344,-1.198017 0.172959,-1.198016 0.144399,-1.198017 0.115695,-1.198016 0.08687,-1.198017 0.05796,-1.198016 0.029,-1.198017 v -1.198016 l -0.029,-1.198017 -0.05796,-1.198016 -0.08687,-1.198017 L 65.424241,80.576926 65.279842,79.378909 65.106883,78.180893 64.905539,76.982876 64.676012,75.78486 64.418533,74.586843 64.133362,73.388826 63.820785,72.19081 63.481119,70.992793 63.114704,69.794777 62.721909,68.59676 62.30313,67.398744 61.858789,66.200727 61.389333,65.002711 60.895235,63.804694 60.376992,62.606678 59.835126,61.408661 59.270183,60.210645 58.682732,59.012628 58.073364,57.814612 57.442692,56.616595 56.791352,55.418579 56.12,54.220562 55.429311,53.022545 54.719982,51.824529 53.992725,50.626512 53.248274,49.428496 52.487378,48.230479 51.710804,47.032463 50.919333,45.834446 50.113762,44.63643 49.294902,43.438413 48.463578,42.240397 47.620627,41.04238 46.766898,39.844364 45.90325,38.646347 45.030553,37.448331 44.149686,36.250314 43.261535,35.052298 42.366996,33.854281 41.466968,32.656264 40.562357,31.458248 39.654076,30.260231 38.743038,29.062215 37.830161,27.864198 36.916364,26.666182"
         style="fill:none;stroke:#fa9b3d;stroke-linecap:square"
         id="path65" />
    </g>
    <g
       id="line2d_33"
       transform="translate(10.807232,-9.4471831)">
      <path
         clip-path="url(#pa84b2d7912)"
         d="m 36.916364,145.26982 0.713989,-1.19802 0.713271,-1.19802 0.711834,-1.19801 0.70968,-1.19802 0.706811,-1.19801 0.703231,-1.19802 0.698943,-1.19802 0.693951,-1.19801 0.68826,-1.19802 0.681876,-1.19802 0.674806,-1.19801 0.667056,-1.19802 0.658634,-1.19802 0.64955,-1.19801 0.639811,-1.19802 0.629428,-1.19802 0.618411,-1.19801 0.606772,-1.19802 0.594521,-1.19802 0.581672,-1.19801 0.568237,-1.19802 0.55423,-1.19801 0.539666,-1.19802 0.524557,-1.19802 0.50892,-1.19801 0.492772,-1.19802 0.476126,-1.19802 0.459001,-1.19802 0.441415,-1.19801 0.423383,-1.19802 0.404926,-1.19801 0.386061,-1.19802 0.366806,-1.19802 0.347184,-1.19801 0.32721,-1.19802 0.306907,-1.19802 0.286297,-1.19801 0.265396,-1.19802 0.24423,-1.198016 0.222817,-1.198017 0.201179,-1.198017 0.17934,-1.198016 0.157319,-1.198017 0.135141,-1.198016 0.112825,-1.198017 0.0904,-1.198016 0.06788,-1.198017 0.04529,-1.198016 0.02266,-1.198017 v -1.198016 l -0.02266,-1.198017 -0.04529,-1.198016 -0.06788,-1.198017 -0.0904,-1.198016 -0.112825,-1.198017 -0.135141,-1.198016 -0.157319,-1.198017 -0.17934,-1.198016 -0.201179,-1.198017 -0.222817,-1.198017 -0.24423,-1.198016 -0.265396,-1.198017 -0.286297,-1.198016 -0.306907,-1.198017 -0.32721,-1.198016 -0.347184,-1.198017 -0.366806,-1.198016 -0.386061,-1.198017 -0.404926,-1.198016 -0.423383,-1.198017 -0.441415,-1.198016 -0.459001,-1.198017 -0.476126,-1.198016 -0.492772,-1.198017 -0.50892,-1.198016 -0.524557,-1.198017 -0.539666,-1.198017 -0.55423,-1.198016 -0.568237,-1.198017 -0.581672,-1.198016 -0.594521,-1.198017 -0.606772,-1.198016 -0.618411,-1.198017 -0.629428,-1.198016 -0.639811,-1.198017 -0.64955,-1.198016 -0.658634,-1.198017 -0.667056,-1.198016 -0.674806,-1.198017 -0.681876,-1.198016 -0.68826,-1.198017 -0.693951,-1.198016 -0.698943,-1.198017 -0.703231,-1.198017 -0.706811,-1.198016 -0.70968,-1.198017 -0.711834,-1.198016 -0.713271,-1.198017 -0.713989,-1.198016"
         style="fill:none;stroke:#feb82c;stroke-linecap:square"
         id="path66" />
    </g>
    <g
       id="line2d_34"
       transform="translate(10.807232,-9.4471831)">
      <path
         clip-path="url(#pa84b2d7912)"
         d="m 36.916364,145.26982 0.557871,-1.19802 0.55731,-1.19802 0.556187,-1.19801 0.554503,-1.19802 0.552263,-1.19801 0.549465,-1.19802 0.546115,-1.19802 0.542214,-1.19801 0.537768,-1.19802 0.532779,-1.19802 0.527256,-1.19801 0.5212,-1.19802 0.51462,-1.19802 0.507521,-1.19801 0.499912,-1.19802 0.4918,-1.19802 0.483191,-1.19801 0.474098,-1.19802 0.464525,-1.19802 0.454486,-1.19801 0.443989,-1.19802 0.433044,-1.19801 0.421664,-1.19802 0.409859,-1.19802 0.397642,-1.19801 0.385024,-1.19802 0.372018,-1.19802 0.358638,-1.19802 0.344897,-1.19801 0.330808,-1.19802 0.316386,-1.19801 0.301646,-1.19802 0.286602,-1.19802 0.271269,-1.19801 0.255664,-1.19802 0.239801,-1.19802 0.223695,-1.19801 0.207366,-1.19802 0.190828,-1.198016 0.174096,-1.198017 0.15719,-1.198017 0.140126,-1.198016 0.122921,-1.198017 0.105591,-1.198016 0.08816,-1.198017 0.07063,-1.198016 0.05304,-1.198017 0.03539,-1.198016 0.0177,-1.198017 v -1.198016 l -0.0177,-1.198017 -0.03539,-1.198016 -0.05304,-1.198017 -0.07063,-1.198016 -0.08816,-1.198017 L 54.126621,78.180893 54.0037,76.982876 53.863574,75.78486 53.706384,74.586843 53.532288,73.388826 53.34146,72.19081 53.134094,70.992793 52.910399,69.794777 52.670598,68.59676 52.414934,67.398744 52.143665,66.200727 51.857063,65.002711 51.555417,63.804694 51.239031,62.606678 50.908223,61.408661 50.563326,60.210645 50.204688,59.012628 49.83267,57.814612 l -0.385024,-1.198017 -0.397642,-1.198016 -0.409859,-1.198017 -0.421664,-1.198017 -0.433044,-1.198016 -0.443989,-1.198017 -0.454486,-1.198016 -0.464525,-1.198017 -0.474098,-1.198016 -0.483191,-1.198017 -0.4918,-1.198016 -0.499912,-1.198017 -0.507521,-1.198016 -0.51462,-1.198017 -0.5212,-1.198016 -0.527256,-1.198017 -0.532779,-1.198016 -0.537768,-1.198017 -0.542214,-1.198016 -0.546115,-1.198017 -0.549465,-1.198017 -0.552263,-1.198016 -0.554503,-1.198017 -0.556187,-1.198016 -0.55731,-1.198017 -0.557871,-1.198016"
         style="fill:none;stroke:#fad824;stroke-linecap:square"
         id="path67" />
    </g>
    <g
       id="line2d_35"
       transform="translate(10.807232,-9.4471831)">
      <path
         clip-path="url(#pa84b2d7912)"
         d="M 199.75628,151.2 V 20.736"
         style="fill:none;stroke:#ff0000;stroke-width:1.5;stroke-dasharray:5.55, 2.4;stroke-dashoffset:0"
         id="path68" />
    </g>
    <g
       id="line2d_36"
       transform="translate(10.807232,-9.4471831)">
      <path
         clip-path="url(#pa84b2d7912)"
         d="M 36.916364,151.2 V 20.736"
         style="fill:none;stroke:#0000ff;stroke-width:1.5;stroke-dasharray:5.55, 2.4;stroke-dashoffset:0"
         id="path69" />
    </g>
    <g
       id="patch_3"
       transform="translate(10.807232,-9.4471831)">
      <path
         d="M 28.8,151.2 V 20.736"
         style="fill:none;stroke:#000000;stroke-width:0.8;stroke-linecap:square;stroke-linejoin:miter"
         id="path70" />
    </g>
    <g
       id="patch_4"
       transform="translate(10.807232,-9.4471831)">
      <path
         d="M 207.36,151.2 V 20.736"
         style="fill:none;stroke:#000000;stroke-width:0.8;stroke-linecap:square;stroke-linejoin:miter"
         id="path71" />
    </g>
    <g
       id="patch_5"
       transform="translate(10.807232,-9.4471831)">
      <path
         d="M 28.8,151.2 H 207.36"
         style="fill:none;stroke:#000000;stroke-width:0.8;stroke-linecap:square;stroke-linejoin:miter"
         id="path72" />
    </g>
    <g
       id="patch_6"
       transform="translate(10.807232,-9.4471831)">
      <path
         d="M 28.8,20.736 H 207.36"
         style="fill:none;stroke:#000000;stroke-width:0.8;stroke-linecap:square;stroke-linejoin:miter"
         id="path73" />
    </g>
  </g>
  <defs
     id="defs73">
    <clipPath
       id="pa84b2d7912">
      <rect
         height="130.464"
         width="178.56"
         x="28.799999"
         y="20.736"
         id="rect73" />
    </clipPath>
  </defs>
  <g
     ns4:version="1.10.2"
     ns4:texconverter="pdflatex"
     ns4:pdfconverter="inkscape"
     ns4:text="$T_v=0$"
     ns4:preamble="C:\Users\zamcr\AppData\Roaming\inkscape\extensions\textext\default_packages.tex"
     ns4:scale="1.0"
     ns4:alignment="middle center"
     ns4:stroke-to-path="0"
     ns4:inkscapeversion="1.3.2"
     id="g5074"
     transform="translate(172.20417,8.2367758)"
     ns4:jacobian_sqrt="1.0"
     style="fill:#ff0000">
    <defs
       id="id-52809550-e765-46ab-b595-47fd730d262d">
      <g
         id="id-50172946-4bfb-4c7d-8755-83812de484bc">
        <g
           id="id-caa21fec-fb7f-47a6-95c2-fc39754c7047">
          <path
             d="m 4.25,-6.046875 c 0.078125,-0.28125 0.109375,-0.34375 0.234375,-0.375 0.09375,-0.015625 0.421875,-0.015625 0.625,-0.015625 1.015625,0 1.453125,0.03125 1.453125,0.8125 0,0.15625 -0.03125,0.546875 -0.078125,0.796875 0,0.046875 -0.03125,0.15625 -0.03125,0.1875 0,0.0625 0.03125,0.140625 0.125,0.140625 0.109375,0 0.125,-0.078125 0.15625,-0.234375 L 7,-6.46875 C 7.015625,-6.515625 7.015625,-6.609375 7.015625,-6.640625 7.015625,-6.75 6.921875,-6.75 6.75,-6.75 H 1.21875 c -0.234375,0 -0.25,0.015625 -0.328125,0.203125 l -0.59375,1.75 c 0,0.015625 -0.0625,0.15625 -0.0625,0.1875 0,0.046875 0.0625,0.109375 0.125,0.109375 0.09375,0 0.109375,-0.0625 0.171875,-0.21875 C 1.0625,-6.265625 1.328125,-6.4375 2.796875,-6.4375 H 3.1875 c 0.28125,0 0.28125,0.03125 0.28125,0.125 0,0.046875 -0.03125,0.171875 -0.046875,0.203125 L 2.09375,-0.78125 C 2,-0.421875 1.96875,-0.3125 0.90625,-0.3125 c -0.359375,0 -0.421875,0 -0.421875,0.1875 C 0.484375,0 0.59375,0 0.65625,0 c 0.265625,0 0.546875,-0.015625 0.8125,-0.015625 0.28125,0 0.578125,-0.015625 0.859375,-0.015625 0.28125,0 0.546875,0.015625 0.828125,0.015625 C 3.4375,-0.015625 3.734375,0 4.015625,0 c 0.09375,0 0.21875,0 0.21875,-0.203125 0,-0.109375 -0.078125,-0.109375 -0.34375,-0.109375 -0.234375,0 -0.375,0 -0.625,-0.015625 -0.296875,-0.03125 -0.375,-0.0625 -0.375,-0.21875 0,-0.015625 0,-0.0625 0.046875,-0.203125 z m 0,0"
             id="id-aeac51e9-b401-4e82-87b2-262fa4033e33" />
        </g>
        <g
           id="id-d02503a8-af01-4105-ba75-e0d9ba06b686">
          <path
             d="m 3.71875,-2.53125 c 0,-0.546875 -0.328125,-0.546875 -0.34375,-0.546875 -0.1875,0 -0.375,0.1875 -0.375,0.375 0,0.109375 0.0625,0.171875 0.109375,0.203125 0.125,0.109375 0.265625,0.28125 0.265625,0.5625 0,0.3125 -0.46875,1.8125 -1.296875,1.8125 -0.5625,0 -0.5625,-0.5 -0.5625,-0.625 0,-0.3125 0.125,-0.703125 0.390625,-1.359375 C 1.953125,-2.25 2,-2.359375 2,-2.46875 2,-2.84375 1.6875,-3.078125 1.34375,-3.078125 0.640625,-3.078125 0.328125,-2.125 0.328125,-2 c 0,0.078125 0.09375,0.078125 0.125,0.078125 0.09375,0 0.09375,-0.03125 0.125,-0.109375 C 0.734375,-2.59375 1.03125,-2.875 1.3125,-2.875 c 0.125,0 0.171875,0.078125 0.171875,0.234375 0,0.171875 -0.046875,0.3125 -0.125,0.46875 -0.296875,0.78125 -0.375,1.078125 -0.375,1.328125 0,0.6875 0.546875,0.90625 1.078125,0.90625 1.171875,0 1.65625,-2.015625 1.65625,-2.59375 z m 0,0"
             id="id-177a1e7b-6915-4d09-9dcc-4a8e40c0022e" />
        </g>
        <g
           id="id-950b8f29-92c4-4af2-9d51-e91e38dc0238">
          <path
             d="m 6.84375,-3.265625 c 0.15625,0 0.34375,0 0.34375,-0.1875 C 7.1875,-3.65625 7,-3.65625 6.859375,-3.65625 h -5.96875 c -0.140625,0 -0.328125,0 -0.328125,0.203125 0,0.1875 0.1875,0.1875 0.328125,0.1875 z m 0.015625,1.9375 c 0.140625,0 0.328125,0 0.328125,-0.203125 0,-0.1875 -0.1875,-0.1875 -0.34375,-0.1875 H 0.890625 c -0.140625,0 -0.328125,0 -0.328125,0.1875 0,0.203125 0.1875,0.203125 0.328125,0.203125 z m 0,0"
             id="id-92db12db-d1cc-4302-a42a-c8a0b7d7de61" />
        </g>
        <g
           id="id-917594ca-ab4d-4902-92c4-4a97bda9d5f3">
          <path
             d="m 4.578125,-3.1875 c 0,-0.796875 -0.046875,-1.59375 -0.390625,-2.328125 -0.453125,-0.96875 -1.28125,-1.125 -1.6875,-1.125 -0.609375,0 -1.328125,0.265625 -1.75,1.1875 -0.3125,0.6875 -0.359375,1.46875 -0.359375,2.265625 0,0.75 0.03125,1.640625 0.453125,2.40625 0.421875,0.796875 1.15625,1 1.640625,1 0.53125,0 1.296875,-0.203125 1.734375,-1.15625 0.3125,-0.6875 0.359375,-1.46875 0.359375,-2.25 z M 2.484375,0 C 2.09375,0 1.5,-0.25 1.328125,-1.203125 1.21875,-1.796875 1.21875,-2.71875 1.21875,-3.3125 c 0,-0.640625 0,-1.296875 0.078125,-1.828125 0.1875,-1.1875 0.9375,-1.28125 1.1875,-1.28125 0.328125,0 0.984375,0.1875 1.171875,1.171875 0.109375,0.5625 0.109375,1.3125 0.109375,1.9375 0,0.75 0,1.421875 -0.109375,2.0625 C 3.5,-0.296875 2.9375,0 2.484375,0 Z m 0,0"
             id="id-037740c2-0615-4b4a-8726-859291fef6a0" />
        </g>
      </g>
    </defs>
    <g
       fill="#000000"
       fill-opacity="1"
       id="id-b2feca1f-a943-49c4-91d1-e07e9ed98d6b"
       transform="translate(-148.946,-128.015)"
       style="fill:#ff0000">
      <g
         transform="translate(148.712,134.765)"
         id="g5936"
         style="fill:#ff0000">
        <path
           d="m 4.25,-6.046875 c 0.078125,-0.28125 0.109375,-0.34375 0.234375,-0.375 0.09375,-0.015625 0.421875,-0.015625 0.625,-0.015625 1.015625,0 1.453125,0.03125 1.453125,0.8125 0,0.15625 -0.03125,0.546875 -0.078125,0.796875 0,0.046875 -0.03125,0.15625 -0.03125,0.1875 0,0.0625 0.03125,0.140625 0.125,0.140625 0.109375,0 0.125,-0.078125 0.15625,-0.234375 L 7,-6.46875 C 7.015625,-6.515625 7.015625,-6.609375 7.015625,-6.640625 7.015625,-6.75 6.921875,-6.75 6.75,-6.75 H 1.21875 c -0.234375,0 -0.25,0.015625 -0.328125,0.203125 l -0.59375,1.75 c 0,0.015625 -0.0625,0.15625 -0.0625,0.1875 0,0.046875 0.0625,0.109375 0.125,0.109375 0.09375,0 0.109375,-0.0625 0.171875,-0.21875 C 1.0625,-6.265625 1.328125,-6.4375 2.796875,-6.4375 H 3.1875 c 0.28125,0 0.28125,0.03125 0.28125,0.125 0,0.046875 -0.03125,0.171875 -0.046875,0.203125 L 2.09375,-0.78125 C 2,-0.421875 1.96875,-0.3125 0.90625,-0.3125 c -0.359375,0 -0.421875,0 -0.421875,0.1875 C 0.484375,0 0.59375,0 0.65625,0 c 0.265625,0 0.546875,-0.015625 0.8125,-0.015625 0.28125,0 0.578125,-0.015625 0.859375,-0.015625 0.28125,0 0.546875,0.015625 0.828125,0.015625 C 3.4375,-0.015625 3.734375,0 4.015625,0 c 0.09375,0 0.21875,0 0.21875,-0.203125 0,-0.109375 -0.078125,-0.109375 -0.34375,-0.109375 -0.234375,0 -0.375,0 -0.625,-0.015625 -0.296875,-0.03125 -0.375,-0.0625 -0.375,-0.21875 0,-0.015625 0,-0.0625 0.046875,-0.203125 z m 0,0"
           id="id-96f0a245-7e9b-4256-b762-ec8fb38239c3"
           style="fill:#ff0000" />
      </g>
    </g>
    <g
       fill="#000000"
       fill-opacity="1"
       id="id-cab06a46-04c6-44c0-a3aa-6c1654c31276"
       transform="translate(-148.946,-128.015)"
       style="fill:#ff0000">
      <g
         transform="translate(154.534,136.259)"
         id="g2375"
         style="fill:#ff0000">
        <path
           d="m 3.71875,-2.53125 c 0,-0.546875 -0.328125,-0.546875 -0.34375,-0.546875 -0.1875,0 -0.375,0.1875 -0.375,0.375 0,0.109375 0.0625,0.171875 0.109375,0.203125 0.125,0.109375 0.265625,0.28125 0.265625,0.5625 0,0.3125 -0.46875,1.8125 -1.296875,1.8125 -0.5625,0 -0.5625,-0.5 -0.5625,-0.625 0,-0.3125 0.125,-0.703125 0.390625,-1.359375 C 1.953125,-2.25 2,-2.359375 2,-2.46875 2,-2.84375 1.6875,-3.078125 1.34375,-3.078125 0.640625,-3.078125 0.328125,-2.125 0.328125,-2 c 0,0.078125 0.09375,0.078125 0.125,0.078125 0.09375,0 0.09375,-0.03125 0.125,-0.109375 C 0.734375,-2.59375 1.03125,-2.875 1.3125,-2.875 c 0.125,0 0.171875,0.078125 0.171875,0.234375 0,0.171875 -0.046875,0.3125 -0.125,0.46875 -0.296875,0.78125 -0.375,1.078125 -0.375,1.328125 0,0.6875 0.546875,0.90625 1.078125,0.90625 1.171875,0 1.65625,-2.015625 1.65625,-2.59375 z m 0,0"
           id="id-117d9b09-b178-4e45-a495-651e73cd48ea"
           style="fill:#ff0000" />
      </g>
    </g>
    <g
       fill="#000000"
       fill-opacity="1"
       id="id-4f387bd5-0a27-4060-b6de-d082dbd55287"
       transform="translate(-148.946,-128.015)"
       style="fill:#ff0000">
      <g
         transform="translate(162.035,134.765)"
         id="g4771"
         style="fill:#ff0000">
        <path
           d="m 6.84375,-3.265625 c 0.15625,0 0.34375,0 0.34375,-0.1875 C 7.1875,-3.65625 7,-3.65625 6.859375,-3.65625 h -5.96875 c -0.140625,0 -0.328125,0 -0.328125,0.203125 0,0.1875 0.1875,0.1875 0.328125,0.1875 z m 0.015625,1.9375 c 0.140625,0 0.328125,0 0.328125,-0.203125 0,-0.1875 -0.1875,-0.1875 -0.34375,-0.1875 H 0.890625 c -0.140625,0 -0.328125,0 -0.328125,0.1875 0,0.203125 0.1875,0.203125 0.328125,0.203125 z m 0,0"
           id="id-0977b347-7164-436b-8011-48171113cf0c"
           style="fill:#ff0000" />
      </g>
    </g>
    <g
       fill="#000000"
       fill-opacity="1"
       id="id-c3c31ffa-d851-403c-8d5c-1c9c1faf8ee3"
       transform="translate(-148.946,-128.015)"
       style="fill:#ff0000">
      <g
         transform="translate(172.554,134.765)"
         id="g5709"
         style="fill:#ff0000">
        <path
           d="m 4.578125,-3.1875 c 0,-0.796875 -0.046875,-1.59375 -0.390625,-2.328125 -0.453125,-0.96875 -1.28125,-1.125 -1.6875,-1.125 -0.609375,0 -1.328125,0.265625 -1.75,1.1875 -0.3125,0.6875 -0.359375,1.46875 -0.359375,2.265625 0,0.75 0.03125,1.640625 0.453125,2.40625 0.421875,0.796875 1.15625,1 1.640625,1 0.53125,0 1.296875,-0.203125 1.734375,-1.15625 0.3125,-0.6875 0.359375,-1.46875 0.359375,-2.25 z M 2.484375,0 C 2.09375,0 1.5,-0.25 1.328125,-1.203125 1.21875,-1.796875 1.21875,-2.71875 1.21875,-3.3125 c 0,-0.640625 0,-1.296875 0.078125,-1.828125 0.1875,-1.1875 0.9375,-1.28125 1.1875,-1.28125 0.328125,0 0.984375,0.1875 1.171875,1.171875 0.109375,0.5625 0.109375,1.3125 0.109375,1.9375 0,0.75 0,1.421875 -0.109375,2.0625 C 3.5,-0.296875 2.9375,0 2.484375,0 Z m 0,0"
           id="id-7f6c2603-d65b-4922-b366-927ecaad41a7"
           style="fill:#ff0000" />
      </g>
    </g>
  </g>
  <rect
     style="fill:#ffffff;stroke:none;stroke-width:0.184252;stroke-linecap:square;stroke-miterlimit:4.1;stroke-dasharray:1.50001, 0.749999"
     id="rect87"
     width="33.010876"
     height="8.3065004"
     x="42.804184"
     y="119.24086"
     ry="7.2232945e-07" />
  <g
     fill-opacity="1"
     id="id-53495b89-0af9-4ec9-a8ac-d6875d723313"
     transform="translate(-106.14219,-8.7741)"
     style="fill:#0000ff;stroke-width:0">
    <g
       transform="translate(148.712,134.765)"
       id="g1695"
       style="fill:#0000ff;stroke-width:0">
      <path
         d="m 4.25,-6.046875 c 0.078125,-0.28125 0.109375,-0.34375 0.234375,-0.375 0.09375,-0.015625 0.421875,-0.015625 0.625,-0.015625 1.015625,0 1.453125,0.03125 1.453125,0.8125 0,0.15625 -0.03125,0.546875 -0.078125,0.796875 0,0.046875 -0.03125,0.15625 -0.03125,0.1875 0,0.0625 0.03125,0.140625 0.125,0.140625 0.109375,0 0.125,-0.078125 0.15625,-0.234375 L 7,-6.46875 C 7.015625,-6.515625 7.015625,-6.609375 7.015625,-6.640625 7.015625,-6.75 6.921875,-6.75 6.75,-6.75 H 1.21875 c -0.234375,0 -0.25,0.015625 -0.328125,0.203125 l -0.59375,1.75 c 0,0.015625 -0.0625,0.15625 -0.0625,0.1875 0,0.046875 0.0625,0.109375 0.125,0.109375 0.09375,0 0.109375,-0.0625 0.171875,-0.21875 C 1.0625,-6.265625 1.328125,-6.4375 2.796875,-6.4375 H 3.1875 c 0.28125,0 0.28125,0.03125 0.28125,0.125 0,0.046875 -0.03125,0.171875 -0.046875,0.203125 L 2.09375,-0.78125 C 2,-0.421875 1.96875,-0.3125 0.90625,-0.3125 c -0.359375,0 -0.421875,0 -0.421875,0.1875 C 0.484375,0 0.59375,0 0.65625,0 c 0.265625,0 0.546875,-0.015625 0.8125,-0.015625 0.28125,0 0.578125,-0.015625 0.859375,-0.015625 0.28125,0 0.546875,0.015625 0.828125,0.015625 C 3.4375,-0.015625 3.734375,0 4.015625,0 c 0.09375,0 0.21875,0 0.21875,-0.203125 0,-0.109375 -0.078125,-0.109375 -0.34375,-0.109375 -0.234375,0 -0.375,0 -0.625,-0.015625 -0.296875,-0.03125 -0.375,-0.0625 -0.375,-0.21875 0,-0.015625 0,-0.0625 0.046875,-0.203125 z m 0,0"
         id="id-5febbae2-73f1-40a8-8c20-a1b036798ac9"
         style="fill:#0000ff;stroke-width:0" />
    </g>
  </g>
  <g
     fill-opacity="1"
     id="id-d6432b5c-54e8-4153-ae80-a2e1bb4f5ef0"
     transform="translate(-106.14219,-8.7741)"
     style="fill:#0000ff;stroke-width:0">
    <g
       transform="translate(154.534,136.259)"
       id="g2867"
       style="fill:#0000ff;stroke-width:0">
      <path
         d="m 3.71875,-2.53125 c 0,-0.546875 -0.328125,-0.546875 -0.34375,-0.546875 -0.1875,0 -0.375,0.1875 -0.375,0.375 0,0.109375 0.0625,0.171875 0.109375,0.203125 0.125,0.109375 0.265625,0.28125 0.265625,0.5625 0,0.3125 -0.46875,1.8125 -1.296875,1.8125 -0.5625,0 -0.5625,-0.5 -0.5625,-0.625 0,-0.3125 0.125,-0.703125 0.390625,-1.359375 C 1.953125,-2.25 2,-2.359375 2,-2.46875 2,-2.84375 1.6875,-3.078125 1.34375,-3.078125 0.640625,-3.078125 0.328125,-2.125 0.328125,-2 c 0,0.078125 0.09375,0.078125 0.125,0.078125 0.09375,0 0.09375,-0.03125 0.125,-0.109375 C 0.734375,-2.59375 1.03125,-2.875 1.3125,-2.875 c 0.125,0 0.171875,0.078125 0.171875,0.234375 0,0.171875 -0.046875,0.3125 -0.125,0.46875 -0.296875,0.78125 -0.375,1.078125 -0.375,1.328125 0,0.6875 0.546875,0.90625 1.078125,0.90625 1.171875,0 1.65625,-2.015625 1.65625,-2.59375 z m 0,0"
         id="id-20ba7090-bbbe-401b-a069-a366d14972de"
         style="fill:#0000ff;stroke-width:0" />
    </g>
  </g>
  <g
     fill-opacity="1"
     id="id-f42a4a43-ea57-4f50-90fc-561030aabc9a"
     transform="translate(-106.14219,-8.7741)"
     style="fill:#0000ff;stroke-width:0">
    <g
       transform="translate(162.035,134.765)"
       id="g8797"
       style="fill:#0000ff;stroke-width:0">
      <path
         d="m 6.84375,-3.265625 c 0.15625,0 0.34375,0 0.34375,-0.1875 C 7.1875,-3.65625 7,-3.65625 6.859375,-3.65625 h -5.96875 c -0.140625,0 -0.328125,0 -0.328125,0.203125 0,0.1875 0.1875,0.1875 0.328125,0.1875 z m 0.015625,1.9375 c 0.140625,0 0.328125,0 0.328125,-0.203125 0,-0.1875 -0.1875,-0.1875 -0.34375,-0.1875 H 0.890625 c -0.140625,0 -0.328125,0 -0.328125,0.1875 0,0.203125 0.1875,0.203125 0.328125,0.203125 z m 0,0"
         id="id-084e2c2d-415f-4dfb-9420-e67302d9d361"
         style="fill:#0000ff;stroke-width:0" />
    </g>
  </g>
  <g
     fill-opacity="1"
     id="id-8bf2dc5b-c0d4-437d-9fb1-e5a56b22b37f"
     transform="translate(-106.14219,-8.7741)"
     style="fill:#0000ff;stroke-width:0">
    <g
       transform="translate(172.551,134.765)"
       id="g6923"
       style="fill:#0000ff;stroke-width:0">
      <path
         d="M 5.0625,-2.703125 C 4.53125,-3.375 4.40625,-3.53125 4.09375,-3.78125 c -0.5625,-0.453125 -1.109375,-0.625 -1.625,-0.625 -1.15625,0 -1.921875,1.09375 -1.921875,2.265625 0,1.140625 0.734375,2.25 1.890625,2.25 1.140625,0 1.96875,-0.90625 2.453125,-1.703125 0.546875,0.671875 0.65625,0.828125 0.96875,1.078125 0.5625,0.453125 1.125,0.625 1.625,0.625 1.171875,0 1.921875,-1.09375 1.921875,-2.265625 0,-1.140625 -0.734375,-2.25 -1.875,-2.25 -1.15625,0 -1.984375,0.90625 -2.46875,1.703125 z m 0.265625,0.34375 c 0.40625,-0.71875 1.140625,-1.734375 2.265625,-1.734375 1.0625,0 1.59375,1.046875 1.59375,1.9375 0,0.984375 -0.671875,1.78125 -1.546875,1.78125 C 7.0625,-0.375 6.625,-0.78125 6.40625,-1 6.15625,-1.265625 5.9375,-1.578125 5.328125,-2.359375 Z m -0.6875,0.421875 c -0.40625,0.71875 -1.15625,1.734375 -2.28125,1.734375 -1.046875,0 -1.59375,-1.046875 -1.59375,-1.9375 0,-0.984375 0.671875,-1.78125 1.546875,-1.78125 0.578125,0 1.03125,0.40625 1.234375,0.625 0.25,0.265625 0.484375,0.578125 1.09375,1.359375 z m 0,0"
         id="id-6f55a734-db44-46bf-bc15-8f7abf96333c"
         style="fill:#0000ff;stroke-width:0" />
    </g>
  </g>
  <g
     id="g91"
     transform="rotate(12.549664,159.10528,-130.03311)">
    <rect
       style="fill:#ffffff;stroke:none;stroke-width:0.184252;stroke-linecap:square;stroke-miterlimit:4.1;stroke-dasharray:1.5, 0.749999"
       id="rect91"
       width="14.831543"
       height="6.2050781"
       x="215.30603"
       y="24.314911"
       ry="7.2232945e-07" />
    <text
       xml:space="preserve"
       style="font-size:9px;line-height:0.95;font-family:'Times New Roman';-inkscape-font-specification:'Times New Roman, ';text-align:center;text-anchor:middle;stroke-width:0.75"
       x="222.85583"
       y="30.396942"
       id="text89"><tspan
         sodipodi:role="line"
         style="stroke-width:0.75"
         x="222.85583"
         y="30.396942"
         id="tspan90">0.05</tspan></text>
  </g>
  <g
     id="g102"
     transform="rotate(23.17113,160.36885,34.029263)">
    <rect
       style="fill:#ffffff;stroke:none;stroke-width:0.184252;stroke-linecap:square;stroke-miterlimit:4.1;stroke-dasharray:1.5, 0.749999"
       id="rect92"
       width="14.831543"
       height="6.2050781"
       x="157.15907"
       y="32.878551"
       ry="7.2232945e-07" />
    <text
       xml:space="preserve"
       style="font-size:9px;line-height:0.95;font-family:'Times New Roman';-inkscape-font-specification:'Times New Roman, ';text-align:center;text-anchor:middle;stroke-width:0.75"
       x="164.70888"
       y="38.960583"
       id="text92"><tspan
         sodipodi:role="line"
         style="stroke-width:0.75"
         x="164.70888"
         y="38.960583"
         id="tspan92">0.1</tspan></text>
  </g>
  <g
     id="g103"
     transform="rotate(32.914601,157.55496,-48.409037)">
    <rect
       style="fill:#ffffff;stroke:none;stroke-width:0.184252;stroke-linecap:square;stroke-miterlimit:4.1;stroke-dasharray:1.5, 0.749999"
       id="rect93"
       width="14.831543"
       height="6.2050781"
       x="215.30603"
       y="24.314911"
       ry="7.2232945e-07" />
    <text
       xml:space="preserve"
       style="font-size:9px;line-height:0.95;font-family:'Times New Roman';-inkscape-font-specification:'Times New Roman, ';text-align:center;text-anchor:middle;stroke-width:0.75"
       x="222.85583"
       y="30.396942"
       id="text93"><tspan
         sodipodi:role="line"
         style="stroke-width:0.75"
         x="222.85583"
         y="30.396942"
         id="tspan93">0.2</tspan></text>
  </g>
  <g
     id="g104"
     transform="rotate(33.360067,155.32228,-89.322663)">
    <rect
       style="fill:#ffffff;stroke:none;stroke-width:0.184252;stroke-linecap:square;stroke-miterlimit:4.1;stroke-dasharray:1.5, 0.749999"
       id="rect103"
       width="14.831543"
       height="6.2050781"
       x="215.30603"
       y="24.314911"
       ry="7.2232945e-07" />
    <text
       xml:space="preserve"
       style="font-size:9px;line-height:0.95;font-family:'Times New Roman';-inkscape-font-specification:'Times New Roman, ';text-align:center;text-anchor:middle;stroke-width:0.75"
       x="222.85583"
       y="30.396942"
       id="text103"><tspan
         sodipodi:role="line"
         style="stroke-width:0.75"
         x="222.85583"
         y="30.396942"
         id="tspan103">0.3</tspan></text>
  </g>
  <g
     id="g94"
     transform="translate(-91.633882,23.239343)">
    <g
       id="g105"
       transform="rotate(50.724902,222.7218,27.41745)">
      <rect
         style="fill:#ffffff;stroke:none;stroke-width:0.184252;stroke-linecap:square;stroke-miterlimit:4.1;stroke-dasharray:1.5, 0.749999"
         id="rect94"
         width="14.831543"
         height="6.2050781"
         x="215.30603"
         y="24.314911"
         ry="7.2232945e-07" />
      <text
         xml:space="preserve"
         style="font-size:9px;line-height:0.95;font-family:'Times New Roman';-inkscape-font-specification:'Times New Roman, ';text-align:center;text-anchor:middle;stroke-width:0.75"
         x="222.85583"
         y="30.396942"
         id="text94"><tspan
           sodipodi:role="line"
           style="stroke-width:0.75"
           x="222.85583"
           y="30.396942"
           id="tspan94">0.4</tspan></text>
    </g>
  </g>
  <g
     id="g95"
     transform="rotate(21.86652,94.59561,-237.91521)">
    <g
       id="g106"
       transform="rotate(50.061131,222.7218,27.417448)">
      <rect
         style="fill:#ffffff;stroke:none;stroke-width:0.184252;stroke-linecap:square;stroke-miterlimit:4.1;stroke-dasharray:1.5, 0.749999"
         id="rect95"
         width="14.831543"
         height="6.2050781"
         x="215.30603"
         y="24.314911"
         ry="7.2232945e-07" />
      <text
         xml:space="preserve"
         style="font-size:9px;line-height:0.95;font-family:'Times New Roman';-inkscape-font-specification:'Times New Roman, ';text-align:center;text-anchor:middle;stroke-width:0.75"
         x="222.85583"
         y="30.396942"
         id="text95"><tspan
           sodipodi:role="line"
           style="stroke-width:0.75"
           x="222.85583"
           y="30.396942"
           id="tspan95">0.5</tspan></text>
    </g>
  </g>
  <g
     id="g96"
     transform="translate(-123.05921,32.823476)">
    <g
       id="g107"
       transform="rotate(85.941213,222.7218,27.41745)">
      <rect
         style="fill:#ffffff;stroke:none;stroke-width:0.184252;stroke-linecap:square;stroke-miterlimit:4.1;stroke-dasharray:1.5, 0.749999"
         id="rect96"
         width="14.831543"
         height="6.2050781"
         x="215.30603"
         y="24.314911"
         ry="7.2232945e-07" />
      <text
         xml:space="preserve"
         style="font-size:9px;line-height:0.95;font-family:'Times New Roman';-inkscape-font-specification:'Times New Roman, ';text-align:center;text-anchor:middle;stroke-width:0.75"
         x="222.85583"
         y="30.396942"
         id="text96"><tspan
           sodipodi:role="line"
           style="stroke-width:0.75"
           x="222.85583"
           y="30.396942"
           id="tspan96">0.6</tspan></text>
    </g>
  </g>
  <g
     id="g97"
     transform="translate(-135.86546,34.6205)">
    <g
       id="g108"
       transform="rotate(90.208849,222.7218,27.41745)">
      <rect
         style="fill:#ffffff;stroke:none;stroke-width:0.184252;stroke-linecap:square;stroke-miterlimit:4.1;stroke-dasharray:1.5, 0.749999"
         id="rect97"
         width="14.831543"
         height="6.2050781"
         x="215.30603"
         y="24.314911"
         ry="7.2232945e-07" />
      <text
         xml:space="preserve"
         style="font-size:9px;line-height:0.95;font-family:'Times New Roman';-inkscape-font-specification:'Times New Roman, ';text-align:center;text-anchor:middle;stroke-width:0.75"
         x="222.85583"
         y="30.396942"
         id="text97"><tspan
           sodipodi:role="line"
           style="stroke-width:0.75"
           x="222.85583"
           y="30.396942"
           id="tspan97">0.7</tspan></text>
    </g>
  </g>
  <g
     id="g98"
     transform="translate(-163.96732,37.96455)">
    <g
       id="g110"
       transform="rotate(90,224.41975,29.365397)">
      <rect
         style="fill:#ffffff;stroke:none;stroke-width:0.184252;stroke-linecap:square;stroke-miterlimit:4.1;stroke-dasharray:1.5, 0.749999"
         id="rect98"
         width="14.831543"
         height="6.2050781"
         x="215.30603"
         y="24.314911"
         ry="7.2232945e-07" />
      <text
         xml:space="preserve"
         style="font-size:9px;line-height:0.95;font-family:'Times New Roman';-inkscape-font-specification:'Times New Roman, ';text-align:center;text-anchor:middle;stroke-width:0.75"
         x="222.85583"
         y="30.396942"
         id="text98"><tspan
           sodipodi:role="line"
           style="stroke-width:0.75"
           x="222.85583"
           y="30.396942"
           id="tspan98">1</tspan></text>
    </g>
  </g>
  <g
     id="g99"
     transform="translate(-146.00297,36.417525)">
    <g
       id="g109"
       transform="rotate(92.837913,222.7218,27.41745)">
      <rect
         style="fill:#ffffff;stroke:none;stroke-width:0.184252;stroke-linecap:square;stroke-miterlimit:4.1;stroke-dasharray:1.5, 0.749999"
         id="rect99"
         width="14.831543"
         height="6.2050781"
         x="215.30603"
         y="24.314911"
         ry="7.2232945e-07" />
      <text
         xml:space="preserve"
         style="font-size:9px;line-height:0.95;font-family:'Times New Roman';-inkscape-font-specification:'Times New Roman, ';text-align:center;text-anchor:middle;stroke-width:0.75"
         x="222.85583"
         y="30.396942"
         id="text99"><tspan
           sodipodi:role="line"
           style="stroke-width:0.75"
           x="222.85583"
           y="30.396942"
           id="tspan99">0.8</tspan></text>
    </g>
  </g>
</svg>
