<?xml version="1.0" encoding="UTF-8" standalone="no"?>
<!-- Created with Inkscape (http://www.inkscape.org/) -->

<svg
   width="2in"
   height="1.7in"
   viewBox="0 0 50.800001 43.180001"
   version="1.1"
   id="svg1"
   inkscape:version="1.4 (86a8ad7, 2024-10-11)"
   sodipodi:docname="CSL.svg"
   xmlns:inkscape="http://www.inkscape.org/namespaces/inkscape"
   xmlns:sodipodi="http://sodipodi.sourceforge.net/DTD/sodipodi-0.dtd"
   xmlns="http://www.w3.org/2000/svg"
   xmlns:svg="http://www.w3.org/2000/svg"
   xmlns:ns1="http://www.iki.fi/pav/software/textext/">
  <sodipodi:namedview
     id="namedview1"
     pagecolor="#ffffff"
     bordercolor="#111111"
     borderopacity="1"
     inkscape:showpageshadow="0"
     inkscape:pageopacity="0"
     inkscape:pagecheckerboard="1"
     inkscape:deskcolor="#d1d1d1"
     inkscape:document-units="mm"
     inkscape:zoom="3.0589312"
     inkscape:cx="56.065334"
     inkscape:cy="111.96721"
     inkscape:window-width="1536"
     inkscape:window-height="796"
     inkscape:window-x="973"
     inkscape:window-y="1077"
     inkscape:window-maximized="1"
     inkscape:current-layer="layer1"
     showguides="false" />
  <defs
     id="defs1">
    <marker
       style="overflow:visible"
       id="marker29"
       refX="0"
       refY="0"
       orient="auto"
       inkscape:stockid="Square"
       markerWidth="1"
       markerHeight="1"
       viewBox="0 0 1 1"
       inkscape:isstock="true"
       inkscape:collect="always"
       preserveAspectRatio="xMidYMid">
      <path
         transform="scale(0.5)"
         style="fill:context-stroke;fill-rule:evenodd;stroke:none"
         d="M -5,-5 V 5 H 5 V -5 Z"
         id="path29" />
    </marker>
    <marker
       style="overflow:visible"
       id="marker28"
       refX="0"
       refY="0"
       orient="auto-start-reverse"
       inkscape:stockid="Wide arrow"
       markerWidth="1"
       markerHeight="1"
       viewBox="0 0 1 1"
       inkscape:isstock="true"
       inkscape:collect="always"
       preserveAspectRatio="xMidYMid">
      <path
         style="fill:none;stroke:context-stroke;stroke-width:1;stroke-linecap:butt"
         d="M 3,-3 0,0 3,3"
         transform="rotate(180,0.125,0)"
         sodipodi:nodetypes="ccc"
         id="path28" />
    </marker>
    <marker
       style="overflow:visible"
       id="marker27"
       refX="0"
       refY="0"
       orient="auto"
       inkscape:stockid="Dot"
       markerWidth="1"
       markerHeight="1"
       viewBox="0 0 1 1"
       inkscape:isstock="true"
       inkscape:collect="always"
       preserveAspectRatio="xMidYMid">
      <path
         transform="scale(0.5)"
         style="fill:context-stroke;fill-rule:evenodd;stroke:none"
         d="M 5,0 C 5,2.76 2.76,5 0,5 -2.76,5 -5,2.76 -5,0 c 0,-2.76 2.3,-5 5,-5 2.76,0 5,2.24 5,5 z"
         sodipodi:nodetypes="sssss"
         id="path27" />
    </marker>
    <marker
       style="overflow:visible"
       id="ArrowWide"
       refX="0"
       refY="0"
       orient="auto-start-reverse"
       inkscape:stockid="Wide arrow"
       markerWidth="1"
       markerHeight="1"
       viewBox="0 0 1 1"
       inkscape:isstock="true"
       inkscape:collect="always"
       preserveAspectRatio="xMidYMid">
      <path
         style="fill:none;stroke:context-stroke;stroke-width:1;stroke-linecap:butt"
         d="M 3,-3 0,0 3,3"
         transform="rotate(180,0.125,0)"
         sodipodi:nodetypes="ccc"
         id="path19" />
    </marker>
    <marker
       style="overflow:visible"
       id="Square"
       refX="0"
       refY="0"
       orient="auto"
       inkscape:stockid="Square"
       markerWidth="1"
       markerHeight="1"
       viewBox="0 0 1 1"
       inkscape:isstock="true"
       inkscape:collect="always"
       preserveAspectRatio="xMidYMid">
      <path
         transform="scale(0.5)"
         style="fill:context-stroke;fill-rule:evenodd;stroke:none"
         d="M -5,-5 V 5 H 5 V -5 Z"
         id="path18" />
    </marker>
    <marker
       style="overflow:visible"
       id="Dot"
       refX="0"
       refY="0"
       orient="auto"
       inkscape:stockid="Dot"
       markerWidth="1"
       markerHeight="1"
       viewBox="0 0 1 1"
       inkscape:isstock="true"
       inkscape:collect="always"
       preserveAspectRatio="xMidYMid">
      <path
         transform="scale(0.5)"
         style="fill:context-stroke;fill-rule:evenodd;stroke:none"
         d="M 5,0 C 5,2.76 2.76,5 0,5 -2.76,5 -5,2.76 -5,0 c 0,-2.76 2.3,-5 5,-5 2.76,0 5,2.24 5,5 z"
         sodipodi:nodetypes="sssss"
         id="path17" />
    </marker>
    <marker
       style="overflow:visible"
       id="DartArrow"
       refX="0"
       refY="0"
       orient="auto-start-reverse"
       inkscape:stockid="Dart arrow"
       markerWidth="1"
       markerHeight="1"
       viewBox="0 0 1 1"
       inkscape:isstock="true"
       inkscape:collect="always"
       preserveAspectRatio="xMidYMid">
      <path
         style="fill:context-stroke;fill-rule:evenodd;stroke:none"
         d="M 0,0 5,-5 -12.5,0 5,5 Z"
         transform="scale(-0.5)"
         id="path6" />
    </marker>
  </defs>
  <g
     inkscape:label="Layer 1"
     inkscape:groupmode="layer"
     id="layer1">
    <path
       style="fill:none;stroke:#000000;stroke-width:0.264582px;stroke-linecap:butt;stroke-linejoin:miter;stroke-opacity:1;marker-start:url(#DartArrow);marker-end:url(#DartArrow)"
       d="M 2.3875853,1.8173434 V 19.05618 H 47.810119"
       id="path1"
       sodipodi:nodetypes="ccc" />
    <path
       style="fill:none;stroke:#000000;stroke-width:0.264582px;stroke-linecap:butt;stroke-linejoin:miter;stroke-opacity:1;marker-start:url(#DartArrow);marker-end:url(#DartArrow)"
       d="M 2.3875853,21.538337 V 38.863671 H 47.810119"
       id="path3"
       sodipodi:nodetypes="ccc" />
    <g
       transform="matrix(0.352778,0,0,0.352778,0.27260997,0.56774011)"
       ns1:version="1.10.2"
       ns1:texconverter="pdflatex"
       ns1:pdfconverter="inkscape"
       ns1:text="$q$"
       ns1:preamble="C:\Users\zamcr\AppData\Roaming\inkscape\extensions\textext\default_packages.tex"
       ns1:scale="1.0"
       ns1:alignment="middle center"
       ns1:stroke-to-path="0"
       ns1:inkscapeversion="1.4"
       ns1:jacobian_sqrt="0.352778"
       id="g4">
      <defs
         id="id-520aa200-bd40-43b2-85a1-677db431c9d2">
        <g
           id="id-6bb39867-7a98-4a4d-9d14-5dd8ced9ab26">
          <g
             id="id-e5b9ee0c-4c1a-4be6-b70c-1ae663730f71">
            <path
               d="m 4.5,-4.296875 c 0,-0.046875 -0.03125,-0.09375 -0.09375,-0.09375 -0.109375,0 -0.515625,0.390625 -0.671875,0.6875 C 3.515625,-4.25 3.125,-4.40625 2.796875,-4.40625 c -1.171875,0 -2.390625,1.46875 -2.390625,2.921875 0,0.96875 0.578125,1.59375 1.3125,1.59375 0.421875,0 0.8125,-0.234375 1.171875,-0.59375 -0.09375,0.34375 -0.421875,1.6875 -0.453125,1.78125 -0.078125,0.28125 -0.15625,0.3125 -0.71875,0.328125 -0.125,0 -0.21875,0 -0.21875,0.203125 0,0 0,0.109375 0.125,0.109375 0.3125,0 0.671875,-0.03125 1,-0.03125 0.328125,0 0.6875,0.03125 1.03125,0.03125 0.046875,0 0.171875,0 0.171875,-0.203125 C 3.828125,1.625 3.734375,1.625 3.5625,1.625 3.09375,1.625 3.09375,1.5625 3.09375,1.46875 3.09375,1.390625 3.109375,1.328125 3.125,1.25 Z m -2.75,4.1875 c -0.609375,0 -0.640625,-0.765625 -0.640625,-0.9375 0,-0.484375 0.28125,-1.5625 0.453125,-1.984375 0.3125,-0.734375 0.828125,-1.15625 1.234375,-1.15625 0.65625,0 0.796875,0.8125 0.796875,0.875 0,0.0625 -0.546875,2.25 -0.578125,2.28125 C 2.859375,-0.75 2.296875,-0.109375 1.75,-0.109375 Z m 0,0"
               id="id-32c13c88-992d-4bf3-aad8-39b7f4557ff4" />
          </g>
        </g>
      </defs>
      <g
         fill="#000000"
         fill-opacity="1"
         id="id-f1b2802e-9381-458b-b00c-c9e9a3c760e3"
         transform="translate(-149.118,-130.359)">
        <g
           transform="translate(148.712,134.765)"
           id="g3">
          <path
             d="m 4.5,-4.296875 c 0,-0.046875 -0.03125,-0.09375 -0.09375,-0.09375 -0.109375,0 -0.515625,0.390625 -0.671875,0.6875 C 3.515625,-4.25 3.125,-4.40625 2.796875,-4.40625 c -1.171875,0 -2.390625,1.46875 -2.390625,2.921875 0,0.96875 0.578125,1.59375 1.3125,1.59375 0.421875,0 0.8125,-0.234375 1.171875,-0.59375 -0.09375,0.34375 -0.421875,1.6875 -0.453125,1.78125 -0.078125,0.28125 -0.15625,0.3125 -0.71875,0.328125 -0.125,0 -0.21875,0 -0.21875,0.203125 0,0 0,0.109375 0.125,0.109375 0.3125,0 0.671875,-0.03125 1,-0.03125 0.328125,0 0.6875,0.03125 1.03125,0.03125 0.046875,0 0.171875,0 0.171875,-0.203125 C 3.828125,1.625 3.734375,1.625 3.5625,1.625 3.09375,1.625 3.09375,1.5625 3.09375,1.46875 3.09375,1.390625 3.109375,1.328125 3.125,1.25 Z m -2.75,4.1875 c -0.609375,0 -0.640625,-0.765625 -0.640625,-0.9375 0,-0.484375 0.28125,-1.5625 0.453125,-1.984375 0.3125,-0.734375 0.828125,-1.15625 1.234375,-1.15625 0.65625,0 0.796875,0.8125 0.796875,0.875 0,0.0625 -0.546875,2.25 -0.578125,2.28125 C 2.859375,-0.75 2.296875,-0.109375 1.75,-0.109375 Z m 0,0"
             id="id-69da2f2f-ae59-4705-b899-b5a632257dc7" />
        </g>
      </g>
    </g>
    <g
       transform="matrix(0.352778,0,0,0.352778,47.348034,18.79263)"
       ns1:version="1.10.2"
       ns1:texconverter="pdflatex"
       ns1:pdfconverter="inkscape"
       ns1:text="$p'$"
       ns1:preamble="C:\Users\zamcr\AppData\Roaming\inkscape\extensions\textext\default_packages.tex"
       ns1:scale="1.0"
       ns1:alignment="middle center"
       ns1:stroke-to-path="0"
       ns1:inkscapeversion="1.4"
       ns1:jacobian_sqrt="0.352778"
       id="g7">
      <defs
         id="id-d0e7569d-b385-4bcf-8cbd-d7adbb8d6598">
        <g
           id="id-3cd441fe-e3f7-4419-a81d-a60612868aad">
          <g
             id="id-a3118234-bde1-4d31-b320-05defd739fde">
            <path
               d="M 0.453125,1.21875 C 0.375,1.5625 0.34375,1.625 -0.09375,1.625 c -0.109375,0 -0.21875,0 -0.21875,0.1875 0,0.078125 0.046875,0.125 0.125,0.125 0.265625,0 0.5625,-0.03125 0.828125,-0.03125 0.34375,0 0.671875,0.03125 1,0.03125 0.046875,0 0.171875,0 0.171875,-0.203125 C 1.8125,1.625 1.71875,1.625 1.578125,1.625 c -0.5,0 -0.5,-0.0625 -0.5,-0.15625 0,-0.125 0.421875,-1.75 0.484375,-2 0.125,0.296875 0.40625,0.640625 0.921875,0.640625 1.15625,0 2.40625,-1.453125 2.40625,-2.921875 0,-0.9375 -0.578125,-1.59375 -1.328125,-1.59375 -0.5,0 -0.984375,0.359375 -1.3125,0.75 -0.09375,-0.546875 -0.53125,-0.75 -0.890625,-0.75 -0.46875,0 -0.65625,0.390625 -0.734375,0.5625 C 0.4375,-3.5 0.3125,-2.90625 0.3125,-2.875 c 0,0.109375 0.09375,0.109375 0.109375,0.109375 0.109375,0 0.109375,-0.015625 0.171875,-0.234375 0.171875,-0.703125 0.375,-1.1875 0.734375,-1.1875 0.171875,0 0.3125,0.078125 0.3125,0.453125 0,0.234375 -0.03125,0.34375 -0.078125,0.515625 z m 1.75,-4.328125 C 2.265625,-3.375 2.546875,-3.65625 2.71875,-3.8125 c 0.359375,-0.296875 0.640625,-0.375 0.8125,-0.375 0.390625,0 0.640625,0.34375 0.640625,0.9375 0,0.59375 -0.328125,1.734375 -0.515625,2.109375 -0.34375,0.703125 -0.8125,1.03125 -1.1875,1.03125 C 1.8125,-0.109375 1.6875,-0.9375 1.6875,-1 c 0,-0.015625 0,-0.03125 0.03125,-0.15625 z m 0,0"
               id="id-5240965f-3877-41a7-8794-010a3026ebe4" />
          </g>
          <g
             id="id-78b8d41c-3fa5-46de-866f-ce5f3f60c9c1">
            <path
               d="m 2.015625,-3.296875 c 0.0625,-0.109375 0.0625,-0.171875 0.0625,-0.21875 0,-0.21875 -0.1875,-0.375 -0.40625,-0.375 -0.265625,0 -0.34375,0.21875 -0.375,0.328125 L 0.375,-0.546875 c -0.015625,0.015625 -0.046875,0.09375 -0.046875,0.109375 0,0.078125 0.21875,0.15625 0.28125,0.15625 0.046875,0 0.046875,-0.015625 0.09375,-0.125 z m 0,0"
               id="id-efb5f014-2896-4f68-8a56-363ddf0c1e46" />
          </g>
        </g>
      </defs>
      <g
         fill="#000000"
         fill-opacity="1"
         id="id-7351bff9-1c78-40a2-a5dd-483ca0f33b14"
         transform="translate(-148.4,-127.258)">
        <g
           transform="translate(148.712,134.765)"
           id="g5">
          <path
             d="M 0.453125,1.21875 C 0.375,1.5625 0.34375,1.625 -0.09375,1.625 c -0.109375,0 -0.21875,0 -0.21875,0.1875 0,0.078125 0.046875,0.125 0.125,0.125 0.265625,0 0.5625,-0.03125 0.828125,-0.03125 0.34375,0 0.671875,0.03125 1,0.03125 0.046875,0 0.171875,0 0.171875,-0.203125 C 1.8125,1.625 1.71875,1.625 1.578125,1.625 c -0.5,0 -0.5,-0.0625 -0.5,-0.15625 0,-0.125 0.421875,-1.75 0.484375,-2 0.125,0.296875 0.40625,0.640625 0.921875,0.640625 1.15625,0 2.40625,-1.453125 2.40625,-2.921875 0,-0.9375 -0.578125,-1.59375 -1.328125,-1.59375 -0.5,0 -0.984375,0.359375 -1.3125,0.75 -0.09375,-0.546875 -0.53125,-0.75 -0.890625,-0.75 -0.46875,0 -0.65625,0.390625 -0.734375,0.5625 C 0.4375,-3.5 0.3125,-2.90625 0.3125,-2.875 c 0,0.109375 0.09375,0.109375 0.109375,0.109375 0.109375,0 0.109375,-0.015625 0.171875,-0.234375 0.171875,-0.703125 0.375,-1.1875 0.734375,-1.1875 0.171875,0 0.3125,0.078125 0.3125,0.453125 0,0.234375 -0.03125,0.34375 -0.078125,0.515625 z m 1.75,-4.328125 C 2.265625,-3.375 2.546875,-3.65625 2.71875,-3.8125 c 0.359375,-0.296875 0.640625,-0.375 0.8125,-0.375 0.390625,0 0.640625,0.34375 0.640625,0.9375 0,0.59375 -0.328125,1.734375 -0.515625,2.109375 -0.34375,0.703125 -0.8125,1.03125 -1.1875,1.03125 C 1.8125,-0.109375 1.6875,-0.9375 1.6875,-1 c 0,-0.015625 0,-0.03125 0.03125,-0.15625 z m 0,0"
             id="id-e2d693b8-9b01-4701-ace9-388d84d7b65b" />
        </g>
      </g>
      <g
         fill="#000000"
         fill-opacity="1"
         id="id-528b61e9-a554-4478-9d17-dadeddd64cf9"
         transform="translate(-148.4,-127.258)">
        <g
           transform="translate(153.725,131.149)"
           id="g6">
          <path
             d="m 2.015625,-3.296875 c 0.0625,-0.109375 0.0625,-0.171875 0.0625,-0.21875 0,-0.21875 -0.1875,-0.375 -0.40625,-0.375 -0.265625,0 -0.34375,0.21875 -0.375,0.328125 L 0.375,-0.546875 c -0.015625,0.015625 -0.046875,0.09375 -0.046875,0.109375 0,0.078125 0.21875,0.15625 0.28125,0.15625 0.046875,0 0.046875,-0.015625 0.09375,-0.125 z m 0,0"
             id="id-6940912d-69f5-476f-865d-1a85aa0c0685" />
        </g>
      </g>
    </g>
    <g
       transform="matrix(0.352778,0,0,0.352778,0.23117382,21.496245)"
       ns1:version="1.10.2"
       ns1:texconverter="pdflatex"
       ns1:pdfconverter="inkscape"
       ns1:text="$e$"
       ns1:preamble="C:\Users\zamcr\AppData\Roaming\inkscape\extensions\textext\default_packages.tex"
       ns1:scale="1.0"
       ns1:alignment="middle center"
       ns1:stroke-to-path="0"
       ns1:inkscapeversion="1.4"
       ns1:jacobian_sqrt="0.352778"
       id="g9">
      <defs
         id="id-d9bdcbf8-213c-401a-ae83-a4f52adbc58c">
        <g
           id="id-3de62102-9de2-4634-91f2-fa7825635e34">
          <g
             id="id-edced769-b43c-4514-b158-4ca8398f7b56">
            <path
               d="m 1.859375,-2.296875 c 0.296875,0 1.03125,-0.03125 1.53125,-0.234375 0.703125,-0.296875 0.75,-0.890625 0.75,-1.03125 0,-0.4375 -0.375,-0.84375 -1.0625,-0.84375 -1.109375,0 -2.625,0.96875 -2.625,2.71875 0,1.015625 0.59375,1.796875 1.578125,1.796875 1.421875,0 2.25,-1.0625 2.25,-1.171875 0,-0.0625 -0.046875,-0.140625 -0.109375,-0.140625 -0.0625,0 -0.078125,0.03125 -0.140625,0.109375 -0.78125,0.984375 -1.875,0.984375 -1.984375,0.984375 -0.78125,0 -0.875,-0.84375 -0.875,-1.15625 0,-0.125 0.015625,-0.421875 0.15625,-1.03125 z m -0.46875,-0.21875 C 1.78125,-4.03125 2.8125,-4.1875 3.078125,-4.1875 c 0.453125,0 0.734375,0.296875 0.734375,0.625 0,1.046875 -1.59375,1.046875 -2.015625,1.046875 z m 0,0"
               id="id-3e3cc11a-8b9a-46d3-8ed3-c91f8895b7d2" />
          </g>
        </g>
      </defs>
      <g
         fill="#000000"
         fill-opacity="1"
         id="id-65f91ac1-18da-406e-93dd-d44efd291198"
         transform="translate(-149.165,-130.359)">
        <g
           transform="translate(148.712,134.765)"
           id="g8">
          <path
             d="m 1.859375,-2.296875 c 0.296875,0 1.03125,-0.03125 1.53125,-0.234375 0.703125,-0.296875 0.75,-0.890625 0.75,-1.03125 0,-0.4375 -0.375,-0.84375 -1.0625,-0.84375 -1.109375,0 -2.625,0.96875 -2.625,2.71875 0,1.015625 0.59375,1.796875 1.578125,1.796875 1.421875,0 2.25,-1.0625 2.25,-1.171875 0,-0.0625 -0.046875,-0.140625 -0.109375,-0.140625 -0.0625,0 -0.078125,0.03125 -0.140625,0.109375 -0.78125,0.984375 -1.875,0.984375 -1.984375,0.984375 -0.78125,0 -0.875,-0.84375 -0.875,-1.15625 0,-0.125 0.015625,-0.421875 0.15625,-1.03125 z m -0.46875,-0.21875 C 1.78125,-4.03125 2.8125,-4.1875 3.078125,-4.1875 c 0.453125,0 0.734375,0.296875 0.734375,0.625 0,1.046875 -1.59375,1.046875 -2.015625,1.046875 z m 0,0"
             id="id-f7c6d56a-2711-4486-8f11-9082506de69e" />
        </g>
      </g>
    </g>
    <g
       transform="matrix(0.352778,0,0,0.352778,44.88185,39.592403)"
       ns1:version="1.10.2"
       ns1:texconverter="pdflatex"
       ns1:pdfconverter="inkscape"
       ns1:text="$\\ln p'$"
       ns1:preamble="C:\Users\zamcr\AppData\Roaming\inkscape\extensions\textext\default_packages.tex"
       ns1:scale="1.0"
       ns1:alignment="middle center"
       ns1:stroke-to-path="0"
       ns1:inkscapeversion="1.4"
       ns1:jacobian_sqrt="0.352778"
       id="g14">
      <defs
         id="id-34bb8018-ed8c-4300-b354-05d338474ebd">
        <g
           id="id-036d2756-380f-4040-a6c4-6df53594791c">
          <g
             id="id-a94fefe5-c54e-458c-b892-aae77a8a947d">
            <path
               d="M 1.765625,-6.921875 0.328125,-6.8125 V -6.5 c 0.703125,0 0.78125,0.0625 0.78125,0.5625 V -0.75 c 0,0.4375 -0.109375,0.4375 -0.78125,0.4375 V 0 C 0.65625,-0.015625 1.1875,-0.03125 1.4375,-0.03125 c 0.25,0 0.734375,0.015625 1.109375,0.03125 v -0.3125 c -0.671875,0 -0.78125,0 -0.78125,-0.4375 z m 0,0"
               id="id-98a08fa2-52cd-4995-8074-1b50d1997d79" />
          </g>
          <g
             id="id-ebdcf5b3-3c40-4c89-b7f3-404faf339246">
            <path
               d="M 1.09375,-3.421875 V -0.75 c 0,0.4375 -0.109375,0.4375 -0.78125,0.4375 V 0 c 0.359375,-0.015625 0.859375,-0.03125 1.140625,-0.03125 0.25,0 0.765625,0.015625 1.109375,0.03125 v -0.3125 c -0.671875,0 -0.78125,0 -0.78125,-0.4375 V -2.59375 C 1.78125,-3.625 2.5,-4.1875 3.125,-4.1875 c 0.640625,0 0.75,0.53125 0.75,1.109375 V -0.75 c 0,0.4375 -0.109375,0.4375 -0.78125,0.4375 V 0 c 0.34375,-0.015625 0.859375,-0.03125 1.125,-0.03125 0.25,0 0.78125,0.015625 1.109375,0.03125 v -0.3125 c -0.515625,0 -0.765625,0 -0.765625,-0.296875 v -1.90625 c 0,-0.859375 0,-1.15625 -0.3125,-1.515625 -0.140625,-0.171875 -0.46875,-0.375 -1.046875,-0.375 C 2.46875,-4.40625 2,-3.984375 1.71875,-3.359375 V -4.40625 L 0.3125,-4.296875 v 0.3125 c 0.703125,0 0.78125,0.0625 0.78125,0.5625 z m 0,0"
               id="id-81630dcb-84b7-4652-b58b-9d7c0d42e5ad" />
          </g>
          <g
             id="id-987737ce-ea9d-44eb-85af-f64ed6210d4e">
            <path
               d="M 0.453125,1.21875 C 0.375,1.5625 0.34375,1.625 -0.09375,1.625 c -0.109375,0 -0.21875,0 -0.21875,0.1875 0,0.078125 0.046875,0.125 0.125,0.125 0.265625,0 0.5625,-0.03125 0.828125,-0.03125 0.34375,0 0.671875,0.03125 1,0.03125 0.046875,0 0.171875,0 0.171875,-0.203125 C 1.8125,1.625 1.71875,1.625 1.578125,1.625 c -0.5,0 -0.5,-0.0625 -0.5,-0.15625 0,-0.125 0.421875,-1.75 0.484375,-2 0.125,0.296875 0.40625,0.640625 0.921875,0.640625 1.15625,0 2.40625,-1.453125 2.40625,-2.921875 0,-0.9375 -0.578125,-1.59375 -1.328125,-1.59375 -0.5,0 -0.984375,0.359375 -1.3125,0.75 -0.09375,-0.546875 -0.53125,-0.75 -0.890625,-0.75 -0.46875,0 -0.65625,0.390625 -0.734375,0.5625 C 0.4375,-3.5 0.3125,-2.90625 0.3125,-2.875 c 0,0.109375 0.09375,0.109375 0.109375,0.109375 0.109375,0 0.109375,-0.015625 0.171875,-0.234375 0.171875,-0.703125 0.375,-1.1875 0.734375,-1.1875 0.171875,0 0.3125,0.078125 0.3125,0.453125 0,0.234375 -0.03125,0.34375 -0.078125,0.515625 z m 1.75,-4.328125 C 2.265625,-3.375 2.546875,-3.65625 2.71875,-3.8125 c 0.359375,-0.296875 0.640625,-0.375 0.8125,-0.375 0.390625,0 0.640625,0.34375 0.640625,0.9375 0,0.59375 -0.328125,1.734375 -0.515625,2.109375 -0.34375,0.703125 -0.8125,1.03125 -1.1875,1.03125 C 1.8125,-0.109375 1.6875,-0.9375 1.6875,-1 c 0,-0.015625 0,-0.03125 0.03125,-0.15625 z m 0,0"
               id="id-459d17d9-97a2-453b-80b1-12e8ffed65f9" />
          </g>
          <g
             id="id-b48bb988-7f18-4892-a19f-ef55421be48c">
            <path
               d="m 2.015625,-3.296875 c 0.0625,-0.109375 0.0625,-0.171875 0.0625,-0.21875 0,-0.21875 -0.1875,-0.375 -0.40625,-0.375 -0.265625,0 -0.34375,0.21875 -0.375,0.328125 L 0.375,-0.546875 c -0.015625,0.015625 -0.046875,0.09375 -0.046875,0.109375 0,0.078125 0.21875,0.15625 0.28125,0.15625 0.046875,0 0.046875,-0.015625 0.09375,-0.125 z m 0,0"
               id="id-6e33a8da-5655-4d92-9135-05cac3a5df8c" />
          </g>
        </g>
      </defs>
      <g
         fill="#000000"
         fill-opacity="1"
         id="id-3c6b736f-86a4-4d3d-b446-0a9b0e9d3698"
         transform="translate(-149.04,-127.258)">
        <g
           transform="translate(148.712,134.765)"
           id="g10">
          <path
             d="M 1.765625,-6.921875 0.328125,-6.8125 V -6.5 c 0.703125,0 0.78125,0.0625 0.78125,0.5625 V -0.75 c 0,0.4375 -0.109375,0.4375 -0.78125,0.4375 V 0 C 0.65625,-0.015625 1.1875,-0.03125 1.4375,-0.03125 c 0.25,0 0.734375,0.015625 1.109375,0.03125 v -0.3125 c -0.671875,0 -0.78125,0 -0.78125,-0.4375 z m 0,0"
             id="id-e0e3197f-1e3d-48d7-900a-2e5b0f937fb7" />
        </g>
        <g
           transform="translate(151.48,134.765)"
           id="g11">
          <path
             d="M 1.09375,-3.421875 V -0.75 c 0,0.4375 -0.109375,0.4375 -0.78125,0.4375 V 0 c 0.359375,-0.015625 0.859375,-0.03125 1.140625,-0.03125 0.25,0 0.765625,0.015625 1.109375,0.03125 v -0.3125 c -0.671875,0 -0.78125,0 -0.78125,-0.4375 V -2.59375 C 1.78125,-3.625 2.5,-4.1875 3.125,-4.1875 c 0.640625,0 0.75,0.53125 0.75,1.109375 V -0.75 c 0,0.4375 -0.109375,0.4375 -0.78125,0.4375 V 0 c 0.34375,-0.015625 0.859375,-0.03125 1.125,-0.03125 0.25,0 0.78125,0.015625 1.109375,0.03125 v -0.3125 c -0.515625,0 -0.765625,0 -0.765625,-0.296875 v -1.90625 c 0,-0.859375 0,-1.15625 -0.3125,-1.515625 -0.140625,-0.171875 -0.46875,-0.375 -1.046875,-0.375 C 2.46875,-4.40625 2,-3.984375 1.71875,-3.359375 V -4.40625 L 0.3125,-4.296875 v 0.3125 c 0.703125,0 0.78125,0.0625 0.78125,0.5625 z m 0,0"
             id="id-77da1845-f81b-44ca-87be-46283ac5dc5d" />
        </g>
      </g>
      <g
         fill="#000000"
         fill-opacity="1"
         id="id-47d2dd66-801f-44c9-ad7e-c325d519fd7c"
         transform="translate(-149.04,-127.258)">
        <g
           transform="translate(158.675,134.765)"
           id="g12">
          <path
             d="M 0.453125,1.21875 C 0.375,1.5625 0.34375,1.625 -0.09375,1.625 c -0.109375,0 -0.21875,0 -0.21875,0.1875 0,0.078125 0.046875,0.125 0.125,0.125 0.265625,0 0.5625,-0.03125 0.828125,-0.03125 0.34375,0 0.671875,0.03125 1,0.03125 0.046875,0 0.171875,0 0.171875,-0.203125 C 1.8125,1.625 1.71875,1.625 1.578125,1.625 c -0.5,0 -0.5,-0.0625 -0.5,-0.15625 0,-0.125 0.421875,-1.75 0.484375,-2 0.125,0.296875 0.40625,0.640625 0.921875,0.640625 1.15625,0 2.40625,-1.453125 2.40625,-2.921875 0,-0.9375 -0.578125,-1.59375 -1.328125,-1.59375 -0.5,0 -0.984375,0.359375 -1.3125,0.75 -0.09375,-0.546875 -0.53125,-0.75 -0.890625,-0.75 -0.46875,0 -0.65625,0.390625 -0.734375,0.5625 C 0.4375,-3.5 0.3125,-2.90625 0.3125,-2.875 c 0,0.109375 0.09375,0.109375 0.109375,0.109375 0.109375,0 0.109375,-0.015625 0.171875,-0.234375 0.171875,-0.703125 0.375,-1.1875 0.734375,-1.1875 0.171875,0 0.3125,0.078125 0.3125,0.453125 0,0.234375 -0.03125,0.34375 -0.078125,0.515625 z m 1.75,-4.328125 C 2.265625,-3.375 2.546875,-3.65625 2.71875,-3.8125 c 0.359375,-0.296875 0.640625,-0.375 0.8125,-0.375 0.390625,0 0.640625,0.34375 0.640625,0.9375 0,0.59375 -0.328125,1.734375 -0.515625,2.109375 -0.34375,0.703125 -0.8125,1.03125 -1.1875,1.03125 C 1.8125,-0.109375 1.6875,-0.9375 1.6875,-1 c 0,-0.015625 0,-0.03125 0.03125,-0.15625 z m 0,0"
             id="id-8c56db4a-1bf5-4985-850d-718c0d924761" />
        </g>
      </g>
      <g
         fill="#000000"
         fill-opacity="1"
         id="id-fb55fb76-899a-44ec-aed1-8fb352a1fb04"
         transform="translate(-149.04,-127.258)">
        <g
           transform="translate(163.687,131.149)"
           id="g13">
          <path
             d="m 2.015625,-3.296875 c 0.0625,-0.109375 0.0625,-0.171875 0.0625,-0.21875 0,-0.21875 -0.1875,-0.375 -0.40625,-0.375 -0.265625,0 -0.34375,0.21875 -0.375,0.328125 L 0.375,-0.546875 c -0.015625,0.015625 -0.046875,0.09375 -0.046875,0.109375 0,0.078125 0.21875,0.15625 0.28125,0.15625 0.046875,0 0.046875,-0.015625 0.09375,-0.125 z m 0,0"
             id="id-324b356c-2dfa-41e1-85f1-0010b6d80285" />
        </g>
      </g>
    </g>
    <path
       style="fill:none;stroke:#ff0000;stroke-width:0.264583px;stroke-linecap:butt;stroke-linejoin:miter;stroke-opacity:1"
       d="M 2.3875853,19.05618 32.131238,1.8836734"
       id="path14" />
    <text
       xml:space="preserve"
       style="font-size:3.175px;line-height:0.95;font-family:'Times New Roman';-inkscape-font-specification:'Times New Roman, ';fill:#ff0000;stroke-width:0.264583"
       x="33.598442"
       y="2.3139622"
       id="text14"><tspan
         sodipodi:role="line"
         id="tspan14"
         style="fill:#ff0000;stroke-width:0.264583"
         x="33.598442"
         y="2.3139622">CSL</tspan></text>
    <path
       style="fill:none;stroke:#000000;stroke-width:0.264583px;stroke-linecap:butt;stroke-linejoin:miter;stroke-opacity:1"
       d="m 31.000176,2.4943128 c 2.254813,-0.2943593 4.096655,2.2374437 4.604269,0"
       id="path15"
       sodipodi:nodetypes="cc" />
    <path
       style="fill:none;stroke:#008000;stroke-width:0.264583px;stroke-linecap:butt;stroke-linejoin:miter;stroke-opacity:1;marker-end:url(#Dot);marker-start:url(#Square);marker-mid:url(#ArrowWide)"
       d="m 25.098852,19.05618 c 0,-1.423612 -0.291108,-2.64915 -0.777483,-3.692402 -0.486376,-1.043252 -1.16802,-1.904219 -1.949093,-2.598688 -0.781073,-0.694469 -1.661574,-1.222442 -2.545665,-1.599706 -0.88409,-0.377264 -1.77177,-0.60382 -2.5672,-0.695457"
       id="path16"
       sodipodi:nodetypes="csssc" />
    <g
       id="g21">
      <g
         id="g20">
        <text
           xml:space="preserve"
           style="font-size:3.175px;line-height:0.95;font-family:'Times New Roman';-inkscape-font-specification:'Times New Roman, ';stroke-width:0.264583;fill:#008000"
           x="26.081095"
           y="14.185238"
           id="text19"><tspan
             sodipodi:role="line"
             id="tspan19"
             style="stroke-width:0.264583;fill:#008000"
             x="26.081095"
             y="14.185238">NC EST</tspan></text>
      </g>
      <path
         style="fill:none;stroke:#000000;stroke-width:0.264583px;stroke-linecap:butt;stroke-linejoin:miter;stroke-opacity:1"
         d="M 25.840486,13.212165 H 22.838164"
         id="path20" />
    </g>
    <path
       style="fill:none;stroke:#808080;stroke-width:0.264583px;stroke-linecap:butt;stroke-linejoin:miter;stroke-opacity:1;stroke-dasharray:0.79374898,0.79374898;stroke-dashoffset:0"
       d="M 17.259411,10.469927 H 2.3875853"
       id="path21" />
    <g
       transform="matrix(0.352778 0 0 0.352778 12.3447 11.268)"
       ns1:version="1.10.2"
       ns1:texconverter="pdflatex"
       ns1:pdfconverter="inkscape"
       ns1:text="$2 S_u$"
       ns1:preamble="C:\Users\zamcr\AppData\Roaming\inkscape\extensions\textext\default_packages.tex"
       ns1:scale="1.0"
       ns1:alignment="middle center"
       ns1:stroke-to-path="0"
       ns1:inkscapeversion="1.4"
       ns1:jacobian_sqrt="0.352778"
       id="g25">
      <defs
         id="id-16341b01-56e3-454f-8a10-67e17b9b9e64">
        <g
           id="id-87ecd4de-ab72-4a5c-905f-b572e4b356ca">
          <g
             id="id-20a9bfda-6c10-41f7-99cf-0f28fd7d959c">
            <path
               d="m 1.265625,-0.765625 1.0625,-1.03125 c 1.546875,-1.375 2.140625,-1.90625 2.140625,-2.90625 0,-1.140625 -0.890625,-1.9375 -2.109375,-1.9375 -1.125,0 -1.859375,0.921875 -1.859375,1.8125 0,0.546875 0.5,0.546875 0.53125,0.546875 0.171875,0 0.515625,-0.109375 0.515625,-0.53125 0,-0.25 -0.1875,-0.515625 -0.53125,-0.515625 -0.078125,0 -0.09375,0 -0.125,0.015625 0.21875,-0.65625 0.765625,-1.015625 1.34375,-1.015625 0.90625,0 1.328125,0.8125 1.328125,1.625 C 3.5625,-3.90625 3.078125,-3.125 2.515625,-2.5 l -1.90625,2.125 C 0.5,-0.265625 0.5,-0.234375 0.5,0 H 4.203125 L 4.46875,-1.734375 H 4.234375 C 4.171875,-1.4375 4.109375,-1 4,-0.84375 3.9375,-0.765625 3.28125,-0.765625 3.0625,-0.765625 Z m 0,0"
               id="id-2f8c1726-c2aa-4422-8478-ce2d359927cc" />
          </g>
          <g
             id="id-218d4384-b95a-4c17-ab62-1ec01a5569ca">
            <path
               d="m 6.4375,-6.921875 c 0,-0.03125 -0.03125,-0.109375 -0.125,-0.109375 -0.046875,0 -0.046875,0.015625 -0.171875,0.15625 L 5.65625,-6.3125 c -0.25,-0.46875 -0.765625,-0.71875 -1.421875,-0.71875 -1.265625,0 -2.453125,1.15625 -2.453125,2.359375 0,0.796875 0.515625,1.265625 1.03125,1.40625 l 1.0625,0.28125 c 0.375,0.09375 0.921875,0.25 0.921875,1.0625 0,0.890625 -0.8125,1.828125 -1.796875,1.828125 -0.640625,0 -1.75,-0.21875 -1.75,-1.453125 0,-0.234375 0.0625,-0.484375 0.0625,-0.53125 0.015625,-0.046875 0.015625,-0.0625 0.015625,-0.078125 0,-0.09375 -0.0625,-0.109375 -0.109375,-0.109375 -0.046875,0 -0.078125,0.015625 -0.109375,0.046875 -0.03125,0.03125 -0.59375,2.3125 -0.59375,2.34375 0,0.046875 0.046875,0.09375 0.109375,0.09375 0.046875,0 0.0625,-0.015625 0.1875,-0.15625 L 1.296875,-0.5 c 0.421875,0.578125 1.109375,0.71875 1.6875,0.71875 1.359375,0 2.53125,-1.328125 2.53125,-2.5625 0,-0.6875 -0.34375,-1.03125 -0.484375,-1.171875 C 4.796875,-3.734375 4.640625,-3.78125 3.765625,-4 3.53125,-4.0625 3.1875,-4.171875 3.09375,-4.1875 2.828125,-4.28125 2.484375,-4.5625 2.484375,-5.09375 c 0,-0.8125 0.796875,-1.65625 1.75,-1.65625 0.8125,0 1.421875,0.4375 1.421875,1.546875 0,0.3125 -0.03125,0.5 -0.03125,0.5625 0,0 0,0.09375 0.109375,0.09375 0.109375,0 0.125,-0.03125 0.15625,-0.203125 z m 0,0"
               id="id-e762835b-7c23-4916-b86e-521293578d8a" />
          </g>
          <g
             id="id-6c066093-e353-4084-add2-5b3ce2d1005c">
            <path
               d="M 2.953125,-1.125 C 2.90625,-0.984375 2.84375,-0.71875 2.84375,-0.71875 2.703125,-0.5 2.421875,-0.125 2,-0.125 c -0.484375,0 -0.484375,-0.453125 -0.484375,-0.578125 0,-0.40625 0.1875,-0.90625 0.390625,-1.421875 C 1.953125,-2.265625 2,-2.359375 2,-2.46875 2,-2.84375 1.6875,-3.078125 1.34375,-3.078125 0.640625,-3.078125 0.328125,-2.125 0.328125,-2 c 0,0.078125 0.09375,0.078125 0.125,0.078125 0.09375,0 0.09375,-0.03125 0.125,-0.109375 0.15625,-0.5625 0.46875,-0.84375 0.734375,-0.84375 0.125,0 0.171875,0.078125 0.171875,0.234375 0,0.171875 -0.046875,0.3125 -0.125,0.46875 -0.375,0.96875 -0.375,1.171875 -0.375,1.359375 0,0.109375 0,0.4375 0.265625,0.65625 0.203125,0.171875 0.46875,0.21875 0.71875,0.21875 0.4375,0 0.671875,-0.234375 0.90625,-0.453125 C 3.03125,0.0625 3.484375,0.0625 3.578125,0.0625 3.8125,0.0625 4,-0.0625 4.125,-0.296875 4.28125,-0.578125 4.375,-0.96875 4.375,-1 c 0,-0.09375 -0.09375,-0.09375 -0.109375,-0.09375 -0.109375,0 -0.109375,0.03125 -0.15625,0.21875 -0.09375,0.328125 -0.21875,0.75 -0.515625,0.75 -0.171875,0 -0.234375,-0.15625 -0.234375,-0.34375 0,-0.109375 0.0625,-0.375 0.109375,-0.546875 0.046875,-0.1875 0.125,-0.46875 0.15625,-0.625 l 0.15625,-0.625 C 3.828125,-2.4375 3.90625,-2.75 3.90625,-2.78125 3.90625,-2.921875 3.796875,-3 3.671875,-3 c -0.25,0 -0.3125,0.203125 -0.359375,0.421875 z m 0,0"
               id="id-7ee6bd0e-e3b8-4f45-a3d5-41f31a9853e2" />
          </g>
        </g>
      </defs>
      <g
         id="g26"
         transform="translate(-14.629709,-11.224752)">
        <g
           fill="#000000"
           fill-opacity="1"
           id="id-edff74b8-785c-4494-9089-f81293b25c08"
           transform="translate(-149.212,-127.734)">
          <g
             transform="translate(148.712,134.765)"
             id="g22">
            <path
               d="m 1.265625,-0.765625 1.0625,-1.03125 c 1.546875,-1.375 2.140625,-1.90625 2.140625,-2.90625 0,-1.140625 -0.890625,-1.9375 -2.109375,-1.9375 -1.125,0 -1.859375,0.921875 -1.859375,1.8125 0,0.546875 0.5,0.546875 0.53125,0.546875 0.171875,0 0.515625,-0.109375 0.515625,-0.53125 0,-0.25 -0.1875,-0.515625 -0.53125,-0.515625 -0.078125,0 -0.09375,0 -0.125,0.015625 0.21875,-0.65625 0.765625,-1.015625 1.34375,-1.015625 0.90625,0 1.328125,0.8125 1.328125,1.625 C 3.5625,-3.90625 3.078125,-3.125 2.515625,-2.5 l -1.90625,2.125 C 0.5,-0.265625 0.5,-0.234375 0.5,0 H 4.203125 L 4.46875,-1.734375 H 4.234375 C 4.171875,-1.4375 4.109375,-1 4,-0.84375 3.9375,-0.765625 3.28125,-0.765625 3.0625,-0.765625 Z m 0,0"
               id="id-9dd9e8b5-809d-4d21-8812-3eb71bd781ad" />
          </g>
        </g>
        <g
           fill="#000000"
           fill-opacity="1"
           id="id-44f4d3a0-d722-4c27-8e73-88978380b4df"
           transform="translate(-149.212,-127.734)">
          <g
             transform="translate(153.694,134.765)"
             id="g23">
            <path
               d="m 6.4375,-6.921875 c 0,-0.03125 -0.03125,-0.109375 -0.125,-0.109375 -0.046875,0 -0.046875,0.015625 -0.171875,0.15625 L 5.65625,-6.3125 c -0.25,-0.46875 -0.765625,-0.71875 -1.421875,-0.71875 -1.265625,0 -2.453125,1.15625 -2.453125,2.359375 0,0.796875 0.515625,1.265625 1.03125,1.40625 l 1.0625,0.28125 c 0.375,0.09375 0.921875,0.25 0.921875,1.0625 0,0.890625 -0.8125,1.828125 -1.796875,1.828125 -0.640625,0 -1.75,-0.21875 -1.75,-1.453125 0,-0.234375 0.0625,-0.484375 0.0625,-0.53125 0.015625,-0.046875 0.015625,-0.0625 0.015625,-0.078125 0,-0.09375 -0.0625,-0.109375 -0.109375,-0.109375 -0.046875,0 -0.078125,0.015625 -0.109375,0.046875 -0.03125,0.03125 -0.59375,2.3125 -0.59375,2.34375 0,0.046875 0.046875,0.09375 0.109375,0.09375 0.046875,0 0.0625,-0.015625 0.1875,-0.15625 L 1.296875,-0.5 c 0.421875,0.578125 1.109375,0.71875 1.6875,0.71875 1.359375,0 2.53125,-1.328125 2.53125,-2.5625 0,-0.6875 -0.34375,-1.03125 -0.484375,-1.171875 C 4.796875,-3.734375 4.640625,-3.78125 3.765625,-4 3.53125,-4.0625 3.1875,-4.171875 3.09375,-4.1875 2.828125,-4.28125 2.484375,-4.5625 2.484375,-5.09375 c 0,-0.8125 0.796875,-1.65625 1.75,-1.65625 0.8125,0 1.421875,0.4375 1.421875,1.546875 0,0.3125 -0.03125,0.5 -0.03125,0.5625 0,0 0,0.09375 0.109375,0.09375 0.109375,0 0.125,-0.03125 0.15625,-0.203125 z m 0,0"
               id="id-a1586bf4-043d-4a95-841b-a20bda1c115d" />
          </g>
        </g>
        <g
           fill="#000000"
           fill-opacity="1"
           id="id-e26a08aa-042e-4244-b1b2-2a45df22ddf4"
           transform="translate(-149.212,-127.734)">
          <g
             transform="translate(159.803,136.259)"
             id="g24">
            <path
               d="M 2.953125,-1.125 C 2.90625,-0.984375 2.84375,-0.71875 2.84375,-0.71875 2.703125,-0.5 2.421875,-0.125 2,-0.125 c -0.484375,0 -0.484375,-0.453125 -0.484375,-0.578125 0,-0.40625 0.1875,-0.90625 0.390625,-1.421875 C 1.953125,-2.265625 2,-2.359375 2,-2.46875 2,-2.84375 1.6875,-3.078125 1.34375,-3.078125 0.640625,-3.078125 0.328125,-2.125 0.328125,-2 c 0,0.078125 0.09375,0.078125 0.125,0.078125 0.09375,0 0.09375,-0.03125 0.125,-0.109375 0.15625,-0.5625 0.46875,-0.84375 0.734375,-0.84375 0.125,0 0.171875,0.078125 0.171875,0.234375 0,0.171875 -0.046875,0.3125 -0.125,0.46875 -0.375,0.96875 -0.375,1.171875 -0.375,1.359375 0,0.109375 0,0.4375 0.265625,0.65625 0.203125,0.171875 0.46875,0.21875 0.71875,0.21875 0.4375,0 0.671875,-0.234375 0.90625,-0.453125 C 3.03125,0.0625 3.484375,0.0625 3.578125,0.0625 3.8125,0.0625 4,-0.0625 4.125,-0.296875 4.28125,-0.578125 4.375,-0.96875 4.375,-1 c 0,-0.09375 -0.09375,-0.09375 -0.109375,-0.09375 -0.109375,0 -0.109375,0.03125 -0.15625,0.21875 -0.09375,0.328125 -0.21875,0.75 -0.515625,0.75 -0.171875,0 -0.234375,-0.15625 -0.234375,-0.34375 0,-0.109375 0.0625,-0.375 0.109375,-0.546875 0.046875,-0.1875 0.125,-0.46875 0.15625,-0.625 l 0.15625,-0.625 C 3.828125,-2.4375 3.90625,-2.75 3.90625,-2.78125 3.90625,-2.921875 3.796875,-3 3.671875,-3 c -0.25,0 -0.3125,0.203125 -0.359375,0.421875 z m 0,0"
               id="id-23978d16-1baa-4ebb-933e-e83ac8a68483" />
          </g>
        </g>
      </g>
      <path
         style="fill:none;stroke:#000080;stroke-width:0.75px;stroke-linecap:butt;stroke-linejoin:miter;stroke-opacity:1;marker-start:url(#marker29);marker-mid:url(#marker28);marker-end:url(#marker27)"
         d="m 36.15348,22.076717 c 0,-7.895353 -2.086801,-12.9612689 -4.505734,-16.5296567 -2.418933,-3.5683879 -5.169999,-5.63924799 -6.498529,-7.5444903 -1.32853,-1.9052423 -1.234524,-3.6448667 2.036685,-6.5507833 3.271209,-2.9059167 9.719622,-6.9781247 21.099907,-13.5485357"
         id="path26"
         sodipodi:nodetypes="csssc" />
    </g>
    <g
       id="g30">
      <text
         xml:space="preserve"
         style="font-size:3.175px;line-height:0.95;font-family:'Times New Roman';-inkscape-font-specification:'Times New Roman, ';fill:#000080;stroke-width:0.264583"
         x="25.927616"
         y="10.032639"
         id="text29"><tspan
           sodipodi:role="line"
           id="tspan29"
           style="fill:#000080;stroke-width:0.264583"
           x="25.927616"
           y="10.032639">OC EST</tspan></text>
      <path
         style="fill:none;stroke:#000000;stroke-width:0.264583px;stroke-linecap:butt;stroke-linejoin:miter;stroke-opacity:1"
         d="M 25.760309,8.9815399 23.304612,7.1980363"
         id="path30" />
    </g>
    <path
       style="fill:none;stroke:#808080;stroke-width:0.264583px;stroke-linecap:butt;stroke-linejoin:miter;stroke-opacity:1;stroke-dasharray:0.79374898,0.79374898;stroke-dashoffset:0"
       d="M 29.378296,3.4730859 H 2.3875853"
       id="path31" />
    <g
       transform="matrix(0.352778,0,0,0.352778,12.463336,0.25440916)"
       ns1:version="1.10.2"
       ns1:texconverter="pdflatex"
       ns1:pdfconverter="inkscape"
       ns1:text="$2S_u$"
       ns1:preamble="C:\Users\zamcr\AppData\Roaming\inkscape\extensions\textext\default_packages.tex"
       ns1:scale="1.0"
       ns1:alignment="middle center"
       ns1:stroke-to-path="0"
       ns1:inkscapeversion="1.4"
       ns1:jacobian_sqrt="0.352778"
       id="g34">
      <defs
         id="id-0e551187-856f-4b5b-aa85-325a0d5abdaa">
        <g
           id="id-24f9b920-29ed-43c0-b79f-f00f17da1a20">
          <g
             id="id-9b157899-2e4d-48d3-8159-4d449ff0f725">
            <path
               d="m 1.265625,-0.765625 1.0625,-1.03125 c 1.546875,-1.375 2.140625,-1.90625 2.140625,-2.90625 0,-1.140625 -0.890625,-1.9375 -2.109375,-1.9375 -1.125,0 -1.859375,0.921875 -1.859375,1.8125 0,0.546875 0.5,0.546875 0.53125,0.546875 0.171875,0 0.515625,-0.109375 0.515625,-0.53125 0,-0.25 -0.1875,-0.515625 -0.53125,-0.515625 -0.078125,0 -0.09375,0 -0.125,0.015625 0.21875,-0.65625 0.765625,-1.015625 1.34375,-1.015625 0.90625,0 1.328125,0.8125 1.328125,1.625 C 3.5625,-3.90625 3.078125,-3.125 2.515625,-2.5 l -1.90625,2.125 C 0.5,-0.265625 0.5,-0.234375 0.5,0 H 4.203125 L 4.46875,-1.734375 H 4.234375 C 4.171875,-1.4375 4.109375,-1 4,-0.84375 3.9375,-0.765625 3.28125,-0.765625 3.0625,-0.765625 Z m 0,0"
               id="id-d9207401-2de2-495e-b02f-6ab0fc87d834" />
          </g>
          <g
             id="id-f41f0a18-d294-4d75-a3ac-0b1d8a6a9e4e">
            <path
               d="m 6.4375,-6.921875 c 0,-0.03125 -0.03125,-0.109375 -0.125,-0.109375 -0.046875,0 -0.046875,0.015625 -0.171875,0.15625 L 5.65625,-6.3125 c -0.25,-0.46875 -0.765625,-0.71875 -1.421875,-0.71875 -1.265625,0 -2.453125,1.15625 -2.453125,2.359375 0,0.796875 0.515625,1.265625 1.03125,1.40625 l 1.0625,0.28125 c 0.375,0.09375 0.921875,0.25 0.921875,1.0625 0,0.890625 -0.8125,1.828125 -1.796875,1.828125 -0.640625,0 -1.75,-0.21875 -1.75,-1.453125 0,-0.234375 0.0625,-0.484375 0.0625,-0.53125 0.015625,-0.046875 0.015625,-0.0625 0.015625,-0.078125 0,-0.09375 -0.0625,-0.109375 -0.109375,-0.109375 -0.046875,0 -0.078125,0.015625 -0.109375,0.046875 -0.03125,0.03125 -0.59375,2.3125 -0.59375,2.34375 0,0.046875 0.046875,0.09375 0.109375,0.09375 0.046875,0 0.0625,-0.015625 0.1875,-0.15625 L 1.296875,-0.5 c 0.421875,0.578125 1.109375,0.71875 1.6875,0.71875 1.359375,0 2.53125,-1.328125 2.53125,-2.5625 0,-0.6875 -0.34375,-1.03125 -0.484375,-1.171875 C 4.796875,-3.734375 4.640625,-3.78125 3.765625,-4 3.53125,-4.0625 3.1875,-4.171875 3.09375,-4.1875 2.828125,-4.28125 2.484375,-4.5625 2.484375,-5.09375 c 0,-0.8125 0.796875,-1.65625 1.75,-1.65625 0.8125,0 1.421875,0.4375 1.421875,1.546875 0,0.3125 -0.03125,0.5 -0.03125,0.5625 0,0 0,0.09375 0.109375,0.09375 0.109375,0 0.125,-0.03125 0.15625,-0.203125 z m 0,0"
               id="id-ad001728-712f-4331-86f0-a31447b9de51" />
          </g>
          <g
             id="id-ff8bed5e-8f68-4587-b3d2-bad2490389aa">
            <path
               d="M 2.953125,-1.125 C 2.90625,-0.984375 2.84375,-0.71875 2.84375,-0.71875 2.703125,-0.5 2.421875,-0.125 2,-0.125 c -0.484375,0 -0.484375,-0.453125 -0.484375,-0.578125 0,-0.40625 0.1875,-0.90625 0.390625,-1.421875 C 1.953125,-2.265625 2,-2.359375 2,-2.46875 2,-2.84375 1.6875,-3.078125 1.34375,-3.078125 0.640625,-3.078125 0.328125,-2.125 0.328125,-2 c 0,0.078125 0.09375,0.078125 0.125,0.078125 0.09375,0 0.09375,-0.03125 0.125,-0.109375 0.15625,-0.5625 0.46875,-0.84375 0.734375,-0.84375 0.125,0 0.171875,0.078125 0.171875,0.234375 0,0.171875 -0.046875,0.3125 -0.125,0.46875 -0.375,0.96875 -0.375,1.171875 -0.375,1.359375 0,0.109375 0,0.4375 0.265625,0.65625 0.203125,0.171875 0.46875,0.21875 0.71875,0.21875 0.4375,0 0.671875,-0.234375 0.90625,-0.453125 C 3.03125,0.0625 3.484375,0.0625 3.578125,0.0625 3.8125,0.0625 4,-0.0625 4.125,-0.296875 4.28125,-0.578125 4.375,-0.96875 4.375,-1 c 0,-0.09375 -0.09375,-0.09375 -0.109375,-0.09375 -0.109375,0 -0.109375,0.03125 -0.15625,0.21875 -0.09375,0.328125 -0.21875,0.75 -0.515625,0.75 -0.171875,0 -0.234375,-0.15625 -0.234375,-0.34375 0,-0.109375 0.0625,-0.375 0.109375,-0.546875 0.046875,-0.1875 0.125,-0.46875 0.15625,-0.625 l 0.15625,-0.625 C 3.828125,-2.4375 3.90625,-2.75 3.90625,-2.78125 3.90625,-2.921875 3.796875,-3 3.671875,-3 c -0.25,0 -0.3125,0.203125 -0.359375,0.421875 z m 0,0"
               id="id-718db89c-946b-4d87-b6b5-b85f4bed477b" />
          </g>
        </g>
      </defs>
      <g
         fill="#000000"
         fill-opacity="1"
         id="id-2e49a78f-9fd4-42b8-94b2-5d0e888d51be"
         transform="translate(-149.212,-127.734)">
        <g
           transform="translate(148.712,134.765)"
           id="g31">
          <path
             d="m 1.265625,-0.765625 1.0625,-1.03125 c 1.546875,-1.375 2.140625,-1.90625 2.140625,-2.90625 0,-1.140625 -0.890625,-1.9375 -2.109375,-1.9375 -1.125,0 -1.859375,0.921875 -1.859375,1.8125 0,0.546875 0.5,0.546875 0.53125,0.546875 0.171875,0 0.515625,-0.109375 0.515625,-0.53125 0,-0.25 -0.1875,-0.515625 -0.53125,-0.515625 -0.078125,0 -0.09375,0 -0.125,0.015625 0.21875,-0.65625 0.765625,-1.015625 1.34375,-1.015625 0.90625,0 1.328125,0.8125 1.328125,1.625 C 3.5625,-3.90625 3.078125,-3.125 2.515625,-2.5 l -1.90625,2.125 C 0.5,-0.265625 0.5,-0.234375 0.5,0 H 4.203125 L 4.46875,-1.734375 H 4.234375 C 4.171875,-1.4375 4.109375,-1 4,-0.84375 3.9375,-0.765625 3.28125,-0.765625 3.0625,-0.765625 Z m 0,0"
             id="id-44976663-6876-44c4-86db-015bb5a5eb83" />
        </g>
      </g>
      <g
         fill="#000000"
         fill-opacity="1"
         id="id-70529804-649b-4c2b-a062-e8802af167f8"
         transform="translate(-149.212,-127.734)">
        <g
           transform="translate(153.694,134.765)"
           id="g32">
          <path
             d="m 6.4375,-6.921875 c 0,-0.03125 -0.03125,-0.109375 -0.125,-0.109375 -0.046875,0 -0.046875,0.015625 -0.171875,0.15625 L 5.65625,-6.3125 c -0.25,-0.46875 -0.765625,-0.71875 -1.421875,-0.71875 -1.265625,0 -2.453125,1.15625 -2.453125,2.359375 0,0.796875 0.515625,1.265625 1.03125,1.40625 l 1.0625,0.28125 c 0.375,0.09375 0.921875,0.25 0.921875,1.0625 0,0.890625 -0.8125,1.828125 -1.796875,1.828125 -0.640625,0 -1.75,-0.21875 -1.75,-1.453125 0,-0.234375 0.0625,-0.484375 0.0625,-0.53125 0.015625,-0.046875 0.015625,-0.0625 0.015625,-0.078125 0,-0.09375 -0.0625,-0.109375 -0.109375,-0.109375 -0.046875,0 -0.078125,0.015625 -0.109375,0.046875 -0.03125,0.03125 -0.59375,2.3125 -0.59375,2.34375 0,0.046875 0.046875,0.09375 0.109375,0.09375 0.046875,0 0.0625,-0.015625 0.1875,-0.15625 L 1.296875,-0.5 c 0.421875,0.578125 1.109375,0.71875 1.6875,0.71875 1.359375,0 2.53125,-1.328125 2.53125,-2.5625 0,-0.6875 -0.34375,-1.03125 -0.484375,-1.171875 C 4.796875,-3.734375 4.640625,-3.78125 3.765625,-4 3.53125,-4.0625 3.1875,-4.171875 3.09375,-4.1875 2.828125,-4.28125 2.484375,-4.5625 2.484375,-5.09375 c 0,-0.8125 0.796875,-1.65625 1.75,-1.65625 0.8125,0 1.421875,0.4375 1.421875,1.546875 0,0.3125 -0.03125,0.5 -0.03125,0.5625 0,0 0,0.09375 0.109375,0.09375 0.109375,0 0.125,-0.03125 0.15625,-0.203125 z m 0,0"
             id="id-c80b80f3-b2c1-44d3-98ac-e42957349c4e" />
        </g>
      </g>
      <g
         fill="#000000"
         fill-opacity="1"
         id="id-4923799d-7f97-45cc-9dc6-cdbb3607bf3f"
         transform="translate(-149.212,-127.734)">
        <g
           transform="translate(159.803,136.259)"
           id="g33">
          <path
             d="M 2.953125,-1.125 C 2.90625,-0.984375 2.84375,-0.71875 2.84375,-0.71875 2.703125,-0.5 2.421875,-0.125 2,-0.125 c -0.484375,0 -0.484375,-0.453125 -0.484375,-0.578125 0,-0.40625 0.1875,-0.90625 0.390625,-1.421875 C 1.953125,-2.265625 2,-2.359375 2,-2.46875 2,-2.84375 1.6875,-3.078125 1.34375,-3.078125 0.640625,-3.078125 0.328125,-2.125 0.328125,-2 c 0,0.078125 0.09375,0.078125 0.125,0.078125 0.09375,0 0.09375,-0.03125 0.125,-0.109375 0.15625,-0.5625 0.46875,-0.84375 0.734375,-0.84375 0.125,0 0.171875,0.078125 0.171875,0.234375 0,0.171875 -0.046875,0.3125 -0.125,0.46875 -0.375,0.96875 -0.375,1.171875 -0.375,1.359375 0,0.109375 0,0.4375 0.265625,0.65625 0.203125,0.171875 0.46875,0.21875 0.71875,0.21875 0.4375,0 0.671875,-0.234375 0.90625,-0.453125 C 3.03125,0.0625 3.484375,0.0625 3.578125,0.0625 3.8125,0.0625 4,-0.0625 4.125,-0.296875 4.28125,-0.578125 4.375,-0.96875 4.375,-1 c 0,-0.09375 -0.09375,-0.09375 -0.109375,-0.09375 -0.109375,0 -0.109375,0.03125 -0.15625,0.21875 -0.09375,0.328125 -0.21875,0.75 -0.515625,0.75 -0.171875,0 -0.234375,-0.15625 -0.234375,-0.34375 0,-0.109375 0.0625,-0.375 0.109375,-0.546875 0.046875,-0.1875 0.125,-0.46875 0.15625,-0.625 l 0.15625,-0.625 C 3.828125,-2.4375 3.90625,-2.75 3.90625,-2.78125 3.90625,-2.921875 3.796875,-3 3.671875,-3 c -0.25,0 -0.3125,0.203125 -0.359375,0.421875 z m 0,0"
             id="id-6a7117bd-2d7b-4467-ac15-afee89314019" />
        </g>
      </g>
    </g>
    <path
       style="fill:none;stroke:#008000;stroke-width:0.264583px;stroke-linecap:butt;stroke-linejoin:miter;stroke-opacity:1;stroke-dasharray:1.05833197, 0.26458299;stroke-dashoffset:0"
       d="m 25.098852,19.05618 c 0,-8.998121 -22.7112667,-8.586253 -22.7112667,0"
       id="path34"
       sodipodi:nodetypes="cc" />
    <g
       id="g35">
      <text
         xml:space="preserve"
         style="font-size:3.175px;line-height:0.95;font-family:'Times New Roman';-inkscape-font-specification:'Times New Roman, ';stroke-width:0.264583"
         x="8.4779463"
         y="18.373566"
         id="text34"><tspan
           sodipodi:role="line"
           id="tspan34"
           style="stroke-width:0.264583"
           x="8.4779463"
           y="18.373566">Camclay</tspan></text>
      <path
         style="fill:none;stroke:#000000;stroke-width:0.264583px;stroke-linecap:butt;stroke-linejoin:miter;stroke-opacity:1"
         d="m 14.34236,16.360688 2.163152,-3.74669"
         id="path35" />
    </g>
    <path
       style="fill:none;stroke:#000080;stroke-width:0.264583px;stroke-linecap:butt;stroke-linejoin:miter;stroke-dasharray:1.05833, 0.264583;stroke-dashoffset:0;stroke-opacity:1"
       d="m 44.716635,19.129733 c 0,-16.203713 -42.2980446,-15.4620259 -42.2980446,0"
       id="path36"
       sodipodi:nodetypes="cc" />
    <path
       style="fill:none;stroke:#000080;stroke-width:0.264583px;stroke-linecap:butt;stroke-linejoin:miter;stroke-opacity:1"
       d="M 33.906176,22.063808 45.664619,36.953905"
       id="path37" />
    <g
       id="g38">
      <text
         xml:space="preserve"
         style="font-size:3.175px;line-height:0.95;font-family:'Times New Roman';-inkscape-font-specification:'Times New Roman, ';fill:#000080;stroke-width:0.264583"
         x="41.431271"
         y="28.390863"
         id="text37"><tspan
           sodipodi:role="line"
           id="tspan37"
           style="fill:#000080;stroke-width:0.264583"
           x="41.431271"
           y="28.390863">NCL</tspan></text>
      <path
         style="fill:none;stroke:#000000;stroke-width:0.264583px;stroke-linecap:butt;stroke-linejoin:miter;stroke-opacity:1"
         d="M 41.222816,27.339764 H 38.072504"
         id="path38" />
    </g>
    <path
       style="fill:none;stroke:#ff0000;stroke-width:0.264583px;stroke-linecap:butt;stroke-linejoin:miter;stroke-opacity:1"
       d="M 21.940087,22.063808 33.69853,36.953905"
       id="path39" />
    <g
       id="g40">
      <text
         xml:space="preserve"
         style="font-size:3.175px;line-height:0.95;font-family:'Times New Roman';-inkscape-font-specification:'Times New Roman, ';stroke-width:0.264583;fill:#ff0000"
         x="25.760309"
         y="23.61323"
         id="text39"><tspan
           sodipodi:role="line"
           id="tspan39"
           style="stroke-width:0.264583;fill:#ff0000"
           x="25.760309"
           y="23.61323">CSL</tspan></text>
      <path
         style="fill:none;stroke:#000000;stroke-width:0.264583px;stroke-linecap:butt;stroke-linejoin:miter;stroke-opacity:1"
         d="M 25.4,22.562131 H 22.333604"
         id="path40" />
    </g>
    <path
       style="fill:none;stroke:#808080;stroke-width:0.264583px;stroke-linecap:butt;stroke-linejoin:miter;stroke-opacity:1;stroke-dasharray:0.79374898,0.79374898;stroke-dashoffset:0"
       d="M 29.378293,3.4730859 V 19.05618"
       id="path41" />
    <g
       transform="matrix(0.352778,0,0,0.352778,30.087138,14.986383)"
       ns1:version="1.10.2"
       ns1:texconverter="pdflatex"
       ns1:pdfconverter="inkscape"
       ns1:text="$p'_f$"
       ns1:preamble="C:\Users\zamcr\AppData\Roaming\inkscape\extensions\textext\default_packages.tex"
       ns1:scale="1.0"
       ns1:alignment="middle center"
       ns1:stroke-to-path="0"
       ns1:inkscapeversion="1.4"
       ns1:jacobian_sqrt="0.352778"
       id="g44">
      <defs
         id="id-637f9235-f2a8-4206-9dae-73bf08e5b459">
        <g
           id="id-b9a0604c-fd21-4f5a-84a0-ad10c8ceecfb">
          <g
             id="id-fbbac609-a553-4031-b6b7-3720078034ce">
            <path
               d="M 0.453125,1.21875 C 0.375,1.5625 0.34375,1.625 -0.09375,1.625 c -0.109375,0 -0.21875,0 -0.21875,0.1875 0,0.078125 0.046875,0.125 0.125,0.125 0.265625,0 0.5625,-0.03125 0.828125,-0.03125 0.34375,0 0.671875,0.03125 1,0.03125 0.046875,0 0.171875,0 0.171875,-0.203125 C 1.8125,1.625 1.71875,1.625 1.578125,1.625 c -0.5,0 -0.5,-0.0625 -0.5,-0.15625 0,-0.125 0.421875,-1.75 0.484375,-2 0.125,0.296875 0.40625,0.640625 0.921875,0.640625 1.15625,0 2.40625,-1.453125 2.40625,-2.921875 0,-0.9375 -0.578125,-1.59375 -1.328125,-1.59375 -0.5,0 -0.984375,0.359375 -1.3125,0.75 -0.09375,-0.546875 -0.53125,-0.75 -0.890625,-0.75 -0.46875,0 -0.65625,0.390625 -0.734375,0.5625 C 0.4375,-3.5 0.3125,-2.90625 0.3125,-2.875 c 0,0.109375 0.09375,0.109375 0.109375,0.109375 0.109375,0 0.109375,-0.015625 0.171875,-0.234375 0.171875,-0.703125 0.375,-1.1875 0.734375,-1.1875 0.171875,0 0.3125,0.078125 0.3125,0.453125 0,0.234375 -0.03125,0.34375 -0.078125,0.515625 z m 1.75,-4.328125 C 2.265625,-3.375 2.546875,-3.65625 2.71875,-3.8125 c 0.359375,-0.296875 0.640625,-0.375 0.8125,-0.375 0.390625,0 0.640625,0.34375 0.640625,0.9375 0,0.59375 -0.328125,1.734375 -0.515625,2.109375 -0.34375,0.703125 -0.8125,1.03125 -1.1875,1.03125 C 1.8125,-0.109375 1.6875,-0.9375 1.6875,-1 c 0,-0.015625 0,-0.03125 0.03125,-0.15625 z m 0,0"
               id="id-71662987-5aee-446d-a344-adf513608671" />
          </g>
          <g
             id="id-969bec57-69d5-47c8-9f06-f01422e34d04">
            <path
               d="m 2.015625,-3.296875 c 0.0625,-0.109375 0.0625,-0.171875 0.0625,-0.21875 0,-0.21875 -0.1875,-0.375 -0.40625,-0.375 -0.265625,0 -0.34375,0.21875 -0.375,0.328125 L 0.375,-0.546875 c -0.015625,0.015625 -0.046875,0.09375 -0.046875,0.109375 0,0.078125 0.21875,0.15625 0.28125,0.15625 0.046875,0 0.046875,-0.015625 0.09375,-0.125 z m 0,0"
               id="id-b29c3d30-1e46-411d-b189-47f505647f30" />
          </g>
          <g
             id="id-af2d73f3-58a4-40a5-a8c3-e5c52d1bea86">
            <path
               d="M 2.84375,-2.75 H 3.515625 C 3.65625,-2.75 3.75,-2.75 3.75,-2.90625 3.75,-3 3.65625,-3 3.53125,-3 H 2.890625 c 0.15625,-0.890625 0.203125,-1.203125 0.265625,-1.40625 0.03125,-0.15625 0.1875,-0.296875 0.359375,-0.296875 0,0 0.1875,0 0.328125,0.078125 -0.296875,0.09375 -0.3125,0.34375 -0.3125,0.375 0,0.15625 0.125,0.265625 0.28125,0.265625 0.1875,0 0.390625,-0.15625 0.390625,-0.421875 0,-0.328125 -0.328125,-0.5 -0.6875,-0.5 -0.3125,0 -0.65625,0.171875 -0.84375,0.515625 C 2.53125,-4.125 2.484375,-3.8125 2.328125,-3 H 1.78125 c -0.140625,0 -0.234375,0 -0.234375,0.15625 0,0.09375 0.09375,0.09375 0.21875,0.09375 H 2.28125 c 0,0.046875 -0.4375,2.546875 -0.609375,3.296875 -0.03125,0.15625 -0.15625,0.671875 -0.484375,0.671875 -0.015625,0 -0.171875,0 -0.3125,-0.078125 0.28125,-0.09375 0.3125,-0.34375 0.3125,-0.375 C 1.1875,0.609375 1.0625,0.5 0.90625,0.5 c -0.1875,0 -0.390625,0.15625 -0.390625,0.421875 0,0.3125 0.328125,0.5 0.671875,0.5 0.4375,0 0.75,-0.453125 0.828125,-0.609375 0.25,-0.46875 0.421875,-1.328125 0.4375,-1.40625 z m 0,0"
               id="id-e21438da-ffe4-4af2-aac4-f759851b8266" />
          </g>
        </g>
      </defs>
      <g
         fill="#000000"
         fill-opacity="1"
         id="id-84387701-5567-4a3a-8922-d393dd7dd189"
         transform="translate(-148.4,-127.258)">
        <g
           transform="translate(148.712,134.765)"
           id="g41">
          <path
             d="M 0.453125,1.21875 C 0.375,1.5625 0.34375,1.625 -0.09375,1.625 c -0.109375,0 -0.21875,0 -0.21875,0.1875 0,0.078125 0.046875,0.125 0.125,0.125 0.265625,0 0.5625,-0.03125 0.828125,-0.03125 0.34375,0 0.671875,0.03125 1,0.03125 0.046875,0 0.171875,0 0.171875,-0.203125 C 1.8125,1.625 1.71875,1.625 1.578125,1.625 c -0.5,0 -0.5,-0.0625 -0.5,-0.15625 0,-0.125 0.421875,-1.75 0.484375,-2 0.125,0.296875 0.40625,0.640625 0.921875,0.640625 1.15625,0 2.40625,-1.453125 2.40625,-2.921875 0,-0.9375 -0.578125,-1.59375 -1.328125,-1.59375 -0.5,0 -0.984375,0.359375 -1.3125,0.75 -0.09375,-0.546875 -0.53125,-0.75 -0.890625,-0.75 -0.46875,0 -0.65625,0.390625 -0.734375,0.5625 C 0.4375,-3.5 0.3125,-2.90625 0.3125,-2.875 c 0,0.109375 0.09375,0.109375 0.109375,0.109375 0.109375,0 0.109375,-0.015625 0.171875,-0.234375 0.171875,-0.703125 0.375,-1.1875 0.734375,-1.1875 0.171875,0 0.3125,0.078125 0.3125,0.453125 0,0.234375 -0.03125,0.34375 -0.078125,0.515625 z m 1.75,-4.328125 C 2.265625,-3.375 2.546875,-3.65625 2.71875,-3.8125 c 0.359375,-0.296875 0.640625,-0.375 0.8125,-0.375 0.390625,0 0.640625,0.34375 0.640625,0.9375 0,0.59375 -0.328125,1.734375 -0.515625,2.109375 -0.34375,0.703125 -0.8125,1.03125 -1.1875,1.03125 C 1.8125,-0.109375 1.6875,-0.9375 1.6875,-1 c 0,-0.015625 0,-0.03125 0.03125,-0.15625 z m 0,0"
             id="id-78a28863-1239-4e47-983c-628cee6e7dff" />
        </g>
      </g>
      <g
         fill="#000000"
         fill-opacity="1"
         id="id-22c155d1-1604-4676-84a2-f97c1f1fbf10"
         transform="translate(-148.4,-127.258)">
        <g
           transform="translate(153.725,131.149)"
           id="g42">
          <path
             d="m 2.015625,-3.296875 c 0.0625,-0.109375 0.0625,-0.171875 0.0625,-0.21875 0,-0.21875 -0.1875,-0.375 -0.40625,-0.375 -0.265625,0 -0.34375,0.21875 -0.375,0.328125 L 0.375,-0.546875 c -0.015625,0.015625 -0.046875,0.09375 -0.046875,0.109375 0,0.078125 0.21875,0.15625 0.28125,0.15625 0.046875,0 0.046875,-0.015625 0.09375,-0.125 z m 0,0"
             id="id-abeadb67-5e6f-4036-b8df-46ff6195d095" />
        </g>
      </g>
      <g
         fill="#000000"
         fill-opacity="1"
         id="id-c8f483bf-fdc1-41b9-921e-8229677f97bf"
         transform="translate(-148.4,-127.258)">
        <g
           transform="translate(153.725,137.586)"
           id="g43">
          <path
             d="M 2.84375,-2.75 H 3.515625 C 3.65625,-2.75 3.75,-2.75 3.75,-2.90625 3.75,-3 3.65625,-3 3.53125,-3 H 2.890625 c 0.15625,-0.890625 0.203125,-1.203125 0.265625,-1.40625 0.03125,-0.15625 0.1875,-0.296875 0.359375,-0.296875 0,0 0.1875,0 0.328125,0.078125 -0.296875,0.09375 -0.3125,0.34375 -0.3125,0.375 0,0.15625 0.125,0.265625 0.28125,0.265625 0.1875,0 0.390625,-0.15625 0.390625,-0.421875 0,-0.328125 -0.328125,-0.5 -0.6875,-0.5 -0.3125,0 -0.65625,0.171875 -0.84375,0.515625 C 2.53125,-4.125 2.484375,-3.8125 2.328125,-3 H 1.78125 c -0.140625,0 -0.234375,0 -0.234375,0.15625 0,0.09375 0.09375,0.09375 0.21875,0.09375 H 2.28125 c 0,0.046875 -0.4375,2.546875 -0.609375,3.296875 -0.03125,0.15625 -0.15625,0.671875 -0.484375,0.671875 -0.015625,0 -0.171875,0 -0.3125,-0.078125 0.28125,-0.09375 0.3125,-0.34375 0.3125,-0.375 C 1.1875,0.609375 1.0625,0.5 0.90625,0.5 c -0.1875,0 -0.390625,0.15625 -0.390625,0.421875 0,0.3125 0.328125,0.5 0.671875,0.5 0.4375,0 0.75,-0.453125 0.828125,-0.609375 0.25,-0.46875 0.421875,-1.328125 0.4375,-1.40625 z m 0,0"
             id="id-f1da4e48-55ef-44fa-b46a-88621b0d0a62" />
        </g>
      </g>
    </g>
    <rect
       style="fill:#000080;stroke:none;stroke-width:0.165;stroke-linecap:round;stroke-miterlimit:4.1;stroke-dasharray:0.79375, 0.79375;stroke-dashoffset:0;paint-order:markers fill stroke"
       id="rect44"
       width="1.3330314"
       height="1.3330314"
       x="9.1569824"
       y="24.625626" />
    <path
       style="fill:none;stroke:#000080;stroke-width:0.264583px;stroke-linecap:butt;stroke-linejoin:miter;stroke-opacity:1;marker-end:url(#marker27);marker-mid:url(#marker28)"
       d="m 9.823498,25.292141 h 3.666487 3.666486 3.666486 3.666487"
       id="path44"
       sodipodi:nodetypes="ccccc" />
    <path
       style="fill:none;stroke:#808080;stroke-width:0.264583px;stroke-linecap:butt;stroke-linejoin:miter;stroke-opacity:1;stroke-dasharray:0.79374898,0.79374898;stroke-dashoffset:0"
       d="M 24.489444,25.292141 V 38.863672"
       id="path45" />
    <g
       transform="matrix(0.352778,0,0,0.352778,22.543829,38.899787)"
       ns1:version="1.10.2"
       ns1:texconverter="pdflatex"
       ns1:pdfconverter="inkscape"
       ns1:text="$p'_f$"
       ns1:preamble="C:\Users\zamcr\AppData\Roaming\inkscape\extensions\textext\default_packages.tex"
       ns1:scale="1.0"
       ns1:alignment="middle center"
       ns1:stroke-to-path="0"
       ns1:inkscapeversion="1.4"
       ns1:jacobian_sqrt="0.352778"
       id="g56">
      <defs
         id="defs49">
        <g
           id="g49">
          <g
             id="g46">
            <path
               d="M 0.453125,1.21875 C 0.375,1.5625 0.34375,1.625 -0.09375,1.625 c -0.109375,0 -0.21875,0 -0.21875,0.1875 0,0.078125 0.046875,0.125 0.125,0.125 0.265625,0 0.5625,-0.03125 0.828125,-0.03125 0.34375,0 0.671875,0.03125 1,0.03125 0.046875,0 0.171875,0 0.171875,-0.203125 C 1.8125,1.625 1.71875,1.625 1.578125,1.625 c -0.5,0 -0.5,-0.0625 -0.5,-0.15625 0,-0.125 0.421875,-1.75 0.484375,-2 0.125,0.296875 0.40625,0.640625 0.921875,0.640625 1.15625,0 2.40625,-1.453125 2.40625,-2.921875 0,-0.9375 -0.578125,-1.59375 -1.328125,-1.59375 -0.5,0 -0.984375,0.359375 -1.3125,0.75 -0.09375,-0.546875 -0.53125,-0.75 -0.890625,-0.75 -0.46875,0 -0.65625,0.390625 -0.734375,0.5625 C 0.4375,-3.5 0.3125,-2.90625 0.3125,-2.875 c 0,0.109375 0.09375,0.109375 0.109375,0.109375 0.109375,0 0.109375,-0.015625 0.171875,-0.234375 0.171875,-0.703125 0.375,-1.1875 0.734375,-1.1875 0.171875,0 0.3125,0.078125 0.3125,0.453125 0,0.234375 -0.03125,0.34375 -0.078125,0.515625 z m 1.75,-4.328125 C 2.265625,-3.375 2.546875,-3.65625 2.71875,-3.8125 c 0.359375,-0.296875 0.640625,-0.375 0.8125,-0.375 0.390625,0 0.640625,0.34375 0.640625,0.9375 0,0.59375 -0.328125,1.734375 -0.515625,2.109375 -0.34375,0.703125 -0.8125,1.03125 -1.1875,1.03125 C 1.8125,-0.109375 1.6875,-0.9375 1.6875,-1 c 0,-0.015625 0,-0.03125 0.03125,-0.15625 z m 0,0"
               id="path46" />
          </g>
          <g
             id="g47">
            <path
               d="m 2.015625,-3.296875 c 0.0625,-0.109375 0.0625,-0.171875 0.0625,-0.21875 0,-0.21875 -0.1875,-0.375 -0.40625,-0.375 -0.265625,0 -0.34375,0.21875 -0.375,0.328125 L 0.375,-0.546875 c -0.015625,0.015625 -0.046875,0.09375 -0.046875,0.109375 0,0.078125 0.21875,0.15625 0.28125,0.15625 0.046875,0 0.046875,-0.015625 0.09375,-0.125 z m 0,0"
               id="path47" />
          </g>
          <g
             id="g48">
            <path
               d="M 2.84375,-2.75 H 3.515625 C 3.65625,-2.75 3.75,-2.75 3.75,-2.90625 3.75,-3 3.65625,-3 3.53125,-3 H 2.890625 c 0.15625,-0.890625 0.203125,-1.203125 0.265625,-1.40625 0.03125,-0.15625 0.1875,-0.296875 0.359375,-0.296875 0,0 0.1875,0 0.328125,0.078125 -0.296875,0.09375 -0.3125,0.34375 -0.3125,0.375 0,0.15625 0.125,0.265625 0.28125,0.265625 0.1875,0 0.390625,-0.15625 0.390625,-0.421875 0,-0.328125 -0.328125,-0.5 -0.6875,-0.5 -0.3125,0 -0.65625,0.171875 -0.84375,0.515625 C 2.53125,-4.125 2.484375,-3.8125 2.328125,-3 H 1.78125 c -0.140625,0 -0.234375,0 -0.234375,0.15625 0,0.09375 0.09375,0.09375 0.21875,0.09375 H 2.28125 c 0,0.046875 -0.4375,2.546875 -0.609375,3.296875 -0.03125,0.15625 -0.15625,0.671875 -0.484375,0.671875 -0.015625,0 -0.171875,0 -0.3125,-0.078125 0.28125,-0.09375 0.3125,-0.34375 0.3125,-0.375 C 1.1875,0.609375 1.0625,0.5 0.90625,0.5 c -0.1875,0 -0.390625,0.15625 -0.390625,0.421875 0,0.3125 0.328125,0.5 0.671875,0.5 0.4375,0 0.75,-0.453125 0.828125,-0.609375 0.25,-0.46875 0.421875,-1.328125 0.4375,-1.40625 z m 0,0"
               id="path48" />
          </g>
        </g>
      </defs>
      <g
         fill="#000000"
         fill-opacity="1"
         id="g51"
         transform="translate(-148.4,-127.258)">
        <g
           transform="translate(148.712,134.765)"
           id="g50">
          <path
             d="M 0.453125,1.21875 C 0.375,1.5625 0.34375,1.625 -0.09375,1.625 c -0.109375,0 -0.21875,0 -0.21875,0.1875 0,0.078125 0.046875,0.125 0.125,0.125 0.265625,0 0.5625,-0.03125 0.828125,-0.03125 0.34375,0 0.671875,0.03125 1,0.03125 0.046875,0 0.171875,0 0.171875,-0.203125 C 1.8125,1.625 1.71875,1.625 1.578125,1.625 c -0.5,0 -0.5,-0.0625 -0.5,-0.15625 0,-0.125 0.421875,-1.75 0.484375,-2 0.125,0.296875 0.40625,0.640625 0.921875,0.640625 1.15625,0 2.40625,-1.453125 2.40625,-2.921875 0,-0.9375 -0.578125,-1.59375 -1.328125,-1.59375 -0.5,0 -0.984375,0.359375 -1.3125,0.75 -0.09375,-0.546875 -0.53125,-0.75 -0.890625,-0.75 -0.46875,0 -0.65625,0.390625 -0.734375,0.5625 C 0.4375,-3.5 0.3125,-2.90625 0.3125,-2.875 c 0,0.109375 0.09375,0.109375 0.109375,0.109375 0.109375,0 0.109375,-0.015625 0.171875,-0.234375 0.171875,-0.703125 0.375,-1.1875 0.734375,-1.1875 0.171875,0 0.3125,0.078125 0.3125,0.453125 0,0.234375 -0.03125,0.34375 -0.078125,0.515625 z m 1.75,-4.328125 C 2.265625,-3.375 2.546875,-3.65625 2.71875,-3.8125 c 0.359375,-0.296875 0.640625,-0.375 0.8125,-0.375 0.390625,0 0.640625,0.34375 0.640625,0.9375 0,0.59375 -0.328125,1.734375 -0.515625,2.109375 -0.34375,0.703125 -0.8125,1.03125 -1.1875,1.03125 C 1.8125,-0.109375 1.6875,-0.9375 1.6875,-1 c 0,-0.015625 0,-0.03125 0.03125,-0.15625 z m 0,0"
             id="path49" />
        </g>
      </g>
      <g
         fill="#000000"
         fill-opacity="1"
         id="g53"
         transform="translate(-148.4,-127.258)">
        <g
           transform="translate(153.725,131.149)"
           id="g52">
          <path
             d="m 2.015625,-3.296875 c 0.0625,-0.109375 0.0625,-0.171875 0.0625,-0.21875 0,-0.21875 -0.1875,-0.375 -0.40625,-0.375 -0.265625,0 -0.34375,0.21875 -0.375,0.328125 L 0.375,-0.546875 c -0.015625,0.015625 -0.046875,0.09375 -0.046875,0.109375 0,0.078125 0.21875,0.15625 0.28125,0.15625 0.046875,0 0.046875,-0.015625 0.09375,-0.125 z m 0,0"
             id="path51" />
        </g>
      </g>
      <g
         fill="#000000"
         fill-opacity="1"
         id="g55"
         transform="translate(-148.4,-127.258)">
        <g
           transform="translate(153.725,137.586)"
           id="g54">
          <path
             d="M 2.84375,-2.75 H 3.515625 C 3.65625,-2.75 3.75,-2.75 3.75,-2.90625 3.75,-3 3.65625,-3 3.53125,-3 H 2.890625 c 0.15625,-0.890625 0.203125,-1.203125 0.265625,-1.40625 0.03125,-0.15625 0.1875,-0.296875 0.359375,-0.296875 0,0 0.1875,0 0.328125,0.078125 -0.296875,0.09375 -0.3125,0.34375 -0.3125,0.375 0,0.15625 0.125,0.265625 0.28125,0.265625 0.1875,0 0.390625,-0.15625 0.390625,-0.421875 0,-0.328125 -0.328125,-0.5 -0.6875,-0.5 -0.3125,0 -0.65625,0.171875 -0.84375,0.515625 C 2.53125,-4.125 2.484375,-3.8125 2.328125,-3 H 1.78125 c -0.140625,0 -0.234375,0 -0.234375,0.15625 0,0.09375 0.09375,0.09375 0.21875,0.09375 H 2.28125 c 0,0.046875 -0.4375,2.546875 -0.609375,3.296875 -0.03125,0.15625 -0.15625,0.671875 -0.484375,0.671875 -0.015625,0 -0.171875,0 -0.3125,-0.078125 0.28125,-0.09375 0.3125,-0.34375 0.3125,-0.375 C 1.1875,0.609375 1.0625,0.5 0.90625,0.5 c -0.1875,0 -0.390625,0.15625 -0.390625,0.421875 0,0.3125 0.328125,0.5 0.671875,0.5 0.4375,0 0.75,-0.453125 0.828125,-0.609375 0.25,-0.46875 0.421875,-1.328125 0.4375,-1.40625 z m 0,0"
             id="path53" />
        </g>
      </g>
    </g>
    <path
       style="fill:none;stroke:#000000;stroke-width:0.264583px;stroke-linecap:butt;stroke-linejoin:miter;stroke-opacity:1"
       d="m 41.389413,31.354564 h 2.506978 v 3.360176"
       id="path56" />
    <g
       transform="matrix(0.352778,0,0,0.352778,44.091984,31.670349)"
       ns1:version="1.10.2"
       ns1:texconverter="pdflatex"
       ns1:pdfconverter="inkscape"
       ns1:text="$\\lambda$"
       ns1:preamble="C:\Users\zamcr\AppData\Roaming\inkscape\extensions\textext\default_packages.tex"
       ns1:scale="1.0"
       ns1:alignment="middle center"
       ns1:stroke-to-path="0"
       ns1:inkscapeversion="1.4"
       ns1:jacobian_sqrt="0.352778"
       id="g58">
      <defs
         id="id-57c71d85-3dfd-468a-a571-b3926434a753">
        <g
           id="id-fafd57c5-b6f5-4d4a-b359-77d2f21ac897">
          <g
             id="id-64da9f8d-c7f7-4181-be33-19d92ba1a498">
            <path
               d="m 3.5625,-2.90625 c 0.40625,1.046875 0.890625,2.5625 1.046875,2.796875 0.15625,0.21875 0.25,0.21875 0.53125,0.21875 h 0.21875 c 0.09375,-0.015625 0.109375,-0.0625 0.109375,-0.09375 0,-0.03125 -0.03125,-0.0625 -0.0625,-0.09375 C 5.3125,-0.1875 5.25,-0.34375 5.1875,-0.53125 L 3.15625,-6.203125 c -0.21875,-0.578125 -0.75,-0.71875 -1.21875,-0.71875 -0.046875,0 -0.1875,0 -0.1875,0.109375 0,0.078125 0.078125,0.109375 0.09375,0.109375 C 2.171875,-6.65625 2.25,-6.59375 2.5,-5.90625 l 0.953125,2.703125 -2.75,2.734375 c -0.109375,0.125 -0.171875,0.171875 -0.171875,0.3125 0,0.171875 0.140625,0.28125 0.296875,0.28125 0.15625,0 0.25,-0.109375 0.328125,-0.203125 z m 0,0"
               id="id-c233014e-497d-4f0a-b879-61e754a3ea41" />
          </g>
        </g>
      </defs>
      <g
         fill="#000000"
         fill-opacity="1"
         id="id-5e90d068-7635-4f12-8854-ac3c7abfe1bd"
         transform="translate(-149.243,-127.843)">
        <g
           transform="translate(148.712,134.765)"
           id="g57">
          <path
             d="m 3.5625,-2.90625 c 0.40625,1.046875 0.890625,2.5625 1.046875,2.796875 0.15625,0.21875 0.25,0.21875 0.53125,0.21875 h 0.21875 c 0.09375,-0.015625 0.109375,-0.0625 0.109375,-0.09375 0,-0.03125 -0.03125,-0.0625 -0.0625,-0.09375 C 5.3125,-0.1875 5.25,-0.34375 5.1875,-0.53125 L 3.15625,-6.203125 c -0.21875,-0.578125 -0.75,-0.71875 -1.21875,-0.71875 -0.046875,0 -0.1875,0 -0.1875,0.109375 0,0.078125 0.078125,0.109375 0.09375,0.109375 C 2.171875,-6.65625 2.25,-6.59375 2.5,-5.90625 l 0.953125,2.703125 -2.75,2.734375 c -0.109375,0.125 -0.171875,0.171875 -0.171875,0.3125 0,0.171875 0.140625,0.28125 0.296875,0.28125 0.15625,0 0.25,-0.109375 0.328125,-0.203125 z m 0,0"
             id="id-15875fcc-8c0f-4461-b8ac-e821b70a8d0a" />
        </g>
      </g>
    </g>
    <path
       style="fill:none;stroke:#000000;stroke-width:0.264583px;stroke-linecap:butt;stroke-linejoin:miter;stroke-opacity:1"
       d="m 29.558114,31.354564 h 2.506978 v 3.360176"
       id="path58" />
    <g
       transform="matrix(0.352778,0,0,0.352778,32.260685,31.670349)"
       ns1:version="1.10.2"
       ns1:texconverter="pdflatex"
       ns1:pdfconverter="inkscape"
       ns1:text="$\\lambda$"
       ns1:preamble="C:\Users\zamcr\AppData\Roaming\inkscape\extensions\textext\default_packages.tex"
       ns1:scale="1.0"
       ns1:alignment="middle center"
       ns1:stroke-to-path="0"
       ns1:inkscapeversion="1.4"
       ns1:jacobian_sqrt="0.352778"
       id="g63">
      <defs
         id="defs60">
        <g
           id="g60">
          <g
             id="g59">
            <path
               d="m 3.5625,-2.90625 c 0.40625,1.046875 0.890625,2.5625 1.046875,2.796875 0.15625,0.21875 0.25,0.21875 0.53125,0.21875 h 0.21875 c 0.09375,-0.015625 0.109375,-0.0625 0.109375,-0.09375 0,-0.03125 -0.03125,-0.0625 -0.0625,-0.09375 C 5.3125,-0.1875 5.25,-0.34375 5.1875,-0.53125 L 3.15625,-6.203125 c -0.21875,-0.578125 -0.75,-0.71875 -1.21875,-0.71875 -0.046875,0 -0.1875,0 -0.1875,0.109375 0,0.078125 0.078125,0.109375 0.09375,0.109375 C 2.171875,-6.65625 2.25,-6.59375 2.5,-5.90625 l 0.953125,2.703125 -2.75,2.734375 c -0.109375,0.125 -0.171875,0.171875 -0.171875,0.3125 0,0.171875 0.140625,0.28125 0.296875,0.28125 0.15625,0 0.25,-0.109375 0.328125,-0.203125 z m 0,0"
               id="path59" />
          </g>
        </g>
      </defs>
      <g
         fill="#000000"
         fill-opacity="1"
         id="g62"
         transform="translate(-149.243,-127.843)">
        <g
           transform="translate(148.712,134.765)"
           id="g61">
          <path
             d="m 3.5625,-2.90625 c 0.40625,1.046875 0.890625,2.5625 1.046875,2.796875 0.15625,0.21875 0.25,0.21875 0.53125,0.21875 h 0.21875 c 0.09375,-0.015625 0.109375,-0.0625 0.109375,-0.09375 0,-0.03125 -0.03125,-0.0625 -0.0625,-0.09375 C 5.3125,-0.1875 5.25,-0.34375 5.1875,-0.53125 L 3.15625,-6.203125 c -0.21875,-0.578125 -0.75,-0.71875 -1.21875,-0.71875 -0.046875,0 -0.1875,0 -0.1875,0.109375 0,0.078125 0.078125,0.109375 0.09375,0.109375 C 2.171875,-6.65625 2.25,-6.59375 2.5,-5.90625 l 0.953125,2.703125 -2.75,2.734375 c -0.109375,0.125 -0.171875,0.171875 -0.171875,0.3125 0,0.171875 0.140625,0.28125 0.296875,0.28125 0.15625,0 0.25,-0.109375 0.328125,-0.203125 z m 0,0"
             id="path60" />
        </g>
      </g>
    </g>
    <path
       style="fill:none;stroke:#008000;stroke-width:0.264583px;stroke-linecap:butt;stroke-linejoin:miter;stroke-opacity:1;stroke-dasharray:1.05833197, 0.26458299;stroke-dashoffset:0"
       d="m 9.8234978,21.496157 c 1.9260142,0 29.9619002,8.0127 29.9619002,8.0127"
       id="path63" />
    <text
       xml:space="preserve"
       style="font-size:3.175px;line-height:0.95;font-family:'Times New Roman';-inkscape-font-specification:'Times New Roman, ';stroke-width:0.264583;fill:#008000"
       x="3.7308481"
       y="22.935778"
       id="text63"><tspan
         sodipodi:role="line"
         id="tspan63"
         style="stroke-width:0.264583;fill:#008000"
         x="3.7308481"
         y="22.935778">RCL</tspan></text>
    <path
       style="fill:none;stroke:#000000;stroke-width:0.264583px;stroke-linecap:butt;stroke-linejoin:miter;stroke-opacity:1"
       d="m 27.106037,25.962431 h 3.608526 v 0.983567"
       id="path64" />
    <g
       transform="matrix(0.352778,0,0,0.352778,31.334775,25.105326)"
       ns1:version="1.10.2"
       ns1:texconverter="pdflatex"
       ns1:pdfconverter="inkscape"
       ns1:text="$\\kappa$"
       ns1:preamble="C:\Users\zamcr\AppData\Roaming\inkscape\extensions\textext\default_packages.tex"
       ns1:scale="1.0"
       ns1:alignment="middle center"
       ns1:stroke-to-path="0"
       ns1:inkscapeversion="1.4"
       ns1:jacobian_sqrt="0.352778"
       id="g65">
      <defs
         id="id-55c4ce27-6c48-408b-a8d5-f4b9ac4ee71c">
        <g
           id="id-4689a4f2-5d04-46e1-b7bc-94ee16ddf0fc">
          <g
             id="id-5e1201f0-3fc3-43c5-bfb5-80bad1aacb7f">
            <path
               d="M 0.59375,-0.390625 C 0.546875,-0.25 0.546875,-0.234375 0.546875,-0.15625 c 0,0.171875 0.140625,0.265625 0.296875,0.265625 0.296875,0 0.359375,-0.234375 0.4375,-0.5625 C 1.375,-0.8125 1.3125,-0.625 1.75,-2.296875 c 0.828125,0.03125 1.703125,0.203125 1.703125,0.84375 0,0.078125 0,0.125 -0.03125,0.234375 C 3.390625,-1.0625 3.375,-0.953125 3.375,-0.875 c 0,0.578125 0.40625,0.984375 0.921875,0.984375 0.3125,0 0.578125,-0.171875 0.78125,-0.515625 0.25,-0.421875 0.359375,-1 0.359375,-1.015625 0,-0.109375 -0.078125,-0.109375 -0.109375,-0.109375 -0.109375,0 -0.109375,0.046875 -0.140625,0.1875 C 5,-0.65625 4.765625,-0.109375 4.3125,-0.109375 4.109375,-0.109375 4,-0.234375 4,-0.59375 4,-0.734375 4.03125,-0.984375 4.078125,-1.140625 4.09375,-1.234375 4.125,-1.359375 4.125,-1.46875 4.125,-2.40625 2.75,-2.484375 2.1875,-2.5 c 0.328125,-0.1875 0.65625,-0.453125 0.921875,-0.6875 0.453125,-0.375 0.75,-0.625 1.140625,-0.796875 -0.015625,0.0625 -0.046875,0.171875 -0.046875,0.21875 0,0.125 0.078125,0.359375 0.375,0.359375 0.328125,0 0.546875,-0.296875 0.546875,-0.546875 0,-0.078125 -0.046875,-0.34375 -0.40625,-0.34375 -0.609375,0 -1.1875,0.5 -1.625,0.875 -0.6875,0.578125 -0.921875,0.71875 -1.28125,0.84375 C 1.84375,-2.6875 1.96875,-3.1875 2.015625,-3.359375 2.078125,-3.625 2.1875,-4.09375 2.1875,-4.140625 2.1875,-4.3125 2.078125,-4.40625 1.90625,-4.40625 c -0.03125,0 -0.3125,0 -0.40625,0.359375 z m 0,0"
               id="id-0143ff40-fd36-4030-964e-0c029a872b93" />
          </g>
        </g>
      </defs>
      <g
         fill="#000000"
         fill-opacity="1"
         id="id-133b7917-e687-4f18-988b-ce4c42696766"
         transform="translate(-149.259,-130.359)">
        <g
           transform="translate(148.712,134.765)"
           id="g64">
          <path
             d="M 0.59375,-0.390625 C 0.546875,-0.25 0.546875,-0.234375 0.546875,-0.15625 c 0,0.171875 0.140625,0.265625 0.296875,0.265625 0.296875,0 0.359375,-0.234375 0.4375,-0.5625 C 1.375,-0.8125 1.3125,-0.625 1.75,-2.296875 c 0.828125,0.03125 1.703125,0.203125 1.703125,0.84375 0,0.078125 0,0.125 -0.03125,0.234375 C 3.390625,-1.0625 3.375,-0.953125 3.375,-0.875 c 0,0.578125 0.40625,0.984375 0.921875,0.984375 0.3125,0 0.578125,-0.171875 0.78125,-0.515625 0.25,-0.421875 0.359375,-1 0.359375,-1.015625 0,-0.109375 -0.078125,-0.109375 -0.109375,-0.109375 -0.109375,0 -0.109375,0.046875 -0.140625,0.1875 C 5,-0.65625 4.765625,-0.109375 4.3125,-0.109375 4.109375,-0.109375 4,-0.234375 4,-0.59375 4,-0.734375 4.03125,-0.984375 4.078125,-1.140625 4.09375,-1.234375 4.125,-1.359375 4.125,-1.46875 4.125,-2.40625 2.75,-2.484375 2.1875,-2.5 c 0.328125,-0.1875 0.65625,-0.453125 0.921875,-0.6875 0.453125,-0.375 0.75,-0.625 1.140625,-0.796875 -0.015625,0.0625 -0.046875,0.171875 -0.046875,0.21875 0,0.125 0.078125,0.359375 0.375,0.359375 0.328125,0 0.546875,-0.296875 0.546875,-0.546875 0,-0.078125 -0.046875,-0.34375 -0.40625,-0.34375 -0.609375,0 -1.1875,0.5 -1.625,0.875 -0.6875,0.578125 -0.921875,0.71875 -1.28125,0.84375 C 1.84375,-2.6875 1.96875,-3.1875 2.015625,-3.359375 2.078125,-3.625 2.1875,-4.09375 2.1875,-4.140625 2.1875,-4.3125 2.078125,-4.40625 1.90625,-4.40625 c -0.03125,0 -0.3125,0 -0.40625,0.359375 z m 0,0"
             id="id-0694c6bb-1a55-4709-a53a-7315b89cd4a6" />
        </g>
      </g>
    </g>
    <path
       style="fill:none;stroke:#808080;stroke-width:0.264583px;stroke-linecap:butt;stroke-linejoin:miter;stroke-opacity:1;stroke-dasharray:0.79374898, 0.79374898;stroke-dashoffset:0"
       d="m 39.785398,29.508857 v 9.354815"
       id="path65" />
    <g
       transform="matrix(0.352778,0,0,0.352778,38.07268,39.250076)"
       ns1:version="1.10.2"
       ns1:texconverter="pdflatex"
       ns1:pdfconverter="inkscape"
       ns1:text="$p'_c$"
       ns1:preamble="C:\Users\zamcr\AppData\Roaming\inkscape\extensions\textext\default_packages.tex"
       ns1:scale="1.0"
       ns1:alignment="middle center"
       ns1:stroke-to-path="0"
       ns1:inkscapeversion="1.4"
       ns1:jacobian_sqrt="0.352778"
       id="g69">
      <defs
         id="id-a9c589c0-3b26-4d5f-9c03-1c394274a97c">
        <g
           id="id-38c94ff6-5810-45c4-a35f-d26b61e6dd03">
          <g
             id="id-67a0efa4-8073-44b1-b866-b9a161393271">
            <path
               d="M 0.453125,1.21875 C 0.375,1.5625 0.34375,1.625 -0.09375,1.625 c -0.109375,0 -0.21875,0 -0.21875,0.1875 0,0.078125 0.046875,0.125 0.125,0.125 0.265625,0 0.5625,-0.03125 0.828125,-0.03125 0.34375,0 0.671875,0.03125 1,0.03125 0.046875,0 0.171875,0 0.171875,-0.203125 C 1.8125,1.625 1.71875,1.625 1.578125,1.625 c -0.5,0 -0.5,-0.0625 -0.5,-0.15625 0,-0.125 0.421875,-1.75 0.484375,-2 0.125,0.296875 0.40625,0.640625 0.921875,0.640625 1.15625,0 2.40625,-1.453125 2.40625,-2.921875 0,-0.9375 -0.578125,-1.59375 -1.328125,-1.59375 -0.5,0 -0.984375,0.359375 -1.3125,0.75 -0.09375,-0.546875 -0.53125,-0.75 -0.890625,-0.75 -0.46875,0 -0.65625,0.390625 -0.734375,0.5625 C 0.4375,-3.5 0.3125,-2.90625 0.3125,-2.875 c 0,0.109375 0.09375,0.109375 0.109375,0.109375 0.109375,0 0.109375,-0.015625 0.171875,-0.234375 0.171875,-0.703125 0.375,-1.1875 0.734375,-1.1875 0.171875,0 0.3125,0.078125 0.3125,0.453125 0,0.234375 -0.03125,0.34375 -0.078125,0.515625 z m 1.75,-4.328125 C 2.265625,-3.375 2.546875,-3.65625 2.71875,-3.8125 c 0.359375,-0.296875 0.640625,-0.375 0.8125,-0.375 0.390625,0 0.640625,0.34375 0.640625,0.9375 0,0.59375 -0.328125,1.734375 -0.515625,2.109375 -0.34375,0.703125 -0.8125,1.03125 -1.1875,1.03125 C 1.8125,-0.109375 1.6875,-0.9375 1.6875,-1 c 0,-0.015625 0,-0.03125 0.03125,-0.15625 z m 0,0"
               id="id-4a1b8da7-9cd2-4b9b-aa4d-20786540674a" />
          </g>
          <g
             id="id-2d669ade-6c81-4b36-90de-9821c3b451ac">
            <path
               d="m 2.015625,-3.296875 c 0.0625,-0.109375 0.0625,-0.171875 0.0625,-0.21875 0,-0.21875 -0.1875,-0.375 -0.40625,-0.375 -0.265625,0 -0.34375,0.21875 -0.375,0.328125 L 0.375,-0.546875 c -0.015625,0.015625 -0.046875,0.09375 -0.046875,0.109375 0,0.078125 0.21875,0.15625 0.28125,0.15625 0.046875,0 0.046875,-0.015625 0.09375,-0.125 z m 0,0"
               id="id-b4ebc024-169d-480a-bb84-6118b922e03a" />
          </g>
          <g
             id="id-4d92c52d-133e-4258-86ea-b8589089a15d">
            <path
               d="m 3.046875,-2.671875 c -0.25,0.046875 -0.34375,0.234375 -0.34375,0.390625 0,0.1875 0.140625,0.265625 0.265625,0.265625 0.15625,0 0.390625,-0.109375 0.390625,-0.453125 0,-0.46875 -0.53125,-0.609375 -0.90625,-0.609375 -1.046875,0 -2.015625,0.96875 -2.015625,1.9375 0,0.59375 0.40625,1.203125 1.28125,1.203125 1.1875,0 1.734375,-0.6875 1.734375,-0.78125 0,-0.046875 -0.0625,-0.125 -0.125,-0.125 -0.03125,0 -0.046875,0.015625 -0.109375,0.078125 C 2.671875,-0.125 1.859375,-0.125 1.734375,-0.125 c -0.5,0 -0.71875,-0.34375 -0.71875,-0.78125 0,-0.1875 0.09375,-0.953125 0.453125,-1.4375 0.265625,-0.34375 0.625,-0.53125 0.984375,-0.53125 0.09375,0 0.421875,0.015625 0.59375,0.203125 z m 0,0"
               id="id-f9e07977-69ac-4dd2-93b5-85af9142cde2" />
          </g>
        </g>
      </defs>
      <g
         fill="#000000"
         fill-opacity="1"
         id="id-6f8a3887-b947-4d49-a0b1-35214ca25e86"
         transform="translate(-148.4,-127.258)">
        <g
           transform="translate(148.712,134.765)"
           id="g66">
          <path
             d="M 0.453125,1.21875 C 0.375,1.5625 0.34375,1.625 -0.09375,1.625 c -0.109375,0 -0.21875,0 -0.21875,0.1875 0,0.078125 0.046875,0.125 0.125,0.125 0.265625,0 0.5625,-0.03125 0.828125,-0.03125 0.34375,0 0.671875,0.03125 1,0.03125 0.046875,0 0.171875,0 0.171875,-0.203125 C 1.8125,1.625 1.71875,1.625 1.578125,1.625 c -0.5,0 -0.5,-0.0625 -0.5,-0.15625 0,-0.125 0.421875,-1.75 0.484375,-2 0.125,0.296875 0.40625,0.640625 0.921875,0.640625 1.15625,0 2.40625,-1.453125 2.40625,-2.921875 0,-0.9375 -0.578125,-1.59375 -1.328125,-1.59375 -0.5,0 -0.984375,0.359375 -1.3125,0.75 -0.09375,-0.546875 -0.53125,-0.75 -0.890625,-0.75 -0.46875,0 -0.65625,0.390625 -0.734375,0.5625 C 0.4375,-3.5 0.3125,-2.90625 0.3125,-2.875 c 0,0.109375 0.09375,0.109375 0.109375,0.109375 0.109375,0 0.109375,-0.015625 0.171875,-0.234375 0.171875,-0.703125 0.375,-1.1875 0.734375,-1.1875 0.171875,0 0.3125,0.078125 0.3125,0.453125 0,0.234375 -0.03125,0.34375 -0.078125,0.515625 z m 1.75,-4.328125 C 2.265625,-3.375 2.546875,-3.65625 2.71875,-3.8125 c 0.359375,-0.296875 0.640625,-0.375 0.8125,-0.375 0.390625,0 0.640625,0.34375 0.640625,0.9375 0,0.59375 -0.328125,1.734375 -0.515625,2.109375 -0.34375,0.703125 -0.8125,1.03125 -1.1875,1.03125 C 1.8125,-0.109375 1.6875,-0.9375 1.6875,-1 c 0,-0.015625 0,-0.03125 0.03125,-0.15625 z m 0,0"
             id="id-70905209-f071-4a97-85bd-54c03b283212" />
        </g>
      </g>
      <g
         fill="#000000"
         fill-opacity="1"
         id="id-f09c4f14-3de8-4601-90a1-fdab81629c05"
         transform="translate(-148.4,-127.258)">
        <g
           transform="translate(153.725,131.149)"
           id="g67">
          <path
             d="m 2.015625,-3.296875 c 0.0625,-0.109375 0.0625,-0.171875 0.0625,-0.21875 0,-0.21875 -0.1875,-0.375 -0.40625,-0.375 -0.265625,0 -0.34375,0.21875 -0.375,0.328125 L 0.375,-0.546875 c -0.015625,0.015625 -0.046875,0.09375 -0.046875,0.109375 0,0.078125 0.21875,0.15625 0.28125,0.15625 0.046875,0 0.046875,-0.015625 0.09375,-0.125 z m 0,0"
             id="id-1dbe04a9-9885-46c5-8460-83adb845e90e" />
        </g>
      </g>
      <g
         fill="#000000"
         fill-opacity="1"
         id="id-7e85b701-2629-417d-97e6-5e5d1d1bcb13"
         transform="translate(-148.4,-127.258)">
        <g
           transform="translate(153.725,137.228)"
           id="g68">
          <path
             d="m 3.046875,-2.671875 c -0.25,0.046875 -0.34375,0.234375 -0.34375,0.390625 0,0.1875 0.140625,0.265625 0.265625,0.265625 0.15625,0 0.390625,-0.109375 0.390625,-0.453125 0,-0.46875 -0.53125,-0.609375 -0.90625,-0.609375 -1.046875,0 -2.015625,0.96875 -2.015625,1.9375 0,0.59375 0.40625,1.203125 1.28125,1.203125 1.1875,0 1.734375,-0.6875 1.734375,-0.78125 0,-0.046875 -0.0625,-0.125 -0.125,-0.125 -0.03125,0 -0.046875,0.015625 -0.109375,0.078125 C 2.671875,-0.125 1.859375,-0.125 1.734375,-0.125 c -0.5,0 -0.71875,-0.34375 -0.71875,-0.78125 0,-0.1875 0.09375,-0.953125 0.453125,-1.4375 0.265625,-0.34375 0.625,-0.53125 0.984375,-0.53125 0.09375,0 0.421875,0.015625 0.59375,0.203125 z m 0,0"
             id="id-3ef74a48-457b-41ad-b414-6f3daad2512c" />
        </g>
      </g>
    </g>
    <path
       style="fill:none;stroke:#808080;stroke-width:0.264583px;stroke-linecap:butt;stroke-linejoin:miter;stroke-opacity:1;stroke-dasharray:0.79374898,0.79374898;stroke-dashoffset:0"
       d="M 9.823498,25.292141 V 38.863672"
       id="path69" />
    <g
       transform="matrix(0.352778,0,0,0.352778,8.4747734,39.327574)"
       ns1:version="1.10.2"
       ns1:texconverter="pdflatex"
       ns1:pdfconverter="inkscape"
       ns1:text="$p'_0$"
       ns1:preamble="C:\Users\zamcr\AppData\Roaming\inkscape\extensions\textext\default_packages.tex"
       ns1:scale="1.0"
       ns1:alignment="middle center"
       ns1:stroke-to-path="0"
       ns1:inkscapeversion="1.4"
       ns1:jacobian_sqrt="0.352778"
       id="g73">
      <defs
         id="id-9aecbc20-f02e-454f-b002-927be7e4480e">
        <g
           id="id-c1ffff49-a50c-4f3d-9e63-d566437233f3">
          <g
             id="id-17499a7c-dc59-4a3e-a734-6307a5e5aae6">
            <path
               d="M 0.453125,1.21875 C 0.375,1.5625 0.34375,1.625 -0.09375,1.625 c -0.109375,0 -0.21875,0 -0.21875,0.1875 0,0.078125 0.046875,0.125 0.125,0.125 0.265625,0 0.5625,-0.03125 0.828125,-0.03125 0.34375,0 0.671875,0.03125 1,0.03125 0.046875,0 0.171875,0 0.171875,-0.203125 C 1.8125,1.625 1.71875,1.625 1.578125,1.625 c -0.5,0 -0.5,-0.0625 -0.5,-0.15625 0,-0.125 0.421875,-1.75 0.484375,-2 0.125,0.296875 0.40625,0.640625 0.921875,0.640625 1.15625,0 2.40625,-1.453125 2.40625,-2.921875 0,-0.9375 -0.578125,-1.59375 -1.328125,-1.59375 -0.5,0 -0.984375,0.359375 -1.3125,0.75 -0.09375,-0.546875 -0.53125,-0.75 -0.890625,-0.75 -0.46875,0 -0.65625,0.390625 -0.734375,0.5625 C 0.4375,-3.5 0.3125,-2.90625 0.3125,-2.875 c 0,0.109375 0.09375,0.109375 0.109375,0.109375 0.109375,0 0.109375,-0.015625 0.171875,-0.234375 0.171875,-0.703125 0.375,-1.1875 0.734375,-1.1875 0.171875,0 0.3125,0.078125 0.3125,0.453125 0,0.234375 -0.03125,0.34375 -0.078125,0.515625 z m 1.75,-4.328125 C 2.265625,-3.375 2.546875,-3.65625 2.71875,-3.8125 c 0.359375,-0.296875 0.640625,-0.375 0.8125,-0.375 0.390625,0 0.640625,0.34375 0.640625,0.9375 0,0.59375 -0.328125,1.734375 -0.515625,2.109375 -0.34375,0.703125 -0.8125,1.03125 -1.1875,1.03125 C 1.8125,-0.109375 1.6875,-0.9375 1.6875,-1 c 0,-0.015625 0,-0.03125 0.03125,-0.15625 z m 0,0"
               id="id-f8df3d90-674c-44e9-86d9-52d796a03cbe" />
          </g>
          <g
             id="id-3e7f15ba-3484-4723-859f-aadf1601f79a">
            <path
               d="m 2.015625,-3.296875 c 0.0625,-0.109375 0.0625,-0.171875 0.0625,-0.21875 0,-0.21875 -0.1875,-0.375 -0.40625,-0.375 -0.265625,0 -0.34375,0.21875 -0.375,0.328125 L 0.375,-0.546875 c -0.015625,0.015625 -0.046875,0.09375 -0.046875,0.109375 0,0.078125 0.21875,0.15625 0.28125,0.15625 0.046875,0 0.046875,-0.015625 0.09375,-0.125 z m 0,0"
               id="id-eb9c17ce-f3d3-4dc0-8880-2fa7552fc377" />
          </g>
          <g
             id="id-4f03e5c7-373b-4d96-b37a-c50920565786">
            <path
               d="M 3.59375,-2.21875 C 3.59375,-2.984375 3.5,-3.546875 3.1875,-4.03125 2.96875,-4.34375 2.53125,-4.625 1.984375,-4.625 c -1.625,0 -1.625,1.90625 -1.625,2.40625 0,0.5 0,2.359375 1.625,2.359375 1.609375,0 1.609375,-1.859375 1.609375,-2.359375 z M 1.984375,-0.0625 c -0.328125,0 -0.75,-0.1875 -0.890625,-0.75 C 1,-1.21875 1,-1.796875 1,-2.3125 1,-2.828125 1,-3.359375 1.09375,-3.734375 1.25,-4.28125 1.6875,-4.4375 1.984375,-4.4375 c 0.375,0 0.734375,0.234375 0.859375,0.640625 0.109375,0.375 0.125,0.875 0.125,1.484375 0,0.515625 0,1.03125 -0.09375,1.46875 -0.140625,0.640625 -0.609375,0.78125 -0.890625,0.78125 z m 0,0"
               id="id-acb4c658-4d15-413b-a464-a7a14f96f1ee" />
          </g>
        </g>
      </defs>
      <g
         fill="#000000"
         fill-opacity="1"
         id="id-dd736bf6-fd8b-409d-80a4-a4485d734853"
         transform="translate(-148.4,-127.258)">
        <g
           transform="translate(148.712,134.765)"
           id="g70">
          <path
             d="M 0.453125,1.21875 C 0.375,1.5625 0.34375,1.625 -0.09375,1.625 c -0.109375,0 -0.21875,0 -0.21875,0.1875 0,0.078125 0.046875,0.125 0.125,0.125 0.265625,0 0.5625,-0.03125 0.828125,-0.03125 0.34375,0 0.671875,0.03125 1,0.03125 0.046875,0 0.171875,0 0.171875,-0.203125 C 1.8125,1.625 1.71875,1.625 1.578125,1.625 c -0.5,0 -0.5,-0.0625 -0.5,-0.15625 0,-0.125 0.421875,-1.75 0.484375,-2 0.125,0.296875 0.40625,0.640625 0.921875,0.640625 1.15625,0 2.40625,-1.453125 2.40625,-2.921875 0,-0.9375 -0.578125,-1.59375 -1.328125,-1.59375 -0.5,0 -0.984375,0.359375 -1.3125,0.75 -0.09375,-0.546875 -0.53125,-0.75 -0.890625,-0.75 -0.46875,0 -0.65625,0.390625 -0.734375,0.5625 C 0.4375,-3.5 0.3125,-2.90625 0.3125,-2.875 c 0,0.109375 0.09375,0.109375 0.109375,0.109375 0.109375,0 0.109375,-0.015625 0.171875,-0.234375 0.171875,-0.703125 0.375,-1.1875 0.734375,-1.1875 0.171875,0 0.3125,0.078125 0.3125,0.453125 0,0.234375 -0.03125,0.34375 -0.078125,0.515625 z m 1.75,-4.328125 C 2.265625,-3.375 2.546875,-3.65625 2.71875,-3.8125 c 0.359375,-0.296875 0.640625,-0.375 0.8125,-0.375 0.390625,0 0.640625,0.34375 0.640625,0.9375 0,0.59375 -0.328125,1.734375 -0.515625,2.109375 -0.34375,0.703125 -0.8125,1.03125 -1.1875,1.03125 C 1.8125,-0.109375 1.6875,-0.9375 1.6875,-1 c 0,-0.015625 0,-0.03125 0.03125,-0.15625 z m 0,0"
             id="id-15fd10e1-d788-4104-ab5b-26c5f3a2074c" />
        </g>
      </g>
      <g
         fill="#000000"
         fill-opacity="1"
         id="id-c44e1833-ec45-4002-8154-570d47c04051"
         transform="translate(-148.4,-127.258)">
        <g
           transform="translate(153.725,131.149)"
           id="g71">
          <path
             d="m 2.015625,-3.296875 c 0.0625,-0.109375 0.0625,-0.171875 0.0625,-0.21875 0,-0.21875 -0.1875,-0.375 -0.40625,-0.375 -0.265625,0 -0.34375,0.21875 -0.375,0.328125 L 0.375,-0.546875 c -0.015625,0.015625 -0.046875,0.09375 -0.046875,0.109375 0,0.078125 0.21875,0.15625 0.28125,0.15625 0.046875,0 0.046875,-0.015625 0.09375,-0.125 z m 0,0"
             id="id-b18babb7-39f9-451c-9879-ce75709f9272" />
        </g>
      </g>
      <g
         fill="#000000"
         fill-opacity="1"
         id="id-d81433c8-9026-4540-9979-06cdbc756867"
         transform="translate(-148.4,-127.258)">
        <g
           transform="translate(153.725,137.237)"
           id="g72">
          <path
             d="M 3.59375,-2.21875 C 3.59375,-2.984375 3.5,-3.546875 3.1875,-4.03125 2.96875,-4.34375 2.53125,-4.625 1.984375,-4.625 c -1.625,0 -1.625,1.90625 -1.625,2.40625 0,0.5 0,2.359375 1.625,2.359375 1.609375,0 1.609375,-1.859375 1.609375,-2.359375 z M 1.984375,-0.0625 c -0.328125,0 -0.75,-0.1875 -0.890625,-0.75 C 1,-1.21875 1,-1.796875 1,-2.3125 1,-2.828125 1,-3.359375 1.09375,-3.734375 1.25,-4.28125 1.6875,-4.4375 1.984375,-4.4375 c 0.375,0 0.734375,0.234375 0.859375,0.640625 0.109375,0.375 0.125,0.875 0.125,1.484375 0,0.515625 0,1.03125 -0.09375,1.46875 -0.140625,0.640625 -0.609375,0.78125 -0.890625,0.78125 z m 0,0"
             id="id-11334403-6b99-4d37-8c03-82b00b59eef7" />
        </g>
      </g>
    </g>
  </g>
</svg>
