<?xml version="1.0" encoding="UTF-8" standalone="no"?>
<!-- Created with Inkscape (http://www.inkscape.org/) -->

<svg
   width="2in"
   height="0.5in"
   viewBox="0 0 50.800001 12.7"
   version="1.1"
   id="svg1"
   inkscape:version="1.4 (86a8ad7, 2024-10-11)"
   sodipodi:docname="Derivation_3.svg"
   xmlns:inkscape="http://www.inkscape.org/namespaces/inkscape"
   xmlns:sodipodi="http://sodipodi.sourceforge.net/DTD/sodipodi-0.dtd"
   xmlns="http://www.w3.org/2000/svg"
   xmlns:svg="http://www.w3.org/2000/svg">
  <sodipodi:namedview
     id="namedview1"
     pagecolor="#ffffff"
     bordercolor="#111111"
     borderopacity="1"
     inkscape:showpageshadow="0"
     inkscape:pageopacity="0"
     inkscape:pagecheckerboard="1"
     inkscape:deskcolor="#d1d1d1"
     inkscape:document-units="mm"
     inkscape:zoom="1.9940756"
     inkscape:cx="132.14143"
     inkscape:cy="1.2537138"
     inkscape:window-width="1920"
     inkscape:window-height="1020"
     inkscape:window-x="1912"
     inkscape:window-y="-8"
     inkscape:window-maximized="1"
     inkscape:current-layer="layer1" />
  <defs
     id="defs1" />
  <g
     inkscape:label="Layer 1"
     inkscape:groupmode="layer"
     id="layer1">
    <g
       id="g1">
      <g
         id="g2"
         transform="matrix(0.02137659,0,0,0.02137659,25.530204,-7.2722027)">
        <path
           fill="none"
           stroke="#000000"
           stroke-width="8.25"
           stroke-linecap="round"
           stroke-linejoin="round"
           d="m -1164.83,378.428 0.09,0.255 -0.3,-0.006 0.11,9.802 -1.84,11.651 0.45,12.843 -0.77,4.315 0.08,8.497 -2.64,11.236 0.15,1.478 -0.61,0.964 0.06,0.993 -1.04,1.792 0.01,0.312 0.15,-0.146 -3.15,-1.638 -0.72,-0.665 -1.84,-1.953 -1.61,-3.499 -1.92,-2.498 -0.96,-1.832 -4.5,-14.201 -0.42,-4.573 0.48,-9.697 1.13,-6.85 2.7,-9.113 1.95,-3.888 2.64,-3.127 2.53,-3.988 3.19,-3.144 3.35,-3.979 3.74,-2.833 5.7,-3.304 3.61,-1.515 9.94,-2.78 8.83,-1.426 1.43,0.036 3.3,1.282 2.84,2.139 0.9,1.913 0.68,4.646 -2.47,7.121 -3.16,6.172 -9.49,12.037 -4.21,6.894 -1.53,3.388 -1.38,4.509 -2.65,4.144 -0.23,0.796 0.48,3.597 0.83,1.475 2.2,2.27 5.47,2.583 3.99,1.145 4.57,1.83 7.11,1.083 3.27,0.867 9.23,-0.2"
           id="path1" />
      </g>
      <g
         id="g3"
         transform="matrix(0.02137659,0,0,0.02137659,25.530204,-7.2722027)">
        <path
           fill="none"
           stroke="#000000"
           stroke-width="8.25"
           stroke-linecap="round"
           stroke-linejoin="round"
           d="m -1105.88,428.554 8.09,-7.901 1.5,-2.908 1.87,-2.045 1.79,-8.271 1.01,-2.017 -0.27,-1.951 -2.77,1.493 -1.49,1.26 -1.01,1.131 -2.07,3.984 -0.41,2.539 0.44,3.499 1.56,4.507 1.98,3.429 2.96,3.47 5.14,4.293 13.23,4.845 5.41,2.975"
           id="path2" />
      </g>
      <g
         id="g4"
         transform="matrix(0.02137659,0,0,0.02137659,25.530204,-7.2722027)">
        <path
           fill="none"
           stroke="#000000"
           stroke-width="8.25"
           stroke-linecap="round"
           stroke-linejoin="round"
           d="m -1056.55,420.492 0.36,0.359 -0.21,0.045 -0.08,-0.727 -0.15,-7.372 0.37,1.451 0.05,7.924 2.13,14.411 0.86,8.342 -0.2,5.036 1.94,15.376 -0.14,5.224 0.6,4.898 -0.24,11.909 0.82,2.504 -0.21,4.809 0.1,-1.133 -1.53,-5.145 0.08,-3.293 -1.25,-7.796 0.34,-13.123 1.82,-15.406 0.66,-3.265 1.34,-6.384 2.01,-6.295 1.34,-3.131 3.87,-7.203 6.24,-9.812 1.57,-1.928 1.73,-1.431 1.8,-0.143 3.03,0.495 5.19,1.392 2.37,1.251 2.3,1.957 1.59,1.917 0.83,2.457 1.4,2.105 1.09,5.686 -0.06,1.165 -0.88,2.292 -1.56,2.297 -4.1,4.634 -1.55,1.118 -5.61,2.385 -5.15,1.347 -4.5,1.644 -1.82,0.271 -8.68,-0.538 -4.32,-2.191 -0.57,-0.597 0.61,-0.75"
           id="path3" />
      </g>
      <g
         id="g5"
         transform="matrix(0.02137659,0,0,0.02137659,25.530204,-7.2722027)">
        <path
           fill="none"
           stroke="#000000"
           stroke-width="8.25"
           stroke-linecap="round"
           stroke-linejoin="round"
           d="m -984.8,348.452 -0.288,0.197 0.134,21.63 -0.742,5.074 0.158,19.658 -0.752,5.779 0.043,7.911 -0.672,4.986 -0.003,2.246 0.156,20.317 0.796,1.294 -0.016,0.974 0.627,1.074 0.41,0.299 0.376,-0.138"
           id="path4" />
      </g>
      <g
         id="g6"
         transform="matrix(0.02137659,0,0,0.02137659,25.530204,-7.2722027)">
        <path
           fill="none"
           stroke="#000000"
           stroke-width="8.25"
           stroke-linecap="round"
           stroke-linejoin="round"
           d="m -938.22,418.085 -4.89,-2.261 -4.422,-0.625 -1.672,0.161 -1.393,0.191 -5.281,1.89 -4.316,3.122 -5.32,4.303 -1.559,2.351 -2.601,5.958 -0.246,1.16 0.458,3.11 1.623,2.373 5.266,3.333 2.541,0.846 4.444,-0.461 7.487,-1.929 4.378,-1.868 1.463,-0.951 7.935,-6.284 1.681,-1.686 1.367,-2.553 1.074,-1.005 0.253,-0.162 0.523,0.375 3.007,-1.506 0.649,-0.009 0.286,0.058 -0.649,2.608 0.2,1.214 3.348,8.431 1.603,2.192 4.664,3.826 2.446,0.447 2.251,-0.38 0.507,0.287 3.335,-0.004"
           id="path5" />
      </g>
      <g
         id="g7"
         transform="matrix(0.02137659,0,0,0.02137659,25.530204,-7.2722027)">
        <path
           fill="none"
           stroke="#000000"
           stroke-width="8.25"
           stroke-linecap="round"
           stroke-linejoin="round"
           d="m -856.282,411.719 -0.803,0.069 -5.996,-1.36 -4.088,0.25 -5.44,1.764 -4.138,2.035 -4.465,1.735 -3.028,1.833 -2.279,1.857 -3.002,3.76 -2.896,6.266 -0.274,1.194 0.495,3.906 0.807,1.916 2.797,3.69 0.969,0.481 12.153,3.768 4.28,0.455 10.356,-0.519 8.235,-1.387 6.249,-1.963 4.334,-1.775 7.112,-5.48 1.657,-1.711 3.487,-5.113 0.919,-2.403 1.196,-1.846 -0.207,-1.044 -0.336,0.535 -2.186,0.96 -3.339,3.368 -2.717,4.494 -0.891,4.917 0.294,3.459 1.579,4.235 2.349,2.239 2.8,1.681 9.493,2.632 5.138,0.425 7.286,-0.352 9.738,-1.835 5.925,-1.914 2.634,-1.178 2.72,-1.867 2.942,-2.611 1.544,-1.789 2.07,-3.911 1.49,-7.109 -0.11,-1.562 -1.298,-1.24 -0.328,-0.725 -0.28,0.181 -2.049,-0.421 -0.886,0.06 -1.635,1.219 -0.506,0.696 -0.469,2.737 0.395,2.741 0.815,2.36 2.167,3.582 3.3,3.388 6.192,3.423 5.241,1.539"
           id="path6" />
      </g>
      <g
         id="g8"
         transform="matrix(0.02137659,0,0,0.02137659,25.530204,-7.2722027)">
        <path
           fill="none"
           stroke="#000000"
           stroke-width="8.25"
           stroke-linecap="round"
           stroke-linejoin="round"
           d="m -533.786,424.784 -0.232,-0.038 4.72,-8.955 1.839,-7.695 0.649,-1.14 0.663,-2.354 1.725,-8.75 2.688,-9.261 -0.394,-2.63 0.077,46.131 1.57,5.165 -0.318,1.193 -0.099,-4.25 -0.349,-0.847"
           id="path7" />
      </g>
      <g
         id="g9"
         transform="matrix(0.02137659,0,0,0.02137659,25.530204,-7.2722027)">
        <path
           fill="none"
           stroke="#000000"
           stroke-width="8.25"
           stroke-linecap="round"
           stroke-linejoin="round"
           d="m -536.168,373.612 -1.273,-0.261 -10,-5.157 -1.286,-0.435 -6.326,-0.795 -9.629,3.414 -3.062,1.927 -7.163,6.473 -1.392,2.153 -3.535,3.662 -1.426,2.06 -1.393,2.062 -4.238,9.896 -0.808,2.742 -3.334,16.64 -0.255,2.962 0.438,7.985 0.882,4.678 2.165,6.545 2.774,4.254 4.588,4.755 3.85,2.622 6.6,3.474 4.926,1.853 15.269,2.348 6.247,-0.243 3.351,-0.491 11.052,-2.402 12.791,-5.253 8.044,-4.505 5.048,-3.587 5.721,-6.027 4.042,-4.929 5.418,-9.711 2.184,-9.1 0.122,-5.881 -1.377,-12.151 -4.239,-12.873 -1.309,-2.525 -4.789,-7.152 -4.549,-3.589 -8.595,-5.589 -7.244,-2.781 -2.412,-0.403 -9.887,-0.103 -6.674,1.305 -5.098,1.963 -1.606,0.932"
           id="path8" />
      </g>
      <g
         id="g10"
         transform="matrix(0.02137659,0,0,0.02137659,25.530204,-7.2722027)">
        <path
           fill="none"
           stroke="#000000"
           stroke-width="8.25"
           stroke-linecap="round"
           stroke-linejoin="round"
           d="m -317.032,401.51 -0.22,0.254 0.122,11.695 -4.147,23.851 0.069,1.735 -0.569,2.784 0.183,2.734 -0.677,1.387 0.183,5.444 -1.069,-0.864 -2.259,-1.099"
           id="path9" />
      </g>
      <g
         id="g11"
         transform="matrix(0.02137659,0,0,0.02137659,25.530204,-7.2722027)">
        <path
           fill="none"
           stroke="#000000"
           stroke-width="8.25"
           stroke-linecap="round"
           stroke-linejoin="round"
           d="m -303.077,415.514 -1.795,14.048 -2.775,11.707 -1.157,2.957 -1.5,2.603 0.169,0.92 2.269,-5.743 2.284,-11.301 1.494,-5.254 2.045,-4.217 1.541,-0.544 1.649,0.04 1.034,0.411 5.959,6.004 1.251,1.927 3.789,3.528 2.564,1.679 4.485,2.172 6.094,2.112 2.139,1.139 4.471,-0.605 3.264,-0.078 2.472,-1.299 1.898,-1.365 1.717,-1.887 2.294,-9.124 0.642,-3.099 -0.393,-7.491 -1.101,-1.599 0.383,-3.615 -0.112,0.318 0.942,1.166"
           id="path10" />
      </g>
      <g
         id="g12"
         transform="matrix(0.02137659,0,0,0.02137659,25.530204,-7.2722027)">
        <path
           fill="none"
           stroke="#000000"
           stroke-width="8.25"
           stroke-linecap="round"
           stroke-linejoin="round"
           d="m -209.819,419.264 -5.404,6.27 -1.092,1.792 -1.712,6.901 -0.96,2.616 -0.63,3.959 0.195,6.572 0.343,0.563 0.005,1.246 0.333,0.599 0.526,0.144 -0.091,-0.539 1.182,-3.903 -0.197,-1.029 -0.888,-0.998"
           id="path11" />
      </g>
      <g
         id="g13"
         transform="matrix(0.02137659,0,0,0.02137659,25.530204,-7.2722027)">
        <path
           fill="none"
           stroke="#000000"
           stroke-width="8.25"
           stroke-linecap="round"
           stroke-linejoin="round"
           d="m -250.217,410.851 15.022,-2.315 11.982,0.458 19.014,-0.126 5.748,1.496"
           id="path12" />
      </g>
      <g
         id="g14"
         transform="matrix(0.02137659,0,0,0.02137659,25.530204,-7.2722027)">
        <path
           fill="none"
           stroke="#000000"
           stroke-width="8.25"
           stroke-linecap="round"
           stroke-linejoin="round"
           d="m -172.775,413.506 -2.658,1.817 -5.78,5.696 -0.816,1.198 -2.665,7.68 -0.242,1.149 0.309,3.505 1.221,3.065 3.065,3.218 3.24,1.454 7.262,2.266 3.763,0.481 3.84,-0.261 12.569,-2.293 5.592,-2.439 2.8,-1.924 1.519,-1.906 0.761,-1.738 0.67,-4.874 -0.058,-1.175 -0.855,-2.29 -3.07,-4.254 -2.791,-3.215 -3.755,-1.913 -3.118,-0.839 -7.54,-1.093 -2.158,-0.656 -1.055,0.03 -2.264,0.911"
           id="path13" />
      </g>
      <g
         id="g15"
         transform="matrix(0.02137659,0,0,0.02137659,25.530204,-7.2722027)">
        <path
           fill="none"
           stroke="#000000"
           stroke-width="8.25"
           stroke-linecap="round"
           stroke-linejoin="round"
           d="m -8.38397,414.764 0.45292,0.291 -0.45879,-0.116 -0.01364,0.564 3.9599,17.565 -0.19538,2.169 0.52259,4.999 0.34096,0.444 -0.02889,2.883 -0.33684,-0.326 -1.08732,-0.095 -5.98994,-2.059 -4.8656,-2.511"
           id="path14" />
      </g>
      <g
         id="g16"
         transform="matrix(0.02137659,0,0,0.02137659,25.530204,-7.2722027)">
        <path
           fill="none"
           stroke="#000000"
           stroke-width="8.25"
           stroke-linecap="round"
           stroke-linejoin="round"
           d="m -50.0613,395.554 6.542,0.039 2.1632,-0.376 11.0347,0.07 14.6719,1.884 12.04595,2.544 10.08706,2.842 7.94319,3.788 6.1256,4.639 3.4653,3.65 2.575,3.561 2.3867,4.736 0.4082,1.704 0.0199,4.908 -0.9728,2.668 -3.3562,4.968 -3.4391,3.34 -5.8087,4.156 -4.3211,2.794 -4.53518,2.13 -17.26322,4.396 -5.0347,0.759 -1.7295,-0.092 -1.4543,-0.114 -9.8829,-2.755 -2.853,-3.395 0.2184,-0.875 0.8822,-0.23"
           id="path15" />
      </g>
      <g
         id="g17"
         transform="matrix(0.02137659,0,0,0.02137659,25.530204,-7.2722027)">
        <path
           fill="none"
           stroke="#000000"
           stroke-width="8.25"
           stroke-linecap="round"
           stroke-linejoin="round"
           d="m 57.4487,405.668 -0.5242,0.705 -0.3895,1.871 -2.9215,7.926 -2.0942,14.264 0.1499,13.426 0.7667,0.941 -0.1701,2.664 0.84,-2.624"
           id="path16" />
      </g>
      <g
         id="g18"
         transform="matrix(0.02137659,0,0,0.02137659,25.530204,-7.2722027)">
        <path
           fill="none"
           stroke="#000000"
           stroke-width="8.25"
           stroke-linecap="round"
           stroke-linejoin="round"
           d="m 43.166,402.46 2.2228,0.096 5.131,-0.823 18.0214,-0.349 5.9726,-0.663 9.6863,0.086 -3.0592,1.046"
           id="path17" />
      </g>
      <g
         id="g19"
         transform="matrix(0.02137659,0,0,0.02137659,25.530204,-7.2722027)">
        <path
           fill="none"
           stroke="#000000"
           stroke-width="8.25"
           stroke-linecap="round"
           stroke-linejoin="round"
           d="m 49.1393,421.034 5.0031,-0.029 1.9884,-0.395 27.8069,0.114 1.3935,-0.356 4.4644,0.076 -3.0007,1.041 -0.8944,0.697 -3.3788,0.986 -7.1528,3.643 -6.5828,2.294 -6.5627,3.526 -2.1344,1.794 -3.1893,1.66 -2.3782,2.761 -0.4592,1.196 0.4234,2.355 1.1482,1.709 1.1168,0.39 1.6913,1.309 5.8287,1.759 4.9088,-0.361 6.6732,-0.009 13.6533,-2.281 6.7886,-1.386 4.9864,-1.446 3.659,-1.69 0.179,-1.256 1.938,-3.038 -0.091,-0.444 -4.1,4.019 -0.269,0.634 -0.924,2.611 0.207,4.905 0.015,-1.095 1.48,-2.899 1.758,-6.004 3.548,-20.696 4.507,-8.98 3.294,-4.001 1.881,-1.013 2.79,-0.495 3.592,-1.136 2.596,0.149 3.557,1.553 1.85,1.179 3.489,3.686 1.196,1.84 2.064,7.055 -0.202,3.372 -5.488,9.205 -1.815,1.519 -2.82,1.405 -5.594,5.867 2.642,2.812 4.277,1.171 5.715,-0.33 5.194,-1.117 3.081,-0.221 13.617,-2.32 3.907,-1.997 2.894,-2.406 3.631,-2.244 1.65,-1.699 1.956,-6.751 -0.283,-5.911 0.065,-10.362 -0.046,0.719 0.739,1.656 0.046,2.121 1.381,3.601 -0.048,1.149 1.196,4.456 -0.06,1.467 0.913,4.372 2.412,6.195 1.778,3.236 1.363,1.153"
           id="path18" />
      </g>
      <g
         id="g20"
         transform="matrix(0.02137659,0,0,0.02137659,25.530204,-7.2722027)">
        <path
           fill="none"
           stroke="#000000"
           stroke-width="8.25"
           stroke-linecap="round"
           stroke-linejoin="round"
           d="m 205.012,410.29 -0.244,0.064 5.009,7.998 1.174,3.096 1.69,2.702 2.001,4.304 0.906,1.04 2.38,4.655 3.019,3.772 1.352,3.168 0.656,0.495 2.157,-0.043 3.013,-1.954"
           id="path19" />
      </g>
      <g
         id="g21"
         transform="matrix(0.02137659,0,0,0.02137659,25.530204,-7.2722027)">
        <path
           fill="none"
           stroke="#000000"
           stroke-width="8.25"
           stroke-linecap="round"
           stroke-linejoin="round"
           d="m 248.98,401.898 -2.86,4.559 -6.855,12.575 -11.012,12.276 -5.827,7.9 -1.367,2.545 -1.712,1.326 -0.542,1.129 0.457,2.175 1.681,0.084 0.819,-0.458"
           id="path20" />
      </g>
      <g
         id="g22"
         transform="matrix(0.02137659,0,0,0.02137659,25.530204,-7.2722027)">
        <path
           fill="none"
           stroke="#000000"
           stroke-width="8.25"
           stroke-linecap="round"
           stroke-linejoin="round"
           d="m 276.301,400.179 -2.853,4.55 -7.039,21.358 -1.811,4.83 -1.767,3.077 -0.638,3.28 0.45,2.902 -0.157,3.545 0.011,-7.921 5.178,-16.68 7.113,-11.624 2.399,-2.602 1.537,-2.203 3.5,-2.991 0.287,0.318 0.997,-0.64 0.644,-0.023 0.569,0.373 2.461,9.372 2.923,15.769 2.097,3.92 0.71,3.057 3.097,8.396 0.523,0.403 -2.309,-2.496 -1.16,-0.702 -18.749,-8.95 -5.379,-0.683 -3.29,-1.234 0.083,-0.319 3.47,1.667 4.699,1.028 16.056,2.401 2.881,-0.121"
           id="path21" />
      </g>
      <g
         id="g23"
         transform="matrix(0.02137659,0,0,0.02137659,25.530204,-7.2722027)">
        <path
           fill="none"
           stroke="#000000"
           stroke-width="8.25"
           stroke-linecap="round"
           stroke-linejoin="round"
           d="m 337.468,409.432 -1.63,2.542 -5.033,12.612 -1.076,7.001 0.236,8.379 1.127,1.815 -0.095,1.039 0.582,1.123 -0.078,0.961 -0.135,-0.922 -3.161,-6.436 -2.098,-2.472 -1.952,-3.065 -3.825,-4.473 -4.722,-7.146 -6.632,-7.713 -8.35,-12.677 -2.354,-1.843 0.411,-0.632 8.043,-1.902 11.912,0.377 2.445,-0.35 5.305,-0.075 2.841,-0.003 5.524,0.76 11.726,-0.106 5.517,1.049 6.671,-0.289 0.775,0.031 -1.121,0.367"
           id="path22" />
      </g>
      <g
         id="g24"
         transform="matrix(0.02137659,0,0,0.02137659,25.530204,-7.2722027)">
        <path
           fill="none"
           stroke="#000000"
           stroke-width="8.25"
           stroke-linecap="round"
           stroke-linejoin="round"
           d="m 373.957,401.079 -1.594,4.419 -0.404,2.205 -1.386,3.427 -2.616,13.823 0.332,5.485 1.825,5.109 3.171,5.62"
           id="path23" />
      </g>
      <g
         id="g25"
         transform="matrix(0.02137659,0,0,0.02137659,25.530204,-7.2722027)">
        <path
           fill="none"
           stroke="#000000"
           stroke-width="8.25"
           stroke-linecap="round"
           stroke-linejoin="round"
           d="m 394.163,416.355 -3.948,2.637 -4.189,1.976 -1.182,0.862 -1.514,1.821 -1.07,2.575 -1.63,2.566 -0.525,1.738 0.422,4.321 1.467,2.172 6.255,3.83 2.463,1.165 4.886,0.637 3.368,-0.237 11.069,-2.47 4.35,-2.847 1.649,-1.994 0.906,-1.821 0.969,-7.152 -0.046,-1.502 -1.292,-4.308 -2.795,-4.163 -3.776,-4.583 -2.117,-1.612 -2.576,-0.89 -1.701,-0.219 -3.249,0.916 -1.505,1.369"
           id="path24" />
      </g>
      <g
         id="g26"
         transform="matrix(0.02137659,0,0,0.02137659,25.530204,-7.2722027)">
        <path
           fill="none"
           stroke="#000000"
           stroke-width="8.25"
           stroke-linecap="round"
           stroke-linejoin="round"
           d="m 441.087,418.975 -0.823,0.671 -5.826,7.841 -2.816,6.419 -0.608,0.817 -3.713,2.832 -0.739,2.794 0.293,-0.384 -0.003,-2.401 1.358,-2.309 0.632,-1.758 1.436,-6.254 2.684,-4.506 5.927,-6.97 6.497,-3.079 0.864,0.115 0.629,0.807 2.7,1.49 2.985,3.08 3.515,6.214 1.991,1.707 4.676,5.547 2.474,1.501 4.92,1.865 5.827,2.967 2.395,0.454 3.669,-0.543 4.268,-2.841 1.665,-1.758 0.186,-0.578 0.799,-5.153 -0.272,-4.649 -0.73,-4.471 0.082,-2.953 -0.93,-4.264 0.172,-9.46 0.057,-0.367 0.591,0.641 1.19,2.987"
           id="path25" />
      </g>
      <g
         id="g27"
         transform="matrix(0.02137659,0,0,0.02137659,25.530204,-7.2722027)">
        <path
           fill="none"
           stroke="#000000"
           stroke-width="8.25"
           stroke-linecap="round"
           stroke-linejoin="round"
           d="m 516.094,450.753 0.028,-0.029"
           id="path26" />
      </g>
      <g
         id="g28"
         transform="matrix(0.02137659,0,0,0.02137659,25.530204,-7.2722027)">
        <path
           fill="none"
           stroke="#000000"
           stroke-width="8.25"
           stroke-linecap="round"
           stroke-linejoin="round"
           d="m -1141.88,585.859 0.54,0.323 -0.5,-0.128 0.66,-0.377 3.55,-1.591 12.69,-3.564 9.67,-0.702 11.78,-1.491 3.97,0.114 6.96,1.668 8.54,3.732 2.27,1.833 1.91,3.851 -0.08,3.844 -1.05,3.383 -3.37,5.869 -6.6,8.361 -6.68,6.769 -9.06,6.655 -10.94,8.826 -3.47,2.18 -3.26,1.479 -3.88,2.534 -1.72,2.221 -0.87,0.131 7.25,0.231 24.78,-3.698 13.29,0.25"
           id="path27" />
      </g>
      <g
         id="g29"
         transform="matrix(0.02137659,0,0,0.02137659,25.530204,-7.2722027)">
        <path
           fill="none"
           stroke="#000000"
           stroke-width="8.25"
           stroke-linecap="round"
           stroke-linejoin="round"
           d="m -993.406,575.891 -0.281,0.113 0.044,-0.789 0.913,-2.504 -0.201,-3.657 -1.982,-2.545 -8.677,-1.699 -1.98,0.044 -5.33,1.317 -5.32,2.126 -7.01,2.277 -8.92,4.567 -2.81,1.742 -5.03,5.758 -3.94,6.237 0.47,2.611 1.32,2.677 3.45,2.687 5.94,3.276 3.88,1.058 20.15,8.564 5.87,2.973 2.55,1.649 4.491,4.245 0.941,1.73 0.335,2.141 -0.284,1.669 -1.277,2.533 -3.195,2.61 -3.401,1.739 -7.77,2.003 -10.71,3.464 -3.63,0.471 -3.46,-0.31 -13.01,-3.538 -2.28,-1.472 2.27,-0.685 1.22,-0.723 2.98,-0.706"
           id="path28" />
      </g>
      <g
         id="g30"
         transform="matrix(0.02137659,0,0,0.02137659,25.530204,-7.2722027)">
        <path
           fill="none"
           stroke="#000000"
           stroke-width="8.25"
           stroke-linecap="round"
           stroke-linejoin="round"
           d="m -972.038,604.192 -2.267,2.097 -3.156,3.796 -2.015,3.467 -2.067,5.404 -0.382,3.736 0.348,4.15 2.076,5.693 1.976,1.719 2.996,1.584 3.582,2.423 0.893,0.252 4.356,-0.666 3.578,-1.397 3.575,-2.565 2.042,-3.761 2.688,-10.955 -0.373,-7.106 0.369,-1.106 0.018,-3.724 -0.63,1.788 -2.338,3.611 -0.965,5.215 0.518,6.565 2.309,8.289 0.279,0.809 3.26,4.078 1.786,1.563 3.839,2.237 1.522,1.774 0.541,0.254 0.558,-0.149 0.114,-0.338"
           id="path29" />
      </g>
      <g
         id="g31"
         transform="matrix(0.02137659,0,0,0.02137659,25.530204,-7.2722027)">
        <path
           fill="none"
           stroke="#000000"
           stroke-width="8.25"
           stroke-linecap="round"
           stroke-linejoin="round"
           d="m -1149.65,657.031 4.01,-0.747 6.19,0.065 1.94,-0.281 19.94,0.161 6.26,-0.744 23.48,0.128 9.63,-0.356 39.21,0.1 26.07,1.376 42.158,-0.305 7.696,-0.694 13.371,0.124 14.649,-1.733 7.895,0.382 6.724,-0.058"
           id="path30" />
      </g>
      <g
         id="g32"
         transform="matrix(0.02137659,0,0,0.02137659,25.530204,-7.2722027)">
        <path
           fill="none"
           stroke="#000000"
           stroke-width="8.25"
           stroke-linecap="round"
           stroke-linejoin="round"
           d="m -1090.08,708.236 0.26,0.279 -0.36,-0.006 0.02,-0.821 0.4,-1.585 0.02,-3.253 0.34,-1.219 -0.12,-2.92 0.32,-0.26 0.04,-2.454 -0.04,47.548 -1.46,8.943 0.31,7.931 -0.71,2.006 0.07,7.379 0.1,-0.477 -0.87,-1.303 0.21,-9.807 -0.76,-2.545 -0.04,-1.549 0.22,-11.703 -0.17,-43.716 3.54,2.098 2.33,2.496 3.51,4.907 4.78,4.655 4.36,5.96 0.92,0.839 3.74,5.676 4.85,4.361 0.61,1.76 0.57,0.567 0.68,0.596 1.14,0.096 1.15,-0.483 1.48,-0.056 1.9,-0.981 2.88,-3.269 2.35,-3.717 3.58,-7.625 2.38,-8.093 0.43,-3.976 0.53,-1.609 2.27,-11.956 2.43,-6.029 -0.28,-1.263 -0.29,0.574 0.26,13.011 -0.77,4.045 -0.03,2.193 0.2,26.591 1.87,9.681 -0.45,7.935 1.15,4.235 -0.02,2.85 1.96,6.31 -0.46,3.124 0.37,0.587 0.07,1.554 -0.05,-3.425 2.02,-2.55"
           id="path31" />
      </g>
      <g
         id="g33"
         transform="matrix(0.02137659,0,0,0.02137659,25.530204,-7.2722027)">
        <path
           fill="none"
           stroke="#000000"
           stroke-width="8.25"
           stroke-linecap="round"
           stroke-linejoin="round"
           d="m -1004.44,714.12 -0.46,0.642 -0.4,1.781 -0.05,2.289 0.26,15.967 -0.09,47.057 0.02,-3.684 0.76,-2.631 0.28,-3.894 -0.11,-5.591 0.68,-4.137 0.25,-13.124 0.68,-6.127 8.414,-35.018 2.97,-8.609 1.205,-2.666 2.972,-4.62 2.353,-1.901 4.52,-1.851 0.872,0.031 3.042,1.687 2.855,3.233 1.687,7.7 -0.096,3.222 -1.281,4.369 -3.4,5.218 -2.844,3.483 -1.841,1.304 -4.625,1.827 -4.866,2.396 -1.485,0.258 -7.313,-0.628 -2.889,-1.104 -3.52,-1.886 -0.31,-0.307 1.25,0.007 3.49,-1.106"
           id="path32" />
      </g>
      <g
         id="g34"
         transform="matrix(0.02137659,0,0,0.02137659,25.530204,-7.2722027)">
        <path
           fill="none"
           stroke="#000000"
           stroke-width="8.25"
           stroke-linecap="round"
           stroke-linejoin="round"
           d="m -951.574,687.309 -0.141,-5.866 0.386,-1.607 0.18,-6.478 0.67,2.597 0.029,4.539 -1.63,6.843 0.034,1.547 -1.751,11.057 0.291,5.169 -0.635,3.048 -0.021,4.037 -0.69,2.713 0.2,8.701"
           id="path33" />
      </g>
      <g
         id="g35"
         transform="matrix(0.02137659,0,0,0.02137659,25.530204,-7.2722027)">
        <path
           fill="none"
           stroke="#000000"
           stroke-width="8.25"
           stroke-linecap="round"
           stroke-linejoin="round"
           d="m -953.39,759.719 -4.245,5.542 -3.257,7.007 -0.347,2.183 0.435,3.437 1.541,3.553 1.351,1.284 4.846,2.615 1.195,0.578 2.894,0.455 4.82,-0.366 4.33,-1.552 2.244,-1.304 8.405,-6.437 1.178,-1.159 1.666,-2.472 0.437,-1.215 0.1,-2.327 -1.354,-4.161 -2.265,-4.532 -2.862,-3.18 -3.251,-2.124 -3.277,-1.573 -5.87,-1.843 -5.482,-0.907"
           id="path34" />
      </g>
      <g
         id="g36"
         transform="matrix(0.02137659,0,0,0.02137659,25.530204,-7.2722027)">
        <path
           fill="none"
           stroke="#000000"
           stroke-width="8.25"
           stroke-linecap="round"
           stroke-linejoin="round"
           d="m -838.181,624.406 -8.863,0.02 5.363,0.023 2.576,0.732 8.968,-0.15 3.884,0.678 8.85,-0.072 4.944,0.672 21.782,-0.138 2.707,-0.7 -3.13,1.203 -2.803,2.151"
           id="path35" />
      </g>
      <g
         id="g37"
         transform="matrix(0.02137659,0,0,0.02137659,25.530204,-7.2722027)">
        <path
           fill="none"
           stroke="#000000"
           stroke-width="8.25"
           stroke-linecap="round"
           stroke-linejoin="round"
           d="m -838.422,650.409 1.976,-0.015 3.25,0.749 4.626,-0.04 7.355,1.332 11.234,-0.365 20.899,0.079 1.649,-0.396 1.26,0.059 -0.8,0.308"
           id="path36" />
      </g>
      <g
         id="g38"
         transform="matrix(0.02137659,0,0,0.02137659,25.530204,-7.2722027)">
        <path
           fill="none"
           stroke="#000000"
           stroke-width="8.25"
           stroke-linecap="round"
           stroke-linejoin="round"
           d="m -630.918,579.553 -0.115,2.408 -3.523,25.191 0.183,4.836 -0.617,5.732 0.12,35.135 -0.774,1.368 0.2,3.022 0.075,-0.33 -2.299,-4.196 -1.647,-5.233 0.694,-14.078 3.456,-19.699 -0.019,-17.452 -0.742,-2.51 0.007,-2.182 -1.26,-5.715 0.224,-13.895 2.737,-7.783 2.977,-2.96 3.922,-2.631 2.797,-1.063 2.002,-0.542 11.252,-1.376 8.931,2.353 7.455,3.637 2.345,1.847 1.639,2.191 1.884,5.248 1.238,8.22 -0.049,1.646 -1.731,8.512 -2.046,5.38 -3.874,7.299 -8.147,10.548 -2.446,4.323 -3.742,7.835 -0.732,3.214 0.375,2.313 1.584,3.45 1.332,1.745 4.329,3.094 8.379,3.188 3.954,0.436 7.396,-0.457 1.401,-0.351 2.906,0.021 4.928,-1.588 0.841,0.155 0.439,-0.234 0.836,0.084 -1.697,0.707"
           id="path37" />
      </g>
      <g
         id="g39"
         transform="matrix(0.02137659,0,0,0.02137659,25.530204,-7.2722027)">
        <path
           fill="none"
           stroke="#000000"
           stroke-width="8.25"
           stroke-linecap="round"
           stroke-linejoin="round"
           d="m -676.618,659.618 14.282,-0.313 11.431,-1.72 16.823,0.409 32.207,-0.079 12.301,1.497 6.656,-0.206 7.622,1.235 9.691,-0.224 -0.898,-0.333 -0.051,-0.455 -1.498,-0.275 -1.999,-1.017 -0.572,0.069 -2.42,1.469"
           id="path38" />
      </g>
      <g
         id="g40"
         transform="matrix(0.02137659,0,0,0.02137659,25.530204,-7.2722027)">
        <path
           fill="none"
           stroke="#000000"
           stroke-width="8.25"
           stroke-linecap="round"
           stroke-linejoin="round"
           d="m -635.055,693.993 9.416,-2.101 11.071,-1.636 4.479,0.258 11.134,2.922 3.967,3.201 0.912,3.125 -0.061,0.985 -0.863,1.87 -2.63,3.773 -4.143,3.56 -8.842,5.978 -12.558,11.045 -0.66,1.47 -2.828,2.626 -0.325,0.637 0.569,2.684 3.031,0.737 15.308,-0.531 10.212,-2 2.739,0.176 3.225,-0.864 2.29,0.057 3.406,-1.325 2.743,0.266"
           id="path39" />
      </g>
      <g
         id="g41"
         transform="matrix(0.02137659,0,0,0.02137659,25.530204,-7.2722027)">
        <path
           fill="none"
           stroke="#000000"
           stroke-width="8.25"
           stroke-linecap="round"
           stroke-linejoin="round"
           d="m -536.159,555.683 -0.237,0.127 6.926,11.082 0.824,2.014 3.344,8.34 2.361,9.364 1.909,5.512 0.617,2.692 1.664,7.754 4.128,23.282 3.861,44.677 -0.376,20.774 0.093,53.699 -0.761,4.182 0.206,13.589 -0.759,2.703 0.146,7.539 -2.479,7.349 -2.51,5.607 -4.012,-0.017 -0.62,-0.357 -1.706,-1.079 -4.139,-4.602"
           id="path40" />
      </g>
      <g
         id="g42"
         transform="matrix(0.02137659,0,0,0.02137659,25.530204,-7.2722027)">
        <path
           fill="none"
           stroke="#000000"
           stroke-width="8.25"
           stroke-linecap="round"
           stroke-linejoin="round"
           d="m -674.228,558.284 -0.241,0.121 0.037,-0.79 0.418,-1.558 0.889,-2.453 0.894,-1.282 0.297,-0.085 -0.416,0.768 -6.454,4.552 -2.462,2.523 -2.398,3.184 -7.743,13.743 -3.146,6.243 -2.257,5.95 -3.29,10.237 -4.112,19.369 -0.531,3.721 -1.799,7.386 -4.579,31.454 -1.174,18.602 0.313,22.604 4.043,45.094 2.99,24.96 2.06,8.534 1.489,3.014 -0.261,1.377 1.937,-2.487 4.552,-4.345 2.588,-3.482 3.151,-3.05"
           id="path41" />
      </g>
      <g
         id="g43"
         transform="matrix(0.02137659,0,0,0.02137659,25.530204,-7.2722027)">
        <path
           fill="none"
           stroke="#000000"
           stroke-width="8.25"
           stroke-linecap="round"
           stroke-linejoin="round"
           d="m -460.741,547.607 -6.498,8.092 -8.37,14.1 -1.583,3.248 -3.534,4.458 -1.148,2.693 -0.127,1.521 1.941,-5.363 3.221,-6 7.635,-23.822 1.121,-7.113 1.552,-5.417 2.045,-4.697 0.046,0.377 0.323,-0.141 1.772,1.085 2.18,2.906 4.057,7.521 2.807,3.164 6.272,8.404 9.462,7.895 2.118,2.534 6.321,6.287 3.578,2.317 2.711,2.461 1.859,0.484 0.854,0.799"
           id="path42" />
      </g>
      <g
         id="g44"
         transform="matrix(0.02137659,0,0,0.02137659,25.530204,-7.2722027)">
        <path
           fill="none"
           stroke="#000000"
           stroke-width="8.25"
           stroke-linecap="round"
           stroke-linejoin="round"
           d="m -308.143,628.042 -0.072,0.27 6.094,1.29 16.408,-0.313 6.24,0.742 3.104,0.048 40.956,-0.148 4.212,-0.735 3.551,-0.005 3.245,-0.626 4.162,0.131 1.5,-0.635 1.481,0.029 0.831,-0.3 3.396,0.108 0.202,-0.344 -3.292,0.4 -3.183,1.761 -3.653,1.092"
           id="path43" />
      </g>
      <g
         id="g45"
         transform="matrix(0.02137659,0,0,0.02137659,25.530204,-7.2722027)">
        <path
           fill="none"
           stroke="#000000"
           stroke-width="8.25"
           stroke-linecap="round"
           stroke-linejoin="round"
           d="m -305.205,642.337 4.041,1.1 6.587,-0.126 5.192,0.606 63.269,-0.141 6.521,-1.105 7.031,0.26 0.551,-0.306 3.117,-0.011 -0.878,0.02 -2.107,-0.798 -5.41,0.244"
           id="path44" />
      </g>
      <g
         id="g46"
         transform="matrix(0.02137659,0,0,0.02137659,25.530204,-7.2722027)">
        <path
           fill="none"
           stroke="#000000"
           stroke-width="8.25"
           stroke-linecap="round"
           stroke-linejoin="round"
           d="m -203.536,601.068 -2.807,0.714 -6.117,-0.029 -3.282,0.614 -0.903,0.642 -0.976,-0.152 -0.885,0.299 1.452,2.678 2.879,2.662 3.589,1.513 5.258,1.654 6.728,2.876 19.365,6.181 5.197,2.806 8.781,3.603 5.254,1.171 11.718,3.734 10.825,4.466 3.875,2.891 0.952,2.902 -1.285,1.704 -3.343,1.78 -19.128,8.15 -11.192,2.438 -4.893,1.901 -14.368,4.512 -4.605,2.33 -1.522,1.177 -0.884,1.163 -2.217,0.805 -0.336,-0.1 0.101,-0.197"
           id="path45" />
      </g>
      <g
         id="g47"
         transform="matrix(0.02137659,0,0,0.02137659,25.530204,-7.2722027)">
        <path
           fill="none"
           stroke="#000000"
           stroke-width="8.25"
           stroke-linecap="round"
           stroke-linejoin="round"
           d="m 200.599,595.22 -0.262,0.12 0.136,-5.295 -1.903,-4.022 -2.033,-2.51 -0.676,-0.546 -11.048,-1.7 -2.941,0.085 -6.218,1.294 -13.92,4.359 -10.478,5.459 -4.495,3.406 -3.707,6.051 0.476,3.5 2.304,2.667 3.853,2.744 5.268,2.652 5.595,3.728 4.239,2.376 16.276,12.158 1.315,1.405 3.924,3.076 0.752,1.144 1.349,2.904 0.684,3.908 -0.33,2.169 -1.262,3.378 -4.136,4.662 -3.304,2.331 -7.72,3.152 -18.315,4.312 -2.368,0.253 -7.077,-0.578 -1.598,-0.405 -7.408,-0.146 -1.126,-0.985 -1.149,0.077 -0.285,-0.309 8.777,-1.917"
           id="path46" />
      </g>
      <g
         id="g48"
         transform="matrix(0.02137659,0,0,0.02137659,25.530204,-7.2722027)">
        <path
           fill="none"
           stroke="#000000"
           stroke-width="8.25"
           stroke-linecap="round"
           stroke-linejoin="round"
           d="m 221.131,625.239 -2.299,1.777 -4.596,4.458 -1.786,2.529 -1.495,5.786 -1.691,4.359 -0.514,2.814 0.448,5.364 1.429,3.13 0.6,1.046 1.992,1.607 2.008,1.153 1.044,0.259 3.591,-0.544 3.428,-1.494 2.664,-1.932 5.332,-5.85 6.86,-16.078 1.385,-6.75 0.625,-1.58 0.947,-0.981 -0.272,0.741 -0.105,3.785 -1.727,6.195 -1.167,5.918 0.089,1.428 -0.541,2.838 0.2,11.869 0.345,0.727 0.019,1.374 1.083,1.493 -0.094,1.165 0.611,1.359"
           id="path47" />
      </g>
      <g
         id="g49"
         transform="matrix(0.02137659,0,0,0.02137659,25.530204,-7.2722027)">
        <path
           fill="none"
           stroke="#000000"
           stroke-width="8.25"
           stroke-linecap="round"
           stroke-linejoin="round"
           d="m 125.114,666.853 2.058,0.726 6.536,1.06 13.962,1.428 2.961,-0.074 9.985,0.819 20.939,-0.259 69.738,-5.111 7.034,-0.87 7.82,-1.46 5.369,-1.747 0.144,-0.305 -4.344,0.026 -11.58,3.788"
           id="path48" />
      </g>
      <g
         id="g50"
         transform="matrix(0.02137659,0,0,0.02137659,25.530204,-7.2722027)">
        <path
           fill="none"
           stroke="#000000"
           stroke-width="8.25"
           stroke-linecap="round"
           stroke-linejoin="round"
           d="m 154.202,729.482 1.496,-4.781 1.435,-2.192 -0.219,-0.18 1.215,1.078 0.742,1.369 1.513,4.552 1.135,6.319 -0.322,7.987 -1.853,10.963 -1.362,10.778 -3.263,17.652 -2.371,7.85 -2.268,1.921 -0.568,1.202 0.14,0.296 0.266,-0.16 -0.273,-0.537 -1.653,-1.938 -1.965,-3.356 -0.604,-3.929 -0.197,-1.838 0.403,-11.329 0.727,-5.333 1.474,-6.308 2.894,-6.044 3.94,-9.708 4.607,-8.399 9.181,-10.484 8.537,-7.109 4.224,-2.787 4.08,-1.98 2.029,-1.377 5.055,-2.289 1.72,-0.457 5.572,-0.592 1.171,0.07 3.292,1.226 1.642,1.4 1.389,1.821 1.124,3.846 -0.037,0.928 -0.86,2.487 -2.965,4.818 -10.461,9.428 -3.586,2.093 -17.176,5.264 -3.501,0.16 -4.212,-0.383 -1.441,-0.402 -3.298,-1.082 -1.557,-1.302 -1.355,-1.797 -1.121,-1.854 0.106,-0.97 0.297,-1.738 1.626,-3.434 1.33,-1.707 2.003,-0.967 0.982,-0.138"
           id="path49" />
      </g>
      <g
         id="g51"
         transform="matrix(0.02137659,0,0,0.02137659,25.530204,-7.2722027)">
        <path
           fill="none"
           stroke="#000000"
           stroke-width="8.25"
           stroke-linecap="round"
           stroke-linejoin="round"
           d="m 223.751,693.935 -0.186,0.089 -0.001,-0.768 1.616,-4.504 -0.39,-1.464 -0.119,1.87 -1.708,7.639 -8.545,26.649 -0.864,6.504 0.23,2.65 -0.647,4.256"
           id="path50" />
      </g>
      <g
         id="g52"
         transform="matrix(0.02137659,0,0,0.02137659,25.530204,-7.2722027)">
        <path
           fill="none"
           stroke="#000000"
           stroke-width="8.25"
           stroke-linecap="round"
           stroke-linejoin="round"
           d="m 218.869,761.245 -5.322,5.513 -2.463,5.561 1.265,3.329 2.265,2.042 5.419,2.804 4.001,0.397 7.369,-0.473 2.839,-0.714 3.256,-0.965 3.968,-2.582 0.899,-1.901 0.558,-4.471 -0.873,-1.981 -3.854,-6.058 -1,-0.832 -1.604,-0.708 -3.472,-0.831 -6.254,-3.318 -2.659,-1.071"
           id="path51" />
      </g>
      <g
         id="g53"
         transform="matrix(0.02137659,0,0,0.02137659,25.530204,-7.2722027)">
        <path
           fill="none"
           stroke="#000000"
           stroke-width="8.25"
           stroke-linecap="round"
           stroke-linejoin="round"
           d="m 398.389,634.164 0.561,0.141 -1.118,-0.072 -5.251,-1.529 -1.468,-0.835 -0.917,0.218 -0.772,-0.198 3.284,1.916 7.014,1.087 19.689,-0.449 17.566,0.133 3.861,0.716 11.775,-0.166 -7.412,2.355"
           id="path52" />
      </g>
      <g
         id="g54"
         transform="matrix(0.02137659,0,0,0.02137659,25.530204,-7.2722027)">
        <path
           fill="none"
           stroke="#000000"
           stroke-width="8.25"
           stroke-linecap="round"
           stroke-linejoin="round"
           d="m 390.573,659.375 10.124,2.072 13.504,-0.426 15.023,0.055 5.797,-0.701 2.603,-0.022 30.107,0.149 -10.015,0.01 -1.857,1.16"
           id="path53" />
      </g>
      <g
         id="g55"
         transform="matrix(0.02137659,0,0,0.02137659,25.530204,-7.2722027)">
        <path
           fill="none"
           stroke="#000000"
           stroke-width="8.25"
           stroke-linecap="round"
           stroke-linejoin="round"
           d="m 614.474,581.545 -0.059,-13.502 0.391,-0.281 1.366,4.889 -0.374,13.613 0.17,54.644 -1.977,-3.325 0.434,-6.147"
           id="path54" />
      </g>
      <g
         id="g56"
         transform="matrix(0.02137659,0,0,0.02137659,25.530204,-7.2722027)">
        <path
           fill="none"
           stroke="#000000"
           stroke-width="8.25"
           stroke-linecap="round"
           stroke-linejoin="round"
           d="m 615.413,571.262 0.241,-5.499 0.729,-2.037 0.102,-4.355 0.344,-0.546 -0.052,-0.699 -0.698,1.297 -0.074,1.154 0.218,6.259 1.488,4.454 1.168,5.028 3.306,8.265 3.867,5.481 3.507,5.739 1.76,2.185 3.803,3.264 10.279,6.925 1.577,0.492 4.263,-0.536 2.343,-1.356 3.532,-3.783 1.816,-2.792 2.372,-5.004 3.532,-11.338 1.41,-11.943 2.187,-13.358 -0.266,-3.841 0.661,-2.78 -0.024,-1.486 0.689,-1.447 -0.228,-4.42 0.071,10.208 1.17,5.377 -0.075,3.431 4.227,31.632 2.669,16.103 2.678,11.623 -0.35,5.093 0.43,0.297 0.134,-0.281"
           id="path55" />
      </g>
      <g
         id="g57"
         transform="matrix(0.02137659,0,0,0.02137659,25.530204,-7.2722027)">
        <path
           fill="none"
           stroke="#000000"
           stroke-width="8.25"
           stroke-linecap="round"
           stroke-linejoin="round"
           d="m 707.434,624.696 -5.3,2.949 -2.079,1.689 -1.245,3.574 -1.96,3.079 0.509,3.725 1.192,2.673 2.412,1.383 6.134,2.184 3.874,1.215 3.71,0.471 9.875,-0.542 8.173,-2.257 1.621,-0.774 0.139,-0.295 -0.468,0.186"
           id="path56" />
      </g>
      <g
         id="g58"
         transform="matrix(0.02137659,0,0,0.02137659,25.530204,-7.2722027)">
        <path
           fill="none"
           stroke="#000000"
           stroke-width="8.25"
           stroke-linecap="round"
           stroke-linejoin="round"
           d="m 606.23,659.231 0.588,0.2 -0.559,-0.129 2.25,-0.663 8.2,-1.387 17.885,-1.617 7.469,0.156 13.129,-0.928 32.979,0.223 4.151,-0.368 15.932,-0.022 6.817,-0.681 19.7,0.181 5.355,-0.717 14.775,0.147 2.443,-0.721 5.312,0.116 0.472,-0.327 0.774,0.04"
           id="path57" />
      </g>
      <g
         id="g59"
         transform="matrix(0.02137659,0,0,0.02137659,25.530204,-7.2722027)">
        <path
           fill="none"
           stroke="#000000"
           stroke-width="8.25"
           stroke-linecap="round"
           stroke-linejoin="round"
           d="m 663.231,691.964 5.31,-3.808 1.389,-0.661 10.802,-3.021 8.843,0.371 8.662,2.56 2.22,1.089 1.1,1.273 1.212,3.118 -1.392,3.326 -2.209,2.167 -1.728,2.541 -5.082,4.664 -4.662,6.012 -9.974,8.672 -0.75,1.558 -2.371,2.656 -0.497,1.178 0.372,2.104 4.143,1.8 9.732,-0.493 4.553,-0.382 16.978,-2.673 1.233,0.074 2.786,-0.541 4.9,0.206 1.694,-0.681 1.474,0.089"
           id="path58" />
      </g>
      <g
         id="g60"
         transform="matrix(0.02137659,0,0,0.02137659,25.530204,-7.2722027)">
        <path
           fill="none"
           stroke="#000000"
           stroke-width="8.25"
           stroke-linecap="round"
           stroke-linejoin="round"
           d="m -1036.23,780.695 -6.85,7.046 -2.61,6.658 -0.38,2.237 0.35,2.358 1.51,3.415 3.55,2.574 4.09,1.75 1.29,0.253 6.94,-0.563 5.18,-1.161 2.62,0.14 7.45,-2.946 0.84,0.291"
           id="path59" />
      </g>
      <g
         id="g61"
         transform="matrix(0.02137659,0,0,0.02137659,25.530204,-7.2722027)">
        <path
           fill="none"
           stroke="#000000"
           stroke-width="8.25"
           stroke-linecap="round"
           stroke-linejoin="round"
           d="m 815.864,572.93 -0.267,0.229 0.138,-5.322 0.364,-0.796 -0.029,-1.092 1.077,-1.337 -0.298,-2.163 0.386,-0.899 -0.009,-1.606 -1.333,0.804 -2.038,2.25 -1.384,2.222 -1.591,4.455 -6.429,30.782 -5.344,31.17 -0.416,6.883 0.567,17.298 3.956,38.623 2.403,19.366 2.356,13.466 2.091,9.911 1.487,5.469 2.666,7.559 -0.315,1.997 0.716,1.117 -0.09,2.655 0.065,-0.509 0.251,0.837 0.102,1.489 -0.144,-2.577 -0.324,0.1 -0.358,-0.443 0.003,-1.278"
           id="path60" />
      </g>
      <g
         id="g62"
         transform="matrix(0.02137659,0,0,0.02137659,25.530204,-7.2722027)">
        <path
           fill="none"
           stroke="#000000"
           stroke-width="8.25"
           stroke-linecap="round"
           stroke-linejoin="round"
           d="m 862.168,570.398 -0.231,0.129 0.098,81.563 0.103,-0.497 -2.839,-5.055 -1.091,-3.615 -3.315,-15.051 0.413,-6.783 -0.115,-13.738 1.155,-3.984 -0.036,-3.466 0.29,-1.837 2.778,-12.794 5.376,-10.1 5.667,-6.979 2.087,-1.54 2.54,-0.821 2.462,-1.682 5.898,-2.836 10.244,-1.718 6.543,-1.511 2.12,0.15 5.214,2.018 0.913,0.55 0.951,1.195 1.175,4.757 -0.398,1.751 -0.891,3.279 -1.504,2.947 -2.098,2.779 -3.433,3.491 -7.032,8.171 -12.342,11.783 -6.783,5.184 -3.001,3.136 -1.151,2.027 -3.505,4.188 -0.474,1.113 0.363,1.77 1.614,2.34 1.323,1.118 3.814,1.706 28.18,9.257 6.745,2.909 2.147,0.394 3.286,1.717 0.252,-0.036 -0.313,-0.481 0.352,-0.389"
           id="path61" />
      </g>
      <g
         id="g63"
         transform="matrix(0.02137659,0,0,0.02137659,25.530204,-7.2722027)">
        <path
           fill="none"
           stroke="#000000"
           stroke-width="8.25"
           stroke-linecap="round"
           stroke-linejoin="round"
           d="m 834.542,663.652 -4.159,-2.298 -4.484,-1.017 -2.523,-1.486 4.278,1.373 8.346,-0.29 10.728,1.378 28.27,-0.257 3.541,-0.33 41.104,0.067 1.054,-0.348 3.837,0.078 -0.44,0.022 -0.646,-1.662 0.027,0.207 -0.476,-0.133 -3.11,-1.283 -1.338,0.09 -0.578,0.448 -2.183,2.749"
           id="path62" />
      </g>
      <g
         id="g64"
         transform="matrix(0.02137659,0,0,0.02137659,25.530204,-7.2722027)">
        <path
           fill="none"
           stroke="#000000"
           stroke-width="8.25"
           stroke-linecap="round"
           stroke-linejoin="round"
           d="m 855.303,704.113 14.387,-2.676 13.116,0.106 5.621,1.067 4.714,1.509 1.385,1.525 0.884,2.817 -0.048,1.004 -0.856,1.861 -5.194,4.185 -3.387,2.453 -20.689,13.058 -4.209,3.25 -3.212,3.816 0.414,1.801 1.65,1.701 3.853,0.82 8.057,-0.36 9.074,-1.674 14.429,-1.938 1.328,-0.281 5.305,-2.64 1.468,-0.272 2.249,-1.702 3.116,-1.255"
           id="path63" />
      </g>
      <g
         id="g65"
         transform="matrix(0.02137659,0,0,0.02137659,25.530204,-7.2722027)">
        <path
           fill="none"
           stroke="#000000"
           stroke-width="8.25"
           stroke-linecap="round"
           stroke-linejoin="round"
           d="m 957.776,559.155 -0.227,0.113 0.813,4.263 0.033,3.727 2.001,9.955 2.594,20.171 3.566,35.438 -0.316,12.268 -0.819,6.354 -0.028,3.18 -0.63,5.96 0.33,11.352 -0.691,5.449 0.114,21.092 0.392,5.213 -0.145,13.757 -3.819,29.314 -2.039,5.954 -0.896,3.62 -1.858,4.768 -0.604,4.309 -1.709,7.618 -2.422,8.867 0.069,1.191 -1.749,4.25 0.354,2.529 0.009,-0.462 -5.71,-2.284 -0.397,-1.095 0.493,-2.581 1.065,-2.067 3.41,-2.585"
           id="path64" />
      </g>
      <g
         id="g66"
         transform="matrix(0.02137659,0,0,0.02137659,25.530204,-7.2722027)">
        <path
           fill="none"
           stroke="#000000"
           stroke-width="8.25"
           stroke-linecap="round"
           stroke-linejoin="round"
           d="m 1027.88,550.277 -0.29,0.009 -0.57,2.023 -2.96,5.78 -2.9,8.131 -4.69,11.096 -2.37,4.343 -2.97,3.968 -1.71,4.093 0.21,1.507 0.12,-0.951 2.01,-4.863 1.47,-5.859 4.21,-8.634 5.24,-11.941 4.41,-6.446 2.32,-4.383 1.09,-2.993 0.67,-3.633 1.23,-1.355 -0.2,0.612 0.26,1.073 1.55,4.431 1.76,6.932 3.31,7.159 0.96,1.461 7.75,8.632 8.94,11.74 2.88,5.882 0.73,2.468 0.61,0.307 0.33,-0.446 0.1,0.473 -0.11,-0.355 2.35,-1.88"
           id="path65" />
      </g>
      <g
         id="g67"
         transform="matrix(0.02137659,0,0,0.02137659,25.530204,-7.2722027)">
        <path
           fill="none"
           stroke="#000000"
           stroke-width="8.25"
           stroke-linecap="round"
           stroke-linejoin="round"
           d="m 1178,529 v 325"
           id="path66" />
      </g>
      <g
         id="g68"
         transform="matrix(0.02137659,0,0,0.02137659,25.530204,-7.2722027)">
        <path
           fill="none"
           stroke="#000000"
           stroke-width="8.25"
           stroke-linecap="round"
           stroke-linejoin="round"
           d="m 51,528 v 331"
           id="path67" />
      </g>
      <g
         id="g69"
         transform="matrix(0.02137659,0,0,0.02137659,25.530204,-7.2722027)">
        <path
           fill="none"
           stroke="#000000"
           stroke-width="8.25"
           stroke-linecap="round"
           stroke-linejoin="round"
           d="m 56,858 h 1112"
           id="path68" />
      </g>
      <g
         id="g70"
         transform="matrix(0.02137659,0,0,0.02137659,25.530204,-7.2722027)">
        <path
           fill="none"
           stroke="#000000"
           stroke-width="8.25"
           stroke-linecap="round"
           stroke-linejoin="round"
           d="m 64,526 h 1097"
           id="path69" />
      </g>
    </g>
  </g>
</svg>
