<?xml version="1.0" encoding="UTF-8" standalone="no"?>
<!-- Created with Inkscape (http://www.inkscape.org/) -->

<svg
   width="4in"
   height="2.0999999in"
   viewBox="0 0 101.6 53.339997"
   version="1.1"
   id="svg1"
   inkscape:version="1.4 (86a8ad7, 2024-10-11)"
   sodipodi:docname="GET_equation.svg"
   xmlns:inkscape="http://www.inkscape.org/namespaces/inkscape"
   xmlns:sodipodi="http://sodipodi.sourceforge.net/DTD/sodipodi-0.dtd"
   xmlns="http://www.w3.org/2000/svg"
   xmlns:svg="http://www.w3.org/2000/svg"
   xmlns:ns11="http://www.iki.fi/pav/software/textext/">
  <sodipodi:namedview
     id="namedview1"
     pagecolor="#ffffff"
     bordercolor="#111111"
     borderopacity="1"
     inkscape:showpageshadow="0"
     inkscape:pageopacity="0"
     inkscape:pagecheckerboard="1"
     inkscape:deskcolor="#d1d1d1"
     inkscape:document-units="mm"
     inkscape:zoom="1.0670983"
     inkscape:cx="305.96993"
     inkscape:cy="104.48896"
     inkscape:window-width="1920"
     inkscape:window-height="1020"
     inkscape:window-x="1912"
     inkscape:window-y="-8"
     inkscape:window-maximized="1"
     inkscape:current-layer="layer1" />
  <defs
     id="defs1">
    <marker
       style="overflow:visible"
       id="marker30"
       refX="0"
       refY="0"
       orient="auto"
       inkscape:stockid="Stop"
       markerWidth="1"
       markerHeight="1"
       viewBox="0 0 1 1"
       inkscape:isstock="true"
       inkscape:collect="always"
       preserveAspectRatio="xMidYMid">
      <path
         style="fill:none;stroke:context-stroke;stroke-width:1"
         d="M 0,4 V -4"
         id="path30" />
    </marker>
    <marker
       style="overflow:visible"
       id="Stop"
       refX="0"
       refY="0"
       orient="auto"
       inkscape:stockid="Stop"
       markerWidth="1"
       markerHeight="1"
       viewBox="0 0 1 1"
       inkscape:isstock="true"
       inkscape:collect="always"
       preserveAspectRatio="xMidYMid">
      <path
         style="fill:none;stroke:context-stroke;stroke-width:1"
         d="M 0,4 V -4"
         id="path29" />
    </marker>
    <marker
       style="overflow:visible"
       id="DartArrow"
       refX="0"
       refY="0"
       orient="auto-start-reverse"
       inkscape:stockid="Dart arrow"
       markerWidth="1"
       markerHeight="1"
       viewBox="0 0 1 1"
       inkscape:isstock="true"
       inkscape:collect="always"
       preserveAspectRatio="xMidYMid">
      <path
         style="fill:context-stroke;fill-rule:evenodd;stroke:none"
         d="M 0,0 5,-5 -12.5,0 5,5 Z"
         transform="scale(-0.5)"
         id="path6" />
    </marker>
  </defs>
  <g
     inkscape:label="Layer 1"
     inkscape:groupmode="layer"
     id="layer1">
    <path
       style="fill:none;stroke:#000000;stroke-width:0.260099;stroke-linecap:butt;stroke-linejoin:miter;stroke-dasharray:none;stroke-opacity:1;marker-start:url(#DartArrow);marker-end:url(#DartArrow)"
       d="m 4.3614449,3.2912982 v 44.4000218 h 91.9130091"
       id="path1" />
    <g
       transform="matrix(0,-0.352778,0.352778,0,0.18137155,17.68469)"
       ns11:version="1.10.2"
       ns11:texconverter="pdflatex"
       ns11:pdfconverter="inkscape"
       ns11:text="$\\ln (S_u/ \\sigma'_{vo})$"
       ns11:preamble="C:\Users\$r.984804\AppData\Roaming\inkscape\extensions\textext\default_packages.tex"
       ns11:scale="1.0"
       ns11:alignment="middle center"
       ns11:stroke-to-path="0"
       ns11:inkscapeversion="1.4"
       ns11:jacobian_sqrt="0.352778"
       id="g12">
      <defs
         id="id-27f45b34-7f2d-4f81-aea6-03e72364b8db">
        <g
           id="id-b291a943-fe77-443d-aadf-30bd9c38c9b5">
          <g
             id="id-32e49a89-f93e-4796-9db8-229218dbc18d">
            <path
               d="m 1.765625,-6.921875 -1.4375,0.109375 v 0.3125 c 0.703125,0 0.78125,0.0625 0.78125,0.5625 v 5.1875 c 0,0.4375 -0.109375,0.4375 -0.78125,0.4375 v 0.3125 c 0.328125,-0.015625 0.859375,-0.03125 1.109375,-0.03125 0.25,0 0.734375,0.015625 1.109375,0.03125 v -0.3125 c -0.671875,0 -0.78125,0 -0.78125,-0.4375 z m 0,0"
               id="id-5101edb5-7eb8-4129-b909-c7c511144b0f" />
          </g>
          <g
             id="id-02662180-d7b2-4901-a664-8d38dc33cc2d">
            <path
               d="m 1.09375,-3.421875 v 2.671875 c 0,0.4375 -0.109375,0.4375 -0.78125,0.4375 v 0.3125 c 0.359375,-0.015625 0.859375,-0.03125 1.140625,-0.03125 0.25,0 0.765625,0.015625 1.109375,0.03125 v -0.3125 c -0.671875,0 -0.78125,0 -0.78125,-0.4375 v -1.84375 c 0,-1.03125 0.71875,-1.59375 1.34375,-1.59375 0.640625,0 0.75,0.53125 0.75,1.109375 v 2.328125 c 0,0.4375 -0.109375,0.4375 -0.78125,0.4375 v 0.3125 c 0.34375,-0.015625 0.859375,-0.03125 1.125,-0.03125 0.25,0 0.78125,0.015625 1.109375,0.03125 v -0.3125 c -0.515625,0 -0.765625,0 -0.765625,-0.296875 v -1.90625 c 0,-0.859375 0,-1.15625 -0.3125,-1.515625 -0.140625,-0.171875 -0.46875,-0.375 -1.046875,-0.375 -0.734375,0 -1.203125,0.421875 -1.484375,1.046875 v -1.046875 l -1.40625,0.109375 v 0.3125 c 0.703125,0 0.78125,0.0625 0.78125,0.5625 z m 0,0"
               id="id-7a598641-7ab6-49dd-b281-13fac90f9684" />
          </g>
          <g
             id="id-e954b7fb-6f1f-4591-9231-268862455064">
            <path
               d="m 3.296875,2.390625 c 0,-0.03125 0,-0.046875 -0.171875,-0.21875 -1.234375,-1.25 -1.5625,-3.140625 -1.5625,-4.671875 0,-1.734375 0.375,-3.46875 1.609375,-4.703125 0.125,-0.125 0.125,-0.140625 0.125,-0.171875 0,-0.078125 -0.03125,-0.109375 -0.09375,-0.109375 -0.109375,0 -1,0.6875 -1.59375,1.953125 -0.5,1.09375 -0.625,2.203125 -0.625,3.03125 0,0.78125 0.109375,1.984375 0.65625,3.125 0.609375,1.21875 1.453125,1.875 1.5625,1.875 0.0625,0 0.09375,-0.03125 0.09375,-0.109375 z m 0,0"
               id="id-e0a6d8ef-c405-49e3-a490-35e50755f1fa" />
          </g>
          <g
             id="id-c9209b5b-22c1-4864-b9a3-cee58e432d5f">
            <path
               d="m 2.875,-2.5 c 0,-0.765625 -0.109375,-1.96875 -0.65625,-3.109375 -0.59375,-1.21875 -1.453125,-1.875 -1.546875,-1.875 -0.0625,0 -0.109375,0.046875 -0.109375,0.109375 0,0.03125 0,0.046875 0.1875,0.234375 0.984375,0.984375 1.546875,2.5625 1.546875,4.640625 0,1.71875 -0.359375,3.46875 -1.59375,4.71875 -0.140625,0.125 -0.140625,0.140625 -0.140625,0.171875 0,0.0625 0.046875,0.109375 0.109375,0.109375 0.09375,0 1,-0.6875 1.578125,-1.953125 0.515625,-1.09375 0.625,-2.203125 0.625,-3.046875 z m 0,0"
               id="id-aa6232f7-c351-434c-bfdb-1132e09e3437" />
          </g>
          <g
             id="id-9f75cf7e-46da-47e4-b759-090fa1131264">
            <path
               d="m 6.4375,-6.921875 c 0,-0.03125 -0.03125,-0.109375 -0.125,-0.109375 -0.046875,0 -0.046875,0.015625 -0.171875,0.15625 l -0.484375,0.5625 c -0.25,-0.46875 -0.765625,-0.71875 -1.421875,-0.71875 -1.265625,0 -2.453125,1.15625 -2.453125,2.359375 0,0.796875 0.515625,1.265625 1.03125,1.40625 l 1.0625,0.28125 c 0.375,0.09375 0.921875,0.25 0.921875,1.0625 0,0.890625 -0.8125,1.828125 -1.796875,1.828125 -0.640625,0 -1.75,-0.21875 -1.75,-1.453125 0,-0.234375 0.0625,-0.484375 0.0625,-0.53125 0.015625,-0.046875 0.015625,-0.0625 0.015625,-0.078125 0,-0.09375 -0.0625,-0.109375 -0.109375,-0.109375 -0.046875,0 -0.078125,0.015625 -0.109375,0.046875 -0.03125,0.03125 -0.59375,2.3125 -0.59375,2.34375 0,0.046875 0.046875,0.09375 0.109375,0.09375 0.046875,0 0.0625,-0.015625 0.1875,-0.15625 l 0.484375,-0.5625 c 0.421875,0.578125 1.109375,0.71875 1.6875,0.71875 1.359375,0 2.53125,-1.328125 2.53125,-2.5625 0,-0.6875 -0.34375,-1.03125 -0.484375,-1.171875 -0.234375,-0.21875 -0.390625,-0.265625 -1.265625,-0.484375 -0.234375,-0.0625 -0.578125,-0.171875 -0.671875,-0.1875 -0.265625,-0.09375 -0.609375,-0.375 -0.609375,-0.90625 0,-0.8125 0.796875,-1.65625 1.75,-1.65625 0.8125,0 1.421875,0.4375 1.421875,1.546875 0,0.3125 -0.03125,0.5 -0.03125,0.5625 0,0 0,0.09375 0.109375,0.09375 0.109375,0 0.125,-0.03125 0.15625,-0.203125 z m 0,0"
               id="id-e02f266d-bf1b-4d74-93de-47ddd9119d81" />
          </g>
          <g
             id="id-4ab9a1fb-04a1-4f0d-97f1-660b94fef47a">
            <path
               d="m 4.375,-7.09375 c 0.046875,-0.140625 0.046875,-0.171875 0.046875,-0.1875 0,-0.109375 -0.078125,-0.203125 -0.1875,-0.203125 -0.078125,0 -0.140625,0.03125 -0.171875,0.09375 l -3.46875,9.5 c -0.046875,0.140625 -0.046875,0.171875 -0.046875,0.1875 0,0.109375 0.09375,0.203125 0.203125,0.203125 0.125,0 0.15625,-0.078125 0.21875,-0.25 z m 0,0"
               id="id-bc1e4dd7-90c6-4747-bb87-15c987bd45a7" />
          </g>
          <g
             id="id-d6477d1c-71e0-4a8c-aa20-b64b86666526">
            <path
               d="m 5.15625,-3.71875 c 0.140625,0 0.5,0 0.5,-0.34375 0,-0.234375 -0.21875,-0.234375 -0.390625,-0.234375 h -2.28125 c -1.5,0 -2.609375,1.640625 -2.609375,2.828125 0,0.875 0.59375,1.578125 1.5,1.578125 1.171875,0 2.5,-1.203125 2.5,-2.734375 0,-0.171875 0,-0.65625 -0.3125,-1.09375 z m -3.265625,3.609375 c -0.5,0 -0.890625,-0.359375 -0.890625,-1.078125 0,-0.296875 0.109375,-1.109375 0.46875,-1.703125 0.421875,-0.6875 1.015625,-0.828125 1.359375,-0.828125 0.828125,0 0.90625,0.65625 0.90625,0.96875 0,0.46875 -0.203125,1.28125 -0.53125,1.796875 -0.390625,0.578125 -0.9375,0.84375 -1.3125,0.84375 z m 0,0"
               id="id-5173a139-34a3-4174-a689-ced417e0fbb6" />
          </g>
          <g
             id="id-f8a2070d-b1ed-428d-bb57-95b97258e348">
            <path
               d="m 2.953125,-1.125 c -0.046875,0.140625 -0.109375,0.40625 -0.109375,0.40625 -0.140625,0.21875 -0.421875,0.59375 -0.84375,0.59375 -0.484375,0 -0.484375,-0.453125 -0.484375,-0.578125 0,-0.40625 0.1875,-0.90625 0.390625,-1.421875 0.046875,-0.140625 0.09375,-0.234375 0.09375,-0.34375 0,-0.375 -0.3125,-0.609375 -0.65625,-0.609375 -0.703125,0 -1.015625,0.953125 -1.015625,1.078125 0,0.078125 0.09375,0.078125 0.125,0.078125 0.09375,0 0.09375,-0.03125 0.125,-0.109375 0.15625,-0.5625 0.46875,-0.84375 0.734375,-0.84375 0.125,0 0.171875,0.078125 0.171875,0.234375 0,0.171875 -0.046875,0.3125 -0.125,0.46875 -0.375,0.96875 -0.375,1.171875 -0.375,1.359375 0,0.109375 0,0.4375 0.265625,0.65625 0.203125,0.171875 0.46875,0.21875 0.71875,0.21875 0.4375,0 0.671875,-0.234375 0.90625,-0.453125 0.15625,0.453125 0.609375,0.453125 0.703125,0.453125 0.234375,0 0.421875,-0.125 0.546875,-0.359375 0.15625,-0.28125 0.25,-0.671875 0.25,-0.703125 0,-0.09375 -0.09375,-0.09375 -0.109375,-0.09375 -0.109375,0 -0.109375,0.03125 -0.15625,0.21875 -0.09375,0.328125 -0.21875,0.75 -0.515625,0.75 -0.171875,0 -0.234375,-0.15625 -0.234375,-0.34375 0,-0.109375 0.0625,-0.375 0.109375,-0.546875 0.046875,-0.1875 0.125,-0.46875 0.15625,-0.625 l 0.15625,-0.625 c 0.046875,-0.171875 0.125,-0.484375 0.125,-0.515625 0,-0.140625 -0.109375,-0.21875 -0.234375,-0.21875 -0.25,0 -0.3125,0.203125 -0.359375,0.421875 z m 0,0"
               id="id-1dde0c7b-f8da-4f8f-95f4-0444741a7102" />
          </g>
          <g
             id="id-a4854a6d-c77a-4ea6-b82e-0a9916ba5f7a">
            <path
               d="m 3.71875,-2.53125 c 0,-0.546875 -0.328125,-0.546875 -0.34375,-0.546875 -0.1875,0 -0.375,0.1875 -0.375,0.375 0,0.109375 0.0625,0.171875 0.109375,0.203125 0.125,0.109375 0.265625,0.28125 0.265625,0.5625 0,0.3125 -0.46875,1.8125 -1.296875,1.8125 -0.5625,0 -0.5625,-0.5 -0.5625,-0.625 0,-0.3125 0.125,-0.703125 0.390625,-1.359375 0.046875,-0.140625 0.09375,-0.25 0.09375,-0.359375 0,-0.375 -0.3125,-0.609375 -0.65625,-0.609375 -0.703125,0 -1.015625,0.953125 -1.015625,1.078125 0,0.078125 0.09375,0.078125 0.125,0.078125 0.09375,0 0.09375,-0.03125 0.125,-0.109375 0.15625,-0.5625 0.453125,-0.84375 0.734375,-0.84375 0.125,0 0.171875,0.078125 0.171875,0.234375 0,0.171875 -0.046875,0.3125 -0.125,0.46875 -0.296875,0.78125 -0.375,1.078125 -0.375,1.328125 0,0.6875 0.546875,0.90625 1.078125,0.90625 1.171875,0 1.65625,-2.015625 1.65625,-2.59375 z m 0,0"
               id="id-9b1dfd0c-eef6-4097-8d51-2bb6c6b7586c" />
          </g>
          <g
             id="id-28276eb1-8da0-4517-97e8-c506e69b5fbf">
            <path
               d="m 3.703125,-1.859375 c 0,-0.765625 -0.578125,-1.21875 -1.265625,-1.21875 -1.03125,0 -2,0.96875 -2,1.921875 0,0.703125 0.5,1.21875 1.265625,1.21875 1,0 2,-0.90625 2,-1.921875 z m -2,1.734375 c -0.34375,0 -0.6875,-0.21875 -0.6875,-0.78125 0,-0.28125 0.125,-0.96875 0.40625,-1.359375 0.296875,-0.4375 0.703125,-0.609375 1.015625,-0.609375 0.375,0 0.6875,0.25 0.6875,0.765625 0,0.171875 -0.078125,0.859375 -0.390625,1.34375 -0.265625,0.421875 -0.671875,0.640625 -1.03125,0.640625 z m 0,0"
               id="id-32e29f4c-0fae-45df-9b44-312fc75b19e7" />
          </g>
          <g
             id="id-cc337a17-65ab-4729-8c33-92c0f001e0d6">
            <path
               d="m 2.015625,-3.296875 c 0.0625,-0.109375 0.0625,-0.171875 0.0625,-0.21875 0,-0.21875 -0.1875,-0.375 -0.40625,-0.375 -0.265625,0 -0.34375,0.21875 -0.375,0.328125 l -0.921875,3.015625 c -0.015625,0.015625 -0.046875,0.09375 -0.046875,0.109375 0,0.078125 0.21875,0.15625 0.28125,0.15625 0.046875,0 0.046875,-0.015625 0.09375,-0.125 z m 0,0"
               id="id-7d8ebfd5-eef3-4a0a-a895-a020206ecf04" />
          </g>
        </g>
      </defs>
      <g
         fill="#000000"
         fill-opacity="1"
         id="id-c004d92b-8d62-471e-aea3-9157136325b2"
         transform="translate(-149.04,-127.258)">
        <g
           transform="translate(148.712,134.765)"
           id="g1">
          <path
             d="m 1.765625,-6.921875 -1.4375,0.109375 v 0.3125 c 0.703125,0 0.78125,0.0625 0.78125,0.5625 v 5.1875 c 0,0.4375 -0.109375,0.4375 -0.78125,0.4375 v 0.3125 c 0.328125,-0.015625 0.859375,-0.03125 1.109375,-0.03125 0.25,0 0.734375,0.015625 1.109375,0.03125 v -0.3125 c -0.671875,0 -0.78125,0 -0.78125,-0.4375 z m 0,0"
             id="id-1728f429-4dc5-44b5-aef7-2bb3fe9dba49" />
        </g>
        <g
           transform="translate(151.48,134.765)"
           id="g2">
          <path
             d="m 1.09375,-3.421875 v 2.671875 c 0,0.4375 -0.109375,0.4375 -0.78125,0.4375 v 0.3125 c 0.359375,-0.015625 0.859375,-0.03125 1.140625,-0.03125 0.25,0 0.765625,0.015625 1.109375,0.03125 v -0.3125 c -0.671875,0 -0.78125,0 -0.78125,-0.4375 v -1.84375 c 0,-1.03125 0.71875,-1.59375 1.34375,-1.59375 0.640625,0 0.75,0.53125 0.75,1.109375 v 2.328125 c 0,0.4375 -0.109375,0.4375 -0.78125,0.4375 v 0.3125 c 0.34375,-0.015625 0.859375,-0.03125 1.125,-0.03125 0.25,0 0.78125,0.015625 1.109375,0.03125 v -0.3125 c -0.515625,0 -0.765625,0 -0.765625,-0.296875 v -1.90625 c 0,-0.859375 0,-1.15625 -0.3125,-1.515625 -0.140625,-0.171875 -0.46875,-0.375 -1.046875,-0.375 -0.734375,0 -1.203125,0.421875 -1.484375,1.046875 v -1.046875 l -1.40625,0.109375 v 0.3125 c 0.703125,0 0.78125,0.0625 0.78125,0.5625 z m 0,0"
             id="id-0c8dd2a3-226c-413a-8a18-0cb81a512432" />
        </g>
        <g
           transform="translate(157.015,134.765)"
           id="g3">
          <path
             d="m 3.296875,2.390625 c 0,-0.03125 0,-0.046875 -0.171875,-0.21875 -1.234375,-1.25 -1.5625,-3.140625 -1.5625,-4.671875 0,-1.734375 0.375,-3.46875 1.609375,-4.703125 0.125,-0.125 0.125,-0.140625 0.125,-0.171875 0,-0.078125 -0.03125,-0.109375 -0.09375,-0.109375 -0.109375,0 -1,0.6875 -1.59375,1.953125 -0.5,1.09375 -0.625,2.203125 -0.625,3.03125 0,0.78125 0.109375,1.984375 0.65625,3.125 0.609375,1.21875 1.453125,1.875 1.5625,1.875 0.0625,0 0.09375,-0.03125 0.09375,-0.109375 z m 0,0"
             id="id-4a5c2d6b-cb3c-483b-a60a-e02503e78b87" />
        </g>
      </g>
      <g
         fill="#000000"
         fill-opacity="1"
         id="id-d6fa2ea7-be98-4d2e-b9f2-ddac0dea39e9"
         transform="translate(-149.04,-127.258)">
        <g
           transform="translate(160.889,134.765)"
           id="g4">
          <path
             d="m 6.4375,-6.921875 c 0,-0.03125 -0.03125,-0.109375 -0.125,-0.109375 -0.046875,0 -0.046875,0.015625 -0.171875,0.15625 l -0.484375,0.5625 c -0.25,-0.46875 -0.765625,-0.71875 -1.421875,-0.71875 -1.265625,0 -2.453125,1.15625 -2.453125,2.359375 0,0.796875 0.515625,1.265625 1.03125,1.40625 l 1.0625,0.28125 c 0.375,0.09375 0.921875,0.25 0.921875,1.0625 0,0.890625 -0.8125,1.828125 -1.796875,1.828125 -0.640625,0 -1.75,-0.21875 -1.75,-1.453125 0,-0.234375 0.0625,-0.484375 0.0625,-0.53125 0.015625,-0.046875 0.015625,-0.0625 0.015625,-0.078125 0,-0.09375 -0.0625,-0.109375 -0.109375,-0.109375 -0.046875,0 -0.078125,0.015625 -0.109375,0.046875 -0.03125,0.03125 -0.59375,2.3125 -0.59375,2.34375 0,0.046875 0.046875,0.09375 0.109375,0.09375 0.046875,0 0.0625,-0.015625 0.1875,-0.15625 l 0.484375,-0.5625 c 0.421875,0.578125 1.109375,0.71875 1.6875,0.71875 1.359375,0 2.53125,-1.328125 2.53125,-2.5625 0,-0.6875 -0.34375,-1.03125 -0.484375,-1.171875 -0.234375,-0.21875 -0.390625,-0.265625 -1.265625,-0.484375 -0.234375,-0.0625 -0.578125,-0.171875 -0.671875,-0.1875 -0.265625,-0.09375 -0.609375,-0.375 -0.609375,-0.90625 0,-0.8125 0.796875,-1.65625 1.75,-1.65625 0.8125,0 1.421875,0.4375 1.421875,1.546875 0,0.3125 -0.03125,0.5 -0.03125,0.5625 0,0 0,0.09375 0.109375,0.09375 0.109375,0 0.125,-0.03125 0.15625,-0.203125 z m 0,0"
             id="id-1c5d0952-6336-44c8-9eb2-d5d0ad97b972" />
        </g>
      </g>
      <g
         fill="#000000"
         fill-opacity="1"
         id="id-b8718118-fa7a-4378-893f-bdd70e5df146"
         transform="translate(-149.04,-127.258)">
        <g
           transform="translate(166.998,136.259)"
           id="g5">
          <path
             d="m 2.953125,-1.125 c -0.046875,0.140625 -0.109375,0.40625 -0.109375,0.40625 -0.140625,0.21875 -0.421875,0.59375 -0.84375,0.59375 -0.484375,0 -0.484375,-0.453125 -0.484375,-0.578125 0,-0.40625 0.1875,-0.90625 0.390625,-1.421875 0.046875,-0.140625 0.09375,-0.234375 0.09375,-0.34375 0,-0.375 -0.3125,-0.609375 -0.65625,-0.609375 -0.703125,0 -1.015625,0.953125 -1.015625,1.078125 0,0.078125 0.09375,0.078125 0.125,0.078125 0.09375,0 0.09375,-0.03125 0.125,-0.109375 0.15625,-0.5625 0.46875,-0.84375 0.734375,-0.84375 0.125,0 0.171875,0.078125 0.171875,0.234375 0,0.171875 -0.046875,0.3125 -0.125,0.46875 -0.375,0.96875 -0.375,1.171875 -0.375,1.359375 0,0.109375 0,0.4375 0.265625,0.65625 0.203125,0.171875 0.46875,0.21875 0.71875,0.21875 0.4375,0 0.671875,-0.234375 0.90625,-0.453125 0.15625,0.453125 0.609375,0.453125 0.703125,0.453125 0.234375,0 0.421875,-0.125 0.546875,-0.359375 0.15625,-0.28125 0.25,-0.671875 0.25,-0.703125 0,-0.09375 -0.09375,-0.09375 -0.109375,-0.09375 -0.109375,0 -0.109375,0.03125 -0.15625,0.21875 -0.09375,0.328125 -0.21875,0.75 -0.515625,0.75 -0.171875,0 -0.234375,-0.15625 -0.234375,-0.34375 0,-0.109375 0.0625,-0.375 0.109375,-0.546875 0.046875,-0.1875 0.125,-0.46875 0.15625,-0.625 l 0.15625,-0.625 c 0.046875,-0.171875 0.125,-0.484375 0.125,-0.515625 0,-0.140625 -0.109375,-0.21875 -0.234375,-0.21875 -0.25,0 -0.3125,0.203125 -0.359375,0.421875 z m 0,0"
             id="id-9c1b65c0-eaae-44e9-bc01-e6ad84f62798" />
        </g>
      </g>
      <g
         fill="#000000"
         fill-opacity="1"
         id="id-88235952-0e48-4266-879a-23d49b71a938"
         transform="translate(-149.04,-127.258)">
        <g
           transform="translate(172.206,134.765)"
           id="g6">
          <path
             d="m 4.375,-7.09375 c 0.046875,-0.140625 0.046875,-0.171875 0.046875,-0.1875 0,-0.109375 -0.078125,-0.203125 -0.1875,-0.203125 -0.078125,0 -0.140625,0.03125 -0.171875,0.09375 l -3.46875,9.5 c -0.046875,0.140625 -0.046875,0.171875 -0.046875,0.1875 0,0.109375 0.09375,0.203125 0.203125,0.203125 0.125,0 0.15625,-0.078125 0.21875,-0.25 z m 0,0"
             id="id-c7eb9ae5-2c43-45b4-9540-a01d7636ec84" />
        </g>
        <g
           transform="translate(177.187,134.765)"
           id="g7">
          <path
             d="m 5.15625,-3.71875 c 0.140625,0 0.5,0 0.5,-0.34375 0,-0.234375 -0.21875,-0.234375 -0.390625,-0.234375 h -2.28125 c -1.5,0 -2.609375,1.640625 -2.609375,2.828125 0,0.875 0.59375,1.578125 1.5,1.578125 1.171875,0 2.5,-1.203125 2.5,-2.734375 0,-0.171875 0,-0.65625 -0.3125,-1.09375 z m -3.265625,3.609375 c -0.5,0 -0.890625,-0.359375 -0.890625,-1.078125 0,-0.296875 0.109375,-1.109375 0.46875,-1.703125 0.421875,-0.6875 1.015625,-0.828125 1.359375,-0.828125 0.828125,0 0.90625,0.65625 0.90625,0.96875 0,0.46875 -0.203125,1.28125 -0.53125,1.796875 -0.390625,0.578125 -0.9375,0.84375 -1.3125,0.84375 z m 0,0"
             id="id-8edc2186-c5d1-443d-9a6e-20f54c19147e" />
        </g>
      </g>
      <g
         fill="#000000"
         fill-opacity="1"
         id="id-f469d3ad-a96e-4368-a2c9-de82b7ef93d8"
         transform="translate(-149.04,-127.258)">
        <g
           transform="translate(183.238,131.149)"
           id="g8">
          <path
             d="m 2.015625,-3.296875 c 0.0625,-0.109375 0.0625,-0.171875 0.0625,-0.21875 0,-0.21875 -0.1875,-0.375 -0.40625,-0.375 -0.265625,0 -0.34375,0.21875 -0.375,0.328125 l -0.921875,3.015625 c -0.015625,0.015625 -0.046875,0.09375 -0.046875,0.109375 0,0.078125 0.21875,0.15625 0.28125,0.15625 0.046875,0 0.046875,-0.015625 0.09375,-0.125 z m 0,0"
             id="id-295f22df-1a60-40bf-a065-2566f271d202" />
        </g>
      </g>
      <g
         fill="#000000"
         fill-opacity="1"
         id="id-88334118-5274-49b3-b731-ecbf60c7bfa1"
         transform="translate(-149.04,-127.258)">
        <g
           transform="translate(182.881,137.228)"
           id="g9">
          <path
             d="m 3.71875,-2.53125 c 0,-0.546875 -0.328125,-0.546875 -0.34375,-0.546875 -0.1875,0 -0.375,0.1875 -0.375,0.375 0,0.109375 0.0625,0.171875 0.109375,0.203125 0.125,0.109375 0.265625,0.28125 0.265625,0.5625 0,0.3125 -0.46875,1.8125 -1.296875,1.8125 -0.5625,0 -0.5625,-0.5 -0.5625,-0.625 0,-0.3125 0.125,-0.703125 0.390625,-1.359375 0.046875,-0.140625 0.09375,-0.25 0.09375,-0.359375 0,-0.375 -0.3125,-0.609375 -0.65625,-0.609375 -0.703125,0 -1.015625,0.953125 -1.015625,1.078125 0,0.078125 0.09375,0.078125 0.125,0.078125 0.09375,0 0.09375,-0.03125 0.125,-0.109375 0.15625,-0.5625 0.453125,-0.84375 0.734375,-0.84375 0.125,0 0.171875,0.078125 0.171875,0.234375 0,0.171875 -0.046875,0.3125 -0.125,0.46875 -0.296875,0.78125 -0.375,1.078125 -0.375,1.328125 0,0.6875 0.546875,0.90625 1.078125,0.90625 1.171875,0 1.65625,-2.015625 1.65625,-2.59375 z m 0,0"
             id="id-069bc5c0-77fb-4aed-b9c0-8c99903176d8" />
        </g>
      </g>
      <g
         fill="#000000"
         fill-opacity="1"
         id="id-ba4b7eb3-eb19-4cf6-b968-e424f1ff39a3"
         transform="translate(-149.04,-127.258)">
        <g
           transform="translate(187.117,137.228)"
           id="g10">
          <path
             d="m 3.703125,-1.859375 c 0,-0.765625 -0.578125,-1.21875 -1.265625,-1.21875 -1.03125,0 -2,0.96875 -2,1.921875 0,0.703125 0.5,1.21875 1.265625,1.21875 1,0 2,-0.90625 2,-1.921875 z m -2,1.734375 c -0.34375,0 -0.6875,-0.21875 -0.6875,-0.78125 0,-0.28125 0.125,-0.96875 0.40625,-1.359375 0.296875,-0.4375 0.703125,-0.609375 1.015625,-0.609375 0.375,0 0.6875,0.25 0.6875,0.765625 0,0.171875 -0.078125,0.859375 -0.390625,1.34375 -0.265625,0.421875 -0.671875,0.640625 -1.03125,0.640625 z m 0,0"
             id="id-e196dc0f-b6fc-4aea-850c-26704b6cb1b1" />
        </g>
      </g>
      <g
         fill="#000000"
         fill-opacity="1"
         id="id-b084e994-fa43-4b34-897c-b631655ad9fe"
         transform="translate(-149.04,-127.258)">
        <g
           transform="translate(191.547,134.765)"
           id="g11">
          <path
             d="m 2.875,-2.5 c 0,-0.765625 -0.109375,-1.96875 -0.65625,-3.109375 -0.59375,-1.21875 -1.453125,-1.875 -1.546875,-1.875 -0.0625,0 -0.109375,0.046875 -0.109375,0.109375 0,0.03125 0,0.046875 0.1875,0.234375 0.984375,0.984375 1.546875,2.5625 1.546875,4.640625 0,1.71875 -0.359375,3.46875 -1.59375,4.71875 -0.140625,0.125 -0.140625,0.140625 -0.140625,0.171875 0,0.0625 0.046875,0.109375 0.109375,0.109375 0.09375,0 1,-0.6875 1.578125,-1.953125 0.515625,-1.09375 0.625,-2.203125 0.625,-3.046875 z m 0,0"
             id="id-dc2035b2-924c-4ee5-beb3-2286633c2f6a" />
        </g>
      </g>
    </g>
    <g
       transform="matrix(0.352778,0,0,0.352778,89.110432,49.291246)"
       ns11:version="1.10.2"
       ns11:texconverter="pdflatex"
       ns11:pdfconverter="inkscape"
       ns11:text="$\\ln OCR$"
       ns11:preamble="C:\Users\$r.984804\AppData\Roaming\inkscape\extensions\textext\default_packages.tex"
       ns11:scale="1.0"
       ns11:alignment="middle center"
       ns11:stroke-to-path="0"
       ns11:inkscapeversion="1.4"
       ns11:jacobian_sqrt="0.352778"
       id="g18">
      <defs
         id="id-e004c663-3f78-4990-bf00-6183f53ef9b1">
        <g
           id="id-02f23724-04d6-4a45-8d9e-b04295f780aa">
          <g
             id="id-32d5734f-9f98-4bcd-b6ac-63ccc2241210">
            <path
               d="m 1.765625,-6.921875 -1.4375,0.109375 v 0.3125 c 0.703125,0 0.78125,0.0625 0.78125,0.5625 v 5.1875 c 0,0.4375 -0.109375,0.4375 -0.78125,0.4375 v 0.3125 c 0.328125,-0.015625 0.859375,-0.03125 1.109375,-0.03125 0.25,0 0.734375,0.015625 1.109375,0.03125 v -0.3125 c -0.671875,0 -0.78125,0 -0.78125,-0.4375 z m 0,0"
               id="id-d7a46a83-aed0-48c6-ab4f-dae7d138b751" />
          </g>
          <g
             id="id-7b18b245-7826-4254-a9d3-e1a96874a5f1">
            <path
               d="m 1.09375,-3.421875 v 2.671875 c 0,0.4375 -0.109375,0.4375 -0.78125,0.4375 v 0.3125 c 0.359375,-0.015625 0.859375,-0.03125 1.140625,-0.03125 0.25,0 0.765625,0.015625 1.109375,0.03125 v -0.3125 c -0.671875,0 -0.78125,0 -0.78125,-0.4375 v -1.84375 c 0,-1.03125 0.71875,-1.59375 1.34375,-1.59375 0.640625,0 0.75,0.53125 0.75,1.109375 v 2.328125 c 0,0.4375 -0.109375,0.4375 -0.78125,0.4375 v 0.3125 c 0.34375,-0.015625 0.859375,-0.03125 1.125,-0.03125 0.25,0 0.78125,0.015625 1.109375,0.03125 v -0.3125 c -0.515625,0 -0.765625,0 -0.765625,-0.296875 v -1.90625 c 0,-0.859375 0,-1.15625 -0.3125,-1.515625 -0.140625,-0.171875 -0.46875,-0.375 -1.046875,-0.375 -0.734375,0 -1.203125,0.421875 -1.484375,1.046875 v -1.046875 l -1.40625,0.109375 v 0.3125 c 0.703125,0 0.78125,0.0625 0.78125,0.5625 z m 0,0"
               id="id-f2fd594c-36c2-4939-aa6f-8e9a22dd1f9a" />
          </g>
          <g
             id="id-f8b8db02-9625-42e5-b567-de6f096038fd">
            <path
               d="m 7.375,-4.34375 c 0,-1.609375 -1.0625,-2.6875 -2.546875,-2.6875 -2.140625,0 -4.34375,2.265625 -4.34375,4.59375 0,1.65625 1.125,2.65625 2.5625,2.65625 2.109375,0 4.328125,-2.1875 4.328125,-4.5625 z m -4.28125,4.296875 c -0.984375,0 -1.671875,-0.796875 -1.671875,-2.109375 0,-0.453125 0.140625,-1.90625 0.90625,-3.0625 0.6875,-1.046875 1.65625,-1.5625 2.453125,-1.5625 0.8125,0 1.703125,0.5625 1.703125,2.046875 0,0.71875 -0.265625,2.265625 -1.25,3.5 -0.484375,0.609375 -1.296875,1.1875 -2.140625,1.1875 z m 0,0"
               id="id-98f5f27d-ebce-4a30-8ab1-0a5afdb953fd" />
          </g>
          <g
             id="id-d7df2a4b-701e-4529-aeaa-fa53ffd88184">
            <path
               d="m 7.578125,-6.921875 c 0,-0.03125 -0.015625,-0.109375 -0.109375,-0.109375 -0.03125,0 -0.046875,0.015625 -0.15625,0.125 l -0.6875,0.765625 c -0.09375,-0.140625 -0.546875,-0.890625 -1.65625,-0.890625 -2.234375,0 -4.46875,2.203125 -4.46875,4.515625 0,1.640625 1.171875,2.734375 2.703125,2.734375 0.859375,0 1.625,-0.390625 2.15625,-0.859375 0.921875,-0.8125 1.09375,-1.71875 1.09375,-1.75 0,-0.109375 -0.109375,-0.109375 -0.125,-0.109375 -0.0625,0 -0.109375,0.03125 -0.125,0.109375 -0.09375,0.28125 -0.328125,1 -1.015625,1.578125 -0.6875,0.546875 -1.3125,0.71875 -1.828125,0.71875 -0.890625,0 -1.953125,-0.515625 -1.953125,-2.0625 0,-0.578125 0.203125,-2.1875 1.203125,-3.359375 0.609375,-0.703125 1.546875,-1.203125 2.4375,-1.203125 1.015625,0 1.609375,0.765625 1.609375,1.921875 0,0.40625 -0.03125,0.40625 -0.03125,0.515625 0,0.09375 0.109375,0.09375 0.140625,0.09375 0.125,0 0.125,-0.015625 0.1875,-0.203125 z m 0,0"
               id="id-0918dfd7-9370-4667-aa4e-1607fb97b8d7" />
          </g>
          <g
             id="id-8dded1d2-6601-4332-be31-26f9d116a089">
            <path
               d="m 3.734375,-6.125 c 0.0625,-0.234375 0.09375,-0.328125 0.28125,-0.359375 0.09375,-0.015625 0.40625,-0.015625 0.609375,-0.015625 0.703125,0 1.8125,0 1.8125,0.984375 0,0.34375 -0.15625,1.03125 -0.546875,1.421875 -0.265625,0.25 -0.78125,0.578125 -1.6875,0.578125 h -1.109375 z m 1.4375,2.734375 c 1.015625,-0.21875 2.1875,-0.921875 2.1875,-1.921875 0,-0.859375 -0.890625,-1.5 -2.203125,-1.5 h -2.828125 c -0.203125,0 -0.296875,0 -0.296875,0.203125 0,0.109375 0.09375,0.109375 0.28125,0.109375 0.015625,0 0.203125,0 0.375,0.015625 0.1875,0.03125 0.265625,0.03125 0.265625,0.171875 0,0.03125 0,0.0625 -0.03125,0.1875 l -1.34375,5.34375 c -0.09375,0.390625 -0.109375,0.46875 -0.90625,0.46875 -0.171875,0 -0.265625,0 -0.265625,0.203125 0,0.109375 0.125,0.109375 0.140625,0.109375 0.28125,0 0.984375,-0.03125 1.25,-0.03125 0.28125,0 1,0.03125 1.28125,0.03125 0.078125,0 0.1875,0 0.1875,-0.203125 0,-0.109375 -0.078125,-0.109375 -0.28125,-0.109375 -0.359375,0 -0.640625,0 -0.640625,-0.171875 0,-0.0625 0.015625,-0.109375 0.03125,-0.171875 l 0.65625,-2.640625 h 1.1875 c 0.90625,0 1.078125,0.5625 1.078125,0.90625 0,0.140625 -0.078125,0.453125 -0.140625,0.6875 -0.0625,0.28125 -0.15625,0.640625 -0.15625,0.84375 0,1.078125 1.203125,1.078125 1.328125,1.078125 0.84375,0 1.203125,-1 1.203125,-1.140625 0,-0.125 -0.109375,-0.125 -0.125,-0.125 -0.09375,0 -0.109375,0.0625 -0.125,0.140625 -0.25,0.734375 -0.6875,0.90625 -0.90625,0.90625 -0.328125,0 -0.40625,-0.21875 -0.40625,-0.609375 0,-0.3125 0.0625,-0.8125 0.109375,-1.140625 0.015625,-0.140625 0.03125,-0.328125 0.03125,-0.46875 0,-0.765625 -0.671875,-1.078125 -0.9375,-1.171875 z m 0,0"
               id="id-cce354cc-6a0c-4894-abf6-232b5eff9aaa" />
          </g>
        </g>
      </defs>
      <g
         fill="#000000"
         fill-opacity="1"
         id="id-41dcaa56-007a-41f1-ab2e-4f37bcf814bd"
         transform="translate(-149.04,-127.734)">
        <g
           transform="translate(148.712,134.765)"
           id="g13">
          <path
             d="m 1.765625,-6.921875 -1.4375,0.109375 v 0.3125 c 0.703125,0 0.78125,0.0625 0.78125,0.5625 v 5.1875 c 0,0.4375 -0.109375,0.4375 -0.78125,0.4375 v 0.3125 c 0.328125,-0.015625 0.859375,-0.03125 1.109375,-0.03125 0.25,0 0.734375,0.015625 1.109375,0.03125 v -0.3125 c -0.671875,0 -0.78125,0 -0.78125,-0.4375 z m 0,0"
             id="id-4616ef2c-e510-4233-b02d-a700b1a9ad49" />
        </g>
        <g
           transform="translate(151.48,134.765)"
           id="g14">
          <path
             d="m 1.09375,-3.421875 v 2.671875 c 0,0.4375 -0.109375,0.4375 -0.78125,0.4375 v 0.3125 c 0.359375,-0.015625 0.859375,-0.03125 1.140625,-0.03125 0.25,0 0.765625,0.015625 1.109375,0.03125 v -0.3125 c -0.671875,0 -0.78125,0 -0.78125,-0.4375 v -1.84375 c 0,-1.03125 0.71875,-1.59375 1.34375,-1.59375 0.640625,0 0.75,0.53125 0.75,1.109375 v 2.328125 c 0,0.4375 -0.109375,0.4375 -0.78125,0.4375 v 0.3125 c 0.34375,-0.015625 0.859375,-0.03125 1.125,-0.03125 0.25,0 0.78125,0.015625 1.109375,0.03125 v -0.3125 c -0.515625,0 -0.765625,0 -0.765625,-0.296875 v -1.90625 c 0,-0.859375 0,-1.15625 -0.3125,-1.515625 -0.140625,-0.171875 -0.46875,-0.375 -1.046875,-0.375 -0.734375,0 -1.203125,0.421875 -1.484375,1.046875 v -1.046875 l -1.40625,0.109375 v 0.3125 c 0.703125,0 0.78125,0.0625 0.78125,0.5625 z m 0,0"
             id="id-ca8d53cd-b29e-47b1-816f-3d9317245b40" />
        </g>
      </g>
      <g
         fill="#000000"
         fill-opacity="1"
         id="id-8e36bd88-3d43-4280-923d-35e016496725"
         transform="translate(-149.04,-127.734)">
        <g
           transform="translate(158.675,134.765)"
           id="g15">
          <path
             d="m 7.375,-4.34375 c 0,-1.609375 -1.0625,-2.6875 -2.546875,-2.6875 -2.140625,0 -4.34375,2.265625 -4.34375,4.59375 0,1.65625 1.125,2.65625 2.5625,2.65625 2.109375,0 4.328125,-2.1875 4.328125,-4.5625 z m -4.28125,4.296875 c -0.984375,0 -1.671875,-0.796875 -1.671875,-2.109375 0,-0.453125 0.140625,-1.90625 0.90625,-3.0625 0.6875,-1.046875 1.65625,-1.5625 2.453125,-1.5625 0.8125,0 1.703125,0.5625 1.703125,2.046875 0,0.71875 -0.265625,2.265625 -1.25,3.5 -0.484375,0.609375 -1.296875,1.1875 -2.140625,1.1875 z m 0,0"
             id="id-a8074518-145d-4645-b2d2-4eaf3d54825f" />
        </g>
      </g>
      <g
         fill="#000000"
         fill-opacity="1"
         id="id-dbd8e841-991d-4e3e-8234-ae6c9c96ca22"
         transform="translate(-149.04,-127.734)">
        <g
           transform="translate(166.553,134.765)"
           id="g16">
          <path
             d="m 7.578125,-6.921875 c 0,-0.03125 -0.015625,-0.109375 -0.109375,-0.109375 -0.03125,0 -0.046875,0.015625 -0.15625,0.125 l -0.6875,0.765625 c -0.09375,-0.140625 -0.546875,-0.890625 -1.65625,-0.890625 -2.234375,0 -4.46875,2.203125 -4.46875,4.515625 0,1.640625 1.171875,2.734375 2.703125,2.734375 0.859375,0 1.625,-0.390625 2.15625,-0.859375 0.921875,-0.8125 1.09375,-1.71875 1.09375,-1.75 0,-0.109375 -0.109375,-0.109375 -0.125,-0.109375 -0.0625,0 -0.109375,0.03125 -0.125,0.109375 -0.09375,0.28125 -0.328125,1 -1.015625,1.578125 -0.6875,0.546875 -1.3125,0.71875 -1.828125,0.71875 -0.890625,0 -1.953125,-0.515625 -1.953125,-2.0625 0,-0.578125 0.203125,-2.1875 1.203125,-3.359375 0.609375,-0.703125 1.546875,-1.203125 2.4375,-1.203125 1.015625,0 1.609375,0.765625 1.609375,1.921875 0,0.40625 -0.03125,0.40625 -0.03125,0.515625 0,0.09375 0.109375,0.09375 0.140625,0.09375 0.125,0 0.125,-0.015625 0.1875,-0.203125 z m 0,0"
             id="id-68eb3c41-c6b9-4660-a027-9dfb122f12a7" />
        </g>
      </g>
      <g
         fill="#000000"
         fill-opacity="1"
         id="id-1a4c98ee-478c-48fc-bf03-781f116ae6d8"
         transform="translate(-149.04,-127.734)">
        <g
           transform="translate(174.381,134.765)"
           id="g17">
          <path
             d="m 3.734375,-6.125 c 0.0625,-0.234375 0.09375,-0.328125 0.28125,-0.359375 0.09375,-0.015625 0.40625,-0.015625 0.609375,-0.015625 0.703125,0 1.8125,0 1.8125,0.984375 0,0.34375 -0.15625,1.03125 -0.546875,1.421875 -0.265625,0.25 -0.78125,0.578125 -1.6875,0.578125 h -1.109375 z m 1.4375,2.734375 c 1.015625,-0.21875 2.1875,-0.921875 2.1875,-1.921875 0,-0.859375 -0.890625,-1.5 -2.203125,-1.5 h -2.828125 c -0.203125,0 -0.296875,0 -0.296875,0.203125 0,0.109375 0.09375,0.109375 0.28125,0.109375 0.015625,0 0.203125,0 0.375,0.015625 0.1875,0.03125 0.265625,0.03125 0.265625,0.171875 0,0.03125 0,0.0625 -0.03125,0.1875 l -1.34375,5.34375 c -0.09375,0.390625 -0.109375,0.46875 -0.90625,0.46875 -0.171875,0 -0.265625,0 -0.265625,0.203125 0,0.109375 0.125,0.109375 0.140625,0.109375 0.28125,0 0.984375,-0.03125 1.25,-0.03125 0.28125,0 1,0.03125 1.28125,0.03125 0.078125,0 0.1875,0 0.1875,-0.203125 0,-0.109375 -0.078125,-0.109375 -0.28125,-0.109375 -0.359375,0 -0.640625,0 -0.640625,-0.171875 0,-0.0625 0.015625,-0.109375 0.03125,-0.171875 l 0.65625,-2.640625 h 1.1875 c 0.90625,0 1.078125,0.5625 1.078125,0.90625 0,0.140625 -0.078125,0.453125 -0.140625,0.6875 -0.0625,0.28125 -0.15625,0.640625 -0.15625,0.84375 0,1.078125 1.203125,1.078125 1.328125,1.078125 0.84375,0 1.203125,-1 1.203125,-1.140625 0,-0.125 -0.109375,-0.125 -0.125,-0.125 -0.09375,0 -0.109375,0.0625 -0.125,0.140625 -0.25,0.734375 -0.6875,0.90625 -0.90625,0.90625 -0.328125,0 -0.40625,-0.21875 -0.40625,-0.609375 0,-0.3125 0.0625,-0.8125 0.109375,-1.140625 0.015625,-0.140625 0.03125,-0.328125 0.03125,-0.46875 0,-0.765625 -0.671875,-1.078125 -0.9375,-1.171875 z m 0,0"
             id="id-1a3d8033-e5ec-4fff-85b7-b541a6710d78" />
        </g>
      </g>
    </g>
    <rect
       style="fill:#008000;stroke:#008000;stroke-width:0.264999;stroke-linecap:round;stroke-miterlimit:3.7;stroke-dasharray:none"
       id="rect18"
       width="2.3554919"
       height="2.3554919"
       x="2.6877267"
       y="36.538292" />
    <rect
       style="fill:#008000;stroke:#008000;stroke-width:0.264999;stroke-linecap:round;stroke-miterlimit:3.7;stroke-dasharray:none"
       id="rect22"
       width="2.3554919"
       height="2.3554919"
       x="3.0383756"
       y="39.343487" />
    <rect
       style="fill:#008000;stroke:#008000;stroke-width:0.264999;stroke-linecap:round;stroke-miterlimit:3.7;stroke-dasharray:none"
       id="rect21"
       width="2.3554919"
       height="2.3554919"
       x="4.6162987"
       y="35.048035" />
    <path
       sodipodi:type="star"
       style="fill:#000080;stroke:none;stroke-width:0.665001;stroke-linecap:round;stroke-miterlimit:3.7;stroke-dasharray:none"
       id="path23"
       inkscape:flatsided="true"
       sodipodi:sides="3"
       sodipodi:cx="39.75285"
       sodipodi:cy="9.8068705"
       sodipodi:r1="2.6471925"
       sodipodi:r2="1.3235962"
       sodipodi:arg1="2.6179939"
       sodipodi:arg2="3.6651914"
       inkscape:rounded="0.01"
       inkscape:randomized="0"
       d="m 37.460314,11.130467 c -0.02293,-0.03971 2.246685,-3.970789 2.292536,-3.970789 0.04585,0 2.315461,3.931081 2.292535,3.970789 -0.02293,0.03971 -4.562146,0.03971 -4.585071,0 z"
       inkscape:transform-center-y="-0.47376472"
       transform="matrix(0.73235308,0,0,0.73235308,16.424496,15.940836)" />
    <path
       sodipodi:type="star"
       style="fill:#000080;stroke:none;stroke-width:0.665001;stroke-linecap:round;stroke-miterlimit:3.7;stroke-dasharray:none"
       id="path24"
       inkscape:flatsided="true"
       sodipodi:sides="3"
       sodipodi:cx="39.75285"
       sodipodi:cy="9.8068705"
       sodipodi:r1="2.6471925"
       sodipodi:r2="1.3235962"
       sodipodi:arg1="2.6179939"
       sodipodi:arg2="3.6651914"
       inkscape:rounded="0.01"
       inkscape:randomized="0"
       d="m 37.460314,11.130467 c -0.02293,-0.03971 2.246685,-3.970789 2.292536,-3.970789 0.04585,0 2.315461,3.931081 2.292535,3.970789 -0.02293,0.03971 -4.562146,0.03971 -4.585071,0 z"
       inkscape:transform-center-y="-0.47376472"
       transform="matrix(0.73235308,0,0,0.73235308,17.038132,17.781745)" />
    <path
       sodipodi:type="star"
       style="fill:#000080;stroke:none;stroke-width:0.665001;stroke-linecap:round;stroke-miterlimit:3.7;stroke-dasharray:none"
       id="path22"
       inkscape:flatsided="true"
       sodipodi:sides="3"
       sodipodi:cx="39.75285"
       sodipodi:cy="9.8068705"
       sodipodi:r1="2.6471925"
       sodipodi:r2="1.3235962"
       sodipodi:arg1="2.6179939"
       sodipodi:arg2="3.6651914"
       inkscape:rounded="0.01"
       inkscape:randomized="0"
       d="m 37.460314,11.130467 c -0.02293,-0.03971 2.246685,-3.970789 2.292536,-3.970789 0.04585,0 2.315461,3.931081 2.292535,3.970789 -0.02293,0.03971 -4.562146,0.03971 -4.585071,0 z"
       inkscape:transform-center-y="-0.47376472"
       transform="matrix(0.73235308,0,0,0.73235308,16.687483,18.658368)" />
    <circle
       style="fill:#800080;stroke:none;stroke-width:0.665001;stroke-linecap:round;stroke-miterlimit:3.7;stroke-dasharray:none"
       id="circle25"
       cx="85.541557"
       cy="9.0500479"
       r="1.1777459" />
    <circle
       style="fill:#800080;stroke:none;stroke-width:0.665001;stroke-linecap:round;stroke-miterlimit:3.7;stroke-dasharray:none"
       id="circle26"
       cx="85.355591"
       cy="6.3226361"
       r="1.1777459" />
    <circle
       style="fill:#800080;stroke:none;stroke-width:0.665001;stroke-linecap:round;stroke-miterlimit:3.7;stroke-dasharray:none"
       id="circle27"
       cx="85.479568"
       cy="12.087393"
       r="1.1777459" />
    <circle
       style="fill:#800080;stroke:none;stroke-width:0.665001;stroke-linecap:round;stroke-miterlimit:3.7;stroke-dasharray:none"
       id="path25"
       cx="85.479568"
       cy="12.087393"
       r="1.1777459" />
    <path
       style="fill:none;stroke:#ff0000;stroke-width:0.865;stroke-linecap:butt;stroke-linejoin:miter;stroke-opacity:1;stroke-dasharray:none"
       d="m 4.3614448,38.803632 92.0897542,-32.8529153"
       id="path27" />
    <path
       style="fill:none;stroke:#000000;stroke-width:0.264583px;stroke-linecap:butt;stroke-linejoin:miter;stroke-opacity:1;marker-start:url(#marker30);marker-end:url(#Stop)"
       d="m 7.0072783,38.803632 v 8.887688"
       id="path28" />
    <g
       transform="matrix(0.352778,0,0,0.352778,8.0655662,42.007197)"
       ns11:version="1.10.2"
       ns11:texconverter="pdflatex"
       ns11:pdfconverter="inkscape"
       ns11:text="$\\ln k$"
       ns11:preamble="C:\Users\$r.984804\AppData\Roaming\inkscape\extensions\textext\default_packages.tex"
       ns11:scale="1.0"
       ns11:alignment="middle center"
       ns11:stroke-to-path="0"
       ns11:inkscapeversion="1.4"
       ns11:jacobian_sqrt="0.352778"
       id="g33">
      <defs
         id="id-c2dc52df-68e5-4284-b1c0-6d8ebaa16869">
        <g
           id="id-18079514-a334-471e-ad54-15e59d954d75">
          <g
             id="id-06bc28c0-1281-4500-bfc9-db73e0707037">
            <path
               d="m 1.765625,-6.921875 -1.4375,0.109375 v 0.3125 c 0.703125,0 0.78125,0.0625 0.78125,0.5625 v 5.1875 c 0,0.4375 -0.109375,0.4375 -0.78125,0.4375 v 0.3125 c 0.328125,-0.015625 0.859375,-0.03125 1.109375,-0.03125 0.25,0 0.734375,0.015625 1.109375,0.03125 v -0.3125 c -0.671875,0 -0.78125,0 -0.78125,-0.4375 z m 0,0"
               id="id-987539f8-dc7e-4cc8-bbed-b9e5eb2fb822" />
          </g>
          <g
             id="id-f5896004-9801-477c-891c-aebf01cffacb">
            <path
               d="m 1.09375,-3.421875 v 2.671875 c 0,0.4375 -0.109375,0.4375 -0.78125,0.4375 v 0.3125 c 0.359375,-0.015625 0.859375,-0.03125 1.140625,-0.03125 0.25,0 0.765625,0.015625 1.109375,0.03125 v -0.3125 c -0.671875,0 -0.78125,0 -0.78125,-0.4375 v -1.84375 c 0,-1.03125 0.71875,-1.59375 1.34375,-1.59375 0.640625,0 0.75,0.53125 0.75,1.109375 v 2.328125 c 0,0.4375 -0.109375,0.4375 -0.78125,0.4375 v 0.3125 c 0.34375,-0.015625 0.859375,-0.03125 1.125,-0.03125 0.25,0 0.78125,0.015625 1.109375,0.03125 v -0.3125 c -0.515625,0 -0.765625,0 -0.765625,-0.296875 v -1.90625 c 0,-0.859375 0,-1.15625 -0.3125,-1.515625 -0.140625,-0.171875 -0.46875,-0.375 -1.046875,-0.375 -0.734375,0 -1.203125,0.421875 -1.484375,1.046875 v -1.046875 l -1.40625,0.109375 v 0.3125 c 0.703125,0 0.78125,0.0625 0.78125,0.5625 z m 0,0"
               id="id-7a67d03b-c719-4cfe-b7d1-4e909758201a" />
          </g>
          <g
             id="id-4136552d-1291-4c4d-bb77-247f296f8119">
            <path
               d="m 2.859375,-6.8125 c 0,0 0,-0.109375 -0.125,-0.109375 -0.234375,0 -0.953125,0.078125 -1.21875,0.109375 -0.078125,0 -0.1875,0.015625 -0.1875,0.1875 0,0.125 0.09375,0.125 0.234375,0.125 0.484375,0 0.5,0.0625 0.5,0.171875 l -0.03125,0.203125 -1.4375,5.734375 c -0.046875,0.140625 -0.046875,0.15625 -0.046875,0.21875 0,0.234375 0.203125,0.28125 0.296875,0.28125 0.125,0 0.265625,-0.09375 0.328125,-0.203125 0.046875,-0.09375 0.5,-1.9375 0.5625,-2.1875 0.34375,0.03125 1.15625,0.1875 1.15625,0.84375 0,0.078125 0,0.109375 -0.03125,0.21875 -0.015625,0.109375 -0.03125,0.234375 -0.03125,0.34375 0,0.578125 0.390625,0.984375 0.90625,0.984375 0.296875,0 0.578125,-0.15625 0.796875,-0.53125 0.25,-0.4375 0.359375,-0.984375 0.359375,-1 0,-0.109375 -0.09375,-0.109375 -0.125,-0.109375 -0.09375,0 -0.109375,0.046875 -0.140625,0.1875 -0.203125,0.71875 -0.421875,1.234375 -0.859375,1.234375 -0.203125,0 -0.328125,-0.109375 -0.328125,-0.46875 0,-0.171875 0.046875,-0.40625 0.078125,-0.5625 0.046875,-0.171875 0.046875,-0.203125 0.046875,-0.3125 0,-0.640625 -0.625,-0.921875 -1.484375,-1.046875 0.3125,-0.171875 0.640625,-0.484375 0.859375,-0.734375 0.484375,-0.53125 0.9375,-0.953125 1.421875,-0.953125 0.0625,0 0.078125,0 0.09375,0.015625 0.125,0.015625 0.125,0.015625 0.21875,0.078125 0.015625,0 0.015625,0.015625 0.03125,0.03125 -0.46875,0.03125 -0.5625,0.421875 -0.5625,0.546875 0,0.15625 0.109375,0.34375 0.375,0.34375 0.265625,0 0.546875,-0.21875 0.546875,-0.609375 0,-0.296875 -0.234375,-0.625 -0.671875,-0.625 -0.28125,0 -0.734375,0.078125 -1.453125,0.875 -0.34375,0.375 -0.734375,0.78125 -1.109375,0.921875 z m 0,0"
               id="id-47f28aed-18d0-4937-9753-8806c7b123dc" />
          </g>
        </g>
      </defs>
      <g
         fill="#000000"
         fill-opacity="1"
         id="id-17a6c142-3be1-450b-b8e3-e01b7097ed29"
         transform="translate(-149.04,-127.843)">
        <g
           transform="translate(148.712,134.765)"
           id="g30">
          <path
             d="m 1.765625,-6.921875 -1.4375,0.109375 v 0.3125 c 0.703125,0 0.78125,0.0625 0.78125,0.5625 v 5.1875 c 0,0.4375 -0.109375,0.4375 -0.78125,0.4375 v 0.3125 c 0.328125,-0.015625 0.859375,-0.03125 1.109375,-0.03125 0.25,0 0.734375,0.015625 1.109375,0.03125 v -0.3125 c -0.671875,0 -0.78125,0 -0.78125,-0.4375 z m 0,0"
             id="id-3d4b893c-729c-47d8-af85-0d19d0eb4c8a" />
        </g>
        <g
           transform="translate(151.48,134.765)"
           id="g31">
          <path
             d="m 1.09375,-3.421875 v 2.671875 c 0,0.4375 -0.109375,0.4375 -0.78125,0.4375 v 0.3125 c 0.359375,-0.015625 0.859375,-0.03125 1.140625,-0.03125 0.25,0 0.765625,0.015625 1.109375,0.03125 v -0.3125 c -0.671875,0 -0.78125,0 -0.78125,-0.4375 v -1.84375 c 0,-1.03125 0.71875,-1.59375 1.34375,-1.59375 0.640625,0 0.75,0.53125 0.75,1.109375 v 2.328125 c 0,0.4375 -0.109375,0.4375 -0.78125,0.4375 v 0.3125 c 0.34375,-0.015625 0.859375,-0.03125 1.125,-0.03125 0.25,0 0.78125,0.015625 1.109375,0.03125 v -0.3125 c -0.515625,0 -0.765625,0 -0.765625,-0.296875 v -1.90625 c 0,-0.859375 0,-1.15625 -0.3125,-1.515625 -0.140625,-0.171875 -0.46875,-0.375 -1.046875,-0.375 -0.734375,0 -1.203125,0.421875 -1.484375,1.046875 v -1.046875 l -1.40625,0.109375 v 0.3125 c 0.703125,0 0.78125,0.0625 0.78125,0.5625 z m 0,0"
             id="id-6dec89b3-45b2-4943-b8ce-1213bb67432b" />
        </g>
      </g>
      <g
         fill="#000000"
         fill-opacity="1"
         id="id-38f23eee-c9f5-4ad4-b4b1-8fa421c37781"
         transform="translate(-149.04,-127.843)">
        <g
           transform="translate(158.675,134.765)"
           id="g32">
          <path
             d="m 2.859375,-6.8125 c 0,0 0,-0.109375 -0.125,-0.109375 -0.234375,0 -0.953125,0.078125 -1.21875,0.109375 -0.078125,0 -0.1875,0.015625 -0.1875,0.1875 0,0.125 0.09375,0.125 0.234375,0.125 0.484375,0 0.5,0.0625 0.5,0.171875 l -0.03125,0.203125 -1.4375,5.734375 c -0.046875,0.140625 -0.046875,0.15625 -0.046875,0.21875 0,0.234375 0.203125,0.28125 0.296875,0.28125 0.125,0 0.265625,-0.09375 0.328125,-0.203125 0.046875,-0.09375 0.5,-1.9375 0.5625,-2.1875 0.34375,0.03125 1.15625,0.1875 1.15625,0.84375 0,0.078125 0,0.109375 -0.03125,0.21875 -0.015625,0.109375 -0.03125,0.234375 -0.03125,0.34375 0,0.578125 0.390625,0.984375 0.90625,0.984375 0.296875,0 0.578125,-0.15625 0.796875,-0.53125 0.25,-0.4375 0.359375,-0.984375 0.359375,-1 0,-0.109375 -0.09375,-0.109375 -0.125,-0.109375 -0.09375,0 -0.109375,0.046875 -0.140625,0.1875 -0.203125,0.71875 -0.421875,1.234375 -0.859375,1.234375 -0.203125,0 -0.328125,-0.109375 -0.328125,-0.46875 0,-0.171875 0.046875,-0.40625 0.078125,-0.5625 0.046875,-0.171875 0.046875,-0.203125 0.046875,-0.3125 0,-0.640625 -0.625,-0.921875 -1.484375,-1.046875 0.3125,-0.171875 0.640625,-0.484375 0.859375,-0.734375 0.484375,-0.53125 0.9375,-0.953125 1.421875,-0.953125 0.0625,0 0.078125,0 0.09375,0.015625 0.125,0.015625 0.125,0.015625 0.21875,0.078125 0.015625,0 0.015625,0.015625 0.03125,0.03125 -0.46875,0.03125 -0.5625,0.421875 -0.5625,0.546875 0,0.15625 0.109375,0.34375 0.375,0.34375 0.265625,0 0.546875,-0.21875 0.546875,-0.609375 0,-0.296875 -0.234375,-0.625 -0.671875,-0.625 -0.28125,0 -0.734375,0.078125 -1.453125,0.875 -0.34375,0.375 -0.734375,0.78125 -1.109375,0.921875 z m 0,0"
             id="id-3bb891dd-8b02-4a93-a604-33e68321c1c9" />
        </g>
      </g>
    </g>
    <path
       style="fill:none;stroke:#000000;stroke-width:0.264583px;stroke-linecap:butt;stroke-linejoin:miter;stroke-opacity:1"
       d="m 77.369555,12.758071 v 5.607188 h -15.717467"
       id="path33" />
    <g
       transform="matrix(0.352778,0,0,0.352778,77.88503,14.993869)"
       ns11:version="1.10.2"
       ns11:texconverter="pdflatex"
       ns11:pdfconverter="inkscape"
       ns11:text="$b$"
       ns11:preamble="C:\Users\$r.984804\AppData\Roaming\inkscape\extensions\textext\default_packages.tex"
       ns11:scale="1.0"
       ns11:alignment="middle center"
       ns11:stroke-to-path="0"
       ns11:inkscapeversion="1.4"
       ns11:jacobian_sqrt="0.352778"
       id="g35">
      <defs
         id="id-8082b7ef-7021-460f-a874-3105219e165c">
        <g
           id="id-aa00b333-efee-43d2-826c-4619f7c0f7c0">
          <g
             id="id-5d30ece0-8dd8-4c86-b377-3b35b054d368">
            <path
               d="m 2.375,-6.8125 c 0,0 0,-0.109375 -0.125,-0.109375 -0.21875,0 -0.953125,0.078125 -1.21875,0.109375 -0.078125,0 -0.1875,0.015625 -0.1875,0.1875 0,0.125 0.09375,0.125 0.25,0.125 0.46875,0 0.484375,0.0625 0.484375,0.171875 0,0.0625 -0.078125,0.40625 -0.125,0.609375 l -0.828125,3.25 c -0.109375,0.5 -0.15625,0.671875 -0.15625,1.015625 0,0.9375 0.53125,1.5625 1.265625,1.5625 1.171875,0 2.40625,-1.484375 2.40625,-2.921875 0,-0.90625 -0.53125,-1.59375 -1.328125,-1.59375 -0.453125,0 -0.875,0.296875 -1.171875,0.59375 z m -0.921875,3.765625 c 0.046875,-0.21875 0.046875,-0.234375 0.140625,-0.34375 0.484375,-0.640625 0.9375,-0.796875 1.203125,-0.796875 0.359375,0 0.625,0.296875 0.625,0.9375 0,0.59375 -0.328125,1.734375 -0.515625,2.109375 -0.328125,0.671875 -0.78125,1.03125 -1.171875,1.03125 -0.34375,0 -0.671875,-0.265625 -0.671875,-1 0,-0.203125 0,-0.390625 0.15625,-1.015625 z m 0,0"
               id="id-0390a169-36f5-4c78-b82a-31bb158cf078" />
          </g>
        </g>
      </defs>
      <g
         fill="#000000"
         fill-opacity="1"
         id="id-95526cac-4690-46c8-859b-465ff69b3927"
         transform="translate(-149.181,-127.843)">
        <g
           transform="translate(148.712,134.765)"
           id="g34">
          <path
             d="m 2.375,-6.8125 c 0,0 0,-0.109375 -0.125,-0.109375 -0.21875,0 -0.953125,0.078125 -1.21875,0.109375 -0.078125,0 -0.1875,0.015625 -0.1875,0.1875 0,0.125 0.09375,0.125 0.25,0.125 0.46875,0 0.484375,0.0625 0.484375,0.171875 0,0.0625 -0.078125,0.40625 -0.125,0.609375 l -0.828125,3.25 c -0.109375,0.5 -0.15625,0.671875 -0.15625,1.015625 0,0.9375 0.53125,1.5625 1.265625,1.5625 1.171875,0 2.40625,-1.484375 2.40625,-2.921875 0,-0.90625 -0.53125,-1.59375 -1.328125,-1.59375 -0.453125,0 -0.875,0.296875 -1.171875,0.59375 z m -0.921875,3.765625 c 0.046875,-0.21875 0.046875,-0.234375 0.140625,-0.34375 0.484375,-0.640625 0.9375,-0.796875 1.203125,-0.796875 0.359375,0 0.625,0.296875 0.625,0.9375 0,0.59375 -0.328125,1.734375 -0.515625,2.109375 -0.328125,0.671875 -0.78125,1.03125 -1.171875,1.03125 -0.34375,0 -0.671875,-0.265625 -0.671875,-1 0,-0.203125 0,-0.390625 0.15625,-1.015625 z m 0,0"
             id="id-af3b051d-bf8d-4db1-abba-f80a49f7e418" />
        </g>
      </g>
    </g>
    <text
       xml:space="preserve"
       style="font-size:3.175px;line-height:0.9;font-family:'Times New Roman';-inkscape-font-specification:'Times New Roman, ';font-variant-ligatures:none;stroke-width:0.264583"
       x="3.5503244"
       y="51.501621"
       id="text35"><tspan
         sodipodi:role="line"
         id="tspan35"
         style="stroke-width:0.264583"
         x="3.5503244"
         y="51.501621">1</tspan></text>
  </g>
</svg>
