<?xml version="1.0" encoding="UTF-8" standalone="no"?>
<svg
   height="244.8pt"
   version="1.1"
   viewBox="0 0 216 244.8"
   width="216pt"
   id="svg112"
   sodipodi:docname="cv_ratio.svg"
   inkscape:version="1.3.2 (091e20e, 2023-11-25, custom)"
   xmlns:inkscape="http://www.inkscape.org/namespaces/inkscape"
   xmlns:sodipodi="http://sodipodi.sourceforge.net/DTD/sodipodi-0.dtd"
   xmlns:xlink="http://www.w3.org/1999/xlink"
   xmlns="http://www.w3.org/2000/svg"
   xmlns:svg="http://www.w3.org/2000/svg"
   xmlns:rdf="http://www.w3.org/1999/02/22-rdf-syntax-ns#"
   xmlns:cc="http://creativecommons.org/ns#"
   xmlns:dc="http://purl.org/dc/elements/1.1/">
  <sodipodi:namedview
     id="namedview112"
     pagecolor="#ffffff"
     bordercolor="#111111"
     borderopacity="1"
     inkscape:showpageshadow="0"
     inkscape:pageopacity="0"
     inkscape:pagecheckerboard="1"
     inkscape:deskcolor="#d1d1d1"
     inkscape:document-units="pt"
     inkscape:zoom="2.3927696"
     inkscape:cx="165.70756"
     inkscape:cy="236.33701"
     inkscape:window-width="1920"
     inkscape:window-height="1015"
     inkscape:window-x="1217"
     inkscape:window-y="1347"
     inkscape:window-maximized="1"
     inkscape:current-layer="svg112" />
  <metadata
     id="metadata1">
    <rdf:RDF>
      <cc:Work>
        <dc:type
           rdf:resource="http://purl.org/dc/dcmitype/StillImage" />
        <dc:date>2024-09-10T20:27:40.443004</dc:date>
        <dc:format>image/svg+xml</dc:format>
        <dc:creator>
          <cc:Agent>
            <dc:title>Matplotlib v3.4.3, https://matplotlib.org/</dc:title>
          </cc:Agent>
        </dc:creator>
      </cc:Work>
    </rdf:RDF>
  </metadata>
  <defs
     id="defs1">
    <style
       type="text/css"
       id="style1">*{stroke-linecap:butt;stroke-linejoin:round;}</style>
  </defs>
  <g
     id="figure_1">
    <g
       id="patch_1">
      <path
         d="M 0 244.8  L 216 244.8  L 216 0  L 0 0  z "
         style="fill:none;"
         id="path1" />
    </g>
    <g
       id="axes_1">
      <g
         id="patch_2">
        <path
           d="M 40.42333 208.112812  L 201.949655 208.112812  L 201.949655 8.64  L 40.42333 8.64  z "
           style="fill:#ffffff;"
           id="path2" />
      </g>
      <g
         id="matplotlib.axis_1">
        <g
           id="xtick_1">
          <g
             id="line2d_1">
            <path
               clip-path="url(#p51c95e6832)"
               d="M 40.42333 208.112812  L 40.42333 8.64  "
               style="fill:none;stroke:#b0b0b0;stroke-linecap:square;stroke-width:0.8;"
               id="path3" />
          </g>
          <g
             id="line2d_2">
            <defs
               id="defs3">
              <path
                 d="M 0 0  L 0 3.5  "
                 id="m988101e608"
                 style="stroke:#000000;stroke-width:0.8;" />
            </defs>
            <g
               id="g3">
              <use
                 style="stroke:#000000;stroke-width:0.8;"
                 x="40.42333"
                 xlink:href="#m988101e608"
                 y="208.112812"
                 id="use3" />
            </g>
          </g>
          <g
             id="text_1">
            <!-- $\mathdefault{0.0}$ -->
            <g
               transform="translate(35.012985 220.647614)scale(0.08 -0.08)"
               id="g6">
              <defs
                 id="defs4">
                <path
                   d="M 2688 2038  C 2688 2430 2682 3099 2413 3613  C 2176 4063 1798 4224 1466 4224  C 1158 4224 768 4082 525 3620  C 269 3137 243 2539 243 2038  C 243 1671 250 1112 448 623  C 723 -39 1216 -128 1466 -128  C 1760 -128 2208 -7 2470 604  C 2662 1048 2688 1568 2688 2038  z M 1466 -26  C 1056 -26 813 328 723 816  C 653 1196 653 1749 653 2109  C 653 2604 653 3015 736 3407  C 858 3954 1216 4121 1466 4121  C 1728 4121 2067 3947 2189 3420  C 2272 3054 2278 2623 2278 2109  C 2278 1691 2278 1176 2202 797  C 2067 96 1690 -26 1466 -26  z "
                   id="CMR17-30"
                   transform="scale(0.015625)" />
                <path
                   d="M 1178 307  C 1178 492 1024 620 870 620  C 685 620 557 467 557 313  C 557 128 710 0 864 0  C 1050 0 1178 153 1178 307  z "
                   id="CMMI12-3a"
                   transform="scale(0.015625)" />
              </defs>
              <use
                 transform="scale(0.996264)"
                 xlink:href="#CMR17-30"
                 id="use4" />
              <use
                 transform="translate(45.690477 0)scale(0.996264)"
                 xlink:href="#CMMI12-3a"
                 id="use5" />
              <use
                 transform="translate(72.787654 0)scale(0.996264)"
                 xlink:href="#CMR17-30"
                 id="use6" />
            </g>
          </g>
        </g>
        <g
           id="xtick_2">
          <g
             id="line2d_3">
            <path
               clip-path="url(#p51c95e6832)"
               d="M 72.728595 208.112812  L 72.728595 8.64  "
               style="fill:none;stroke:#b0b0b0;stroke-linecap:square;stroke-width:0.8;"
               id="path6" />
          </g>
          <g
             id="line2d_4">
            <g
               id="g7">
              <use
                 style="stroke:#000000;stroke-width:0.8;"
                 x="72.728595"
                 xlink:href="#m988101e608"
                 y="208.112812"
                 id="use7" />
            </g>
          </g>
          <g
             id="text_2">
            <!-- $\mathdefault{0.2}$ -->
            <g
               transform="translate(67.31825 220.647614)scale(0.08 -0.08)"
               id="g10">
              <defs
                 id="defs7">
                <path
                   d="M 2669 990  L 2554 990  C 2490 537 2438 460 2413 422  C 2381 371 1920 371 1830 371  L 602 371  C 832 620 1280 1073 1824 1596  C 2214 1966 2669 2400 2669 3033  C 2669 3788 2067 4224 1395 4224  C 691 4224 262 3603 262 3027  C 262 2777 448 2745 525 2745  C 589 2745 781 2783 781 3007  C 781 3206 614 3264 525 3264  C 486 3264 448 3257 422 3244  C 544 3788 915 4057 1306 4057  C 1862 4057 2227 3616 2227 3033  C 2227 2477 1901 1998 1536 1583  L 262 147  L 262 0  L 2515 0  L 2669 990  z "
                   id="CMR17-32"
                   transform="scale(0.015625)" />
              </defs>
              <use
                 transform="scale(0.996264)"
                 xlink:href="#CMR17-30"
                 id="use8" />
              <use
                 transform="translate(45.690477 0)scale(0.996264)"
                 xlink:href="#CMMI12-3a"
                 id="use9" />
              <use
                 transform="translate(72.787654 0)scale(0.996264)"
                 xlink:href="#CMR17-32"
                 id="use10" />
            </g>
          </g>
        </g>
        <g
           id="xtick_3">
          <g
             id="line2d_5">
            <path
               clip-path="url(#p51c95e6832)"
               d="M 105.03386 208.112812  L 105.03386 8.64  "
               style="fill:none;stroke:#b0b0b0;stroke-linecap:square;stroke-width:0.8;"
               id="path10" />
          </g>
          <g
             id="line2d_6">
            <g
               id="g11">
              <use
                 style="stroke:#000000;stroke-width:0.8;"
                 x="105.03386"
                 xlink:href="#m988101e608"
                 y="208.112812"
                 id="use11" />
            </g>
          </g>
          <g
             id="text_3">
            <!-- $\mathdefault{0.4}$ -->
            <g
               transform="translate(99.623515 220.647614)scale(0.08 -0.08)"
               id="g14">
              <defs
                 id="defs11">
                <path
                   d="M 2150 4147  C 2150 4281 2144 4288 2029 4288  L 128 1254  L 128 1088  L 1779 1088  L 1779 460  C 1779 230 1766 166 1318 166  L 1197 166  L 1197 0  C 1402 12 1747 12 1965 12  C 2182 12 2528 12 2733 0  L 2733 166  L 2611 166  C 2163 166 2150 230 2150 460  L 2150 1088  L 2803 1088  L 2803 1254  L 2150 1254  L 2150 4147  z M 1798 3723  L 1798 1254  L 256 1254  L 1798 3723  z "
                   id="CMR17-34"
                   transform="scale(0.015625)" />
              </defs>
              <use
                 transform="scale(0.996264)"
                 xlink:href="#CMR17-30"
                 id="use12" />
              <use
                 transform="translate(45.690477 0)scale(0.996264)"
                 xlink:href="#CMMI12-3a"
                 id="use13" />
              <use
                 transform="translate(72.787654 0)scale(0.996264)"
                 xlink:href="#CMR17-34"
                 id="use14" />
            </g>
          </g>
        </g>
        <g
           id="xtick_4">
          <g
             id="line2d_7">
            <path
               clip-path="url(#p51c95e6832)"
               d="M 137.339125 208.112812  L 137.339125 8.64  "
               style="fill:none;stroke:#b0b0b0;stroke-linecap:square;stroke-width:0.8;"
               id="path14" />
          </g>
          <g
             id="line2d_8">
            <g
               id="g15">
              <use
                 style="stroke:#000000;stroke-width:0.8;"
                 x="137.339125"
                 xlink:href="#m988101e608"
                 y="208.112812"
                 id="use15" />
            </g>
          </g>
          <g
             id="text_4">
            <!-- $\mathdefault{0.6}$ -->
            <g
               transform="translate(131.92878 220.647614)scale(0.08 -0.08)"
               id="g18">
              <defs
                 id="defs15">
                <path
                   d="M 678 2198  C 678 3712 1395 4076 1811 4076  C 1946 4076 2272 4049 2400 3782  C 2298 3782 2106 3782 2106 3558  C 2106 3385 2246 3328 2336 3328  C 2394 3328 2566 3353 2566 3571  C 2566 3987 2246 4224 1805 4224  C 1043 4224 243 3411 243 2011  C 243 257 966 -128 1478 -128  C 2099 -128 2688 431 2688 1295  C 2688 2101 2170 2688 1517 2688  C 1126 2688 838 2430 678 1979  L 678 2198  z M 1478 25  C 691 25 691 1212 691 1450  C 691 1914 909 2585 1504 2585  C 1613 2585 1926 2585 2138 2140  C 2253 1889 2253 1624 2253 1302  C 2253 954 2253 696 2118 438  C 1978 173 1773 25 1478 25  z "
                   id="CMR17-36"
                   transform="scale(0.015625)" />
              </defs>
              <use
                 transform="scale(0.996264)"
                 xlink:href="#CMR17-30"
                 id="use16" />
              <use
                 transform="translate(45.690477 0)scale(0.996264)"
                 xlink:href="#CMMI12-3a"
                 id="use17" />
              <use
                 transform="translate(72.787654 0)scale(0.996264)"
                 xlink:href="#CMR17-36"
                 id="use18" />
            </g>
          </g>
        </g>
        <g
           id="xtick_5">
          <g
             id="line2d_9">
            <path
               clip-path="url(#p51c95e6832)"
               d="M 169.64439 208.112812  L 169.64439 8.64  "
               style="fill:none;stroke:#b0b0b0;stroke-linecap:square;stroke-width:0.8;"
               id="path18" />
          </g>
          <g
             id="line2d_10">
            <g
               id="g19">
              <use
                 style="stroke:#000000;stroke-width:0.8;"
                 x="169.64439"
                 xlink:href="#m988101e608"
                 y="208.112812"
                 id="use19" />
            </g>
          </g>
          <g
             id="text_5">
            <!-- $\mathdefault{0.8}$ -->
            <g
               transform="translate(164.234045 220.647614)scale(0.08 -0.08)"
               id="g22">
              <defs
                 id="defs19">
                <path
                   d="M 1741 2289  C 2144 2494 2554 2803 2554 3298  C 2554 3884 1990 4224 1472 4224  C 890 4224 378 3800 378 3215  C 378 3054 416 2777 666 2533  C 730 2469 998 2276 1171 2154  C 883 2006 211 1652 211 945  C 211 282 838 -128 1459 -128  C 2144 -128 2720 366 2720 1022  C 2720 1607 2330 1877 2074 2051  L 1741 2289  z M 902 2855  C 851 2887 595 3086 595 3388  C 595 3781 998 4076 1459 4076  C 1965 4076 2336 3716 2336 3298  C 2336 2700 1670 2359 1638 2359  C 1632 2359 1626 2359 1574 2398  L 902 2855  z M 2080 1536  C 2176 1466 2483 1253 2483 861  C 2483 385 2010 25 1472 25  C 890 25 448 443 448 951  C 448 1459 838 1884 1280 2083  L 2080 1536  z "
                   id="CMR17-38"
                   transform="scale(0.015625)" />
              </defs>
              <use
                 transform="scale(0.996264)"
                 xlink:href="#CMR17-30"
                 id="use20" />
              <use
                 transform="translate(45.690477 0)scale(0.996264)"
                 xlink:href="#CMMI12-3a"
                 id="use21" />
              <use
                 transform="translate(72.787654 0)scale(0.996264)"
                 xlink:href="#CMR17-38"
                 id="use22" />
            </g>
          </g>
        </g>
        <g
           id="xtick_6">
          <g
             id="line2d_11">
            <path
               clip-path="url(#p51c95e6832)"
               d="M 201.949655 208.112812  L 201.949655 8.64  "
               style="fill:none;stroke:#b0b0b0;stroke-linecap:square;stroke-width:0.8;"
               id="path22" />
          </g>
          <g
             id="line2d_12">
            <g
               id="g23">
              <use
                 style="stroke:#000000;stroke-width:0.8;"
                 x="201.949655"
                 xlink:href="#m988101e608"
                 y="208.112812"
                 id="use23" />
            </g>
          </g>
          <g
             id="text_6">
            <!-- $\mathdefault{1.0}$ -->
            <g
               transform="translate(196.53931 220.647614)scale(0.08 -0.08)"
               id="g26">
              <defs
                 id="defs23">
                <path
                   d="M 1702 4083  C 1702 4217 1696 4224 1606 4224  C 1357 3927 979 3833 621 3820  C 602 3820 570 3820 563 3808  C 557 3795 557 3782 557 3648  C 755 3648 1088 3686 1344 3839  L 1344 467  C 1344 243 1331 166 781 166  L 589 166  L 589 0  C 896 6 1216 12 1523 12  C 1830 12 2150 6 2458 0  L 2458 166  L 2266 166  C 1715 166 1702 236 1702 467  L 1702 4083  z "
                   id="CMR17-31"
                   transform="scale(0.015625)" />
              </defs>
              <use
                 transform="scale(0.996264)"
                 xlink:href="#CMR17-31"
                 id="use24" />
              <use
                 transform="translate(45.690477 0)scale(0.996264)"
                 xlink:href="#CMMI12-3a"
                 id="use25" />
              <use
                 transform="translate(72.787654 0)scale(0.996264)"
                 xlink:href="#CMR17-30"
                 id="use26" />
            </g>
          </g>
        </g>
        <g
           id="text_7">
          <!-- Pore pressure ratio $\Delta u_b/\sigma_v$ [-] -->
          <g
             transform="translate(55.454631 233.66934)scale(0.1 -0.1)"
             id="g52">
            <defs
               id="defs26">
              <path
                 d="M 1267 2048  L 2291 2048  C 3117 2048 3718 2583 3718 3187  C 3718 3791 3130 4352 2291 4352  L 333 4352  L 333 4185  C 774 4185 845 4185 845 3899  L 845 453  C 845 166 774 166 333 166  L 333 0  C 518 12 858 12 1056 12  C 1254 12 1594 12 1779 0  L 1779 166  C 1338 166 1267 166 1267 453  L 1267 2048  z M 1254 2182  L 1254 3937  C 1254 4153 1267 4185 1523 4185  L 2170 4185  C 2995 4185 3232 3715 3232 3187  C 3232 2608 2950 2182 2170 2182  L 1254 2182  z "
                 id="CMR17-50"
                 transform="scale(0.015625)" />
              <path
                 d="M 2758 1356  C 2758 2176 2163 2816 1466 2816  C 768 2816 173 2176 173 1356  C 173 550 768 -64 1466 -64  C 2163 -64 2758 550 2758 1356  z M 1466 51  C 1165 51 909 230 762 480  C 602 768 582 1126 582 1408  C 582 1676 595 2009 762 2297  C 890 2508 1139 2713 1466 2713  C 1754 2713 1997 2553 2150 2329  C 2349 2028 2349 1606 2349 1408  C 2349 1158 2336 774 2163 467  C 1984 172 1709 51 1466 51  z "
                 id="CMR17-6f"
                 transform="scale(0.015625)" />
              <path
                 d="M 960 1517  C 960 2134 1222 2713 1702 2713  C 1747 2713 1792 2707 1837 2687  C 1837 2687 1696 2642 1696 2475  C 1696 2321 1818 2257 1914 2257  C 1990 2257 2131 2302 2131 2482  C 2131 2687 1926 2816 1709 2816  C 1222 2816 1011 2340 947 2115  L 941 2115  L 941 2816  L 198 2745  L 198 2578  C 576 2578 634 2540 634 2231  L 634 443  C 634 198 608 166 198 166  L 198 0  C 352 12 646 12 813 12  C 998 12 1325 12 1498 0  L 1498 166  C 1037 166 960 166 960 455  L 960 1517  z "
                 id="CMR17-72"
                 transform="scale(0.015625)" />
              <path
                 d="M 2438 1503  C 2464 1529 2464 1542 2464 1606  C 2464 2251 2118 2816 1389 2816  C 710 2816 173 2175 173 1394  C 173 554 781 -64 1459 -64  C 2176 -64 2458 619 2458 755  C 2458 800 2419 800 2406 800  C 2362 800 2355 787 2330 709  C 2189 270 1837 51 1504 51  C 1229 51 954 206 781 490  C 582 819 582 1200 582 1503  L 2438 1503  z M 589 1600  C 634 2511 1126 2713 1382 2713  C 1818 2713 2112 2308 2118 1600  L 589 1600  z "
                 id="CMR17-65"
                 transform="scale(0.015625)" />
              <path
                 d="M 1408 -1114  C 998 -1114 973 -1088 973 -834  L 973 380  C 1158 109 1427 -64 1766 -64  C 2406 -64 3053 503 3053 1382  C 3053 2196 2496 2816 1837 2816  C 1453 2816 1139 2603 960 2345  L 960 2816  L 198 2745  L 198 2577  C 576 2577 634 2539 634 2228  L 634 -834  C 634 -1081 608 -1114 198 -1114  L 198 -1280  C 352 -1268 634 -1268 800 -1268  C 966 -1268 1254 -1268 1408 -1280  L 1408 -1114  z M 973 2015  C 973 2106 973 2241 1222 2481  C 1254 2506 1472 2700 1792 2700  C 2259 2700 2643 2112 2643 1376  C 2643 639 2234 38 1728 38  C 1498 38 1248 148 1056 451  C 973 594 973 632 973 736  L 973 2015  z "
                 id="CMR17-70"
                 transform="scale(0.015625)" />
              <path
                 d="M 1978 2688  C 1978 2803 1971 2809 1933 2809  C 1907 2809 1901 2803 1824 2707  C 1805 2681 1747 2617 1728 2592  C 1523 2809 1235 2816 1126 2816  C 416 2816 160 2444 160 2073  C 160 1497 813 1363 998 1324  C 1402 1241 1542 1216 1677 1100  C 1760 1024 1901 883 1901 652  C 1901 384 1747 38 1158 38  C 602 38 403 460 288 1024  C 269 1113 269 1120 218 1120  C 166 1120 160 1113 160 985  L 160 64  C 160 -52 166 -58 205 -58  C 237 -58 243 -52 275 0  C 314 57 410 211 448 275  C 576 102 800 -64 1158 -64  C 1792 -64 2131 281 2131 780  C 2131 1107 1958 1280 1875 1356  C 1683 1555 1459 1600 1190 1651  C 838 1728 390 1817 390 2208  C 390 2374 480 2726 1126 2726  C 1811 2726 1850 2086 1862 1881  C 1869 1849 1901 1843 1920 1843  C 1978 1843 1978 1862 1978 1971  L 1978 2688  z "
                 id="CMR17-73"
                 transform="scale(0.015625)" />
              <path
                 d="M 1882 2745  L 1882 2579  C 2259 2579 2317 2540 2317 2229  L 2317 1053  C 2317 510 2029 38 1555 38  C 1030 38 986 355 986 691  L 986 2816  L 211 2745  L 211 2579  C 467 2579 640 2579 646 2320  L 646 1079  C 646 646 646 368 813 187  C 896 103 1056 -64 1517 -64  C 2061 -64 2272 400 2323 536  L 2330 536  L 2330 -64  L 3091 -13  L 3091 154  C 2714 154 2656 193 2656 503  L 2656 2816  L 1882 2745  z "
                 id="CMR17-75"
                 transform="scale(0.015625)" />
              <path
                 d="M 2304 1656  C 2304 2048 2304 2275 2035 2534  C 1798 2751 1523 2816 1306 2816  C 800 2816 435 2408 435 1977  C 435 1740 627 1728 666 1728  C 749 1728 896 1779 896 1958  C 896 2118 774 2188 666 2188  C 640 2188 608 2182 589 2176  C 723 2594 1069 2713 1293 2713  C 1613 2713 1965 2421 1965 1875  L 1965 1632  C 1587 1619 1133 1568 774 1373  C 371 1147 256 822 256 576  C 256 77 832 -64 1171 -64  C 1523 -64 1850 135 1990 505  C 2003 219 2182 -39 2464 -39  C 2598 -39 2938 51 2938 563  L 2938 926  L 2822 926  L 2822 557  C 2822 161 2650 109 2566 109  C 2304 109 2304 446 2304 732  L 2304 1656  z M 1965 887  C 1965 323 1568 38 1216 38  C 896 38 646 278 646 576  C 646 771 730 1114 1101 1322  C 1408 1497 1760 1523 1965 1536  L 1965 887  z "
                 id="CMR17-61"
                 transform="scale(0.015625)" />
              <path
                 d="M 966 2585  L 1862 2585  L 1862 2752  L 966 2752  L 966 3968  L 851 3968  C 838 3292 614 2700 70 2687  L 70 2585  L 627 2585  L 627 778  C 627 655 627 -64 1370 -64  C 1747 -64 1965 308 1965 784  L 1965 1151  L 1850 1151  L 1850 790  C 1850 347 1677 51 1408 51  C 1222 51 966 179 966 765  L 966 2585  z "
                 id="CMR17-74"
                 transform="scale(0.015625)" />
              <path
                 d="M 992 3961  C 992 4102 877 4224 730 4224  C 589 4224 467 4108 467 3961  C 467 3820 582 3699 730 3699  C 870 3699 992 3814 992 3961  z M 243 2745  L 243 2579  C 602 2579 653 2540 653 2231  L 653 443  C 653 198 627 166 218 166  L 218 0  C 371 12 646 12 806 12  C 960 12 1222 12 1370 0  L 1370 166  C 992 166 979 205 979 436  L 979 2816  L 243 2745  z "
                 id="CMR17-69"
                 transform="scale(0.015625)" />
              <path
                 d="M 2598 4435  C 2547 4544 2522 4544 2470 4544  C 2394 4544 2387 4531 2342 4441  L 269 108  C 262 96 237 38 237 32  C 237 6 243 0 358 0  L 4576 0  C 4691 0 4698 6 4698 32  C 4698 38 4672 96 4666 108  L 2598 4435  z M 2310 4056  L 4083 358  L 531 358  L 2310 4056  z "
                 id="CMR17-1"
                 transform="scale(0.015625)" />
              <path
                 d="M 2182 370  C 2266 12 2573 -64 2726 -64  C 2931 -64 3085 70 3187 287  C 3296 517 3379 893 3379 913  C 3379 944 3354 970 3315 970  C 3258 970 3251 938 3226 842  C 3110 402 2995 64 2739 64  C 2547 64 2547 274 2547 357  C 2547 504 2566 568 2630 836  C 2675 1008 2720 1181 2758 1359  L 3021 2400  C 3066 2560 3066 2572 3066 2591  C 3066 2687 2989 2752 2893 2752  C 2707 2752 2662 2591 2624 2432  C 2560 2183 2214 810 2170 587  C 2163 587 1914 64 1446 64  C 1114 64 1050 351 1050 587  C 1050 951 1229 1462 1395 1890  C 1472 2094 1504 2177 1504 2305  C 1504 2579 1306 2816 998 2816  C 410 2816 173 1890 173 1838  C 173 1813 198 1781 243 1781  C 301 1781 307 1807 333 1896  C 486 2445 736 2687 979 2687  C 1043 2687 1146 2681 1146 2477  C 1146 2311 1075 2126 979 1883  C 698 1123 666 881 666 689  C 666 38 1158 -64 1421 -64  C 1830 -64 2054 217 2182 370  z "
                 id="CMMI12-75"
                 transform="scale(0.015625)" />
              <path
                 d="M 1478 4255  C 1485 4281 1498 4319 1498 4351  C 1498 4416 1434 4416 1421 4416  C 1414 4416 1184 4396 1069 4383  C 960 4377 864 4364 749 4358  C 595 4345 550 4339 550 4223  C 550 4159 614 4159 678 4159  C 1005 4159 1005 4103 1005 4040  C 1005 3995 954 3812 928 3699  L 774 3093  C 710 2841 346 1392 320 1277  C 288 1117 288 1008 288 925  C 288 274 653 -64 1069 -64  C 1811 -64 2579 887 2579 1813  C 2579 2400 2246 2816 1766 2816  C 1434 2816 1133 2541 1011 2413  L 1478 4255  z M 1075 64  C 870 64 646 217 646 715  C 646 925 666 1047 781 1494  C 800 1577 902 1985 928 2068  C 941 2119 1318 2687 1754 2687  C 2035 2687 2163 2407 2163 2075  C 2163 1768 1984 1047 1824 715  C 1664 370 1370 64 1075 64  z "
                 id="CMMI12-62"
                 transform="scale(0.015625)" />
              <path
                 d="M 2746 4563  C 2746 4569 2784 4665 2784 4678  C 2784 4755 2720 4800 2669 4800  C 2637 4800 2579 4800 2528 4659  L 384 -1364  C 384 -1370 346 -1466 346 -1479  C 346 -1556 410 -1600 461 -1600  C 499 -1600 557 -1594 602 -1460  L 2746 4563  z "
                 id="CMMI12-3d"
                 transform="scale(0.015625)" />
              <path
                 d="M 3251 2406  C 3334 2406 3546 2406 3546 2611  C 3546 2752 3424 2752 3309 2752  L 1894 2752  C 934 2752 243 1685 243 932  C 243 389 595 -64 1171 -64  C 1926 -64 2752 746 2752 1704  C 2752 1953 2694 2195 2541 2406  L 3251 2406  z M 1178 64  C 851 64 614 312 614 753  C 614 1136 845 2406 1786 2406  C 2061 2406 2368 2272 2368 1780  C 2368 1557 2266 1021 2042 651  C 1811 274 1466 64 1178 64  z "
                 id="CMMI12-1b"
                 transform="scale(0.015625)" />
              <path
                 d="M 2925 2388  C 2925 2790 2720 2816 2669 2816  C 2515 2816 2374 2662 2374 2534  C 2374 2458 2419 2413 2445 2388  C 2509 2330 2675 2158 2675 1826  C 2675 1558 2291 64 1523 64  C 1133 64 1056 389 1056 625  C 1056 945 1203 1392 1376 1851  C 1478 2113 1504 2177 1504 2305  C 1504 2573 1312 2816 998 2816  C 410 2816 173 1890 173 1838  C 173 1813 198 1781 243 1781  C 301 1781 307 1807 333 1896  C 486 2445 736 2687 979 2687  C 1037 2687 1146 2687 1146 2477  C 1146 2311 1075 2126 979 1883  C 672 1066 672 868 672 715  C 672 574 691 313 890 134  C 1120 -64 1440 -64 1498 -64  C 2560 -64 2925 2024 2925 2388  z "
                 id="CMMI12-76"
                 transform="scale(0.015625)" />
              <path
                 d="M 1504 -1600  L 1504 -1376  L 902 -1376  L 902 4575  L 1504 4575  L 1504 4800  L 678 4800  L 678 -1600  L 1504 -1600  z "
                 id="CMR17-5b"
                 transform="scale(0.015625)" />
              <path
                 d="M 1632 1254  L 1632 1536  L 26 1536  L 26 1254  L 1632 1254  z "
                 id="CMR17-2d"
                 transform="scale(0.015625)" />
              <path
                 d="M 915 4800  L 90 4800  L 90 4575  L 691 4575  L 691 -1376  L 90 -1376  L 90 -1600  L 915 -1600  L 915 4800  z "
                 id="CMR17-5d"
                 transform="scale(0.015625)" />
            </defs>
            <use
               transform="scale(0.996264)"
               xlink:href="#CMR17-50"
               id="use27" />
            <use
               transform="translate(59.983847 0)scale(0.996264)"
               xlink:href="#CMR17-6f"
               id="use28" />
            <use
               transform="translate(105.674324 0)scale(0.996264)"
               xlink:href="#CMR17-72"
               id="use29" />
            <use
               transform="translate(140.955092 0)scale(0.996264)"
               xlink:href="#CMR17-65"
               id="use30" />
            <use
               transform="translate(211.516718 0)scale(0.996264)"
               xlink:href="#CMR17-70"
               id="use31" />
            <use
               transform="translate(262.412088 0)scale(0.996264)"
               xlink:href="#CMR17-72"
               id="use32" />
            <use
               transform="translate(297.692856 0)scale(0.996264)"
               xlink:href="#CMR17-65"
               id="use33" />
            <use
               transform="translate(338.178516 0)scale(0.996264)"
               xlink:href="#CMR17-73"
               id="use34" />
            <use
               transform="translate(373.979854 0)scale(0.996264)"
               xlink:href="#CMR17-73"
               id="use35" />
            <use
               transform="translate(409.781192 0)scale(0.996264)"
               xlink:href="#CMR17-75"
               id="use36" />
            <use
               transform="translate(460.676561 0)scale(0.996264)"
               xlink:href="#CMR17-72"
               id="use37" />
            <use
               transform="translate(495.957329 0)scale(0.996264)"
               xlink:href="#CMR17-65"
               id="use38" />
            <use
               transform="translate(566.518956 0)scale(0.996264)"
               xlink:href="#CMR17-72"
               id="use39" />
            <use
               transform="translate(601.799724 0)scale(0.996264)"
               xlink:href="#CMR17-61"
               id="use40" />
            <use
               transform="translate(647.490201 0)scale(0.996264)"
               xlink:href="#CMR17-74"
               id="use41" />
            <use
               transform="translate(682.770969 0)scale(0.996264)"
               xlink:href="#CMR17-69"
               id="use42" />
            <use
               transform="translate(707.642027 0)scale(0.996264)"
               xlink:href="#CMR17-6f"
               id="use43" />
            <use
               transform="translate(783.408471 0)scale(0.996264)"
               xlink:href="#CMR17-1"
               id="use44" />
            <use
               transform="translate(860.328061 0)scale(0.996264)"
               xlink:href="#CMMI12-75"
               id="use45" />
            <use
               transform="translate(915.84839 -14.943915)scale(0.697382)"
               xlink:href="#CMMI12-62"
               id="use46" />
            <use
               transform="translate(945.379509 0)scale(0.996264)"
               xlink:href="#CMMI12-3d"
               id="use47" />
            <use
               transform="translate(994.154428 0)scale(0.996264)"
               xlink:href="#CMMI12-1b"
               id="use48" />
            <use
               transform="translate(1049.599889 -14.943915)scale(0.697382)"
               xlink:href="#CMMI12-76"
               id="use49" />
            <use
               transform="translate(1115.688437 0)scale(0.996264)"
               xlink:href="#CMR17-5b"
               id="use50" />
            <use
               transform="translate(1140.559496 0)scale(0.996264)"
               xlink:href="#CMR17-2d"
               id="use51" />
            <use
               transform="translate(1170.635462 0)scale(0.996264)"
               xlink:href="#CMR17-5d"
               id="use52" />
          </g>
        </g>
      </g>
      <g
         id="matplotlib.axis_2">
        <g
           id="ytick_1">
          <g
             id="line2d_13">
            <path
               clip-path="url(#p51c95e6832)"
               d="M 40.42333 208.112812  L 201.949655 208.112812  "
               style="fill:none;stroke:#b0b0b0;stroke-linecap:square;stroke-width:0.8;"
               id="path52" />
          </g>
          <g
             id="line2d_14">
            <defs
               id="defs52">
              <path
                 d="M 0 0  L -3.5 0  "
                 id="m83d78aec62"
                 style="stroke:#000000;stroke-width:0.8;" />
            </defs>
            <g
               id="g53">
              <use
                 style="stroke:#000000;stroke-width:0.8;"
                 x="40.42333"
                 xlink:href="#m83d78aec62"
                 y="208.112812"
                 id="use53" />
            </g>
          </g>
          <g
             id="text_8">
            <!-- $\mathdefault{1.0}$ -->
            <g
               transform="translate(22.60264 210.880213)scale(0.08 -0.08)"
               id="g56">
              <use
                 transform="scale(0.996264)"
                 xlink:href="#CMR17-31"
                 id="use54" />
              <use
                 transform="translate(45.690477 0)scale(0.996264)"
                 xlink:href="#CMMI12-3a"
                 id="use55" />
              <use
                 transform="translate(72.787654 0)scale(0.996264)"
                 xlink:href="#CMR17-30"
                 id="use56" />
            </g>
          </g>
        </g>
        <g
           id="ytick_2">
          <g
             id="line2d_15">
            <path
               clip-path="url(#p51c95e6832)"
               d="M 40.42333 182.052435  L 201.949655 182.052435  "
               style="fill:none;stroke:#b0b0b0;stroke-linecap:square;stroke-width:0.8;"
               id="path56" />
          </g>
          <g
             id="line2d_16">
            <g
               id="g57">
              <use
                 style="stroke:#000000;stroke-width:0.8;"
                 x="40.42333"
                 xlink:href="#m83d78aec62"
                 y="182.052435"
                 id="use57" />
            </g>
          </g>
          <g
             id="text_9">
            <!-- $\mathdefault{1.5}$ -->
            <g
               transform="translate(22.60264 184.819835)scale(0.08 -0.08)"
               id="g60">
              <defs
                 id="defs57">
                <path
                   d="M 730 3750  C 794 3724 1056 3641 1325 3641  C 1920 3641 2246 3961 2432 4140  C 2432 4191 2432 4224 2394 4224  C 2387 4224 2374 4224 2323 4198  C 2099 4102 1837 4032 1517 4032  C 1325 4032 1037 4055 723 4191  C 653 4224 640 4224 634 4224  C 602 4224 595 4217 595 4090  L 595 2231  C 595 2113 595 2080 659 2080  C 691 2080 704 2093 736 2139  C 941 2435 1222 2560 1542 2560  C 1766 2560 2246 2415 2246 1293  C 2246 1087 2246 716 2054 422  C 1894 159 1645 25 1370 25  C 947 25 518 319 403 812  C 429 806 480 793 506 793  C 589 793 749 838 749 1036  C 749 1209 627 1280 506 1280  C 358 1280 262 1190 262 1011  C 262 454 704 -128 1382 -128  C 2042 -128 2669 441 2669 1267  C 2669 2054 2170 2662 1549 2662  C 1222 2662 947 2540 730 2304  L 730 3750  z "
                   id="CMR17-35"
                   transform="scale(0.015625)" />
              </defs>
              <use
                 transform="scale(0.996264)"
                 xlink:href="#CMR17-31"
                 id="use58" />
              <use
                 transform="translate(45.690477 0)scale(0.996264)"
                 xlink:href="#CMMI12-3a"
                 id="use59" />
              <use
                 transform="translate(72.787654 0)scale(0.996264)"
                 xlink:href="#CMR17-35"
                 id="use60" />
            </g>
          </g>
        </g>
        <g
           id="ytick_3">
          <g
             id="line2d_17">
            <path
               clip-path="url(#p51c95e6832)"
               d="M 40.42333 155.992057  L 201.949655 155.992057  "
               style="fill:none;stroke:#b0b0b0;stroke-linecap:square;stroke-width:0.8;"
               id="path60" />
          </g>
          <g
             id="line2d_18">
            <g
               id="g61">
              <use
                 style="stroke:#000000;stroke-width:0.8;"
                 x="40.42333"
                 xlink:href="#m83d78aec62"
                 y="155.992057"
                 id="use61" />
            </g>
          </g>
          <g
             id="text_10">
            <!-- $\mathdefault{2.0}$ -->
            <g
               transform="translate(22.60264 158.759457)scale(0.08 -0.08)"
               id="g64">
              <use
                 transform="scale(0.996264)"
                 xlink:href="#CMR17-32"
                 id="use62" />
              <use
                 transform="translate(45.690477 0)scale(0.996264)"
                 xlink:href="#CMMI12-3a"
                 id="use63" />
              <use
                 transform="translate(72.787654 0)scale(0.996264)"
                 xlink:href="#CMR17-30"
                 id="use64" />
            </g>
          </g>
        </g>
        <g
           id="ytick_4">
          <g
             id="line2d_19">
            <path
               clip-path="url(#p51c95e6832)"
               d="M 40.42333 129.931679  L 201.949655 129.931679  "
               style="fill:none;stroke:#b0b0b0;stroke-linecap:square;stroke-width:0.8;"
               id="path64" />
          </g>
          <g
             id="line2d_20">
            <g
               id="g65">
              <use
                 style="stroke:#000000;stroke-width:0.8;"
                 x="40.42333"
                 xlink:href="#m83d78aec62"
                 y="129.931679"
                 id="use65" />
            </g>
          </g>
          <g
             id="text_11">
            <!-- $\mathdefault{2.5}$ -->
            <g
               transform="translate(22.60264 132.69908)scale(0.08 -0.08)"
               id="g68">
              <use
                 transform="scale(0.996264)"
                 xlink:href="#CMR17-32"
                 id="use66" />
              <use
                 transform="translate(45.690477 0)scale(0.996264)"
                 xlink:href="#CMMI12-3a"
                 id="use67" />
              <use
                 transform="translate(72.787654 0)scale(0.996264)"
                 xlink:href="#CMR17-35"
                 id="use68" />
            </g>
          </g>
        </g>
        <g
           id="ytick_5">
          <g
             id="line2d_21">
            <path
               clip-path="url(#p51c95e6832)"
               d="M 40.42333 103.871301  L 201.949655 103.871301  "
               style="fill:none;stroke:#b0b0b0;stroke-linecap:square;stroke-width:0.8;"
               id="path68" />
          </g>
          <g
             id="line2d_22">
            <g
               id="g69">
              <use
                 style="stroke:#000000;stroke-width:0.8;"
                 x="40.42333"
                 xlink:href="#m83d78aec62"
                 y="103.871301"
                 id="use69" />
            </g>
          </g>
          <g
             id="text_12">
            <!-- $\mathdefault{3.0}$ -->
            <g
               transform="translate(22.60264 106.638702)scale(0.08 -0.08)"
               id="g72">
              <defs
                 id="defs69">
                <path
                   d="M 1414 2176  C 1984 2176 2234 1673 2234 1094  C 2234 322 1824 25 1453 25  C 1114 25 563 193 390 691  C 422 678 454 678 486 678  C 640 678 755 780 755 947  C 755 1132 614 1216 486 1216  C 378 1216 211 1164 211 927  C 211 335 787 -128 1466 -128  C 2176 -128 2720 432 2720 1087  C 2720 1718 2208 2176 1600 2246  C 2086 2347 2554 2776 2554 3353  C 2554 3856 2048 4224 1472 4224  C 890 4224 378 3862 378 3347  C 378 3123 544 3084 627 3084  C 762 3084 877 3167 877 3334  C 877 3500 762 3584 627 3584  C 602 3584 570 3584 544 3571  C 730 3999 1235 4076 1459 4076  C 1683 4076 2106 3966 2106 3347  C 2106 3167 2080 2851 1862 2574  C 1670 2329 1453 2316 1242 2297  C 1210 2297 1062 2284 1037 2284  C 992 2278 966 2272 966 2227  C 966 2182 973 2176 1101 2176  L 1414 2176  z "
                   id="CMR17-33"
                   transform="scale(0.015625)" />
              </defs>
              <use
                 transform="scale(0.996264)"
                 xlink:href="#CMR17-33"
                 id="use70" />
              <use
                 transform="translate(45.690477 0)scale(0.996264)"
                 xlink:href="#CMMI12-3a"
                 id="use71" />
              <use
                 transform="translate(72.787654 0)scale(0.996264)"
                 xlink:href="#CMR17-30"
                 id="use72" />
            </g>
          </g>
        </g>
        <g
           id="ytick_6">
          <g
             id="line2d_23">
            <path
               clip-path="url(#p51c95e6832)"
               d="M 40.42333 77.810923  L 201.949655 77.810923  "
               style="fill:none;stroke:#b0b0b0;stroke-linecap:square;stroke-width:0.8;"
               id="path72" />
          </g>
          <g
             id="line2d_24">
            <g
               id="g73">
              <use
                 style="stroke:#000000;stroke-width:0.8;"
                 x="40.42333"
                 xlink:href="#m83d78aec62"
                 y="77.810923"
                 id="use73" />
            </g>
          </g>
          <g
             id="text_13">
            <!-- $\mathdefault{3.5}$ -->
            <g
               transform="translate(22.60264 80.578324)scale(0.08 -0.08)"
               id="g76">
              <use
                 transform="scale(0.996264)"
                 xlink:href="#CMR17-33"
                 id="use74" />
              <use
                 transform="translate(45.690477 0)scale(0.996264)"
                 xlink:href="#CMMI12-3a"
                 id="use75" />
              <use
                 transform="translate(72.787654 0)scale(0.996264)"
                 xlink:href="#CMR17-35"
                 id="use76" />
            </g>
          </g>
        </g>
        <g
           id="ytick_7">
          <g
             id="line2d_25">
            <path
               clip-path="url(#p51c95e6832)"
               d="M 40.42333 51.750545  L 201.949655 51.750545  "
               style="fill:none;stroke:#b0b0b0;stroke-linecap:square;stroke-width:0.8;"
               id="path76" />
          </g>
          <g
             id="line2d_26">
            <g
               id="g77">
              <use
                 style="stroke:#000000;stroke-width:0.8;"
                 x="40.42333"
                 xlink:href="#m83d78aec62"
                 y="51.750545"
                 id="use77" />
            </g>
          </g>
          <g
             id="text_14">
            <!-- $\mathdefault{4.0}$ -->
            <g
               transform="translate(22.60264 54.517946)scale(0.08 -0.08)"
               id="g80">
              <use
                 transform="scale(0.996264)"
                 xlink:href="#CMR17-34"
                 id="use78" />
              <use
                 transform="translate(45.690477 0)scale(0.996264)"
                 xlink:href="#CMMI12-3a"
                 id="use79" />
              <use
                 transform="translate(72.787654 0)scale(0.996264)"
                 xlink:href="#CMR17-30"
                 id="use80" />
            </g>
          </g>
        </g>
        <g
           id="ytick_8">
          <g
             id="line2d_27">
            <path
               clip-path="url(#p51c95e6832)"
               d="M 40.42333 25.690167  L 201.949655 25.690167  "
               style="fill:none;stroke:#b0b0b0;stroke-linecap:square;stroke-width:0.8;"
               id="path80" />
          </g>
          <g
             id="line2d_28">
            <g
               id="g81">
              <use
                 style="stroke:#000000;stroke-width:0.8;"
                 x="40.42333"
                 xlink:href="#m83d78aec62"
                 y="25.690167"
                 id="use81" />
            </g>
          </g>
          <g
             id="text_15">
            <!-- $\mathdefault{4.5}$ -->
            <g
               transform="translate(22.60264 28.457568)scale(0.08 -0.08)"
               id="g84">
              <use
                 transform="scale(0.996264)"
                 xlink:href="#CMR17-34"
                 id="use82" />
              <use
                 transform="translate(45.690477 0)scale(0.996264)"
                 xlink:href="#CMMI12-3a"
                 id="use83" />
              <use
                 transform="translate(72.787654 0)scale(0.996264)"
                 xlink:href="#CMR17-35"
                 id="use84" />
            </g>
          </g>
        </g>
        <g
           id="text_16">
          <!-- $C_v$ linear/ $C_v$ non-linear [-] -->
          <g
             transform="translate(16.11198 167.857393)rotate(-90)scale(0.1 -0.1)"
             id="g108">
            <defs
               id="defs84">
              <path
                 d="M 4781 4422  C 4781 4480 4736 4480 4723 4480  C 4710 4480 4685 4480 4634 4415  L 4192 3881  C 3968 4262 3616 4480 3136 4480  C 1754 4480 320 3087 320 1594  C 320 533 1069 -128 2003 -128  C 2515 -128 2963 89 3334 400  C 3891 864 4058 1480 4058 1531  C 4058 1588 4006 1588 3987 1588  C 3930 1588 3923 1550 3910 1524  C 3616 533 2752 57 2112 57  C 1434 57 845 489 845 1391  C 845 1594 909 2699 1632 3531  C 1984 3938 2586 4294 3194 4294  C 3898 4294 4211 3716 4211 3068  C 4211 2903 4192 2763 4192 2737  C 4192 2680 4256 2680 4275 2680  C 4346 2680 4352 2687 4378 2801  L 4781 4422  z "
                 id="CMMI12-43"
                 transform="scale(0.015625)" />
              <path
                 d="M 979 4416  L 218 4345  L 218 4179  C 595 4179 653 4141 653 3835  L 653 439  C 653 198 627 166 218 166  L 218 0  C 371 12 653 12 813 12  C 979 12 1261 12 1414 0  L 1414 166  C 1005 166 979 191 979 439  L 979 4416  z "
                 id="CMR17-6c"
                 transform="scale(0.015625)" />
              <path
                 d="M 2656 1954  C 2656 2282 2592 2816 1837 2816  C 1331 2816 1069 2424 973 2166  L 966 2166  L 966 2816  L 211 2745  L 211 2578  C 589 2578 646 2540 646 2231  L 646 443  C 646 198 621 166 211 166  L 211 0  C 365 12 646 12 813 12  C 979 12 1267 12 1421 0  L 1421 166  C 1011 166 986 192 986 443  L 986 1678  C 986 2269 1344 2713 1792 2713  C 2266 2713 2317 2289 2317 1980  L 2317 443  C 2317 198 2291 166 1882 166  L 1882 0  C 2035 12 2317 12 2483 12  C 2650 12 2938 12 3091 0  L 3091 166  C 2682 166 2656 192 2656 443  L 2656 1954  z "
                 id="CMR17-6e"
                 transform="scale(0.015625)" />
              <path
                 d="M 2605 4575  C 2637 4658 2637 4671 2637 4684  C 2637 4761 2579 4800 2528 4800  C 2451 4800 2426 4748 2400 4671  L 326 -1376  C 294 -1460 294 -1472 294 -1485  C 294 -1562 352 -1600 403 -1600  C 480 -1600 506 -1549 531 -1472  L 2605 4575  z "
                 id="CMR17-2f"
                 transform="scale(0.015625)" />
            </defs>
            <use
               transform="scale(0.996264)"
               xlink:href="#CMMI12-43"
               id="use85" />
            <use
               transform="translate(69.792037 -14.943915)scale(0.697382)"
               xlink:href="#CMMI12-76"
               id="use86" />
            <use
               transform="translate(135.880585 0)scale(0.996264)"
               xlink:href="#CMR17-6c"
               id="use87" />
            <use
               transform="translate(160.751643 0)scale(0.996264)"
               xlink:href="#CMR17-69"
               id="use88" />
            <use
               transform="translate(185.622701 0)scale(0.996264)"
               xlink:href="#CMR17-6e"
               id="use89" />
            <use
               transform="translate(236.518071 0)scale(0.996264)"
               xlink:href="#CMR17-65"
               id="use90" />
            <use
               transform="translate(277.003732 0)scale(0.996264)"
               xlink:href="#CMR17-61"
               id="use91" />
            <use
               transform="translate(322.694209 0)scale(0.996264)"
               xlink:href="#CMR17-72"
               id="use92" />
            <use
               transform="translate(357.974977 0)scale(0.996264)"
               xlink:href="#CMR17-2f"
               id="use93" />
            <use
               transform="translate(433.74142 0)scale(0.996264)"
               xlink:href="#CMMI12-43"
               id="use94" />
            <use
               transform="translate(503.533457 -14.943915)scale(0.697382)"
               xlink:href="#CMMI12-76"
               id="use95" />
            <use
               transform="translate(569.622005 0)scale(0.996264)"
               xlink:href="#CMR17-6e"
               id="use96" />
            <use
               transform="translate(620.517374 0)scale(0.996264)"
               xlink:href="#CMR17-6f"
               id="use97" />
            <use
               transform="translate(666.207852 0)scale(0.996264)"
               xlink:href="#CMR17-6e"
               id="use98" />
            <use
               transform="translate(717.103221 0)scale(0.996264)"
               xlink:href="#CMR17-2d"
               id="use99" />
            <use
               transform="translate(747.179188 0)scale(0.996264)"
               xlink:href="#CMR17-6c"
               id="use100" />
            <use
               transform="translate(772.050246 0)scale(0.996264)"
               xlink:href="#CMR17-69"
               id="use101" />
            <use
               transform="translate(796.921305 0)scale(0.996264)"
               xlink:href="#CMR17-6e"
               id="use102" />
            <use
               transform="translate(847.816674 0)scale(0.996264)"
               xlink:href="#CMR17-65"
               id="use103" />
            <use
               transform="translate(888.302335 0)scale(0.996264)"
               xlink:href="#CMR17-61"
               id="use104" />
            <use
               transform="translate(933.992812 0)scale(0.996264)"
               xlink:href="#CMR17-72"
               id="use105" />
            <use
               transform="translate(999.349546 0)scale(0.996264)"
               xlink:href="#CMR17-5b"
               id="use106" />
            <use
               transform="translate(1024.220605 0)scale(0.996264)"
               xlink:href="#CMR17-2d"
               id="use107" />
            <use
               transform="translate(1054.296571 0)scale(0.996264)"
               xlink:href="#CMR17-5d"
               id="use108" />
          </g>
        </g>
      </g>
      <g
         id="line2d_29">
        <path
           clip-path="url(#p51c95e6832)"
           d="M 42.054909 207.812245  L 43.686488 207.543413  L 45.318067 207.270866  L 46.949646 206.994518  L 48.581225 206.714277  L 50.212804 206.430049  L 51.844383 206.141739  L 53.475962 205.849246  L 55.107541 205.552466  L 56.73912 205.251292  L 58.370699 204.945612  L 60.002278 204.635311  L 61.633857 204.320269  L 63.265436 204.000363  L 64.897015 203.675463  L 66.528594 203.345436  L 68.160173 203.010143  L 69.791752 202.66944  L 71.423331 202.323176  L 73.054911 201.971197  L 74.68649 201.613338  L 76.318069 201.249432  L 77.949648 200.879302  L 79.581227 200.502766  L 81.212806 200.119631  L 82.844385 199.729698  L 84.475964 199.33276  L 86.107543 198.928598  L 87.739122 198.516985  L 89.370701 198.097684  L 91.00228 197.670446  L 92.633859 197.235011  L 94.265438 196.791106  L 95.897017 196.338446  L 97.528596 195.87673  L 99.160175 195.405643  L 100.791754 194.924856  L 102.423333 194.43402  L 104.054912 193.932769  L 105.686491 193.420719  L 107.318071 192.897462  L 108.94965 192.362572  L 110.581229 191.815596  L 112.212808 191.256055  L 113.844387 190.683445  L 115.475966 190.09723  L 117.107545 189.496843  L 118.739124 188.881683  L 120.370703 188.251109  L 122.002282 187.604442  L 123.633861 186.940959  L 125.26544 186.259887  L 126.897019 185.560403  L 128.528598 184.841626  L 130.160177 184.102614  L 131.791756 183.342356  L 133.423335 182.559769  L 135.054914 181.753686  L 136.686493 180.922849  L 138.318072 180.065905  L 139.949651 179.181386  L 141.581231 178.267707  L 143.21281 177.323143  L 144.844389 176.34582  L 146.475968 175.333695  L 148.107547 174.284535  L 149.739126 173.195892  L 151.370705 172.065078  L 153.002284 170.889131  L 154.633863 169.664778  L 156.265442 168.388388  L 157.897021 167.055922  L 159.5286 165.662869  L 161.160179 164.20417  L 162.791758 162.674128  L 164.423337 161.066295  L 166.054916 159.373341  L 167.686495 157.586882  L 169.318074 155.697272  L 170.949653 153.693342  L 172.581232 151.562065  L 174.212811 149.28812  L 175.84439 146.853336  L 177.47597 144.235936  L 179.107549 141.409536  L 180.739128 138.341754  L 182.370707 134.992269  L 184.002286 131.310018  L 185.633865 127.229047  L 187.265444 122.66216  L 188.897023 117.490774  L 190.528602 111.54794  L 192.160181 104.588106  L 193.79176 96.228916  L 195.423339 85.826944  L 197.054918 72.170412  L 198.686497 52.52569  L 200.318076 18.124393  "
           style="fill:none;stroke:#1f77b4;stroke-linecap:square;stroke-width:1.5;"
           id="path108" />
      </g>
      <g
         id="patch_3">
        <path
           d="M 40.42333 208.112812  L 40.42333 8.64  "
           style="fill:none;stroke:#000000;stroke-linecap:square;stroke-linejoin:miter;stroke-width:0.8;"
           id="path109" />
      </g>
      <g
         id="patch_4">
        <path
           d="M 201.949655 208.112812  L 201.949655 8.64  "
           style="fill:none;stroke:#000000;stroke-linecap:square;stroke-linejoin:miter;stroke-width:0.8;"
           id="path110" />
      </g>
      <g
         id="patch_5">
        <path
           d="M 40.42333 208.112812  L 201.949655 208.112812  "
           style="fill:none;stroke:#000000;stroke-linecap:square;stroke-linejoin:miter;stroke-width:0.8;"
           id="path111" />
      </g>
      <g
         id="patch_6">
        <path
           d="M 40.42333 8.64  L 201.949655 8.64  "
           style="fill:none;stroke:#000000;stroke-linecap:square;stroke-linejoin:miter;stroke-width:0.8;"
           id="path112" />
      </g>
    </g>
  </g>
  <path
     style="fill:#008080;stroke:none;stroke-width:0.75px;stroke-linecap:butt;stroke-linejoin:miter;stroke-opacity:1;fill-opacity:0.53549695"
     d="M 72.728595,202.04159 40.42333,208.11281 H 72.728595 Z"
     id="path113" />
  <defs
     id="defs112">
    <clipPath
       id="p51c95e6832">
      <rect
         height="199.472812"
         width="161.526326"
         x="40.42333"
         y="8.64"
         id="rect112" />
    </clipPath>
  </defs>
  <rect
     style="fill:#ffffff;fill-opacity:1;stroke:none;stroke-width:1.31811;stroke-linecap:square;stroke-miterlimit:4.1"
     id="rect115"
     width="56.517845"
     height="19.504196"
     x="126.98942"
     y="186.80203" />
  <text
     xml:space="preserve"
     style="font-size:9px;line-height:0.95;font-family:'Times New Roman';-inkscape-font-specification:'Times New Roman, ';text-align:center;text-anchor:middle;white-space:pre;inline-size:77.4833;display:inline;stroke-width:0.75"
     x="146.76498"
     y="196.22707"
     id="text113"
     transform="translate(8.509085,-1.785831)"><tspan
       x="146.76498"
       y="196.22707"
       id="tspan1">Allowable according<tspan
   y="196.22707"
   id="tspan2"> </tspan></tspan><tspan
       x="146.76498"
       y="204.77708"
       id="tspan3">to Gorman (1981)</tspan></text>
  <path
     style="fill:#ff0000;stroke:none;stroke-width:0.75px;stroke-linecap:butt;stroke-linejoin:miter;stroke-opacity:1;fill-opacity:0.56490874"
     d="m 64.496831,208.11281 v -4.5242 l -24.073501,4.5242"
     id="path114" />
  <rect
     style="fill:#ffffff;fill-opacity:1;stroke:none;stroke-width:1.31811;stroke-linecap:square;stroke-miterlimit:4.1"
     id="rect114"
     width="87.333916"
     height="19.504196"
     x="45.214272"
     y="159.0257" />
  <text
     xml:space="preserve"
     style="font-size:9px;line-height:0.95;font-family:'Times New Roman';-inkscape-font-specification:'Times New Roman, ';text-align:center;text-anchor:middle;white-space:pre;inline-size:88.9327;display:inline;stroke-width:0.75"
     x="46.703201"
     y="163.88713"
     id="text114"
     transform="translate(43.063898,3.4725339)"><tspan
       x="46.703201"
       y="163.88713"
       id="tspan4">Allowable according to<tspan
   y="163.88713"
   id="tspan5"> </tspan></tspan><tspan
       x="46.703201"
       y="172.43714"
       id="tspan6">ASTM D4186</tspan></text>
  <path
     style="fill:none;stroke:#000000;stroke-width:0.75px;stroke-linecap:butt;stroke-linejoin:miter;stroke-opacity:1"
     d="M 126.98942,196.55413 72.728595,205.0772"
     id="path115" />
  <path
     style="fill:none;stroke:#000000;stroke-width:0.75px;stroke-linecap:butt;stroke-linejoin:miter;stroke-opacity:1"
     d="m 58.607651,178.52989 v 27.92646"
     id="path116" />
</svg>
