<?xml version="1.0" encoding="UTF-8" standalone="no"?>
<!-- Created with Inkscape (http://www.inkscape.org/) -->

<svg
   width="4in"
   height="1.1in"
   viewBox="0 0 101.6 27.939999"
   version="1.1"
   id="svg1"
   inkscape:version="1.3.2 (091e20e, 2023-11-25, custom)"
   sodipodi:docname="ramping_up.svg"
   xmlns:inkscape="http://www.inkscape.org/namespaces/inkscape"
   xmlns:sodipodi="http://sodipodi.sourceforge.net/DTD/sodipodi-0.dtd"
   xmlns="http://www.w3.org/2000/svg"
   xmlns:svg="http://www.w3.org/2000/svg"
   xmlns:ns1="http://www.iki.fi/pav/software/textext/">
  <sodipodi:namedview
     id="namedview1"
     pagecolor="#ffffff"
     bordercolor="#111111"
     borderopacity="1"
     inkscape:showpageshadow="0"
     inkscape:pageopacity="0"
     inkscape:pagecheckerboard="1"
     inkscape:deskcolor="#d1d1d1"
     inkscape:document-units="mm"
     inkscape:zoom="1.3915123"
     inkscape:cx="180.01996"
     inkscape:cy="66.474437"
     inkscape:window-width="1920"
     inkscape:window-height="1015"
     inkscape:window-x="1217"
     inkscape:window-y="1347"
     inkscape:window-maximized="1"
     inkscape:current-layer="layer1" />
  <defs
     id="defs1">
    <marker
       style="overflow:visible"
       id="marker15"
       refX="0"
       refY="0"
       orient="auto"
       inkscape:stockid="Stop"
       markerWidth="1"
       markerHeight="1"
       viewBox="0 0 1 1"
       inkscape:isstock="true"
       inkscape:collect="always"
       preserveAspectRatio="xMidYMid">
      <path
         style="fill:none;stroke:context-stroke;stroke-width:1"
         d="M 0,4 V -4"
         id="path15" />
    </marker>
    <marker
       style="overflow:visible"
       id="Stop"
       refX="0"
       refY="0"
       orient="auto"
       inkscape:stockid="Stop"
       markerWidth="1"
       markerHeight="1"
       viewBox="0 0 1 1"
       inkscape:isstock="true"
       inkscape:collect="always"
       preserveAspectRatio="xMidYMid">
      <path
         style="fill:none;stroke:context-stroke;stroke-width:1"
         d="M 0,4 V -4"
         id="path23" />
    </marker>
    <marker
       style="overflow:visible"
       id="DartArrow"
       refX="0"
       refY="0"
       orient="auto-start-reverse"
       inkscape:stockid="Dart arrow"
       markerWidth="0.75"
       markerHeight="0.75"
       viewBox="0 0 1 1"
       inkscape:isstock="true"
       inkscape:collect="always"
       preserveAspectRatio="xMidYMid">
      <path
         style="fill:context-stroke;fill-rule:evenodd;stroke:none"
         d="M 0,0 5,-5 -12.5,0 5,5 Z"
         transform="scale(-0.5)"
         id="path6" />
    </marker>
  </defs>
  <g
     inkscape:label="Layer 1"
     inkscape:groupmode="layer"
     id="layer1">
    <path
       style="fill:none;stroke:#000000;stroke-width:0.264583px;stroke-linecap:butt;stroke-linejoin:miter;stroke-opacity:1;marker-start:url(#DartArrow);marker-end:url(#DartArrow)"
       d="M 3.0090044,2.5769704 V 26.220726 H 40.307995"
       id="path1"
       sodipodi:nodetypes="ccc" />
    <g
       transform="matrix(0.352778,0,0,0.352778,40.256761,23.127248)"
       ns1:version="1.10.2"
       ns1:texconverter="pdflatex"
       ns1:pdfconverter="inkscape"
       ns1:text="$t$"
       ns1:preamble="C:\Users\zamcr\AppData\Roaming\inkscape\extensions\textext\default_packages.tex"
       ns1:scale="1.0"
       ns1:alignment="middle center"
       ns1:stroke-to-path="0"
       ns1:inkscapeversion="1.3.2"
       id="g1263"
       ns1:jacobian_sqrt="0.352778">
      <defs
         id="id-b6bffa00-b735-4195-af49-ee3b640e7051">
        <g
           id="id-656a9faf-e470-4167-b47e-e0cdc69ef7c2">
          <g
             id="id-90b0a09a-89d8-4cdf-9347-97b16e54ff36">
            <path
               d="m 2.046875,-3.984375 h 0.9375 c 0.203125,0 0.3125,0 0.3125,-0.203125 0,-0.109375 -0.109375,-0.109375 -0.28125,-0.109375 h -0.875 C 2.5,-5.71875 2.546875,-5.90625 2.546875,-5.96875 c 0,-0.171875 -0.125,-0.265625 -0.296875,-0.265625 -0.03125,0 -0.3125,0 -0.390625,0.359375 L 1.46875,-4.296875 h -0.9375 c -0.203125,0 -0.296875,0 -0.296875,0.1875 0,0.125 0.078125,0.125 0.28125,0.125 h 0.875 C 0.671875,-1.15625 0.625,-0.984375 0.625,-0.8125 0.625,-0.265625 1,0.109375 1.546875,0.109375 2.5625,0.109375 3.125,-1.34375 3.125,-1.421875 3.125,-1.53125 3.046875,-1.53125 3.015625,-1.53125 2.921875,-1.53125 2.90625,-1.5 2.859375,-1.390625 2.4375,-0.34375 1.90625,-0.109375 1.5625,-0.109375 c -0.203125,0 -0.3125,-0.125 -0.3125,-0.453125 0,-0.25 0.03125,-0.3125 0.0625,-0.484375 z m 0,0"
               id="id-30ea4895-9692-45d4-b9ca-84695bed3f9b" />
          </g>
        </g>
      </defs>
      <g
         fill="#000000"
         fill-opacity="1"
         id="id-f427ecfc-c5d5-4e82-8dff-44ec97247926"
         transform="translate(-148.946,-128.531)">
        <g
           transform="translate(148.712,134.765)"
           id="g635">
          <path
             d="m 2.046875,-3.984375 h 0.9375 c 0.203125,0 0.3125,0 0.3125,-0.203125 0,-0.109375 -0.109375,-0.109375 -0.28125,-0.109375 h -0.875 C 2.5,-5.71875 2.546875,-5.90625 2.546875,-5.96875 c 0,-0.171875 -0.125,-0.265625 -0.296875,-0.265625 -0.03125,0 -0.3125,0 -0.390625,0.359375 L 1.46875,-4.296875 h -0.9375 c -0.203125,0 -0.296875,0 -0.296875,0.1875 0,0.125 0.078125,0.125 0.28125,0.125 h 0.875 C 0.671875,-1.15625 0.625,-0.984375 0.625,-0.8125 0.625,-0.265625 1,0.109375 1.546875,0.109375 2.5625,0.109375 3.125,-1.34375 3.125,-1.421875 3.125,-1.53125 3.046875,-1.53125 3.015625,-1.53125 2.921875,-1.53125 2.90625,-1.5 2.859375,-1.390625 2.4375,-0.34375 1.90625,-0.109375 1.5625,-0.109375 c -0.203125,0 -0.3125,-0.125 -0.3125,-0.453125 0,-0.25 0.03125,-0.3125 0.0625,-0.484375 z m 0,0"
             id="id-cc943a18-4f2e-4b3d-9ac1-e13e29e42db0" />
        </g>
      </g>
    </g>
    <path
       style="fill:#0000ff;stroke:#0000ff;stroke-width:0.264583px;stroke-linecap:butt;stroke-linejoin:miter;stroke-opacity:1"
       d="M 3.0090044,26.220727 37.57389,4.9915825"
       id="path2" />
    <g
       transform="matrix(0.352778,0,0,0.352778,4.5291777,1.0727821)"
       ns1:version="1.10.2"
       ns1:texconverter="pdflatex"
       ns1:pdfconverter="inkscape"
       ns1:text="$u_{BP}$"
       ns1:preamble="C:\Users\zamcr\AppData\Roaming\inkscape\extensions\textext\default_packages.tex"
       ns1:scale="1.0"
       ns1:alignment="middle center"
       ns1:stroke-to-path="0"
       ns1:inkscapeversion="1.3.2"
       id="g9279"
       ns1:jacobian_sqrt="0.352778"
       style="fill:#0000ff">
      <defs
         id="id-fe91f4fa-5875-4e6c-84c1-93803b1051f4">
        <g
           id="id-15006321-4a6c-4113-953d-e84d2ee7774a">
          <g
             id="id-eb3094e6-82a8-4224-9816-7ff02245065d">
            <path
               d="M 3.484375,-0.5625 C 3.59375,-0.15625 3.953125,0.109375 4.375,0.109375 4.71875,0.109375 4.953125,-0.125 5.109375,-0.4375 5.28125,-0.796875 5.40625,-1.40625 5.40625,-1.421875 c 0,-0.109375 -0.078125,-0.109375 -0.109375,-0.109375 -0.109375,0 -0.109375,0.046875 -0.140625,0.1875 -0.140625,0.5625 -0.328125,1.234375 -0.75,1.234375 -0.203125,0 -0.3125,-0.125 -0.3125,-0.453125 0,-0.21875 0.125,-0.6875 0.203125,-1.046875 L 4.578125,-2.6875 C 4.609375,-2.828125 4.703125,-3.203125 4.75,-3.359375 4.796875,-3.59375 4.890625,-3.96875 4.890625,-4.03125 c 0,-0.171875 -0.140625,-0.265625 -0.28125,-0.265625 -0.046875,0 -0.3125,0.015625 -0.390625,0.34375 -0.1875,0.734375 -0.625,2.484375 -0.75,3 -0.015625,0.046875 -0.40625,0.84375 -1.140625,0.84375 -0.515625,0 -0.609375,-0.453125 -0.609375,-0.8125 0,-0.5625 0.28125,-1.34375 0.53125,-2.03125 0.125,-0.3125 0.171875,-0.453125 0.171875,-0.640625 0,-0.4375 -0.3125,-0.8125 -0.8125,-0.8125 -0.953125,0 -1.3125,1.453125 -1.3125,1.53125 0,0.109375 0.09375,0.109375 0.109375,0.109375 0.109375,0 0.109375,-0.03125 0.15625,-0.1875 0.25,-0.859375 0.640625,-1.234375 1.015625,-1.234375 0.09375,0 0.25,0.015625 0.25,0.328125 0,0.234375 -0.109375,0.53125 -0.171875,0.671875 -0.375,1 -0.578125,1.609375 -0.578125,2.09375 0,0.953125 0.6875,1.203125 1.21875,1.203125 0.65625,0 1.015625,-0.453125 1.1875,-0.671875 z m 0,0"
               id="id-db86882b-be67-4d92-8b31-292f367e4272" />
          </g>
          <g
             id="id-4d3b90d0-77ed-4adf-81c3-99ee11cfbc7e">
            <path
               d="M 1.328125,-0.546875 C 1.265625,-0.3125 1.25,-0.25 0.703125,-0.25 0.59375,-0.25 0.5,-0.25 0.5,-0.109375 0.5,0 0.578125,0 0.703125,0 H 3.40625 c 1.171875,0 2.078125,-0.796875 2.078125,-1.484375 0,-0.5 -0.453125,-0.921875 -1.203125,-1 0.84375,-0.15625 1.546875,-0.6875 1.546875,-1.28125 0,-0.53125 -0.53125,-1 -1.4375,-1 h -2.53125 c -0.140625,0 -0.234375,0 -0.234375,0.15625 0,0.09375 0.09375,0.09375 0.234375,0.09375 0,0 0.140625,0 0.265625,0.015625 0.140625,0.015625 0.15625,0.03125 0.15625,0.109375 0,0 0,0.046875 -0.03125,0.140625 z m 1.109375,-2.03125 0.421875,-1.6875 c 0.0625,-0.21875 0.0625,-0.25 0.359375,-0.25 h 1.0625 c 0.703125,0 0.875,0.46875 0.875,0.734375 0,0.5625 -0.640625,1.203125 -1.578125,1.203125 z M 2.109375,-0.25 C 1.890625,-0.25 1.875,-0.265625 1.875,-0.328125 c 0,0 0,-0.03125 0.03125,-0.140625 L 2.390625,-2.375 H 3.875 c 0.640625,0 0.90625,0.4375 0.90625,0.828125 0,0.703125 -0.71875,1.296875 -1.5625,1.296875 z m 0,0"
               id="id-c4b74399-76af-4c5a-8b80-430f5619fb53" />
          </g>
          <g
             id="id-6333d951-2634-4cad-af27-e9a48fc45356">
            <path
               d="m 2.375,-2.15625 h 1.265625 c 1.171875,0 2.171875,-0.75 2.171875,-1.515625 0,-0.59375 -0.578125,-1.09375 -1.53125,-1.09375 h -2.4375 c -0.140625,0 -0.21875,0 -0.21875,0.15625 0,0.09375 0.078125,0.09375 0.234375,0.09375 0.109375,0 0.140625,0 0.265625,0.015625 0.140625,0.015625 0.140625,0.03125 0.140625,0.109375 0,0 0,0.046875 -0.015625,0.140625 L 1.328125,-0.578125 C 1.25,-0.296875 1.25,-0.25 0.703125,-0.25 0.578125,-0.25 0.5,-0.25 0.5,-0.09375 0.5,-0.09375 0.5,0 0.609375,0 0.8125,0 1.3125,-0.03125 1.515625,-0.03125 1.625,-0.03125 1.875,-0.03125 2,-0.015625 2.125,-0.015625 2.3125,0 2.4375,0 2.484375,0 2.578125,0 2.578125,-0.15625 2.578125,-0.25 2.5,-0.25 2.359375,-0.25 c 0,0 -0.140625,0 -0.265625,-0.015625 C 1.9375,-0.28125 1.9375,-0.296875 1.9375,-0.375 c 0,0 0,-0.046875 0.03125,-0.140625 z m 0.5,-2.109375 c 0.0625,-0.21875 0.0625,-0.25 0.359375,-0.25 h 0.8125 c 0.65625,0 1.046875,0.203125 1.046875,0.703125 0,0.203125 -0.078125,0.765625 -0.421875,1.078125 -0.25,0.21875 -0.65625,0.34375 -1.15625,0.34375 H 2.40625 Z m 0,0"
               id="id-688f5cbf-3747-4f7c-be0d-9ea1b38f96c3" />
          </g>
        </g>
      </defs>
      <g
         fill="#000000"
         fill-opacity="1"
         id="id-36a2f224-a0d6-4f7d-960f-d9f451f940ab"
         transform="translate(-149.009,-130.359)"
         style="fill:#0000ff">
        <g
           transform="translate(148.712,134.765)"
           id="g4115"
           style="fill:#0000ff">
          <path
             d="M 3.484375,-0.5625 C 3.59375,-0.15625 3.953125,0.109375 4.375,0.109375 4.71875,0.109375 4.953125,-0.125 5.109375,-0.4375 5.28125,-0.796875 5.40625,-1.40625 5.40625,-1.421875 c 0,-0.109375 -0.078125,-0.109375 -0.109375,-0.109375 -0.109375,0 -0.109375,0.046875 -0.140625,0.1875 -0.140625,0.5625 -0.328125,1.234375 -0.75,1.234375 -0.203125,0 -0.3125,-0.125 -0.3125,-0.453125 0,-0.21875 0.125,-0.6875 0.203125,-1.046875 L 4.578125,-2.6875 C 4.609375,-2.828125 4.703125,-3.203125 4.75,-3.359375 4.796875,-3.59375 4.890625,-3.96875 4.890625,-4.03125 c 0,-0.171875 -0.140625,-0.265625 -0.28125,-0.265625 -0.046875,0 -0.3125,0.015625 -0.390625,0.34375 -0.1875,0.734375 -0.625,2.484375 -0.75,3 -0.015625,0.046875 -0.40625,0.84375 -1.140625,0.84375 -0.515625,0 -0.609375,-0.453125 -0.609375,-0.8125 0,-0.5625 0.28125,-1.34375 0.53125,-2.03125 0.125,-0.3125 0.171875,-0.453125 0.171875,-0.640625 0,-0.4375 -0.3125,-0.8125 -0.8125,-0.8125 -0.953125,0 -1.3125,1.453125 -1.3125,1.53125 0,0.109375 0.09375,0.109375 0.109375,0.109375 0.109375,0 0.109375,-0.03125 0.15625,-0.1875 0.25,-0.859375 0.640625,-1.234375 1.015625,-1.234375 0.09375,0 0.25,0.015625 0.25,0.328125 0,0.234375 -0.109375,0.53125 -0.171875,0.671875 -0.375,1 -0.578125,1.609375 -0.578125,2.09375 0,0.953125 0.6875,1.203125 1.21875,1.203125 0.65625,0 1.015625,-0.453125 1.1875,-0.671875 z m 0,0"
             id="id-970e6cbd-ca32-4e01-b8e5-a0c396814987"
             style="fill:#0000ff" />
        </g>
      </g>
      <g
         fill="#000000"
         fill-opacity="1"
         id="id-d00b98f2-bba3-4317-85e7-ad6b6858eb91"
         transform="translate(-149.009,-130.359)"
         style="fill:#0000ff">
        <g
           transform="translate(154.415,136.259)"
           id="g2818"
           style="fill:#0000ff">
          <path
             d="M 1.328125,-0.546875 C 1.265625,-0.3125 1.25,-0.25 0.703125,-0.25 0.59375,-0.25 0.5,-0.25 0.5,-0.109375 0.5,0 0.578125,0 0.703125,0 H 3.40625 c 1.171875,0 2.078125,-0.796875 2.078125,-1.484375 0,-0.5 -0.453125,-0.921875 -1.203125,-1 0.84375,-0.15625 1.546875,-0.6875 1.546875,-1.28125 0,-0.53125 -0.53125,-1 -1.4375,-1 h -2.53125 c -0.140625,0 -0.234375,0 -0.234375,0.15625 0,0.09375 0.09375,0.09375 0.234375,0.09375 0,0 0.140625,0 0.265625,0.015625 0.140625,0.015625 0.15625,0.03125 0.15625,0.109375 0,0 0,0.046875 -0.03125,0.140625 z m 1.109375,-2.03125 0.421875,-1.6875 c 0.0625,-0.21875 0.0625,-0.25 0.359375,-0.25 h 1.0625 c 0.703125,0 0.875,0.46875 0.875,0.734375 0,0.5625 -0.640625,1.203125 -1.578125,1.203125 z M 2.109375,-0.25 C 1.890625,-0.25 1.875,-0.265625 1.875,-0.328125 c 0,0 0,-0.03125 0.03125,-0.140625 L 2.390625,-2.375 H 3.875 c 0.640625,0 0.90625,0.4375 0.90625,0.828125 0,0.703125 -0.71875,1.296875 -1.5625,1.296875 z m 0,0"
             id="id-7d49d176-46de-4bd5-9a69-b50f2b96299c"
             style="fill:#0000ff" />
        </g>
      </g>
      <g
         fill="#000000"
         fill-opacity="1"
         id="id-4aae2d48-0e6a-4c98-a86e-0d024359ede1"
         transform="translate(-149.009,-130.359)"
         style="fill:#0000ff">
        <g
           transform="translate(160.776,136.259)"
           id="g1560"
           style="fill:#0000ff">
          <path
             d="m 2.375,-2.15625 h 1.265625 c 1.171875,0 2.171875,-0.75 2.171875,-1.515625 0,-0.59375 -0.578125,-1.09375 -1.53125,-1.09375 h -2.4375 c -0.140625,0 -0.21875,0 -0.21875,0.15625 0,0.09375 0.078125,0.09375 0.234375,0.09375 0.109375,0 0.140625,0 0.265625,0.015625 0.140625,0.015625 0.140625,0.03125 0.140625,0.109375 0,0 0,0.046875 -0.015625,0.140625 L 1.328125,-0.578125 C 1.25,-0.296875 1.25,-0.25 0.703125,-0.25 0.578125,-0.25 0.5,-0.25 0.5,-0.09375 0.5,-0.09375 0.5,0 0.609375,0 0.8125,0 1.3125,-0.03125 1.515625,-0.03125 1.625,-0.03125 1.875,-0.03125 2,-0.015625 2.125,-0.015625 2.3125,0 2.4375,0 2.484375,0 2.578125,0 2.578125,-0.15625 2.578125,-0.25 2.5,-0.25 2.359375,-0.25 c 0,0 -0.140625,0 -0.265625,-0.015625 C 1.9375,-0.28125 1.9375,-0.296875 1.9375,-0.375 c 0,0 0,-0.046875 0.03125,-0.140625 z m 0.5,-2.109375 c 0.0625,-0.21875 0.0625,-0.25 0.359375,-0.25 h 0.8125 c 0.65625,0 1.046875,0.203125 1.046875,0.703125 0,0.203125 -0.078125,0.765625 -0.421875,1.078125 -0.25,0.21875 -0.65625,0.34375 -1.15625,0.34375 H 2.40625 Z m 0,0"
             id="id-1ee97c68-5483-4af5-b023-6ed3564eaea3"
             style="fill:#0000ff" />
        </g>
      </g>
    </g>
    <g
       transform="matrix(0.352778,0,0,0.352778,4.5101276,3.7393822)"
       ns1:version="1.10.2"
       ns1:texconverter="pdflatex"
       ns1:pdfconverter="inkscape"
       ns1:text="$u_{b}$"
       ns1:preamble="C:\Users\zamcr\AppData\Roaming\inkscape\extensions\textext\default_packages.tex"
       ns1:scale="1.0"
       ns1:alignment="middle center"
       ns1:stroke-to-path="0"
       ns1:inkscapeversion="1.3.2"
       id="g13"
       ns1:jacobian_sqrt="0.352778"
       style="fill:#ff0000;stroke-width:0">
      <defs
         id="id-ae3ba862-22eb-4c6f-842e-6b623e9cd6ee"
         style="fill:#0000ff;stroke-width:0">
        <g
           id="id-62034424-6e08-4919-a4ce-ab1016b50dc9"
           style="fill:#0000ff;stroke-width:0">
          <g
             id="id-81a01f9b-310d-429c-8f52-922fbe2da14a"
             style="fill:#0000ff;stroke-width:0">
            <path
               d="M 3.484375,-0.5625 C 3.59375,-0.15625 3.953125,0.109375 4.375,0.109375 4.71875,0.109375 4.953125,-0.125 5.109375,-0.4375 5.28125,-0.796875 5.40625,-1.40625 5.40625,-1.421875 c 0,-0.109375 -0.078125,-0.109375 -0.109375,-0.109375 -0.109375,0 -0.109375,0.046875 -0.140625,0.1875 -0.140625,0.5625 -0.328125,1.234375 -0.75,1.234375 -0.203125,0 -0.3125,-0.125 -0.3125,-0.453125 0,-0.21875 0.125,-0.6875 0.203125,-1.046875 L 4.578125,-2.6875 C 4.609375,-2.828125 4.703125,-3.203125 4.75,-3.359375 4.796875,-3.59375 4.890625,-3.96875 4.890625,-4.03125 c 0,-0.171875 -0.140625,-0.265625 -0.28125,-0.265625 -0.046875,0 -0.3125,0.015625 -0.390625,0.34375 -0.1875,0.734375 -0.625,2.484375 -0.75,3 -0.015625,0.046875 -0.40625,0.84375 -1.140625,0.84375 -0.515625,0 -0.609375,-0.453125 -0.609375,-0.8125 0,-0.5625 0.28125,-1.34375 0.53125,-2.03125 0.125,-0.3125 0.171875,-0.453125 0.171875,-0.640625 0,-0.4375 -0.3125,-0.8125 -0.8125,-0.8125 -0.953125,0 -1.3125,1.453125 -1.3125,1.53125 0,0.109375 0.09375,0.109375 0.109375,0.109375 0.109375,0 0.109375,-0.03125 0.15625,-0.1875 0.25,-0.859375 0.640625,-1.234375 1.015625,-1.234375 0.09375,0 0.25,0.015625 0.25,0.328125 0,0.234375 -0.109375,0.53125 -0.171875,0.671875 -0.375,1 -0.578125,1.609375 -0.578125,2.09375 0,0.953125 0.6875,1.203125 1.21875,1.203125 0.65625,0 1.015625,-0.453125 1.1875,-0.671875 z m 0,0"
               id="id-bcb426f3-6d3c-444d-8367-8bbba65b3bce"
               style="fill:#0000ff;stroke-width:0" />
          </g>
          <g
             id="id-807759e3-8e0f-4338-8905-d3ed2f1e7dcf"
             style="fill:#0000ff;stroke-width:0">
            <path
               d="m 1.84375,-4.625 c 0,-0.015625 0.03125,-0.109375 0.03125,-0.109375 0,-0.046875 -0.03125,-0.109375 -0.125,-0.109375 -0.140625,0 -0.71875,0.0625 -0.890625,0.078125 -0.046875,0 -0.15625,0.015625 -0.15625,0.15625 0,0.09375 0.109375,0.09375 0.1875,0.09375 0.328125,0 0.328125,0.0625 0.328125,0.109375 0,0.046875 -0.0625,0.328125 -0.109375,0.484375 l -0.15625,0.640625 c -0.0625,0.25 -0.4375,1.765625 -0.453125,1.859375 -0.046875,0.171875 -0.046875,0.265625 -0.046875,0.34375 0,0.703125 0.453125,1.140625 1.03125,1.140625 0.875,0 1.796875,-0.9375 1.796875,-1.96875 0,-0.8125 -0.5625,-1.171875 -1.046875,-1.171875 -0.359375,0 -0.671875,0.203125 -0.875,0.390625 z m -0.359375,4.5 c -0.328125,0 -0.53125,-0.296875 -0.53125,-0.71875 0,-0.25 0.0625,-0.484375 0.265625,-1.28125 C 1.25,-2.25 1.25,-2.265625 1.390625,-2.421875 1.65625,-2.71875 1.96875,-2.875 2.21875,-2.875 c 0.265625,0 0.5,0.203125 0.5,0.671875 0,0.28125 -0.140625,1 -0.359375,1.40625 C 2.1875,-0.453125 1.84375,-0.125 1.484375,-0.125 Z m 0,0"
               id="id-b608cdcc-c6b3-4544-80f7-61a1e9068938"
               style="fill:#0000ff;stroke-width:0" />
          </g>
        </g>
      </defs>
      <g
         fill-opacity="1"
         id="id-28fe92a2-3050-4320-806b-cfbb910c6ea6"
         transform="translate(-149.009,-130.359)"
         style="fill:#ff0000;stroke-width:0">
        <g
           transform="translate(148.712,134.765)"
           id="g9384"
           style="fill:#ff0000;stroke-width:0">
          <path
             d="M 3.484375,-0.5625 C 3.59375,-0.15625 3.953125,0.109375 4.375,0.109375 4.71875,0.109375 4.953125,-0.125 5.109375,-0.4375 5.28125,-0.796875 5.40625,-1.40625 5.40625,-1.421875 c 0,-0.109375 -0.078125,-0.109375 -0.109375,-0.109375 -0.109375,0 -0.109375,0.046875 -0.140625,0.1875 -0.140625,0.5625 -0.328125,1.234375 -0.75,1.234375 -0.203125,0 -0.3125,-0.125 -0.3125,-0.453125 0,-0.21875 0.125,-0.6875 0.203125,-1.046875 L 4.578125,-2.6875 C 4.609375,-2.828125 4.703125,-3.203125 4.75,-3.359375 4.796875,-3.59375 4.890625,-3.96875 4.890625,-4.03125 c 0,-0.171875 -0.140625,-0.265625 -0.28125,-0.265625 -0.046875,0 -0.3125,0.015625 -0.390625,0.34375 -0.1875,0.734375 -0.625,2.484375 -0.75,3 -0.015625,0.046875 -0.40625,0.84375 -1.140625,0.84375 -0.515625,0 -0.609375,-0.453125 -0.609375,-0.8125 0,-0.5625 0.28125,-1.34375 0.53125,-2.03125 0.125,-0.3125 0.171875,-0.453125 0.171875,-0.640625 0,-0.4375 -0.3125,-0.8125 -0.8125,-0.8125 -0.953125,0 -1.3125,1.453125 -1.3125,1.53125 0,0.109375 0.09375,0.109375 0.109375,0.109375 0.109375,0 0.109375,-0.03125 0.15625,-0.1875 0.25,-0.859375 0.640625,-1.234375 1.015625,-1.234375 0.09375,0 0.25,0.015625 0.25,0.328125 0,0.234375 -0.109375,0.53125 -0.171875,0.671875 -0.375,1 -0.578125,1.609375 -0.578125,2.09375 0,0.953125 0.6875,1.203125 1.21875,1.203125 0.65625,0 1.015625,-0.453125 1.1875,-0.671875 z m 0,0"
             id="id-88a8b96b-435c-41a0-9137-7bea10da4006"
             style="fill:#ff0000;stroke-width:0" />
        </g>
      </g>
      <g
         fill-opacity="1"
         id="id-7f3c639a-7f0e-4563-a3e0-37efb082ca68"
         transform="translate(-149.009,-130.359)"
         style="fill:#ff0000;stroke-width:0">
        <g
           transform="translate(154.415,136.259)"
           id="g6261"
           style="fill:#ff0000;stroke-width:0">
          <path
             d="m 1.84375,-4.625 c 0,-0.015625 0.03125,-0.109375 0.03125,-0.109375 0,-0.046875 -0.03125,-0.109375 -0.125,-0.109375 -0.140625,0 -0.71875,0.0625 -0.890625,0.078125 -0.046875,0 -0.15625,0.015625 -0.15625,0.15625 0,0.09375 0.109375,0.09375 0.1875,0.09375 0.328125,0 0.328125,0.0625 0.328125,0.109375 0,0.046875 -0.0625,0.328125 -0.109375,0.484375 l -0.15625,0.640625 c -0.0625,0.25 -0.4375,1.765625 -0.453125,1.859375 -0.046875,0.171875 -0.046875,0.265625 -0.046875,0.34375 0,0.703125 0.453125,1.140625 1.03125,1.140625 0.875,0 1.796875,-0.9375 1.796875,-1.96875 0,-0.8125 -0.5625,-1.171875 -1.046875,-1.171875 -0.359375,0 -0.671875,0.203125 -0.875,0.390625 z m -0.359375,4.5 c -0.328125,0 -0.53125,-0.296875 -0.53125,-0.71875 0,-0.25 0.0625,-0.484375 0.265625,-1.28125 C 1.25,-2.25 1.25,-2.265625 1.390625,-2.421875 1.65625,-2.71875 1.96875,-2.875 2.21875,-2.875 c 0.265625,0 0.5,0.203125 0.5,0.671875 0,0.28125 -0.140625,1 -0.359375,1.40625 C 2.1875,-0.453125 1.84375,-0.125 1.484375,-0.125 Z m 0,0"
             id="id-3311c857-1fcc-4640-ae97-53c4a689eb61"
             style="fill:#ff0000;stroke-width:0" />
        </g>
      </g>
    </g>
    <path
       style="fill:none;stroke:#ff0000;stroke-width:0.264583px;stroke-linecap:butt;stroke-linejoin:miter;stroke-opacity:1"
       d="M 6.9317639,26.272018 C 18.830387,16.403544 26.488181,11.955838 37.57389,4.9915825"
       id="path13"
       sodipodi:nodetypes="cc" />
    <text
       xml:space="preserve"
       style="font-size:3.175px;line-height:0.95;font-family:'Times New Roman';-inkscape-font-specification:'Times New Roman, ';text-align:center;text-anchor:middle;white-space:pre;inline-size:24.2565;display:inline;stroke-width:0.264583"
       x="12.033264"
       y="31.730171"
       id="text13"
       transform="translate(13.727509,-10.355206)"><tspan
         x="12.033264"
         y="31.730171"
         id="tspan2">A time lag is<tspan
   y="31.730171"
   id="tspan3"> </tspan></tspan><tspan
         x="12.033264"
         y="34.746422"
         id="tspan4">signal of gas</tspan></text>
    <path
       style="fill:none;stroke:#000000;stroke-width:0.264583px;stroke-linecap:butt;stroke-linejoin:miter;stroke-opacity:1;marker-start:url(#marker15);marker-end:url(#Stop)"
       d="M 9.4342529,22.274452 H 11.892347"
       id="path14" />
    <path
       style="fill:none;stroke:#000000;stroke-width:0.264583px;stroke-linecap:butt;stroke-linejoin:miter;stroke-opacity:1;marker-start:url(#DartArrow);marker-end:url(#DartArrow)"
       d="M 53.562467,4.5593021 V 26.379749 h 41.894709"
       id="path16" />
    <g
       transform="matrix(0.352778,0,0,0.352778,54.385088,1.9182297)"
       ns1:version="1.10.2"
       ns1:texconverter="pdflatex"
       ns1:pdfconverter="inkscape"
       ns1:text="$\\sigma_v$"
       ns1:preamble="C:\Users\zamcr\AppData\Roaming\inkscape\extensions\textext\default_packages.tex"
       ns1:scale="1.0"
       ns1:alignment="middle center"
       ns1:stroke-to-path="0"
       ns1:inkscapeversion="1.3.2"
       id="g2766"
       ns1:jacobian_sqrt="0.352778">
      <defs
         id="id-a1f27793-c4d4-4d2d-b78b-a5a3aa41c949">
        <g
           id="id-ec45db86-1687-4747-b83c-eed5dc722505">
          <g
             id="id-60696822-cc86-48b1-aee7-4bfbe7804713">
            <path
               d="m 5.15625,-3.71875 c 0.140625,0 0.5,0 0.5,-0.34375 0,-0.234375 -0.21875,-0.234375 -0.390625,-0.234375 h -2.28125 c -1.5,0 -2.609375,1.640625 -2.609375,2.828125 0,0.875 0.59375,1.578125 1.5,1.578125 1.171875,0 2.5,-1.203125 2.5,-2.734375 0,-0.171875 0,-0.65625 -0.3125,-1.09375 z M 1.890625,-0.109375 C 1.390625,-0.109375 1,-0.46875 1,-1.1875 c 0,-0.296875 0.109375,-1.109375 0.46875,-1.703125 0.421875,-0.6875 1.015625,-0.828125 1.359375,-0.828125 0.828125,0 0.90625,0.65625 0.90625,0.96875 0,0.46875 -0.203125,1.28125 -0.53125,1.796875 -0.390625,0.578125 -0.9375,0.84375 -1.3125,0.84375 z m 0,0"
               id="id-0714a8f7-f70d-4148-a14d-7061cdb565f9" />
          </g>
          <g
             id="id-f488e1fa-3fe1-43f4-9119-e5ef25211237">
            <path
               d="m 3.71875,-2.53125 c 0,-0.546875 -0.328125,-0.546875 -0.34375,-0.546875 -0.1875,0 -0.375,0.1875 -0.375,0.375 0,0.109375 0.0625,0.171875 0.109375,0.203125 0.125,0.109375 0.265625,0.28125 0.265625,0.5625 0,0.3125 -0.46875,1.8125 -1.296875,1.8125 -0.5625,0 -0.5625,-0.5 -0.5625,-0.625 0,-0.3125 0.125,-0.703125 0.390625,-1.359375 C 1.953125,-2.25 2,-2.359375 2,-2.46875 2,-2.84375 1.6875,-3.078125 1.34375,-3.078125 0.640625,-3.078125 0.328125,-2.125 0.328125,-2 c 0,0.078125 0.09375,0.078125 0.125,0.078125 0.09375,0 0.09375,-0.03125 0.125,-0.109375 C 0.734375,-2.59375 1.03125,-2.875 1.3125,-2.875 c 0.125,0 0.171875,0.078125 0.171875,0.234375 0,0.171875 -0.046875,0.3125 -0.125,0.46875 -0.296875,0.78125 -0.375,1.078125 -0.375,1.328125 0,0.6875 0.546875,0.90625 1.078125,0.90625 1.171875,0 1.65625,-2.015625 1.65625,-2.59375 z m 0,0"
               id="id-9b6405dc-55b1-4893-8adf-1c4a593163e4" />
          </g>
        </g>
      </defs>
      <g
         fill="#000000"
         fill-opacity="1"
         id="id-5e3b6255-8ed7-4692-a4b2-05a45ecc9fac"
         transform="translate(-149.087,-130.468)">
        <g
           transform="translate(148.712,134.765)"
           id="g8753">
          <path
             d="m 5.15625,-3.71875 c 0.140625,0 0.5,0 0.5,-0.34375 0,-0.234375 -0.21875,-0.234375 -0.390625,-0.234375 h -2.28125 c -1.5,0 -2.609375,1.640625 -2.609375,2.828125 0,0.875 0.59375,1.578125 1.5,1.578125 1.171875,0 2.5,-1.203125 2.5,-2.734375 0,-0.171875 0,-0.65625 -0.3125,-1.09375 z M 1.890625,-0.109375 C 1.390625,-0.109375 1,-0.46875 1,-1.1875 c 0,-0.296875 0.109375,-1.109375 0.46875,-1.703125 0.421875,-0.6875 1.015625,-0.828125 1.359375,-0.828125 0.828125,0 0.90625,0.65625 0.90625,0.96875 0,0.46875 -0.203125,1.28125 -0.53125,1.796875 -0.390625,0.578125 -0.9375,0.84375 -1.3125,0.84375 z m 0,0"
             id="id-59162e1e-6ea2-4ada-b700-5928695dfbd8" />
        </g>
      </g>
      <g
         fill="#000000"
         fill-opacity="1"
         id="id-62ee2e42-382e-486f-b0d5-e34e0714f920"
         transform="translate(-149.087,-130.468)">
        <g
           transform="translate(154.405,136.259)"
           id="g2870">
          <path
             d="m 3.71875,-2.53125 c 0,-0.546875 -0.328125,-0.546875 -0.34375,-0.546875 -0.1875,0 -0.375,0.1875 -0.375,0.375 0,0.109375 0.0625,0.171875 0.109375,0.203125 0.125,0.109375 0.265625,0.28125 0.265625,0.5625 0,0.3125 -0.46875,1.8125 -1.296875,1.8125 -0.5625,0 -0.5625,-0.5 -0.5625,-0.625 0,-0.3125 0.125,-0.703125 0.390625,-1.359375 C 1.953125,-2.25 2,-2.359375 2,-2.46875 2,-2.84375 1.6875,-3.078125 1.34375,-3.078125 0.640625,-3.078125 0.328125,-2.125 0.328125,-2 c 0,0.078125 0.09375,0.078125 0.125,0.078125 0.09375,0 0.09375,-0.03125 0.125,-0.109375 C 0.734375,-2.59375 1.03125,-2.875 1.3125,-2.875 c 0.125,0 0.171875,0.078125 0.171875,0.234375 0,0.171875 -0.046875,0.3125 -0.125,0.46875 -0.296875,0.78125 -0.375,1.078125 -0.375,1.328125 0,0.6875 0.546875,0.90625 1.078125,0.90625 1.171875,0 1.65625,-2.015625 1.65625,-2.59375 z m 0,0"
             id="id-aa4d1e8a-9a62-402f-aa19-8cc749869d90" />
        </g>
      </g>
    </g>
    <g
       transform="matrix(0.352778,0,0,0.352778,95.367699,22.781617)"
       ns1:version="1.10.2"
       ns1:texconverter="pdflatex"
       ns1:pdfconverter="inkscape"
       ns1:text="$t$"
       ns1:preamble="C:\Users\zamcr\AppData\Roaming\inkscape\extensions\textext\default_packages.tex"
       ns1:scale="1.0"
       ns1:alignment="middle center"
       ns1:stroke-to-path="0"
       ns1:inkscapeversion="1.3.2"
       id="g21"
       ns1:jacobian_sqrt="0.352778">
      <defs
         id="defs18">
        <g
           id="g18">
          <g
             id="g17">
            <path
               d="m 2.046875,-3.984375 h 0.9375 c 0.203125,0 0.3125,0 0.3125,-0.203125 0,-0.109375 -0.109375,-0.109375 -0.28125,-0.109375 h -0.875 C 2.5,-5.71875 2.546875,-5.90625 2.546875,-5.96875 c 0,-0.171875 -0.125,-0.265625 -0.296875,-0.265625 -0.03125,0 -0.3125,0 -0.390625,0.359375 L 1.46875,-4.296875 h -0.9375 c -0.203125,0 -0.296875,0 -0.296875,0.1875 0,0.125 0.078125,0.125 0.28125,0.125 h 0.875 C 0.671875,-1.15625 0.625,-0.984375 0.625,-0.8125 0.625,-0.265625 1,0.109375 1.546875,0.109375 2.5625,0.109375 3.125,-1.34375 3.125,-1.421875 3.125,-1.53125 3.046875,-1.53125 3.015625,-1.53125 2.921875,-1.53125 2.90625,-1.5 2.859375,-1.390625 2.4375,-0.34375 1.90625,-0.109375 1.5625,-0.109375 c -0.203125,0 -0.3125,-0.125 -0.3125,-0.453125 0,-0.25 0.03125,-0.3125 0.0625,-0.484375 z m 0,0"
               id="path17" />
          </g>
        </g>
      </defs>
      <g
         fill="#000000"
         fill-opacity="1"
         id="g20"
         transform="translate(-148.946,-128.531)">
        <g
           transform="translate(148.712,134.765)"
           id="g19">
          <path
             d="m 2.046875,-3.984375 h 0.9375 c 0.203125,0 0.3125,0 0.3125,-0.203125 0,-0.109375 -0.109375,-0.109375 -0.28125,-0.109375 h -0.875 C 2.5,-5.71875 2.546875,-5.90625 2.546875,-5.96875 c 0,-0.171875 -0.125,-0.265625 -0.296875,-0.265625 -0.03125,0 -0.3125,0 -0.390625,0.359375 L 1.46875,-4.296875 h -0.9375 c -0.203125,0 -0.296875,0 -0.296875,0.1875 0,0.125 0.078125,0.125 0.28125,0.125 h 0.875 C 0.671875,-1.15625 0.625,-0.984375 0.625,-0.8125 0.625,-0.265625 1,0.109375 1.546875,0.109375 2.5625,0.109375 3.125,-1.34375 3.125,-1.421875 3.125,-1.53125 3.046875,-1.53125 3.015625,-1.53125 2.921875,-1.53125 2.90625,-1.5 2.859375,-1.390625 2.4375,-0.34375 1.90625,-0.109375 1.5625,-0.109375 c -0.203125,0 -0.3125,-0.125 -0.3125,-0.453125 0,-0.25 0.03125,-0.3125 0.0625,-0.484375 z m 0,0"
             id="path18" />
        </g>
      </g>
    </g>
    <path
       style="fill:none;stroke:#008000;stroke-width:0.264583px;stroke-linecap:butt;stroke-linejoin:miter;stroke-opacity:1"
       d="M 53.45237,10.470268 H 95.107898"
       id="path21" />
    <path
       style="fill:none;stroke:#ff0000;stroke-width:0.264583px;stroke-linecap:butt;stroke-linejoin:miter;stroke-opacity:1"
       d="m 53.562467,10.470268 c 14.105125,0.114097 30.940778,7.480111 39.401503,9.751675"
       id="path22"
       sodipodi:nodetypes="cc" />
    <text
       xml:space="preserve"
       style="font-size:3.175px;line-height:0.95;font-family:'Times New Roman';-inkscape-font-specification:'Times New Roman, ';text-align:center;text-anchor:middle;fill:#008000;stroke-width:0.264583"
       x="80.796951"
       y="7.5140824"
       id="text22"><tspan
         sodipodi:role="line"
         id="tspan22"
         style="font-size:3.175px;fill:#008000;stroke-width:0.264583"
         x="80.796951"
         y="7.5140824">Ideal case</tspan></text>
    <text
       xml:space="preserve"
       style="font-size:3.175px;line-height:0.95;font-family:'Times New Roman';-inkscape-font-specification:'Times New Roman, ';text-align:center;text-anchor:middle;white-space:pre;inline-size:36.3363;display:inline;fill:#ff0000;stroke-width:0.264583"
       x="70.909622"
       y="-6.7940149"
       id="text23"
       transform="translate(-3.4225352,27.665493)"><tspan
         x="70.909622"
         y="-6.7940149"
         id="tspan5">Reduce rate of back<tspan
   y="-6.7940149"
   id="tspan6"> </tspan></tspan><tspan
         x="70.909622"
         y="-3.7777648"
         id="tspan7">pressure</tspan></text>
    <path
       style="fill:none;stroke:#000000;stroke-width:0.264583px;stroke-linecap:butt;stroke-linejoin:miter;stroke-opacity:1"
       d="m 79.478912,8.376706 1.918102,2.028138"
       id="path24" />
    <path
       style="fill:none;stroke:#000000;stroke-width:0.264583px;stroke-linecap:butt;stroke-linejoin:miter;stroke-opacity:1"
       d="m 78.839544,18.451977 3.125798,-1.57017"
       id="path25" />
    <text
       xml:space="preserve"
       style="font-size:2.11667px;line-height:0.95;font-family:'Times New Roman';-inkscape-font-specification:'Times New Roman, ';text-align:center;text-anchor:middle;white-space:pre;inline-size:10.015;display:inline;stroke-width:0.264583"
       x="43.161972"
       y="16.257042"
       id="text26"
       transform="translate(6.1257629,-5.8943662)"><tspan
         x="43.161972"
         y="16.257042"
         id="tspan8">Seating<tspan
   y="16.257042"
   id="tspan9"> </tspan></tspan><tspan
         x="43.161972"
         y="18.267877"
         id="tspan10">stress</tspan></text>
  </g>
</svg>
