<?xml version="1.0" encoding="UTF-8" standalone="no"?>
<!-- Created with Inkscape (http://www.inkscape.org/) -->

<svg
   width="40"
   height="50"
   viewBox="0 0 10.583333 13.229167"
   version="1.1"
   id="svg5"
   inkscape:version="1.1.1 (3bf5ae0d25, 2021-09-20)"
   sodipodi:docname="Compass.svg"
   inkscape:export-filename="C:\Users\zamcr\OneDrive - University of Maine System\UMaine_docs\Courses\Advance Soil Laboratory\Slides\CIE-598_Experimental_soil_mechanics\Introduction\plugin\chalkboard\img\Ruler.png"
   inkscape:export-xdpi="96"
   inkscape:export-ydpi="96"
   xmlns:inkscape="http://www.inkscape.org/namespaces/inkscape"
   xmlns:sodipodi="http://sodipodi.sourceforge.net/DTD/sodipodi-0.dtd"
   xmlns="http://www.w3.org/2000/svg"
   xmlns:svg="http://www.w3.org/2000/svg">
  <sodipodi:namedview
     id="namedview7"
     pagecolor="#505050"
     bordercolor="#ffffff"
     borderopacity="1"
     inkscape:pageshadow="0"
     inkscape:pageopacity="0"
     inkscape:pagecheckerboard="1"
     inkscape:document-units="mm"
     showgrid="false"
     units="px"
     inkscape:snap-page="true"
     inkscape:snap-grids="false"
     inkscape:snap-to-guides="false"
     inkscape:snap-bbox="true"
     inkscape:zoom="4.5896745"
     inkscape:cx="-4.4665477"
     inkscape:cy="17.103609"
     inkscape:window-width="1536"
     inkscape:window-height="807"
     inkscape:window-x="-8"
     inkscape:window-y="-8"
     inkscape:window-maximized="1"
     inkscape:current-layer="layer1"
     inkscape:snap-intersection-paths="true"
     inkscape:snap-global="false" />
  <defs
     id="defs2" />
  <g
     inkscape:label="Layer 1"
     inkscape:groupmode="layer"
     id="layer1">
    <path
       style="fill:#00ffff;stroke:#000000;stroke-width:0.25;stroke-miterlimit:4;stroke-dasharray:none"
       d="m 0.29300572,1.4782147 c 0.006628,0.032491 0.43720525,1.015158 0.95692828,2.1836865 0.519723,1.1685285 1.1513347,2.5940892 1.4035796,3.1679136 0.252245,0.5738232 0.4610823,1.046935 0.4640833,1.05136 0.00302,0.00441 0.051766,-0.038075 0.1083796,-0.094456 0.056614,-0.056369 0.1563404,-0.1436862 0.2216298,-0.1940368 0.125401,-0.096708 0.4305904,-0.2651625 0.4807629,-0.2653621 0.016313,-7.32e-5 0.029673,-0.011492 0.029673,-0.025341 0,-0.013872 -0.2991408,-0.7016887 -0.6647581,-1.5284882 -0.3656182,-0.8267979 -0.664759,-1.5087701 -0.664759,-1.5154936 0,-0.00673 0.245723,-0.012223 0.5460522,-0.012223 h 0.546051 V 3.8215139 3.3972541 L 2.9803243,3.3908696 2.2400203,3.3844851 1.736935,2.231984 1.2338509,1.0794825 C 0.92939713,1.0508011 0.62494337,0.8364984 0.3204896,0.42351035 -0.12279363,-0.31592199 0.69822155,1.1467973 0.29300572,1.4782147 Z M 8.359417,0.69729542 7.9648613,1.0794395 7.4619935,2.2319411 6.9591268,3.3844433 l -0.7408203,0.00638 -0.7408203,0.00638 v 0.424261 0.4242598 h 0.5460522 c 0.3003292,0 0.5460511,0.00511 0.5460511,0.011376 0,0.00627 -0.2991408,0.6888105 -0.6647593,1.5167256 -0.3656161,0.8279162 -0.6647569,1.5160953 -0.6647569,1.5292891 0,0.013199 0.012104,0.023994 0.026906,0.023994 0.048149,0 0.3617954,0.1724153 0.4835302,0.2658056 0.065288,0.050089 0.1643739,0.1378844 0.2201892,0.195107 0.055823,0.057217 0.1047634,0.099761 0.1087633,0.094526 C 6.083412,7.8773274 6.3678578,7.234304 6.7114469,6.4536366 7.0550383,5.6729681 7.6726459,4.2808692 8.0839092,3.3600817 8.4951735,2.4392941 8.8501041,1.6367878 8.8726462,1.5767363 c 0.031999,-0.085227 0.04444,-0.22478 0.05673,-0.63619878 0.015185,-0.5084169 0.014046,-0.52874981 -0.032441,-0.57624939 -0.026511,-0.0270819 -0.069509,-0.049242 -0.095578,-0.049242 -0.028662,0 -0.2033678,0.15106557 -0.4419505,0.3821441 z M 4.2949236,2.863406 C 4.1547337,2.950758 4.1479688,2.9957661 4.1479688,3.8410749 c 0,0.7512777 7e-4,0.7625864 0.053893,0.843925 0.087171,0.1333619 0.1853987,0.170897 0.4251708,0.1624718 0.23301,-0.00824 0.3094245,-0.046433 0.3815275,-0.1909374 0.036859,-0.073886 0.041522,-0.1670361 0.041545,-0.8316877 C 5.0501527,2.9952774 5.0431285,2.9506033 4.8977237,2.8600094 4.7890186,2.792264 4.405638,2.7944231 4.2949236,2.8634919 Z M 4.2018226,7.6881282 C 3.655975,7.8521311 3.2550532,8.2714899 3.1169411,8.8228966 c -0.047893,0.191216 -0.047963,0.553488 -1.395e-4,0.7451556 0.070055,0.2807952 0.1924437,0.4941518 0.4132783,0.7204528 0.3145495,0.322339 0.6341511,0.459812 1.0689716,0.459812 0.4333926,0 0.7522303,-0.136965 1.0709389,-0.460051 C 5.8938539,10.061329 6.0078135,9.8604354 6.0834431,9.5594226 6.1427897,9.3231773 6.1236276,8.9247306 6.0415959,8.6899607 5.8792789,8.2254031 5.5322469,7.8749041 5.073882,7.7125785 4.8590496,7.6364984 4.4150969,7.6240544 4.2018272,7.6881317 Z M 3.9817729,11.78545 c 0,0.690104 9.395e-4,0.704112 0.053893,0.785083 0.09388,0.14362 0.1735956,0.167291 0.5633853,0.167291 0.3897896,0 0.469504,-0.02367 0.5633841,-0.167291 0.052928,-0.08097 0.053893,-0.09498 0.053893,-0.785083 0,-0.659365 -0.00244,-0.701612 -0.041545,-0.685945 -0.1001124,0.04023 -0.4051146,0.08555 -0.575729,0.08555 -0.170612,0 -0.475613,-0.04532 -0.5757278,-0.08555 -0.038987,-0.01567 -0.041545,0.02658 -0.041545,0.685945 z"
       id="path2655"
       sodipodi:nodetypes="cssccscscsscccccccccccccccccsscsscccsscccscccsccccccccsccssccsccccssscsccc" />
  </g>
</svg>
