<?xml version="1.0" encoding="UTF-8" standalone="no"?>
<!-- Created with Inkscape (http://www.inkscape.org/) -->

<svg
   width="2in"
   height="1.4in"
   viewBox="0 0 50.800001 35.56"
   version="1.1"
   id="svg1"
   inkscape:version="1.4 (86a8ad7, 2024-10-11)"
   sodipodi:docname="bearing_capacity.svg"
   xmlns:inkscape="http://www.inkscape.org/namespaces/inkscape"
   xmlns:sodipodi="http://sodipodi.sourceforge.net/DTD/sodipodi-0.dtd"
   xmlns="http://www.w3.org/2000/svg"
   xmlns:svg="http://www.w3.org/2000/svg"
   xmlns:ns3="http://www.iki.fi/pav/software/textext/">
  <sodipodi:namedview
     id="namedview1"
     pagecolor="#ffffff"
     bordercolor="#111111"
     borderopacity="1"
     inkscape:showpageshadow="0"
     inkscape:pageopacity="0"
     inkscape:pagecheckerboard="1"
     inkscape:deskcolor="#d1d1d1"
     inkscape:document-units="mm"
     inkscape:zoom="2.2485129"
     inkscape:cx="75.383156"
     inkscape:cy="59.817313"
     inkscape:window-width="1536"
     inkscape:window-height="804"
     inkscape:window-x="880"
     inkscape:window-y="1072"
     inkscape:window-maximized="1"
     inkscape:current-layer="layer1" />
  <defs
     id="defs1">
    <marker
       style="overflow:visible"
       id="marker52"
       refX="0"
       refY="0"
       orient="auto-start-reverse"
       inkscape:stockid="Dart arrow"
       markerWidth="1"
       markerHeight="1"
       viewBox="0 0 1 1"
       inkscape:isstock="true"
       inkscape:collect="always"
       preserveAspectRatio="xMidYMid">
      <path
         style="fill:context-stroke;fill-rule:evenodd;stroke:none"
         d="M 0,0 5,-5 -12.5,0 5,5 Z"
         transform="scale(-0.5)"
         id="path6" />
    </marker>
    <marker
       style="overflow:visible"
       id="DartArrow"
       refX="0"
       refY="0"
       orient="auto-start-reverse"
       inkscape:stockid="Dart arrow"
       markerWidth="1"
       markerHeight="1"
       viewBox="0 0 1 1"
       inkscape:isstock="true"
       inkscape:collect="always"
       preserveAspectRatio="xMidYMid">
      <path
         style="fill:context-stroke;fill-rule:evenodd;stroke:none"
         d="M 0,0 5,-5 -12.5,0 5,5 Z"
         transform="scale(-0.5)"
         id="path10" />
    </marker>
    <inkscape:path-effect
       effect="fill_between_many"
       method="originald"
       linkedpaths="#path1,0,1|#path2,0,1|"
       id="path-effect2" />
  </defs>
  <g
     inkscape:label="Layer 1"
     inkscape:groupmode="layer"
     id="layer1">
    <path
       inkscape:original-d="M 0,0"
       inkscape:path-effect="#path-effect2"
       d="m 0,11.648772 h 50.799999 v 23.778936 h -50.799999 z"
       id="path3"
       style="fill:#ffccaa" />
    <path
       style="fill:none;stroke:#000000;stroke-width:0.264583px;stroke-linecap:butt;stroke-linejoin:miter;stroke-opacity:1"
       d="m 0,11.648772 h 50.799999"
       id="path1" />
    <path
       style="fill:none;stroke:#000000;stroke-width:0.264583px;stroke-linecap:butt;stroke-linejoin:miter;stroke-opacity:1"
       d="m 0,35.427708 h 50.799999"
       id="path2" />
    <path
       d="m 24.917969,4.7070312 v 22.4746098 l 0.482422,0.800853 0.482421,-0.800853 v -22.4746098 z"
       id="path4"
       style="fill:#808080"
       sodipodi:nodetypes="cccccc" />
    <path
       style="fill:none;stroke:#ff0000;stroke-width:0.165;stroke-linecap:butt;stroke-linejoin:miter;stroke-dasharray:0.66, 0.165;stroke-dashoffset:0;stroke-opacity:1"
       d="m 24.917969,27.181641 c 0,6.175014 8.072709,6.306522 8.072709,-10e-7"
       id="path5"
       sodipodi:nodetypes="cc" />
    <path
       style="fill:none;stroke:#000000;stroke-width:0.165;stroke-linecap:butt;stroke-linejoin:miter;stroke-opacity:1;stroke-dasharray:0.33000001,0.16500001;stroke-dashoffset:0"
       d="m 25.882812,27.18164 h 24.917187"
       id="path7" />
    <path
       style="fill:none;stroke:#000000;stroke-width:0.165;stroke-linecap:butt;stroke-linejoin:miter;stroke-dasharray:0.33, 0.165;stroke-dashoffset:0;stroke-opacity:1"
       d="m 24.917969,27.18164 h -24.917187"
       id="path8" />
    <path
       style="fill:none;stroke:#000000;stroke-width:0.165;stroke-linecap:butt;stroke-linejoin:miter;stroke-dasharray:none;stroke-opacity:1;marker-end:url(#DartArrow)"
       d="m 25.882812,24.09752 v 1.97037"
       id="path9" />
    <path
       style="fill:none;stroke:#000000;stroke-width:0.165;stroke-linecap:butt;stroke-linejoin:miter;stroke-dasharray:none;stroke-opacity:1;marker-end:url(#DartArrow)"
       d="m 27.244183,24.09752 v 1.97037"
       id="path12" />
    <path
       style="fill:none;stroke:#000000;stroke-width:0.165;stroke-linecap:butt;stroke-linejoin:miter;stroke-dasharray:none;stroke-opacity:1;marker-end:url(#DartArrow)"
       d="m 28.605555,24.09752 v 1.97037"
       id="path13" />
    <path
       style="fill:none;stroke:#000000;stroke-width:0.165;stroke-linecap:butt;stroke-linejoin:miter;stroke-dasharray:none;stroke-opacity:1;marker-end:url(#DartArrow)"
       d="m 29.966926,24.09752 v 1.97037"
       id="path14" />
    <path
       style="fill:none;stroke:#000000;stroke-width:0.165;stroke-linecap:butt;stroke-linejoin:miter;stroke-dasharray:none;stroke-opacity:1;marker-end:url(#DartArrow)"
       d="m 31.328298,24.09752 v 1.97037"
       id="path15" />
    <path
       style="fill:none;stroke:#000000;stroke-width:0.165;stroke-linecap:butt;stroke-linejoin:miter;stroke-dasharray:none;stroke-opacity:1;marker-end:url(#DartArrow)"
       d="m 32.68967,24.09752 v 1.97037"
       id="path16" />
    <path
       style="fill:none;stroke:#000000;stroke-width:0.165;stroke-linecap:butt;stroke-linejoin:miter;stroke-dasharray:none;stroke-opacity:1;marker-end:url(#DartArrow)"
       d="m 34.051041,24.09752 v 1.97037"
       id="path17" />
    <path
       style="fill:none;stroke:#000000;stroke-width:0.165;stroke-linecap:butt;stroke-linejoin:miter;stroke-dasharray:none;stroke-opacity:1;marker-end:url(#DartArrow)"
       d="m 35.412412,24.09752 v 1.97037"
       id="path18" />
    <path
       style="fill:none;stroke:#000000;stroke-width:0.165;stroke-linecap:butt;stroke-linejoin:miter;stroke-dasharray:none;stroke-opacity:1;marker-end:url(#DartArrow)"
       d="m 36.773784,24.09752 v 1.97037"
       id="path19" />
    <path
       style="fill:none;stroke:#000000;stroke-width:0.165;stroke-linecap:butt;stroke-linejoin:miter;stroke-dasharray:none;stroke-opacity:1;marker-end:url(#DartArrow)"
       d="m 38.135156,24.09752 v 1.97037"
       id="path20" />
    <path
       style="fill:none;stroke:#000000;stroke-width:0.165;stroke-linecap:butt;stroke-linejoin:miter;stroke-dasharray:none;stroke-opacity:1;marker-end:url(#DartArrow)"
       d="m 39.496527,24.09752 v 1.97037"
       id="path21" />
    <path
       style="fill:none;stroke:#000000;stroke-width:0.165;stroke-linecap:butt;stroke-linejoin:miter;stroke-dasharray:none;stroke-opacity:1;marker-end:url(#DartArrow)"
       d="m 40.857899,24.09752 v 1.97037"
       id="path22" />
    <path
       style="fill:none;stroke:#000000;stroke-width:0.165;stroke-linecap:butt;stroke-linejoin:miter;stroke-dasharray:none;stroke-opacity:1;marker-end:url(#DartArrow)"
       d="m 42.21927,24.09752 v 1.97037"
       id="path23" />
    <path
       style="fill:none;stroke:#000000;stroke-width:0.165;stroke-linecap:butt;stroke-linejoin:miter;stroke-dasharray:none;stroke-opacity:1;marker-end:url(#DartArrow)"
       d="m 43.580642,24.09752 v 1.97037"
       id="path24" />
    <path
       style="fill:none;stroke:#000000;stroke-width:0.165;stroke-linecap:butt;stroke-linejoin:miter;stroke-dasharray:none;stroke-opacity:1;marker-end:url(#DartArrow)"
       d="m 44.942013,24.09752 v 1.97037"
       id="path25" />
    <path
       style="fill:none;stroke:#000000;stroke-width:0.165;stroke-linecap:butt;stroke-linejoin:miter;stroke-dasharray:none;stroke-opacity:1;marker-end:url(#DartArrow)"
       d="m 46.303385,24.09752 v 1.97037"
       id="path26" />
    <path
       style="fill:none;stroke:#000000;stroke-width:0.165;stroke-linecap:butt;stroke-linejoin:miter;stroke-dasharray:none;stroke-opacity:1;marker-end:url(#DartArrow)"
       d="m 47.664756,24.09752 v 1.97037"
       id="path27" />
    <path
       style="fill:none;stroke:#000000;stroke-width:0.165;stroke-linecap:butt;stroke-linejoin:miter;stroke-dasharray:none;stroke-opacity:1;marker-end:url(#DartArrow)"
       d="m 49.026127,24.09752 v 1.97037"
       id="path28" />
    <path
       style="fill:none;stroke:#000000;stroke-width:0.165;stroke-linecap:butt;stroke-linejoin:miter;stroke-dasharray:none;stroke-opacity:1;marker-end:url(#DartArrow)"
       d="m 50.387499,24.09752 v 1.97037"
       id="path11" />
    <path
       style="fill:none;stroke:#000000;stroke-width:0.165;stroke-linecap:butt;stroke-linejoin:miter;stroke-dasharray:none;stroke-opacity:1;marker-end:url(#DartArrow)"
       d="m 0.41328193,24.09752 v 1.97037"
       id="path29" />
    <path
       style="fill:none;stroke:#000000;stroke-width:0.165;stroke-linecap:butt;stroke-linejoin:miter;stroke-dasharray:none;stroke-opacity:1;marker-end:url(#DartArrow)"
       d="m 1.7746529,24.09752 v 1.97037"
       id="path30" />
    <path
       style="fill:none;stroke:#000000;stroke-width:0.165;stroke-linecap:butt;stroke-linejoin:miter;stroke-dasharray:none;stroke-opacity:1;marker-end:url(#DartArrow)"
       d="m 3.1360249,24.09752 v 1.97037"
       id="path31" />
    <path
       style="fill:none;stroke:#000000;stroke-width:0.165;stroke-linecap:butt;stroke-linejoin:miter;stroke-dasharray:none;stroke-opacity:1;marker-end:url(#DartArrow)"
       d="m 4.4973959,24.09752 v 1.97037"
       id="path32" />
    <path
       style="fill:none;stroke:#000000;stroke-width:0.165;stroke-linecap:butt;stroke-linejoin:miter;stroke-dasharray:none;stroke-opacity:1;marker-end:url(#DartArrow)"
       d="m 5.8587679,24.09752 v 1.97037"
       id="path33" />
    <path
       style="fill:none;stroke:#000000;stroke-width:0.165;stroke-linecap:butt;stroke-linejoin:miter;stroke-dasharray:none;stroke-opacity:1;marker-end:url(#DartArrow)"
       d="m 7.2201399,24.09752 v 1.97037"
       id="path34" />
    <path
       style="fill:none;stroke:#000000;stroke-width:0.165;stroke-linecap:butt;stroke-linejoin:miter;stroke-dasharray:none;stroke-opacity:1;marker-end:url(#DartArrow)"
       d="m 8.5815109,24.09752 v 1.97037"
       id="path35" />
    <path
       style="fill:none;stroke:#000000;stroke-width:0.165;stroke-linecap:butt;stroke-linejoin:miter;stroke-dasharray:none;stroke-opacity:1;marker-end:url(#DartArrow)"
       d="m 9.942882,24.09752 v 1.97037"
       id="path36" />
    <path
       style="fill:none;stroke:#000000;stroke-width:0.165;stroke-linecap:butt;stroke-linejoin:miter;stroke-dasharray:none;stroke-opacity:1;marker-end:url(#DartArrow)"
       d="m 11.304254,24.09752 v 1.97037"
       id="path37" />
    <path
       style="fill:none;stroke:#000000;stroke-width:0.165;stroke-linecap:butt;stroke-linejoin:miter;stroke-dasharray:none;stroke-opacity:1;marker-end:url(#DartArrow)"
       d="m 12.665626,24.09752 v 1.97037"
       id="path38" />
    <path
       style="fill:none;stroke:#000000;stroke-width:0.165;stroke-linecap:butt;stroke-linejoin:miter;stroke-dasharray:none;stroke-opacity:1;marker-end:url(#DartArrow)"
       d="m 14.026997,24.09752 v 1.97037"
       id="path39" />
    <path
       style="fill:none;stroke:#000000;stroke-width:0.165;stroke-linecap:butt;stroke-linejoin:miter;stroke-dasharray:none;stroke-opacity:1;marker-end:url(#DartArrow)"
       d="m 15.388369,24.09752 v 1.97037"
       id="path40" />
    <path
       style="fill:none;stroke:#000000;stroke-width:0.165;stroke-linecap:butt;stroke-linejoin:miter;stroke-dasharray:none;stroke-opacity:1;marker-end:url(#DartArrow)"
       d="m 16.74974,24.09752 v 1.97037"
       id="path41" />
    <path
       style="fill:none;stroke:#000000;stroke-width:0.165;stroke-linecap:butt;stroke-linejoin:miter;stroke-dasharray:none;stroke-opacity:1;marker-end:url(#DartArrow)"
       d="m 18.111112,24.09752 v 1.97037"
       id="path42" />
    <path
       style="fill:none;stroke:#000000;stroke-width:0.165;stroke-linecap:butt;stroke-linejoin:miter;stroke-dasharray:none;stroke-opacity:1;marker-end:url(#DartArrow)"
       d="m 19.472483,24.09752 v 1.97037"
       id="path43" />
    <path
       style="fill:none;stroke:#000000;stroke-width:0.165;stroke-linecap:butt;stroke-linejoin:miter;stroke-dasharray:none;stroke-opacity:1;marker-end:url(#DartArrow)"
       d="m 20.833855,24.09752 v 1.97037"
       id="path44" />
    <path
       style="fill:none;stroke:#000000;stroke-width:0.165;stroke-linecap:butt;stroke-linejoin:miter;stroke-dasharray:none;stroke-opacity:1;marker-end:url(#DartArrow)"
       d="m 22.195226,24.09752 v 1.97037"
       id="path45" />
    <path
       style="fill:none;stroke:#000000;stroke-width:0.165;stroke-linecap:butt;stroke-linejoin:miter;stroke-dasharray:none;stroke-opacity:1;marker-end:url(#DartArrow)"
       d="m 23.556597,24.09752 v 1.97037"
       id="path46" />
    <path
       style="fill:none;stroke:#000000;stroke-width:0.165;stroke-linecap:butt;stroke-linejoin:miter;stroke-dasharray:none;stroke-opacity:1;marker-end:url(#DartArrow)"
       d="m 24.917969,24.09752 v 1.97037"
       id="path47" />
    <g
       transform="matrix(0.352778,0,0,0.352778,10.891754,22.032534)"
       ns3:version="1.10.2"
       ns3:texconverter="pdflatex"
       ns3:pdfconverter="inkscape"
       ns3:text="$\\sigma_{vo}$  "
       ns3:preamble="C:\Users\$r.984804\AppData\Roaming\inkscape\extensions\textext\default_packages.tex"
       ns3:scale="1.0"
       ns3:alignment="middle center"
       ns3:stroke-to-path="0"
       ns3:inkscapeversion="1.4"
       ns3:jacobian_sqrt="0.352778"
       id="g50">
      <defs
         id="id-6168963b-fd00-492d-aeb1-686af83cb8e6">
        <g
           id="id-de465599-c1b6-4660-934f-9a06ef28e9aa">
          <g
             id="id-f05776e2-5cdf-4232-9187-3cdf62af88b6">
            <path
               d="m 5.15625,-3.71875 c 0.140625,0 0.5,0 0.5,-0.34375 0,-0.234375 -0.21875,-0.234375 -0.390625,-0.234375 h -2.28125 c -1.5,0 -2.609375,1.640625 -2.609375,2.828125 0,0.875 0.59375,1.578125 1.5,1.578125 1.171875,0 2.5,-1.203125 2.5,-2.734375 0,-0.171875 0,-0.65625 -0.3125,-1.09375 z m -3.265625,3.609375 c -0.5,0 -0.890625,-0.359375 -0.890625,-1.078125 0,-0.296875 0.109375,-1.109375 0.46875,-1.703125 0.421875,-0.6875 1.015625,-0.828125 1.359375,-0.828125 0.828125,0 0.90625,0.65625 0.90625,0.96875 0,0.46875 -0.203125,1.28125 -0.53125,1.796875 -0.390625,0.578125 -0.9375,0.84375 -1.3125,0.84375 z m 0,0"
               id="id-05e1dec1-2bc4-46ae-ba8a-6ba224abd438" />
          </g>
          <g
             id="id-aae448b8-e16e-4cc6-af08-b7f78c50c8ff">
            <path
               d="m 3.71875,-2.53125 c 0,-0.546875 -0.328125,-0.546875 -0.34375,-0.546875 -0.1875,0 -0.375,0.1875 -0.375,0.375 0,0.109375 0.0625,0.171875 0.109375,0.203125 0.125,0.109375 0.265625,0.28125 0.265625,0.5625 0,0.3125 -0.46875,1.8125 -1.296875,1.8125 -0.5625,0 -0.5625,-0.5 -0.5625,-0.625 0,-0.3125 0.125,-0.703125 0.390625,-1.359375 0.046875,-0.140625 0.09375,-0.25 0.09375,-0.359375 0,-0.375 -0.3125,-0.609375 -0.65625,-0.609375 -0.703125,0 -1.015625,0.953125 -1.015625,1.078125 0,0.078125 0.09375,0.078125 0.125,0.078125 0.09375,0 0.09375,-0.03125 0.125,-0.109375 0.15625,-0.5625 0.453125,-0.84375 0.734375,-0.84375 0.125,0 0.171875,0.078125 0.171875,0.234375 0,0.171875 -0.046875,0.3125 -0.125,0.46875 -0.296875,0.78125 -0.375,1.078125 -0.375,1.328125 0,0.6875 0.546875,0.90625 1.078125,0.90625 1.171875,0 1.65625,-2.015625 1.65625,-2.59375 z m 0,0"
               id="id-abd6d9ee-7d18-4da5-957f-bc2023594760" />
          </g>
          <g
             id="id-ea6b5ef1-e1e0-45da-b91d-6628e6f87aac">
            <path
               d="m 3.703125,-1.859375 c 0,-0.765625 -0.578125,-1.21875 -1.265625,-1.21875 -1.03125,0 -2,0.96875 -2,1.921875 0,0.703125 0.5,1.21875 1.265625,1.21875 1,0 2,-0.90625 2,-1.921875 z m -2,1.734375 c -0.34375,0 -0.6875,-0.21875 -0.6875,-0.78125 0,-0.28125 0.125,-0.96875 0.40625,-1.359375 0.296875,-0.4375 0.703125,-0.609375 1.015625,-0.609375 0.375,0 0.6875,0.25 0.6875,0.765625 0,0.171875 -0.078125,0.859375 -0.390625,1.34375 -0.265625,0.421875 -0.671875,0.640625 -1.03125,0.640625 z m 0,0"
               id="id-3ada7f37-16f2-4a81-9a8d-3049245eb728" />
          </g>
        </g>
      </defs>
      <g
         fill="#000000"
         fill-opacity="1"
         id="id-cb76e36e-b19f-4556-8fc4-cb045c7e6268"
         transform="translate(-149.087,-130.468)">
        <g
           transform="translate(148.712,134.765)"
           id="g47">
          <path
             d="m 5.15625,-3.71875 c 0.140625,0 0.5,0 0.5,-0.34375 0,-0.234375 -0.21875,-0.234375 -0.390625,-0.234375 h -2.28125 c -1.5,0 -2.609375,1.640625 -2.609375,2.828125 0,0.875 0.59375,1.578125 1.5,1.578125 1.171875,0 2.5,-1.203125 2.5,-2.734375 0,-0.171875 0,-0.65625 -0.3125,-1.09375 z m -3.265625,3.609375 c -0.5,0 -0.890625,-0.359375 -0.890625,-1.078125 0,-0.296875 0.109375,-1.109375 0.46875,-1.703125 0.421875,-0.6875 1.015625,-0.828125 1.359375,-0.828125 0.828125,0 0.90625,0.65625 0.90625,0.96875 0,0.46875 -0.203125,1.28125 -0.53125,1.796875 -0.390625,0.578125 -0.9375,0.84375 -1.3125,0.84375 z m 0,0"
             id="id-b3f792e7-91c3-4d39-996a-515283ae61d0" />
        </g>
      </g>
      <g
         fill="#000000"
         fill-opacity="1"
         id="id-5e9398d8-9623-4d69-aca3-4aa3f2988171"
         transform="translate(-149.087,-130.468)">
        <g
           transform="translate(154.405,136.259)"
           id="g48">
          <path
             d="m 3.71875,-2.53125 c 0,-0.546875 -0.328125,-0.546875 -0.34375,-0.546875 -0.1875,0 -0.375,0.1875 -0.375,0.375 0,0.109375 0.0625,0.171875 0.109375,0.203125 0.125,0.109375 0.265625,0.28125 0.265625,0.5625 0,0.3125 -0.46875,1.8125 -1.296875,1.8125 -0.5625,0 -0.5625,-0.5 -0.5625,-0.625 0,-0.3125 0.125,-0.703125 0.390625,-1.359375 0.046875,-0.140625 0.09375,-0.25 0.09375,-0.359375 0,-0.375 -0.3125,-0.609375 -0.65625,-0.609375 -0.703125,0 -1.015625,0.953125 -1.015625,1.078125 0,0.078125 0.09375,0.078125 0.125,0.078125 0.09375,0 0.09375,-0.03125 0.125,-0.109375 0.15625,-0.5625 0.453125,-0.84375 0.734375,-0.84375 0.125,0 0.171875,0.078125 0.171875,0.234375 0,0.171875 -0.046875,0.3125 -0.125,0.46875 -0.296875,0.78125 -0.375,1.078125 -0.375,1.328125 0,0.6875 0.546875,0.90625 1.078125,0.90625 1.171875,0 1.65625,-2.015625 1.65625,-2.59375 z m 0,0"
             id="id-49768a79-8379-4561-917f-3c17a2124c71" />
        </g>
      </g>
      <g
         fill="#000000"
         fill-opacity="1"
         id="id-8bb1eff5-51b1-436e-8abc-7c5b7906b783"
         transform="translate(-149.087,-130.468)">
        <g
           transform="translate(158.641,136.259)"
           id="g49">
          <path
             d="m 3.703125,-1.859375 c 0,-0.765625 -0.578125,-1.21875 -1.265625,-1.21875 -1.03125,0 -2,0.96875 -2,1.921875 0,0.703125 0.5,1.21875 1.265625,1.21875 1,0 2,-0.90625 2,-1.921875 z m -2,1.734375 c -0.34375,0 -0.6875,-0.21875 -0.6875,-0.78125 0,-0.28125 0.125,-0.96875 0.40625,-1.359375 0.296875,-0.4375 0.703125,-0.609375 1.015625,-0.609375 0.375,0 0.6875,0.25 0.6875,0.765625 0,0.171875 -0.078125,0.859375 -0.390625,1.34375 -0.265625,0.421875 -0.671875,0.640625 -1.03125,0.640625 z m 0,0"
             id="id-735a9dc8-6093-4eca-8903-f513eb18ff40" />
        </g>
      </g>
    </g>
    <text
       xml:space="preserve"
       style="font-size:3.52777px;line-height:0.9;font-family:'Times New Roman';-inkscape-font-specification:'Times New Roman, ';font-variant-ligatures:none;text-align:center;text-anchor:middle;white-space:pre;inline-size:22.4132;display:inline;fill:#ff0000;stroke-width:0.264583"
       x="34.946316"
       y="31.118862"
       id="text50"
       transform="translate(5.034412,0.24019579)"><tspan
         x="34.946316"
         y="31.118862"
         id="tspan1">Bearing<tspan
   y="31.118862"
   id="tspan2"> </tspan></tspan><tspan
         x="34.946316"
         y="34.293856"
         id="tspan3">capacity failure</tspan></text>
    <path
       style="fill:none;stroke:#ff0000;stroke-width:0.165;stroke-linecap:butt;stroke-linejoin:miter;stroke-dasharray:0.66, 0.165;stroke-dashoffset:0;stroke-opacity:1"
       d="m 25.882812,27.181641 c 0,6.175014 -8.072709,6.306522 -8.072709,-10e-7"
       id="path50"
       sodipodi:nodetypes="cc" />
    <path
       style="fill:none;stroke:#000000;stroke-width:0.165;stroke-linecap:butt;stroke-linejoin:miter;stroke-opacity:1;stroke-dasharray:none"
       d="m 34.397074,31.359057 -2.233827,-1.180606"
       id="path51" />
    <path
       style="fill:none;stroke:#000080;stroke-width:0.264583px;stroke-linecap:butt;stroke-linejoin:miter;stroke-opacity:1;marker-end:url(#marker52)"
       d="m 25.419284,18.959976 v 6.65052"
       id="path52" />
    <g
       transform="matrix(0.352778,0,0,0.352778,26.695468,18.017575)"
       ns3:version="1.10.2"
       ns3:texconverter="pdflatex"
       ns3:pdfconverter="inkscape"
       ns3:text="$q_t$"
       ns3:preamble="C:\Users\$r.984804\AppData\Roaming\inkscape\extensions\textext\default_packages.tex"
       ns3:scale="1.0"
       ns3:alignment="middle center"
       ns3:stroke-to-path="0"
       ns3:inkscapeversion="1.4"
       ns3:jacobian_sqrt="0.352778"
       id="g54"
       style="fill:#000080">
      <defs
         id="id-c9fd9cb3-31c8-4da5-8dcb-b1899861cbfc">
        <g
           id="id-8af752e0-3907-40ce-b3df-7f6d291a5cd1">
          <g
             id="id-11f9bf19-3b45-4768-9a3d-49cbe9f1f53d">
            <path
               d="m 4.5,-4.296875 c 0,-0.046875 -0.03125,-0.09375 -0.09375,-0.09375 -0.109375,0 -0.515625,0.390625 -0.671875,0.6875 -0.21875,-0.546875 -0.609375,-0.703125 -0.9375,-0.703125 -1.171875,0 -2.390625,1.46875 -2.390625,2.921875 0,0.96875 0.578125,1.59375 1.3125,1.59375 0.421875,0 0.8125,-0.234375 1.171875,-0.59375 -0.09375,0.34375 -0.421875,1.6875 -0.453125,1.78125 -0.078125,0.28125 -0.15625,0.3125 -0.71875,0.328125 -0.125,0 -0.21875,0 -0.21875,0.203125 0,0 0,0.109375 0.125,0.109375 0.3125,0 0.671875,-0.03125 1,-0.03125 0.328125,0 0.6875,0.03125 1.03125,0.03125 0.046875,0 0.171875,0 0.171875,-0.203125 0,-0.109375 -0.09375,-0.109375 -0.265625,-0.109375 -0.46875,0 -0.46875,-0.0625 -0.46875,-0.15625 0,-0.078125 0.015625,-0.140625 0.03125,-0.21875 z m -2.75,4.1875 c -0.609375,0 -0.640625,-0.765625 -0.640625,-0.9375 0,-0.484375 0.28125,-1.5625 0.453125,-1.984375 0.3125,-0.734375 0.828125,-1.15625 1.234375,-1.15625 0.65625,0 0.796875,0.8125 0.796875,0.875 0,0.0625 -0.546875,2.25 -0.578125,2.28125 -0.15625,0.28125 -0.71875,0.921875 -1.265625,0.921875 z m 0,0"
               id="id-9120fd42-0a2f-4159-9b65-b1f1b8df1818" />
          </g>
          <g
             id="id-93712c68-8d7b-4cf0-ab7f-82a447c66680">
            <path
               d="m 1.71875,-2.75 h 0.703125 c 0.140625,0 0.21875,0 0.21875,-0.15625 0,-0.09375 -0.078125,-0.09375 -0.203125,-0.09375 h -0.65625 l 0.25,-1.03125 c 0.015625,-0.03125 0.03125,-0.078125 0.03125,-0.09375 0,-0.140625 -0.109375,-0.234375 -0.25,-0.234375 -0.171875,0 -0.265625,0.125 -0.328125,0.296875 -0.046875,0.1875 0.046875,-0.15625 -0.265625,1.0625 h -0.703125 c -0.125,0 -0.21875,0 -0.21875,0.15625 0,0.09375 0.078125,0.09375 0.203125,0.09375 h 0.65625 l -0.40625,1.640625 c -0.046875,0.171875 -0.109375,0.421875 -0.109375,0.515625 0,0.40625 0.359375,0.65625 0.75,0.65625 0.78125,0 1.21875,-0.96875 1.21875,-1.0625 0,-0.09375 -0.09375,-0.09375 -0.109375,-0.09375 -0.09375,0 -0.09375,0.015625 -0.15625,0.140625 -0.1875,0.4375 -0.546875,0.828125 -0.921875,0.828125 -0.15625,0 -0.25,-0.09375 -0.25,-0.34375 0,-0.0625 0.03125,-0.21875 0.046875,-0.28125 z m 0,0"
               id="id-c92e5295-9abf-4d70-9fcc-71015b92a553" />
          </g>
        </g>
      </defs>
      <g
         fill="#000000"
         fill-opacity="1"
         id="id-2c236093-5cae-4927-b5cb-ab494bd2c6ce"
         transform="translate(-149.118,-130.359)"
         style="fill:#000080">
        <g
           transform="translate(148.712,134.765)"
           id="g52"
           style="fill:#000080">
          <path
             d="m 4.5,-4.296875 c 0,-0.046875 -0.03125,-0.09375 -0.09375,-0.09375 -0.109375,0 -0.515625,0.390625 -0.671875,0.6875 -0.21875,-0.546875 -0.609375,-0.703125 -0.9375,-0.703125 -1.171875,0 -2.390625,1.46875 -2.390625,2.921875 0,0.96875 0.578125,1.59375 1.3125,1.59375 0.421875,0 0.8125,-0.234375 1.171875,-0.59375 -0.09375,0.34375 -0.421875,1.6875 -0.453125,1.78125 -0.078125,0.28125 -0.15625,0.3125 -0.71875,0.328125 -0.125,0 -0.21875,0 -0.21875,0.203125 0,0 0,0.109375 0.125,0.109375 0.3125,0 0.671875,-0.03125 1,-0.03125 0.328125,0 0.6875,0.03125 1.03125,0.03125 0.046875,0 0.171875,0 0.171875,-0.203125 0,-0.109375 -0.09375,-0.109375 -0.265625,-0.109375 -0.46875,0 -0.46875,-0.0625 -0.46875,-0.15625 0,-0.078125 0.015625,-0.140625 0.03125,-0.21875 z m -2.75,4.1875 c -0.609375,0 -0.640625,-0.765625 -0.640625,-0.9375 0,-0.484375 0.28125,-1.5625 0.453125,-1.984375 0.3125,-0.734375 0.828125,-1.15625 1.234375,-1.15625 0.65625,0 0.796875,0.8125 0.796875,0.875 0,0.0625 -0.546875,2.25 -0.578125,2.28125 -0.15625,0.28125 -0.71875,0.921875 -1.265625,0.921875 z m 0,0"
             id="id-49677968-ef08-4fdd-8e56-e858154cd0ef"
             style="fill:#000080" />
        </g>
      </g>
      <g
         fill="#000000"
         fill-opacity="1"
         id="id-ea3e6d10-a7ce-4a43-847e-bb9181acb846"
         transform="translate(-149.118,-130.359)"
         style="fill:#000080">
        <g
           transform="translate(153.16,136.259)"
           id="g53"
           style="fill:#000080">
          <path
             d="m 1.71875,-2.75 h 0.703125 c 0.140625,0 0.21875,0 0.21875,-0.15625 0,-0.09375 -0.078125,-0.09375 -0.203125,-0.09375 h -0.65625 l 0.25,-1.03125 c 0.015625,-0.03125 0.03125,-0.078125 0.03125,-0.09375 0,-0.140625 -0.109375,-0.234375 -0.25,-0.234375 -0.171875,0 -0.265625,0.125 -0.328125,0.296875 -0.046875,0.1875 0.046875,-0.15625 -0.265625,1.0625 h -0.703125 c -0.125,0 -0.21875,0 -0.21875,0.15625 0,0.09375 0.078125,0.09375 0.203125,0.09375 h 0.65625 l -0.40625,1.640625 c -0.046875,0.171875 -0.109375,0.421875 -0.109375,0.515625 0,0.40625 0.359375,0.65625 0.75,0.65625 0.78125,0 1.21875,-0.96875 1.21875,-1.0625 0,-0.09375 -0.09375,-0.09375 -0.109375,-0.09375 -0.09375,0 -0.09375,0.015625 -0.15625,0.140625 -0.1875,0.4375 -0.546875,0.828125 -0.921875,0.828125 -0.15625,0 -0.25,-0.09375 -0.25,-0.34375 0,-0.0625 0.03125,-0.21875 0.046875,-0.28125 z m 0,0"
             id="id-540937c8-2cad-4023-a2e6-ad8784c000b0"
             style="fill:#000080" />
        </g>
      </g>
    </g>
    <g
       transform="matrix(0.352778,0,0,0.352778,29.632577,5.1840819)"
       ns3:version="1.10.2"
       ns3:texconverter="pdflatex"
       ns3:pdfconverter="inkscape"
       ns3:text="$q_n= N_{kt} S_u$"
       ns3:preamble="C:\Users\$r.984804\AppData\Roaming\inkscape\extensions\textext\default_packages.tex"
       ns3:scale="1.0"
       ns3:alignment="middle center"
       ns3:stroke-to-path="0"
       ns3:inkscapeversion="1.4"
       ns3:jacobian_sqrt="0.352778"
       id="g63"
       style="fill:#008000">
      <defs
         id="id-6dd07808-170e-4850-8a12-8a3009873f08">
        <g
           id="id-19b4f58d-1742-4063-b6b3-2fbd40852c02">
          <g
             id="id-cee52d52-2c87-44ef-92e4-145f062bd54c">
            <path
               d="m 4.5,-4.296875 c 0,-0.046875 -0.03125,-0.09375 -0.09375,-0.09375 -0.109375,0 -0.515625,0.390625 -0.671875,0.6875 -0.21875,-0.546875 -0.609375,-0.703125 -0.9375,-0.703125 -1.171875,0 -2.390625,1.46875 -2.390625,2.921875 0,0.96875 0.578125,1.59375 1.3125,1.59375 0.421875,0 0.8125,-0.234375 1.171875,-0.59375 -0.09375,0.34375 -0.421875,1.6875 -0.453125,1.78125 -0.078125,0.28125 -0.15625,0.3125 -0.71875,0.328125 -0.125,0 -0.21875,0 -0.21875,0.203125 0,0 0,0.109375 0.125,0.109375 0.3125,0 0.671875,-0.03125 1,-0.03125 0.328125,0 0.6875,0.03125 1.03125,0.03125 0.046875,0 0.171875,0 0.171875,-0.203125 0,-0.109375 -0.09375,-0.109375 -0.265625,-0.109375 -0.46875,0 -0.46875,-0.0625 -0.46875,-0.15625 0,-0.078125 0.015625,-0.140625 0.03125,-0.21875 z m -2.75,4.1875 c -0.609375,0 -0.640625,-0.765625 -0.640625,-0.9375 0,-0.484375 0.28125,-1.5625 0.453125,-1.984375 0.3125,-0.734375 0.828125,-1.15625 1.234375,-1.15625 0.65625,0 0.796875,0.8125 0.796875,0.875 0,0.0625 -0.546875,2.25 -0.578125,2.28125 -0.15625,0.28125 -0.71875,0.921875 -1.265625,0.921875 z m 0,0"
               id="id-689564dd-0b4d-49a0-bb03-4226e216ee71" />
          </g>
          <g
             id="id-c8908815-d76c-425c-86d3-cf94a161df84">
            <path
               d="m 7.53125,-5.765625 c 0.109375,-0.390625 0.28125,-0.703125 1.078125,-0.734375 0.046875,0 0.171875,-0.015625 0.171875,-0.203125 0,0 0,-0.109375 -0.125,-0.109375 -0.328125,0 -0.6875,0.03125 -1.015625,0.03125 -0.328125,0 -0.6875,-0.03125 -1.015625,-0.03125 -0.0625,0 -0.171875,0 -0.171875,0.203125 0,0.109375 0.09375,0.109375 0.171875,0.109375 0.578125,0.015625 0.6875,0.21875 0.6875,0.4375 0,0.03125 -0.03125,0.1875 -0.03125,0.203125 l -1.125,4.4375 -2.203125,-5.203125 c -0.078125,-0.171875 -0.078125,-0.1875 -0.3125,-0.1875 h -1.34375 c -0.1875,0 -0.28125,0 -0.28125,0.203125 0,0.109375 0.09375,0.109375 0.28125,0.109375 0.046875,0 0.671875,0 0.671875,0.09375 l -1.328125,5.34375 c -0.109375,0.40625 -0.28125,0.71875 -1.078125,0.75 -0.0625,0 -0.171875,0.015625 -0.171875,0.203125 0,0.0625 0.046875,0.109375 0.125,0.109375 0.328125,0 0.671875,-0.03125 1,-0.03125 0.34375,0 0.703125,0.03125 1.03125,0.03125 0.046875,0 0.171875,0 0.171875,-0.203125 0,-0.09375 -0.09375,-0.109375 -0.203125,-0.109375 -0.578125,-0.015625 -0.65625,-0.234375 -0.65625,-0.4375 0,-0.0625 0.015625,-0.125 0.046875,-0.234375 l 1.3125,-5.25 c 0.046875,0.046875 0.046875,0.078125 0.09375,0.171875 l 2.484375,5.875 c 0.0625,0.171875 0.09375,0.1875 0.1875,0.1875 0.109375,0 0.109375,-0.03125 0.15625,-0.203125 z m 0,0"
               id="id-a7d96591-1f2d-443e-a552-a2bc0524dd84" />
          </g>
          <g
             id="id-1794ae03-dbce-48dc-8e57-1f2a82cfac03">
            <path
               d="m 6.4375,-6.921875 c 0,-0.03125 -0.03125,-0.109375 -0.125,-0.109375 -0.046875,0 -0.046875,0.015625 -0.171875,0.15625 l -0.484375,0.5625 c -0.25,-0.46875 -0.765625,-0.71875 -1.421875,-0.71875 -1.265625,0 -2.453125,1.15625 -2.453125,2.359375 0,0.796875 0.515625,1.265625 1.03125,1.40625 l 1.0625,0.28125 c 0.375,0.09375 0.921875,0.25 0.921875,1.0625 0,0.890625 -0.8125,1.828125 -1.796875,1.828125 -0.640625,0 -1.75,-0.21875 -1.75,-1.453125 0,-0.234375 0.0625,-0.484375 0.0625,-0.53125 0.015625,-0.046875 0.015625,-0.0625 0.015625,-0.078125 0,-0.09375 -0.0625,-0.109375 -0.109375,-0.109375 -0.046875,0 -0.078125,0.015625 -0.109375,0.046875 -0.03125,0.03125 -0.59375,2.3125 -0.59375,2.34375 0,0.046875 0.046875,0.09375 0.109375,0.09375 0.046875,0 0.0625,-0.015625 0.1875,-0.15625 l 0.484375,-0.5625 c 0.421875,0.578125 1.109375,0.71875 1.6875,0.71875 1.359375,0 2.53125,-1.328125 2.53125,-2.5625 0,-0.6875 -0.34375,-1.03125 -0.484375,-1.171875 -0.234375,-0.21875 -0.390625,-0.265625 -1.265625,-0.484375 -0.234375,-0.0625 -0.578125,-0.171875 -0.671875,-0.1875 -0.265625,-0.09375 -0.609375,-0.375 -0.609375,-0.90625 0,-0.8125 0.796875,-1.65625 1.75,-1.65625 0.8125,0 1.421875,0.4375 1.421875,1.546875 0,0.3125 -0.03125,0.5 -0.03125,0.5625 0,0 0,0.09375 0.109375,0.09375 0.109375,0 0.125,-0.03125 0.15625,-0.203125 z m 0,0"
               id="id-f8b71627-c05f-4ae0-bd51-bd30e2cc0e5c" />
          </g>
          <g
             id="id-d0920a04-e9f9-4b93-b6f0-0a9457c116ba">
            <path
               d="m 0.84375,-0.4375 c -0.015625,0.09375 -0.0625,0.265625 -0.0625,0.28125 0,0.15625 0.125,0.21875 0.234375,0.21875 0.125,0 0.234375,-0.078125 0.28125,-0.140625 0.03125,-0.0625 0.078125,-0.296875 0.125,-0.4375 0.03125,-0.125 0.109375,-0.453125 0.140625,-0.625 0.046875,-0.15625 0.09375,-0.3125 0.125,-0.46875 0.078125,-0.28125 0.09375,-0.34375 0.296875,-0.625 0.1875,-0.28125 0.515625,-0.640625 1.046875,-0.640625 0.390625,0 0.40625,0.359375 0.40625,0.484375 0,0.421875 -0.296875,1.1875 -0.40625,1.484375 -0.078125,0.203125 -0.109375,0.265625 -0.109375,0.375 0,0.375 0.296875,0.59375 0.65625,0.59375 0.703125,0 1,-0.953125 1,-1.0625 0,-0.09375 -0.078125,-0.09375 -0.109375,-0.09375 -0.09375,0 -0.09375,0.046875 -0.125,0.125 -0.15625,0.5625 -0.46875,0.84375 -0.734375,0.84375 -0.15625,0 -0.1875,-0.09375 -0.1875,-0.25 0,-0.15625 0.046875,-0.25 0.171875,-0.5625 0.078125,-0.21875 0.359375,-0.953125 0.359375,-1.34375 0,-0.671875 -0.53125,-0.796875 -0.90625,-0.796875 -0.578125,0 -0.96875,0.359375 -1.171875,0.640625 -0.046875,-0.484375 -0.453125,-0.640625 -0.75,-0.640625 -0.296875,0 -0.453125,0.21875 -0.546875,0.375 -0.15625,0.265625 -0.25,0.65625 -0.25,0.703125 0,0.078125 0.09375,0.078125 0.125,0.078125 0.09375,0 0.09375,-0.015625 0.140625,-0.203125 0.109375,-0.40625 0.25,-0.75 0.515625,-0.75 0.1875,0 0.234375,0.15625 0.234375,0.34375 0,0.125 -0.0625,0.390625 -0.125,0.578125 -0.046875,0.1875 -0.109375,0.46875 -0.140625,0.625 z m 0,0"
               id="id-2d9c8674-0f76-4c4c-b8eb-ad266ca80fd0" />
          </g>
          <g
             id="id-9372123d-9f26-4035-9245-317ce602a493">
            <path
               d="m 2.1875,-4.625 c 0,-0.015625 0.015625,-0.109375 0.015625,-0.109375 0,-0.046875 -0.015625,-0.109375 -0.109375,-0.109375 -0.140625,0 -0.71875,0.0625 -0.890625,0.078125 -0.046875,0 -0.15625,0.015625 -0.15625,0.15625 0,0.09375 0.109375,0.09375 0.1875,0.09375 0.328125,0 0.328125,0.0625 0.328125,0.109375 0,0.046875 -0.015625,0.09375 -0.015625,0.15625 l -0.984375,3.9375 c -0.046875,0.125 -0.046875,0.140625 -0.046875,0.15625 0,0.109375 0.09375,0.21875 0.25,0.21875 0.1875,0 0.265625,-0.125 0.3125,-0.28125 0.015625,-0.03125 0.3125,-1.265625 0.34375,-1.359375 0.5,0.046875 0.890625,0.21875 0.890625,0.578125 0,0.03125 0,0.0625 -0.015625,0.140625 -0.03125,0.09375 -0.03125,0.140625 -0.03125,0.21875 0,0.484375 0.40625,0.703125 0.75,0.703125 0.671875,0 0.875,-1.046875 0.875,-1.0625 0,-0.09375 -0.078125,-0.09375 -0.109375,-0.09375 -0.09375,0 -0.109375,0.046875 -0.140625,0.171875 -0.078125,0.296875 -0.265625,0.796875 -0.609375,0.796875 -0.1875,0 -0.25,-0.171875 -0.25,-0.359375 0,-0.125 0,-0.140625 0.046875,-0.3125 0.015625,-0.03125 0.03125,-0.140625 0.03125,-0.21875 0,-0.625 -0.828125,-0.71875 -1.125,-0.734375 0.203125,-0.125 0.453125,-0.359375 0.578125,-0.46875 0.359375,-0.328125 0.703125,-0.65625 1.09375,-0.65625 0.078125,0 0.171875,0.015625 0.234375,0.09375 -0.296875,0.046875 -0.359375,0.28125 -0.359375,0.390625 0,0.140625 0.109375,0.25 0.265625,0.25 0.203125,0 0.40625,-0.15625 0.40625,-0.4375 0,-0.234375 -0.171875,-0.5 -0.53125,-0.5 -0.40625,0 -0.765625,0.296875 -1.125,0.625 -0.296875,0.265625 -0.515625,0.484375 -0.8125,0.609375 z m 0,0"
               id="id-f7a2d45c-1d00-4699-9ff5-026402b74a3c" />
          </g>
          <g
             id="id-c7400dda-55d6-486b-8157-259d7b5f32a6">
            <path
               d="m 1.71875,-2.75 h 0.703125 c 0.140625,0 0.21875,0 0.21875,-0.15625 0,-0.09375 -0.078125,-0.09375 -0.203125,-0.09375 h -0.65625 l 0.25,-1.03125 c 0.015625,-0.03125 0.03125,-0.078125 0.03125,-0.09375 0,-0.140625 -0.109375,-0.234375 -0.25,-0.234375 -0.171875,0 -0.265625,0.125 -0.328125,0.296875 -0.046875,0.1875 0.046875,-0.15625 -0.265625,1.0625 h -0.703125 c -0.125,0 -0.21875,0 -0.21875,0.15625 0,0.09375 0.078125,0.09375 0.203125,0.09375 h 0.65625 l -0.40625,1.640625 c -0.046875,0.171875 -0.109375,0.421875 -0.109375,0.515625 0,0.40625 0.359375,0.65625 0.75,0.65625 0.78125,0 1.21875,-0.96875 1.21875,-1.0625 0,-0.09375 -0.09375,-0.09375 -0.109375,-0.09375 -0.09375,0 -0.09375,0.015625 -0.15625,0.140625 -0.1875,0.4375 -0.546875,0.828125 -0.921875,0.828125 -0.15625,0 -0.25,-0.09375 -0.25,-0.34375 0,-0.0625 0.03125,-0.21875 0.046875,-0.28125 z m 0,0"
               id="id-e8729660-57e8-4106-a513-c807365d49ff" />
          </g>
          <g
             id="id-01c51ac6-175f-4342-a29d-ae93138b6a71">
            <path
               d="m 2.953125,-1.125 c -0.046875,0.140625 -0.109375,0.40625 -0.109375,0.40625 -0.140625,0.21875 -0.421875,0.59375 -0.84375,0.59375 -0.484375,0 -0.484375,-0.453125 -0.484375,-0.578125 0,-0.40625 0.1875,-0.90625 0.390625,-1.421875 0.046875,-0.140625 0.09375,-0.234375 0.09375,-0.34375 0,-0.375 -0.3125,-0.609375 -0.65625,-0.609375 -0.703125,0 -1.015625,0.953125 -1.015625,1.078125 0,0.078125 0.09375,0.078125 0.125,0.078125 0.09375,0 0.09375,-0.03125 0.125,-0.109375 0.15625,-0.5625 0.46875,-0.84375 0.734375,-0.84375 0.125,0 0.171875,0.078125 0.171875,0.234375 0,0.171875 -0.046875,0.3125 -0.125,0.46875 -0.375,0.96875 -0.375,1.171875 -0.375,1.359375 0,0.109375 0,0.4375 0.265625,0.65625 0.203125,0.171875 0.46875,0.21875 0.71875,0.21875 0.4375,0 0.671875,-0.234375 0.90625,-0.453125 0.15625,0.453125 0.609375,0.453125 0.703125,0.453125 0.234375,0 0.421875,-0.125 0.546875,-0.359375 0.15625,-0.28125 0.25,-0.671875 0.25,-0.703125 0,-0.09375 -0.09375,-0.09375 -0.109375,-0.09375 -0.109375,0 -0.109375,0.03125 -0.15625,0.21875 -0.09375,0.328125 -0.21875,0.75 -0.515625,0.75 -0.171875,0 -0.234375,-0.15625 -0.234375,-0.34375 0,-0.109375 0.0625,-0.375 0.109375,-0.546875 0.046875,-0.1875 0.125,-0.46875 0.15625,-0.625 l 0.15625,-0.625 c 0.046875,-0.171875 0.125,-0.484375 0.125,-0.515625 0,-0.140625 -0.109375,-0.21875 -0.234375,-0.21875 -0.25,0 -0.3125,0.203125 -0.359375,0.421875 z m 0,0"
               id="id-0d68a201-d7f1-477c-963f-0592cd3e3270" />
          </g>
          <g
             id="id-94791acb-f92f-4b45-8091-84f8dd5c122f">
            <path
               d="m 6.84375,-3.265625 c 0.15625,0 0.34375,0 0.34375,-0.1875 0,-0.203125 -0.1875,-0.203125 -0.328125,-0.203125 h -5.96875 c -0.140625,0 -0.328125,0 -0.328125,0.203125 0,0.1875 0.1875,0.1875 0.328125,0.1875 z m 0.015625,1.9375 c 0.140625,0 0.328125,0 0.328125,-0.203125 0,-0.1875 -0.1875,-0.1875 -0.34375,-0.1875 h -5.953125 c -0.140625,0 -0.328125,0 -0.328125,0.1875 0,0.203125 0.1875,0.203125 0.328125,0.203125 z m 0,0"
               id="id-a104d7cc-bce5-4cbe-b558-b1332176bde9" />
          </g>
        </g>
      </defs>
      <g
         fill="#000000"
         fill-opacity="1"
         id="id-4a2689fd-10e9-4562-8231-4b15a85f9d5f"
         transform="translate(-149.118,-127.734)"
         style="fill:#008000">
        <g
           transform="translate(148.712,134.765)"
           id="g55"
           style="fill:#008000">
          <path
             d="m 4.5,-4.296875 c 0,-0.046875 -0.03125,-0.09375 -0.09375,-0.09375 -0.109375,0 -0.515625,0.390625 -0.671875,0.6875 -0.21875,-0.546875 -0.609375,-0.703125 -0.9375,-0.703125 -1.171875,0 -2.390625,1.46875 -2.390625,2.921875 0,0.96875 0.578125,1.59375 1.3125,1.59375 0.421875,0 0.8125,-0.234375 1.171875,-0.59375 -0.09375,0.34375 -0.421875,1.6875 -0.453125,1.78125 -0.078125,0.28125 -0.15625,0.3125 -0.71875,0.328125 -0.125,0 -0.21875,0 -0.21875,0.203125 0,0 0,0.109375 0.125,0.109375 0.3125,0 0.671875,-0.03125 1,-0.03125 0.328125,0 0.6875,0.03125 1.03125,0.03125 0.046875,0 0.171875,0 0.171875,-0.203125 0,-0.109375 -0.09375,-0.109375 -0.265625,-0.109375 -0.46875,0 -0.46875,-0.0625 -0.46875,-0.15625 0,-0.078125 0.015625,-0.140625 0.03125,-0.21875 z m -2.75,4.1875 c -0.609375,0 -0.640625,-0.765625 -0.640625,-0.9375 0,-0.484375 0.28125,-1.5625 0.453125,-1.984375 0.3125,-0.734375 0.828125,-1.15625 1.234375,-1.15625 0.65625,0 0.796875,0.8125 0.796875,0.875 0,0.0625 -0.546875,2.25 -0.578125,2.28125 -0.15625,0.28125 -0.71875,0.921875 -1.265625,0.921875 z m 0,0"
             id="id-84474f6f-fe65-4e18-96fe-1cce36cc99a8"
             style="fill:#008000" />
        </g>
      </g>
      <g
         fill="#000000"
         fill-opacity="1"
         id="id-bad983a2-c911-4139-b35e-9fcff5e6c6b6"
         transform="translate(-149.118,-127.734)"
         style="fill:#008000">
        <g
           transform="translate(153.16,136.259)"
           id="g56"
           style="fill:#008000">
          <path
             d="m 0.84375,-0.4375 c -0.015625,0.09375 -0.0625,0.265625 -0.0625,0.28125 0,0.15625 0.125,0.21875 0.234375,0.21875 0.125,0 0.234375,-0.078125 0.28125,-0.140625 0.03125,-0.0625 0.078125,-0.296875 0.125,-0.4375 0.03125,-0.125 0.109375,-0.453125 0.140625,-0.625 0.046875,-0.15625 0.09375,-0.3125 0.125,-0.46875 0.078125,-0.28125 0.09375,-0.34375 0.296875,-0.625 0.1875,-0.28125 0.515625,-0.640625 1.046875,-0.640625 0.390625,0 0.40625,0.359375 0.40625,0.484375 0,0.421875 -0.296875,1.1875 -0.40625,1.484375 -0.078125,0.203125 -0.109375,0.265625 -0.109375,0.375 0,0.375 0.296875,0.59375 0.65625,0.59375 0.703125,0 1,-0.953125 1,-1.0625 0,-0.09375 -0.078125,-0.09375 -0.109375,-0.09375 -0.09375,0 -0.09375,0.046875 -0.125,0.125 -0.15625,0.5625 -0.46875,0.84375 -0.734375,0.84375 -0.15625,0 -0.1875,-0.09375 -0.1875,-0.25 0,-0.15625 0.046875,-0.25 0.171875,-0.5625 0.078125,-0.21875 0.359375,-0.953125 0.359375,-1.34375 0,-0.671875 -0.53125,-0.796875 -0.90625,-0.796875 -0.578125,0 -0.96875,0.359375 -1.171875,0.640625 -0.046875,-0.484375 -0.453125,-0.640625 -0.75,-0.640625 -0.296875,0 -0.453125,0.21875 -0.546875,0.375 -0.15625,0.265625 -0.25,0.65625 -0.25,0.703125 0,0.078125 0.09375,0.078125 0.125,0.078125 0.09375,0 0.09375,-0.015625 0.140625,-0.203125 0.109375,-0.40625 0.25,-0.75 0.515625,-0.75 0.1875,0 0.234375,0.15625 0.234375,0.34375 0,0.125 -0.0625,0.390625 -0.125,0.578125 -0.046875,0.1875 -0.109375,0.46875 -0.140625,0.625 z m 0,0"
             id="id-b5664838-72a2-408b-a7ff-c1c46e3092eb"
             style="fill:#008000" />
        </g>
      </g>
      <g
         fill="#000000"
         fill-opacity="1"
         id="id-a87db2f2-5b76-43e2-9339-86651c7b9311"
         transform="translate(-149.118,-127.734)"
         style="fill:#008000">
        <g
           transform="translate(161.35,134.765)"
           id="g57"
           style="fill:#008000">
          <path
             d="m 6.84375,-3.265625 c 0.15625,0 0.34375,0 0.34375,-0.1875 0,-0.203125 -0.1875,-0.203125 -0.328125,-0.203125 h -5.96875 c -0.140625,0 -0.328125,0 -0.328125,0.203125 0,0.1875 0.1875,0.1875 0.328125,0.1875 z m 0.015625,1.9375 c 0.140625,0 0.328125,0 0.328125,-0.203125 0,-0.1875 -0.1875,-0.1875 -0.34375,-0.1875 h -5.953125 c -0.140625,0 -0.328125,0 -0.328125,0.1875 0,0.203125 0.1875,0.203125 0.328125,0.203125 z m 0,0"
             id="id-cb1ef96e-8344-48e8-a072-9b53cbd4868a"
             style="fill:#008000" />
        </g>
      </g>
      <g
         fill="#000000"
         fill-opacity="1"
         id="id-363421f3-3318-494b-8be8-21930ad03770"
         transform="translate(-149.118,-127.734)"
         style="fill:#008000">
        <g
           transform="translate(171.866,134.765)"
           id="g58"
           style="fill:#008000">
          <path
             d="m 7.53125,-5.765625 c 0.109375,-0.390625 0.28125,-0.703125 1.078125,-0.734375 0.046875,0 0.171875,-0.015625 0.171875,-0.203125 0,0 0,-0.109375 -0.125,-0.109375 -0.328125,0 -0.6875,0.03125 -1.015625,0.03125 -0.328125,0 -0.6875,-0.03125 -1.015625,-0.03125 -0.0625,0 -0.171875,0 -0.171875,0.203125 0,0.109375 0.09375,0.109375 0.171875,0.109375 0.578125,0.015625 0.6875,0.21875 0.6875,0.4375 0,0.03125 -0.03125,0.1875 -0.03125,0.203125 l -1.125,4.4375 -2.203125,-5.203125 c -0.078125,-0.171875 -0.078125,-0.1875 -0.3125,-0.1875 h -1.34375 c -0.1875,0 -0.28125,0 -0.28125,0.203125 0,0.109375 0.09375,0.109375 0.28125,0.109375 0.046875,0 0.671875,0 0.671875,0.09375 l -1.328125,5.34375 c -0.109375,0.40625 -0.28125,0.71875 -1.078125,0.75 -0.0625,0 -0.171875,0.015625 -0.171875,0.203125 0,0.0625 0.046875,0.109375 0.125,0.109375 0.328125,0 0.671875,-0.03125 1,-0.03125 0.34375,0 0.703125,0.03125 1.03125,0.03125 0.046875,0 0.171875,0 0.171875,-0.203125 0,-0.09375 -0.09375,-0.109375 -0.203125,-0.109375 -0.578125,-0.015625 -0.65625,-0.234375 -0.65625,-0.4375 0,-0.0625 0.015625,-0.125 0.046875,-0.234375 l 1.3125,-5.25 c 0.046875,0.046875 0.046875,0.078125 0.09375,0.171875 l 2.484375,5.875 c 0.0625,0.171875 0.09375,0.1875 0.1875,0.1875 0.109375,0 0.109375,-0.03125 0.15625,-0.203125 z m 0,0"
             id="id-40b07cf5-7fed-4a82-b10f-12c6afdbfafe"
             style="fill:#008000" />
        </g>
      </g>
      <g
         fill="#000000"
         fill-opacity="1"
         id="id-abbcabfa-1fb8-40b7-83ca-d9696f0fe936"
         transform="translate(-149.118,-127.734)"
         style="fill:#008000">
        <g
           transform="translate(179.871,136.259)"
           id="g59"
           style="fill:#008000">
          <path
             d="m 2.1875,-4.625 c 0,-0.015625 0.015625,-0.109375 0.015625,-0.109375 0,-0.046875 -0.015625,-0.109375 -0.109375,-0.109375 -0.140625,0 -0.71875,0.0625 -0.890625,0.078125 -0.046875,0 -0.15625,0.015625 -0.15625,0.15625 0,0.09375 0.109375,0.09375 0.1875,0.09375 0.328125,0 0.328125,0.0625 0.328125,0.109375 0,0.046875 -0.015625,0.09375 -0.015625,0.15625 l -0.984375,3.9375 c -0.046875,0.125 -0.046875,0.140625 -0.046875,0.15625 0,0.109375 0.09375,0.21875 0.25,0.21875 0.1875,0 0.265625,-0.125 0.3125,-0.28125 0.015625,-0.03125 0.3125,-1.265625 0.34375,-1.359375 0.5,0.046875 0.890625,0.21875 0.890625,0.578125 0,0.03125 0,0.0625 -0.015625,0.140625 -0.03125,0.09375 -0.03125,0.140625 -0.03125,0.21875 0,0.484375 0.40625,0.703125 0.75,0.703125 0.671875,0 0.875,-1.046875 0.875,-1.0625 0,-0.09375 -0.078125,-0.09375 -0.109375,-0.09375 -0.09375,0 -0.109375,0.046875 -0.140625,0.171875 -0.078125,0.296875 -0.265625,0.796875 -0.609375,0.796875 -0.1875,0 -0.25,-0.171875 -0.25,-0.359375 0,-0.125 0,-0.140625 0.046875,-0.3125 0.015625,-0.03125 0.03125,-0.140625 0.03125,-0.21875 0,-0.625 -0.828125,-0.71875 -1.125,-0.734375 0.203125,-0.125 0.453125,-0.359375 0.578125,-0.46875 0.359375,-0.328125 0.703125,-0.65625 1.09375,-0.65625 0.078125,0 0.171875,0.015625 0.234375,0.09375 -0.296875,0.046875 -0.359375,0.28125 -0.359375,0.390625 0,0.140625 0.109375,0.25 0.265625,0.25 0.203125,0 0.40625,-0.15625 0.40625,-0.4375 0,-0.234375 -0.171875,-0.5 -0.53125,-0.5 -0.40625,0 -0.765625,0.296875 -1.125,0.625 -0.296875,0.265625 -0.515625,0.484375 -0.8125,0.609375 z m 0,0"
             id="id-7a7b8ba3-10ee-407e-bd25-d74caa9ce357"
             style="fill:#008000" />
        </g>
      </g>
      <g
         fill="#000000"
         fill-opacity="1"
         id="id-c44b5573-f5f1-4e0c-8e2b-6325418a9b60"
         transform="translate(-149.118,-127.734)"
         style="fill:#008000">
        <g
           transform="translate(184.274,136.259)"
           id="g60"
           style="fill:#008000">
          <path
             d="m 1.71875,-2.75 h 0.703125 c 0.140625,0 0.21875,0 0.21875,-0.15625 0,-0.09375 -0.078125,-0.09375 -0.203125,-0.09375 h -0.65625 l 0.25,-1.03125 c 0.015625,-0.03125 0.03125,-0.078125 0.03125,-0.09375 0,-0.140625 -0.109375,-0.234375 -0.25,-0.234375 -0.171875,0 -0.265625,0.125 -0.328125,0.296875 -0.046875,0.1875 0.046875,-0.15625 -0.265625,1.0625 h -0.703125 c -0.125,0 -0.21875,0 -0.21875,0.15625 0,0.09375 0.078125,0.09375 0.203125,0.09375 h 0.65625 l -0.40625,1.640625 c -0.046875,0.171875 -0.109375,0.421875 -0.109375,0.515625 0,0.40625 0.359375,0.65625 0.75,0.65625 0.78125,0 1.21875,-0.96875 1.21875,-1.0625 0,-0.09375 -0.09375,-0.09375 -0.109375,-0.09375 -0.09375,0 -0.09375,0.015625 -0.15625,0.140625 -0.1875,0.4375 -0.546875,0.828125 -0.921875,0.828125 -0.15625,0 -0.25,-0.09375 -0.25,-0.34375 0,-0.0625 0.03125,-0.21875 0.046875,-0.28125 z m 0,0"
             id="id-e26b3ce1-6f40-4e4e-82a8-164c6ce87b3b"
             style="fill:#008000" />
        </g>
      </g>
      <g
         fill="#000000"
         fill-opacity="1"
         id="id-d28adb11-f0cc-4d06-9152-96acb2778a0a"
         transform="translate(-149.118,-127.734)"
         style="fill:#008000">
        <g
           transform="translate(187.782,134.765)"
           id="g61"
           style="fill:#008000">
          <path
             d="m 6.4375,-6.921875 c 0,-0.03125 -0.03125,-0.109375 -0.125,-0.109375 -0.046875,0 -0.046875,0.015625 -0.171875,0.15625 l -0.484375,0.5625 c -0.25,-0.46875 -0.765625,-0.71875 -1.421875,-0.71875 -1.265625,0 -2.453125,1.15625 -2.453125,2.359375 0,0.796875 0.515625,1.265625 1.03125,1.40625 l 1.0625,0.28125 c 0.375,0.09375 0.921875,0.25 0.921875,1.0625 0,0.890625 -0.8125,1.828125 -1.796875,1.828125 -0.640625,0 -1.75,-0.21875 -1.75,-1.453125 0,-0.234375 0.0625,-0.484375 0.0625,-0.53125 0.015625,-0.046875 0.015625,-0.0625 0.015625,-0.078125 0,-0.09375 -0.0625,-0.109375 -0.109375,-0.109375 -0.046875,0 -0.078125,0.015625 -0.109375,0.046875 -0.03125,0.03125 -0.59375,2.3125 -0.59375,2.34375 0,0.046875 0.046875,0.09375 0.109375,0.09375 0.046875,0 0.0625,-0.015625 0.1875,-0.15625 l 0.484375,-0.5625 c 0.421875,0.578125 1.109375,0.71875 1.6875,0.71875 1.359375,0 2.53125,-1.328125 2.53125,-2.5625 0,-0.6875 -0.34375,-1.03125 -0.484375,-1.171875 -0.234375,-0.21875 -0.390625,-0.265625 -1.265625,-0.484375 -0.234375,-0.0625 -0.578125,-0.171875 -0.671875,-0.1875 -0.265625,-0.09375 -0.609375,-0.375 -0.609375,-0.90625 0,-0.8125 0.796875,-1.65625 1.75,-1.65625 0.8125,0 1.421875,0.4375 1.421875,1.546875 0,0.3125 -0.03125,0.5 -0.03125,0.5625 0,0 0,0.09375 0.109375,0.09375 0.109375,0 0.125,-0.03125 0.15625,-0.203125 z m 0,0"
             id="id-880ffa86-cc20-4823-b09f-9677262cdbf4"
             style="fill:#008000" />
        </g>
      </g>
      <g
         fill="#000000"
         fill-opacity="1"
         id="id-a82a5402-6369-478f-9db5-36ac64b90acc"
         transform="translate(-149.118,-127.734)"
         style="fill:#008000">
        <g
           transform="translate(193.891,136.259)"
           id="g62"
           style="fill:#008000">
          <path
             d="m 2.953125,-1.125 c -0.046875,0.140625 -0.109375,0.40625 -0.109375,0.40625 -0.140625,0.21875 -0.421875,0.59375 -0.84375,0.59375 -0.484375,0 -0.484375,-0.453125 -0.484375,-0.578125 0,-0.40625 0.1875,-0.90625 0.390625,-1.421875 0.046875,-0.140625 0.09375,-0.234375 0.09375,-0.34375 0,-0.375 -0.3125,-0.609375 -0.65625,-0.609375 -0.703125,0 -1.015625,0.953125 -1.015625,1.078125 0,0.078125 0.09375,0.078125 0.125,0.078125 0.09375,0 0.09375,-0.03125 0.125,-0.109375 0.15625,-0.5625 0.46875,-0.84375 0.734375,-0.84375 0.125,0 0.171875,0.078125 0.171875,0.234375 0,0.171875 -0.046875,0.3125 -0.125,0.46875 -0.375,0.96875 -0.375,1.171875 -0.375,1.359375 0,0.109375 0,0.4375 0.265625,0.65625 0.203125,0.171875 0.46875,0.21875 0.71875,0.21875 0.4375,0 0.671875,-0.234375 0.90625,-0.453125 0.15625,0.453125 0.609375,0.453125 0.703125,0.453125 0.234375,0 0.421875,-0.125 0.546875,-0.359375 0.15625,-0.28125 0.25,-0.671875 0.25,-0.703125 0,-0.09375 -0.09375,-0.09375 -0.109375,-0.09375 -0.109375,0 -0.109375,0.03125 -0.15625,0.21875 -0.09375,0.328125 -0.21875,0.75 -0.515625,0.75 -0.171875,0 -0.234375,-0.15625 -0.234375,-0.34375 0,-0.109375 0.0625,-0.375 0.109375,-0.546875 0.046875,-0.1875 0.125,-0.46875 0.15625,-0.625 l 0.15625,-0.625 c 0.046875,-0.171875 0.125,-0.484375 0.125,-0.515625 0,-0.140625 -0.109375,-0.21875 -0.234375,-0.21875 -0.25,0 -0.3125,0.203125 -0.359375,0.421875 z m 0,0"
             id="id-fa16c16a-55ea-41ec-9026-87188324e67a"
             style="fill:#008000" />
        </g>
      </g>
    </g>
  </g>
</svg>
