<?xml version="1.0" encoding="UTF-8" standalone="no"?>
<!-- Created with Inkscape (http://www.inkscape.org/) -->

<svg
   width="2in"
   height="1.4in"
   viewBox="0 0 50.800001 35.559999"
   version="1.1"
   id="svg1"
   xml:space="preserve"
   inkscape:version="1.4 (86a8ad7, 2024-10-11)"
   sodipodi:docname="correction.svg"
   xmlns:inkscape="http://www.inkscape.org/namespaces/inkscape"
   xmlns:sodipodi="http://sodipodi.sourceforge.net/DTD/sodipodi-0.dtd"
   xmlns:xlink="http://www.w3.org/1999/xlink"
   xmlns="http://www.w3.org/2000/svg"
   xmlns:svg="http://www.w3.org/2000/svg"
   xmlns:ns2="http://www.iki.fi/pav/software/textext/"><sodipodi:namedview
     id="namedview1"
     pagecolor="#ffffff"
     bordercolor="#111111"
     borderopacity="1"
     inkscape:showpageshadow="0"
     inkscape:pageopacity="0"
     inkscape:pagecheckerboard="1"
     inkscape:deskcolor="#d1d1d1"
     inkscape:document-units="mm"
     inkscape:zoom="1.1010943"
     inkscape:cx="117.15618"
     inkscape:cy="70.838621"
     inkscape:window-width="1536"
     inkscape:window-height="807"
     inkscape:window-x="973"
     inkscape:window-y="1077"
     inkscape:window-maximized="1"
     inkscape:current-layer="layer1" /><defs
     id="defs1"><marker
       style="overflow:visible"
       id="ArrowWideRounded"
       refX="0"
       refY="0"
       orient="auto-start-reverse"
       inkscape:stockid="Wide, rounded arrow"
       markerWidth="1"
       markerHeight="0.5"
       viewBox="0 0 1 1"
       inkscape:isstock="true"
       inkscape:collect="always"
       preserveAspectRatio="none"><path
         style="fill:none;stroke:context-stroke;stroke-width:1;stroke-linecap:round"
         d="M 3,-3 0,0 3,3"
         transform="rotate(180,0.125,0)"
         sodipodi:nodetypes="ccc"
         id="path28" /></marker><pattern
       inkscape:collect="always"
       xlink:href="#Strips1_5"
       preserveAspectRatio="xMidYMid"
       id="pattern27"
       patternTransform="matrix(0.07071068,0.07071068,-0.07071068,0.07071068,0,0)"
       x="0"
       y="0" /><pattern
       inkscape:collect="always"
       xlink:href="#pattern19"
       preserveAspectRatio="xMidYMid"
       id="pattern20"
       patternTransform="matrix(0.07071068,0.07071068,-0.07071068,0.07071068,-1.5644528,-1.6970562)"
       x="0"
       y="0" /><pattern
       inkscape:collect="always"
       xlink:href="#Strips1_5"
       preserveAspectRatio="xMidYMid"
       id="pattern19"
       patternTransform="matrix(0.07071068,0.07071068,-0.07071068,0.07071068,0,0)"
       x="0"
       y="0" /><pattern
       inkscape:collect="always"
       xlink:href="#Strips1_5"
       preserveAspectRatio="xMidYMid"
       id="pattern17"
       patternTransform="matrix(0.07071068,0.07071068,-0.07071068,0.07071068,0,0)"
       x="0"
       y="0" /><pattern
       inkscape:collect="always"
       xlink:href="#Strips1_5"
       preserveAspectRatio="xMidYMid"
       id="pattern10"
       patternTransform="matrix(0.07071068,0.07071068,-0.07071068,0.07071068,12.482273,0)"
       x="0"
       y="0" /><pattern
       inkscape:collect="always"
       xlink:href="#Strips1_5"
       preserveAspectRatio="xMidYMid"
       id="pattern8"
       patternTransform="matrix(0.07071068,0.07071068,-0.07071068,0.07071068,12.482273,0)"
       x="0"
       y="0" /><pattern
       inkscape:collect="always"
       patternUnits="userSpaceOnUse"
       width="6"
       height="1"
       patternTransform="translate(0,0) scale(2,2)"
       preserveAspectRatio="xMidYMid"
       id="Strips1_5"
       style="fill:#000000"
       inkscape:stockid="Stripes 06 (1:5)"
       inkscape:isstock="true"
       inkscape:label="Stripes 06 (1:5)">
      <rect
   style="stroke:none"
   x="0"
   y="-0.5"
   width="1"
   height="2"
   id="rect164" />
    </pattern></defs><g
     inkscape:label="Layer 1"
     inkscape:groupmode="layer"
     id="layer1"><path
       id="path2"
       style="fill:#cccccc;stroke:#000000;stroke-width:0.264583px;stroke-linecap:butt;stroke-linejoin:miter;stroke-opacity:1"
       d="M 26.011482,0.65840736 V 4.5876127 H 24.84334 V 9.3663758 C 24.387119,10.760876 23.466764,11.121938 22.082277,10.449562 21.175695,9.5467616 20.212862,9.1856993 19.193781,9.3663758 V 4.5876127 H 18.025639 V 0.65840736"
       sodipodi:nodetypes="ccccccccc" /><path
       style="fill:none;stroke:#000000;stroke-width:0.264583px;stroke-linecap:butt;stroke-linejoin:miter;stroke-opacity:1"
       d="m 19.193781,9.3663756 c 0.03106,1.3509194 0.988918,1.6964344 2.888496,1.0831864"
       id="path3"
       sodipodi:nodetypes="cc" /><path
       d="m 17.866555,5.01663 v 10.413624 l 0.865234,-0.251109 V 5.01663 Z"
       id="path4"
       style="fill:#cccccc;fill-opacity:1;stroke:#000000;stroke-width:0.265;stroke-dasharray:none"
       sodipodi:nodetypes="ccccc" /><circle
       style="fill:#000000;fill-opacity:1;stroke:#000000;stroke-width:0.264999;stroke-linecap:round;stroke-miterlimit:4.1;stroke-dasharray:none;paint-order:markers fill stroke"
       id="path5"
       cx="18.960152"
       cy="5.5221257"
       r="0.19115053" /><path
       d="m 17.866555,5.01663 v 10.413624 l 0.865234,-0.251109 V 5.01663 Z"
       id="path6"
       style="fill:url(#pattern8);fill-opacity:1;stroke:#000000;stroke-width:0.265;stroke-dasharray:none"
       sodipodi:nodetypes="ccccc" /><path
       d="M 28.103727,5.0166298 V 12.354437 L 28.968962,12.09259 V 5.0166298 Z"
       id="path8"
       style="fill:#cccccc;fill-opacity:1;stroke:#000000;stroke-width:0.265;stroke-dasharray:none"
       sodipodi:nodetypes="ccccc" /><path
       d="M 28.103727,5.0166298 V 12.354437 L 28.968962,12.09259 V 5.0166298 Z"
       id="path9"
       style="fill:url(#pattern10);fill-opacity:1;stroke:#000000;stroke-width:0.265;stroke-dasharray:none"
       sodipodi:nodetypes="ccccc" /><path
       style="fill:none;stroke:#000000;stroke-width:0.165;stroke-linecap:butt;stroke-linejoin:miter;stroke-dasharray:none;stroke-opacity:1"
       d="m 16.957698,15.75243 4.760771,-1.381675 0.720873,-1.366656 0.54559,2.240155 0.60531,-1.465487 5.64956,-1.709735"
       id="path10" /><g
       id="path11"
       style="fill:#cccccc;fill-opacity:1;stroke:#000000;stroke-width:0.29242;stroke-dasharray:none"
       transform="matrix(0.82125333,0,0,1,13.607875,0.08495579)"><path
         style="fill:#cccccc;fill-opacity:1;stroke:#000000;stroke-width:0.29242;stroke-dasharray:none"
         d="m 5.1855469,17.32451 v 6.950881 H 6.75 v -7.32376 z"
         id="path13"
         sodipodi:nodetypes="ccccc" /></g><path
       style="fill:none;stroke:#000000;stroke-width:0.165;stroke-linecap:butt;stroke-linejoin:miter;stroke-dasharray:none;stroke-opacity:1"
       d="m 16.957698,17.673226 4.760771,-1.381675 0.720873,-1.366656 0.54559,2.240155 0.60531,-1.465487 5.64956,-1.709735"
       id="path14" /><g
       id="g16"
       style="fill:#cccccc;fill-opacity:1;stroke:#000000;stroke-width:0.29242;stroke-dasharray:none"
       transform="matrix(0.82125333,0,0,1,23.265933,0.08495579)"><path
         style="fill:#cccccc;fill-opacity:1;stroke:#000000;stroke-width:0.29242;stroke-dasharray:none"
         d="m 5.9681441,16.884963 v 7.391154"
         id="path15" /><path
         style="fill:#cccccc;fill-opacity:1;stroke:#000000;stroke-width:0.29242;stroke-dasharray:none"
         d="m 5.1855469,14.423952 v 9.85144 H 6.75 V 14.035128 Z"
         id="path16"
         sodipodi:nodetypes="ccccc" /></g><g
       id="g17"
       style="fill:url(#pattern17);fill-opacity:1;stroke:#000000;stroke-width:0.29242;stroke-dasharray:none"
       transform="matrix(0.82125333,0,0,1,13.607875,0.08495579)"><path
         style="fill:url(#pattern17);fill-opacity:1;stroke:#000000;stroke-width:0.29242;stroke-dasharray:none"
         d="m 5.1855469,17.32451 v 6.950881 H 6.75 v -7.32376 z"
         id="path17"
         sodipodi:nodetypes="ccccc" /></g><g
       id="g19"
       style="fill:url(#pattern19);fill-opacity:1;stroke:#000000;stroke-width:0.29242;stroke-dasharray:none"
       transform="matrix(0.82125333,0,0,1,24.550745,1.7820128)"><path
         id="path22"
         style="fill:#cccccc;fill-opacity:1;stroke:#000000;stroke-width:0.29196px;stroke-linecap:butt;stroke-linejoin:miter;stroke-opacity:1"
         d="m 1.0324379,23.080623 h -2.2489354 v -5.237848 c -0.6674639,0.635783 -1.5012044,0.379683 -2.4099141,0 -0.9239923,-0.382301 -1.727297,-0.382301 -2.4099141,0 v 5.237848 h -2.2489354 v 0.473074 h 9.317699 z"
         sodipodi:nodetypes="cccccccccc" /><path
         style="fill:url(#pattern20);fill-opacity:1;stroke:#000000;stroke-width:0.29242;stroke-dasharray:none"
         d="m 3.6210942,12.726895 v 9.85144 h 1.564453 V 12.338071 Z"
         id="path19"
         sodipodi:nodetypes="ccccc" /><path
         style="fill:none;stroke:#000000;stroke-width:0.29196px;stroke-linecap:butt;stroke-linejoin:miter;stroke-opacity:1"
         d="m -1.2164975,17.842775 c -0.2210167,-0.825447 -1.4907001,-0.241511 -2.4099141,0"
         id="path23"
         sodipodi:nodetypes="cc" /><path
         style="fill:url(#pattern27);fill-opacity:1;stroke:#000000;stroke-width:0.29196px;stroke-linecap:butt;stroke-linejoin:miter;stroke-opacity:1"
         d="m -8.2852611,23.553697 v 1.246512 l 9.317699,0.06007 v -1.306583"
         id="path24"
         sodipodi:nodetypes="cccc" /><path
         id="path26"
         style="fill:#cccccc;fill-opacity:1;stroke:#000000;stroke-width:0.29196px;stroke-linecap:butt;stroke-linejoin:miter;stroke-opacity:1"
         d="m 1.0324379,24.800209 v 0.805402 l -4.6588495,6.382303 -4.6588495,-6.382303 v -0.805402"
         sodipodi:nodetypes="ccccc" /></g><g
       id="g32"
       transform="translate(12.482273)"><path
         style="fill:none;stroke:#0000ff;stroke-width:0.165;stroke-linecap:butt;stroke-linejoin:miter;stroke-dasharray:none;stroke-opacity:1;marker-end:url(#ArrowWideRounded)"
         d="m 11.473977,22.614918 v 1.875337"
         id="path30" /><path
         style="fill:none;stroke:#0000ff;stroke-width:0.165;stroke-linecap:butt;stroke-linejoin:miter;stroke-dasharray:none;stroke-opacity:1;marker-end:url(#ArrowWideRounded)"
         d="m 12.051477,22.614918 v 1.875337"
         id="path31" /><path
         style="fill:none;stroke:#0000ff;stroke-width:0.165;stroke-linecap:butt;stroke-linejoin:miter;stroke-dasharray:none;stroke-opacity:1;marker-end:url(#ArrowWideRounded)"
         d="m 12.628977,22.614918 v 1.875337"
         id="path32" /></g><g
       id="g35"
       transform="matrix(1,0,0,-1,16.011741,49.154735)"><path
         style="fill:none;stroke:#0000ff;stroke-width:0.165;stroke-linecap:butt;stroke-linejoin:miter;stroke-dasharray:none;stroke-opacity:1;marker-end:url(#ArrowWideRounded)"
         d="m 11.473977,22.614918 v 1.875337"
         id="path33" /><path
         style="fill:none;stroke:#0000ff;stroke-width:0.165;stroke-linecap:butt;stroke-linejoin:miter;stroke-dasharray:none;stroke-opacity:1;marker-end:url(#ArrowWideRounded)"
         d="m 12.051477,22.614918 v 1.875337"
         id="path34" /><path
         style="fill:none;stroke:#0000ff;stroke-width:0.165;stroke-linecap:butt;stroke-linejoin:miter;stroke-dasharray:none;stroke-opacity:1;marker-end:url(#ArrowWideRounded)"
         d="m 12.628977,22.614918 v 1.875337"
         id="path35" /></g><g
       id="g38"
       transform="translate(16.480819,-19.764048)"><path
         style="fill:none;stroke:#0000ff;stroke-width:0.165;stroke-linecap:butt;stroke-linejoin:miter;stroke-dasharray:none;stroke-opacity:1;marker-end:url(#ArrowWideRounded)"
         d="m 11.473977,22.614918 v 1.875337"
         id="path36" /><path
         style="fill:none;stroke:#0000ff;stroke-width:0.165;stroke-linecap:butt;stroke-linejoin:miter;stroke-dasharray:none;stroke-opacity:1;marker-end:url(#ArrowWideRounded)"
         d="m 12.051477,22.614918 v 1.875337"
         id="path37" /><path
         style="fill:none;stroke:#0000ff;stroke-width:0.165;stroke-linecap:butt;stroke-linejoin:miter;stroke-dasharray:none;stroke-opacity:1;marker-end:url(#ArrowWideRounded)"
         d="m 12.628977,22.614918 v 1.875337"
         id="path38" /></g><g
       transform="matrix(0.352778,0,0,0.352778,29.892566,2.6990109)"
       ns2:version="1.10.2"
       ns2:texconverter="pdflatex"
       ns2:pdfconverter="inkscape"
       ns2:text="$u_3$"
       ns2:preamble="C:\Users\zamcr\AppData\Roaming\inkscape\extensions\textext\default_packages.tex"
       ns2:scale="1.0"
       ns2:alignment="middle center"
       ns2:stroke-to-path="0"
       ns2:inkscapeversion="1.4"
       ns2:jacobian_sqrt="0.352778"
       id="g41"
       style="fill:#0000ff"><defs
   id="id-b5bba98d-8ba5-4ce5-8303-100c142905da">
    <g
   id="id-9fbab831-b43d-4981-8bcf-ab4203589503">
      <g
   id="id-5973d960-eab7-4389-873b-04738b06892d">
        <path
   d="M 3.484375,-0.5625 C 3.59375,-0.15625 3.953125,0.109375 4.375,0.109375 4.71875,0.109375 4.953125,-0.125 5.109375,-0.4375 5.28125,-0.796875 5.40625,-1.40625 5.40625,-1.421875 c 0,-0.109375 -0.078125,-0.109375 -0.109375,-0.109375 -0.109375,0 -0.109375,0.046875 -0.140625,0.1875 -0.140625,0.5625 -0.328125,1.234375 -0.75,1.234375 -0.203125,0 -0.3125,-0.125 -0.3125,-0.453125 0,-0.21875 0.125,-0.6875 0.203125,-1.046875 L 4.578125,-2.6875 C 4.609375,-2.828125 4.703125,-3.203125 4.75,-3.359375 4.796875,-3.59375 4.890625,-3.96875 4.890625,-4.03125 c 0,-0.171875 -0.140625,-0.265625 -0.28125,-0.265625 -0.046875,0 -0.3125,0.015625 -0.390625,0.34375 -0.1875,0.734375 -0.625,2.484375 -0.75,3 -0.015625,0.046875 -0.40625,0.84375 -1.140625,0.84375 -0.515625,0 -0.609375,-0.453125 -0.609375,-0.8125 0,-0.5625 0.28125,-1.34375 0.53125,-2.03125 0.125,-0.3125 0.171875,-0.453125 0.171875,-0.640625 0,-0.4375 -0.3125,-0.8125 -0.8125,-0.8125 -0.953125,0 -1.3125,1.453125 -1.3125,1.53125 0,0.109375 0.09375,0.109375 0.109375,0.109375 0.109375,0 0.109375,-0.03125 0.15625,-0.1875 0.25,-0.859375 0.640625,-1.234375 1.015625,-1.234375 0.09375,0 0.25,0.015625 0.25,0.328125 0,0.234375 -0.109375,0.53125 -0.171875,0.671875 -0.375,1 -0.578125,1.609375 -0.578125,2.09375 0,0.953125 0.6875,1.203125 1.21875,1.203125 0.65625,0 1.015625,-0.453125 1.1875,-0.671875 z m 0,0"
   id="id-4e1439ad-272e-4a91-814e-ac1a9eaefc88" />
      </g>
      <g
   id="id-87096016-04c9-48de-88cf-05151bf25a28">
        <path
   d="m 1.90625,-2.328125 c 0.546875,0 0.9375,0.375 0.9375,1.125 0,0.859375 -0.515625,1.125 -0.90625,1.125 -0.28125,0 -0.90625,-0.078125 -1.1875,-0.5 0.328125,0 0.40625,-0.234375 0.40625,-0.390625 0,-0.21875 -0.171875,-0.375 -0.390625,-0.375 -0.1875,0 -0.390625,0.125 -0.390625,0.40625 0,0.65625 0.71875,1.078125 1.5625,1.078125 0.96875,0 1.640625,-0.65625 1.640625,-1.34375 0,-0.546875 -0.4375,-1.09375 -1.203125,-1.25 0.71875,-0.265625 0.984375,-0.78125 0.984375,-1.21875 0,-0.546875 -0.625,-0.953125 -1.40625,-0.953125 -0.765625,0 -1.359375,0.375 -1.359375,0.9375 0,0.234375 0.15625,0.359375 0.359375,0.359375 0.21875,0 0.359375,-0.15625 0.359375,-0.34375 0,-0.203125 -0.140625,-0.359375 -0.359375,-0.375 0.25,-0.296875 0.71875,-0.375 0.984375,-0.375 0.3125,0 0.75,0.15625 0.75,0.75 0,0.296875 -0.09375,0.625 -0.28125,0.828125 -0.21875,0.265625 -0.421875,0.28125 -0.765625,0.3125 -0.171875,0.015625 -0.1875,0.015625 -0.21875,0.015625 -0.015625,0 -0.078125,0.015625 -0.078125,0.09375 0,0.09375 0.0625,0.09375 0.1875,0.09375 z m 0,0"
   id="id-06642f7e-9538-4738-a2dd-e43259d50526" />
      </g>
    </g>
  </defs>
  <g
   fill="#000000"
   fill-opacity="1"
   id="id-8c5d0875-2d49-4323-adfd-e9efb05924dc"
   transform="translate(-149.009,-130.359)"
   style="fill:#0000ff">
    <g
   transform="translate(148.712,134.765)"
   id="g39"
   style="fill:#0000ff"><path
   d="M 3.484375,-0.5625 C 3.59375,-0.15625 3.953125,0.109375 4.375,0.109375 4.71875,0.109375 4.953125,-0.125 5.109375,-0.4375 5.28125,-0.796875 5.40625,-1.40625 5.40625,-1.421875 c 0,-0.109375 -0.078125,-0.109375 -0.109375,-0.109375 -0.109375,0 -0.109375,0.046875 -0.140625,0.1875 -0.140625,0.5625 -0.328125,1.234375 -0.75,1.234375 -0.203125,0 -0.3125,-0.125 -0.3125,-0.453125 0,-0.21875 0.125,-0.6875 0.203125,-1.046875 L 4.578125,-2.6875 C 4.609375,-2.828125 4.703125,-3.203125 4.75,-3.359375 4.796875,-3.59375 4.890625,-3.96875 4.890625,-4.03125 c 0,-0.171875 -0.140625,-0.265625 -0.28125,-0.265625 -0.046875,0 -0.3125,0.015625 -0.390625,0.34375 -0.1875,0.734375 -0.625,2.484375 -0.75,3 -0.015625,0.046875 -0.40625,0.84375 -1.140625,0.84375 -0.515625,0 -0.609375,-0.453125 -0.609375,-0.8125 0,-0.5625 0.28125,-1.34375 0.53125,-2.03125 0.125,-0.3125 0.171875,-0.453125 0.171875,-0.640625 0,-0.4375 -0.3125,-0.8125 -0.8125,-0.8125 -0.953125,0 -1.3125,1.453125 -1.3125,1.53125 0,0.109375 0.09375,0.109375 0.109375,0.109375 0.109375,0 0.109375,-0.03125 0.15625,-0.1875 0.25,-0.859375 0.640625,-1.234375 1.015625,-1.234375 0.09375,0 0.25,0.015625 0.25,0.328125 0,0.234375 -0.109375,0.53125 -0.171875,0.671875 -0.375,1 -0.578125,1.609375 -0.578125,2.09375 0,0.953125 0.6875,1.203125 1.21875,1.203125 0.65625,0 1.015625,-0.453125 1.1875,-0.671875 z m 0,0"
   id="id-9b65827b-10dd-47ac-856d-497e2242e63b"
   style="fill:#0000ff" />
      </g></g>
  <g
   fill="#000000"
   fill-opacity="1"
   id="id-28c13243-a51c-4a05-86fe-b6f3aedad0de"
   transform="translate(-149.009,-130.359)"
   style="fill:#0000ff">
    <g
   transform="translate(154.415,136.259)"
   id="g40"
   style="fill:#0000ff"><path
   d="m 1.90625,-2.328125 c 0.546875,0 0.9375,0.375 0.9375,1.125 0,0.859375 -0.515625,1.125 -0.90625,1.125 -0.28125,0 -0.90625,-0.078125 -1.1875,-0.5 0.328125,0 0.40625,-0.234375 0.40625,-0.390625 0,-0.21875 -0.171875,-0.375 -0.390625,-0.375 -0.1875,0 -0.390625,0.125 -0.390625,0.40625 0,0.65625 0.71875,1.078125 1.5625,1.078125 0.96875,0 1.640625,-0.65625 1.640625,-1.34375 0,-0.546875 -0.4375,-1.09375 -1.203125,-1.25 0.71875,-0.265625 0.984375,-0.78125 0.984375,-1.21875 0,-0.546875 -0.625,-0.953125 -1.40625,-0.953125 -0.765625,0 -1.359375,0.375 -1.359375,0.9375 0,0.234375 0.15625,0.359375 0.359375,0.359375 0.21875,0 0.359375,-0.15625 0.359375,-0.34375 0,-0.203125 -0.140625,-0.359375 -0.359375,-0.375 0.25,-0.296875 0.71875,-0.375 0.984375,-0.375 0.3125,0 0.75,0.15625 0.75,0.75 0,0.296875 -0.09375,0.625 -0.28125,0.828125 -0.21875,0.265625 -0.421875,0.28125 -0.765625,0.3125 -0.171875,0.015625 -0.1875,0.015625 -0.21875,0.015625 -0.015625,0 -0.078125,0.015625 -0.078125,0.09375 0,0.09375 0.0625,0.09375 0.1875,0.09375 z m 0,0"
   id="id-21c3f522-2bc6-412b-ab3f-3ec6ee04be73"
   style="fill:#0000ff" />
      </g></g>
</g><text
       xml:space="preserve"
       style="font-size:3.175px;line-height:0.95;font-family:'Times New Roman';-inkscape-font-specification:'Times New Roman, ';stroke-width:0.264583"
       x="33.596489"
       y="9.7867785"
       id="text49"><tspan
         sodipodi:role="line"
         id="tspan49"
         style="stroke-width:0.264583"
         x="33.596489"
         y="9.7867785">Sleeve</tspan></text><path
       style="fill:none;stroke:#000000;stroke-width:0.264583px;stroke-linecap:butt;stroke-linejoin:miter;stroke-opacity:1"
       d="M 33.253964,8.9203579 H 28.968962"
       id="path49" /><text
       xml:space="preserve"
       style="font-size:3.175px;line-height:0.95;font-family:'Times New Roman';-inkscape-font-specification:'Times New Roman, ';stroke-width:0.264583"
       x="33.596489"
       y="20.617437"
       id="text50"><tspan
         sodipodi:role="line"
         id="tspan50"
         style="stroke-width:0.264583"
         x="33.596489"
         y="20.617437">Sleeve</tspan></text><path
       style="fill:none;stroke:#000000;stroke-width:0.264583px;stroke-linecap:butt;stroke-linejoin:miter;stroke-opacity:1"
       d="M 33.253964,19.6715 H 28.968962"
       id="path50" /><text
       xml:space="preserve"
       style="font-size:3.175px;line-height:0.95;font-family:'Times New Roman';-inkscape-font-specification:'Times New Roman, ';white-space:pre;inline-size:24.6079;display:inline;stroke-width:0.264583"
       x="32.559467"
       y="29.075241"
       id="text51"
       transform="translate(-1.6820388,0.76992913)"><tspan
         x="32.559467"
         y="29.075241"
         id="tspan6">Cone cross </tspan><tspan
         x="32.559467"
         y="32.091492"
         id="tspan7">sectional area</tspan></text><g
       transform="matrix(0.352778,0,0,0.352778,19.466987,28.017707)"
       ns2:version="1.10.2"
       ns2:texconverter="pdflatex"
       ns2:pdfconverter="inkscape"
       ns2:text="$A_c$"
       ns2:preamble="C:\Users\zamcr\AppData\Roaming\inkscape\extensions\textext\default_packages.tex"
       ns2:scale="1.0"
       ns2:alignment="middle center"
       ns2:stroke-to-path="0"
       ns2:inkscapeversion="1.4"
       ns2:jacobian_sqrt="0.352778"
       id="g53"><defs
   id="id-dd15faef-c710-424e-a125-bf6334f41c1d">
    <g
   id="id-bdc7462c-f754-432a-951b-9bc98321cad8">
      <g
   id="id-d06cec09-2ef1-4cac-a369-a6317890c38d">
        <path
   d="M 1.78125,-1.140625 C 1.390625,-0.484375 1,-0.34375 0.5625,-0.3125 0.4375,-0.296875 0.34375,-0.296875 0.34375,-0.109375 0.34375,-0.046875 0.40625,0 0.484375,0 0.75,0 1.0625,-0.03125 1.328125,-0.03125 c 0.34375,0 0.6875,0.03125 1,0.03125 0.0625,0 0.1875,0 0.1875,-0.1875 0,-0.109375 -0.078125,-0.125 -0.15625,-0.125 -0.21875,-0.015625 -0.46875,-0.09375 -0.46875,-0.34375 0,-0.125 0.0625,-0.234375 0.140625,-0.375 l 0.765625,-1.265625 h 2.5 c 0.015625,0.203125 0.15625,1.5625 0.15625,1.65625 0,0.296875 -0.515625,0.328125 -0.71875,0.328125 C 4.59375,-0.3125 4.5,-0.3125 4.5,-0.109375 4.5,0 4.609375,0 4.640625,0 5.046875,0 5.46875,-0.03125 5.875,-0.03125 6.125,-0.03125 6.765625,0 7.015625,0 7.0625,0 7.1875,0 7.1875,-0.203125 7.1875,-0.3125 7.09375,-0.3125 6.953125,-0.3125 6.34375,-0.3125 6.34375,-0.375 6.3125,-0.671875 l -0.609375,-6.21875 c -0.015625,-0.203125 -0.015625,-0.25 -0.1875,-0.25 -0.15625,0 -0.203125,0.078125 -0.265625,0.171875 z M 2.984375,-2.609375 4.9375,-5.90625 5.265625,-2.609375 Z m 0,0"
   id="id-ba51388f-04da-473f-a805-5e7412c94b16" />
      </g>
      <g
   id="id-9181db16-a1b2-46ec-84d2-7beaadb70fea">
        <path
   d="m 3.046875,-2.671875 c -0.25,0.046875 -0.34375,0.234375 -0.34375,0.390625 0,0.1875 0.140625,0.265625 0.265625,0.265625 0.15625,0 0.390625,-0.109375 0.390625,-0.453125 0,-0.46875 -0.53125,-0.609375 -0.90625,-0.609375 -1.046875,0 -2.015625,0.96875 -2.015625,1.9375 0,0.59375 0.40625,1.203125 1.28125,1.203125 1.1875,0 1.734375,-0.6875 1.734375,-0.78125 0,-0.046875 -0.0625,-0.125 -0.125,-0.125 -0.03125,0 -0.046875,0.015625 -0.109375,0.078125 C 2.671875,-0.125 1.859375,-0.125 1.734375,-0.125 c -0.5,0 -0.71875,-0.34375 -0.71875,-0.78125 0,-0.1875 0.09375,-0.953125 0.453125,-1.4375 0.265625,-0.34375 0.625,-0.53125 0.984375,-0.53125 0.09375,0 0.421875,0.015625 0.59375,0.203125 z m 0,0"
   id="id-69692852-2fc8-422f-b462-66dd89835d0d" />
      </g>
    </g>
  </defs>
  <g
   fill="#000000"
   fill-opacity="1"
   id="id-16b478a5-6cb6-4efc-8f58-fb5a582f49f1"
   transform="translate(-149.056,-127.624)">
    <g
   transform="translate(148.712,134.765)"
   id="g51"><path
   d="M 1.78125,-1.140625 C 1.390625,-0.484375 1,-0.34375 0.5625,-0.3125 0.4375,-0.296875 0.34375,-0.296875 0.34375,-0.109375 0.34375,-0.046875 0.40625,0 0.484375,0 0.75,0 1.0625,-0.03125 1.328125,-0.03125 c 0.34375,0 0.6875,0.03125 1,0.03125 0.0625,0 0.1875,0 0.1875,-0.1875 0,-0.109375 -0.078125,-0.125 -0.15625,-0.125 -0.21875,-0.015625 -0.46875,-0.09375 -0.46875,-0.34375 0,-0.125 0.0625,-0.234375 0.140625,-0.375 l 0.765625,-1.265625 h 2.5 c 0.015625,0.203125 0.15625,1.5625 0.15625,1.65625 0,0.296875 -0.515625,0.328125 -0.71875,0.328125 C 4.59375,-0.3125 4.5,-0.3125 4.5,-0.109375 4.5,0 4.609375,0 4.640625,0 5.046875,0 5.46875,-0.03125 5.875,-0.03125 6.125,-0.03125 6.765625,0 7.015625,0 7.0625,0 7.1875,0 7.1875,-0.203125 7.1875,-0.3125 7.09375,-0.3125 6.953125,-0.3125 6.34375,-0.3125 6.34375,-0.375 6.3125,-0.671875 l -0.609375,-6.21875 c -0.015625,-0.203125 -0.015625,-0.25 -0.1875,-0.25 -0.15625,0 -0.203125,0.078125 -0.265625,0.171875 z M 2.984375,-2.609375 4.9375,-5.90625 5.265625,-2.609375 Z m 0,0"
   id="id-f2700f2f-efc9-4475-8b7e-874979ade12b" />
      </g></g>
  <g
   fill="#000000"
   fill-opacity="1"
   id="id-cab51f79-0e72-412a-869e-eeb94e744899"
   transform="translate(-149.056,-127.624)">
    <g
   transform="translate(156.184,136.259)"
   id="g52"><path
   d="m 3.046875,-2.671875 c -0.25,0.046875 -0.34375,0.234375 -0.34375,0.390625 0,0.1875 0.140625,0.265625 0.265625,0.265625 0.15625,0 0.390625,-0.109375 0.390625,-0.453125 0,-0.46875 -0.53125,-0.609375 -0.90625,-0.609375 -1.046875,0 -2.015625,0.96875 -2.015625,1.9375 0,0.59375 0.40625,1.203125 1.28125,1.203125 1.1875,0 1.734375,-0.6875 1.734375,-0.78125 0,-0.046875 -0.0625,-0.125 -0.125,-0.125 -0.03125,0 -0.046875,0.015625 -0.109375,0.078125 C 2.671875,-0.125 1.859375,-0.125 1.734375,-0.125 c -0.5,0 -0.71875,-0.34375 -0.71875,-0.78125 0,-0.1875 0.09375,-0.953125 0.453125,-1.4375 0.265625,-0.34375 0.625,-0.53125 0.984375,-0.53125 0.09375,0 0.421875,0.015625 0.59375,0.203125 z m 0,0"
   id="id-310fcf9e-d3a0-40e6-a7f4-2965ed786e21" />
      </g></g>
</g><path
       style="fill:none;stroke:#000000;stroke-width:0.264583px;stroke-linecap:butt;stroke-linejoin:miter;stroke-opacity:1"
       d="m 29.892522,29.725023 -5.967147,0.120146"
       id="path53"
       sodipodi:nodetypes="cc" /><g
       transform="matrix(0.352778 0 0 0.352778 29.9036 24.4335)"
       ns2:version="1.10.2"
       ns2:texconverter="pdflatex"
       ns2:pdfconverter="inkscape"
       ns2:text="$u_2$"
       ns2:preamble="C:\Users\zamcr\AppData\Roaming\inkscape\extensions\textext\default_packages.tex"
       ns2:scale="1.0"
       ns2:alignment="middle center"
       ns2:stroke-to-path="0"
       ns2:inkscapeversion="1.4"
       ns2:jacobian_sqrt="0.352778"
       style="fill:#0000ff;stroke-width:0"
       id="g49"><defs
   id="id-6067abd9-d285-43b8-81b0-f2ee8b7c0cb4"
   style="fill:#0000ff;stroke-width:0">
    <g
   id="id-8f4ef7c6-7836-40ff-afd5-303d99555041"
   style="fill:#0000ff;stroke-width:0">
      <g
   id="id-fd9092fe-403b-47c2-a822-ea663fdb175a"
   style="fill:#0000ff;stroke-width:0">
        <path
   d="M 3.484375,-0.5625 C 3.59375,-0.15625 3.953125,0.109375 4.375,0.109375 4.71875,0.109375 4.953125,-0.125 5.109375,-0.4375 5.28125,-0.796875 5.40625,-1.40625 5.40625,-1.421875 c 0,-0.109375 -0.078125,-0.109375 -0.109375,-0.109375 -0.109375,0 -0.109375,0.046875 -0.140625,0.1875 -0.140625,0.5625 -0.328125,1.234375 -0.75,1.234375 -0.203125,0 -0.3125,-0.125 -0.3125,-0.453125 0,-0.21875 0.125,-0.6875 0.203125,-1.046875 L 4.578125,-2.6875 C 4.609375,-2.828125 4.703125,-3.203125 4.75,-3.359375 4.796875,-3.59375 4.890625,-3.96875 4.890625,-4.03125 c 0,-0.171875 -0.140625,-0.265625 -0.28125,-0.265625 -0.046875,0 -0.3125,0.015625 -0.390625,0.34375 -0.1875,0.734375 -0.625,2.484375 -0.75,3 -0.015625,0.046875 -0.40625,0.84375 -1.140625,0.84375 -0.515625,0 -0.609375,-0.453125 -0.609375,-0.8125 0,-0.5625 0.28125,-1.34375 0.53125,-2.03125 0.125,-0.3125 0.171875,-0.453125 0.171875,-0.640625 0,-0.4375 -0.3125,-0.8125 -0.8125,-0.8125 -0.953125,0 -1.3125,1.453125 -1.3125,1.53125 0,0.109375 0.09375,0.109375 0.109375,0.109375 0.109375,0 0.109375,-0.03125 0.15625,-0.1875 0.25,-0.859375 0.640625,-1.234375 1.015625,-1.234375 0.09375,0 0.25,0.015625 0.25,0.328125 0,0.234375 -0.109375,0.53125 -0.171875,0.671875 -0.375,1 -0.578125,1.609375 -0.578125,2.09375 0,0.953125 0.6875,1.203125 1.21875,1.203125 0.65625,0 1.015625,-0.453125 1.1875,-0.671875 z m 0,0"
   id="id-67134e5e-6bd1-47ee-b8d8-1faf04134175"
   style="fill:#0000ff;stroke-width:0" />
      </g>
      <g
   id="id-a9697060-455d-4106-b1e7-60e746a0c74a"
   style="fill:#0000ff;stroke-width:0">
        <path
   d="M 3.515625,-1.265625 H 3.28125 c -0.015625,0.15625 -0.09375,0.5625 -0.1875,0.625 C 3.046875,-0.59375 2.515625,-0.59375 2.40625,-0.59375 H 1.125 c 0.734375,-0.640625 0.984375,-0.84375 1.390625,-1.171875 0.515625,-0.40625 1,-0.84375 1,-1.5 0,-0.84375 -0.734375,-1.359375 -1.625,-1.359375 -0.859375,0 -1.453125,0.609375 -1.453125,1.25 0,0.34375 0.296875,0.390625 0.375,0.390625 0.15625,0 0.359375,-0.125 0.359375,-0.375 0,-0.125 -0.046875,-0.375 -0.40625,-0.375 C 0.984375,-4.21875 1.453125,-4.375 1.78125,-4.375 c 0.703125,0 1.0625,0.546875 1.0625,1.109375 0,0.609375 -0.4375,1.078125 -0.65625,1.328125 L 0.515625,-0.265625 C 0.4375,-0.203125 0.4375,-0.1875 0.4375,0 h 2.875 z m 0,0"
   id="id-cb19da8f-1b05-4b37-9015-0610fb88d147"
   style="fill:#0000ff;stroke-width:0" />
      </g>
    </g>
  </defs>
  <g
   fill-opacity="1"
   id="id-f2734272-dcf5-43a2-85eb-27c4d03b0efb"
   transform="translate(-149.009, -130.359)"
   style="fill:#0000ff;stroke-width:0">
    <g
   transform="translate(148.712, 134.765)"
   style="fill:#0000ff;stroke-width:0"
   id="g54"><path
   d="M 3.484375,-0.5625 C 3.59375,-0.15625 3.953125,0.109375 4.375,0.109375 4.71875,0.109375 4.953125,-0.125 5.109375,-0.4375 5.28125,-0.796875 5.40625,-1.40625 5.40625,-1.421875 c 0,-0.109375 -0.078125,-0.109375 -0.109375,-0.109375 -0.109375,0 -0.109375,0.046875 -0.140625,0.1875 -0.140625,0.5625 -0.328125,1.234375 -0.75,1.234375 -0.203125,0 -0.3125,-0.125 -0.3125,-0.453125 0,-0.21875 0.125,-0.6875 0.203125,-1.046875 L 4.578125,-2.6875 C 4.609375,-2.828125 4.703125,-3.203125 4.75,-3.359375 4.796875,-3.59375 4.890625,-3.96875 4.890625,-4.03125 c 0,-0.171875 -0.140625,-0.265625 -0.28125,-0.265625 -0.046875,0 -0.3125,0.015625 -0.390625,0.34375 -0.1875,0.734375 -0.625,2.484375 -0.75,3 -0.015625,0.046875 -0.40625,0.84375 -1.140625,0.84375 -0.515625,0 -0.609375,-0.453125 -0.609375,-0.8125 0,-0.5625 0.28125,-1.34375 0.53125,-2.03125 0.125,-0.3125 0.171875,-0.453125 0.171875,-0.640625 0,-0.4375 -0.3125,-0.8125 -0.8125,-0.8125 -0.953125,0 -1.3125,1.453125 -1.3125,1.53125 0,0.109375 0.09375,0.109375 0.109375,0.109375 0.109375,0 0.109375,-0.03125 0.15625,-0.1875 0.25,-0.859375 0.640625,-1.234375 1.015625,-1.234375 0.09375,0 0.25,0.015625 0.25,0.328125 0,0.234375 -0.109375,0.53125 -0.171875,0.671875 -0.375,1 -0.578125,1.609375 -0.578125,2.09375 0,0.953125 0.6875,1.203125 1.21875,1.203125 0.65625,0 1.015625,-0.453125 1.1875,-0.671875 z m 0,0"
   id="id-d28176c7-15e6-4e3b-b625-f6710ccb8ff6"
   style="fill:#0000ff;stroke-width:0" />
      </g></g>
  <g
   fill-opacity="1"
   id="id-5a5d943a-5b0d-4225-9f81-b50de26df7a0"
   transform="translate(-149.009, -130.359)"
   style="fill:#0000ff;stroke-width:0">
    <g
   transform="translate(154.415, 136.259)"
   style="fill:#0000ff;stroke-width:0"
   id="g55"><path
   d="M 3.515625,-1.265625 H 3.28125 c -0.015625,0.15625 -0.09375,0.5625 -0.1875,0.625 C 3.046875,-0.59375 2.515625,-0.59375 2.40625,-0.59375 H 1.125 c 0.734375,-0.640625 0.984375,-0.84375 1.390625,-1.171875 0.515625,-0.40625 1,-0.84375 1,-1.5 0,-0.84375 -0.734375,-1.359375 -1.625,-1.359375 -0.859375,0 -1.453125,0.609375 -1.453125,1.25 0,0.34375 0.296875,0.390625 0.375,0.390625 0.15625,0 0.359375,-0.125 0.359375,-0.375 0,-0.125 -0.046875,-0.375 -0.40625,-0.375 C 0.984375,-4.21875 1.453125,-4.375 1.78125,-4.375 c 0.703125,0 1.0625,0.546875 1.0625,1.109375 0,0.609375 -0.4375,1.078125 -0.65625,1.328125 L 0.515625,-0.265625 C 0.4375,-0.203125 0.4375,-0.1875 0.4375,0 h 2.875 z m 0,0"
   id="id-f3a70cb4-19a8-4b96-9d44-c31bbf103330"
   style="fill:#0000ff;stroke-width:0" />
      </g></g>
</g><g
       transform="matrix(0.352778,0,0,0.352778,23.826346,20.17192)"
       ns2:version="1.10.2"
       ns2:texconverter="pdflatex"
       ns2:pdfconverter="inkscape"
       ns2:text="$u_2$"
       ns2:preamble="C:\Users\zamcr\AppData\Roaming\inkscape\extensions\textext\default_packages.tex"
       ns2:scale="1.0"
       ns2:alignment="middle center"
       ns2:stroke-to-path="0"
       ns2:inkscapeversion="1.4"
       ns2:jacobian_sqrt="0.352778"
       style="fill:#0000ff;stroke-width:0"
       id="g63"><defs
   id="defs58"
   style="fill:#0000ff;stroke-width:0">
    <g
   id="g58"
   style="fill:#0000ff;stroke-width:0">
      <g
   id="g56"
   style="fill:#0000ff;stroke-width:0">
        <path
   d="M 3.484375,-0.5625 C 3.59375,-0.15625 3.953125,0.109375 4.375,0.109375 4.71875,0.109375 4.953125,-0.125 5.109375,-0.4375 5.28125,-0.796875 5.40625,-1.40625 5.40625,-1.421875 c 0,-0.109375 -0.078125,-0.109375 -0.109375,-0.109375 -0.109375,0 -0.109375,0.046875 -0.140625,0.1875 -0.140625,0.5625 -0.328125,1.234375 -0.75,1.234375 -0.203125,0 -0.3125,-0.125 -0.3125,-0.453125 0,-0.21875 0.125,-0.6875 0.203125,-1.046875 L 4.578125,-2.6875 C 4.609375,-2.828125 4.703125,-3.203125 4.75,-3.359375 4.796875,-3.59375 4.890625,-3.96875 4.890625,-4.03125 c 0,-0.171875 -0.140625,-0.265625 -0.28125,-0.265625 -0.046875,0 -0.3125,0.015625 -0.390625,0.34375 -0.1875,0.734375 -0.625,2.484375 -0.75,3 -0.015625,0.046875 -0.40625,0.84375 -1.140625,0.84375 -0.515625,0 -0.609375,-0.453125 -0.609375,-0.8125 0,-0.5625 0.28125,-1.34375 0.53125,-2.03125 0.125,-0.3125 0.171875,-0.453125 0.171875,-0.640625 0,-0.4375 -0.3125,-0.8125 -0.8125,-0.8125 -0.953125,0 -1.3125,1.453125 -1.3125,1.53125 0,0.109375 0.09375,0.109375 0.109375,0.109375 0.109375,0 0.109375,-0.03125 0.15625,-0.1875 0.25,-0.859375 0.640625,-1.234375 1.015625,-1.234375 0.09375,0 0.25,0.015625 0.25,0.328125 0,0.234375 -0.109375,0.53125 -0.171875,0.671875 -0.375,1 -0.578125,1.609375 -0.578125,2.09375 0,0.953125 0.6875,1.203125 1.21875,1.203125 0.65625,0 1.015625,-0.453125 1.1875,-0.671875 z m 0,0"
   id="path55"
   style="fill:#0000ff;stroke-width:0" />
      </g>
      <g
   id="g57"
   style="fill:#0000ff;stroke-width:0">
        <path
   d="M 3.515625,-1.265625 H 3.28125 c -0.015625,0.15625 -0.09375,0.5625 -0.1875,0.625 C 3.046875,-0.59375 2.515625,-0.59375 2.40625,-0.59375 H 1.125 c 0.734375,-0.640625 0.984375,-0.84375 1.390625,-1.171875 0.515625,-0.40625 1,-0.84375 1,-1.5 0,-0.84375 -0.734375,-1.359375 -1.625,-1.359375 -0.859375,0 -1.453125,0.609375 -1.453125,1.25 0,0.34375 0.296875,0.390625 0.375,0.390625 0.15625,0 0.359375,-0.125 0.359375,-0.375 0,-0.125 -0.046875,-0.375 -0.40625,-0.375 C 0.984375,-4.21875 1.453125,-4.375 1.78125,-4.375 c 0.703125,0 1.0625,0.546875 1.0625,1.109375 0,0.609375 -0.4375,1.078125 -0.65625,1.328125 L 0.515625,-0.265625 C 0.4375,-0.203125 0.4375,-0.1875 0.4375,0 h 2.875 z m 0,0"
   id="path56"
   style="fill:#0000ff;stroke-width:0" />
      </g>
    </g>
  </defs>
  <g
   fill-opacity="1"
   id="g60"
   transform="translate(-149.009,-130.359)"
   style="fill:#0000ff;stroke-width:0">
    <g
   transform="translate(148.712,134.765)"
   style="fill:#0000ff;stroke-width:0"
   id="g59"><path
   d="M 3.484375,-0.5625 C 3.59375,-0.15625 3.953125,0.109375 4.375,0.109375 4.71875,0.109375 4.953125,-0.125 5.109375,-0.4375 5.28125,-0.796875 5.40625,-1.40625 5.40625,-1.421875 c 0,-0.109375 -0.078125,-0.109375 -0.109375,-0.109375 -0.109375,0 -0.109375,0.046875 -0.140625,0.1875 -0.140625,0.5625 -0.328125,1.234375 -0.75,1.234375 -0.203125,0 -0.3125,-0.125 -0.3125,-0.453125 0,-0.21875 0.125,-0.6875 0.203125,-1.046875 L 4.578125,-2.6875 C 4.609375,-2.828125 4.703125,-3.203125 4.75,-3.359375 4.796875,-3.59375 4.890625,-3.96875 4.890625,-4.03125 c 0,-0.171875 -0.140625,-0.265625 -0.28125,-0.265625 -0.046875,0 -0.3125,0.015625 -0.390625,0.34375 -0.1875,0.734375 -0.625,2.484375 -0.75,3 -0.015625,0.046875 -0.40625,0.84375 -1.140625,0.84375 -0.515625,0 -0.609375,-0.453125 -0.609375,-0.8125 0,-0.5625 0.28125,-1.34375 0.53125,-2.03125 0.125,-0.3125 0.171875,-0.453125 0.171875,-0.640625 0,-0.4375 -0.3125,-0.8125 -0.8125,-0.8125 -0.953125,0 -1.3125,1.453125 -1.3125,1.53125 0,0.109375 0.09375,0.109375 0.109375,0.109375 0.109375,0 0.109375,-0.03125 0.15625,-0.1875 0.25,-0.859375 0.640625,-1.234375 1.015625,-1.234375 0.09375,0 0.25,0.015625 0.25,0.328125 0,0.234375 -0.109375,0.53125 -0.171875,0.671875 -0.375,1 -0.578125,1.609375 -0.578125,2.09375 0,0.953125 0.6875,1.203125 1.21875,1.203125 0.65625,0 1.015625,-0.453125 1.1875,-0.671875 z m 0,0"
   id="path58"
   style="fill:#0000ff;stroke-width:0" />
      </g></g>
  <g
   fill-opacity="1"
   id="g62"
   transform="translate(-149.009,-130.359)"
   style="fill:#0000ff;stroke-width:0">
    <g
   transform="translate(154.415,136.259)"
   style="fill:#0000ff;stroke-width:0"
   id="g61"><path
   d="M 3.515625,-1.265625 H 3.28125 c -0.015625,0.15625 -0.09375,0.5625 -0.1875,0.625 C 3.046875,-0.59375 2.515625,-0.59375 2.40625,-0.59375 H 1.125 c 0.734375,-0.640625 0.984375,-0.84375 1.390625,-1.171875 0.515625,-0.40625 1,-0.84375 1,-1.5 0,-0.84375 -0.734375,-1.359375 -1.625,-1.359375 -0.859375,0 -1.453125,0.609375 -1.453125,1.25 0,0.34375 0.296875,0.390625 0.375,0.390625 0.15625,0 0.359375,-0.125 0.359375,-0.375 0,-0.125 -0.046875,-0.375 -0.40625,-0.375 C 0.984375,-4.21875 1.453125,-4.375 1.78125,-4.375 c 0.703125,0 1.0625,0.546875 1.0625,1.109375 0,0.609375 -0.4375,1.078125 -0.65625,1.328125 L 0.515625,-0.265625 C 0.4375,-0.203125 0.4375,-0.1875 0.4375,0 h 2.875 z m 0,0"
   id="path60"
   style="fill:#0000ff;stroke-width:0" />
      </g></g>
</g><circle
       style="fill:#000000;fill-opacity:1;stroke:#000000;stroke-width:0.264999;stroke-linecap:round;stroke-miterlimit:4.1;stroke-dasharray:none;paint-order:markers fill stroke"
       id="circle63"
       cx="19.402243"
       cy="23.267267"
       r="0.19115053" /><text
       xml:space="preserve"
       style="font-size:3.175px;line-height:0.95;font-family:'Times New Roman';-inkscape-font-specification:'Times New Roman, ';white-space:pre;inline-size:16.3053;display:inline;fill:#008000;stroke-width:0.264583"
       x="5.2672591"
       y="22.943617"
       id="text63"
       transform="translate(-3.3372102,-1.9356963)"><tspan
         x="5.2672591"
         y="22.943617"
         id="tspan8">Neck cross </tspan><tspan
         x="5.2672591"
         y="25.959868"
         id="tspan9">sectional </tspan><tspan
         x="5.2672591"
         y="28.976119"
         id="tspan10">area</tspan></text><g
       transform="matrix(0.352778 0 0 0.352778 19.2685 20.7533)"
       ns2:version="1.10.2"
       ns2:texconverter="pdflatex"
       ns2:pdfconverter="inkscape"
       ns2:text="$A_n$"
       ns2:preamble="C:\Users\zamcr\AppData\Roaming\inkscape\extensions\textext\default_packages.tex"
       ns2:scale="1.0"
       ns2:alignment="middle center"
       ns2:stroke-to-path="0"
       ns2:inkscapeversion="1.4"
       ns2:jacobian_sqrt="0.352778"
       id="g73"
       style="fill:#008000"><defs
   id="id-729b326a-9f79-4002-bde7-50a60c2643ed">
    <g
   id="id-ec92f53a-2fce-47c2-9bdb-c945e6fbcc8a">
      <g
   id="id-ce095bca-3bd4-4659-872a-3c4a15ba426c">
        <path
   d="M 1.78125,-1.140625 C 1.390625,-0.484375 1,-0.34375 0.5625,-0.3125 0.4375,-0.296875 0.34375,-0.296875 0.34375,-0.109375 0.34375,-0.046875 0.40625,0 0.484375,0 0.75,0 1.0625,-0.03125 1.328125,-0.03125 c 0.34375,0 0.6875,0.03125 1,0.03125 0.0625,0 0.1875,0 0.1875,-0.1875 0,-0.109375 -0.078125,-0.125 -0.15625,-0.125 -0.21875,-0.015625 -0.46875,-0.09375 -0.46875,-0.34375 0,-0.125 0.0625,-0.234375 0.140625,-0.375 l 0.765625,-1.265625 h 2.5 c 0.015625,0.203125 0.15625,1.5625 0.15625,1.65625 0,0.296875 -0.515625,0.328125 -0.71875,0.328125 C 4.59375,-0.3125 4.5,-0.3125 4.5,-0.109375 4.5,0 4.609375,0 4.640625,0 5.046875,0 5.46875,-0.03125 5.875,-0.03125 6.125,-0.03125 6.765625,0 7.015625,0 7.0625,0 7.1875,0 7.1875,-0.203125 7.1875,-0.3125 7.09375,-0.3125 6.953125,-0.3125 6.34375,-0.3125 6.34375,-0.375 6.3125,-0.671875 l -0.609375,-6.21875 c -0.015625,-0.203125 -0.015625,-0.25 -0.1875,-0.25 -0.15625,0 -0.203125,0.078125 -0.265625,0.171875 z M 2.984375,-2.609375 4.9375,-5.90625 5.265625,-2.609375 Z m 0,0"
   id="id-09a7c54c-2b8e-45fb-bece-2072d9047cb9" />
      </g>
      <g
   id="id-151a94fd-8aa2-4364-ab3c-6b2219f56bc5">
        <path
   d="m 0.84375,-0.4375 c -0.015625,0.09375 -0.0625,0.265625 -0.0625,0.28125 0,0.15625 0.125,0.21875 0.234375,0.21875 0.125,0 0.234375,-0.078125 0.28125,-0.140625 0.03125,-0.0625 0.078125,-0.296875 0.125,-0.4375 0.03125,-0.125 0.109375,-0.453125 0.140625,-0.625 0.046875,-0.15625 0.09375,-0.3125 0.125,-0.46875 0.078125,-0.28125 0.09375,-0.34375 0.296875,-0.625 C 2.171875,-2.515625 2.5,-2.875 3.03125,-2.875 c 0.390625,0 0.40625,0.359375 0.40625,0.484375 0,0.421875 -0.296875,1.1875 -0.40625,1.484375 -0.078125,0.203125 -0.109375,0.265625 -0.109375,0.375 0,0.375 0.296875,0.59375 0.65625,0.59375 0.703125,0 1,-0.953125 1,-1.0625 0,-0.09375 -0.078125,-0.09375 -0.109375,-0.09375 -0.09375,0 -0.09375,0.046875 -0.125,0.125 C 4.1875,-0.40625 3.875,-0.125 3.609375,-0.125 c -0.15625,0 -0.1875,-0.09375 -0.1875,-0.25 0,-0.15625 0.046875,-0.25 0.171875,-0.5625 0.078125,-0.21875 0.359375,-0.953125 0.359375,-1.34375 0,-0.671875 -0.53125,-0.796875 -0.90625,-0.796875 -0.578125,0 -0.96875,0.359375 -1.171875,0.640625 -0.046875,-0.484375 -0.453125,-0.640625 -0.75,-0.640625 -0.296875,0 -0.453125,0.21875 -0.546875,0.375 -0.15625,0.265625 -0.25,0.65625 -0.25,0.703125 0,0.078125 0.09375,0.078125 0.125,0.078125 0.09375,0 0.09375,-0.015625 0.140625,-0.203125 0.109375,-0.40625 0.25,-0.75 0.515625,-0.75 0.1875,0 0.234375,0.15625 0.234375,0.34375 0,0.125 -0.0625,0.390625 -0.125,0.578125 -0.046875,0.1875 -0.109375,0.46875 -0.140625,0.625 z m 0,0"
   id="id-c011aa17-7c92-4e4b-a2c2-12b7a5d93f07" />
      </g>
    </g>
  </defs>
  <g
   fill="#000000"
   fill-opacity="1"
   id="id-1676ac5d-4d84-49f9-9717-f0ea27ccaaf4"
   transform="translate(-149.056, -127.624)"
   style="fill:#008000">
    <g
   transform="translate(148.712, 134.765)"
   id="g71"
   style="fill:#008000"><path
   d="M 1.78125,-1.140625 C 1.390625,-0.484375 1,-0.34375 0.5625,-0.3125 0.4375,-0.296875 0.34375,-0.296875 0.34375,-0.109375 0.34375,-0.046875 0.40625,0 0.484375,0 0.75,0 1.0625,-0.03125 1.328125,-0.03125 c 0.34375,0 0.6875,0.03125 1,0.03125 0.0625,0 0.1875,0 0.1875,-0.1875 0,-0.109375 -0.078125,-0.125 -0.15625,-0.125 -0.21875,-0.015625 -0.46875,-0.09375 -0.46875,-0.34375 0,-0.125 0.0625,-0.234375 0.140625,-0.375 l 0.765625,-1.265625 h 2.5 c 0.015625,0.203125 0.15625,1.5625 0.15625,1.65625 0,0.296875 -0.515625,0.328125 -0.71875,0.328125 C 4.59375,-0.3125 4.5,-0.3125 4.5,-0.109375 4.5,0 4.609375,0 4.640625,0 5.046875,0 5.46875,-0.03125 5.875,-0.03125 6.125,-0.03125 6.765625,0 7.015625,0 7.0625,0 7.1875,0 7.1875,-0.203125 7.1875,-0.3125 7.09375,-0.3125 6.953125,-0.3125 6.34375,-0.3125 6.34375,-0.375 6.3125,-0.671875 l -0.609375,-6.21875 c -0.015625,-0.203125 -0.015625,-0.25 -0.1875,-0.25 -0.15625,0 -0.203125,0.078125 -0.265625,0.171875 z M 2.984375,-2.609375 4.9375,-5.90625 5.265625,-2.609375 Z m 0,0"
   id="id-ec1aaaef-5bef-4cb2-93f5-7cec3ad48658"
   style="fill:#008000" />
      </g></g>
  <g
   fill="#000000"
   fill-opacity="1"
   id="id-be5475d8-62a7-498b-b498-04ca612ec2ed"
   transform="translate(-149.056, -127.624)"
   style="fill:#008000">
    <g
   transform="translate(156.184, 136.259)"
   id="g72"
   style="fill:#008000"><path
   d="m 0.84375,-0.4375 c -0.015625,0.09375 -0.0625,0.265625 -0.0625,0.28125 0,0.15625 0.125,0.21875 0.234375,0.21875 0.125,0 0.234375,-0.078125 0.28125,-0.140625 0.03125,-0.0625 0.078125,-0.296875 0.125,-0.4375 0.03125,-0.125 0.109375,-0.453125 0.140625,-0.625 0.046875,-0.15625 0.09375,-0.3125 0.125,-0.46875 0.078125,-0.28125 0.09375,-0.34375 0.296875,-0.625 C 2.171875,-2.515625 2.5,-2.875 3.03125,-2.875 c 0.390625,0 0.40625,0.359375 0.40625,0.484375 0,0.421875 -0.296875,1.1875 -0.40625,1.484375 -0.078125,0.203125 -0.109375,0.265625 -0.109375,0.375 0,0.375 0.296875,0.59375 0.65625,0.59375 0.703125,0 1,-0.953125 1,-1.0625 0,-0.09375 -0.078125,-0.09375 -0.109375,-0.09375 -0.09375,0 -0.09375,0.046875 -0.125,0.125 C 4.1875,-0.40625 3.875,-0.125 3.609375,-0.125 c -0.15625,0 -0.1875,-0.09375 -0.1875,-0.25 0,-0.15625 0.046875,-0.25 0.171875,-0.5625 0.078125,-0.21875 0.359375,-0.953125 0.359375,-1.34375 0,-0.671875 -0.53125,-0.796875 -0.90625,-0.796875 -0.578125,0 -0.96875,0.359375 -1.171875,0.640625 -0.046875,-0.484375 -0.453125,-0.640625 -0.75,-0.640625 -0.296875,0 -0.453125,0.21875 -0.546875,0.375 -0.15625,0.265625 -0.25,0.65625 -0.25,0.703125 0,0.078125 0.09375,0.078125 0.125,0.078125 0.09375,0 0.09375,-0.015625 0.140625,-0.203125 0.109375,-0.40625 0.25,-0.75 0.515625,-0.75 0.1875,0 0.234375,0.15625 0.234375,0.34375 0,0.125 -0.0625,0.390625 -0.125,0.578125 -0.046875,0.1875 -0.109375,0.46875 -0.140625,0.625 z m 0,0"
   id="id-c4e75b52-da41-4b2b-9290-37cae200fe33"
   style="fill:#008000" />
      </g></g>
</g><path
       style="fill:none;stroke:#000000;stroke-width:0.264583px;stroke-linecap:butt;stroke-linejoin:miter;stroke-opacity:1"
       d="m 14.315051,22.943617 h 5.529541"
       id="path73" /></g></svg>
