<?xml version="1.0" encoding="UTF-8" standalone="no"?>
<!-- Created with Inkscape (http://www.inkscape.org/) -->

<svg
   width="2.0542116in"
   height="1.3383961in"
   viewBox="0 0 52.176975 33.99526"
   version="1.1"
   id="svg1"
   inkscape:version="1.3.2 (091e20e, 2023-11-25, custom)"
   sodipodi:docname="Slope.svg"
   xmlns:inkscape="http://www.inkscape.org/namespaces/inkscape"
   xmlns:sodipodi="http://sodipodi.sourceforge.net/DTD/sodipodi-0.dtd"
   xmlns="http://www.w3.org/2000/svg"
   xmlns:svg="http://www.w3.org/2000/svg"
   xmlns:ns3="http://www.iki.fi/pav/software/textext/">
  <sodipodi:namedview
     id="namedview1"
     pagecolor="#ffffff"
     bordercolor="#111111"
     borderopacity="1"
     inkscape:showpageshadow="0"
     inkscape:pageopacity="0"
     inkscape:pagecheckerboard="1"
     inkscape:deskcolor="#d1d1d1"
     inkscape:document-units="mm"
     inkscape:zoom="5.5660494"
     inkscape:cx="90.279472"
     inkscape:cy="89.021847"
     inkscape:window-width="1920"
     inkscape:window-height="1015"
     inkscape:window-x="1217"
     inkscape:window-y="1347"
     inkscape:window-maximized="1"
     inkscape:current-layer="layer1" />
  <defs
     id="defs1">
    <marker
       inkscape:stockid="Distance end"
       orient="auto"
       refY="0"
       refX="0"
       id="DistanceEnd"
       style="overflow:visible"
       markerWidth="0.5"
       markerHeight="0.5"
       viewBox="0 0 1 1"
       inkscape:isstock="true"
       inkscape:collect="always"
       preserveAspectRatio="xMidYMid">
      <g
         transform="scale(0.6)"
         id="g16">
        <path
           d="m 0,-40 v 0"
           id="path23" />
        <path
           d="M 0,0 -8,5 V -5 Z"
           style="fill:context-stroke;fill-rule:evenodd;stroke:none"
           id="path24" />
        <path
           d="M 0,-8 V 40"
           style="fill:none;stroke:context-stroke;stroke-width:1;stroke-linecap:square"
           id="path25" />
      </g>
    </marker>
    <marker
       inkscape:stockid="Distance start"
       orient="auto"
       refY="0"
       refX="0"
       id="marker22"
       style="overflow:visible"
       markerWidth="0.5"
       markerHeight="0.5"
       viewBox="0 0 1 1"
       inkscape:isstock="true"
       inkscape:collect="always"
       preserveAspectRatio="xMidYMid">
      <g
         transform="scale(0.6)"
         id="g22">
        <path
           d="m 0,-40 v 0"
           id="path20" />
        <path
           d="M 0,0 8,5 V -5 Z"
           style="fill:context-stroke;fill-rule:evenodd;stroke:none"
           sodipodi:nodetypes="ccccc"
           id="path21" />
        <path
           d="M 0,-8 V 40"
           style="fill:none;stroke:context-stroke;stroke-width:1;stroke-linecap:square"
           id="path22" />
      </g>
    </marker>
    <marker
       style="overflow:visible"
       id="ConcaveTriangle"
       refX="0"
       refY="0"
       orient="auto-start-reverse"
       inkscape:stockid="Concave triangle arrow"
       markerWidth="1"
       markerHeight="1"
       viewBox="0 0 1 1"
       inkscape:isstock="true"
       inkscape:collect="always"
       preserveAspectRatio="xMidYMid">
      <path
         transform="scale(0.7)"
         d="M -2,-4 9,0 -2,4 c 2,-2.33 2,-5.66 0,-8 z"
         style="fill:context-stroke;fill-rule:evenodd;stroke:none"
         id="path17" />
    </marker>
    <marker
       style="overflow:visible"
       id="ArrowWideRounded"
       refX="0"
       refY="0"
       orient="auto-start-reverse"
       inkscape:stockid="Wide, rounded arrow"
       markerWidth="1"
       markerHeight="1"
       viewBox="0 0 1 1"
       inkscape:isstock="true"
       inkscape:collect="always"
       preserveAspectRatio="xMidYMid">
      <path
         style="fill:none;stroke:context-stroke;stroke-width:1;stroke-linecap:round"
         d="M 3,-3 0,0 3,3"
         transform="rotate(180,0.125,0)"
         sodipodi:nodetypes="ccc"
         id="path8" />
    </marker>
    <inkscape:path-effect
       effect="fill_between_many"
       method="originald"
       linkedpaths="#path1,0,1|#path2,0,1"
       id="path-effect2"
       is_visible="true"
       lpeversion="0"
       join="true"
       close="true"
       autoreverse="true" />
  </defs>
  <g
     inkscape:label="Layer 1"
     inkscape:groupmode="layer"
     id="layer1"
     transform="translate(-0.52916673,-1.4081594)">
    <path
       style="fill:#916f6f;stroke:#000000;stroke-width:0.264583px;stroke-linecap:butt;stroke-linejoin:miter;stroke-opacity:1"
       d="m 3.6602111,15.971831 5.6566903,-5.65669 H 22.911972 l 6.987675,5.65669"
       id="path5" />
    <path
       inkscape:original-d="M 0,0"
       inkscape:path-effect="#path-effect2"
       d="M 1.806338,15.971831 H 41.070421 V 35.271127 H 1.806338 Z"
       id="path3"
       style="fill:#ffccaa" />
    <path
       style="fill:none;stroke:#0000ff;stroke-width:0.264583px;stroke-linecap:butt;stroke-linejoin:miter;stroke-opacity:1"
       d="M 1.806338,15.971831 H 41.070421"
       id="path1" />
    <path
       style="fill:none;stroke:#000000;stroke-width:0.264583px;stroke-linecap:butt;stroke-linejoin:miter;stroke-opacity:1"
       d="M 1.806338,35.271127 H 41.070421"
       id="path2" />
    <text
       xml:space="preserve"
       style="font-size:3.175px;line-height:0.95;font-family:'Times New Roman';-inkscape-font-specification:'Times New Roman, ';text-align:center;text-anchor:middle;stroke-width:0.264583"
       x="3.5961225"
       y="13.080692"
       id="text3"><tspan
         sodipodi:role="line"
         id="tspan3"
         style="stroke-width:0.264583"
         x="3.5961225"
         y="13.080692">OGS</tspan></text>
    <path
       style="fill:none;stroke:#000000;stroke-width:0.264583px;stroke-linecap:butt;stroke-linejoin:miter;stroke-opacity:1"
       d="M 3.096092,13.080692 2.7599679,15.996097"
       id="path4"
       sodipodi:nodetypes="cc" />
    <text
       xml:space="preserve"
       style="font-size:3.175px;line-height:0.95;font-family:'Times New Roman';-inkscape-font-specification:'Times New Roman, ';text-align:center;text-anchor:middle;white-space:pre;inline-size:20.6914;display:inline;stroke-width:0.264583"
       x="4.1830983"
       y="4.5633802"
       id="text5"
       transform="translate(4.4272501,-0.95070423)"><tspan
         x="4.1830983"
         y="4.5633802"
         id="tspan1">Proposed<tspan
   y="4.5633802"
   id="tspan2"> </tspan></tspan><tspan
         x="4.1830983"
         y="7.5796304"
         id="tspan4">embankment</tspan></text>
    <path
       style="fill:none;stroke:#000000;stroke-width:0.264583px;stroke-linecap:butt;stroke-linejoin:miter;stroke-opacity:1"
       d="m 12.40669,7.3204225 4.368085,5.8083295"
       id="path6" />
    <rect
       style="fill:#ffccaa;stroke:#008000;stroke-width:0.264999;stroke-linecap:round;stroke-miterlimit:4.1"
       id="rect8"
       width="2.7226102"
       height="2.7226102"
       x="22.379107"
       y="18.503664" />
    <path
       style="fill:none;stroke:#ff0000;stroke-width:0.264583px;stroke-linecap:butt;stroke-linejoin:miter;stroke-opacity:1;marker-mid:url(#ArrowWideRounded)"
       d="m 12.410268,10.315141 c 0.64156,1.113242 1.288816,2.217743 1.977446,3.258758 0.494826,0.748039 1.011014,1.463298 1.561802,2.125465 0.61353,0.737597 1.269991,1.409319 1.987678,1.98709 0.874586,0.704082 1.840093,1.268646 2.929631,1.642888 0.941926,0.323538 1.976551,0.504831 3.125268,0.511053 1.05024,0.0057 2.195848,-0.134966 3.453173,-0.447048 1.209972,-0.300328 2.523404,-0.759415 3.954868,-1.399619 1.208359,-0.540423 2.500825,-1.209906 3.886162,-2.021897"
       id="path7"
       sodipodi:nodetypes="csssssssc" />
    <text
       xml:space="preserve"
       style="font-size:3.175px;line-height:0.95;font-family:'Times New Roman';-inkscape-font-specification:'Times New Roman, ';text-align:center;text-anchor:middle;stroke-width:0.264583"
       x="15.994448"
       y="25.069853"
       id="text8"><tspan
         sodipodi:role="line"
         id="tspan8"
         style="stroke-width:0.264583"
         x="15.994448"
         y="25.069853">Sample</tspan></text>
    <path
       style="fill:none;stroke:#000000;stroke-width:0.264583px;stroke-linecap:butt;stroke-linejoin:miter;stroke-opacity:1"
       d="M 21.444789,23.913566 24.10676,20.92065"
       id="path9" />
    <text
       xml:space="preserve"
       style="font-style:normal;font-variant:normal;font-weight:normal;font-stretch:normal;font-size:3.175px;line-height:0.95;font-family:'Times New Roman';-inkscape-font-specification:'Times New Roman, Normal';font-variant-ligatures:normal;font-variant-caps:normal;font-variant-numeric:normal;font-variant-east-asian:normal;text-align:center;text-anchor:middle;white-space:pre;inline-size:27.1509;display:inline;fill:#ff0000;stroke-width:0.264583"
       x="31.931845"
       y="22.865335"
       id="text9"
       transform="translate(9.1170769,0.49953624)"><tspan
         x="31.931845"
         y="22.865335"
         id="tspan5">Potential failure<tspan
   y="22.865335"
   id="tspan6"> </tspan></tspan><tspan
         x="31.931845"
         y="25.881587"
         id="tspan7">surface from a<tspan
   y="25.881587"
   id="tspan9"> </tspan></tspan><tspan
         x="31.931845"
         y="28.897837"
         id="tspan10">sacrificial analysis</tspan></text>
    <path
       style="fill:none;stroke:#000000;stroke-width:0.264583px;stroke-linecap:butt;stroke-linejoin:miter;stroke-opacity:1"
       d="m 30.469255,24.665843 c -2.431682,0.02086 -4.178679,-4.332062 -3.851601,-4.800874"
       id="path10"
       sodipodi:nodetypes="cc" />
    <g
       id="g14"
       transform="translate(-20.570624,7.6710907)">
      <path
         style="fill:none;stroke:#000000;stroke-width:0.264583px;stroke-linecap:butt;stroke-linejoin:miter;stroke-opacity:1"
         d="M 42.949938,10.832742 V 2.6442186 h 0.532866 l 2.189745,1.772651 v 6.4158724 z"
         id="path13"
         sodipodi:nodetypes="ccccc" />
      <path
         style="fill:none;stroke:#000000;stroke-width:0.264583px"
         d="m 43.335051,2.744219 -0.285113,0.285113 m 0,1.131371 0.960606,-0.960606 m 0.625232,0.506139 -1.585838,1.585838 m 0,1.131371 2.211069,-2.211069 m 0.311542,0.819828 -2.522611,2.522611 m 0,1.131371 2.522611,-2.522611 m 0,1.131371 -2.522611,2.522611 m 0.216186,0.915185 2.306425,-2.306425 m 0,1.131371 -1.175054,1.175054"
         id="path14" />
    </g>
    <path
       style="fill:#00ff00;stroke:#00ff00;stroke-width:0.264583px;stroke-linecap:butt;stroke-linejoin:miter;stroke-opacity:1;marker-end:url(#ConcaveTriangle)"
       d="m 23.740619,12.625215 v 4.094262"
       id="path16" />
    <g
       transform="matrix(0.352778,0,0,0.352778,18.744863,11.680613)"
       ns3:version="1.10.2"
       ns3:texconverter="pdflatex"
       ns3:pdfconverter="inkscape"
       ns3:text="$\\sigma'_n$"
       ns3:preamble="C:\Users\zamcr\AppData\Roaming\inkscape\extensions\textext\default_packages.tex"
       ns3:scale="1.0"
       ns3:alignment="middle center"
       ns3:stroke-to-path="0"
       ns3:inkscapeversion="1.3.2"
       id="g7462"
       ns3:jacobian_sqrt="0.352778"
       style="fill:#00ff00">
      <defs
         id="id-cfa34c72-3429-472e-8dfe-4b6d68c6bb4c">
        <g
           id="id-0b016676-6e07-4993-a305-d6a70e0f248e">
          <g
             id="id-c857b5a5-3d5f-4d4a-9f63-515b40dbb5e5">
            <path
               d="m 5.15625,-3.71875 c 0.140625,0 0.5,0 0.5,-0.34375 0,-0.234375 -0.21875,-0.234375 -0.390625,-0.234375 h -2.28125 c -1.5,0 -2.609375,1.640625 -2.609375,2.828125 0,0.875 0.59375,1.578125 1.5,1.578125 1.171875,0 2.5,-1.203125 2.5,-2.734375 0,-0.171875 0,-0.65625 -0.3125,-1.09375 z M 1.890625,-0.109375 C 1.390625,-0.109375 1,-0.46875 1,-1.1875 c 0,-0.296875 0.109375,-1.109375 0.46875,-1.703125 0.421875,-0.6875 1.015625,-0.828125 1.359375,-0.828125 0.828125,0 0.90625,0.65625 0.90625,0.96875 0,0.46875 -0.203125,1.28125 -0.53125,1.796875 -0.390625,0.578125 -0.9375,0.84375 -1.3125,0.84375 z m 0,0"
               id="id-d84cb8f4-ea50-41c7-8399-cce9027c74f3" />
          </g>
          <g
             id="id-3b089bf4-2231-4ec5-8fce-af716ec0c6f5">
            <path
               d="m 2.015625,-3.296875 c 0.0625,-0.109375 0.0625,-0.171875 0.0625,-0.21875 0,-0.21875 -0.1875,-0.375 -0.40625,-0.375 -0.265625,0 -0.34375,0.21875 -0.375,0.328125 L 0.375,-0.546875 c -0.015625,0.015625 -0.046875,0.09375 -0.046875,0.109375 0,0.078125 0.21875,0.15625 0.28125,0.15625 0.046875,0 0.046875,-0.015625 0.09375,-0.125 z m 0,0"
               id="id-a15098cd-661a-4782-8d58-8ab493dc6838" />
          </g>
          <g
             id="id-29370943-51a2-4857-a776-272cb0ca1c6a">
            <path
               d="m 0.84375,-0.4375 c -0.015625,0.09375 -0.0625,0.265625 -0.0625,0.28125 0,0.15625 0.125,0.21875 0.234375,0.21875 0.125,0 0.234375,-0.078125 0.28125,-0.140625 0.03125,-0.0625 0.078125,-0.296875 0.125,-0.4375 0.03125,-0.125 0.109375,-0.453125 0.140625,-0.625 0.046875,-0.15625 0.09375,-0.3125 0.125,-0.46875 0.078125,-0.28125 0.09375,-0.34375 0.296875,-0.625 C 2.171875,-2.515625 2.5,-2.875 3.03125,-2.875 c 0.390625,0 0.40625,0.359375 0.40625,0.484375 0,0.421875 -0.296875,1.1875 -0.40625,1.484375 -0.078125,0.203125 -0.109375,0.265625 -0.109375,0.375 0,0.375 0.296875,0.59375 0.65625,0.59375 0.703125,0 1,-0.953125 1,-1.0625 0,-0.09375 -0.078125,-0.09375 -0.109375,-0.09375 -0.09375,0 -0.09375,0.046875 -0.125,0.125 C 4.1875,-0.40625 3.875,-0.125 3.609375,-0.125 c -0.15625,0 -0.1875,-0.09375 -0.1875,-0.25 0,-0.15625 0.046875,-0.25 0.171875,-0.5625 0.078125,-0.21875 0.359375,-0.953125 0.359375,-1.34375 0,-0.671875 -0.53125,-0.796875 -0.90625,-0.796875 -0.578125,0 -0.96875,0.359375 -1.171875,0.640625 -0.046875,-0.484375 -0.453125,-0.640625 -0.75,-0.640625 -0.296875,0 -0.453125,0.21875 -0.546875,0.375 -0.15625,0.265625 -0.25,0.65625 -0.25,0.703125 0,0.078125 0.09375,0.078125 0.125,0.078125 0.09375,0 0.09375,-0.015625 0.140625,-0.203125 0.109375,-0.40625 0.25,-0.75 0.515625,-0.75 0.1875,0 0.234375,0.15625 0.234375,0.34375 0,0.125 -0.0625,0.390625 -0.125,0.578125 -0.046875,0.1875 -0.109375,0.46875 -0.140625,0.625 z m 0,0"
               id="id-ba5dddce-0b58-4b0a-9a81-3184ccb717a4" />
          </g>
        </g>
      </defs>
      <g
         fill="#000000"
         fill-opacity="1"
         id="id-680fbcff-64e1-4332-8313-ae6cc5a256ca"
         transform="translate(-149.087,-127.258)"
         style="fill:#00ff00">
        <g
           transform="translate(148.712,134.765)"
           id="g5818"
           style="fill:#00ff00">
          <path
             d="m 5.15625,-3.71875 c 0.140625,0 0.5,0 0.5,-0.34375 0,-0.234375 -0.21875,-0.234375 -0.390625,-0.234375 h -2.28125 c -1.5,0 -2.609375,1.640625 -2.609375,2.828125 0,0.875 0.59375,1.578125 1.5,1.578125 1.171875,0 2.5,-1.203125 2.5,-2.734375 0,-0.171875 0,-0.65625 -0.3125,-1.09375 z M 1.890625,-0.109375 C 1.390625,-0.109375 1,-0.46875 1,-1.1875 c 0,-0.296875 0.109375,-1.109375 0.46875,-1.703125 0.421875,-0.6875 1.015625,-0.828125 1.359375,-0.828125 0.828125,0 0.90625,0.65625 0.90625,0.96875 0,0.46875 -0.203125,1.28125 -0.53125,1.796875 -0.390625,0.578125 -0.9375,0.84375 -1.3125,0.84375 z m 0,0"
             id="id-73b789fe-a724-4ef9-af8c-993eed3c6b5a"
             style="fill:#00ff00" />
        </g>
      </g>
      <g
         fill="#000000"
         fill-opacity="1"
         id="id-bc5cee47-02b4-4e33-a40f-d2466804c810"
         transform="translate(-149.087,-127.258)"
         style="fill:#00ff00">
        <g
           transform="translate(154.763,131.149)"
           id="g6370"
           style="fill:#00ff00">
          <path
             d="m 2.015625,-3.296875 c 0.0625,-0.109375 0.0625,-0.171875 0.0625,-0.21875 0,-0.21875 -0.1875,-0.375 -0.40625,-0.375 -0.265625,0 -0.34375,0.21875 -0.375,0.328125 L 0.375,-0.546875 c -0.015625,0.015625 -0.046875,0.09375 -0.046875,0.109375 0,0.078125 0.21875,0.15625 0.28125,0.15625 0.046875,0 0.046875,-0.015625 0.09375,-0.125 z m 0,0"
             id="id-7445f70d-ae3c-4d00-9905-92e0ad31c833"
             style="fill:#00ff00" />
        </g>
      </g>
      <g
         fill="#000000"
         fill-opacity="1"
         id="id-688cc53b-3802-4851-b5c9-156d229625d2"
         transform="translate(-149.087,-127.258)"
         style="fill:#00ff00">
        <g
           transform="translate(154.405,137.228)"
           id="g615"
           style="fill:#00ff00">
          <path
             d="m 0.84375,-0.4375 c -0.015625,0.09375 -0.0625,0.265625 -0.0625,0.28125 0,0.15625 0.125,0.21875 0.234375,0.21875 0.125,0 0.234375,-0.078125 0.28125,-0.140625 0.03125,-0.0625 0.078125,-0.296875 0.125,-0.4375 0.03125,-0.125 0.109375,-0.453125 0.140625,-0.625 0.046875,-0.15625 0.09375,-0.3125 0.125,-0.46875 0.078125,-0.28125 0.09375,-0.34375 0.296875,-0.625 C 2.171875,-2.515625 2.5,-2.875 3.03125,-2.875 c 0.390625,0 0.40625,0.359375 0.40625,0.484375 0,0.421875 -0.296875,1.1875 -0.40625,1.484375 -0.078125,0.203125 -0.109375,0.265625 -0.109375,0.375 0,0.375 0.296875,0.59375 0.65625,0.59375 0.703125,0 1,-0.953125 1,-1.0625 0,-0.09375 -0.078125,-0.09375 -0.109375,-0.09375 -0.09375,0 -0.09375,0.046875 -0.125,0.125 C 4.1875,-0.40625 3.875,-0.125 3.609375,-0.125 c -0.15625,0 -0.1875,-0.09375 -0.1875,-0.25 0,-0.15625 0.046875,-0.25 0.171875,-0.5625 0.078125,-0.21875 0.359375,-0.953125 0.359375,-1.34375 0,-0.671875 -0.53125,-0.796875 -0.90625,-0.796875 -0.578125,0 -0.96875,0.359375 -1.171875,0.640625 -0.046875,-0.484375 -0.453125,-0.640625 -0.75,-0.640625 -0.296875,0 -0.453125,0.21875 -0.546875,0.375 -0.15625,0.265625 -0.25,0.65625 -0.25,0.703125 0,0.078125 0.09375,0.078125 0.125,0.078125 0.09375,0 0.09375,-0.015625 0.140625,-0.203125 0.109375,-0.40625 0.25,-0.75 0.515625,-0.75 0.1875,0 0.234375,0.15625 0.234375,0.34375 0,0.125 -0.0625,0.390625 -0.125,0.578125 -0.046875,0.1875 -0.109375,0.46875 -0.140625,0.625 z m 0,0"
             id="id-5766e72b-1e7a-48c8-96a2-daed290a34e9"
             style="fill:#00ff00" />
        </g>
      </g>
    </g>
    <path
       style="fill:none;stroke:#000000;stroke-width:0.265;stroke-linecap:butt;stroke-linejoin:miter;stroke-dasharray:none;stroke-opacity:1;marker-start:url(#marker22);marker-end:url(#DistanceEnd)"
       d="m 30.316819,10.315309 v 5.656522"
       id="path11" />
    <text
       xml:space="preserve"
       style="font-size:3.175px;line-height:0.95;font-family:'Times New Roman';-inkscape-font-specification:'Times New Roman, ';text-align:center;text-anchor:middle;stroke-width:0.264583"
       x="32.908344"
       y="14.172964"
       id="text25"><tspan
         sodipodi:role="line"
         id="tspan25"
         style="stroke-width:0.264583"
         x="32.908344"
         y="14.172964">7 m</tspan></text>
    <path
       style="fill:none;stroke:#000000;stroke-width:0.265;stroke-linecap:butt;stroke-linejoin:miter;stroke-dasharray:none;stroke-opacity:1;marker-start:url(#marker22);marker-end:url(#DistanceEnd)"
       d="m 30.316819,15.972 v 3.817274"
       id="path26"
       sodipodi:nodetypes="cc" />
    <text
       xml:space="preserve"
       style="font-size:3.175px;line-height:0.95;font-family:'Times New Roman';-inkscape-font-specification:'Times New Roman, ';text-align:center;text-anchor:middle;stroke-width:0.264583"
       x="33.444885"
       y="18.718895"
       id="text26"><tspan
         sodipodi:role="line"
         id="tspan26"
         style="stroke-width:0.264583"
         x="33.444885"
         y="18.718895">5 m</tspan></text>
    <path
       sodipodi:type="star"
       style="fill:#0000ff;stroke:#0000ff;stroke-width:0.264999;stroke-linecap:round;stroke-miterlimit:4.1;stroke-dasharray:none"
       id="path27"
       inkscape:flatsided="false"
       sodipodi:sides="3"
       sodipodi:cx="138.69801"
       sodipodi:cy="33.414524"
       sodipodi:r1="2.5751822"
       sodipodi:r2="1.2875919"
       sodipodi:arg1="1.5707963"
       sodipodi:arg2="2.6179939"
       inkscape:rounded="0"
       inkscape:randomized="0"
       d="m 138.69801,35.989706 -1.11508,-1.931386 -1.11509,-1.931387 2.23017,-1e-6 2.23018,1e-6 -1.11509,1.931387 z"
       transform="matrix(0.26458333,0,0,0.26458333,2.7633217,6.1910662)"
       inkscape:transform-center-y="0.17033736" />
  </g>
</svg>
