<?xml version="1.0" encoding="UTF-8" standalone="no"?>
<!-- Created with Inkscape (http://www.inkscape.org/) -->

<svg
   width="1.6in"
   height="0.40000001in"
   viewBox="0 0 40.64 10.16"
   version="1.1"
   id="svg1"
   inkscape:version="1.3.2 (091e20e, 2023-11-25, custom)"
   sodipodi:docname="Sol_1.svg"
   xmlns:inkscape="http://www.inkscape.org/namespaces/inkscape"
   xmlns:sodipodi="http://sodipodi.sourceforge.net/DTD/sodipodi-0.dtd"
   xmlns="http://www.w3.org/2000/svg"
   xmlns:svg="http://www.w3.org/2000/svg"
   xmlns:rdf="http://www.w3.org/1999/02/22-rdf-syntax-ns#"
   xmlns:cc="http://creativecommons.org/ns#"
   xmlns:dc="http://purl.org/dc/elements/1.1/">
  <title
     id="title1">Class_notes-merged.pdf</title>
  <sodipodi:namedview
     id="namedview1"
     pagecolor="#ffffff"
     bordercolor="#111111"
     borderopacity="1"
     inkscape:showpageshadow="0"
     inkscape:pageopacity="0"
     inkscape:pagecheckerboard="1"
     inkscape:deskcolor="#d1d1d1"
     inkscape:document-units="mm"
     inkscape:zoom="4.4683086"
     inkscape:cx="85.267164"
     inkscape:cy="48.116641"
     inkscape:window-width="1536"
     inkscape:window-height="804"
     inkscape:window-x="880"
     inkscape:window-y="1072"
     inkscape:window-maximized="1"
     inkscape:current-layer="layer1" />
  <defs
     id="defs1" />
  <g
     inkscape:label="Layer 1"
     inkscape:groupmode="layer"
     id="layer1">
    <g
       id="g53"
       transform="matrix(0.01715326,0,0,0.02399622,20.952345,-11.647166)"
       style="stroke-width:13.0412">
      <path
         fill="#000000"
         fill-rule="evenodd"
         d="m -579,716.75 -6.5,0.25 -1,1 -1,-1 -1.5,-0.75 -4,0.5 -16,0.625 -14,0.875 -5,0.375 -3,-1.25 -4,-0.625 -2,-0.125 -2.75,0.125 -0.5,-2.5 -2.5,-0.5 0.25,-1.75 0.75,-1.75 2.75,-0.875 6,0.25 h 9 l 8,-1 5,-1.375 14,-0.875 17.5,-0.375 3.5,3.5 -0.25,4.5 -1,1.75 -1.75,1 m -61,-3.75 v -1 h -1 v 1 h 1"
         id="path53"
         style="stroke-width:13.0412" />
    </g>
    <g
       id="g54"
       transform="matrix(0.01715326,0,0,0.02399622,20.952345,-11.647166)"
       style="stroke-width:13.0412">
      <path
         fill="#000000"
         fill-rule="evenodd"
         d="m -581.75,692.25 -3.25,1.5 -7.5,0.25 -1,1 -1,-1 -5.5,0.625 -8,0.75 -6,1.25 -7,1 -12,0.75 -6,1.25 -9,0.125 -2.25,-1.5 -0.75,-2.75 -1,-1 1,-1 0.625,-3.875 5.375,-0.375 h 2 l 6,-0.875 7,-1 12,-0.75 6,-1.25 7,-1 14,-0.75 7.5,-0.625 2.5,2.5 v 2 l 1,1 -1,1 -0.75,2.75"
         id="path54"
         style="stroke-width:13.0412" />
    </g>
    <g
       id="g55"
       transform="matrix(0.01715326,0,0,0.02399622,20.952345,-11.647166)"
       style="stroke-width:13.0412">
      <path
         fill="#000000"
         fill-rule="evenodd"
         d="m -701.5,745 -2.5,-0.25 -7,-0.125 -6,-0.875 -1.5,-0.75 -2.5,-2.5 -0.5,-1.5 -1.25,-2 v -9 l 1.375,-3 0.25,-5.75 -1.375,-0.25 -3,3 h -1 l -3,3 -1.25,0.25 -0.25,1.25 -4,4 -1,2 -1.5,2.5 -0.5,1.5 -3.5,3.5 h -4 l -2.5,-2.5 -0.625,-1.5 0.125,-3 0.5,-2.5 3,-3 v -2 l 3,-3 0.375,-2.5 1.25,-2 1.125,-3 0.25,-13.5 -3,-3 v -2 l 3.5,-3.5 4,0.625 2,1.375 2.5,2.5 0.75,3.5 0.25,9.5 0.5,0.5 2,-2 1.25,-0.25 0.25,-2.25 2.5,-2.5 2.5,-0.625 4.5,-0.375 3.5,3.5 0.75,1.5 0.625,7 0.375,4 -0.5,4 -0.625,6 v 4.875 l 10.375,0.375 3.25,1.5 1,2 2.25,0.25 0.5,0.5 -1,1 1,1 -0.75,1.75 -2.25,1.5 -3.5,0.25 -1,1 m 5.5,-5 v -1 h -1 v 1 h 1"
         id="path55"
         style="stroke-width:13.0412" />
    </g>
    <g
       id="g56"
       transform="matrix(0.01715326,0,0,0.02399622,20.952345,-11.647166)"
       style="stroke-width:13.0412">
      <path
         fill="#000000"
         fill-rule="evenodd"
         d="m -874.25,713.75 -1.25,0.25 -1.5,-1.5 0.5,-0.5 2.25,0.25 v 1.5"
         id="path56"
         style="stroke-width:13.0412" />
    </g>
    <g
       id="g57"
       transform="matrix(0.01715326,0,0,0.02399622,20.952345,-11.647166)"
       style="stroke-width:13.0412">
      <path
         fill="#000000"
         fill-rule="evenodd"
         d="m -840,710.625 -16,0.625 -5,1.375 -6,0.75 -4.5,0.625 -0.5,-0.5 1,-1 -0.5,-0.5 -5,-1 h -0.5 l 0.5,-1 1.25,-0.25 0.5,-2.5 3.25,-0.25 1,-1 1,1 1,-1 2.5,-0.5 3,-0.875 2,-1.375 6,-1 h 22 l 4.5,0.75 0.5,0.5 -1,1 2,2 -3.5,3.5 -9.5,0.625 m -32,-0.625 v -1 h -1 v 1 h 1"
         id="path57"
         style="stroke-width:13.0412" />
    </g>
    <g
       id="g58"
       transform="matrix(0.01715326,0,0,0.02399622,20.952345,-11.647166)"
       style="stroke-width:13.0412">
      <path
         fill="#000000"
         fill-rule="evenodd"
         d="m -840.5,690 -14.5,0.625 -17,0.625 -5,1 -2,1.25 -1.5,0.5 -0.5,-0.5 1,-1 -0.5,-0.5 -2.25,-0.25 -0.875,-1.75 v -3 l 0.875,-1.75 2.25,-1.5 3.5,-1.375 4,-1.125 15,-0.875 16.5,-0.375 3.5,3.5 v 1 l 1,1 -1,1 v 1 l -2.5,2.5"
         id="path58"
         style="stroke-width:13.0412" />
    </g>
    <g
       id="g59"
       transform="matrix(0.01715326,0,0,0.02399622,20.952345,-11.647166)"
       style="stroke-width:13.0412">
      <path
         fill="#000000"
         fill-rule="evenodd"
         d="m -902,726.75 -4,0.5 -2,1.5 -9,0.5 -2,0.125 -3,-0.75 -1.5,-0.625 -2.5,-2.5 -0.75,-2.5 -0.25,-13.5 -0.5,-0.5 -12,12 h -1 l -9,9 h -1 l -1,1 -1,-1 -3,-1 -2.5,-2.5 -0.625,-1.5 v -3 l 0.625,-1.5 4,-4 0.375,-3.5 2.25,-6 0.75,-4 0.625,-2.5 -0.5,-0.5 -1,1 -1.375,-0.25 -0.125,-7.25 -1,-1 1,-1 v -2 l 3,-3 0.375,-3.5 1.375,-3.5 1.5,-2.25 1.75,-1 3.5,-0.25 4.5,4.5 -0.375,8.5 -1.25,6 -0.75,7 -0.625,3.5 -1,1 0.5,0.5 1.75,-0.75 1.5,-2.5 2.5,-1.5 0.75,-1.75 6.5,-6.5 1.25,-0.25 1,-2 2.25,-1.25 2,-1.25 3.5,-0.25 3.5,3.5 0.5,2.5 -0.25,3 -0.625,8 -1.25,4 -0.75,5 -0.375,4 10.75,0.25 3,1.375 3.75,0.625 -0.375,4 -2.375,1.5 m -48,-30.75 v -1 h -1 v 1 h 1 m 0,3 v -1 h -1 v 1 h 1 m 49.5,24 0.5,-1 h -0.5 -1 l -0.5,1 h 0.5 1 m 0.5,2 v -1 h -1 v 1 h 1"
         id="path59"
         style="stroke-width:13.0412" />
    </g>
    <g
       id="g60"
       transform="matrix(0.01715326,0,0,0.02399622,20.952345,-11.647166)"
       style="stroke-width:13.0412">
      <path
         fill="#000000"
         fill-rule="evenodd"
         d="m -430,722.625 h -3 l -2.25,-1.375 -1.5,-2.25 v -11 l 1.125,-4 1.25,-3 0.625,-4 1.25,-2 2,-4 1.125,-2 0.75,-3 2.25,-4 0.75,-3 1.25,-2 1.75,-6 1.25,-2 0.75,-3 1.375,-2 0.5,-4 0.75,-1.5 -0.5,-0.5 -1,1 -18.5,0.25 -7,0.5 -2,-1.25 -1.75,-0.25 0.375,2.75 1,4 0.75,6 1.375,3 v 7 l -1,1.75 -1.75,1 -4.5,0.25 -2.5,-2.5 -0.5,-1.5 -1.25,-2 -0.75,-4 -1.125,-4 -1,-6 -0.375,-9.75 -2.25,-1 -1.125,-3.25 -0.125,-2 1.25,-2.25 2.25,-1.5 h 4 l 2,1.25 2,1 2,1.25 5,0.625 3,1.125 3,-0.25 19,-0.5 5,-1.375 h 7.25 l 1.5,2.625 -0.125,5 -1.25,3 -0.75,5 -1,4 -1,3 -2.25,4 -0.875,3 -1,3 -0.875,3 -1.25,2 -0.75,3 -1.125,2 -2,4 -1.125,2 -0.75,3 -1.25,2 -0.875,3 -1.125,3 -0.375,3.5 -1,1 0.5,0.5 4.875,0.625 0.625,3.875 -3.5,3.5 -1.5,0.5 -2,1 -2,1.125"
         id="path60"
         style="stroke-width:13.0412" />
    </g>
    <g
       id="g61"
       transform="matrix(0.01715326,0,0,0.02399622,20.952345,-11.647166)"
       style="stroke-width:13.0412">
      <path
         fill="#000000"
         fill-rule="evenodd"
         d="m -775.5,719.625 -2.5,2.125 -5,0.875 -6,1 -12,0.125 -2.5,-1.75 -3,-2.25 -3,-0.75 -3.5,-3.5 -0.625,-2.5 -0.375,-4.5 -1,-1 1,-1 0.25,-4.5 1.375,-2 0.875,-3 1.25,-3.5 1.75,-2.5 1,-2 0.5,-1.5 4,-4 v -1 l 7,-7 -1.5,-1.5 h -1 l -2.5,-2.5 v -5 l 2.5,-2.5 8.5,0.25 1.5,0.75 1,1 1,-1 8.5,-0.375 6,-1.25 13,-0.75 6,-1.25 7,-0.75 5,-1 4,-1 2.75,-0.875 0.625,-2.75 1.875,-2.5 2.5,-7 1.75,-2.5 2,-4 1.125,-2 0.75,-3 1.375,-2 0.875,-4 0.75,-5 0.625,-3.5 2.5,-2.5 4.5,0.25 1.75,1 1,1.75 -0.375,4 -0.75,7 -1,4 -1,3 -1.125,2 -1,2 -1.125,2 -0.75,3 -1.625,2.5 -1.75,2.5 -0.25,3.5 -2,2 1,1 -1,1 -1.375,2 -1.25,4.5 v 6 l 0.125,4 -0.5,3.5 v 0.5 l -1,-0.5 -0.25,-2.25 -1.25,-0.25 -0.5,0.5 1,1 -0.25,2.25 -2.25,0.25 -2.5,-2.5 -1,-2 -1.75,-2.5 -0.5,-4.75 -1.75,0.5 -5,0.875 -6,0.875 -6,1.125 -12,0.625 -2.5,0.75 -1.5,1.5 1.5,1.5 1.75,0.75 0.75,1.75 4,4 v 1 l 3,3 0.5,1.5 1.5,2.5 1.625,2.5 1.125,3 v 7 l -1.25,2 -2,4 -0.5,1.5 -3.5,3.5 -1.5,0.5 -2,1 -2,1.125 -3,1 -4.5,1 m 1.5,-10.875 2,-1.25 2,-1 2.25,-1.25 1.5,-2.25 -0.375,-5.5 -1.875,-2.5 -1,-2 -0.5,-1.5 -5,-5 -0.25,-1.25 -1.25,-0.25 -3,-3 h -1 l -3,-3 h -1 l -1,-1 -8.5,8.5 -1,2 -4,6 -1.625,2.5 -0.75,3 -1.25,2 -1,3 -0.375,3.5 2.5,2.5 2,1 2.5,1.75 h 4 l 2,-1.5 9,-0.5 4,-2.5 4,-0.5 m 2,-33.75 v -1 h -1 v 1 h 1"
         id="path61"
         style="stroke-width:13.0412" />
    </g>
    <g
       id="g62"
       transform="matrix(0.01715326,0,0,0.02399622,20.952345,-11.647166)"
       style="stroke-width:13.0412">
      <path
         fill="#000000"
         fill-rule="evenodd"
         d="m -959.5,675 -2,-1 -2.5,-2.5 0.625,-3.5 1,-5.5 2,-2.5 0.75,-3 1.125,-2 1,-2 1.5,-2.5 2,-3 1.5,-2.5 1,-2 3,-5 2,-4 3,-5 3,-6 0.5,-1.5 2.5,-2.5 5.25,0.125 1,1.875 v 6 l -1.375,2 -0.75,3 -1.125,2 -3,5 -1,2 -3,5 -2,4 -1.5,2.5 -2,3 -1.5,2.5 -1,2 -1.125,2 -1.125,3.5 -1.75,2.5 -1,2 -0.5,1.5 -2.5,2.5 h -1 l -1,1"
         id="path62"
         style="stroke-width:13.0412" />
    </g>
    <g
       id="g63"
       transform="matrix(0.01715326,0,0,0.02399622,20.952345,-11.647166)"
       style="stroke-width:13.0412">
      <path
         fill="#000000"
         fill-rule="evenodd"
         d="m -1027,732.375 -4,0.125 -4,-0.875 -3,-1 -2.5,-1.625 -2.5,-1.5 -2.25,-1.25 -1.25,-2.25 -1,-2 -1.25,-2 -1,-4 v -15 l 1.25,-4 0.87,-4 1.13,-3 1.25,-3.5 2.25,-3 2,-3 1,-2 2.5,-2.5 h 1 l 6,-6 2,-1 2.5,-1.5 1.75,-0.75 0.25,-1.25 2.5,-2.5 2,-1 3,-2.375 4.5,-1.125 4,-0.75 2,-1.25 h 2 l 1.75,0.75 1,1.75 v 4 l -0.5,1.875 6.75,-0.5 9,-0.625 3,-1.25 3.25,-1.25 1,-2 2.25,-0.25 1,-1 2,2 1,-1 1.75,0.75 1.25,3.25 0.5,2.5 -4.5,4.5 -2,1.25 -3.5,1.375 -4,0.75 -2.5,0.625 -1,1 -1,-1 -3.5,0.625 -4.5,0.375 h -0.5 l 0.5,1 3,1 5.5,5.5 0.5,1.5 1.5,2.5 1.75,2.5 1,4 v 13 l -1.125,3 -1.125,2 -1,2 -1.5,2.5 -1,2 -4.5,4.5 -2,1 -3,2 -2.5,1.5 -2,1.25 -4,0.75 -4,1 -4,1.125 -6,1 -7,0.75 m 3,-10.625 3,-1.5 7,-0.625 5,-1 4.5,-1.25 3,-2.375 2,-1 4.5,-4.5 0.625,-1.5 0.875,-3 1.125,-3 v -5 l -0.875,-4 -1.25,-2 -0.5,-1.5 -3.5,-3.5 h -1 l -3,-3 -1.5,-0.5 -2,-1.25 -4,-1 -11,-0.5 -1.75,-1 -0.25,-1.25 -0.5,-0.5 -3,3 h -1 l -5.5,5.5 -1,2 -1.5,2.5 -1.25,2 -0.63,4 -1.25,3 -0.87,5 0.12,5 0.63,7 0.75,1.5 3.5,3.5 2.5,0.75 h 8"
         id="path63"
         style="stroke-width:13.0412" />
    </g>
    <g
       id="g64"
       transform="matrix(0.01715326,0,0,0.02399622,20.952345,-11.647166)"
       style="stroke-width:13.0412">
      <path
         fill="#000000"
         fill-rule="evenodd"
         d="m -1187,554 h -1 v -1 h 1 v 1"
         id="path64"
         style="stroke-width:13.0412" />
    </g>
    <g
       id="g65"
       transform="matrix(0.01715326,0,0,0.02399622,20.952345,-11.647166)"
       style="stroke-width:13.0412">
      <path
         fill="#000000"
         fill-rule="evenodd"
         d="m -572,539 h -1 v -1 h 1 v 1"
         id="path65"
         style="stroke-width:13.0412" />
    </g>
    <g
       id="g66"
       transform="matrix(0.01715326,0,0,0.02399622,20.952345,-11.647166)"
       style="stroke-width:13.0412">
      <path
         fill="#000000"
         fill-rule="evenodd"
         d="m -552,534 h -1 v -1 h 1 v 1"
         id="path66"
         style="stroke-width:13.0412" />
    </g>
    <g
       id="g67"
       transform="matrix(0.01715326,0,0,0.02399622,20.952345,-11.647166)"
       style="stroke-width:13.0412">
      <path
         fill="#000000"
         fill-rule="evenodd"
         d="m -554,534 h -1 v -1 h 1 v 1"
         id="path67"
         style="stroke-width:13.0412" />
    </g>
    <g
       id="g68"
       transform="matrix(0.01715326,0,0,0.02399622,20.952345,-11.647166)"
       style="stroke-width:13.0412">
      <path
         fill="#000000"
         fill-rule="evenodd"
         d="m -629,543 h -1 v -1 h 1 v 1"
         id="path68"
         style="stroke-width:13.0412" />
    </g>
    <g
       id="g69"
       transform="matrix(0.01715326,0,0,0.02399622,20.952345,-11.647166)"
       style="stroke-width:13.0412">
      <path
         fill="#000000"
         fill-rule="evenodd"
         d="m -560,577.75 h -25 l -6,-1.125 -5.25,-1.25 -1.375,-2.375 -1,-3 -0.375,-4.5 -1,-1 1,-1 -1,-1 0.25,-1.25 1.25,-0.25 2,-2 1,1 1.25,-0.25 0.5,-3.75 1.25,-2 1.125,-2 0.75,-3 1.25,-2 0.75,-3 1.25,-2 0.375,-2.5 2,-2 -2,-2 0.375,-2.5 0.875,-1.75 1.75,-0.75 2,-1.125 3,-0.75 2,-1.125 2,-1 2,-1.125 6,-1.75 2,-1.25 6,-1.75 2,-1.25 3,-1 6,-0.75 3,-1.25 8,-1.75 3,-1.25 4,-0.875 4,-0.25 1.5,0.75 2.5,2.5 -0.25,5.5 -1,1.75 -1.75,0.75 -2.5,1.5 -2.5,1.75 -4.5,0.875 -2.5,1.875 -2,1 -2,1.125 -3,0.75 -2,1.25 -3,0.75 -1.75,0.375 -1,-2 -3,-1 -0.25,-1.25 -0.5,-0.5 -1,1 -2.5,0.5 -9,3 -3,0.875 -1.75,0.875 -1.5,2.25 -1,3.25 -1.25,0.25 h -0.5 l 0.5,1 h 2 l 0.5,0.5 -1.5,1.5 -2.75,0.75 -1.25,3.25 -0.875,3 -1.125,2 -0.25,1.75 3.75,-0.375 5,-0.75 4,-1.25 6,-0.75 6,-2.25 5,-0.875 5,-1.125 6,-0.75 3,-1.125 9,-3 2.5,-0.5 1,-1 1,1 2.875,0.75 0.625,4.75 -2.5,2.5 -2.5,0.5 -3,1.125 -8,1.75 -3,1.25 -4,1 -10,1.75 -3,1.25 -4,0.75 -3,1.25 -3.5,0.375 -1,1 -1,-1 -2,2 h -1 l -1,-1 -2,2 -1,-1 h -1 l -2,2 -1,-1 -1.5,1.5 0.25,1.5 17.75,-0.25 5,-1.375 6,-0.75 4,-1 3,-1.25 4,-1 5,-0.625 2,-1.5 h 6 l 1.75,1 1,1.75 0.25,4.5 -2.5,2.5 -1.5,0.75 -4,0.75 -4,1.125 -5,0.75 -6,2.25 -6,0.75 -5,1.375 m -37,-14.75 v -0.5 -1 l -1,-0.5 v 0.5 1 l 1,0.5 m 15.5,-4 0.5,-1 h -0.5 -1 l -0.5,1 h 0.5 1 m -1.5,8 v -1 h -1 v 1 h 1"
         id="path69"
         style="stroke-width:13.0412" />
    </g>
    <g
       id="g70"
       transform="matrix(0.01715326,0,0,0.02399622,20.952345,-11.647166)"
       style="stroke-width:13.0412">
      <path
         fill="#000000"
         fill-rule="evenodd"
         d="m -647,572.5 -2.5,2.5 h -5 l -2.5,-2.5 -0.375,-2.5 -0.125,-2 0.5,-1.5 5,-5 v -1 l 3,-3 v -4 -0.5 l 1,0.5 0.25,1.25 h 1.5 l -0.5,-3.5 1.25,-0.25 1,1 1.5,-1.5 1,-2 1.5,-2.5 0.5,-1.5 4,-4 -0.5,-0.5 -1.5,0.75 -5,0.625 -4,1 -3,1.25 -4,0.875 -4,-0.125 h -7 l -4.5,0.625 -1,-1 -0.5,0.5 0.625,1.5 1,3 0.75,6 1.25,5 0.125,7 -1.25,3 -0.5,2.5 -2.5,2.5 -1.5,0.75 h -4 l -2.5,-1.75 -3,-2.375 -9,-2.25 -2,-1.375 -2.5,-2.5 -0.25,-1.25 -3.75,0.25 -4,1.125 -5,0.75 -3.25,1.375 -0.75,1.75 -3,3 -0.375,2.5 -1.375,2.25 -1.75,0.75 -3,3 -1.5,0.75 -4.5,0.25 -3.5,-3.5 v -5 l 3,-3 1,-2 1.25,-2.25 1.25,-0.25 2.5,-2.5 v -1 l 14,-14 v -1 l 7,-7 0.5,-1.5 1.5,-2.5 2,-3 1,-2 3,-3 v -1 l 3,-3 0.75,-2.75 2.25,-1.375 3,0.125 3.375,1.25 0.875,5 2,1 1,2 1.5,0.5 0.625,4.75 0.625,3.5 1.5,1.5 0.5,-0.5 v -2 l 2.5,-2.5 3.5,-0.75 14,-0.5 3,-1.375 4,-0.875 4,-1.125 5,-0.75 4,-1.25 5,-0.875 5,-1 5,-1.125 7,-0.625 3,-1.25 3,-1.125 4,-0.75 3,-1.375 7.5,-0.25 2.5,2.5 v 5 l -2.5,2.5 -1.5,0.75 -5,0.5 -2,1.375 -3,0.75 -2,1.375 -9,0.625 -6,1.125 -6,0.875 -5,1 -3.5,0.625 h -0.5 l 0.5,1 2.25,0.25 0.625,2.75 0.625,1.5 1,1 -1,1 -0.5,1.5 -1.125,2 -1.125,3.5 -1.75,2.5 -1,2 -0.5,1.5 -7,7 v 1 l -4,4 v 1 m -52,-17.25 9,-0.875 10.5,-0.375 0.5,-0.5 -1,-1 -0.375,-2.5 -1.125,-2 -3,-6 -0.75,-1.75 -1.25,-0.25 -2.5,2.5 v 1 l -9.5,9.5 h -1 l -2.5,2.5 0.5,0.5 2.5,-0.75 m 20.5,8.75 0.5,-0.5 -0.25,-1.25 -4.25,-0.25 -0.5,1 h 0.5 l 4,1"
         id="path70"
         style="stroke-width:13.0412" />
    </g>
    <g
       id="g71"
       transform="matrix(0.01715326,0,0,0.02399622,20.952345,-11.647166)"
       style="stroke-width:13.0412">
      <path
         fill="#000000"
         fill-rule="evenodd"
         d="m -835.5,581 h -4 l -3.5,-3.5 v -7 l 3,-3 v -1 l 3,-3 1,-3 7,-7 2,-4 3,-3 0.5,-1.5 2,-4 1.5,-2.5 1,-2 2.5,-2.5 h 4 l 2.5,2.5 -0.625,6 -2,2.5 -0.75,3 -1.125,2 -1.5,2.5 -4,6 -1,2 -7,7 -1,3 -2,2 1,1 -1,3 -4.5,4.5"
         id="path71"
         style="stroke-width:13.0412" />
    </g>
    <g
       id="g72"
       transform="matrix(0.01715326,0,0,0.02399622,20.952345,-11.647166)"
       style="stroke-width:13.0412">
      <path
         fill="#000000"
         fill-rule="evenodd"
         d="m -743,566.75 -5.5,0.25 -2.5,-2.5 -0.375,-5.5 -0.875,-4.75 -2.75,0.25 -3,1 -3,1.125 -4,0.875 -4,1.25 h -11 l -1.5,-0.75 -2.5,-2.5 -1,-5 -0.5,-0.5 -2.5,2.5 v 1 l -6,6 v 1 l -4,4 v 1 l -5,5 -0.75,2.75 -2.5,1.5 -1,2 -1.75,1 h -5 l -2.625,-1.5 -0.375,-6.75 2.5,-2.5 1.25,-0.25 0.25,-1.25 3,-3 v -1 l 4,-4 0.5,-1.5 1,-2 1.5,-2.5 6,-9 1,-2 3,-3 2,-4 3.5,-3.5 5.5,-0.25 2,-0.25 2.25,1.25 1.5,2.25 0.625,5 v 3 l -0.125,4 1.25,2 0.75,1.75 1.75,-0.5 4,-0.75 4,-0.875 3,-1.125 3,-0.875 2.5,-1.625 2,-1 3,-3 h 1 l 2.5,-2.5 0.625,-1.5 0.75,-3 0.625,-1.5 4.5,-4.5 6.75,0.375 1.5,2.625 v 5 l -1.25,2 -1.5,2.5 -2,3 -1.625,2.5 -1,3 -1.125,4 v 9 l 0.5,4 -1,1.75 -1.75,1 m -8,-12.75 v -1 h -1 v 1 h 1"
         id="path72"
         style="stroke-width:13.0412" />
    </g>
    <g
       id="g73"
       transform="matrix(0.01715326,0,0,0.02399622,20.952345,-11.647166)"
       style="stroke-width:13.0412">
      <path
         fill="#000000"
         fill-rule="evenodd"
         d="m -918.5,532 -2,-1 h -0.5 l 0.5,-1 2.25,0.25 0.25,1.25 -0.5,0.5"
         id="path73"
         style="stroke-width:13.0412" />
    </g>
    <g
       id="g74"
       transform="matrix(0.01715326,0,0,0.02399622,20.952345,-11.647166)"
       style="stroke-width:13.0412">
      <path
         fill="#000000"
         fill-rule="evenodd"
         d="m -901.5,583.375 -6,0.625 -2.5,-2.5 -1,-2 -2.375,-3 -0.375,-4.5 1.375,-2 1.75,-6 1.125,-2 1,-2 3,-5 0.5,-1.5 6.5,-6.5 h 1 l 8.5,-8.5 -0.5,-0.5 -6.5,-0.5 -7,-0.75 -2.25,-1.5 -1.25,-2.25 v -2 l 1,-2 0.75,-1.75 1.75,-1 7,0.125 3.5,0.625 1,1 1,-1 2.5,0.75 18,-0.125 8,-1 6,-1 4,-1.25 6.25,0.125 1.5,2.5 0.25,3.5 -3.5,3.5 -1.5,0.75 -4,0.875 -5,1 -6,1 -9.5,1 -2,1.375 -14,14 h -1 l -3,3 -1.25,0.25 -1.25,2.25 -1.5,2.5 -1,2 -0.5,1.5 -2,2 1.5,1.5 2,-2 h 1 l 2.5,2.5 -0.5,2.5 -0.875,3 -1.25,2 -0.375,2.5 -2.5,2.5 -2,1.375 m 5.5,-13.375 v -1 h -1 v 1 h 1"
         id="path74"
         style="stroke-width:13.0412" />
    </g>
    <g
       id="g75"
       transform="matrix(0.01715326,0,0,0.02399622,20.952345,-11.647166)"
       style="stroke-width:13.0412">
      <path
         fill="#000000"
         fill-rule="evenodd"
         d="m -954,583.625 h -8 l -4,-0.875 -1.5,-0.75 -4.5,-4.5 -0.75,-1.5 0.125,-5 1.25,-4.25 2.375,-1.5 6.75,-0.125 0.25,1.375 1,1 -1,1 0.25,4.25 3.25,0.25 1,1 1,-1 4.5,-0.375 4,-0.875 2,-1.5 4,-0.625 2.5,-0.625 2.5,-2.5 v -2 l -3.5,-3.5 -2,-1 -3,-2 -2,-1 -9.5,-9.5 -0.75,-1.5 v -9 l 1.25,-2 0.5,-1.5 6.5,-6.5 2,-1 3,-2 2.5,-1.5 2,-1 2,-1.125 6,-1.75 2,-1.375 h 9 l 2.5,0.75 4.5,4.5 v 3 l -1.5,1.5 -1,-1 -0.5,0.5 -0.25,2.25 -3.25,0.25 -1,1 -0.5,-0.5 -0.25,-3.25 h -3.75 l -2,1.375 -3,0.75 -2,1.125 -4,2 -1.5,0.5 -3,3 h -1 l -4.5,4.5 v 1 l -1,1 1.5,1.5 1.25,0.25 0.25,1.25 5.5,5.5 2,1 3,2 2,1 5.5,5.5 0.75,1.5 -0.125,6 -1.25,4.5 -1.375,2 -3.5,3.5 -1.5,0.5 -2,1 -2,1.25 -5,0.5 -2,1.375 -3,1 -6,1 m 39,-59.625 v -0.5 -1 l -1,-0.5 v 0.5 1 l 1,0.5 m -48,43 v -1 h -1 v 1 h 1"
         id="path75"
         style="stroke-width:13.0412" />
    </g>
    <g
       id="g76"
       transform="matrix(0.01715326,0,0,0.02399622,20.952345,-11.647166)"
       style="stroke-width:13.0412">
      <path
         fill="#000000"
         fill-rule="evenodd"
         d="m -1014,578.75 h -21 l -4.25,-0.125 -0.75,1.875 -3,3 -1,3 -2.5,2.5 h -1 l -7,7 -2.5,0.5 -3,0.125 -1.5,-0.625 -4.5,-4.5 0.62,-10 1.88,-2.5 2,-4 0.5,-1.5 3,-3 0.37,-2.5 1.63,-2.5 6,-9 1,-2 5,-5 v -1 l 3,-3 v -1 l 3,-3 1,-2 1.5,-2.5 1,-2 1.12,-2 0.75,-3 1.63,-2.5 1,-2 4.5,-4.5 3.5,0.25 1.75,1 0.87,1.75 0.38,2.5 0.5,0.5 1,-1 1.5,-0.625 2.5,-0.375 3,-3 1.5,-0.75 8,-1.5 2,-1.5 5,-0.625 4,-1 3,-1 2,0.125 4.5,0.25 2.5,2.5 -0.25,4.5 -1,1.75 -1.75,0.75 -2.5,1.75 -3.5,0.125 -4,0.25 -5,0.625 -2,1.5 -5,0.5 -2,1.25 -2.5,1.75 -3.5,1.25 -7,3 -3,0.875 -2.5,1.625 -2.75,1.75 -1.75,2.75 -1.5,2.5 -0.5,1.5 -3,3 v 1 l -3,3 0.5,0.5 2.5,-0.625 4,-0.75 3,-1.125 9,-3 3,-0.875 2,-1.125 2,-1.25 4,-0.875 6,-1 7,-0.125 1.75,1 1,1.75 0.25,3.5 -3.5,3.5 -1.5,0.5 -2,1.125 -3,0.875 -3,1.125 -4,1 -5,0.75 -4,1.125 -4,1 -3.5,0.5 h -0.5 l 0.5,-1 h 2 0.5 l -0.5,-1 -5.5,0.375 -5,1 -3,1.125 -3,0.875 -2,1.25 -2.5,0.375 h -0.5 l 0.5,1 2.5,0.625 4,1.125 h 21 l 4,-1.125 3,-1.25 4,-0.875 4,-1 4,-0.25 1.75,1 -0.375,5 -2.875,0.75 -3,3 -1.5,0.5 -2,1.125 -3,0.875 -3,1.125 -4,1.125 m -22,-21.75 v -1 h -1 v 1 h 1 m -14.5,24 4,-4 1.25,-0.25 v -1.5 l -1.75,-0.75 -1.75,-0.25 -0.25,2.25 -4,4 0.5,0.5 h 2 m 9,-3 0.5,-0.5 -1.5,-1.5 -0.5,0.5 0.25,1.25 1.25,0.25 m -1.5,1 v -1 h -1 v 1 h 1"
         id="path76"
         style="stroke-width:13.0412" />
    </g>
    <g
       id="g77"
       transform="matrix(0.01715326,0,0,0.02399622,20.952345,-11.647166)"
       style="stroke-width:13.0412">
      <path
         fill="#000000"
         fill-rule="evenodd"
         d="m -1211.5,572 -6.5,-0.25 -1.75,-1 -1,-1.75 -0.25,-3.5 3.5,-3.5 1.75,-0.75 1.75,-2.75 2,-3 1.5,-2.5 1,-2 1.25,-2 0.5,-4 3.5,-5 0.62,-4 1,-3 1.25,-2 1.75,-6 0.63,-1.5 3.5,-3.5 1.5,-0.75 4.5,-0.25 3.5,3.5 v 4 l -3,3 -0.38,5.5 -0.62,2.5 -4,4 -0.5,3.5 -0.75,4 -1.5,2 v 4.75 l 1.75,-0.375 3,-1 4,-0.125 1.75,0.5 0.25,-1.25 0.5,-0.5 1.5,1.5 -0.63,4 -1.37,2 -5.5,5.5 -2.5,0.5 -3,1.125 -4,1 -5.5,0.375 -1,-1 -4,4 m 14.5,-15 v -1 h -1 v 1 h 1"
         id="path77"
         style="stroke-width:13.0412" />
    </g>
    <g
       id="g78"
       transform="matrix(0.01715326,0,0,0.02399622,20.952345,-11.647166)"
       style="stroke-width:13.0412">
      <path
         fill="#000000"
         fill-rule="evenodd"
         d="m -1159.63,565 -1.87,8 -1,2 -1.5,2.5 -1,2 -4,4 -0.75,3 -1.25,2 -2.5,2.5 -2,1 -3,2 -2,1 -3,3 -1.5,0.625 -3.5,1.625 -6,0.75 -2.5,-2.5 v -4 l -1,-1 1,-1 v -1 l 2.5,-2.5 2.5,-0.625 4,-0.625 2.5,-1.75 3,-2 2.75,-1.75 1.25,-2.25 1.5,-2.5 1,-2 3,-3 1,-2 1.75,-2.5 0.62,-6 1.13,-4 1.25,-4 0.62,-9 1.38,-7 v -21 l -1.25,-5 -0.88,-5 -0.62,-2.5 -0.5,-0.5 -1,1 -1.25,-0.25 -0.25,-1.25 v -0.5 l -1,0.5 v 1 0.5 l -1,-0.5 -0.25,-2.25 -1.5,-0.5 -0.63,-2.75 0.13,-2 0.5,-8 1.5,-2.25 2.25,-1.375 h 3 l 1.75,0.875 1.25,2.25 1.5,2.5 4,8 1.12,2 1,3 1,4 1,5 1,10 v 12 l -1,7 -1.25,6 -0.62,9 -1.25,4 -1.13,4 m -10.37,-65 v -1 h -1 v 1 h 1 m -2,2 v -0.5 -1 l -1,-0.5 v 0.5 1 l 1,0.5 m 2,1 v -1 h -1 v 1 h 1"
         id="path78"
         style="stroke-width:13.0412" />
    </g>
    <g
       id="g113"
       transform="matrix(0.01715326,0,0,0.02399622,20.952345,-11.647166)"
       style="stroke-width:13.0412">
      <path
         fill="#000000"
         fill-rule="evenodd"
         d="m 68,745 h -1 v -1 h 1 v 1"
         id="path113"
         style="stroke-width:13.0412" />
    </g>
    <g
       id="g114"
       transform="matrix(0.01715326,0,0,0.02399622,20.952345,-11.647166)"
       style="stroke-width:13.0412">
      <path
         fill="#000000"
         fill-rule="evenodd"
         d="m 577,705.625 -10,1 -20,0.125 -2.5,-0.75 -3.5,-3.5 -0.75,-1.5 v -4 l 1,-1.75 1.25,-0.25 1,-1 2,2 2.5,0.75 13,-0.125 10,-1 8,-1 6,-1.25 7,-1 8,-0.125 2.5,1.5 0.5,5.75 -2.5,2.5 -1.5,0.75 -7,0.875 -9,0.75 -6,1.25"
         id="path114"
         style="stroke-width:13.0412" />
    </g>
    <g
       id="g115"
       transform="matrix(0.01715326,0,0,0.02399622,20.952345,-11.647166)"
       style="stroke-width:13.0412">
      <path
         fill="#000000"
         fill-rule="evenodd"
         d="m 455,697 h -1 v -1 h 1 v 1"
         id="path115"
         style="stroke-width:13.0412" />
    </g>
    <g
       id="g116"
       transform="matrix(0.01715326,0,0,0.02399622,20.952345,-11.647166)"
       style="stroke-width:13.0412">
      <path
         fill="#000000"
         fill-rule="evenodd"
         d="m 456,696 h -1 v -1 h 1 v 1"
         id="path116"
         style="stroke-width:13.0412" />
    </g>
    <g
       id="g117"
       transform="matrix(0.01715326,0,0,0.02399622,20.952345,-11.647166)"
       style="stroke-width:13.0412">
      <path
         fill="#000000"
         fill-rule="evenodd"
         d="m 357,709.75 h -6 l -1.75,-1 -1,-1.75 v -5 l 1.5,-2 0.25,-4.5 -1,-1 1,-1 0.375,-2.5 1.375,-2.25 2.25,-1.25 h 2 l 2.25,1.25 1.5,2.25 0.375,5.75 1.875,1 3.75,0.5 -0.125,2.75 -0.875,1.75 -1.5,0.5 -0.25,1.25 -4.5,4.5 -1.5,0.75"
         id="path117"
         style="stroke-width:13.0412" />
    </g>
    <g
       id="g118"
       transform="matrix(0.01715326,0,0,0.02399622,20.952345,-11.647166)"
       style="stroke-width:13.0412">
      <path
         fill="#000000"
         fill-rule="evenodd"
         d="m 263,687.75 -4,-0.375 -5,-1.125 -32.25,-0.25 -1.375,-3 v -3 l 0.625,-1.5 3.5,-3.5 6.5,0.25 h 2 l 6,0.5 h 16 5.5 l 3.5,1.625 2.5,1.375 0.5,5.75 -2.5,2.5 -1.5,0.75"
         id="path118"
         style="stroke-width:13.0412" />
    </g>
    <g
       id="g119"
       transform="matrix(0.01715326,0,0,0.02399622,20.952345,-11.647166)"
       style="stroke-width:13.0412">
      <path
         fill="#000000"
         fill-rule="evenodd"
         d="m -114,700 h -1 v -1 h 1 v 1"
         id="path119"
         style="stroke-width:13.0412" />
    </g>
    <g
       id="g120"
       transform="matrix(0.01715326,0,0,0.02399622,20.952345,-11.647166)"
       style="stroke-width:13.0412">
      <path
         fill="#000000"
         fill-rule="evenodd"
         d="m -135,685 h -1 v -1 h 1 v 1"
         id="path120"
         style="stroke-width:13.0412" />
    </g>
    <g
       id="g121"
       transform="matrix(0.01715326,0,0,0.02399622,20.952345,-11.647166)"
       style="stroke-width:13.0412">
      <path
         fill="#000000"
         fill-rule="evenodd"
         d="m -314.5,722 h -1 -0.5 l 0.5,-1 h 1 0.5 l -0.5,1"
         id="path121"
         style="stroke-width:13.0412" />
    </g>
    <g
       id="g122"
       transform="matrix(0.01715326,0,0,0.02399622,20.952345,-11.647166)"
       style="stroke-width:13.0412">
      <path
         fill="#000000"
         fill-rule="evenodd"
         d="m 574.5,684.875 -4.5,0.5 -6,0.25 -13,0.125 -2.5,-0.75 -2.5,-2.5 0.25,-4.5 1,-1.75 3.25,-0.25 1,-1 1,1 1,-1 h 4 l 1,1 1,-1 2.5,-0.75 13,-0.5 4,-1.375 5,-0.625 2,-1.5 h 4 l 1.5,0.75 2.5,2.5 0.625,1.5 v 3 l -0.875,1.75 -1.75,0.875 -2.5,0.375 -1,1 -1,-1 -1,1 -3.5,0.375 -3,1.25 -5.5,1.25"
         id="path122"
         style="stroke-width:13.0412" />
    </g>
    <g
       id="g123"
       transform="matrix(0.01715326,0,0,0.02399622,20.952345,-11.647166)"
       style="stroke-width:13.0412">
      <path
         fill="#000000"
         fill-rule="evenodd"
         d="m 488,740.75 h -4 l -1.75,-1 -1,-1.75 v -6 l 1.375,-2 1,-3 0.625,-4 1.375,-2 1.75,-6 2.25,-4 0.75,-3 2.25,-4 1,-3 0.75,-4 1.125,-3 1,-3 1.125,-3 1,-5 0.625,-10 v -2 l -0.625,-8 -1,-4 -1.125,-3 -0.875,-3 -1.625,-2.5 -1,-2 -3,-3 v -1 l -3,-3 -1,-3 -3,-3 -0.5,-1.5 -0.75,-1.75 -2.5,-0.5 -0.5,-2.5 -2.25,-1 -0.5,-5.75 2.5,-2.5 5.5,0.25 2.25,1.5 0.75,1.75 4,4 1,3 3,3 2,4 3,3 v 1 l 3,3 0.5,1.5 1,2 1.125,2 0.875,3 1,3 1.125,3 1.125,6 v 16 l -1.25,5 -0.875,5 -2.25,6 -0.75,4 -1.125,3 -1,3 -0.875,3 -1.125,2 -1,2 -1.125,2 -0.75,3 -1.25,2 -0.875,3 -2,6 -1.125,3 -0.625,4 -1.5,2.25 -2.25,1.5"
         id="path123"
         style="stroke-width:13.0412" />
    </g>
    <g
       id="g124"
       transform="matrix(0.01715326,0,0,0.02399622,20.952345,-11.647166)"
       style="stroke-width:13.0412">
      <path
         fill="#000000"
         fill-rule="evenodd"
         d="m 450,708.625 -3,-0.25 -4,-0.75 -2.5,-0.625 -2.5,-2.5 -0.75,-2.5 0.125,-8 1,-4 1,-3 0.625,-1.5 -0.5,-0.5 -3.5,3.5 -0.5,1.5 -1,2 -0.5,1.5 -0.5,0.5 -1,-1 -1.5,1.5 0.5,0.5 h 2 l 0.5,0.5 -1.5,1.5 h -1 l -1,1 -1.5,-1.5 v -2 -0.5 l -1,0.5 -0.375,4.5 -1.25,4.5 -1.875,2.5 -0.5,1.5 -7.5,7.5 -1.5,0.625 -3,1 -4,1.125 h -10 l -4,-1 -2,-1.25 -2,-1 -1.5,-0.5 -7.5,-7.5 -0.5,-1.5 -1.125,-2 -1.125,-3 v -12 l 1,-5 1,-1.75 1.25,-0.25 3.5,-3.5 v -1 l 1,-1 -1.5,-1.5 h -1 l -2.5,-2.5 -0.75,-1.5 v -8 l 1.125,-3 0.625,-1.5 3,-3 1,-3 3.5,-3.5 2.5,-0.5 3,-1.25 h 9 l 3,1.25 3,0.875 1.5,0.625 5.5,5.5 1.25,2 1.5,3.5 v 8 l -1.25,2 -1.25,2.25 -1.75,0.75 h -0.5 l 0.5,1 h 1 l 2.5,2.5 v 1 l 2.5,2.5 1.25,0.25 1.25,2.25 2.375,3 0.625,4 v 0.5 l 1,-0.5 0.75,-1.5 0.5,-5 1.25,-2 0.5,-1.5 4,-4 v -1 l 3,-3 v -1 l 3,-3 v -1 l 3,-3 1.25,-2 1.25,-3.5 3,-9 0.875,-3 1.375,-2.25 3.25,-1.25 3,-0.125 2.25,1.375 1.5,2.25 v 4 l -1.25,2 -1,2 -1.125,2 -1,3 -1,4 -1.75,10 -1,4 -1.25,3 -0.75,4 -2.25,6 -0.75,4 -0.375,2.75 1.75,-0.375 3.5,0.375 2.5,0.75 1.875,-0.25 0.125,5.25 -4.5,4.5 -1.5,0.5 -2,1.125 m -49,-51.625 v -1 h -1 v 1 h 1 m -2,1 v -1 h -1 v 1 h 1 m 2,9.75 2,-1.25 2,-1.125 3.25,-1.125 0.75,-2.75 -3.5,-3.5 -1.5,-0.625 -3.25,0.375 -1,2 -2.75,-0.125 -1.5,-0.625 -3,3 -1.25,0.25 -0.75,1.75 -0.25,1.75 1.75,1 5,0.625 4,0.375 m 8,39 2,-1.25 2.25,-1.25 1.25,-2.25 1.875,-2.5 0.625,-4 1,-1 -1,-1 -0.625,-4 -1.625,-2.25 -2,-1 -0.75,-1.75 -2.5,-2.5 -1.5,-0.75 -4,-0.5 -1.5,-0.75 -0.5,0.5 1,1 -0.25,1.25 -1.75,-0.5 -5.75,-0.125 -0.25,1.375 -2.5,2.5 -2.875,0.75 -1,5.25 v 3 l 1,5.5 1.625,2.25 2.25,1.25 3,2.5 12.5,0.25 m 21,-12.75 v -1 h -1 v 1 h 1"
         id="path124"
         style="stroke-width:13.0412" />
    </g>
    <g
       id="g125"
       transform="matrix(0.01715326,0,0,0.02399622,20.952345,-11.647166)"
       style="stroke-width:13.0412">
      <path
         fill="#000000"
         fill-rule="evenodd"
         d="m 326,722.75 -7,-0.125 -5,-1 -3.5,-0.625 -3,-3 h -1 l -2.5,-2.5 0.25,-6.5 1.125,-3 0.625,-1.5 2.5,-2.5 1.5,-0.625 3,-1 5.5,0.25 2,1.375 1.5,1.5 -0.5,0.5 h -1 l -0.5,0.5 1,1 -0.5,0.5 h -1 l -4.5,4.5 0.5,0.5 1.5,0.75 7.5,0.25 4.5,-4.5 0.5,-1.5 1.25,-2 0.75,-4 1.125,-4 1,-7 0.25,-10.25 -3.375,0.25 -2.5,1.5 -2,1.25 -5,1 h -13 l -3,-1.125 -2,-1.125 -1.5,-0.5 -3,-3 -1.25,-0.25 -1.25,-2.25 -1.75,-2.5 -0.75,-4 -0.125,-4 1,-3 0.625,-1.5 7.5,-7.5 2,-1 3,-2 2.5,-1.5 4,-2 2,-1.125 3,-1 4,-1.125 11.5,-0.25 3.5,3.5 0.75,1.5 0.25,4.5 3,3 0.625,2.5 v 6 5 l 1.125,6 v 19 l -1.125,7 -1.125,4 -0.75,4 -1.25,2 -1.5,2.5 -1,2 -6.5,6.5 -1.5,0.625 -3,1.125 m -11,-50.5 8.5,-0.875 2.5,-1.875 2.25,-1.25 2.125,-2.75 0.375,-4.25 -1.5,-0.5 -0.25,-1.25 -0.5,-0.5 -1,1 -0.5,-0.5 0.75,-1.75 1.75,-0.75 0.5,-1 h -0.5 l -1.25,-0.25 0.5,-3.5 -4.75,0.125 -4,0.875 -2.5,1.75 -5,3 -2,1 -5,5 -1.25,0.25 v 4.5 l 1.25,0.25 3,3 4.5,0.25 h 2 m 16,-16.25 v -1 h -1 v 1 h 1 m -0.5,3 0.5,-1 h -0.5 -1 l -0.5,1 h 0.5 1"
         id="path125"
         style="stroke-width:13.0412" />
    </g>
    <g
       id="g126"
       transform="matrix(0.01715326,0,0,0.02399622,20.952345,-11.647166)"
       style="stroke-width:13.0412">
      <path
         fill="#000000"
         fill-rule="evenodd"
         d="m 166.75,649.75 -1.25,0.25 -1.5,-1.5 0.5,-0.5 2.25,0.25 v 1.5"
         id="path126"
         style="stroke-width:13.0412" />
    </g>
    <g
       id="g127"
       transform="matrix(0.01715326,0,0,0.02399622,20.952345,-11.647166)"
       style="stroke-width:13.0412">
      <path
         fill="#000000"
         fill-rule="evenodd"
         d="m 186.5,692 -4.5,0.375 -3,1.25 -5,-0.125 -5,-0.875 -4,-1 -3,-1 -2,-1.375 -4,-0.5 -1.5,-0.75 -3,-3 -1.25,-0.25 -0.875,-1.75 -0.75,-3 -0.125,-2 0.5,-1.5 2.5,-2.5 1.5,-0.625 h 3 l 2,1.25 3,0.75 2.5,2 4.25,0.875 0.25,1.25 2.5,2.5 2.5,0.625 4,-0.125 3.875,-0.75 -0.25,-5.75 -1,-4 -1,-3 -1.125,-2 -1,-2 -3,-5 -5,-10 -1.25,-2.25 -2.75,-0.75 h -0.5 l 0.5,-1 2.25,-0.25 0.625,-2.75 1.125,-2 0.5,-1.5 4.5,-4.5 1.5,-0.625 3,-0.75 2,-1.125 2,-1.25 4,-0.875 5,-0.125 2,1.25 1.5,0.5 3.5,3.5 v 4 l -4.5,4.5 -1.5,0.5 -2,1.25 -4,0.875 -5,0.625 -1.5,0.75 -0.5,0.5 1,1 0.5,1.5 1.5,2.5 2,3 1.5,2.5 1.125,2 0.75,3 1.25,2 0.875,3 1.125,3 1,5 0.125,9 -0.75,1.5 -4.5,4.5 m -17.5,-10 v -1 h -1 v 1 h 1"
         id="path127"
         style="stroke-width:13.0412" />
    </g>
    <g
       id="g128"
       transform="matrix(0.01715326,0,0,0.02399622,20.952345,-11.647166)"
       style="stroke-width:13.0412">
      <path
         fill="#000000"
         fill-rule="evenodd"
         d="m 122,699.5 -2.5,0.5 -2,-2 -0.5,0.5 -0.75,2.5 -0.625,7 -0.625,3.5 -2.5,2.5 -4.75,-0.625 -1.5,-2.375 -0.625,-4 v -3 l 0.75,-6 1,-5 1,-4 1,-3 1.25,-2 0.875,-3 1.125,-3 0.75,-4 1.125,-3 1,-3 1.125,-3 0.875,-4 3,-12 0.75,-4 1.375,-2 0.875,-3 0.5,-2.5 4.5,-4.5 4.5,0.25 1.75,1 1,1.75 -0.125,6 -1.25,5 -0.75,11 -1,8 -1,5 -1.25,3 -0.75,5 -1.25,3 -0.75,4 -0.625,2.5 -1,1 1,1 -0.375,4.5 -1.375,3.25 -3.25,1.25"
         id="path128"
         style="stroke-width:13.0412" />
    </g>
    <g
       id="g129"
       transform="matrix(0.01715326,0,0,0.02399622,20.952345,-11.647166)"
       style="stroke-width:13.0412">
      <path
         fill="#000000"
         fill-rule="evenodd"
         d="m 64,749.75 h -15 l -4,-1 -2,-1.25 -1.5,-0.5 -6.5,-6.5 -0.5,-1.5 -1,-2 -1.125,-2 -1.125,-3 -0.875,-9 v -15 l 1.125,-8 0.875,-8 1,-6 1.125,-5 0.875,-5 1.125,-4 0.875,-4 2.25,-6 0.75,-5 1.125,-3 1,-3 0.875,-3 1.125,-2 1.5,-2.5 1.75,-2.75 2.75,-1.75 2.5,-0.5 2.25,1.25 0.125,2.25 -0.125,2.75 1.25,0.25 0.5,0.5 -1,1 v 1 l -0.5,0.5 -1,-1 -0.5,0.5 -0.5,1.5 -1,2 -1.25,2 -0.625,5 -1.25,4 -0.75,5 -1.25,3 -0.75,5 -1.25,4 -1,5 -0.875,6 -1.125,6 -1.125,9 v 22 l 1.125,4 0.625,2.5 4.5,4.5 1.5,0.625 3,1.125 8,0.625 4,0.875 1.75,1 0.5,3.5 2.25,0.25 0.5,0.5 -2.5,2.5 -2.5,0.75 m -9,-103.75 v -1 h -1 v 1 h 1"
         id="path129"
         style="stroke-width:13.0412" />
    </g>
    <g
       id="g130"
       transform="matrix(0.01715326,0,0,0.02399622,20.952345,-11.647166)"
       style="stroke-width:13.0412">
      <path
         fill="#000000"
         fill-rule="evenodd"
         d="m -7,711.375 -4,1.25 -6,0.75 -3,-0.125 -8,-0.625 -5,-0.875 -2,-1.25 -2.25,-1.25 -1.5,-2.25 -0.25,-6.5 2.5,-2.5 1.5,-0.75 4,0.25 4,0.75 1.5,0.75 0.5,0.5 -1,1 0.5,0.5 2,1.375 8.5,0.25 4,-1 3,-1.25 6,-0.625 2.25,-1.5 1.5,-2.25 -0.375,-6.5 -1.625,-2.25 -1.25,-0.25 -3,-3 -2.5,-0.5 -3,-1.125 -4,-0.75 -3,-1.25 -4,-0.75 -3,-1 -4,-2.25 -3,-0.875 -2.5,-0.5 -2.5,-2.5 0.25,-5.5 1.25,-2 0.75,-1.75 1.25,-0.25 3,-3 1.5,-0.5 2,-1 2,-1.125 3,-0.75 4,-2.25 3,-1 4,-1 5,-0.875 5,-1.25 h 12 l 1.5,0.75 2.5,2.5 v 7 l -3.5,3.5 -1.5,0.5 -2,1.25 -5,0.875 -7,1 -10,0.75 -4.5,0.625 h -0.5 l 0.5,1 3.5,0.5 4,1 4,0.75 2,1.375 3,0.75 2,1.125 1.75,0.75 0.5,1.5 1.25,0.25 5.5,5.5 0.5,1.5 1.25,2 0.875,4 v 5 l -0.875,4 -1.25,2 -0.5,1.5 -4.5,4.5 -1.5,0.5 -2,1 -2,1.25 -7,0.625 m -11,-42.375 v -1 h -1 v 1 h 1"
         id="path130"
         style="stroke-width:13.0412" />
    </g>
    <g
       id="g131"
       transform="matrix(0.01715326,0,0,0.02399622,20.952345,-11.647166)"
       style="stroke-width:13.0412">
      <path
         fill="#000000"
         fill-rule="evenodd"
         d="m -71,685.5 -2,1 -4,2 -2,1.25 -4,0.625 -3,1.25 -4,1 -5.75,0.5 -0.875,2.875 -1,4 -0.875,5 -1.125,5 -0.125,7 1.125,3 0.125,2 -1,2 -0.75,1.75 -1.75,0.75 -2,-0.125 -2.5,-0.375 -2.5,-2.5 -0.75,-1.5 -0.875,-4 -0.75,-6 -1.25,-3 -0.75,-4 0.125,-3.5 0.75,-2.5 -0.75,-1.875 -8.75,0.25 -8,0.375 -3,-1.375 -4.5,-0.375 -5.5,-5.5 0.25,-3.5 0.75,-1.5 0.5,-0.5 1,1 0.5,-0.5 0.25,-1.25 3,0.5 1,2.125 6.75,0.375 h 3 l 9,-0.625 6,-1.25 6.75,-0.5 0.875,-3.875 0.875,-6 1.125,-6 0.75,-7 0.875,-6 1,-1.75 1.75,-1 3.5,-0.25 3.5,3.5 -0.375,9.5 -1.25,6 -0.625,8 -0.5,1.75 2.75,-0.375 4,-0.75 3,-1 2,-1.25 3.5,-1.125 2.5,-1.875 3,-1 5.25,0.25 1.375,2.375 v 3 l -0.625,1.5 -3.5,3.5 -1.5,0.5 m -66,0.5 v -1 h -1 v 1 h 1 m -4,2 v -1 h -1 v 1 h 1 m 32.5,12 0.5,-0.5 v -2 l 1,-1 -0.5,-0.5 h -5 l -0.5,1 h 0.5 1 l 3,3 m -2.5,2 v -1 h -1 v 1 h 1"
         id="path131"
         style="stroke-width:13.0412" />
    </g>
    <g
       id="g132"
       transform="matrix(0.01715326,0,0,0.02399622,20.952345,-11.647166)"
       style="stroke-width:13.0412">
      <path
         fill="#000000"
         fill-rule="evenodd"
         d="m -193,744.75 h -5 l -1.75,-1 -1,-1.75 0.125,-5 1,-3 1.25,-2 0.75,-3 1.375,-2 0.625,-4 1.125,-3 0.875,-3 1.375,-2 0.75,-4 1,-4 0.875,-4 1,-3 1.375,-2 1,-7 v -25 l -1.125,-5 -1,-3 -1.125,-2 -2,-4 -1.5,-2.5 -1,-2 -2.5,-2.5 -1,1 h -2 l -1.5,-1.5 1,-1 -0.375,-2.5 -0.125,-2 1.25,-2.25 2.25,-1.25 h 2 l 2,1 2.5,1.5 2.75,1.75 0.75,1.75 3,3 1,2 1.5,2.5 2,4 1.25,2 0.75,4 1.125,4 1.125,7 -0.125,17 -1,9 -0.875,5 -1.5,2 -0.75,4 -1,4 -0.875,4 -1,3 -1.25,2 -1,3 v 5 4.5 l -2,2.5 -1.125,3.5 -2.25,3 -1.25,2.25 -1.75,1 m 8,-14.75 v -1 h -1 v 1 h 1"
         id="path132"
         style="stroke-width:13.0412" />
    </g>
    <g
       id="g133"
       transform="matrix(0.01715326,0,0,0.02399622,20.952345,-11.647166)"
       style="stroke-width:13.0412">
      <path
         fill="#000000"
         fill-rule="evenodd"
         d="m -247,725.625 -15.5,0.375 -3.5,-3.5 v -4 l 3.5,-3.5 6.5,-0.625 12.5,-0.375 9.5,-9.5 0.5,-1.5 1,-2 1.125,-2 1.125,-3 v -12 l -1.125,-3 -1.125,-2 -1,-2 -0.5,-1.5 v -0.5 l -1,0.5 -0.375,2.5 -0.625,1.5 -4,4 -0.75,1.75 -2.75,1.75 -2.5,1.5 -2,1 -2,1.125 -3,1.125 h -15 l -2,-1.25 -2.25,-1.25 -1.5,-2.25 -0.875,-4 v -5 l 1.125,-3 1.25,-3.5 1.25,-2 7,-7 v -1 l 5.5,-5.5 2,-1 2.5,-1.5 6,-3 2.5,-1.5 2.5,-1.75 h 5 l 2.25,1.5 1.5,2.25 0.5,4 1.375,2 0.75,3 1.125,2 0.5,1.5 3,3 1,2 1.5,2.5 1,2 1.125,2 0.75,3 1.375,2 1,4 -0.125,10 -1,5 -1,3 -1.25,2 -0.75,3 -1.625,2.5 -1,2 -12.5,12.5 -1.5,0.75 -7,0.875 m -11,-44 5,-0.875 2.5,-1.75 2.25,-1.25 0.25,-1.25 3,-3 0.5,-1.5 1.25,-2 0.25,-10.75 -2,0.25 -4,2 -1.5,0.5 -5.5,5.5 v 1 l -7,7 -0.75,1.5 v 4.875 l 5.75,-0.25"
         id="path133"
         style="stroke-width:13.0412" />
    </g>
    <g
       id="g134"
       transform="matrix(0.01715326,0,0,0.02399622,20.952345,-11.647166)"
       style="stroke-width:13.0412">
      <path
         fill="#000000"
         fill-rule="evenodd"
         d="m -311.75,720.25 -2.25,0.125 -2.5,-0.375 -1,1 -0.5,-0.5 -0.625,-1.5 0.625,-3.5 1.375,-3.5 2.25,-4 0.75,-3 1.25,-2 0.875,-3 2,-6 0.875,-3 1.25,-2 0.75,-3 2.25,-4 0.875,-3 1.125,-3 1,-4 0.75,-5 1.125,-4 1,-4 0.75,-4 2.5,-4 0.625,-4 1,-3 0.625,-1.5 2.5,-2.5 5.75,0.5 1.5,2.5 -0.375,7 -0.625,14 -1.25,5 -0.875,5 -0.875,4 -2.5,4 -0.75,4 -1,4 -0.875,4 -1.125,3 -0.875,3 -1.375,2 -0.25,3.5 -1,1 1,1 0.25,1.25 1.5,0.5 0.25,1.25 -1,1 1,1 -1,3 -3.5,3.5 h -4 l -2.5,-2.5 -0.375,-2.5 -0.625,-1.5 v -0.5 l -1,0.5 -1,2 -2,3 -1.75,2.75"
         id="path134"
         style="stroke-width:13.0412" />
    </g>
    <g
       id="g135"
       transform="matrix(0.01715326,0,0,0.02399622,20.952345,-11.647166)"
       style="stroke-width:13.0412">
      <path
         fill="#000000"
         fill-rule="evenodd"
         d="m 516,554 h -1 v -1 h 1 v 1"
         id="path135"
         style="stroke-width:13.0412" />
    </g>
    <g
       id="g136"
       transform="matrix(0.01715326,0,0,0.02399622,20.952345,-11.647166)"
       style="stroke-width:13.0412">
      <path
         fill="#000000"
         fill-rule="evenodd"
         d="m 378,559 0.25,-0.75 1.75,0.75 h -2"
         id="path136"
         style="stroke-width:13.0412" />
    </g>
    <g
       id="g137"
       transform="matrix(0.01715326,0,0,0.02399622,20.952345,-11.647166)"
       style="stroke-width:13.0412">
      <path
         fill="#000000"
         fill-rule="evenodd"
         d="m 381.5,558 h -1 -0.5 l 0.5,-1 h 1 0.5 l -0.5,1"
         id="path137"
         style="stroke-width:13.0412" />
    </g>
    <g
       id="g138"
       transform="matrix(0.01715326,0,0,0.02399622,20.952345,-11.647166)"
       style="stroke-width:13.0412">
      <path
         fill="#000000"
         fill-rule="evenodd"
         d="m -129,558 h -1 v -1 h 1 v 1"
         id="path138"
         style="stroke-width:13.0412" />
    </g>
    <g
       id="g139"
       transform="matrix(0.01715326,0,0,0.02399622,20.952345,-11.647166)"
       style="stroke-width:13.0412">
      <path
         fill="#000000"
         fill-rule="evenodd"
         d="m -128,556 h -1 v -1 h 1 v 1"
         id="path139"
         style="stroke-width:13.0412" />
    </g>
    <g
       id="g140"
       transform="matrix(0.01715326,0,0,0.02399622,20.952345,-11.647166)"
       style="stroke-width:13.0412">
      <path
         fill="#000000"
         fill-rule="evenodd"
         d="m -127,555 -1,-0.5 v -1 -0.5 l 1,0.5 v 1 0.5"
         id="path140"
         style="stroke-width:13.0412" />
    </g>
    <g
       id="g141"
       transform="matrix(0.01715326,0,0,0.02399622,20.952345,-11.647166)"
       style="stroke-width:13.0412">
      <path
         fill="#000000"
         fill-rule="evenodd"
         d="m -126,553 h -1 v -1 h 1 v 1"
         id="path141"
         style="stroke-width:13.0412" />
    </g>
    <g
       id="g142"
       transform="matrix(0.01715326,0,0,0.02399622,20.952345,-11.647166)"
       style="stroke-width:13.0412">
      <path
         fill="#000000"
         fill-rule="evenodd"
         d="m -125,552 h -0.5 l -0.5,-0.5 1,-0.5 v 1"
         id="path142"
         style="stroke-width:13.0412" />
    </g>
    <g
       id="g143"
       transform="matrix(0.01715326,0,0,0.02399622,20.952345,-11.647166)"
       style="stroke-width:13.0412">
      <path
         fill="#000000"
         fill-rule="evenodd"
         d="m -125,551 v -0.5 l 0.5,-0.5 0.5,1 h -1"
         id="path143"
         style="stroke-width:13.0412" />
    </g>
    <g
       id="g144"
       transform="matrix(0.01715326,0,0,0.02399622,20.952345,-11.647166)"
       style="stroke-width:13.0412">
      <path
         fill="#000000"
         fill-rule="evenodd"
         d="m 576.5,584 h -5 l -5.5,-5.5 -0.625,-1.5 -1.125,-3 0.125,-9 1.125,-6 0.875,-6 1.125,-5 0.875,-5 1.375,-3 0.375,-8.75 1.875,-1 6.25,0.25 1.5,2.5 v 10 l -1.375,3 -1,5 -0.875,6 -1.125,6 -0.375,9.5 5,5 -0.375,2.5 -0.625,1.5 -2.5,2.5 m 1.5,-6 v -1 h -1 v 1 h 1"
         id="path144"
         style="stroke-width:13.0412" />
    </g>
    <g
       id="g145"
       transform="matrix(0.01715326,0,0,0.02399622,20.952345,-11.647166)"
       style="stroke-width:13.0412">
      <path
         fill="#000000"
         fill-rule="evenodd"
         d="m 503.75,542.75 h -1.5 v -1.5 h 1.5 v 1.5"
         id="path145"
         style="stroke-width:13.0412" />
    </g>
    <g
       id="g146"
       transform="matrix(0.01715326,0,0,0.02399622,20.952345,-11.647166)"
       style="stroke-width:13.0412">
      <path
         fill="#000000"
         fill-rule="evenodd"
         d="m 473,534 1.5,-1 0.5,0.5 -0.25,2.25 -1.75,0.25 v -2"
         id="path146"
         style="stroke-width:13.0412" />
    </g>
    <g
       id="g147"
       transform="matrix(0.01715326,0,0,0.02399622,20.952345,-11.647166)"
       style="stroke-width:13.0412">
      <path
         fill="#000000"
         fill-rule="evenodd"
         d="m 527.5,571 -5.5,-0.25 -1.5,-0.75 -2.5,-2.5 -0.625,-1.5 -1.125,-3 v -9 l 0.5,-1.75 -1.25,-0.25 -0.5,-0.5 1.5,-1.5 2.75,-0.75 2,-2.75 1.125,-3.5 1.125,-2 2,-4 0.5,-1.5 1,-1 -0.5,-0.5 -2.5,0.625 -5,0.75 -4,1.25 -10,1.75 -3.25,1.375 -0.75,2.75 2,2 -0.5,0.5 -1.75,-0.75 -0.75,-1.75 v -0.5 l -1,0.5 -0.25,1.25 -1.75,-0.25 -2.25,-1.25 -0.75,-1.75 -3,-3 v -4 l 3.5,-3.5 3.5,-0.375 3,-1.25 5,-1 6,-0.75 3,-1.25 5,-1 7,-0.75 5,-1.25 7,-0.75 5,-1.25 8,-0.625 2,-1.375 3,-0.75 2,-1.375 h 6 l 2.25,1.5 1.5,2.25 v 4 l -1.5,2.25 -2.25,1.375 -3,0.875 -3,0.125 -2,-0.125 -2,1.25 -8,0.625 -4,1.25 -5.875,0.5 -0.375,5.875 -1.25,2 -2,4 -1.25,2 -0.875,4.5 -1.875,2.5 -1,2 0.5,2.5 1.75,2.5 v 7 l -0.75,1.5 -2.5,2.5 m -28.5,-29 v -1 h -1 v 1 h 1"
         id="path147"
         style="stroke-width:13.0412" />
    </g>
    <g
       id="g148"
       transform="matrix(0.01715326,0,0,0.02399622,20.952345,-11.647166)"
       style="stroke-width:13.0412">
      <path
         fill="#000000"
         fill-rule="evenodd"
         d="m 259,530 v -1 h -1 v 1 h 1 m 62,7 v -1 h -1 v 1 h 1 m 150,-2 v -1 h -1 v 1 h 1 m 2,1 -0.25,1.75 h -1.5 l -0.25,-1.25 -0.5,-0.5 -1,1 -1,-1 -3.5,0.375 -3,1 -1.5,0.625 -4.5,4.5 v 1 l -5,5 -0.5,1.5 -2,4 -3,5 -1.125,2 -0.125,2.75 3.75,1 14,-0.125 7,-1 6,-1 3,-1.25 5,-0.875 5,-1 5,-1.125 5.75,-0.25 0.5,1.625 2.25,0.25 h 0.5 l -0.5,1 -1.25,0.25 v 1.5 l 1.25,0.25 1,-1 0.5,0.5 v 1 l -4.5,4.5 -1.5,0.75 -6,0.625 -4,1.25 -6,0.75 -3,1.25 -4,1 -7,1.125 h -22 l -4,-1 -2,-1.25 -1.5,-0.5 -3.5,-3.5 -0.25,-1.25 -2.75,0.125 -2,1.25 -3,0.875 -3,1 -3,1.125 -4,1 -10,1.75 -4,1.25 -6,1 -8,1.125 h -21 l -5.5,-0.75 -3,-3 -1.25,-0.25 -0.875,-1.75 -0.375,-2.5 3.5,-3.5 1.25,-0.25 0.625,-4.75 0.625,-3.5 -0.5,-0.5 -1,1 -1.5,0.5 -2,1.125 -3,1 -4,0.75 -3,1.125 -9,3 -3,1.125 -4,1.125 -10.75,0.25 -0.875,2 -0.375,2.5 -2.5,2.5 -2,1.375 -4.5,0.375 -1.75,-1 -0.75,-1.75 -1.125,-2 0.25,-3 0.375,-5.5 1,-1 -0.5,-0.5 h -1 l -1,-1 -1,1 -1.25,-0.25 -0.25,-2.25 -0.5,-0.5 -1,1 -3.5,0.5 -4,1.125 -5,1 -6,0.75 -3,1.375 -6.75,0.375 -0.75,1.875 -1,2 -0.5,1.5 -4.5,4.5 -3.5,-0.25 -2,-1.25 -2.25,-1.25 -1.5,-2.25 -0.25,-6.5 v -0.5 l -1,0.5 -0.75,2.75 -2.25,1.25 -2,1.125 -3,0.75 -4,2.25 -3,0.875 -3,1 -3,0.875 -2,1.125 -2,1.25 -4,0.5 -2,0.125 -3,0.375 -7,0.5 -3,1.5 h -12 -3.25 l -1,2 -1.75,1 h -5 l -2.25,-1.5 -1.5,-2.25 -0.625,-6 -0.625,-3.5 3,-3 0.625,-1.5 0.75,-3 1.125,-2 1,-2 1.125,-2 1,-3 0.375,-4.5 3,-3 0.625,-1.5 0.75,-3 1.125,-2 0.5,-1.5 1,-1 -0.5,-0.5 -3.5,0.25 -2,1.5 -5.5,0.25 -2.5,-2.5 v -2 l 2.5,-2.5 h 1 l 3,-3 4.5,-0.5 5,-0.875 4,-1.25 5,-0.75 3,-1.25 4,-0.875 8,-2 4,-1.125 5.5,-0.375 1,-1 1,1 h 1 l 2.5,2.5 -1,3 -4.5,4.5 h -3 l -1,-1 -1,1 -5.5,0.375 -4,1.125 -4,0.875 -3.25,1.375 -1.75,2.75 -1.625,2.5 -0.75,3 -1.125,2 -0.25,1.75 2.75,-0.125 2,-1.25 3,-0.75 2,-1.25 3,-1.125 h 9 l 4,1 2.25,1.5 1.375,2.25 v 3 l -1.375,2.25 -2.25,1.375 -3,0.75 -2.5,1.875 -3.5,1.125 -2,1.25 -6,1.75 -2,1.25 -3,0.875 -2.5,0.5 -2.5,2.5 -0.5,1.5 -1.5,2.5 -1,2 -1,1 0.5,0.5 5.5,-0.375 3,-1.25 5,-0.875 5,-1.125 6,-0.75 3,-1 2,-1.25 3,-0.875 3,-1 3,-0.875 2,-1.25 3,-0.75 1.75,-0.875 1,-3 1.75,-0.75 1,1 1,-1 1.5,0.75 4.5,0.25 3.5,-3.5 v -1 l 4,-4 0.5,-1.5 4,-8 1.125,-2 0.75,-3 0.625,-1.5 1,-1 -0.5,-0.5 -5.5,0.625 -7,0.625 -2.5,0.75 -2.5,-2.5 v -4 l 3.5,-3.5 1.5,-0.75 8,-0.625 10,-2.25 6,-0.75 5,-1.125 5,-1 5,-0.875 3,-1.125 3.5,0.25 2.875,2 v 5.5 l -2.375,1.375 -3,1 -4,1 -5,0.875 -10,2 -4.75,0.75 0.5,1.75 -0.125,6 -1,4 -1,3 -1.25,2 -0.75,3 -1.125,2 -1,2 -0.5,1.5 -1,1 0.5,0.5 1.25,-0.25 0.5,-1.5 h 1.5 l 0.25,1.25 0.5,0.5 1,-1 2.5,-0.75 7,-0.625 5,-1 4,-1.125 4,-0.875 3,-1.25 5,-0.125 1.5,0.75 0.5,0.5 -1,1 0.5,0.5 1.25,-0.25 0.25,-1.25 0.5,-0.5 1,1 0.5,-0.5 0.5,-1.5 1.125,-2 0.75,-3 1.125,-2 1,-2 0.25,-1.875 -5.75,0.25 -3,1.25 -6.25,-0.125 -0.75,-2 -1,-1 1,-1 0.5,-1.5 0.75,-1.75 2.25,-1.25 2.5,-1.75 4,-0.75 4,-0.875 3,-1.25 8,-1.75 3,-1.25 6,-0.625 2,-1.5 h 6 l 2.5,1.5 0.25,6.25 -1,1.75 -2.75,0.875 -4,0.625 -2,1.5 -3.5,0.25 -1,-1 -1,1 -2.25,0.25 -0.625,4.75 -1.125,3 -0.875,3 -1.25,2 -0.75,3 -1.125,2 -2,4 -0.5,1.5 -1,1 0.5,0.5 6.5,-0.25 3,-1.25 9,-3 3,-1.125 5,-0.875 5,-1 4.75,-0.25 0.25,1.25 0.5,0.5 1,-1 0.5,0.5 0.25,1.25 1.5,0.5 0.25,1.25 v 0.5 l 1,-0.5 0.75,-3 2.25,-3 1.5,-2.5 1.125,-2 v -3 l -0.125,-2 0.75,-1.75 2.25,-1.25 2.5,-1.75 4,-0.625 3,-1.25 4,-0.625 2,-1.375 3,-0.875 3,-1 3,-1.125 4,-0.875 4,-1.125 5,-0.75 4.5,-1.875 6,-0.75 2.5,2.5 0.75,1.5 v 4 l -1,1.75 -1.75,0.75 -2,1.25 -3.5,0.25 -1,1 -1,-1 -1,1 -4.5,0.5 -5,0.875 -3,1.25 -4,0.875 -4,0.75 -2,1.375 -3,1 -4,0.75 -2.5,0.625 -2.5,2.5 v 2 l -1,1 0.5,0.5 3.5,-0.375 2.5,-0.625 1,1 1,-1 3.5,0.625 5,0.75 h 4 l 5,-0.125 1.5,0.75 2.5,2.5 v 3 l -2.5,2.5 -1.5,0.75 -7,0.5 -2,1.375 -3,1 -4,0.75 -3,1 -2,1.25 -2.75,0.625 v 2.5 l 2.75,-0.5 10,-0.625 6,-1 5,-1.125 5,-1 5,-0.875 3,-1.25 4,-0.75 3,-1.125 3,-0.875 2,-1.375 6.75,-0.375 0.75,-1.875 3,-5 1.125,-2 0.375,-2.5 12.5,-12.5 h 1 l 3,-3 3.5,-0.75 h 11 l 1.5,0.75 0.5,0.5 -1,1 1,2.5 -0.75,1.75 0.75,0.25 m -267.25,18.75 v -1.5 h -1.5 v 1.5 h 1.5 m 45.25,2.25 v -1 h -1 v 1 h 1 m 60,0 v -1 h -1 v 1 h 1 m -57,1 v -1 h -1 v 1 h 1 m -2,2 v -1 h -1 v 1 h 1 m 53,0 v -1 h -1 v 1 h 1 m 3.5,0 0.5,-1 h -0.5 -2 l -0.5,1 h 0.5 2 m 52,-6 0.5,-1 h -0.5 -1 l -0.5,1 h 0.5 1 m 1.5,1 v -1 h -1 v 1 h 1 m 1,2 v -1 h -1 v 1 h 1 m 11,8 v -1 h -1 v 1 h 1 m -1,1 v -1 h -1 v 1 h 1 m 3,1 v -1 h -1 v 1 h 1 m 6.5,-16 0.5,-1 h -0.5 -2 l -0.5,1 h 0.5 2 m -3.5,1 v -1 h -1 v 1 h 1 m 7,4 v -1 h -1 v 1 h 1 m 6,3 v -1 h -1 v 1 h 1 m -12,0 3,-0.375 1.5,-0.625 0.5,-1 h -0.5 l -1.25,-0.25 v -1.5 l 1.25,-0.25 0.5,-1 h -0.5 l -1.5,-0.75 -3.5,-0.25 -1,1 -1.5,-1.5 v -1 l -1,-0.5 v 0.5 l -0.5,1.5 -3,6 -0.5,1.5 0.5,0.5 1,-1 1.5,-0.625 3,-0.375 1.5,1 0.5,-1 m 8.5,1 0.5,-1 h -0.5 -1 l -0.5,1 h 0.5 1 m -11,1 0.5,-1 h -0.5 -1 l -0.5,1 h 0.5 1 m 6.5,0.625 1.5,-0.625 0.5,-1 h -0.5 l -2.5,0.375 -1.5,0.625 -0.5,1 h 0.5 l 2.5,-0.375 m -3.5,1.375 0.5,-1 h -0.5 -1 l -0.5,1 h 0.5 1 m -2,1 0.5,-1 h -0.5 -2 l -0.5,1 h 0.5 2"
         id="path148"
         style="stroke-width:13.0412" />
    </g>
    <g
       id="g149"
       transform="matrix(0.01715326,0,0,0.02399622,20.952345,-11.647166)"
       style="stroke-width:13.0412">
      <path
         fill="#000000"
         fill-rule="evenodd"
         d="m 58,567.5 -6.5,6.5 h -1 l -3,3 -4.5,0.375 -3,1.125 -3.5,1.75 -4.5,1.125 -3,1.25 -5,0.125 -2,-1.5 -4,-0.75 -4,-0.875 -3,-1.25 -4,-0.75 -3,-1 -1.5,-0.625 -3.5,-3.5 -0.375,-2.5 -0.125,-2 0.25,-1.75 -1.75,0.25 -1.75,0.75 0.375,2.75 0.125,6 -0.75,1.5 -2.5,2.5 -3.5,-0.25 -1.75,-1 -0.75,-1.75 -1,-2 -1.25,-2.25 -2.75,-1.75 -2.5,-1.625 -3,-0.875 -3,-1 -3,-1.125 -5,-0.625 -2,-1.25 -1.5,-0.5 -8.5,8.5 v 1 l -3.5,3.5 -5.75,-0.5 -1.5,-2.5 v -5 l 1.375,-2 0.75,-3 1.125,-2 1.5,-2.5 1,-2 9.5,-9.5 h 1 l 5,-5 h 1 l 17,-17 1.5,-0.75 9.5,-0.25 5.5,5.5 0.375,2.5 1.375,2 0.625,6 v 4 l -0.75,8 v 4.5 l 1.375,2 v 0.5 l 1,-0.5 1,-2 6,-9 4.5,-7.5 2,-4 3,-5 1,-2 0.5,-1.5 3.5,-3.5 4.5,0.25 1.875,1 -0.125,6.75 -1.25,2 -4,8 -7.5,12.5 -6,9 -0.25,2.75 3.25,1.375 4,0.75 3,1.25 4,0.875 4,0.125 3,-1 2,-1.25 3,-0.875 3,-1 3,-0.875 1.5,-0.625 3.5,-3.5 0.25,-1.25 2.25,-1.625 4.5,-0.375 2.25,1.5 0.75,2.75 1,1 -1,1 v 2 m -69.5,-12.5 1.125,-7 0.125,-10 -1.5,-2.25 -2,-0.5 -0.25,1.25 -6,6 v 1 l -3,3 v 1 l -7,7 0.5,0.5 h 18"
         id="path149"
         style="stroke-width:13.0412" />
    </g>
    <g
       id="g150"
       transform="matrix(0.01715326,0,0,0.02399622,20.952345,-11.647166)"
       style="stroke-width:13.0412">
      <path
         fill="#000000"
         fill-rule="evenodd"
         d="m -138,568 v -1 h -1 v 1 h 1 m 14,-17 1,-0.5 v -1 l 1,-1 -1,-1 3,-3 0.5,-1.5 2,-4 0.5,-1.5 2.5,-2.5 1.5,-0.75 3.5,-0.25 2.5,2.5 0.5,2.5 0.125,3 -1.25,2 -0.75,3 -0.625,1.5 -3,3 -0.375,3.5 -0.625,2.5 2.5,2.5 1.5,-0.75 8,-0.5 3,-1.125 2.5,-1.625 2,-1 4.5,-4.5 0.5,-1.5 1.5,-2.5 2.25,-3 1.25,-3.5 1.125,-3 0.75,-4 1,-3 1.125,-2 1,-2 0.75,-1.75 2.25,-1.625 6,-0.625 2.5,2.5 -0.375,8.5 -1,6 -1,5 -2.25,6 -0.625,4 -1.375,2 -0.75,3 -1.125,2 -1,2 -1.125,2 -0.875,3 -0.25,2.75 3,1 1.5,3.5 2,1 v 1.5 l -2.25,0.25 h -0.5 l 0.5,1 h 1 0.5 l -0.5,1 -2.5,0.75 -8.5,-0.375 -2.25,-1.625 -1.625,-2.25 -1,-4.5 v -3 l 0.125,-3.75 -1.75,0.25 -2,1 -2,1.125 -3,1 -5,0.875 -5,1 -5,0.125 -2.5,-0.625 -4,-4 h -1 l -2.5,2.5 v 1 l -3,3 -1,2 -0.5,2.5 -0.125,2 -0.375,2.5 -3.5,3.5 h -5 l -3.5,-3.5 v -5 l -0.5,-0.5 -1,1 -1.5,0.5 -2,1.125 -3,0.75 -2,1.125 -2,1.25 -6,0.875 h -9 l -6,-0.875 -2,-1.25 -4,-2 -1.5,-0.5 -6.5,-6.5 -0.75,-1.5 v -9 l 0.75,-1.5 -0.5,-0.5 -2.5,2.5 -0.625,1.5 -0.75,3 -1.125,2 -1,2 -1.25,2 -0.5,4 -0.75,1.5 -3.5,3.5 h -4 l -2.5,-2.5 0.375,-6.5 1,-5 1,-3 1.125,-2 1,-2 0.5,-1.5 4,-4 v -1 l 8,-8 v -1 l 8.5,-8.5 1.5,-0.5 2.5,-1.5 2.5,-1.625 3,-1.125 8.5,-0.25 3.5,3.5 0.75,1.5 v 4 l -1.25,2 -1.5,2.5 -1,2 -3.5,3.5 -1.25,0.25 -0.25,1.25 -9,9 -0.5,1.5 -1,2 v 2 l 0.75,1.75 1.75,0.75 4,2 2,1.25 h 13 l 2,-1.375 6,-1.75 4,-2.25 2.5,-0.375 1,1 1,-1 h 1 l 1,1 1,-1 1.25,-0.25 0.75,-1.75 1,-2 0.5,-1.5 2.5,-2.5 0.5,0.5 v 1 l 0.5,0.5 2.5,-2.5 0.5,-1.5 1.125,-2 0.375,-2 h 0.5 l 0.5,-0.5 v -0.5 m 36,14 v -1 h -1 v 1 h 1"
         id="path150"
         style="stroke-width:13.0412" />
    </g>
    <g
       id="g153"
       transform="matrix(0.01715326,0,0,0.02399622,20.952345,-11.647166)"
       style="stroke-width:13.0412">
      <path
         fill="#000000"
         fill-rule="evenodd"
         d="m -347,749.75 -5.5,0.25 -3,-3 h -1 l -5.5,-5.5 -1,-2 -1.75,-2.5 -0.875,-6 -1,-8 -0.125,-16 1.375,-6 0.75,-10 1.25,-5 0.625,-9 1.375,-4 0.75,-5 1,-4 1,-3 1.25,-2 0.75,-3 1.25,-2 0.75,-3 1.125,-2 2,-4 0.5,-1.5 7.5,-7.5 h 3 l 2.5,2.5 v 7 l -1.5,1.5 -0.5,-0.5 v -1 -0.5 l -1,0.5 -0.25,1.25 -1.5,0.5 -0.75,1.75 -1.125,2 -0.75,3 -1.25,2 -1.75,6 -1.25,2 -1,3 -0.875,5 -1.125,5 -0.75,10 -1.375,5 -0.875,12 v 20 l 0.875,9 1.25,2 0.75,1.75 1.25,0.25 1,1 1,-1 h 1 l 1,1 2,-2 h 1 l 2.5,2.5 -0.75,1.5 -0.625,4 -1,3 -0.875,1.75 -1.75,1 m 2.75,-11 0.25,-1.25 -0.5,-0.5 -1.5,1.5 0.5,0.5 1.25,-0.25"
         id="path153"
         style="stroke-width:13.0412" />
    </g>
    <g
       id="g154"
       transform="matrix(0.01715326,0,0,0.02399622,20.952345,-11.647166)"
       style="stroke-width:13.0412">
      <path
         fill="#000000"
         fill-rule="evenodd"
         d="m -249,582.75 h -13 l -2,-1.25 -1.5,-0.5 -3,-3 -1.25,-0.25 -1,-1.75 -0.875,-4 -0.125,-8 1.25,-3 0.875,-3 1.125,-2 0.5,-1.5 -0.5,-0.5 -1,1 -1.5,0.5 -2,1 -1.5,0.5 -3,3 -2,1 -3,2 -2.5,1.5 -2,1 -2,1.125 -3,0.75 -2,1.375 -8.5,0.25 -3.5,-3.5 -0.5,-1.5 -1.25,-2 -0.625,-6 -0.625,-2.5 -0.5,-0.5 -6.5,6.5 v 1 l -2.5,2.5 -1.25,0.25 -0.25,1.25 -7.5,7.5 -1.5,0.5 -2,1.25 -3.5,0.25 -3.5,-3.5 0.375,-6.5 0.875,-4 1.25,-2 1.125,-2 1.125,-3.5 1.25,-2 5,-5 0.25,-1.25 1.25,-0.25 5,-5 h 1 l 3,-3 1.5,-0.5 2,-1.125 2.5,-0.375 2.5,-2.5 v -1 l 3,-3 0.75,-1.75 2.25,-1.5 4.5,-0.25 2.5,2.5 -0.25,4.5 -0.75,1.5 -3,3 -0.75,1.5 0.25,6 1.125,6 0.5,8.75 1.875,-0.5 4.5,-0.875 2.5,-1.875 2,-1 1.5,-0.5 4,-4 1.5,-0.5 2,-1 2.5,-1.5 2,-1 4.5,-4.5 1,-3 -4,-4 -0.625,-2.5 -0.375,-4.5 2.5,-2.5 1.5,-0.75 4,0.125 3.5,1.375 2.25,1.5 1.625,2.25 0.625,9 0.5,0.5 8,-8 2,-1.25 3.5,-1.5 h 9 l 4,1 4,2.5 8,0.5 3,1.25 2.5,0.5 7.5,7.5 0.75,2.5 v 7 l -1.75,2.5 -2,3 -1,2 -8.5,8.5 h -1 l -3,3 h -1 l -3,3 -1.5,0.5 -4,2 -5,3 -4,2 -2,1.125 -3,1 -4,1.125 m -19,-46.75 v -1 h -1 v 1 h 1 m 39,-5 v -1 h -1 v 1 h 1 m -24,41.25 5,-0.625 3,-1 2.5,-1.625 2.5,-1.5 4,-2 5,-3 1.5,-0.5 3,-3 h 1 l 8.5,-8.5 1.25,-2 0.75,-3 -3.5,-3.5 -2.5,-0.625 -4,-1 -8,-0.125 -1.75,0.5 -0.5,-1.5 -1.25,-0.25 -1,-1 -1,1 -0.5,-0.5 v -2 l 1,-1 -0.5,-0.5 -3,1 -5.5,5.5 v 1 l -4,4 -1,2 -1.5,2.5 -1,2 -1.5,2.5 -2,3 -1.625,2.5 -0.875,3 -1,3 -0.5,2.5 2.5,2.5 4.5,0.25 h 2 m 17,-34.25 v -1 h -1 v 1 h 1 m -31,16 v -1 h -1 v 1 h 1"
         id="path154"
         style="stroke-width:13.0412" />
    </g>
    <g
       id="g155"
       transform="matrix(0.01715326,0,0,0.02399622,20.952345,-11.647166)"
       style="fill:#008000;stroke-width:13.0412">
      <path
         fill="#000000"
         fill-rule="evenodd"
         d="m 746,684 h -1 v -1 h 1 v 1"
         id="path155"
         style="fill:#008000;stroke-width:13.0412" />
    </g>
    <g
       id="g156"
       transform="matrix(0.01715326,0,0,0.02399622,20.952345,-11.647166)"
       style="fill:#008000;stroke-width:13.0412">
      <path
         fill="#000000"
         fill-rule="evenodd"
         d="m 894,706.75 h -7 l -2,-1.25 -1.5,-0.5 -3.5,-3.5 -0.5,-1.5 -1.125,-2 -1.125,-3 -0.25,-15.5 -0.5,-0.5 -8.5,8.5 -1,2 -1.5,2.5 -4,8 -3,5 -0.5,1.5 -3.5,3.5 h -4 l -3.5,-3.5 0.5,-3.5 0.875,-4 1,-3 1.125,-2 1,-2 1.125,-2 0.75,-3 1.125,-2 3,-5 9,-18 1.125,-2 0.75,-3 1.25,-2 -0.25,-3 -0.625,-3.75 -1.5,-0.5 v -3.75 l 1.25,-2 1,-2 1.125,-2 0.75,-3 2.25,-4 0.75,-3 0.625,-1.5 2.5,-2.5 4.75,0.625 1.5,2.375 v 16 l -1.125,5 -1,4 -1,3 -0.625,1.5 0.5,0.5 4,-4 h 1 l 3,-3 2,-1 5,-3 6,-4 3,-2.25 3.5,-1.25 3,-0.875 2,-1.375 6.5,-0.25 2.5,2.5 v 5 l -4.5,4.5 -3.5,0.25 -2,1.375 -3,0.75 -2.5,1.625 -2.5,1.5 -4,2 -2.5,1.5 -2,1 -3,3 h -1 l -4,4 -1.25,0.25 0.375,4.75 0.625,8 0.125,3 0.375,4 0.375,10.375 4.375,0.625 3,-3 1.5,-0.5 2.5,-1.875 4,-0.625 2.5,2.5 -0.25,3.5 -0.75,1.5 -3,3 v 1 l -2.5,2.5 -2,1.25 -3.5,1.5 m -22,-64.75 v -1 h -1 v 1 h 1 m -1,3 v -0.5 -2 l -1,-0.5 v 0.5 2 l 1,0.5 m 2,1 v -0.5 -1 l -1,-0.5 v 0.5 1 l 1,0.5 m -3,2 v -0.5 -2 l -1,-0.5 v 0.5 2 l 1,0.5 m 2,1 v -1 h -1 v 1 h 1 m -1,2 v -0.5 -1 l -1,-0.5 v 0.5 1 l 1,0.5 m 30,41 v -1 h -1 v 1 h 1 m 2,1 v -1 h -1 v 1 h 1 m -1,1 v -1 h -1 v 1 h 1"
         id="path156"
         style="fill:#008000;stroke-width:13.0412" />
    </g>
    <g
       id="g157"
       transform="matrix(0.01715326,0,0,0.02399622,20.952345,-11.647166)"
       style="fill:#008000;stroke-width:13.0412">
      <path
         fill="#000000"
         fill-rule="evenodd"
         d="m 800,710.625 h -8 l -5,-0.875 -2.5,-1.75 -2,-1 -2.5,-2.5 -0.75,-1.5 v -6 l 1,-1.75 1.25,-0.25 1,1 0.5,-0.5 v -1 l 0.5,-0.5 1,1 1,-1 1.75,0.75 0.75,2.75 2.5,2.5 10.5,-0.25 2,-1.25 1.5,-0.5 3.5,-3.5 1,-2 1.5,-2.5 1.25,-2 1,-5 0.25,-17.75 -3,0.25 -3,1.125 -4,1.125 h -11 l -1.5,-0.75 -3,-3 h -1 l -3.5,-3.5 -0.75,-1.5 v -8 l 1.25,-3 0.5,-2.5 5.5,-5.5 2,-1 2.5,-1.5 4,-2 2,-1.125 3,-0.75 2,-1.25 3,-0.875 3.5,-1.25 2.5,-2 5.5,0.375 2.25,1.625 0.5,1.5 1.25,0.25 1,-1 1,1 h 2 l 3.5,3.5 -0.25,12.5 -1.125,3 -1.125,2 -1,2 -1.25,2.25 -2.25,1 -0.625,12.75 -0.625,16 -1.125,4 -1,3 -0.625,1.5 -3,3 -1,3 -4.5,4.5 -1.5,0.5 -2.5,1.75 -3.5,1.375 -4,1 m -1,-53.25 4,-0.875 4,-0.75 2,-1.25 2,-1.125 2.75,-0.625 0.625,-4.75 1,-4 1.125,-3 0.25,-2.75 -2.25,1 -3.5,1.125 -4,2.25 -3,0.75 -2.5,1.625 -3,2 -2,1 -3.5,3.5 0.25,4.25 2.25,1.5 3.5,0.125"
         id="path157"
         style="fill:#008000;stroke-width:13.0412" />
    </g>
    <g
       id="g158"
       transform="matrix(0.01715326,0,0,0.02399622,20.952345,-11.647166)"
       style="fill:#008000;stroke-width:13.0412">
      <path
         fill="#000000"
         fill-rule="evenodd"
         d="m 761.5,691 -2.5,1.625 -6,1.75 -2,1.25 -3,1 -5,0.75 -3,1.25 -4,0.875 -4,1 -4,1.125 -5,1 -9,0.125 -1.5,-0.75 -2.5,-2.5 v -5 l 4,-4 0.75,-1.75 1.75,-0.75 3,-3 2,-1 2.5,-1.625 3,-1 4,-1.125 10.5,-0.25 2,2 1,-1 0.5,0.5 v 1 l -2,2 0.5,0.5 1.5,0.5 2,-0.125 6,-1.75 2,-1.125 1.5,-0.5 4.5,-4.5 v -1 l -2.5,-2.5 -2,-1 -2.5,-1.625 -3,-0.75 -4,-2.25 -6,-1.75 -2,-1.125 -2,-1 -2.5,-1.5 -2.25,-1.25 -1,-1.75 v -8 l 1.25,-2 2,-4 0.5,-1.5 1,-1 -2,-2 0.25,-3.5 1.25,-2 0.75,-1.75 1.75,-1 h 5 l 2.5,-0.25 3,-2 2.5,-1.625 6,-1.75 2,-1.25 3,-0.75 2,-1.375 4,-0.75 4,-1 4,-1.125 6,-1 6.5,-0.375 3.5,3.5 v 1 l 1,1 -1,1 -0.25,4.5 -0.75,1.5 -2.5,2.5 -1.5,0.5 -2.5,1.75 -3.5,1.25 -3,0.875 -2,1.25 -3,0.875 -6,2 -3,1.125 -6,1 -9.5,0.375 -4.5,4.5 -1.25,2 -0.5,3.25 2.75,0.625 2,1.25 3,0.875 3.5,1.5 3.5,1.375 2,1.125 2,1 2.5,1.5 2,1 3.5,3.5 0.5,1.5 1.125,2 1,3 0.125,6 -0.75,1.5 -3.5,3.5 h -1 l -3,3 -2,1 m -19,-56 0.5,-1 h -0.5 -2 l -0.5,1 h 0.5 2 m 1.5,52 v -1 h -1 v 1 h 1"
         id="path158"
         style="fill:#008000;stroke-width:13.0412" />
    </g>
    <g
       id="g159"
       transform="matrix(0.01715326,0,0,0.02399622,20.952345,-11.647166)"
       style="fill:#008000;stroke-width:13.0412">
      <path
         fill="#000000"
         fill-rule="evenodd"
         d="m 1004,705.75 h -14 l -3,-1.25 -6,-2 -2.5,-0.5 -4,-4 -1.5,0.625 -3,1 -4,0.875 -4,1.125 -5,0.875 -5,1.125 h -10 l -5,-0.875 -2.5,-1.75 -3,-2 -2.75,-1.75 -1.5,-2.25 -0.25,-8.5 4,-4 -0.5,-0.5 -2.5,0.625 -4.75,1 -0.875,9.375 -0.625,10 -0.75,1.5 -2.5,2.5 h -5 l -2.5,-2.5 -0.75,-1.5 0.375,-4 1,-8 0.75,-9 1,-5 1.25,-4 0.75,-6 1,-5 1.25,-3 1.75,-8 1,-3 1.125,-2 1,-2 0.5,-1.5 3.5,-3.5 1.5,-0.75 3.5,-0.25 3.5,-3.5 v -1 l 4,-4 v -1 l 5,-5 v -1 l 14.5,-14.5 2,-1 2.5,-1.75 7.5,0.375 2.75,2.125 1.25,2.25 1,2 1.125,2 1.125,3 v 13 l -1,4 -1.25,2 -2,4 -1.5,2.5 -1,2 -9.5,9.5 h -1 l -3,3 h -1 l -3,3 -1.5,0.5 -7.5,4.5 -6,4 -2,1 -3,3 h -1 l -1.5,1.5 1.5,1.5 h 2 l 0.5,0.5 -1.5,1.5 -1.25,0.25 -0.25,1.25 0.5,0.5 1,-1 4,-0.625 3,-2.375 2.5,-1.5 16,-8 2,-1.25 5,-0.625 3,-0.125 2.5,0.5 2.5,2.5 0.75,1.5 -0.125,6 -1.625,3.5 -1,3 0.5,0.5 4,-4 2,-1 2.5,-1.75 6.25,0.25 2.125,3 0.625,6 -3,3 -0.25,1.25 -1.25,0.25 -2.5,2.5 1.5,1.5 2.5,0.5 3,1.25 7,0.5 3,0.25 3.25,-1.25 1.5,-2.5 3.25,-1.25 3,-0.125 2.25,1.375 1.5,2.25 v 4 l -1.25,2 -0.75,1.75 -2.25,1.5 -3.5,1.25 -3,1.25 m -50.5,-59.75 h 1 l 9.5,-9.5 0.5,-1.5 1.125,-2 1,-3 1,-4 v -5 l -1,-3 -0.625,-1.5 -0.5,-0.5 -6,6 -1.25,0.25 -0.25,1.25 -10,10 -2,4 -6,6 v 1 l -3,3 -0.5,1.5 -1,2 -3,5 -2,4 -0.5,1.5 0.5,0.5 2,-2 2,-1 3,-2 7.5,-4.5 1.5,-0.5 3,-3 h 1 l 3,-3 m -23.5,17 v -1 h -1 v 1 h 1 m 2,19 v -1 h -1 v 1 h 1 m 21,10.75 5,-1.25 5,-0.875 3,-1.125 3,-0.875 1.75,-0.875 0.75,-2.75 0.125,-3 -0.625,-1.5 -1,-0.5 v 0.5 1 l -1,1 0.5,0.5 h 1 l 0.5,0.5 -2.5,2.5 -2.25,-0.25 -0.5,-3.5 -1.25,-0.25 -0.5,-0.5 1,-1 v -5 l -0.5,-0.5 -1,1 -2,1 -2.5,1.625 -3,0.75 -2,1.125 -6,3 -1.5,0.5 -3,3 -2,1.25 -3.25,1 v 1.5 l 2.25,1.75 12.5,0.25 m 16,-8.75 v -1 h -1 v 1 h 1"
         id="path159"
         style="fill:#008000;stroke-width:13.0412" />
    </g>
    <g
       id="g160"
       transform="matrix(0.01715326,0,0,0.02399622,20.952345,-11.647166)"
       style="stroke-width:13.0412">
      <path
         fill="#000000"
         fill-rule="evenodd"
         d="m 984,559 1,0.5 -1,0.5 v -1"
         id="path160"
         style="stroke-width:13.0412" />
    </g>
    <g
       id="g161"
       transform="matrix(0.01715326,0,0,0.02399622,20.952345,-11.647166)"
       style="stroke-width:13.0412">
      <path
         fill="#000000"
         fill-rule="evenodd"
         d="m 985,556 h -1 v -1 h 1 v 1"
         id="path161"
         style="stroke-width:13.0412" />
    </g>
    <g
       id="g162"
       transform="matrix(0.01715326,0,0,0.02399622,20.952345,-11.647166)"
       style="stroke-width:13.0412">
      <path
         fill="#000000"
         fill-rule="evenodd"
         d="m 997.5,550 h -1 -0.5 l 0.5,-1 h 1 0.5 l -0.5,1"
         id="path162"
         style="stroke-width:13.0412" />
    </g>
    <g
       id="g163"
       transform="matrix(0.01715326,0,0,0.02399622,20.952345,-11.647166)"
       style="stroke-width:13.0412">
      <path
         fill="#000000"
         fill-rule="evenodd"
         d="m 728,570 v -0.5 l 0.5,-0.5 0.5,1 h -1"
         id="path163"
         style="stroke-width:13.0412" />
    </g>
    <g
       id="g164"
       transform="matrix(0.01715326,0,0,0.02399622,20.952345,-11.647166)"
       style="stroke-width:13.0412">
      <path
         fill="#000000"
         fill-rule="evenodd"
         d="m 1089,576.5 -4,0.125 -3,-1 -2.5,-1.375 -0.5,-5.75 3.5,-3.5 1.5,-0.625 3,-1.125 14,-0.625 12,-1 6,-1 3.75,-0.875 -0.25,-1.75 -0.5,-1.5 -3,-3 -0.5,-1.5 -2,-4 -1.12,-2 -2.75,-7 -1.38,-2 v -8 l 1.13,-3 0.62,-1.5 3,-3 v -1 l 4.5,-4.5 2,-1.25 3.5,-1.5 h 9 l 3,1.125 1.5,0.625 4.5,4.5 2,4 1,1 -0.5,0.5 -1.25,0.25 -0.25,2.25 v 0.5 l 1,-0.5 0.25,-1.25 h 1.5 l -0.5,2 -3.25,0.375 -1.5,-0.625 -1,1 -1.5,-1.5 v -1 l -3.5,-3.5 -1.5,-0.75 h -5 l -2,1.25 -1.5,0.5 -2.5,2.5 -1.25,2 -0.75,3 -1,1 1,1 0.38,2.5 2.25,4 0.75,3 1.12,2 0.5,1.5 3,3 1.25,2 1.38,3.5 1,4 0.12,6 -1.5,2.25 -2.25,1.375 -3,1 -5,0.875 -5,1.125 -8,1 -14.75,0.375 -1,2.375 -4.25,1.125"
         id="path164"
         style="stroke-width:13.0412" />
    </g>
    <g
       id="g165"
       transform="matrix(0.01715326,0,0,0.02399622,20.952345,-11.647166)"
       style="stroke-width:13.0412">
      <path
         fill="#000000"
         fill-rule="evenodd"
         d="m 1028,548.75 -4,-0.375 h -5 l -4,-0.125 -11,0.125 -6,0.25 -3.75,-0.375 -0.5,1.5 h -2.5 l -0.75,-1.75 -0.25,-1.75 2,-1 1,-2 3.75,-0.875 7,-0.75 5,-1.125 5,-0.875 4,-1.125 4,-0.875 3,-0.125 3.5,1.25 2.25,1.5 0.88,1.75 v 3 l -1.38,2.25 -2.25,1.5 m -32.5,-2.75 0.5,-1 h -0.5 -2 l -0.5,1 h 0.5 2 m -2,2 0.5,-1 h -0.5 -1 l -0.5,1 h 0.5 1 m 6.5,0 v -1 h -1 v 1 h 1"
         id="path165"
         style="stroke-width:13.0412" />
    </g>
    <g
       id="g166"
       transform="matrix(0.01715326,0,0,0.02399622,20.952345,-11.647166)"
       style="stroke-width:13.0412">
      <path
         fill="#000000"
         fill-rule="evenodd"
         d="m 979,540 v -1 h -1 v 1 h 1 m 2,0 v -1 h -1 v 1 h 1 m -1,2 v -1 h -1 v 1 h 1 m 122,-12 v -1 h -1 v 1 h 1 m -118,30 -0.375,2 -1.375,2.25 -2.25,1.375 -2.5,0.375 -0.5,0.5 2.5,2.5 1.5,0.75 5,1 14.5,0.25 1,1 1,-1 2.5,-0.625 5,-0.75 3,-1 2,-1.25 3,-1 4,-0.75 6,-2.25 6,-0.625 2,-1.375 6,-1.75 2,-1.375 7,0.375 13,0.125 3.5,-0.75 0.5,-0.5 -1.5,-1.5 -2.5,-0.375 -2,-1.125 -2,-1 -1.5,-0.5 -3.5,-3.5 -0.62,-1.5 -1,-3 v -4 l 1,-3 1.12,-2 0.5,-1.5 5.5,-5.5 1.5,-0.5 2.5,-1.75 3.5,-1.125 2,-1.25 3,-1.125 7,-0.625 4,0.125 13,0.5 1.5,0.75 h 0.5 l -0.5,1 h -1 -0.5 l 0.5,1 1.5,0.625 2.75,0.625 v 3.5 l -1.25,0.25 -1,1 -0.5,-0.5 v -1 l -0.5,-0.5 -1,1 -2.5,-0.75 h -12 l -5,1.125 -3,1 -2,1.125 -1.5,0.5 -3,3 h -1 l -3.5,3.5 -0.5,1.5 0.25,2.25 3.25,1.25 3.5,1.25 3,2.25 2.75,1.75 1.5,2.25 0.25,8.5 -4.5,4.5 -1.5,0.5 -2,1.25 -4,1 -9,0.625 -8,0.875 -2,0.25 -1.5,-0.5 -1,-1 -1,1 -2.5,0.5 -3.5,1.5 -3.5,1.75 -7,0.5 -3,1.375 -4,0.75 -3,1 -2,1.375 -4,0.75 -8,2 -4,-0.25 -10,-0.625 -5,-1 -3,-1 -2,-1.125 -2.5,-1.5 -2,-1 -5.5,-5.5 -0.25,-1.25 -1.75,0.375 -3,0.875 -3,1.125 -4,1 -6,1 -9,1 -17,0.125 -3,-1.25 -2.5,-0.5 -3,-3 -1.5,-0.5 -2.25,-1.25 -2.125,-2.75 -0.375,-8.5 0.75,-1.5 5.5,-5.5 1.5,-0.5 5,-3 2,-1 1.5,-0.5 3,-3 4,-2 1.5,-1.5 -0.5,-0.5 -3.5,0.625 -5,0.75 -3,1.125 -3,1 -2.75,0.75 -0.75,1.75 -0.5,1.5 -5,5 v 1 l -3,3 -0.5,1.5 -1,2 -3,5 -1.125,2 -0.75,3 -0.625,1.5 -3.5,3.5 h -4 l -2.5,-2.5 -0.625,-1.5 0.25,-3 0.75,-5 0.625,-3.5 1,-1 -1,-1 0.75,-1.5 0.625,-6 0.625,-2.5 5.5,-5.5 h 1 l 3,-3 1.5,-0.5 4,-2 2,-1.125 3,-0.875 3,-1 3,-0.875 2,-1.375 6,-0.75 6,-1.125 h 11 l 5.25,1.25 1.25,2.375 1,2 -0.125,2 -0.375,2.5 -8.5,8.5 -2,1 -3,2 -2.5,1.5 -1.5,0.5 -4,4 -1.5,0.5 -4,2 -1.5,0.5 -2.5,2.5 2.5,2.5 1.5,0.75 5,0.875 6,-0.25 10,-0.75 7,-1 4,-1.125 4,-0.875 3,-1 2,-1.125 2.25,-1.25 1.5,-3.75 1.25,-2 6,-6 v -1 l 1,-1 -0.5,-0.5 -1.25,-0.25 -0.25,-1.25 v -0.5 l -1,0.5 -0.25,1.25 -1.25,0.25 -0.5,-0.5 1,-1 v -1 l 1,-1 -0.5,-0.5 -1.25,-0.25 -0.25,-1.25 3.5,-3.5 h 1 l 4,-4 1.5,-0.625 3,-0.75 2,-1.375 5,-0.625 3,-1.25 4,-0.75 3,-1 2,-1.25 3,-0.875 2.5,-0.5 1,1 1,-1 4.5,-0.625 7,-0.625 3,-1.375 4,-0.75 2.5,-0.625 3.5,3.5 0.5,1.5 v 2 l -0.5,1.5 -2.5,2.5 -1.5,0.75 -5,0.75 -5,1.125 -9,0.75 -6,0.875 -2,1.5 -5,0.625 -4,1.25 -4.75,0.625 -0.5,3.75 -1.25,2 -1,2 -3,5 -0.5,1.5 -4,4 1,1 -1.5,1.5 h -1 -0.5 l 0.5,1 h 4 0.5 l -0.5,1 -1.5,1 -1,0.5 0.5,0.5 h 0.5 m -12,7 v -1 h -1 v 1 h 1 m -1,1 v -1 h -1 v 1 h 1 m 1,1 v -1 h -1 v 1 h 1"
         id="path166"
         style="stroke-width:13.0412" />
    </g>
    <g
       id="g167"
       transform="matrix(0.01715326,0,0,0.02399622,20.952345,-11.647166)"
       style="stroke-width:13.0412">
      <path
         fill="#000000"
         fill-rule="evenodd"
         d="m 853,581.75 -7.25,-0.125 -1.25,-2.625 -1.25,-2 v -7 l 1.125,-3 0.625,-1.5 3,-3 v -1 l 7,-7 v -1 l 3,-3 v -1 l 5.5,-5.5 h 1 l 3,-3 h 4 l 2.5,2.5 v 3 l -4,4 v 1 l -4,4 -2,4 -4,4 v 1 l -4,4 -0.625,1.5 0.25,3 0.125,6 -1,1.75 -1.75,1"
         id="path167"
         style="stroke-width:13.0412" />
    </g>
    <g
       id="g168"
       transform="matrix(0.01715326,0,0,0.02399622,20.952345,-11.647166)"
       style="stroke-width:13.0412">
      <path
         fill="#000000"
         fill-rule="evenodd"
         d="m 825,537 v 1.5 l -0.5,0.5 -0.5,-0.5 v -1.5 h 1"
         id="path168"
         style="stroke-width:13.0412" />
    </g>
    <g
       id="g169"
       transform="matrix(0.01715326,0,0,0.02399622,20.952345,-11.647166)"
       style="stroke-width:13.0412">
      <path
         fill="#000000"
         fill-rule="evenodd"
         d="m 837.75,546.75 h -4.5 l 0.375,-1.75 0.375,-2.5 -1,-1 1,-1 1,-3 2.5,-2.5 2,-1 3,-2 2.5,-1.5 2,-1 2,-1.125 3,-1 4,-1 8,-0.75 4,-1.25 6,-0.75 10,-2.25 9,-0.75 5,-0.375 1.5,0.75 3.5,3.5 -0.25,4.5 -1.5,2.375 -5.25,0.375 -1.5,-0.75 -1,1 -1,-1 -2.5,0.75 -8,0.625 -5,1.125 -5,0.875 -4,1.25 -8,0.75 -5,1 -3,1 -2,1.125 -2,1 -2.5,1.75 -3.5,1.125 -2,1.125 -1.75,0.75 -0.5,1.5 m 0.25,-1.75 v -1 h -1 v 1 h 1 m -2,1 v -1 h -1 v 1 h 1"
         id="path169"
         style="stroke-width:13.0412" />
    </g>
    <g
       id="g170"
       transform="matrix(0.01715326,0,0,0.02399622,20.952345,-11.647166)"
       style="stroke-width:13.0412">
      <path
         fill="#000000"
         fill-rule="evenodd"
         d="m 820,539 v -1 h -1 v 1 h 1 m -1,1 v -1 h -1 v 1 h 1 m 5,-3 -1,0.625 -1.75,0.625 -0.25,1.25 1,1 -0.5,0.5 -3.75,-0.625 -0.75,-1.875 2,-2 -1.5,-1.5 -1,1 -4.5,0.375 -4,1.25 -5,0.75 -4,1 -3,1 -2,1.25 -2.75,0.625 0.125,2.75 1.125,2 0.75,1.75 2.25,1.5 3.5,1.25 3,1.25 7,0.625 6,1 5,1 3,1 2,1.125 2,1 2.25,1.25 1.5,2.5 2,1 0.875,1.75 1,3 0.125,4 -1.375,2 -0.875,3 -0.5,2.5 -3.5,3.5 -2,1 -2.5,1.625 -3,1 -5,1 -8,0.625 h -2 l -13,-0.5 -5,-1.125 -4,-1 -3,-1 -2,-1.125 -1.5,-0.5 -3.5,-3.5 -0.5,-2.5 -0.125,-3 0.625,-1.5 3.5,-3.5 h 10.25 l 0.25,3.5 0.5,0.5 1,-1 0.5,0.5 v 1 l -1,1 2.5,2.5 5.5,0.625 h 14 l 7,-0.875 2,-1.25 2.25,-1.25 0.75,-2.75 1,-1 -2,-2 -0.25,-1.25 -2.75,-0.625 -2,-1.375 -6,-0.75 -6,-1 -6,-0.875 -3,-1.125 -3,-0.875 -2,-1.125 -1.5,-0.5 -7.5,-7.5 -0.25,-3.5 -1.5,-2 0.125,-6 0.625,-2.5 2.5,-2.5 2,-1.25 3.5,-1.25 3,-0.875 2,-1.375 4,-0.875 5,-0.75 4,-1.25 5,-0.875 5,-1.125 9,-0.125 1.5,0.75 3.5,3.5 -0.625,1.5 -0.375,2.5 -2.5,2.5 -2.5,1 -0.5,-1 -0.5,0.5 v 0.5"
         id="path170"
         style="stroke-width:13.0412" />
    </g>
    <g
       id="g173"
       transform="matrix(0.01715326,0,0,0.02399622,20.952345,-11.647166)"
       style="fill:#008000;stroke-width:13.0412">
      <path
         fill="#000000"
         fill-rule="evenodd"
         d="m 697.625,691 -2.625,3.5 -0.5,1.5 -1,2 -1.5,2.5 -4,6 -0.75,2.25 3.125,1 v 4.75 l -1.875,2.5 -0.75,1.75 -1.25,0.25 -4,4 h -7 l -5.5,5.5 -1.25,2 -0.75,3 -1.5,1.5 -0.5,-0.5 v -1 -0.5 l -1,0.5 v 2 l -0.5,0.5 -1,-1 h -3 l -2.5,-2.5 0.375,-3.5 1,-3 1.625,-2.5 1,-2 5,-5 0.375,-3.5 1,-3 1.625,-2.5 4,-6 1,-2 7,-7 v -1 l 5,-5 1,-2 2,-3 1.5,-2.5 2,-4 1.125,-2 0.75,-3 2.25,-4 0.875,-3 1,-3 0.875,-3 1.25,-2 0.875,-3 2,-6 0.875,-3 1.25,-2 0.75,-3 1.25,-2 0.875,-3 0.5,-2.5 4.5,-4.5 h 4 l 2.5,2.5 -0.375,5.5 -2.25,8 -0.75,5 -1,4 -1.125,3 -0.875,3 -2.25,4 -0.75,3 -2.25,4 -0.75,3 -1.125,2 -6,10 -1,2 -1.75,2.5 -1.125,3.5"
         id="path173"
         style="fill:#008000;stroke-width:13.0412" />
    </g>
    <g
       id="g174"
       transform="matrix(0.01715326,0,0,0.02399622,20.952345,-11.647166)"
       style="stroke-width:13.0412">
      <path
         fill="#000000"
         fill-rule="evenodd"
         d="m 669,570 v -1 h -1 v 1 h 1 m -3,9 v -1 h -1 v 1 h 1 m -1,3 v -1 h -1 v 1 h 1 m 64,-12 1.5,1 1.75,0.75 v 3.75 l -1.5,2.25 -1.75,0.875 -3,0.875 -9,3 -3,1.125 -4,0.75 -3,1.25 -4,1.125 -10,0.875 -16,0.125 -4.5,-1.75 -4.5,-1.375 -3,-1 -1.75,-0.875 -0.25,-1.25 1,-1 -0.5,-0.5 h -4 l -1,1 -1,-1 h -1 l -2.5,-2.5 -0.375,-2.5 0.125,-2 0.625,-4 1.375,-3.5 1.75,-2.5 1.5,-2.5 1,-2 7,-7 v -1 l 4,-4 v -1 l 5,-5 v -1 l 2.5,-2.5 2,-1.25 3.5,-1.25 2.5,-0.5 3,-3 1.5,-0.5 2,-1 5,-3 2,-1 2,-1.25 4,-0.5 2,-1.375 3,-0.875 3,-1.25 h 8.25 l 1.5,2.75 0.25,3.5 -3.5,3.5 -1.5,0.625 -2.5,0.375 -1,1 -1,-1 -1.5,0.5 -2,1.125 -3,1 -4,0.75 -3,1 -4,2.25 -3,0.75 -2.5,1.625 -2.5,1.75 -5.25,0.875 -1.25,2.375 -3,5 -0.5,1.5 -2,2 0.5,0.5 1.5,-0.625 3,-0.75 2,-1.25 3,-0.75 2,-1.25 6,-1.75 2,-1.25 h 3 l 2.625,1.375 0.375,6.75 -2.5,2.5 -2.5,0.625 -4,0.625 -2,1.25 -2,1 -2,1.125 -3,0.75 -2.5,-0.75 -5.5,-0.25 -2.5,0.625 h -0.5 l 0.5,-1 h 1 0.5 l -0.5,-1 -2.25,0.25 -0.5,1.5 -2.5,0.5 -1.25,2.25 -0.75,2.25 2.125,1 0.625,3.75 -4,4 0.25,1.25 1.75,1 5,0.875 10,-0.125 10,-0.875 8,-0.875 3,-1.25 3,-1.125 4,-0.75 6,-2.25 5,-1 5,-0.375 0.5,1 0.5,-1 m 0.5,3 0.5,-1 h -0.5 -1 l -0.5,1 h 0.5 1"
         id="path174"
         style="stroke-width:13.0412" />
    </g>
    <g
       id="g175"
       transform="matrix(0.01715326,0,0,0.02399622,20.952345,-11.647166)"
       style="stroke-width:13.0412">
      <path
         fill="#000000"
         fill-rule="evenodd"
         d="m 635.75,581.875 -5.75,0.375 -2,0.125 -3,-0.875 -3.25,-1.25 -2.125,-2.75 -0.375,-8.5 1.25,-2 0.5,-1.5 1,-1 -1,-1 -0.625,-1.5 -0.75,-3 -1.625,-2.5 -1,-2 -8.5,-8.5 -3,-1 -3.5,-3.5 0.5,-5.75 2.5,-1.5 5.5,0.375 2.5,1.875 1.5,0.5 10.5,10.5 1,2 1.5,2.5 1,2 0.75,1.75 1.75,-0.25 2.25,-1.25 0.75,-1.75 3,-3 2,-4 3,-3 1,-3 4,-4 v -1 l 3.5,-3.5 1.5,-0.5 h 2 l 1.75,0.75 0.75,1.75 -0.25,2 -0.5,4 -1.25,2 -1.5,2.5 -4,6 -1,2 -3,3 -2,4 -2,2 1,1 -2,4 -3,3 -0.375,2.5 -1.125,2 v 2 l 1.125,2 v 3 l -0.875,1.875 m -0.75,-5.875 v -1 h -1 v 1 h 1 m 0.5,2 0.5,-1 h -0.5 -2 l -0.5,1 h 0.5 2"
         id="path175"
         style="stroke-width:13.0412" />
    </g>
  </g>
  <metadata
     id="metadata1">
    <rdf:RDF>
      <cc:Work
         rdf:about="">
        <dc:title>Class_notes-merged.pdf</dc:title>
      </cc:Work>
    </rdf:RDF>
  </metadata>
</svg>
