<?xml version="1.0" encoding="UTF-8" standalone="no"?>
<!-- Created with Inkscape (http://www.inkscape.org/) -->

<svg
   width="3in"
   height="1.7in"
   viewBox="0 0 76.200001 43.180002"
   version="1.1"
   id="svg5"
   inkscape:version="1.1.1 (3bf5ae0d25, 2021-09-20)"
   sodipodi:docname="viscoplasticity.svg"
   xmlns:inkscape="http://www.inkscape.org/namespaces/inkscape"
   xmlns:sodipodi="http://sodipodi.sourceforge.net/DTD/sodipodi-0.dtd"
   xmlns="http://www.w3.org/2000/svg"
   xmlns:svg="http://www.w3.org/2000/svg"
   xmlns:ns2="http://www.iki.fi/pav/software/textext/">
  <sodipodi:namedview
     id="namedview7"
     pagecolor="#505050"
     bordercolor="#ffffff"
     borderopacity="1"
     inkscape:pageshadow="0"
     inkscape:pageopacity="0"
     inkscape:pagecheckerboard="1"
     inkscape:document-units="mm"
     showgrid="false"
     units="in"
     inkscape:snap-page="true"
     inkscape:zoom="2.8934905"
     inkscape:cx="83.463209"
     inkscape:cy="81.389589"
     inkscape:window-width="2400"
     inkscape:window-height="1271"
     inkscape:window-x="2395"
     inkscape:window-y="-9"
     inkscape:window-maximized="1"
     inkscape:current-layer="layer1"
     inkscape:snap-bbox="true"
     inkscape:snap-midpoints="true" />
  <defs
     id="defs2">
    <marker
       style="overflow:visible;"
       id="Arrow1Send"
       refX="0.0"
       refY="0.0"
       orient="auto"
       inkscape:stockid="Arrow1Send"
       inkscape:isstock="true">
      <path
         transform="scale(0.2) rotate(180) translate(6,0)"
         style="fill-rule:evenodd;fill:context-stroke;stroke:context-stroke;stroke-width:1.0pt;"
         d="M 0.0,0.0 L 5.0,-5.0 L -12.5,0.0 L 5.0,5.0 L 0.0,0.0 z "
         id="path1709" />
    </marker>
  </defs>
  <g
     inkscape:label="Layer 1"
     inkscape:groupmode="layer"
     id="layer1">
    <rect
       style="fill:#ffffff;stroke:none;stroke-width:0.465;paint-order:markers fill stroke"
       id="rect846"
       width="76.199997"
       height="43.180004"
       x="0"
       y="0" />
    <path
       id="rect999"
       style="fill:#afdde9;stroke-width:0.606619;paint-order:markers fill stroke"
       d="m 2.0103035,7.500464 h 3.3530772 c 0.6380658,1.808955 0.9723316,3.61791 0,5.426865 h -3.3530772 c -0.8609384,-1.808955 -0.9268676,-3.61791 0,-5.426865 z"
       sodipodi:nodetypes="ccccc" />
    <path
       style="fill:#800080;stroke:#0000ff;stroke-width:0.345708;stroke-linecap:butt;stroke-linejoin:miter;stroke-miterlimit:4;stroke-dasharray:none;stroke-opacity:1;marker-end:url(#Arrow1Send)"
       d="m 3.8087724,4.0532984 v 2.8301389"
       id="path1612" />
    <path
       style="fill:#800080;stroke:#0000ff;stroke-width:0.345708;stroke-linecap:butt;stroke-linejoin:miter;stroke-miterlimit:4;stroke-dasharray:none;stroke-opacity:1;marker-end:url(#Arrow1Send)"
       d="m 3.8087724,16.298639 v -2.830138"
       id="path2042" />
    <path
       style="fill:none;stroke:#000000;stroke-width:0.245;stroke-linecap:butt;stroke-linejoin:miter;stroke-miterlimit:4;stroke-dasharray:none;stroke-opacity:1"
       d="m 4.6927655,6.3625729 h 4.0236926"
       id="path2077" />
    <path
       style="fill:none;stroke:#000000;stroke-width:0.245;stroke-linecap:butt;stroke-linejoin:miter;stroke-miterlimit:4;stroke-dasharray:none;stroke-opacity:1"
       d="m 4.4184229,7.5296408 h 4.4199652"
       id="path2079" />
    <path
       style="fill:none;stroke:#000000;stroke-width:0.245;stroke-linecap:butt;stroke-linejoin:miter;stroke-miterlimit:4;stroke-dasharray:none;stroke-opacity:1"
       d="m 7.40571,5.4289188 v 3.121906"
       id="path2081" />
    <path
       style="fill:none;stroke:#000000;stroke-width:0.26458299;stroke-linecap:butt;stroke-linejoin:miter;stroke-opacity:1;stroke-miterlimit:4;stroke-dasharray:1.05833194,0.52916597;stroke-dashoffset:0"
       d="m 38.099997,0 v 43.180005"
       id="path2209" />
    <g
       transform="matrix(0.282222,0,0,0.282222,0.26208766,3.5341585)"
       ns2:version="1.6.0"
       ns2:texconverter="pdflatex"
       ns2:pdfconverter="inkscape"
       ns2:text="$\\sigma_d$"
       ns2:preamble="C:\Users\$r.984804\OneDrive - University of Maine System\UMaine_docs\Faculty_Service\Brochure4+1\preamble_triptico.tex"
       ns2:scale="0.8"
       ns2:alignment="middle center"
       ns2:stroke-to-path="0"
       ns2:inkscapeversion="1.1.1"
       ns2:jacobian_sqrt="0.282222"
       id="g2436"
       style="fill:#0000ff">
      <defs
         id="id-7b52868b-a017-4a93-915c-e0aeb02b4590">
        <g
           id="id-89879c88-369f-4e0e-9569-74a35dd08b14">
          <symbol
             overflow="visible"
             id="id-4298982f-f593-4fa2-a461-1b4bca1d4829">
            <path
               style="stroke:none;stroke-width:0"
               d=""
               id="id-b674325d-bf6c-4e49-8f1d-bf84e419a2cd" />
          </symbol>
          <symbol
             overflow="visible"
             id="id-41e84fe2-cf2d-41b5-8793-39fd7e3e2b3b">
            <path
               style="stroke:none;stroke-width:0"
               d="m 5.15625,-3.71875 c 0.140625,0 0.5,0 0.5,-0.34375 0,-0.234375 -0.21875,-0.234375 -0.390625,-0.234375 h -2.28125 c -1.5,0 -2.609375,1.640625 -2.609375,2.828125 0,0.875 0.59375,1.578125 1.5,1.578125 1.171875,0 2.5,-1.203125 2.5,-2.734375 0,-0.171875 0,-0.65625 -0.3125,-1.09375 z m -3.265625,3.609375 c -0.5,0 -0.890625,-0.359375 -0.890625,-1.078125 0,-0.296875 0.109375,-1.109375 0.46875,-1.703125 0.421875,-0.6875 1.015625,-0.828125 1.359375,-0.828125 0.828125,0 0.90625,0.65625 0.90625,0.96875 0,0.46875 -0.203125,1.28125 -0.53125,1.796875 -0.390625,0.578125 -0.9375,0.84375 -1.3125,0.84375 z m 0,0"
               id="id-a2f98c0c-f25f-4d03-b264-df3ab5c1a4e9" />
          </symbol>
          <symbol
             overflow="visible"
             id="id-ab1636fd-8bb5-4060-8111-1146906db8ca">
            <path
               style="stroke:none;stroke-width:0"
               d=""
               id="id-ce1596a9-7b13-4ec1-b17a-db1b6bf5f4de" />
          </symbol>
          <symbol
             overflow="visible"
             id="id-5f3adcc7-764f-438e-a7f3-f8ce76cc96a3">
            <path
               style="stroke:none;stroke-width:0"
               d="m 3.984375,-4.625 c 0,-0.015625 0.015625,-0.109375 0.015625,-0.109375 0,-0.046875 -0.015625,-0.109375 -0.109375,-0.109375 -0.140625,0 -0.71875,0.0625 -0.890625,0.078125 -0.046875,0 -0.15625,0.015625 -0.15625,0.15625 0,0.09375 0.109375,0.09375 0.1875,0.09375 0.328125,0 0.328125,0.0625 0.328125,0.109375 0,0.046875 0,0.09375 -0.015625,0.15625 l -0.40625,1.59375 c -0.140625,-0.234375 -0.375,-0.421875 -0.71875,-0.421875 -0.890625,0 -1.796875,0.984375 -1.796875,1.984375 0,0.6875 0.453125,1.15625 1.0625,1.15625 0.375,0 0.703125,-0.203125 0.984375,-0.484375 0.125,0.421875 0.53125,0.484375 0.71875,0.484375 0.25,0 0.421875,-0.140625 0.546875,-0.359375 0.15625,-0.28125 0.25,-0.671875 0.25,-0.703125 0,-0.09375 -0.09375,-0.09375 -0.109375,-0.09375 -0.109375,0 -0.109375,0.03125 -0.15625,0.21875 -0.09375,0.34375 -0.21875,0.75 -0.515625,0.75 -0.171875,0 -0.234375,-0.15625 -0.234375,-0.34375 0,-0.125 0.015625,-0.1875 0.046875,-0.28125 z m -1.484375,3.75 c -0.046875,0.203125 -0.203125,0.34375 -0.359375,0.46875 -0.0625,0.0625 -0.34375,0.28125 -0.640625,0.28125 -0.265625,0 -0.515625,-0.1875 -0.515625,-0.671875 0,-0.375 0.203125,-1.140625 0.375,-1.421875 0.3125,-0.5625 0.671875,-0.65625 0.859375,-0.65625 0.484375,0 0.625,0.53125 0.625,0.609375 0,0.015625 -0.015625,0.078125 -0.015625,0.09375 z m 0,0"
               id="id-f961c429-fbd5-434b-953f-d68a262033f0" />
          </symbol>
        </g>
      </defs>
      <g
         id="id-6583977e-5136-485d-a1aa-eb4beabed9aa"
         transform="translate(-70.595,-102.178)"
         style="fill:#0000ff">
        <g
           style="fill:#0000ff;fill-opacity:1"
           id="id-9cf07d0a-4edf-4dfe-9352-e118c686829d">
          <g
             transform="translate(70.22,106.475)"
             id="g2428"
             style="fill:#0000ff">
            <path
               style="fill:#0000ff;stroke:none;stroke-width:0"
               d="m 5.15625,-3.71875 c 0.140625,0 0.5,0 0.5,-0.34375 0,-0.234375 -0.21875,-0.234375 -0.390625,-0.234375 h -2.28125 c -1.5,0 -2.609375,1.640625 -2.609375,2.828125 0,0.875 0.59375,1.578125 1.5,1.578125 1.171875,0 2.5,-1.203125 2.5,-2.734375 0,-0.171875 0,-0.65625 -0.3125,-1.09375 z m -3.265625,3.609375 c -0.5,0 -0.890625,-0.359375 -0.890625,-1.078125 0,-0.296875 0.109375,-1.109375 0.46875,-1.703125 0.421875,-0.6875 1.015625,-0.828125 1.359375,-0.828125 0.828125,0 0.90625,0.65625 0.90625,0.96875 0,0.46875 -0.203125,1.28125 -0.53125,1.796875 -0.390625,0.578125 -0.9375,0.84375 -1.3125,0.84375 z m 0,0"
               id="id-d13851b1-09b9-4db8-a86e-e81e5cb98f82" />
          </g>
        </g>
        <g
           style="fill:#0000ff;fill-opacity:1"
           id="id-36a3c6b6-1b55-4b0c-b323-d92344a1f6c7">
          <g
             transform="translate(75.912,107.969)"
             id="g2432"
             style="fill:#0000ff">
            <path
               style="fill:#0000ff;stroke:none;stroke-width:0"
               d="m 3.984375,-4.625 c 0,-0.015625 0.015625,-0.109375 0.015625,-0.109375 0,-0.046875 -0.015625,-0.109375 -0.109375,-0.109375 -0.140625,0 -0.71875,0.0625 -0.890625,0.078125 -0.046875,0 -0.15625,0.015625 -0.15625,0.15625 0,0.09375 0.109375,0.09375 0.1875,0.09375 0.328125,0 0.328125,0.0625 0.328125,0.109375 0,0.046875 0,0.09375 -0.015625,0.15625 l -0.40625,1.59375 c -0.140625,-0.234375 -0.375,-0.421875 -0.71875,-0.421875 -0.890625,0 -1.796875,0.984375 -1.796875,1.984375 0,0.6875 0.453125,1.15625 1.0625,1.15625 0.375,0 0.703125,-0.203125 0.984375,-0.484375 0.125,0.421875 0.53125,0.484375 0.71875,0.484375 0.25,0 0.421875,-0.140625 0.546875,-0.359375 0.15625,-0.28125 0.25,-0.671875 0.25,-0.703125 0,-0.09375 -0.09375,-0.09375 -0.109375,-0.09375 -0.109375,0 -0.109375,0.03125 -0.15625,0.21875 -0.09375,0.34375 -0.21875,0.75 -0.515625,0.75 -0.171875,0 -0.234375,-0.15625 -0.234375,-0.34375 0,-0.125 0.015625,-0.1875 0.046875,-0.28125 z m -1.484375,3.75 c -0.046875,0.203125 -0.203125,0.34375 -0.359375,0.46875 -0.0625,0.0625 -0.34375,0.28125 -0.640625,0.28125 -0.265625,0 -0.515625,-0.1875 -0.515625,-0.671875 0,-0.375 0.203125,-1.140625 0.375,-1.421875 0.3125,-0.5625 0.671875,-0.65625 0.859375,-0.65625 0.484375,0 0.625,0.53125 0.625,0.609375 0,0.015625 -0.015625,0.078125 -0.015625,0.09375 z m 0,0"
               id="id-7965ba47-f9fb-476f-94a0-ee308fa8de8d" />
          </g>
        </g>
      </g>
    </g>
    <g
       transform="matrix(0.282222,0,0,0.282222,9.6409508,5.8670701)"
       ns2:version="1.6.0"
       ns2:texconverter="pdflatex"
       ns2:pdfconverter="inkscape"
       ns2:text="$\\varepsilon_a$"
       ns2:preamble="C:\Users\$r.984804\OneDrive - University of Maine System\UMaine_docs\Faculty_Service\Brochure4+1\preamble_triptico.tex"
       ns2:scale="0.8"
       ns2:alignment="middle center"
       ns2:stroke-to-path="0"
       ns2:inkscapeversion="1.1.1"
       ns2:jacobian_sqrt="0.282222"
       id="g2575"
       style="fill:#ff0000">
      <defs
         id="id-f5ef7ad5-0fc6-4b05-8f09-b81952bbeb21">
        <g
           id="id-81e723c1-4298-46d1-8461-e93dc7bc1a9f">
          <symbol
             overflow="visible"
             id="id-ba121f80-f0bb-4bc7-923e-22011dd45979">
            <path
               style="stroke:none;stroke-width:0"
               d=""
               id="id-05f55c6e-6009-4724-b70f-53aad98c88ac" />
          </symbol>
          <symbol
             overflow="visible"
             id="id-87829723-618d-443d-a84c-8a62746ddecd">
            <path
               style="stroke:none;stroke-width:0"
               d="m 1.40625,-2.265625 c 0.328125,0.140625 0.625,0.140625 0.859375,0.140625 0.25,0 0.8125,0 0.8125,-0.3125 0,-0.234375 -0.359375,-0.265625 -0.734375,-0.265625 -0.203125,0 -0.5625,0.015625 -0.921875,0.1875 -0.234375,-0.109375 -0.40625,-0.3125 -0.40625,-0.578125 0,-0.609375 0.984375,-0.96875 1.875,-0.96875 0.15625,0 0.515625,0 0.921875,0.28125 0.109375,0.078125 0.125,0.109375 0.1875,0.109375 0.140625,0 0.28125,-0.140625 0.28125,-0.28125 0,-0.1875 -0.609375,-0.5625 -1.296875,-0.5625 -1.140625,0 -2.21875,0.671875 -2.21875,1.421875 0,0.4375 0.359375,0.6875 0.40625,0.71875 -0.59375,0.328125 -0.90625,0.875 -0.90625,1.34375 0,0.640625 0.5625,1.25 1.625,1.25 1.3125,0 1.875,-0.875 1.875,-1.03125 0,-0.0625 -0.0625,-0.09375 -0.109375,-0.09375 -0.0625,0 -0.09375,0.03125 -0.109375,0.0625 -0.140625,0.234375 -0.375,0.609375 -1.578125,0.609375 -0.609375,0 -1.453125,-0.15625 -1.453125,-0.859375 0,-0.34375 0.28125,-0.875 0.890625,-1.171875 z m 0.328125,-0.125 c 0.234375,-0.078125 0.4375,-0.09375 0.609375,-0.09375 0.25,0 0.28125,0.015625 0.46875,0.0625 -0.15625,0.0625 -0.171875,0.078125 -0.546875,0.078125 -0.21875,0 -0.34375,0 -0.53125,-0.046875 z m 0,0"
               id="id-c14d4a42-fe65-43bb-bba4-c08baeb3d68b" />
          </symbol>
          <symbol
             overflow="visible"
             id="id-a7cb3b07-7d1a-489a-91a2-eafc086af6e7">
            <path
               style="stroke:none;stroke-width:0"
               d=""
               id="id-0fa7e03c-1326-4bf7-ba72-9d7d14c66610" />
          </symbol>
          <symbol
             overflow="visible"
             id="id-3332ded2-4be8-49a1-b78e-91dee812019f">
            <path
               style="stroke:none;stroke-width:0"
               d="m 2.9375,-2.65625 c -0.140625,-0.234375 -0.375,-0.421875 -0.71875,-0.421875 -0.890625,0 -1.796875,0.984375 -1.796875,1.984375 0,0.6875 0.453125,1.15625 1.0625,1.15625 0.375,0 0.703125,-0.203125 0.984375,-0.484375 0.125,0.421875 0.53125,0.484375 0.71875,0.484375 0.25,0 0.421875,-0.140625 0.546875,-0.359375 0.15625,-0.28125 0.25,-0.671875 0.25,-0.703125 0,-0.09375 -0.09375,-0.09375 -0.109375,-0.09375 -0.109375,0 -0.109375,0.03125 -0.15625,0.21875 -0.09375,0.34375 -0.21875,0.75 -0.515625,0.75 -0.171875,0 -0.234375,-0.15625 -0.234375,-0.34375 0,-0.109375 0.0625,-0.375 0.109375,-0.546875 0.046875,-0.1875 0.125,-0.46875 0.15625,-0.625 l 0.140625,-0.53125 c 0.046875,-0.1875 0.125,-0.515625 0.125,-0.546875 0,-0.15625 -0.125,-0.21875 -0.234375,-0.21875 -0.125,0 -0.28125,0.078125 -0.328125,0.28125 z m -0.4375,1.78125 c -0.046875,0.203125 -0.203125,0.34375 -0.359375,0.46875 -0.0625,0.0625 -0.34375,0.28125 -0.640625,0.28125 -0.265625,0 -0.515625,-0.1875 -0.515625,-0.671875 0,-0.375 0.203125,-1.140625 0.375,-1.421875 0.3125,-0.5625 0.671875,-0.65625 0.859375,-0.65625 0.484375,0 0.625,0.53125 0.625,0.609375 0,0.015625 -0.015625,0.078125 -0.015625,0.09375 z m 0,0"
               id="id-ef8e7459-4cea-4280-af15-0026ed147ef0" />
          </symbol>
        </g>
      </defs>
      <g
         id="id-bde8314b-c383-4278-8b73-3f16c272acd5"
         transform="translate(-70.4856,-101.959)"
         style="fill:#ff0000">
        <g
           style="fill:#ff0000;fill-opacity:1"
           id="id-cda2c032-8c85-4a27-8c42-82927c83a07a">
          <g
             transform="translate(70.22,106.475)"
             id="g2567"
             style="fill:#ff0000">
            <path
               style="fill:#ff0000;stroke:none;stroke-width:0"
               d="m 1.40625,-2.265625 c 0.328125,0.140625 0.625,0.140625 0.859375,0.140625 0.25,0 0.8125,0 0.8125,-0.3125 0,-0.234375 -0.359375,-0.265625 -0.734375,-0.265625 -0.203125,0 -0.5625,0.015625 -0.921875,0.1875 -0.234375,-0.109375 -0.40625,-0.3125 -0.40625,-0.578125 0,-0.609375 0.984375,-0.96875 1.875,-0.96875 0.15625,0 0.515625,0 0.921875,0.28125 0.109375,0.078125 0.125,0.109375 0.1875,0.109375 0.140625,0 0.28125,-0.140625 0.28125,-0.28125 0,-0.1875 -0.609375,-0.5625 -1.296875,-0.5625 -1.140625,0 -2.21875,0.671875 -2.21875,1.421875 0,0.4375 0.359375,0.6875 0.40625,0.71875 -0.59375,0.328125 -0.90625,0.875 -0.90625,1.34375 0,0.640625 0.5625,1.25 1.625,1.25 1.3125,0 1.875,-0.875 1.875,-1.03125 0,-0.0625 -0.0625,-0.09375 -0.109375,-0.09375 -0.0625,0 -0.09375,0.03125 -0.109375,0.0625 -0.140625,0.234375 -0.375,0.609375 -1.578125,0.609375 -0.609375,0 -1.453125,-0.15625 -1.453125,-0.859375 0,-0.34375 0.28125,-0.875 0.890625,-1.171875 z m 0.328125,-0.125 c 0.234375,-0.078125 0.4375,-0.09375 0.609375,-0.09375 0.25,0 0.28125,0.015625 0.46875,0.0625 -0.15625,0.0625 -0.171875,0.078125 -0.546875,0.078125 -0.21875,0 -0.34375,0 -0.53125,-0.046875 z m 0,0"
               id="id-82a78f41-f6fc-40b3-814c-004e04b23af8" />
          </g>
        </g>
        <g
           style="fill:#ff0000;fill-opacity:1"
           id="id-04d16e36-c0a9-4058-861d-a465ed382e11">
          <g
             transform="translate(74.865,107.969)"
             id="g2571"
             style="fill:#ff0000">
            <path
               style="fill:#ff0000;stroke:none;stroke-width:0"
               d="m 2.9375,-2.65625 c -0.140625,-0.234375 -0.375,-0.421875 -0.71875,-0.421875 -0.890625,0 -1.796875,0.984375 -1.796875,1.984375 0,0.6875 0.453125,1.15625 1.0625,1.15625 0.375,0 0.703125,-0.203125 0.984375,-0.484375 0.125,0.421875 0.53125,0.484375 0.71875,0.484375 0.25,0 0.421875,-0.140625 0.546875,-0.359375 0.15625,-0.28125 0.25,-0.671875 0.25,-0.703125 0,-0.09375 -0.09375,-0.09375 -0.109375,-0.09375 -0.109375,0 -0.109375,0.03125 -0.15625,0.21875 -0.09375,0.34375 -0.21875,0.75 -0.515625,0.75 -0.171875,0 -0.234375,-0.15625 -0.234375,-0.34375 0,-0.109375 0.0625,-0.375 0.109375,-0.546875 0.046875,-0.1875 0.125,-0.46875 0.15625,-0.625 l 0.140625,-0.53125 c 0.046875,-0.1875 0.125,-0.515625 0.125,-0.546875 0,-0.15625 -0.125,-0.21875 -0.234375,-0.21875 -0.125,0 -0.28125,0.078125 -0.328125,0.28125 z m -0.4375,1.78125 c -0.046875,0.203125 -0.203125,0.34375 -0.359375,0.46875 -0.0625,0.0625 -0.34375,0.28125 -0.640625,0.28125 -0.265625,0 -0.515625,-0.1875 -0.515625,-0.671875 0,-0.375 0.203125,-1.140625 0.375,-1.421875 0.3125,-0.5625 0.671875,-0.65625 0.859375,-0.65625 0.484375,0 0.625,0.53125 0.625,0.609375 0,0.015625 -0.015625,0.078125 -0.015625,0.09375 z m 0,0"
               id="id-8e4980fb-a01c-4b0d-ba99-a44070cb0ec9" />
          </g>
        </g>
      </g>
    </g>
    <text
       xml:space="preserve"
       style="font-size:3.52777px;line-height:1.25;font-family:'Times New Roman';-inkscape-font-specification:'Times New Roman, ';stroke-width:0.264583"
       x="6.0994864"
       y="3.0175495"
       id="text5149"><tspan
         sodipodi:role="line"
         id="tspan5147"
         style="stroke-width:0.264583"
         x="6.0994864"
         y="3.0175495">Material modeling</tspan></text>
  </g>
</svg>
