<?xml version="1.0" encoding="UTF-8" standalone="no"?>
<!-- Created with Inkscape (http://www.inkscape.org/) -->

<svg
   width="2.3752279in"
   height="1.2274499in"
   viewBox="0 0 60.33079 31.177227"
   version="1.1"
   id="svg1"
   inkscape:version="1.3.2 (091e20e, 2023-11-25, custom)"
   sodipodi:docname="secondary_consol.svg"
   xml:space="preserve"
   xmlns:inkscape="http://www.inkscape.org/namespaces/inkscape"
   xmlns:sodipodi="http://sodipodi.sourceforge.net/DTD/sodipodi-0.dtd"
   xmlns="http://www.w3.org/2000/svg"
   xmlns:svg="http://www.w3.org/2000/svg"
   xmlns:ns4="http://www.iki.fi/pav/software/textext/"><sodipodi:namedview
     id="namedview1"
     pagecolor="#ffffff"
     bordercolor="#111111"
     borderopacity="1"
     inkscape:showpageshadow="0"
     inkscape:pageopacity="0"
     inkscape:pagecheckerboard="1"
     inkscape:deskcolor="#d1d1d1"
     inkscape:document-units="mm"
     inkscape:zoom="14.909315"
     inkscape:cx="134.81504"
     inkscape:cy="108.01972"
     inkscape:window-width="1920"
     inkscape:window-height="1015"
     inkscape:window-x="1217"
     inkscape:window-y="1347"
     inkscape:window-maximized="1"
     inkscape:current-layer="layer1" /><defs
     id="defs1"><marker
       style="overflow:visible"
       id="marker25"
       refX="0"
       refY="0"
       orient="auto"
       inkscape:stockid="Stop"
       markerWidth="1"
       markerHeight="1"
       viewBox="0 0 1 1"
       inkscape:isstock="true"
       inkscape:collect="always"
       preserveAspectRatio="xMidYMid"><path
         style="fill:none;stroke:context-stroke;stroke-width:1"
         d="M 0,4 V -4"
         id="path25" /></marker><marker
       style="overflow:visible"
       id="marker22"
       refX="0"
       refY="0"
       orient="auto"
       inkscape:stockid="Stop"
       markerWidth="1"
       markerHeight="1"
       viewBox="0 0 1 1"
       inkscape:isstock="true"
       inkscape:collect="always"
       preserveAspectRatio="xMidYMid"><path
         style="fill:none;stroke:context-stroke;stroke-width:1"
         d="M 0,4 V -4"
         id="path22" /></marker><marker
       style="overflow:visible"
       id="Stop"
       refX="0"
       refY="0"
       orient="auto"
       inkscape:stockid="Stop"
       markerWidth="1"
       markerHeight="1"
       viewBox="0 0 1 1"
       inkscape:isstock="true"
       inkscape:collect="always"
       preserveAspectRatio="xMidYMid"><path
         style="fill:none;stroke:context-stroke;stroke-width:1"
         d="M 0,4 V -4"
         id="path23" /></marker><marker
       style="overflow:visible"
       id="ArrowTriangleStylized"
       refX="0"
       refY="0"
       orient="auto-start-reverse"
       inkscape:stockid="Stylized triangle arrow"
       markerWidth="0.5"
       markerHeight="0.5"
       viewBox="0 0 1 1"
       inkscape:isstock="true"
       inkscape:collect="always"
       preserveAspectRatio="xMidYMid"><path
         transform="scale(0.5)"
         style="fill:context-stroke;fill-rule:evenodd;stroke:context-stroke;stroke-width:1pt"
         d="m 6,0 c -3,1 -7,3 -9,5 0,0 0,-4 2,-5 -2,-1 -2,-5 -2,-5 2,2 6,4 9,5 z"
         id="path20" /></marker><marker
       style="overflow:visible"
       id="ConcaveTriangle"
       refX="0"
       refY="0"
       orient="auto-start-reverse"
       inkscape:stockid="Concave triangle arrow"
       markerWidth="1"
       markerHeight="1"
       viewBox="0 0 1 1"
       inkscape:isstock="true"
       inkscape:collect="always"
       preserveAspectRatio="xMidYMid"><path
         transform="scale(0.7)"
         d="M -2,-4 9,0 -2,4 c 2,-2.33 2,-5.66 0,-8 z"
         style="fill:context-stroke;fill-rule:evenodd;stroke:none"
         id="path13" /></marker><inkscape:path-effect
       effect="fill_between_many"
       method="originald"
       linkedpaths="#path2,0,1|#path1,0,1"
       id="path-effect2"
       is_visible="true"
       lpeversion="0"
       join="true"
       close="true"
       autoreverse="true" /></defs><g
     inkscape:label="Layer 1"
     inkscape:groupmode="layer"
     id="layer1"
     transform="translate(-0.714787, -0.690777)"><path
       style="fill:none;stroke:#b3b3b3;stroke-width:0.264583px;stroke-linecap:butt;stroke-linejoin:miter;stroke-opacity:1;stroke-dasharray:1.05833197, 1.05833197;stroke-dashoffset:0"
       d="M 21.743176,23.408037 V 0.690777"
       id="path42" /><path
       style="fill:none;stroke:#000000;stroke-width:0.264583px;stroke-linecap:butt;stroke-linejoin:miter;stroke-opacity:1;marker-start:url(#ConcaveTriangle);marker-end:url(#ConcaveTriangle)"
       d="M 1.4556192,2.8861415 V 28.861414 H 59.378704"
       id="path12"
       sodipodi:nodetypes="ccc" /><g
       transform="matrix(0.352778,0,0,0.352778,53.519591,25.091055)"
       ns4:version="1.10.2"
       ns4:texconverter="pdflatex"
       ns4:pdfconverter="inkscape"
       ns4:text="$\\log t$"
       ns4:preamble="C:\Users\zamcr\AppData\Roaming\inkscape\extensions\textext\default_packages.tex"
       ns4:scale="1.0"
       ns4:alignment="middle center"
       ns4:stroke-to-path="0"
       ns4:inkscapeversion="1.3.2"
       id="g6877"
       ns4:jacobian_sqrt="0.352778"><defs
   id="id-1e1289e7-51a1-4151-aba3-5e531ae38d9a">
    <g
   id="id-2473ee76-68fb-4ed0-9f72-a7313e39208b">
      <g
   id="id-f48ea53e-7aab-4ece-9bc5-bbc125e07a23">
        <path
   d="M 1.765625,-6.921875 0.328125,-6.8125 V -6.5 c 0.703125,0 0.78125,0.0625 0.78125,0.5625 V -0.75 c 0,0.4375 -0.109375,0.4375 -0.78125,0.4375 V 0 C 0.65625,-0.015625 1.1875,-0.03125 1.4375,-0.03125 c 0.25,0 0.734375,0.015625 1.109375,0.03125 v -0.3125 c -0.671875,0 -0.78125,0 -0.78125,-0.4375 z m 0,0"
   id="id-c2d97ff1-c92f-405b-99b8-cbfa09cb6582" />
      </g>
      <g
   id="id-d27b782a-9041-415b-baf7-60d8ec2bb24c">
        <path
   d="M 4.6875,-2.140625 C 4.6875,-3.40625 3.703125,-4.46875 2.5,-4.46875 c -1.25,0 -2.21875,1.09375 -2.21875,2.328125 0,1.296875 1.03125,2.25 2.203125,2.25 1.203125,0 2.203125,-0.984375 2.203125,-2.25 z m -2.1875,2 c -0.4375,0 -0.875,-0.203125 -1.140625,-0.671875 -0.25,-0.4375 -0.25,-1.046875 -0.25,-1.40625 0,-0.390625 0,-0.921875 0.234375,-1.359375 C 1.609375,-4.03125 2.078125,-4.25 2.484375,-4.25 c 0.4375,0 0.859375,0.21875 1.125,0.65625 0.265625,0.421875 0.265625,1 0.265625,1.375 0,0.359375 0,0.90625 -0.21875,1.34375 C 3.421875,-0.421875 2.984375,-0.140625 2.5,-0.140625 Z m 0,0"
   id="id-6f68919a-aa23-47e2-a235-aca87e279d73" />
      </g>
      <g
   id="id-92863039-7cc5-433e-9047-048844701d70">
        <path
   d="m 2.21875,-1.71875 c -0.875,0 -0.875,-1 -0.875,-1.21875 0,-0.265625 0.015625,-0.59375 0.15625,-0.84375 0.078125,-0.109375 0.3125,-0.390625 0.71875,-0.390625 0.859375,0 0.859375,0.984375 0.859375,1.21875 0,0.265625 0,0.59375 -0.15625,0.84375 C 2.84375,-2 2.609375,-1.71875 2.21875,-1.71875 Z M 1.0625,-1.328125 c 0,-0.03125 0,-0.265625 0.15625,-0.46875 0.390625,0.28125 0.8125,0.3125 1,0.3125 0.921875,0 1.609375,-0.6875 1.609375,-1.453125 0,-0.375 -0.15625,-0.734375 -0.40625,-0.96875 C 3.78125,-4.25 4.140625,-4.296875 4.3125,-4.296875 c 0.03125,0 0.078125,0 0.109375,0.015625 C 4.3125,-4.25 4.25,-4.140625 4.25,-4.015625 c 0,0.171875 0.140625,0.28125 0.296875,0.28125 0.09375,0 0.28125,-0.0625 0.28125,-0.296875 0,-0.171875 -0.109375,-0.484375 -0.5,-0.484375 -0.203125,0 -0.640625,0.0625 -1.0625,0.46875 C 2.84375,-4.375 2.4375,-4.40625 2.21875,-4.40625 c -0.9375,0 -1.625,0.6875 -1.625,1.453125 0,0.4375 0.21875,0.8125 0.46875,1.03125 -0.125,0.140625 -0.3125,0.46875 -0.3125,0.828125 0,0.3125 0.140625,0.6875 0.453125,0.890625 -0.609375,0.15625 -0.921875,0.59375 -0.921875,0.984375 0,0.71875 0.984375,1.265625 2.203125,1.265625 1.171875,0 2.203125,-0.5 2.203125,-1.28125 0,-0.34375 -0.125,-0.859375 -0.640625,-1.140625 -0.53125,-0.265625 -1.109375,-0.265625 -1.71875,-0.265625 -0.25,0 -0.671875,0 -0.75,-0.015625 C 1.265625,-0.703125 1.0625,-1 1.0625,-1.328125 Z M 2.5,1.828125 c -1.015625,0 -1.703125,-0.515625 -1.703125,-1.046875 0,-0.453125 0.375,-0.828125 0.8125,-0.84375 h 0.59375 c 0.859375,0 1.96875,0 1.96875,0.84375 0,0.546875 -0.703125,1.046875 -1.671875,1.046875 z m 0,0"
   id="id-12c35abd-5e79-4683-89ab-2ccfeb35bf33" />
      </g>
      <g
   id="id-8a47458c-3169-4b3d-b25b-16a675de1fd8">
        <path
   d="m 2.046875,-3.984375 h 0.9375 c 0.203125,0 0.3125,0 0.3125,-0.203125 0,-0.109375 -0.109375,-0.109375 -0.28125,-0.109375 h -0.875 C 2.5,-5.71875 2.546875,-5.90625 2.546875,-5.96875 c 0,-0.171875 -0.125,-0.265625 -0.296875,-0.265625 -0.03125,0 -0.3125,0 -0.390625,0.359375 L 1.46875,-4.296875 h -0.9375 c -0.203125,0 -0.296875,0 -0.296875,0.1875 0,0.125 0.078125,0.125 0.28125,0.125 h 0.875 C 0.671875,-1.15625 0.625,-0.984375 0.625,-0.8125 0.625,-0.265625 1,0.109375 1.546875,0.109375 2.5625,0.109375 3.125,-1.34375 3.125,-1.421875 3.125,-1.53125 3.046875,-1.53125 3.015625,-1.53125 2.921875,-1.53125 2.90625,-1.5 2.859375,-1.390625 2.4375,-0.34375 1.90625,-0.109375 1.5625,-0.109375 c -0.203125,0 -0.3125,-0.125 -0.3125,-0.453125 0,-0.25 0.03125,-0.3125 0.0625,-0.484375 z m 0,0"
   id="id-6dc6d7a5-1fec-4f2d-80ec-b0343cdadd18" />
      </g>
    </g>
  </defs>
  <g
   fill="#000000"
   fill-opacity="1"
   id="id-1525d69a-b097-49ea-874a-9bce0913d2f2"
   transform="translate(-149.04,-127.843)">
    <g
   transform="translate(148.712,134.765)"
   id="g8488"><path
   d="M 1.765625,-6.921875 0.328125,-6.8125 V -6.5 c 0.703125,0 0.78125,0.0625 0.78125,0.5625 V -0.75 c 0,0.4375 -0.109375,0.4375 -0.78125,0.4375 V 0 C 0.65625,-0.015625 1.1875,-0.03125 1.4375,-0.03125 c 0.25,0 0.734375,0.015625 1.109375,0.03125 v -0.3125 c -0.671875,0 -0.78125,0 -0.78125,-0.4375 z m 0,0"
   id="id-b3866ccd-b579-4fa5-a65a-20058289f669" />
      </g><g
   transform="translate(151.48,134.765)"
   id="g5382"><path
   d="M 4.6875,-2.140625 C 4.6875,-3.40625 3.703125,-4.46875 2.5,-4.46875 c -1.25,0 -2.21875,1.09375 -2.21875,2.328125 0,1.296875 1.03125,2.25 2.203125,2.25 1.203125,0 2.203125,-0.984375 2.203125,-2.25 z m -2.1875,2 c -0.4375,0 -0.875,-0.203125 -1.140625,-0.671875 -0.25,-0.4375 -0.25,-1.046875 -0.25,-1.40625 0,-0.390625 0,-0.921875 0.234375,-1.359375 C 1.609375,-4.03125 2.078125,-4.25 2.484375,-4.25 c 0.4375,0 0.859375,0.21875 1.125,0.65625 0.265625,0.421875 0.265625,1 0.265625,1.375 0,0.359375 0,0.90625 -0.21875,1.34375 C 3.421875,-0.421875 2.984375,-0.140625 2.5,-0.140625 Z m 0,0"
   id="id-bc17c6ca-420d-4fd2-b027-ffc50c501204" />
      </g><g
   transform="translate(156.461,134.765)"
   id="g2942"><path
   d="m 2.21875,-1.71875 c -0.875,0 -0.875,-1 -0.875,-1.21875 0,-0.265625 0.015625,-0.59375 0.15625,-0.84375 0.078125,-0.109375 0.3125,-0.390625 0.71875,-0.390625 0.859375,0 0.859375,0.984375 0.859375,1.21875 0,0.265625 0,0.59375 -0.15625,0.84375 C 2.84375,-2 2.609375,-1.71875 2.21875,-1.71875 Z M 1.0625,-1.328125 c 0,-0.03125 0,-0.265625 0.15625,-0.46875 0.390625,0.28125 0.8125,0.3125 1,0.3125 0.921875,0 1.609375,-0.6875 1.609375,-1.453125 0,-0.375 -0.15625,-0.734375 -0.40625,-0.96875 C 3.78125,-4.25 4.140625,-4.296875 4.3125,-4.296875 c 0.03125,0 0.078125,0 0.109375,0.015625 C 4.3125,-4.25 4.25,-4.140625 4.25,-4.015625 c 0,0.171875 0.140625,0.28125 0.296875,0.28125 0.09375,0 0.28125,-0.0625 0.28125,-0.296875 0,-0.171875 -0.109375,-0.484375 -0.5,-0.484375 -0.203125,0 -0.640625,0.0625 -1.0625,0.46875 C 2.84375,-4.375 2.4375,-4.40625 2.21875,-4.40625 c -0.9375,0 -1.625,0.6875 -1.625,1.453125 0,0.4375 0.21875,0.8125 0.46875,1.03125 -0.125,0.140625 -0.3125,0.46875 -0.3125,0.828125 0,0.3125 0.140625,0.6875 0.453125,0.890625 -0.609375,0.15625 -0.921875,0.59375 -0.921875,0.984375 0,0.71875 0.984375,1.265625 2.203125,1.265625 1.171875,0 2.203125,-0.5 2.203125,-1.28125 0,-0.34375 -0.125,-0.859375 -0.640625,-1.140625 -0.53125,-0.265625 -1.109375,-0.265625 -1.71875,-0.265625 -0.25,0 -0.671875,0 -0.75,-0.015625 C 1.265625,-0.703125 1.0625,-1 1.0625,-1.328125 Z M 2.5,1.828125 c -1.015625,0 -1.703125,-0.515625 -1.703125,-1.046875 0,-0.453125 0.375,-0.828125 0.8125,-0.84375 h 0.59375 c 0.859375,0 1.96875,0 1.96875,0.84375 0,0.546875 -0.703125,1.046875 -1.671875,1.046875 z m 0,0"
   id="id-33fe6d1f-0c5e-4f75-a742-17ec69bece52" />
      </g></g>
  <g
   fill="#000000"
   fill-opacity="1"
   id="id-7bb85333-737c-49a4-823e-a90d546f9446"
   transform="translate(-149.04,-127.843)">
    <g
   transform="translate(163.241,134.765)"
   id="g5177"><path
   d="m 2.046875,-3.984375 h 0.9375 c 0.203125,0 0.3125,0 0.3125,-0.203125 0,-0.109375 -0.109375,-0.109375 -0.28125,-0.109375 h -0.875 C 2.5,-5.71875 2.546875,-5.90625 2.546875,-5.96875 c 0,-0.171875 -0.125,-0.265625 -0.296875,-0.265625 -0.03125,0 -0.3125,0 -0.390625,0.359375 L 1.46875,-4.296875 h -0.9375 c -0.203125,0 -0.296875,0 -0.296875,0.1875 0,0.125 0.078125,0.125 0.28125,0.125 h 0.875 C 0.671875,-1.15625 0.625,-0.984375 0.625,-0.8125 0.625,-0.265625 1,0.109375 1.546875,0.109375 2.5625,0.109375 3.125,-1.34375 3.125,-1.421875 3.125,-1.53125 3.046875,-1.53125 3.015625,-1.53125 2.921875,-1.53125 2.90625,-1.5 2.859375,-1.390625 2.4375,-0.34375 1.90625,-0.109375 1.5625,-0.109375 c -0.203125,0 -0.3125,-0.125 -0.3125,-0.453125 0,-0.25 0.03125,-0.3125 0.0625,-0.484375 z m 0,0"
   id="id-1d777606-c84f-4efb-9172-bcafdfc2081e" />
      </g></g>
</g><g
       transform="matrix(0.352778,0,0,0.352778,2.6225346,1.694741)"
       ns4:version="1.10.2"
       ns4:texconverter="pdflatex"
       ns4:pdfconverter="inkscape"
       ns4:text="$e$"
       ns4:preamble="C:\Users\zamcr\AppData\Roaming\inkscape\extensions\textext\default_packages.tex"
       ns4:scale="1.0"
       ns4:alignment="middle center"
       ns4:stroke-to-path="0"
       ns4:inkscapeversion="1.3.2"
       id="g8655"
       ns4:jacobian_sqrt="0.352778"><defs
   id="id-24833dc3-e36e-4142-89de-f826baba138c">
    <g
   id="id-794430d4-145c-4867-bf3d-10b11da2ab8d">
      <g
   id="id-602adb4e-d13b-465d-aecf-a9eefb4d6da9">
        <path
   d="m 1.859375,-2.296875 c 0.296875,0 1.03125,-0.03125 1.53125,-0.234375 0.703125,-0.296875 0.75,-0.890625 0.75,-1.03125 0,-0.4375 -0.375,-0.84375 -1.0625,-0.84375 -1.109375,0 -2.625,0.96875 -2.625,2.71875 0,1.015625 0.59375,1.796875 1.578125,1.796875 1.421875,0 2.25,-1.0625 2.25,-1.171875 0,-0.0625 -0.046875,-0.140625 -0.109375,-0.140625 -0.0625,0 -0.078125,0.03125 -0.140625,0.109375 -0.78125,0.984375 -1.875,0.984375 -1.984375,0.984375 -0.78125,0 -0.875,-0.84375 -0.875,-1.15625 0,-0.125 0.015625,-0.421875 0.15625,-1.03125 z m -0.46875,-0.21875 C 1.78125,-4.03125 2.8125,-4.1875 3.078125,-4.1875 c 0.453125,0 0.734375,0.296875 0.734375,0.625 0,1.046875 -1.59375,1.046875 -2.015625,1.046875 z m 0,0"
   id="id-cee68454-5fce-4507-9ce5-8a9ef3190a58" />
      </g>
    </g>
  </defs>
  <g
   fill="#000000"
   fill-opacity="1"
   id="id-3c67b44f-311e-422b-a6fc-71fb736ebb40"
   transform="translate(-149.165,-130.359)">
    <g
   transform="translate(148.712,134.765)"
   id="g9444"><path
   d="m 1.859375,-2.296875 c 0.296875,0 1.03125,-0.03125 1.53125,-0.234375 0.703125,-0.296875 0.75,-0.890625 0.75,-1.03125 0,-0.4375 -0.375,-0.84375 -1.0625,-0.84375 -1.109375,0 -2.625,0.96875 -2.625,2.71875 0,1.015625 0.59375,1.796875 1.578125,1.796875 1.421875,0 2.25,-1.0625 2.25,-1.171875 0,-0.0625 -0.046875,-0.140625 -0.109375,-0.140625 -0.0625,0 -0.078125,0.03125 -0.140625,0.109375 -0.78125,0.984375 -1.875,0.984375 -1.984375,0.984375 -0.78125,0 -0.875,-0.84375 -0.875,-1.15625 0,-0.125 0.015625,-0.421875 0.15625,-1.03125 z m -0.46875,-0.21875 C 1.78125,-4.03125 2.8125,-4.1875 3.078125,-4.1875 c 0.453125,0 0.734375,0.296875 0.734375,0.625 0,1.046875 -1.59375,1.046875 -2.015625,1.046875 z m 0,0"
   id="id-023d0a85-235c-4ddc-a4cc-861b5f5748d0" />
      </g></g>
</g><path
       style="fill:none;stroke:#ff0000;stroke-width:0.365;stroke-linecap:round;stroke-linejoin:miter;stroke-dasharray:none;stroke-opacity:1"
       d="m 2.6225787,5.7136037 c 13.3913963,0.2559532 11.5580203,3.449038 15.1465583,9.6971543 1.575858,2.743774 5.068498,8.277265 10.970106,9.104694 5.606496,0.786054 12.719842,2.047904 22.440728,3.017532"
       id="path14"
       sodipodi:nodetypes="cssc" /><text
       xml:space="preserve"
       style="font-size:3.175px;line-height:0.95;font-family:'Times New Roman';-inkscape-font-specification:'Times New Roman, ';text-align:center;text-anchor:middle;white-space:pre;inline-size:19.757;display:inline;fill:#ff0000;stroke-width:0.336704"
       x="45.743069"
       y="19.520794"
       id="text14"
       transform="matrix(0.785802,0,0,0.785802,-15.496827,-9.503113)"><tspan
         x="45.743069"
         y="19.520794"
         id="tspan1">Consolidation<tspan
   y="19.520794"
   id="tspan2"> </tspan></tspan><tspan
         x="45.743069"
         y="22.537045"
         id="tspan3">curve</tspan></text><path
       style="fill:none;stroke:#000000;stroke-width:0.264583px;stroke-linecap:butt;stroke-linejoin:miter;stroke-opacity:1"
       d="M 13.53848,6.1756691 12.688506,7.666824"
       id="path15" /><path
       style="fill:none;stroke:#000000;stroke-width:0.264583px;stroke-linecap:butt;stroke-linejoin:miter;stroke-dasharray:1.05833, 1.05833;stroke-dashoffset:0;stroke-opacity:1"
       d="m 15.404122,10.343128 7.914353,16.311629"
       id="path16" /><path
       style="fill:none;stroke:#000000;stroke-width:0.264583px;stroke-linecap:butt;stroke-linejoin:miter;stroke-dasharray:1.05833, 1.05833;stroke-dashoffset:0;stroke-opacity:1"
       d="M 51.17997,27.532983 19.331044,23.070028"
       id="path17" /><circle
       style="fill:#800000;stroke:none;stroke-width:0.365001;stroke-linecap:round;stroke-miterlimit:4.1;stroke-dasharray:1.05833, 1.05833;stroke-dashoffset:0"
       id="path18"
       cx="21.743177"
       cy="23.408037"
       r="0.46902066" /><path
       style="fill:none;stroke:#800000;stroke-width:0.264583px;stroke-linecap:butt;stroke-linejoin:miter;stroke-opacity:1;marker-end:url(#ArrowTriangleStylized)"
       d="m 21.743177,23.877058 v 4.319289"
       id="path19"
       sodipodi:nodetypes="cc" /><g
       transform="matrix(0.352778,0,0,0.352778,18.187107,29.092128)"
       ns4:version="1.10.2"
       ns4:texconverter="pdflatex"
       ns4:pdfconverter="inkscape"
       ns4:text="$t_{EOP}$"
       ns4:preamble="C:\Users\zamcr\AppData\Roaming\inkscape\extensions\textext\default_packages.tex"
       ns4:scale="1.0"
       ns4:alignment="middle center"
       ns4:stroke-to-path="0"
       ns4:inkscapeversion="1.3.2"
       id="g8288"
       ns4:jacobian_sqrt="0.352778"
       style="fill:#800000"><defs
   id="id-7157b1cc-b013-4815-9d0b-e4e4c08c3dcb">
    <g
   id="id-77a390d6-55ea-41ff-8063-b7676e8872d4">
      <g
   id="id-16ed4941-49fc-46ed-8e6a-f5dcfb7a9e92">
        <path
   d="m 2.046875,-3.984375 h 0.9375 c 0.203125,0 0.3125,0 0.3125,-0.203125 0,-0.109375 -0.109375,-0.109375 -0.28125,-0.109375 h -0.875 C 2.5,-5.71875 2.546875,-5.90625 2.546875,-5.96875 c 0,-0.171875 -0.125,-0.265625 -0.296875,-0.265625 -0.03125,0 -0.3125,0 -0.390625,0.359375 L 1.46875,-4.296875 h -0.9375 c -0.203125,0 -0.296875,0 -0.296875,0.1875 0,0.125 0.078125,0.125 0.28125,0.125 h 0.875 C 0.671875,-1.15625 0.625,-0.984375 0.625,-0.8125 0.625,-0.265625 1,0.109375 1.546875,0.109375 2.5625,0.109375 3.125,-1.34375 3.125,-1.421875 3.125,-1.53125 3.046875,-1.53125 3.015625,-1.53125 2.921875,-1.53125 2.90625,-1.5 2.859375,-1.390625 2.4375,-0.34375 1.90625,-0.109375 1.5625,-0.109375 c -0.203125,0 -0.3125,-0.125 -0.3125,-0.453125 0,-0.25 0.03125,-0.3125 0.0625,-0.484375 z m 0,0"
   id="id-6e770a91-1050-4160-bb41-64532144ce0d" />
      </g>
      <g
   id="id-eede78f0-7d1c-4431-a133-8c12698d9bd1">
        <path
   d="m 5.515625,-1.609375 c 0.046875,-0.09375 0.046875,-0.125 0.046875,-0.125 0,-0.046875 -0.03125,-0.09375 -0.125,-0.09375 -0.015625,0 -0.046875,0 -0.078125,0.015625 0,0.015625 -0.015625,0.03125 -0.09375,0.203125 C 4.8125,-0.59375 4.453125,-0.25 3.3125,-0.25 H 2.125 c -0.203125,0 -0.21875,-0.015625 -0.21875,-0.078125 0,0 0,-0.03125 0.03125,-0.140625 L 2.40625,-2.328125 H 3.1875 c 0.546875,0 0.625,0.078125 0.625,0.3125 0,0.078125 -0.015625,0.203125 -0.046875,0.3125 C 3.75,-1.640625 3.75,-1.625 3.75,-1.609375 c 0,0 0,0.09375 0.125,0.09375 0.09375,0 0.09375,-0.03125 0.125,-0.15625 l 0.390625,-1.53125 c 0.015625,-0.078125 0.015625,-0.09375 0.015625,-0.09375 0,-0.078125 -0.0625,-0.109375 -0.125,-0.109375 -0.09375,0 -0.09375,0.046875 -0.140625,0.1875 C 4,-2.671875 3.796875,-2.578125 3.203125,-2.578125 H 2.46875 L 2.890625,-4.25 c 0.046875,-0.203125 0.0625,-0.234375 0.34375,-0.234375 H 4.375 c 0.921875,0 1.140625,0.1875 1.140625,0.8125 0,0.1875 -0.03125,0.390625 -0.03125,0.421875 0,0.0625 0.03125,0.125 0.125,0.125 0.109375,0 0.109375,-0.0625 0.125,-0.1875 l 0.125,-1.203125 C 5.875,-4.734375 5.828125,-4.734375 5.65625,-4.734375 H 1.828125 c -0.140625,0 -0.21875,0 -0.21875,0.15625 0,0.09375 0.0625,0.09375 0.21875,0.09375 0.109375,0 0.140625,0 0.265625,0.015625 C 2.234375,-4.453125 2.25,-4.4375 2.25,-4.375 c 0,0.046875 -0.015625,0.125 -0.03125,0.15625 L 1.3125,-0.578125 C 1.234375,-0.296875 1.234375,-0.25 0.6875,-0.25 c -0.125,0 -0.203125,0 -0.203125,0.15625 C 0.484375,0 0.5625,0 0.6875,0 H 4.625 c 0.171875,0 0.1875,0 0.234375,-0.125 z m 0,0"
   id="id-16821abd-59a7-426b-a502-0262a1bc2986" />
      </g>
      <g
   id="id-8ff8d68e-8f64-448c-8476-33a508e94ec4">
        <path
   d="m 5.78125,-2.96875 c 0,-1.09375 -0.796875,-1.9375 -2.03125,-1.9375 -1.65625,0 -3.265625,1.5625 -3.265625,3.140625 0,1.125 0.828125,1.90625 2.03125,1.90625 1.65625,0 3.265625,-1.515625 3.265625,-3.109375 z m -3.21875,2.875 c -0.734375,0 -1.359375,-0.5 -1.359375,-1.53125 0,-0.359375 0.09375,-1.34375 0.734375,-2.140625 0.46875,-0.5625 1.140625,-0.90625 1.765625,-0.90625 0.71875,0 1.390625,0.453125 1.390625,1.46875 0,0.5 -0.21875,1.53125 -0.859375,2.265625 C 3.75,-0.375 3.109375,-0.09375 2.5625,-0.09375 Z m 0,0"
   id="id-e56a83e3-62f7-43a5-ba39-3419027d516f" />
      </g>
      <g
   id="id-273f9da5-6f3d-4747-a23f-4b57ee1ec44b">
        <path
   d="m 2.375,-2.15625 h 1.265625 c 1.171875,0 2.171875,-0.75 2.171875,-1.515625 0,-0.59375 -0.578125,-1.09375 -1.53125,-1.09375 h -2.4375 c -0.140625,0 -0.21875,0 -0.21875,0.15625 0,0.09375 0.078125,0.09375 0.234375,0.09375 0.109375,0 0.140625,0 0.265625,0.015625 0.140625,0.015625 0.140625,0.03125 0.140625,0.109375 0,0 0,0.046875 -0.015625,0.140625 L 1.328125,-0.578125 C 1.25,-0.296875 1.25,-0.25 0.703125,-0.25 0.578125,-0.25 0.5,-0.25 0.5,-0.09375 0.5,-0.09375 0.5,0 0.609375,0 0.8125,0 1.3125,-0.03125 1.515625,-0.03125 1.625,-0.03125 1.875,-0.03125 2,-0.015625 2.125,-0.015625 2.3125,0 2.4375,0 2.484375,0 2.578125,0 2.578125,-0.15625 2.578125,-0.25 2.5,-0.25 2.359375,-0.25 c 0,0 -0.140625,0 -0.265625,-0.015625 C 1.9375,-0.28125 1.9375,-0.296875 1.9375,-0.375 c 0,0 0,-0.046875 0.03125,-0.140625 z m 0.5,-2.109375 c 0.0625,-0.21875 0.0625,-0.25 0.359375,-0.25 h 0.8125 c 0.65625,0 1.046875,0.203125 1.046875,0.703125 0,0.203125 -0.078125,0.765625 -0.421875,1.078125 -0.25,0.21875 -0.65625,0.34375 -1.15625,0.34375 H 2.40625 Z m 0,0"
   id="id-2577edb6-67f9-4a8c-a193-3af7e2a163da" />
      </g>
    </g>
  </defs>
  <g
   fill="#000000"
   fill-opacity="1"
   id="id-72066dd4-b8c3-4d4b-b083-c94508302f1e"
   transform="translate(-148.946,-128.531)"
   style="fill:#800000">
    <g
   transform="translate(148.712,134.765)"
   id="g9299"
   style="fill:#800000"><path
   d="m 2.046875,-3.984375 h 0.9375 c 0.203125,0 0.3125,0 0.3125,-0.203125 0,-0.109375 -0.109375,-0.109375 -0.28125,-0.109375 h -0.875 C 2.5,-5.71875 2.546875,-5.90625 2.546875,-5.96875 c 0,-0.171875 -0.125,-0.265625 -0.296875,-0.265625 -0.03125,0 -0.3125,0 -0.390625,0.359375 L 1.46875,-4.296875 h -0.9375 c -0.203125,0 -0.296875,0 -0.296875,0.1875 0,0.125 0.078125,0.125 0.28125,0.125 h 0.875 C 0.671875,-1.15625 0.625,-0.984375 0.625,-0.8125 0.625,-0.265625 1,0.109375 1.546875,0.109375 2.5625,0.109375 3.125,-1.34375 3.125,-1.421875 3.125,-1.53125 3.046875,-1.53125 3.015625,-1.53125 2.921875,-1.53125 2.90625,-1.5 2.859375,-1.390625 2.4375,-0.34375 1.90625,-0.109375 1.5625,-0.109375 c -0.203125,0 -0.3125,-0.125 -0.3125,-0.453125 0,-0.25 0.03125,-0.3125 0.0625,-0.484375 z m 0,0"
   id="id-6bf591b1-7ee5-48cd-9fce-2acba8487663"
   style="fill:#800000" />
      </g></g>
  <g
   fill="#000000"
   fill-opacity="1"
   id="id-d468084d-89e6-4951-baa8-680884aa0c3c"
   transform="translate(-148.946,-128.531)"
   style="fill:#800000">
    <g
   transform="translate(152.31,136.259)"
   id="g2946"
   style="fill:#800000"><path
   d="m 5.515625,-1.609375 c 0.046875,-0.09375 0.046875,-0.125 0.046875,-0.125 0,-0.046875 -0.03125,-0.09375 -0.125,-0.09375 -0.015625,0 -0.046875,0 -0.078125,0.015625 0,0.015625 -0.015625,0.03125 -0.09375,0.203125 C 4.8125,-0.59375 4.453125,-0.25 3.3125,-0.25 H 2.125 c -0.203125,0 -0.21875,-0.015625 -0.21875,-0.078125 0,0 0,-0.03125 0.03125,-0.140625 L 2.40625,-2.328125 H 3.1875 c 0.546875,0 0.625,0.078125 0.625,0.3125 0,0.078125 -0.015625,0.203125 -0.046875,0.3125 C 3.75,-1.640625 3.75,-1.625 3.75,-1.609375 c 0,0 0,0.09375 0.125,0.09375 0.09375,0 0.09375,-0.03125 0.125,-0.15625 l 0.390625,-1.53125 c 0.015625,-0.078125 0.015625,-0.09375 0.015625,-0.09375 0,-0.078125 -0.0625,-0.109375 -0.125,-0.109375 -0.09375,0 -0.09375,0.046875 -0.140625,0.1875 C 4,-2.671875 3.796875,-2.578125 3.203125,-2.578125 H 2.46875 L 2.890625,-4.25 c 0.046875,-0.203125 0.0625,-0.234375 0.34375,-0.234375 H 4.375 c 0.921875,0 1.140625,0.1875 1.140625,0.8125 0,0.1875 -0.03125,0.390625 -0.03125,0.421875 0,0.0625 0.03125,0.125 0.125,0.125 0.109375,0 0.109375,-0.0625 0.125,-0.1875 l 0.125,-1.203125 C 5.875,-4.734375 5.828125,-4.734375 5.65625,-4.734375 H 1.828125 c -0.140625,0 -0.21875,0 -0.21875,0.15625 0,0.09375 0.0625,0.09375 0.21875,0.09375 0.109375,0 0.140625,0 0.265625,0.015625 C 2.234375,-4.453125 2.25,-4.4375 2.25,-4.375 c 0,0.046875 -0.015625,0.125 -0.03125,0.15625 L 1.3125,-0.578125 C 1.234375,-0.296875 1.234375,-0.25 0.6875,-0.25 c -0.125,0 -0.203125,0 -0.203125,0.15625 C 0.484375,0 0.5625,0 0.6875,0 H 4.625 c 0.171875,0 0.1875,0 0.234375,-0.125 z m 0,0"
   id="id-8fba48a9-2895-4980-b9dc-9ff3fdbf93e2"
   style="fill:#800000" />
      </g></g>
  <g
   fill="#000000"
   fill-opacity="1"
   id="id-1ff09867-643d-40b1-b208-b16aed8478e5"
   transform="translate(-148.946,-128.531)"
   style="fill:#800000">
    <g
   transform="translate(158.542,136.259)"
   id="g8963"
   style="fill:#800000"><path
   d="m 5.78125,-2.96875 c 0,-1.09375 -0.796875,-1.9375 -2.03125,-1.9375 -1.65625,0 -3.265625,1.5625 -3.265625,3.140625 0,1.125 0.828125,1.90625 2.03125,1.90625 1.65625,0 3.265625,-1.515625 3.265625,-3.109375 z m -3.21875,2.875 c -0.734375,0 -1.359375,-0.5 -1.359375,-1.53125 0,-0.359375 0.09375,-1.34375 0.734375,-2.140625 0.46875,-0.5625 1.140625,-0.90625 1.765625,-0.90625 0.71875,0 1.390625,0.453125 1.390625,1.46875 0,0.5 -0.21875,1.53125 -0.859375,2.265625 C 3.75,-0.375 3.109375,-0.09375 2.5625,-0.09375 Z m 0,0"
   id="id-29f92ee9-2592-4c28-8c17-0dcec624df04"
   style="fill:#800000" />
      </g></g>
  <g
   fill="#000000"
   fill-opacity="1"
   id="id-5088088e-9fcb-479e-a883-aac08f9016c5"
   transform="translate(-148.946,-128.531)"
   style="fill:#800000">
    <g
   transform="translate(164.818,136.259)"
   id="g6444"
   style="fill:#800000"><path
   d="m 2.375,-2.15625 h 1.265625 c 1.171875,0 2.171875,-0.75 2.171875,-1.515625 0,-0.59375 -0.578125,-1.09375 -1.53125,-1.09375 h -2.4375 c -0.140625,0 -0.21875,0 -0.21875,0.15625 0,0.09375 0.078125,0.09375 0.234375,0.09375 0.109375,0 0.140625,0 0.265625,0.015625 0.140625,0.015625 0.140625,0.03125 0.140625,0.109375 0,0 0,0.046875 -0.015625,0.140625 L 1.328125,-0.578125 C 1.25,-0.296875 1.25,-0.25 0.703125,-0.25 0.578125,-0.25 0.5,-0.25 0.5,-0.09375 0.5,-0.09375 0.5,0 0.609375,0 0.8125,0 1.3125,-0.03125 1.515625,-0.03125 1.625,-0.03125 1.875,-0.03125 2,-0.015625 2.125,-0.015625 2.3125,0 2.4375,0 2.484375,0 2.578125,0 2.578125,-0.15625 2.578125,-0.25 2.5,-0.25 2.359375,-0.25 c 0,0 -0.140625,0 -0.265625,-0.015625 C 1.9375,-0.28125 1.9375,-0.296875 1.9375,-0.375 c 0,0 0,-0.046875 0.03125,-0.140625 z m 0.5,-2.109375 c 0.0625,-0.21875 0.0625,-0.25 0.359375,-0.25 h 0.8125 c 0.65625,0 1.046875,0.203125 1.046875,0.703125 0,0.203125 -0.078125,0.765625 -0.421875,1.078125 -0.25,0.21875 -0.65625,0.34375 -1.15625,0.34375 H 2.40625 Z m 0,0"
   id="id-53698eec-fa15-4640-9068-153107e01e13"
   style="fill:#800000" />
      </g></g>
</g><path
       style="fill:none;stroke:#008000;stroke-width:0.264583px;stroke-linecap:butt;stroke-linejoin:miter;stroke-opacity:1;marker-start:url(#marker22);marker-end:url(#Stop)"
       d="M 21.743176,26.053872 H 1.4556192"
       id="path21" /><path
       style="fill:none;stroke:#0000ff;stroke-width:0.264583px;stroke-linecap:butt;stroke-linejoin:miter;stroke-opacity:1;marker-start:url(#ConcaveTriangle);marker-end:url(#marker25)"
       d="M 49.910035,26.053872 H 21.743176"
       id="path24"
       sodipodi:nodetypes="cc" /><text
       xml:space="preserve"
       style="font-size:3.175px;line-height:0.95;font-family:'Times New Roman';-inkscape-font-specification:'Times New Roman, ';text-align:center;text-anchor:middle;white-space:pre;inline-size:17.4156;display:inline;fill:#008000;stroke-width:0.340048"
       x="4.8306756"
       y="22.474873"
       id="text25"
       transform="matrix(0.77807506,0,0,0.77807506,6.7872893,1.9706417)"><tspan
         x="4.8306756"
         y="22.474873"
         id="tspan4">Primary<tspan
   y="22.474873"
   id="tspan5"> </tspan></tspan><tspan
         x="4.8306756"
         y="25.491124"
         id="tspan6">consolidation</tspan></text><g
       transform="matrix(0.27448776,0,0,0.27448776,6.6658761,22.495291)"
       ns4:version="1.10.2"
       ns4:texconverter="pdflatex"
       ns4:pdfconverter="inkscape"
       ns4:text="$\\Delta u \\neq 0$"
       ns4:preamble="C:\Users\zamcr\AppData\Roaming\inkscape\extensions\textext\default_packages.tex"
       ns4:scale="1.0"
       ns4:alignment="middle center"
       ns4:stroke-to-path="0"
       ns4:inkscapeversion="1.3.2"
       id="g8997"
       ns4:jacobian_sqrt="0.352778"
       style="fill:#008000;stroke-width:1.28522"><defs
   id="id-969ce805-9221-4851-9c61-af8b6f55edd2">
    <g
   id="id-48ea59cf-c595-4d1d-887b-6c5bba1870b2">
      <g
   id="id-c1183cfe-3513-4849-8f7e-dd8de9daadc2">
        <path
   d="m 4.40625,-6.953125 c -0.0625,-0.140625 -0.09375,-0.1875 -0.265625,-0.1875 -0.15625,0 -0.1875,0.046875 -0.25,0.1875 l -3.375,6.75 C 0.46875,-0.109375 0.46875,-0.09375 0.46875,-0.078125 0.46875,0 0.53125,0 0.6875,0 h 6.921875 c 0.15625,0 0.21875,0 0.21875,-0.078125 0,-0.015625 0,-0.03125 -0.046875,-0.125 z m -0.578125,0.8125 2.6875,5.390625 h -5.375 z m 0,0"
   id="id-ecd6600f-ba3b-49a7-896f-ce95053523b1" />
      </g>
      <g
   id="id-cd770f0e-4811-4bc3-8c26-f9fab3529289">
        <path
   d="m 6.84375,-3.265625 c 0.15625,0 0.34375,0 0.34375,-0.1875 C 7.1875,-3.65625 7,-3.65625 6.859375,-3.65625 h -5.96875 c -0.140625,0 -0.328125,0 -0.328125,0.203125 0,0.1875 0.1875,0.1875 0.328125,0.1875 z m 0.015625,1.9375 c 0.140625,0 0.328125,0 0.328125,-0.203125 0,-0.1875 -0.1875,-0.1875 -0.34375,-0.1875 H 0.890625 c -0.140625,0 -0.328125,0 -0.328125,0.1875 0,0.203125 0.1875,0.203125 0.328125,0.203125 z m 0,0"
   id="id-27b59290-8de8-44a8-84bc-a30b451e2190" />
      </g>
      <g
   id="id-32107fe8-6ab7-4ad6-a5b9-83e6f95d5075">
        <path
   d="m 4.578125,-3.1875 c 0,-0.796875 -0.046875,-1.59375 -0.390625,-2.328125 -0.453125,-0.96875 -1.28125,-1.125 -1.6875,-1.125 -0.609375,0 -1.328125,0.265625 -1.75,1.1875 -0.3125,0.6875 -0.359375,1.46875 -0.359375,2.265625 0,0.75 0.03125,1.640625 0.453125,2.40625 0.421875,0.796875 1.15625,1 1.640625,1 0.53125,0 1.296875,-0.203125 1.734375,-1.15625 0.3125,-0.6875 0.359375,-1.46875 0.359375,-2.25 z M 2.484375,0 C 2.09375,0 1.5,-0.25 1.328125,-1.203125 1.21875,-1.796875 1.21875,-2.71875 1.21875,-3.3125 c 0,-0.640625 0,-1.296875 0.078125,-1.828125 0.1875,-1.1875 0.9375,-1.28125 1.1875,-1.28125 0.328125,0 0.984375,0.1875 1.171875,1.171875 0.109375,0.5625 0.109375,1.3125 0.109375,1.9375 0,0.75 0,1.421875 -0.109375,2.0625 C 3.5,-0.296875 2.9375,0 2.484375,0 Z m 0,0"
   id="id-7ce92791-97a1-4c8e-a646-40915de6dc2e" />
      </g>
      <g
   id="id-816154f2-88ef-455a-bea4-89e066fef569">
        <path
   d="M 3.484375,-0.5625 C 3.59375,-0.15625 3.953125,0.109375 4.375,0.109375 4.71875,0.109375 4.953125,-0.125 5.109375,-0.4375 5.28125,-0.796875 5.40625,-1.40625 5.40625,-1.421875 c 0,-0.109375 -0.078125,-0.109375 -0.109375,-0.109375 -0.109375,0 -0.109375,0.046875 -0.140625,0.1875 -0.140625,0.5625 -0.328125,1.234375 -0.75,1.234375 -0.203125,0 -0.3125,-0.125 -0.3125,-0.453125 0,-0.21875 0.125,-0.6875 0.203125,-1.046875 L 4.578125,-2.6875 C 4.609375,-2.828125 4.703125,-3.203125 4.75,-3.359375 4.796875,-3.59375 4.890625,-3.96875 4.890625,-4.03125 c 0,-0.171875 -0.140625,-0.265625 -0.28125,-0.265625 -0.046875,0 -0.3125,0.015625 -0.390625,0.34375 -0.1875,0.734375 -0.625,2.484375 -0.75,3 -0.015625,0.046875 -0.40625,0.84375 -1.140625,0.84375 -0.515625,0 -0.609375,-0.453125 -0.609375,-0.8125 0,-0.5625 0.28125,-1.34375 0.53125,-2.03125 0.125,-0.3125 0.171875,-0.453125 0.171875,-0.640625 0,-0.4375 -0.3125,-0.8125 -0.8125,-0.8125 -0.953125,0 -1.3125,1.453125 -1.3125,1.53125 0,0.109375 0.09375,0.109375 0.109375,0.109375 0.109375,0 0.109375,-0.03125 0.15625,-0.1875 0.25,-0.859375 0.640625,-1.234375 1.015625,-1.234375 0.09375,0 0.25,0.015625 0.25,0.328125 0,0.234375 -0.109375,0.53125 -0.171875,0.671875 -0.375,1 -0.578125,1.609375 -0.578125,2.09375 0,0.953125 0.6875,1.203125 1.21875,1.203125 0.65625,0 1.015625,-0.453125 1.1875,-0.671875 z m 0,0"
   id="id-571eeb54-17d7-48a1-aadf-ffff4027856a" />
      </g>
      <g
   id="id-2d677017-d28e-4243-90e8-80c87422bb65">
        <path
   d="m 6.28125,-6.75 c 0.078125,-0.140625 0.078125,-0.15625 0.078125,-0.1875 0,-0.078125 -0.0625,-0.203125 -0.203125,-0.203125 -0.109375,0 -0.140625,0.0625 -0.21875,0.203125 L 1.46875,1.765625 c -0.078125,0.140625 -0.078125,0.15625 -0.078125,0.1875 0,0.078125 0.0625,0.203125 0.1875,0.203125 0.125,0 0.15625,-0.0625 0.21875,-0.203125 z m 0,0"
   id="id-7bc818aa-cef6-44aa-a109-c71486c882f7" />
      </g>
    </g>
  </defs>
  <g
   fill="#000000"
   fill-opacity="1"
   id="id-ad6ad77e-c30d-4852-859c-18f644ed210c"
   transform="translate(-149.181,-127.624)"
   style="fill:#008000;stroke-width:1.28522">
    <g
   transform="translate(148.712,134.765)"
   id="g4415"
   style="fill:#008000;stroke-width:1.28522"><path
   d="m 4.40625,-6.953125 c -0.0625,-0.140625 -0.09375,-0.1875 -0.265625,-0.1875 -0.15625,0 -0.1875,0.046875 -0.25,0.1875 l -3.375,6.75 C 0.46875,-0.109375 0.46875,-0.09375 0.46875,-0.078125 0.46875,0 0.53125,0 0.6875,0 h 6.921875 c 0.15625,0 0.21875,0 0.21875,-0.078125 0,-0.015625 0,-0.03125 -0.046875,-0.125 z m -0.578125,0.8125 2.6875,5.390625 h -5.375 z m 0,0"
   id="id-058e0d70-188e-4640-b7f7-005e2d452c12"
   style="fill:#008000;stroke-width:1.28522" />
      </g></g>
  <g
   fill="#000000"
   fill-opacity="1"
   id="id-a7a029f0-7386-432d-9247-dfec3c870d11"
   transform="translate(-149.181,-127.624)"
   style="fill:#008000;stroke-width:1.28522">
    <g
   transform="translate(157.015,134.765)"
   id="g4908"
   style="fill:#008000;stroke-width:1.28522"><path
   d="M 3.484375,-0.5625 C 3.59375,-0.15625 3.953125,0.109375 4.375,0.109375 4.71875,0.109375 4.953125,-0.125 5.109375,-0.4375 5.28125,-0.796875 5.40625,-1.40625 5.40625,-1.421875 c 0,-0.109375 -0.078125,-0.109375 -0.109375,-0.109375 -0.109375,0 -0.109375,0.046875 -0.140625,0.1875 -0.140625,0.5625 -0.328125,1.234375 -0.75,1.234375 -0.203125,0 -0.3125,-0.125 -0.3125,-0.453125 0,-0.21875 0.125,-0.6875 0.203125,-1.046875 L 4.578125,-2.6875 C 4.609375,-2.828125 4.703125,-3.203125 4.75,-3.359375 4.796875,-3.59375 4.890625,-3.96875 4.890625,-4.03125 c 0,-0.171875 -0.140625,-0.265625 -0.28125,-0.265625 -0.046875,0 -0.3125,0.015625 -0.390625,0.34375 -0.1875,0.734375 -0.625,2.484375 -0.75,3 -0.015625,0.046875 -0.40625,0.84375 -1.140625,0.84375 -0.515625,0 -0.609375,-0.453125 -0.609375,-0.8125 0,-0.5625 0.28125,-1.34375 0.53125,-2.03125 0.125,-0.3125 0.171875,-0.453125 0.171875,-0.640625 0,-0.4375 -0.3125,-0.8125 -0.8125,-0.8125 -0.953125,0 -1.3125,1.453125 -1.3125,1.53125 0,0.109375 0.09375,0.109375 0.109375,0.109375 0.109375,0 0.109375,-0.03125 0.15625,-0.1875 0.25,-0.859375 0.640625,-1.234375 1.015625,-1.234375 0.09375,0 0.25,0.015625 0.25,0.328125 0,0.234375 -0.109375,0.53125 -0.171875,0.671875 -0.375,1 -0.578125,1.609375 -0.578125,2.09375 0,0.953125 0.6875,1.203125 1.21875,1.203125 0.65625,0 1.015625,-0.453125 1.1875,-0.671875 z m 0,0"
   id="id-d239a73f-9aca-4ea8-95e9-c68bdbbf53fe"
   style="fill:#008000;stroke-width:1.28522" />
      </g></g>
  <g
   fill="#000000"
   fill-opacity="1"
   id="id-19b20569-5e4d-4dbf-9068-e9c6042245ff"
   transform="translate(-149.181,-127.624)"
   style="fill:#008000;stroke-width:1.28522">
    <g
   transform="translate(165.485,134.765)"
   id="g2479"
   style="fill:#008000;stroke-width:1.28522"><path
   d="m 6.28125,-6.75 c 0.078125,-0.140625 0.078125,-0.15625 0.078125,-0.1875 0,-0.078125 -0.0625,-0.203125 -0.203125,-0.203125 -0.109375,0 -0.140625,0.0625 -0.21875,0.203125 L 1.46875,1.765625 c -0.078125,0.140625 -0.078125,0.15625 -0.078125,0.1875 0,0.078125 0.0625,0.203125 0.1875,0.203125 0.125,0 0.15625,-0.0625 0.21875,-0.203125 z m 0,0"
   id="id-7bcac5f8-b3bf-45a9-ad23-094d9864c923"
   style="fill:#008000;stroke-width:1.28522" />
      </g></g>
  <g
   fill="#000000"
   fill-opacity="1"
   id="id-1033e8c5-828b-4803-8f68-affb6c147ddf"
   transform="translate(-149.181,-127.624)"
   style="fill:#008000;stroke-width:1.28522">
    <g
   transform="translate(165.485,134.765)"
   id="g1023"
   style="fill:#008000;stroke-width:1.28522"><path
   d="m 6.84375,-3.265625 c 0.15625,0 0.34375,0 0.34375,-0.1875 C 7.1875,-3.65625 7,-3.65625 6.859375,-3.65625 h -5.96875 c -0.140625,0 -0.328125,0 -0.328125,0.203125 0,0.1875 0.1875,0.1875 0.328125,0.1875 z m 0.015625,1.9375 c 0.140625,0 0.328125,0 0.328125,-0.203125 0,-0.1875 -0.1875,-0.1875 -0.34375,-0.1875 H 0.890625 c -0.140625,0 -0.328125,0 -0.328125,0.1875 0,0.203125 0.1875,0.203125 0.328125,0.203125 z m 0,0"
   id="id-72b68e59-efc1-4be8-ba6d-ebf89aa0dcd6"
   style="fill:#008000;stroke-width:1.28522" />
      </g></g>
  <g
   fill="#000000"
   fill-opacity="1"
   id="id-e608bff0-8306-40b0-95a1-326112b5616e"
   transform="translate(-149.181,-127.624)"
   style="fill:#008000;stroke-width:1.28522">
    <g
   transform="translate(176.004,134.765)"
   id="g5724"
   style="fill:#008000;stroke-width:1.28522"><path
   d="m 4.578125,-3.1875 c 0,-0.796875 -0.046875,-1.59375 -0.390625,-2.328125 -0.453125,-0.96875 -1.28125,-1.125 -1.6875,-1.125 -0.609375,0 -1.328125,0.265625 -1.75,1.1875 -0.3125,0.6875 -0.359375,1.46875 -0.359375,2.265625 0,0.75 0.03125,1.640625 0.453125,2.40625 0.421875,0.796875 1.15625,1 1.640625,1 0.53125,0 1.296875,-0.203125 1.734375,-1.15625 0.3125,-0.6875 0.359375,-1.46875 0.359375,-2.25 z M 2.484375,0 C 2.09375,0 1.5,-0.25 1.328125,-1.203125 1.21875,-1.796875 1.21875,-2.71875 1.21875,-3.3125 c 0,-0.640625 0,-1.296875 0.078125,-1.828125 0.1875,-1.1875 0.9375,-1.28125 1.1875,-1.28125 0.328125,0 0.984375,0.1875 1.171875,1.171875 0.109375,0.5625 0.109375,1.3125 0.109375,1.9375 0,0.75 0,1.421875 -0.109375,2.0625 C 3.5,-0.296875 2.9375,0 2.484375,0 Z m 0,0"
   id="id-c239cd58-2f13-4def-af3f-3ebc6a8eac57"
   style="fill:#008000;stroke-width:1.28522" />
      </g></g>
</g><text
       xml:space="preserve"
       style="font-size:2.54954px;line-height:0.95;font-family:'Times New Roman';-inkscape-font-specification:'Times New Roman, ';text-align:center;text-anchor:middle;fill:#0000ff;stroke-width:0.264583"
       x="38.225201"
       y="19.838093"
       id="text26"><tspan
         sodipodi:role="line"
         id="tspan25"
         style="fill:#0000ff;stroke-width:0.264583"
         x="38.225201"
         y="19.838093">Creep|Sec. consolidation</tspan></text><g
       transform="matrix(0.28328208,0,0,0.28328208,33.817936,20.734009)"
       ns4:version="1.10.2"
       ns4:texconverter="pdflatex"
       ns4:pdfconverter="inkscape"
       ns4:text="$\\Delta u = 0$"
       ns4:preamble="C:\Users\zamcr\AppData\Roaming\inkscape\extensions\textext\default_packages.tex"
       ns4:scale="1.0"
       ns4:alignment="middle center"
       ns4:stroke-to-path="0"
       ns4:inkscapeversion="1.3.2"
       id="g42"
       ns4:jacobian_sqrt="0.352778"
       style="fill:#0000ff;stroke-width:0"><defs
   id="id-cd72d59b-fd8c-495e-9bd6-4bb5ebe93905"
   style="fill:#0000ff;stroke-width:0">
    <g
   id="id-0c0ca145-2fe1-47ac-84dc-b0dd50eb1ac7"
   style="fill:#0000ff;stroke-width:0">
      <g
   id="id-774b6fdd-b48f-49b5-a66c-cbb8a5887cba"
   style="fill:#0000ff;stroke-width:0">
        <path
   d="m 4.40625,-6.953125 c -0.0625,-0.140625 -0.09375,-0.1875 -0.265625,-0.1875 -0.15625,0 -0.1875,0.046875 -0.25,0.1875 l -3.375,6.75 C 0.46875,-0.109375 0.46875,-0.09375 0.46875,-0.078125 0.46875,0 0.53125,0 0.6875,0 h 6.921875 c 0.15625,0 0.21875,0 0.21875,-0.078125 0,-0.015625 0,-0.03125 -0.046875,-0.125 z m -0.578125,0.8125 2.6875,5.390625 h -5.375 z m 0,0"
   id="id-7005f884-7465-4f09-b7ef-6c2d8c4e3153"
   style="fill:#0000ff;stroke-width:0" />
      </g>
      <g
   id="id-d9c1bd08-c5e3-42dc-b780-4b50a03aad51"
   style="fill:#0000ff;stroke-width:0">
        <path
   d="m 6.84375,-3.265625 c 0.15625,0 0.34375,0 0.34375,-0.1875 C 7.1875,-3.65625 7,-3.65625 6.859375,-3.65625 h -5.96875 c -0.140625,0 -0.328125,0 -0.328125,0.203125 0,0.1875 0.1875,0.1875 0.328125,0.1875 z m 0.015625,1.9375 c 0.140625,0 0.328125,0 0.328125,-0.203125 0,-0.1875 -0.1875,-0.1875 -0.34375,-0.1875 H 0.890625 c -0.140625,0 -0.328125,0 -0.328125,0.1875 0,0.203125 0.1875,0.203125 0.328125,0.203125 z m 0,0"
   id="id-dcb8de2e-a63a-459e-8102-2207e5fa5dcc"
   style="fill:#0000ff;stroke-width:0" />
      </g>
      <g
   id="id-82ac6a24-b59d-40fa-b206-9b2782556cd6"
   style="fill:#0000ff;stroke-width:0">
        <path
   d="m 4.578125,-3.1875 c 0,-0.796875 -0.046875,-1.59375 -0.390625,-2.328125 -0.453125,-0.96875 -1.28125,-1.125 -1.6875,-1.125 -0.609375,0 -1.328125,0.265625 -1.75,1.1875 -0.3125,0.6875 -0.359375,1.46875 -0.359375,2.265625 0,0.75 0.03125,1.640625 0.453125,2.40625 0.421875,0.796875 1.15625,1 1.640625,1 0.53125,0 1.296875,-0.203125 1.734375,-1.15625 0.3125,-0.6875 0.359375,-1.46875 0.359375,-2.25 z M 2.484375,0 C 2.09375,0 1.5,-0.25 1.328125,-1.203125 1.21875,-1.796875 1.21875,-2.71875 1.21875,-3.3125 c 0,-0.640625 0,-1.296875 0.078125,-1.828125 0.1875,-1.1875 0.9375,-1.28125 1.1875,-1.28125 0.328125,0 0.984375,0.1875 1.171875,1.171875 0.109375,0.5625 0.109375,1.3125 0.109375,1.9375 0,0.75 0,1.421875 -0.109375,2.0625 C 3.5,-0.296875 2.9375,0 2.484375,0 Z m 0,0"
   id="id-98c25bab-622f-4fbb-a337-44b473141f69"
   style="fill:#0000ff;stroke-width:0" />
      </g>
      <g
   id="id-27d52e27-3b2c-4607-857e-e96d53dee019"
   style="fill:#0000ff;stroke-width:0">
        <path
   d="M 3.484375,-0.5625 C 3.59375,-0.15625 3.953125,0.109375 4.375,0.109375 4.71875,0.109375 4.953125,-0.125 5.109375,-0.4375 5.28125,-0.796875 5.40625,-1.40625 5.40625,-1.421875 c 0,-0.109375 -0.078125,-0.109375 -0.109375,-0.109375 -0.109375,0 -0.109375,0.046875 -0.140625,0.1875 -0.140625,0.5625 -0.328125,1.234375 -0.75,1.234375 -0.203125,0 -0.3125,-0.125 -0.3125,-0.453125 0,-0.21875 0.125,-0.6875 0.203125,-1.046875 L 4.578125,-2.6875 C 4.609375,-2.828125 4.703125,-3.203125 4.75,-3.359375 4.796875,-3.59375 4.890625,-3.96875 4.890625,-4.03125 c 0,-0.171875 -0.140625,-0.265625 -0.28125,-0.265625 -0.046875,0 -0.3125,0.015625 -0.390625,0.34375 -0.1875,0.734375 -0.625,2.484375 -0.75,3 -0.015625,0.046875 -0.40625,0.84375 -1.140625,0.84375 -0.515625,0 -0.609375,-0.453125 -0.609375,-0.8125 0,-0.5625 0.28125,-1.34375 0.53125,-2.03125 0.125,-0.3125 0.171875,-0.453125 0.171875,-0.640625 0,-0.4375 -0.3125,-0.8125 -0.8125,-0.8125 -0.953125,0 -1.3125,1.453125 -1.3125,1.53125 0,0.109375 0.09375,0.109375 0.109375,0.109375 0.109375,0 0.109375,-0.03125 0.15625,-0.1875 0.25,-0.859375 0.640625,-1.234375 1.015625,-1.234375 0.09375,0 0.25,0.015625 0.25,0.328125 0,0.234375 -0.109375,0.53125 -0.171875,0.671875 -0.375,1 -0.578125,1.609375 -0.578125,2.09375 0,0.953125 0.6875,1.203125 1.21875,1.203125 0.65625,0 1.015625,-0.453125 1.1875,-0.671875 z m 0,0"
   id="id-08f9f9ab-ae7d-4d3c-85db-cf209d2cb3e3"
   style="fill:#0000ff;stroke-width:0" />
      </g>
    </g>
  </defs>
  <g
   fill-opacity="1"
   id="id-84b64ad3-a68d-4f65-9951-9930b4df7d09"
   transform="translate(-149.181,-127.624)"
   style="fill:#0000ff;stroke-width:0">
    <g
   transform="translate(148.712,134.765)"
   id="g7287"
   style="fill:#0000ff;stroke-width:0"><path
   d="m 4.40625,-6.953125 c -0.0625,-0.140625 -0.09375,-0.1875 -0.265625,-0.1875 -0.15625,0 -0.1875,0.046875 -0.25,0.1875 l -3.375,6.75 C 0.46875,-0.109375 0.46875,-0.09375 0.46875,-0.078125 0.46875,0 0.53125,0 0.6875,0 h 6.921875 c 0.15625,0 0.21875,0 0.21875,-0.078125 0,-0.015625 0,-0.03125 -0.046875,-0.125 z m -0.578125,0.8125 2.6875,5.390625 h -5.375 z m 0,0"
   id="id-4c6962ad-0356-4b3a-8c1f-a25d3cf6caef"
   style="fill:#0000ff;stroke-width:0" />
      </g></g>
  <g
   fill-opacity="1"
   id="id-3cb3ddaa-2fd6-42c6-9cec-d7768d249de6"
   transform="translate(-149.181,-127.624)"
   style="fill:#0000ff;stroke-width:0">
    <g
   transform="translate(157.015,134.765)"
   id="g9340"
   style="fill:#0000ff;stroke-width:0"><path
   d="M 3.484375,-0.5625 C 3.59375,-0.15625 3.953125,0.109375 4.375,0.109375 4.71875,0.109375 4.953125,-0.125 5.109375,-0.4375 5.28125,-0.796875 5.40625,-1.40625 5.40625,-1.421875 c 0,-0.109375 -0.078125,-0.109375 -0.109375,-0.109375 -0.109375,0 -0.109375,0.046875 -0.140625,0.1875 -0.140625,0.5625 -0.328125,1.234375 -0.75,1.234375 -0.203125,0 -0.3125,-0.125 -0.3125,-0.453125 0,-0.21875 0.125,-0.6875 0.203125,-1.046875 L 4.578125,-2.6875 C 4.609375,-2.828125 4.703125,-3.203125 4.75,-3.359375 4.796875,-3.59375 4.890625,-3.96875 4.890625,-4.03125 c 0,-0.171875 -0.140625,-0.265625 -0.28125,-0.265625 -0.046875,0 -0.3125,0.015625 -0.390625,0.34375 -0.1875,0.734375 -0.625,2.484375 -0.75,3 -0.015625,0.046875 -0.40625,0.84375 -1.140625,0.84375 -0.515625,0 -0.609375,-0.453125 -0.609375,-0.8125 0,-0.5625 0.28125,-1.34375 0.53125,-2.03125 0.125,-0.3125 0.171875,-0.453125 0.171875,-0.640625 0,-0.4375 -0.3125,-0.8125 -0.8125,-0.8125 -0.953125,0 -1.3125,1.453125 -1.3125,1.53125 0,0.109375 0.09375,0.109375 0.109375,0.109375 0.109375,0 0.109375,-0.03125 0.15625,-0.1875 0.25,-0.859375 0.640625,-1.234375 1.015625,-1.234375 0.09375,0 0.25,0.015625 0.25,0.328125 0,0.234375 -0.109375,0.53125 -0.171875,0.671875 -0.375,1 -0.578125,1.609375 -0.578125,2.09375 0,0.953125 0.6875,1.203125 1.21875,1.203125 0.65625,0 1.015625,-0.453125 1.1875,-0.671875 z m 0,0"
   id="id-1806a1ce-15cd-477a-a0df-f544e148348c"
   style="fill:#0000ff;stroke-width:0" />
      </g></g>
  <g
   fill-opacity="1"
   id="id-fd0ecebb-84b1-4aa7-9ebc-a62468d1b103"
   transform="translate(-149.181,-127.624)"
   style="fill:#0000ff;stroke-width:0">
    <g
   transform="translate(165.485,134.765)"
   id="g2613"
   style="fill:#0000ff;stroke-width:0"><path
   d="m 6.84375,-3.265625 c 0.15625,0 0.34375,0 0.34375,-0.1875 C 7.1875,-3.65625 7,-3.65625 6.859375,-3.65625 h -5.96875 c -0.140625,0 -0.328125,0 -0.328125,0.203125 0,0.1875 0.1875,0.1875 0.328125,0.1875 z m 0.015625,1.9375 c 0.140625,0 0.328125,0 0.328125,-0.203125 0,-0.1875 -0.1875,-0.1875 -0.34375,-0.1875 H 0.890625 c -0.140625,0 -0.328125,0 -0.328125,0.1875 0,0.203125 0.1875,0.203125 0.328125,0.203125 z m 0,0"
   id="id-752d6a8c-b4cc-4478-8ae5-2239d929fd18"
   style="fill:#0000ff;stroke-width:0" />
      </g></g>
  <g
   fill-opacity="1"
   id="id-93fbbe15-d25d-4371-b815-bd5eae86f023"
   transform="translate(-149.181,-127.624)"
   style="fill:#0000ff;stroke-width:0">
    <g
   transform="translate(176.004,134.765)"
   id="g9339"
   style="fill:#0000ff;stroke-width:0"><path
   d="m 4.578125,-3.1875 c 0,-0.796875 -0.046875,-1.59375 -0.390625,-2.328125 -0.453125,-0.96875 -1.28125,-1.125 -1.6875,-1.125 -0.609375,0 -1.328125,0.265625 -1.75,1.1875 -0.3125,0.6875 -0.359375,1.46875 -0.359375,2.265625 0,0.75 0.03125,1.640625 0.453125,2.40625 0.421875,0.796875 1.15625,1 1.640625,1 0.53125,0 1.296875,-0.203125 1.734375,-1.15625 0.3125,-0.6875 0.359375,-1.46875 0.359375,-2.25 z M 2.484375,0 C 2.09375,0 1.5,-0.25 1.328125,-1.203125 1.21875,-1.796875 1.21875,-2.71875 1.21875,-3.3125 c 0,-0.640625 0,-1.296875 0.078125,-1.828125 0.1875,-1.1875 0.9375,-1.28125 1.1875,-1.28125 0.328125,0 0.984375,0.1875 1.171875,1.171875 0.109375,0.5625 0.109375,1.3125 0.109375,1.9375 0,0.75 0,1.421875 -0.109375,2.0625 C 3.5,-0.296875 2.9375,0 2.484375,0 Z m 0,0"
   id="id-39a9dd17-f25b-4deb-ab80-9923975f4706"
   style="fill:#0000ff;stroke-width:0" />
      </g></g>
</g><path
       style="fill:none;stroke:#000000;stroke-width:0.264583px;stroke-linecap:butt;stroke-linejoin:miter;stroke-opacity:1"
       d="m 32.67199,24.99554 12.46428,0 v 1.720519"
       id="path43"
       sodipodi:nodetypes="ccc" /><g
       transform="matrix(0.352778,0,0,0.352778,46.099702,21.485971)"
       ns4:version="1.10.2"
       ns4:texconverter="pdflatex"
       ns4:pdfconverter="inkscape"
       ns4:text="$C_{\\alpha e}$"
       ns4:preamble="C:\Users\zamcr\AppData\Roaming\inkscape\extensions\textext\default_packages.tex"
       ns4:scale="1.0"
       ns4:alignment="middle center"
       ns4:stroke-to-path="0"
       ns4:inkscapeversion="1.3.2"
       id="g1224"
       ns4:jacobian_sqrt="0.352778"><defs
   id="id-d7249d16-9e8b-49ba-bbe7-839d4d3da103">
    <g
   id="id-63577b5a-4c4c-4ca8-b116-17e155c1e8f1">
      <g
   id="id-385f9d2a-4812-468f-b5a3-b0921a7f8d3f">
        <path
   d="m 7.578125,-6.921875 c 0,-0.03125 -0.015625,-0.109375 -0.109375,-0.109375 -0.03125,0 -0.046875,0.015625 -0.15625,0.125 L 6.625,-6.140625 C 6.53125,-6.28125 6.078125,-7.03125 4.96875,-7.03125 2.734375,-7.03125 0.5,-4.828125 0.5,-2.515625 0.5,-0.875 1.671875,0.21875 3.203125,0.21875 c 0.859375,0 1.625,-0.390625 2.15625,-0.859375 0.921875,-0.8125 1.09375,-1.71875 1.09375,-1.75 C 6.453125,-2.5 6.34375,-2.5 6.328125,-2.5 c -0.0625,0 -0.109375,0.03125 -0.125,0.109375 -0.09375,0.28125 -0.328125,1 -1.015625,1.578125 -0.6875,0.546875 -1.3125,0.71875 -1.828125,0.71875 -0.890625,0 -1.953125,-0.515625 -1.953125,-2.0625 0,-0.578125 0.203125,-2.1875 1.203125,-3.359375 0.609375,-0.703125 1.546875,-1.203125 2.4375,-1.203125 1.015625,0 1.609375,0.765625 1.609375,1.921875 0,0.40625 -0.03125,0.40625 -0.03125,0.515625 0,0.09375 0.109375,0.09375 0.140625,0.09375 0.125,0 0.125,-0.015625 0.1875,-0.203125 z m 0,0"
   id="id-8017ef7b-9384-483f-8d4c-4d028e2c6c66" />
      </g>
      <g
   id="id-ea70e340-99bd-49d9-a5df-a36ca572bbc3">
        <path
   d="m 3.8125,-0.984375 c 0.640625,-0.65625 0.890625,-1.59375 0.890625,-1.65625 0,-0.09375 -0.078125,-0.09375 -0.109375,-0.09375 C 4.5,-2.734375 4.5,-2.71875 4.453125,-2.5625 4.328125,-2.109375 4.09375,-1.671875 3.796875,-1.296875 3.796875,-1.40625 3.78125,-1.875 3.765625,-1.9375 3.65625,-2.625 3.140625,-3.078125 2.4375,-3.078125 c -1.015625,0 -2,0.953125 -2,1.9375 0,0.640625 0.46875,1.203125 1.265625,1.203125 0.640625,0 1.21875,-0.28125 1.609375,-0.578125 0.171875,0.5 0.515625,0.578125 0.734375,0.578125 0.40625,0 0.65625,-0.328125 0.65625,-0.484375 C 4.703125,-0.5 4.609375,-0.5 4.578125,-0.5 c -0.09375,0 -0.109375,0.03125 -0.125,0.0625 -0.09375,0.265625 -0.3125,0.3125 -0.390625,0.3125 -0.09375,0 -0.21875,0 -0.25,-0.859375 z M 3.265625,-0.75 C 2.578125,-0.1875 2,-0.125 1.734375,-0.125 c -0.46875,0 -0.71875,-0.3125 -0.71875,-0.78125 0,-0.1875 0.09375,-0.953125 0.453125,-1.4375 C 1.796875,-2.765625 2.1875,-2.875 2.4375,-2.875 c 0.546875,0 0.71875,0.53125 0.765625,0.96875 0.046875,0.296875 0.03125,0.796875 0.0625,1.15625 z m 0,0"
   id="id-51194f5b-f04c-4df1-88e6-83c8a08c5108" />
      </g>
      <g
   id="id-a30d8f9a-353b-46ac-a534-f6e4a26e874d">
        <path
   d="m 1.5625,-1.59375 c 0.1875,0 0.75,-0.015625 1.125,-0.140625 0.515625,-0.1875 0.609375,-0.515625 0.609375,-0.71875 0,-0.390625 -0.390625,-0.625 -0.859375,-0.625 -0.84375,0 -1.96875,0.640625 -1.96875,1.84375 0,0.703125 0.4375,1.296875 1.25,1.296875 1.1875,0 1.734375,-0.6875 1.734375,-0.78125 0,-0.046875 -0.0625,-0.125 -0.125,-0.125 -0.03125,0 -0.046875,0.015625 -0.109375,0.078125 C 2.671875,-0.125 1.859375,-0.125 1.734375,-0.125 1.3125,-0.125 1.03125,-0.40625 1.03125,-0.96875 c 0,-0.09375 0,-0.234375 0.09375,-0.625 z M 1.171875,-1.78125 C 1.46875,-2.796875 2.234375,-2.875 2.4375,-2.875 2.734375,-2.875 3,-2.71875 3,-2.453125 3,-1.78125 1.8125,-1.78125 1.515625,-1.78125 Z m 0,0"
   id="id-8857ac64-3da2-4812-9d3e-b50c913da39b" />
      </g>
    </g>
  </defs>
  <g
   fill="#000000"
   fill-opacity="1"
   id="id-a6c1b616-c79c-40c7-a669-2beca2d58a2e"
   transform="translate(-149.212,-127.734)">
    <g
   transform="translate(148.712,134.765)"
   id="g9197"><path
   d="m 7.578125,-6.921875 c 0,-0.03125 -0.015625,-0.109375 -0.109375,-0.109375 -0.03125,0 -0.046875,0.015625 -0.15625,0.125 L 6.625,-6.140625 C 6.53125,-6.28125 6.078125,-7.03125 4.96875,-7.03125 2.734375,-7.03125 0.5,-4.828125 0.5,-2.515625 0.5,-0.875 1.671875,0.21875 3.203125,0.21875 c 0.859375,0 1.625,-0.390625 2.15625,-0.859375 0.921875,-0.8125 1.09375,-1.71875 1.09375,-1.75 C 6.453125,-2.5 6.34375,-2.5 6.328125,-2.5 c -0.0625,0 -0.109375,0.03125 -0.125,0.109375 -0.09375,0.28125 -0.328125,1 -1.015625,1.578125 -0.6875,0.546875 -1.3125,0.71875 -1.828125,0.71875 -0.890625,0 -1.953125,-0.515625 -1.953125,-2.0625 0,-0.578125 0.203125,-2.1875 1.203125,-3.359375 0.609375,-0.703125 1.546875,-1.203125 2.4375,-1.203125 1.015625,0 1.609375,0.765625 1.609375,1.921875 0,0.40625 -0.03125,0.40625 -0.03125,0.515625 0,0.09375 0.109375,0.09375 0.140625,0.09375 0.125,0 0.125,-0.015625 0.1875,-0.203125 z m 0,0"
   id="id-f79762a0-f68a-4f27-a3a4-ec2554e74da0" />
      </g></g>
  <g
   fill="#000000"
   fill-opacity="1"
   id="id-53fbaad8-0375-4493-8850-1ee40016a91e"
   transform="translate(-149.212,-127.734)">
    <g
   transform="translate(155.833,136.259)"
   id="g9438"><path
   d="m 3.8125,-0.984375 c 0.640625,-0.65625 0.890625,-1.59375 0.890625,-1.65625 0,-0.09375 -0.078125,-0.09375 -0.109375,-0.09375 C 4.5,-2.734375 4.5,-2.71875 4.453125,-2.5625 4.328125,-2.109375 4.09375,-1.671875 3.796875,-1.296875 3.796875,-1.40625 3.78125,-1.875 3.765625,-1.9375 3.65625,-2.625 3.140625,-3.078125 2.4375,-3.078125 c -1.015625,0 -2,0.953125 -2,1.9375 0,0.640625 0.46875,1.203125 1.265625,1.203125 0.640625,0 1.21875,-0.28125 1.609375,-0.578125 0.171875,0.5 0.515625,0.578125 0.734375,0.578125 0.40625,0 0.65625,-0.328125 0.65625,-0.484375 C 4.703125,-0.5 4.609375,-0.5 4.578125,-0.5 c -0.09375,0 -0.109375,0.03125 -0.125,0.0625 -0.09375,0.265625 -0.3125,0.3125 -0.390625,0.3125 -0.09375,0 -0.21875,0 -0.25,-0.859375 z M 3.265625,-0.75 C 2.578125,-0.1875 2,-0.125 1.734375,-0.125 c -0.46875,0 -0.71875,-0.3125 -0.71875,-0.78125 0,-0.1875 0.09375,-0.953125 0.453125,-1.4375 C 1.796875,-2.765625 2.1875,-2.875 2.4375,-2.875 c 0.546875,0 0.71875,0.53125 0.765625,0.96875 0.046875,0.296875 0.03125,0.796875 0.0625,1.15625 z m 0,0"
   id="id-0a076085-5289-4f3d-96a7-565e368c5ab9" />
      </g><g
   transform="translate(161.012,136.259)"
   id="g1868"><path
   d="m 1.5625,-1.59375 c 0.1875,0 0.75,-0.015625 1.125,-0.140625 0.515625,-0.1875 0.609375,-0.515625 0.609375,-0.71875 0,-0.390625 -0.390625,-0.625 -0.859375,-0.625 -0.84375,0 -1.96875,0.640625 -1.96875,1.84375 0,0.703125 0.4375,1.296875 1.25,1.296875 1.1875,0 1.734375,-0.6875 1.734375,-0.78125 0,-0.046875 -0.0625,-0.125 -0.125,-0.125 -0.03125,0 -0.046875,0.015625 -0.109375,0.078125 C 2.671875,-0.125 1.859375,-0.125 1.734375,-0.125 1.3125,-0.125 1.03125,-0.40625 1.03125,-0.96875 c 0,-0.09375 0,-0.234375 0.09375,-0.625 z M 1.171875,-1.78125 C 1.46875,-2.796875 2.234375,-2.875 2.4375,-2.875 2.734375,-2.875 3,-2.71875 3,-2.453125 3,-1.78125 1.8125,-1.78125 1.515625,-1.78125 Z m 0,0"
   id="id-2689e307-7052-405e-b5e8-8992aeba23b6" />
      </g></g>
</g><path
       style="fill:none;stroke:#000000;stroke-width:0.264583px;stroke-linecap:butt;stroke-linejoin:miter;stroke-opacity:1"
       d="m 45.13627,25.855799 1.691164,-1.340347"
       id="path44"
       sodipodi:nodetypes="cc" /><g
       id="g44"
       transform="translate(-3.3827774,-6.1924867)"><rect
         style="fill:#ffffff;stroke:#000000;stroke-width:0.165;stroke-linecap:round;stroke-miterlimit:4.1;stroke-dasharray:none;stroke-dashoffset:0"
         id="rect44"
         width="16.282007"
         height="8.1815834"
         x="38.974792"
         y="9.0229416"
         ry="2.5482177e-07" /><text
         xml:space="preserve"
         style="font-size:2.82889px;line-height:0.95;font-family:'Times New Roman';-inkscape-font-specification:'Times New Roman, ';text-align:center;text-anchor:middle;white-space:pre;inline-size:24.2307;display:inline;fill:#800000;stroke-width:0.264583"
         x="30.597965"
         y="10.045062"
         id="text44"
         transform="translate(16.473248,1.3419159)"><tspan
           x="30.597965"
           y="10.045062"
           id="tspan7">EOP= End of<tspan
   y="10.045062"
   id="tspan8"> </tspan></tspan><tspan
           x="30.597965"
           y="12.732507"
           id="tspan9">Primary<tspan
   y="12.732507"
   id="tspan10"> </tspan></tspan><tspan
           x="30.597965"
           y="15.419953"
           id="tspan11">Consolidation</tspan></text></g></g></svg>
