<?xml version="1.0" encoding="UTF-8" standalone="no"?>
<!-- Created with Inkscape (http://www.inkscape.org/) -->

<svg
   width="2in"
   height="1.2in"
   viewBox="0 0 50.800001 30.480002"
   version="1.1"
   id="svg5"
   inkscape:version="1.1.1 (3bf5ae0d25, 2021-09-20)"
   sodipodi:docname="sameq_difmean.svg"
   xmlns:inkscape="http://www.inkscape.org/namespaces/inkscape"
   xmlns:sodipodi="http://sodipodi.sourceforge.net/DTD/sodipodi-0.dtd"
   xmlns="http://www.w3.org/2000/svg"
   xmlns:svg="http://www.w3.org/2000/svg"
   xmlns:ns1="http://www.iki.fi/pav/software/textext/">
  <sodipodi:namedview
     id="namedview7"
     pagecolor="#505050"
     bordercolor="#ffffff"
     borderopacity="1"
     inkscape:pageshadow="0"
     inkscape:pageopacity="0"
     inkscape:pagecheckerboard="1"
     inkscape:document-units="mm"
     showgrid="false"
     units="in"
     inkscape:snap-page="true"
     inkscape:zoom="4.8176907"
     inkscape:cx="94.858725"
     inkscape:cy="59.675894"
     inkscape:window-width="1920"
     inkscape:window-height="1015"
     inkscape:window-x="1217"
     inkscape:window-y="1347"
     inkscape:window-maximized="1"
     inkscape:current-layer="layer1"
     inkscape:snap-global="true"
     inkscape:snap-intersection-paths="true" />
  <defs
     id="defs2">
    <marker
       style="overflow:visible"
       id="Arrow1Mstart"
       refX="0.0"
       refY="0.0"
       orient="auto"
       inkscape:stockid="Arrow1Mstart"
       inkscape:isstock="true">
      <path
         transform="scale(0.4) translate(10,0)"
         style="fill-rule:evenodd;fill:context-stroke;stroke:context-stroke;stroke-width:1.0pt"
         d="M 0.0,0.0 L 5.0,-5.0 L -12.5,0.0 L 5.0,5.0 L 0.0,0.0 z "
         id="path1070" />
    </marker>
    <marker
       style="overflow:visible;"
       id="Arrow1Mend"
       refX="0.0"
       refY="0.0"
       orient="auto"
       inkscape:stockid="Arrow1Mend"
       inkscape:isstock="true">
      <path
         transform="scale(0.4) rotate(180) translate(10,0)"
         style="fill-rule:evenodd;fill:context-stroke;stroke:context-stroke;stroke-width:1.0pt;"
         d="M 0.0,0.0 L 5.0,-5.0 L -12.5,0.0 L 5.0,5.0 L 0.0,0.0 z "
         id="path1073" />
    </marker>
  </defs>
  <g
     inkscape:label="Layer 1"
     inkscape:groupmode="layer"
     id="layer1">
    <path
       style="fill:none;stroke:#000000;stroke-width:0.264583px;stroke-linecap:butt;stroke-linejoin:miter;stroke-opacity:1;marker-end:url(#Arrow1Mend);marker-start:url(#Arrow1Mstart)"
       d="M 0.71394856,0.65902942 V 29.656325 H 49.537045"
       id="path1062" />
    <g
       transform="matrix(0.352778,0,0,0.352778,1.91398,0.8306522)"
       ns1:version="1.1.0"
       ns1:texconverter="pdflatex"
       ns1:pdfconverter="inkscape"
       ns1:text="$q$"
       ns1:preamble="C:\\Users\\zamcr\\AppData\\Roaming\\inkscape\\extensions\\textext\\default_packages.tex"
       ns1:scale="1.0"
       ns1:alignment="middle center"
       ns1:inkscapeversion="1.1.1"
       ns1:jacobian_sqrt="0.352778"
       id="g1456">
      <defs
         id="id-a09c7051-beca-48cd-b90b-caec7c6b1cbe">
        <g
           id="id-31490af3-ac4b-4244-a58b-c44dc4030103">
          <symbol
             overflow="visible"
             id="id-2549b4f1-9d03-4d21-b17a-e31277e33612">
            <path
               style="stroke:none"
               d=""
               id="id-df0152a6-ffac-4ef5-bc41-9b0bcb3f3d81" />
          </symbol>
          <symbol
             overflow="visible"
             id="id-879dfe51-56f7-4f6f-aa36-44aab519303f">
            <path
               style="stroke:none"
               d="m 4.5,-4.296875 c 0,-0.046875 -0.03125,-0.09375 -0.09375,-0.09375 -0.109375,0 -0.515625,0.390625 -0.671875,0.6875 C 3.515625,-4.25 3.125,-4.40625 2.796875,-4.40625 c -1.171875,0 -2.390625,1.46875 -2.390625,2.921875 0,0.96875 0.578125,1.59375 1.3125,1.59375 0.421875,0 0.8125,-0.234375 1.171875,-0.59375 -0.09375,0.34375 -0.421875,1.6875 -0.453125,1.78125 -0.078125,0.28125 -0.15625,0.3125 -0.71875,0.328125 -0.125,0 -0.21875,0 -0.21875,0.203125 0,0 0,0.109375 0.125,0.109375 0.3125,0 0.671875,-0.03125 1,-0.03125 0.328125,0 0.6875,0.03125 1.03125,0.03125 0.046875,0 0.171875,0 0.171875,-0.203125 C 3.828125,1.625 3.734375,1.625 3.5625,1.625 3.09375,1.625 3.09375,1.5625 3.09375,1.46875 3.09375,1.390625 3.109375,1.328125 3.125,1.25 Z m -2.75,4.1875 c -0.609375,0 -0.640625,-0.765625 -0.640625,-0.9375 0,-0.484375 0.28125,-1.5625 0.453125,-1.984375 0.3125,-0.734375 0.828125,-1.15625 1.234375,-1.15625 0.65625,0 0.796875,0.8125 0.796875,0.875 0,0.0625 -0.546875,2.25 -0.578125,2.28125 C 2.859375,-0.75 2.296875,-0.109375 1.75,-0.109375 Z m 0,0"
               id="id-204acd58-b011-486e-8ea2-b30fdb34736a" />
          </symbol>
        </g>
      </defs>
      <g
         id="id-6eee329e-1e7c-4aaa-be48-9fc1cafb61d3"
         transform="translate(-149.118,-130.359)">
        <g
           style="fill:#000000;fill-opacity:1"
           id="id-cacc60c2-b85e-4ea8-8acd-fe4c39edfe3b">
          <g
             transform="translate(148.712,134.765)"
             id="g1452">
            <path
               style="stroke:none"
               d="m 4.5,-4.296875 c 0,-0.046875 -0.03125,-0.09375 -0.09375,-0.09375 -0.109375,0 -0.515625,0.390625 -0.671875,0.6875 C 3.515625,-4.25 3.125,-4.40625 2.796875,-4.40625 c -1.171875,0 -2.390625,1.46875 -2.390625,2.921875 0,0.96875 0.578125,1.59375 1.3125,1.59375 0.421875,0 0.8125,-0.234375 1.171875,-0.59375 -0.09375,0.34375 -0.421875,1.6875 -0.453125,1.78125 -0.078125,0.28125 -0.15625,0.3125 -0.71875,0.328125 -0.125,0 -0.21875,0 -0.21875,0.203125 0,0 0,0.109375 0.125,0.109375 0.3125,0 0.671875,-0.03125 1,-0.03125 0.328125,0 0.6875,0.03125 1.03125,0.03125 0.046875,0 0.171875,0 0.171875,-0.203125 C 3.828125,1.625 3.734375,1.625 3.5625,1.625 3.09375,1.625 3.09375,1.5625 3.09375,1.46875 3.09375,1.390625 3.109375,1.328125 3.125,1.25 Z m -2.75,4.1875 c -0.609375,0 -0.640625,-0.765625 -0.640625,-0.9375 0,-0.484375 0.28125,-1.5625 0.453125,-1.984375 0.3125,-0.734375 0.828125,-1.15625 1.234375,-1.15625 0.65625,0 0.796875,0.8125 0.796875,0.875 0,0.0625 -0.546875,2.25 -0.578125,2.28125 C 2.859375,-0.75 2.296875,-0.109375 1.75,-0.109375 Z m 0,0"
               id="id-8a30e028-f18f-4271-a2f9-202aec9ddeac" />
          </g>
        </g>
      </g>
    </g>
    <g
       transform="matrix(0.352778,0,0,0.352778,46.963226,26.361024)"
       ns1:version="1.1.0"
       ns1:texconverter="pdflatex"
       ns1:pdfconverter="inkscape"
       ns1:text="$\\varepsilon_a$"
       ns1:preamble="C:\\Users\\zamcr\\AppData\\Roaming\\inkscape\\extensions\\textext\\default_packages.tex"
       ns1:scale="1.0"
       ns1:alignment="middle center"
       ns1:inkscapeversion="1.1.1"
       ns1:jacobian_sqrt="0.352778"
       id="g1546">
      <defs
         id="id-1739bb4b-4155-4300-888f-f4697122fac6">
        <g
           id="id-b72a19a3-04a8-45ce-bb12-b773f81dab6c">
          <symbol
             overflow="visible"
             id="id-e0afc445-dd83-421d-951f-b87bda01451a">
            <path
               style="stroke:none"
               d=""
               id="id-79c79c9a-e767-49b0-80c3-b28f4eb83fd9" />
          </symbol>
          <symbol
             overflow="visible"
             id="id-aa6f8671-bab9-4284-b4b4-d1347cdcd83d">
            <path
               style="stroke:none"
               d="M 1.40625,-2.265625 C 1.734375,-2.125 2.03125,-2.125 2.265625,-2.125 c 0.25,0 0.8125,0 0.8125,-0.3125 0,-0.234375 -0.359375,-0.265625 -0.734375,-0.265625 -0.203125,0 -0.5625,0.015625 -0.921875,0.1875 C 1.1875,-2.625 1.015625,-2.828125 1.015625,-3.09375 c 0,-0.609375 0.984375,-0.96875 1.875,-0.96875 0.15625,0 0.515625,0 0.921875,0.28125 0.109375,0.078125 0.125,0.109375 0.1875,0.109375 0.140625,0 0.28125,-0.140625 0.28125,-0.28125 0,-0.1875 -0.609375,-0.5625 -1.296875,-0.5625 -1.140625,0 -2.21875,0.671875 -2.21875,1.421875 0,0.4375 0.359375,0.6875 0.40625,0.71875 -0.59375,0.328125 -0.90625,0.875 -0.90625,1.34375 0,0.640625 0.5625,1.25 1.625,1.25 1.3125,0 1.875,-0.875 1.875,-1.03125 0,-0.0625 -0.0625,-0.09375 -0.109375,-0.09375 -0.0625,0 -0.09375,0.03125 -0.109375,0.0625 -0.140625,0.234375 -0.375,0.609375 -1.578125,0.609375 -0.609375,0 -1.453125,-0.15625 -1.453125,-0.859375 0,-0.34375 0.28125,-0.875 0.890625,-1.171875 z m 0.328125,-0.125 c 0.234375,-0.078125 0.4375,-0.09375 0.609375,-0.09375 0.25,0 0.28125,0.015625 0.46875,0.0625 -0.15625,0.0625 -0.171875,0.078125 -0.546875,0.078125 -0.21875,0 -0.34375,0 -0.53125,-0.046875 z m 0,0"
               id="id-87c6f3c1-0e4d-4d65-87f6-f8e6e2568885" />
          </symbol>
          <symbol
             overflow="visible"
             id="id-d29c0fa1-fab0-49e8-8de7-868ae5509723">
            <path
               style="stroke:none"
               d=""
               id="id-b4e90b4c-74ee-40c9-9efe-c9b0de94a53e" />
          </symbol>
          <symbol
             overflow="visible"
             id="id-0d3f2b7f-9198-4293-8b38-cb5ca9e81ffd">
            <path
               style="stroke:none"
               d="m 2.9375,-2.65625 c -0.140625,-0.234375 -0.375,-0.421875 -0.71875,-0.421875 -0.890625,0 -1.796875,0.984375 -1.796875,1.984375 0,0.6875 0.453125,1.15625 1.0625,1.15625 0.375,0 0.703125,-0.203125 0.984375,-0.484375 C 2.59375,0 3,0.0625 3.1875,0.0625 c 0.25,0 0.421875,-0.140625 0.546875,-0.359375 0.15625,-0.28125 0.25,-0.671875 0.25,-0.703125 0,-0.09375 -0.09375,-0.09375 -0.109375,-0.09375 -0.109375,0 -0.109375,0.03125 -0.15625,0.21875 C 3.625,-0.53125 3.5,-0.125 3.203125,-0.125 3.03125,-0.125 2.96875,-0.28125 2.96875,-0.46875 c 0,-0.109375 0.0625,-0.375 0.109375,-0.546875 0.046875,-0.1875 0.125,-0.46875 0.15625,-0.625 L 3.375,-2.171875 C 3.421875,-2.359375 3.5,-2.6875 3.5,-2.71875 3.5,-2.875 3.375,-2.9375 3.265625,-2.9375 c -0.125,0 -0.28125,0.078125 -0.328125,0.28125 z M 2.5,-0.875 C 2.453125,-0.671875 2.296875,-0.53125 2.140625,-0.40625 2.078125,-0.34375 1.796875,-0.125 1.5,-0.125 c -0.265625,0 -0.515625,-0.1875 -0.515625,-0.671875 0,-0.375 0.203125,-1.140625 0.375,-1.421875 0.3125,-0.5625 0.671875,-0.65625 0.859375,-0.65625 0.484375,0 0.625,0.53125 0.625,0.609375 0,0.015625 -0.015625,0.078125 -0.015625,0.09375 z m 0,0"
               id="id-700821ae-2f56-40f9-a0c7-4b0434c6a1b5" />
          </symbol>
        </g>
      </defs>
      <g
         id="id-1d72e0b3-1ef7-43f1-ab89-5d4dd25be47d"
         transform="translate(-148.978,-130.249)">
        <g
           style="fill:#000000;fill-opacity:1"
           id="id-9db43159-c38c-4389-ac78-a5e35ebb35c3">
          <g
             transform="translate(148.712,134.765)"
             id="g1538">
            <path
               style="stroke:none"
               d="M 1.40625,-2.265625 C 1.734375,-2.125 2.03125,-2.125 2.265625,-2.125 c 0.25,0 0.8125,0 0.8125,-0.3125 0,-0.234375 -0.359375,-0.265625 -0.734375,-0.265625 -0.203125,0 -0.5625,0.015625 -0.921875,0.1875 C 1.1875,-2.625 1.015625,-2.828125 1.015625,-3.09375 c 0,-0.609375 0.984375,-0.96875 1.875,-0.96875 0.15625,0 0.515625,0 0.921875,0.28125 0.109375,0.078125 0.125,0.109375 0.1875,0.109375 0.140625,0 0.28125,-0.140625 0.28125,-0.28125 0,-0.1875 -0.609375,-0.5625 -1.296875,-0.5625 -1.140625,0 -2.21875,0.671875 -2.21875,1.421875 0,0.4375 0.359375,0.6875 0.40625,0.71875 -0.59375,0.328125 -0.90625,0.875 -0.90625,1.34375 0,0.640625 0.5625,1.25 1.625,1.25 1.3125,0 1.875,-0.875 1.875,-1.03125 0,-0.0625 -0.0625,-0.09375 -0.109375,-0.09375 -0.0625,0 -0.09375,0.03125 -0.109375,0.0625 -0.140625,0.234375 -0.375,0.609375 -1.578125,0.609375 -0.609375,0 -1.453125,-0.15625 -1.453125,-0.859375 0,-0.34375 0.28125,-0.875 0.890625,-1.171875 z m 0.328125,-0.125 c 0.234375,-0.078125 0.4375,-0.09375 0.609375,-0.09375 0.25,0 0.28125,0.015625 0.46875,0.0625 -0.15625,0.0625 -0.171875,0.078125 -0.546875,0.078125 -0.21875,0 -0.34375,0 -0.53125,-0.046875 z m 0,0"
               id="id-00f5600a-3e87-4cb3-8d81-e9960b2a59f7" />
          </g>
        </g>
        <g
           style="fill:#000000;fill-opacity:1"
           id="id-77ee5382-1142-4f1e-9fa6-325a07b65d57">
          <g
             transform="translate(153.358,136.259)"
             id="g1542">
            <path
               style="stroke:none"
               d="m 2.9375,-2.65625 c -0.140625,-0.234375 -0.375,-0.421875 -0.71875,-0.421875 -0.890625,0 -1.796875,0.984375 -1.796875,1.984375 0,0.6875 0.453125,1.15625 1.0625,1.15625 0.375,0 0.703125,-0.203125 0.984375,-0.484375 C 2.59375,0 3,0.0625 3.1875,0.0625 c 0.25,0 0.421875,-0.140625 0.546875,-0.359375 0.15625,-0.28125 0.25,-0.671875 0.25,-0.703125 0,-0.09375 -0.09375,-0.09375 -0.109375,-0.09375 -0.109375,0 -0.109375,0.03125 -0.15625,0.21875 C 3.625,-0.53125 3.5,-0.125 3.203125,-0.125 3.03125,-0.125 2.96875,-0.28125 2.96875,-0.46875 c 0,-0.109375 0.0625,-0.375 0.109375,-0.546875 0.046875,-0.1875 0.125,-0.46875 0.15625,-0.625 L 3.375,-2.171875 C 3.421875,-2.359375 3.5,-2.6875 3.5,-2.71875 3.5,-2.875 3.375,-2.9375 3.265625,-2.9375 c -0.125,0 -0.28125,0.078125 -0.328125,0.28125 z M 2.5,-0.875 C 2.453125,-0.671875 2.296875,-0.53125 2.140625,-0.40625 2.078125,-0.34375 1.796875,-0.125 1.5,-0.125 c -0.265625,0 -0.515625,-0.1875 -0.515625,-0.671875 0,-0.375 0.203125,-1.140625 0.375,-1.421875 0.3125,-0.5625 0.671875,-0.65625 0.859375,-0.65625 0.484375,0 0.625,0.53125 0.625,0.609375 0,0.015625 -0.015625,0.078125 -0.015625,0.09375 z m 0,0"
               id="id-59b0edaa-15df-4d80-8a3c-c1227cd9e77e" />
          </g>
        </g>
      </g>
    </g>
    <g
       id="g5437"
       transform="translate(7.4140812,-0.49427208)">
      <text
         xml:space="preserve"
         style="font-size:3.52777px;line-height:0.95;font-family:'Times New Roman';-inkscape-font-specification:'Times New Roman, ';text-align:center;text-anchor:middle;white-space:pre;inline-size:27.2031;stroke-width:0.264583"
         x="27.953833"
         y="3.8443384"
         id="text2094"><tspan
           x="27.953833"
           y="3.8443384"
           id="tspan10369">All test conducted<tspan
   y="3.8443384"
   id="tspan10371"> </tspan></tspan><tspan
           x="27.953833"
           y="7.1957198"
           id="tspan10373">at same<tspan
   y="7.1957198"
   id="tspan10375"> </tspan></tspan></text>
      <g
         transform="matrix(0.352778,0,0,0.352778,33.794675,4.6132009)"
         ns1:version="1.1.0"
         ns1:texconverter="pdflatex"
         ns1:pdfconverter="inkscape"
         ns1:text="$p'_0$"
         ns1:preamble="C:\\Users\\zamcr\\AppData\\Roaming\\inkscape\\extensions\\textext\\default_packages.tex"
         ns1:scale="1.0"
         ns1:alignment="middle center"
         ns1:inkscapeversion="1.1.1"
         ns1:jacobian_sqrt="0.352778"
         id="g2903">
        <defs
           id="id-e9371179-bc94-4619-9605-a91066bb77c2">
          <g
             id="id-f97712ec-24d8-4e5b-aa6b-fc3af1d3e1e1">
            <symbol
               overflow="visible"
               id="id-b85ee4a8-8434-459d-9190-2fb2faa56e99">
              <path
                 style="stroke:none"
                 d=""
                 id="id-d0983765-60d3-4993-bda9-ed9f10e35a9c" />
            </symbol>
            <symbol
               overflow="visible"
               id="id-e0ecc054-b01c-4c6e-89ec-f67cb0d5f4c8">
              <path
                 style="stroke:none"
                 d="M 0.453125,1.21875 C 0.375,1.5625 0.34375,1.625 -0.09375,1.625 c -0.109375,0 -0.21875,0 -0.21875,0.1875 0,0.078125 0.046875,0.125 0.125,0.125 0.265625,0 0.5625,-0.03125 0.828125,-0.03125 0.34375,0 0.671875,0.03125 1,0.03125 0.046875,0 0.171875,0 0.171875,-0.203125 C 1.8125,1.625 1.71875,1.625 1.578125,1.625 c -0.5,0 -0.5,-0.0625 -0.5,-0.15625 0,-0.125 0.421875,-1.75 0.484375,-2 0.125,0.296875 0.40625,0.640625 0.921875,0.640625 1.15625,0 2.40625,-1.453125 2.40625,-2.921875 0,-0.9375 -0.578125,-1.59375 -1.328125,-1.59375 -0.5,0 -0.984375,0.359375 -1.3125,0.75 -0.09375,-0.546875 -0.53125,-0.75 -0.890625,-0.75 -0.46875,0 -0.65625,0.390625 -0.734375,0.5625 C 0.4375,-3.5 0.3125,-2.90625 0.3125,-2.875 c 0,0.109375 0.09375,0.109375 0.109375,0.109375 0.109375,0 0.109375,-0.015625 0.171875,-0.234375 0.171875,-0.703125 0.375,-1.1875 0.734375,-1.1875 0.171875,0 0.3125,0.078125 0.3125,0.453125 0,0.234375 -0.03125,0.34375 -0.078125,0.515625 z m 1.75,-4.328125 C 2.265625,-3.375 2.546875,-3.65625 2.71875,-3.8125 c 0.359375,-0.296875 0.640625,-0.375 0.8125,-0.375 0.390625,0 0.640625,0.34375 0.640625,0.9375 0,0.59375 -0.328125,1.734375 -0.515625,2.109375 -0.34375,0.703125 -0.8125,1.03125 -1.1875,1.03125 C 1.8125,-0.109375 1.6875,-0.9375 1.6875,-1 c 0,-0.015625 0,-0.03125 0.03125,-0.15625 z m 0,0"
                 id="id-5f22b2c4-4100-4658-8866-c2cbe23987dd" />
            </symbol>
            <symbol
               overflow="visible"
               id="id-d8d361ea-bf99-4c17-bc44-3c9ba2d9f599">
              <path
                 style="stroke:none"
                 d=""
                 id="id-f5116e8f-75ab-4775-a3be-86a822627fe0" />
            </symbol>
            <symbol
               overflow="visible"
               id="id-c5ff4a38-ef74-4601-abed-bf34efef8029">
              <path
                 style="stroke:none"
                 d="m 2.015625,-3.296875 c 0.0625,-0.109375 0.0625,-0.171875 0.0625,-0.21875 0,-0.21875 -0.1875,-0.375 -0.40625,-0.375 -0.265625,0 -0.34375,0.21875 -0.375,0.328125 L 0.375,-0.546875 c -0.015625,0.015625 -0.046875,0.09375 -0.046875,0.109375 0,0.078125 0.21875,0.15625 0.28125,0.15625 0.046875,0 0.046875,-0.015625 0.09375,-0.125 z m 0,0"
                 id="id-25bd229f-6b5f-44e2-8d19-3b61cea088ea" />
            </symbol>
            <symbol
               overflow="visible"
               id="id-38cee634-d597-41bc-a891-c9e42eaa533e">
              <path
                 style="stroke:none"
                 d=""
                 id="id-fbae1389-7460-4e28-8536-677cbf26b0c7" />
            </symbol>
            <symbol
               overflow="visible"
               id="id-b3d56a12-8273-49d4-a787-c4b9b57eeca9">
              <path
                 style="stroke:none"
                 d="M 3.59375,-2.21875 C 3.59375,-2.984375 3.5,-3.546875 3.1875,-4.03125 2.96875,-4.34375 2.53125,-4.625 1.984375,-4.625 c -1.625,0 -1.625,1.90625 -1.625,2.40625 0,0.5 0,2.359375 1.625,2.359375 1.609375,0 1.609375,-1.859375 1.609375,-2.359375 z M 1.984375,-0.0625 c -0.328125,0 -0.75,-0.1875 -0.890625,-0.75 C 1,-1.21875 1,-1.796875 1,-2.3125 1,-2.828125 1,-3.359375 1.09375,-3.734375 1.25,-4.28125 1.6875,-4.4375 1.984375,-4.4375 c 0.375,0 0.734375,0.234375 0.859375,0.640625 0.109375,0.375 0.125,0.875 0.125,1.484375 0,0.515625 0,1.03125 -0.09375,1.46875 -0.140625,0.640625 -0.609375,0.78125 -0.890625,0.78125 z m 0,0"
                 id="id-e577920a-18cb-43c0-b651-feacaec097a2" />
            </symbol>
          </g>
        </defs>
        <g
           id="id-42b8c66c-8bd3-4317-aa57-d512ba4dcdc2"
           transform="translate(-148.4,-127.258)">
          <g
             style="fill:#000000;fill-opacity:1"
             id="id-11d13461-f87a-412f-952e-9426e26a6bea">
            <g
               transform="translate(148.712,134.765)"
               id="g2891">
              <path
                 style="stroke:none"
                 d="M 0.453125,1.21875 C 0.375,1.5625 0.34375,1.625 -0.09375,1.625 c -0.109375,0 -0.21875,0 -0.21875,0.1875 0,0.078125 0.046875,0.125 0.125,0.125 0.265625,0 0.5625,-0.03125 0.828125,-0.03125 0.34375,0 0.671875,0.03125 1,0.03125 0.046875,0 0.171875,0 0.171875,-0.203125 C 1.8125,1.625 1.71875,1.625 1.578125,1.625 c -0.5,0 -0.5,-0.0625 -0.5,-0.15625 0,-0.125 0.421875,-1.75 0.484375,-2 0.125,0.296875 0.40625,0.640625 0.921875,0.640625 1.15625,0 2.40625,-1.453125 2.40625,-2.921875 0,-0.9375 -0.578125,-1.59375 -1.328125,-1.59375 -0.5,0 -0.984375,0.359375 -1.3125,0.75 -0.09375,-0.546875 -0.53125,-0.75 -0.890625,-0.75 -0.46875,0 -0.65625,0.390625 -0.734375,0.5625 C 0.4375,-3.5 0.3125,-2.90625 0.3125,-2.875 c 0,0.109375 0.09375,0.109375 0.109375,0.109375 0.109375,0 0.109375,-0.015625 0.171875,-0.234375 0.171875,-0.703125 0.375,-1.1875 0.734375,-1.1875 0.171875,0 0.3125,0.078125 0.3125,0.453125 0,0.234375 -0.03125,0.34375 -0.078125,0.515625 z m 1.75,-4.328125 C 2.265625,-3.375 2.546875,-3.65625 2.71875,-3.8125 c 0.359375,-0.296875 0.640625,-0.375 0.8125,-0.375 0.390625,0 0.640625,0.34375 0.640625,0.9375 0,0.59375 -0.328125,1.734375 -0.515625,2.109375 -0.34375,0.703125 -0.8125,1.03125 -1.1875,1.03125 C 1.8125,-0.109375 1.6875,-0.9375 1.6875,-1 c 0,-0.015625 0,-0.03125 0.03125,-0.15625 z m 0,0"
                 id="id-d791b392-db65-42c1-bb87-d8ad152532f7" />
            </g>
          </g>
          <g
             style="fill:#000000;fill-opacity:1"
             id="id-e11b7e61-ffde-4bbb-a407-60177dc9c5fd">
            <g
               transform="translate(153.725,131.149)"
               id="g2895">
              <path
                 style="stroke:none"
                 d="m 2.015625,-3.296875 c 0.0625,-0.109375 0.0625,-0.171875 0.0625,-0.21875 0,-0.21875 -0.1875,-0.375 -0.40625,-0.375 -0.265625,0 -0.34375,0.21875 -0.375,0.328125 L 0.375,-0.546875 c -0.015625,0.015625 -0.046875,0.09375 -0.046875,0.109375 0,0.078125 0.21875,0.15625 0.28125,0.15625 0.046875,0 0.046875,-0.015625 0.09375,-0.125 z m 0,0"
                 id="id-bbbef710-bc05-49b4-abaa-142d33fa49e1" />
            </g>
          </g>
          <g
             style="fill:#000000;fill-opacity:1"
             id="id-07aa4920-e143-4d0f-b27b-01835e2fcfce">
            <g
               transform="translate(153.725,137.237)"
               id="g2899">
              <path
                 style="stroke:none"
                 d="M 3.59375,-2.21875 C 3.59375,-2.984375 3.5,-3.546875 3.1875,-4.03125 2.96875,-4.34375 2.53125,-4.625 1.984375,-4.625 c -1.625,0 -1.625,1.90625 -1.625,2.40625 0,0.5 0,2.359375 1.625,2.359375 1.609375,0 1.609375,-1.859375 1.609375,-2.359375 z M 1.984375,-0.0625 c -0.328125,0 -0.75,-0.1875 -0.890625,-0.75 C 1,-1.21875 1,-1.796875 1,-2.3125 1,-2.828125 1,-3.359375 1.09375,-3.734375 1.25,-4.28125 1.6875,-4.4375 1.984375,-4.4375 c 0.375,0 0.734375,0.234375 0.859375,0.640625 0.109375,0.375 0.125,0.875 0.125,1.484375 0,0.515625 0,1.03125 -0.09375,1.46875 -0.140625,0.640625 -0.609375,0.78125 -0.890625,0.78125 z m 0,0"
                 id="id-f9097b21-6810-43dc-8489-fd99f8340daf" />
            </g>
          </g>
        </g>
      </g>
    </g>
    <path
       style="fill:none;stroke:#ff0000;stroke-width:0.264583px;stroke-linecap:butt;stroke-linejoin:miter;stroke-opacity:1"
       d="M 0.71394856,29.656325 C 2.1098019,6.1525102 3.1638183,0.4796878 20.45937,10.189523 c 5.697878,3.198826 13.649761,2.972078 27.430102,3.595176"
       id="path5546"
       sodipodi:nodetypes="csc" />
    <path
       style="fill:none;stroke:#0000ff;stroke-width:0.264583px;stroke-linecap:butt;stroke-linejoin:miter;stroke-opacity:1"
       d="M 0.71394856,29.656325 C 3.9417254,7.2926428 9.2045454,14.227364 47.889472,13.784699"
       id="path6026"
       sodipodi:nodetypes="cc" />
    <path
       style="fill:none;stroke:#aa0044;stroke-width:0.264583px;stroke-linecap:butt;stroke-linejoin:miter;stroke-opacity:1"
       d="M 0.71394856,29.656325 C 2.1098019,6.1525102 6.5659313,4.9757895 20.404451,11.562501 c 6.09866,2.902775 13.70468,1.5991 27.485021,2.222198"
       id="path6283"
       sodipodi:nodetypes="csc" />
    <path
       style="fill:none;stroke:#6600ff;stroke-width:0.264583px;stroke-linecap:butt;stroke-linejoin:miter;stroke-opacity:1"
       d="M 0.71394856,29.656325 C 2.1098019,6.1525102 7.6699873,9.9934209 22.711054,12.935479 c 1.924807,0.376495 11.398077,0.226122 25.178418,0.84922"
       id="path6498"
       sodipodi:nodetypes="csc" />
    <g
       transform="matrix(0.352778,0,0,0.352778,13.450473,24.22458)"
       ns1:version="1.1.0"
       ns1:texconverter="pdflatex"
       ns1:pdfconverter="inkscape"
       ns1:text="$\\downarrow e$"
       ns1:preamble="C:\\Users\\zamcr\\AppData\\Roaming\\inkscape\\extensions\\textext\\default_packages.tex"
       ns1:scale="1.0"
       ns1:alignment="middle center"
       ns1:inkscapeversion="1.1.1"
       ns1:jacobian_sqrt="0.352778"
       id="g7107">
      <defs
         id="id-520cdfa4-5556-4a5f-8b76-7def90642c49">
        <g
           id="id-f74b8859-e0cf-4305-bdfc-661cc650e1f9">
          <symbol
             overflow="visible"
             id="id-ec2388fc-1507-40a6-a38a-907e75a48797">
            <path
               style="stroke:none"
               d=""
               id="id-0da53e0a-f252-4811-8565-448c2086a2d0" />
          </symbol>
          <symbol
             overflow="visible"
             id="id-b7911ddf-b016-4cb0-b6bf-768d6f786233">
            <path
               style="stroke:none"
               d="m 2.6875,-6.5625 c 0,-0.171875 0,-0.359375 -0.1875,-0.359375 -0.203125,0 -0.203125,0.1875 -0.203125,0.359375 v 7.109375 c -0.25,-0.375 -0.515625,-0.65625 -0.765625,-0.84375 -0.609375,-0.453125 -1.21875,-0.5625 -1.234375,-0.5625 -0.125,0 -0.125,0.109375 -0.125,0.1875 0,0.15625 0,0.171875 0.234375,0.25 C 1.078125,-0.234375 1.46875,0.125 1.6875,0.375 2.203125,0.921875 2.328125,1.515625 2.375,1.828125 2.390625,1.875 2.421875,1.921875 2.5,1.921875 c 0.078125,0 0.09375,-0.0625 0.109375,-0.15625 0.21875,-1.125 0.9375,-1.90625 2.03125,-2.21875 C 4.796875,-0.5 4.8125,-0.5 4.8125,-0.671875 c 0,-0.078125 0,-0.1875 -0.125,-0.1875 -0.015625,0 -0.609375,0.109375 -1.171875,0.515625 C 3.1875,-0.09375 2.90625,0.203125 2.6875,0.546875 Z m 0,0"
               id="id-ed169e34-838d-431b-abab-d73d8e87e58a" />
          </symbol>
          <symbol
             overflow="visible"
             id="id-8f90468c-aa04-4eb2-b5cd-edcc4efa3307">
            <path
               style="stroke:none"
               d=""
               id="id-bd50d6eb-37a5-4083-8962-3e77f1320747" />
          </symbol>
          <symbol
             overflow="visible"
             id="id-ee9cf42f-0360-4510-a9ff-2230051ada19">
            <path
               style="stroke:none"
               d="m 1.859375,-2.296875 c 0.296875,0 1.03125,-0.03125 1.53125,-0.234375 0.703125,-0.296875 0.75,-0.890625 0.75,-1.03125 0,-0.4375 -0.375,-0.84375 -1.0625,-0.84375 -1.109375,0 -2.625,0.96875 -2.625,2.71875 0,1.015625 0.59375,1.796875 1.578125,1.796875 1.421875,0 2.25,-1.0625 2.25,-1.171875 0,-0.0625 -0.046875,-0.140625 -0.109375,-0.140625 -0.0625,0 -0.078125,0.03125 -0.140625,0.109375 -0.78125,0.984375 -1.875,0.984375 -1.984375,0.984375 -0.78125,0 -0.875,-0.84375 -0.875,-1.15625 0,-0.125 0.015625,-0.421875 0.15625,-1.03125 z m -0.46875,-0.21875 C 1.78125,-4.03125 2.8125,-4.1875 3.078125,-4.1875 c 0.453125,0 0.734375,0.296875 0.734375,0.625 0,1.046875 -1.59375,1.046875 -2.015625,1.046875 z m 0,0"
               id="id-1dd5cc12-1677-458b-97f6-0a9b480becce" />
          </symbol>
        </g>
      </defs>
      <g
         id="id-d2279762-95d1-4f98-9744-0f65a3524192"
         transform="translate(-148.884,-127.843)">
        <g
           style="fill:#000000;fill-opacity:1"
           id="id-b761a5eb-67e9-40a4-97bb-0b6cc8e3bf1d">
          <g
             transform="translate(148.712,134.765)"
             id="g7099">
            <path
               style="stroke:none"
               d="m 2.6875,-6.5625 c 0,-0.171875 0,-0.359375 -0.1875,-0.359375 -0.203125,0 -0.203125,0.1875 -0.203125,0.359375 v 7.109375 c -0.25,-0.375 -0.515625,-0.65625 -0.765625,-0.84375 -0.609375,-0.453125 -1.21875,-0.5625 -1.234375,-0.5625 -0.125,0 -0.125,0.109375 -0.125,0.1875 0,0.15625 0,0.171875 0.234375,0.25 C 1.078125,-0.234375 1.46875,0.125 1.6875,0.375 2.203125,0.921875 2.328125,1.515625 2.375,1.828125 2.390625,1.875 2.421875,1.921875 2.5,1.921875 c 0.078125,0 0.09375,-0.0625 0.109375,-0.15625 0.21875,-1.125 0.9375,-1.90625 2.03125,-2.21875 C 4.796875,-0.5 4.8125,-0.5 4.8125,-0.671875 c 0,-0.078125 0,-0.1875 -0.125,-0.1875 -0.015625,0 -0.609375,0.109375 -1.171875,0.515625 C 3.1875,-0.09375 2.90625,0.203125 2.6875,0.546875 Z m 0,0"
               id="id-0714b8ee-7122-4a36-9ef3-b6f8e901e400" />
          </g>
        </g>
        <g
           style="fill:#000000;fill-opacity:1"
           id="id-9488a72b-df23-4850-ad7a-7435d4f586d2">
          <g
             transform="translate(156.461,134.765)"
             id="g7103">
            <path
               style="stroke:none"
               d="m 1.859375,-2.296875 c 0.296875,0 1.03125,-0.03125 1.53125,-0.234375 0.703125,-0.296875 0.75,-0.890625 0.75,-1.03125 0,-0.4375 -0.375,-0.84375 -1.0625,-0.84375 -1.109375,0 -2.625,0.96875 -2.625,2.71875 0,1.015625 0.59375,1.796875 1.578125,1.796875 1.421875,0 2.25,-1.0625 2.25,-1.171875 0,-0.0625 -0.046875,-0.140625 -0.109375,-0.140625 -0.0625,0 -0.078125,0.03125 -0.140625,0.109375 -0.78125,0.984375 -1.875,0.984375 -1.984375,0.984375 -0.78125,0 -0.875,-0.84375 -0.875,-1.15625 0,-0.125 0.015625,-0.421875 0.15625,-1.03125 z m -0.46875,-0.21875 C 1.78125,-4.03125 2.8125,-4.1875 3.078125,-4.1875 c 0.453125,0 0.734375,0.296875 0.734375,0.625 0,1.046875 -1.59375,1.046875 -2.015625,1.046875 z m 0,0"
               id="id-40996dba-0134-47b7-9100-d5c7aa95d1a8" />
          </g>
        </g>
      </g>
    </g>
    <path
       style="fill:none;stroke:#000000;stroke-width:0.264583px;stroke-linecap:butt;stroke-linejoin:miter;stroke-opacity:1;marker-end:url(#Arrow1Mend)"
       d="M 8.787059,16.970008 V 3.7345"
       id="path7184" />
    <text
       xml:space="preserve"
       style="font-size:3.52777px;line-height:0.95;font-family:'Times New Roman';-inkscape-font-specification:'Times New Roman, ';text-align:center;text-anchor:middle;white-space:pre;inline-size:17.198;stroke-width:0.264583"
       x="11.313338"
       y="19.221691"
       id="text8082"
       transform="translate(4.5582869,0.71394856)"><tspan
         x="11.313338"
         y="19.221691"
         id="tspan10377">Increasing<tspan
   y="19.221691"
   id="tspan10379"> </tspan></tspan><tspan
         x="11.313338"
         y="22.573072"
         id="tspan10381">density</tspan></text>
    <path
       style="fill:none;stroke:#4d4d4d;stroke-width:0.26458299;stroke-linecap:butt;stroke-linejoin:miter;stroke-opacity:1;stroke-miterlimit:4;stroke-dasharray:0.79374896, 0.26458299;stroke-dashoffset:0"
       d="M 47.889472,13.784699 H 0.71394856"
       id="path9775" />
    <g
       transform="matrix(0.352778,0,0,0.352778,44.150993,14.560462)"
       ns1:version="1.1.0"
       ns1:texconverter="pdflatex"
       ns1:pdfconverter="inkscape"
       ns1:text="$q_c$"
       ns1:preamble="C:\\Users\\zamcr\\AppData\\Roaming\\inkscape\\extensions\\textext\\default_packages.tex"
       ns1:scale="1.0"
       ns1:alignment="middle center"
       ns1:inkscapeversion="1.1.1"
       ns1:jacobian_sqrt="0.352778"
       id="g10207">
      <defs
         id="id-cbffcb2a-f0dc-42d1-831c-254fd6854e72">
        <g
           id="id-160fa317-f5d1-4508-8314-74e8f2778b93">
          <symbol
             overflow="visible"
             id="id-79a0ce44-6359-40f1-8576-ba9017478ef8">
            <path
               style="stroke:none"
               d=""
               id="id-5a5dfb5e-fc8a-45a3-9414-143b4d44962f" />
          </symbol>
          <symbol
             overflow="visible"
             id="id-d9fcfa73-4637-4d85-a383-ab20c6966ea2">
            <path
               style="stroke:none"
               d="m 4.5,-4.296875 c 0,-0.046875 -0.03125,-0.09375 -0.09375,-0.09375 -0.109375,0 -0.515625,0.390625 -0.671875,0.6875 C 3.515625,-4.25 3.125,-4.40625 2.796875,-4.40625 c -1.171875,0 -2.390625,1.46875 -2.390625,2.921875 0,0.96875 0.578125,1.59375 1.3125,1.59375 0.421875,0 0.8125,-0.234375 1.171875,-0.59375 -0.09375,0.34375 -0.421875,1.6875 -0.453125,1.78125 -0.078125,0.28125 -0.15625,0.3125 -0.71875,0.328125 -0.125,0 -0.21875,0 -0.21875,0.203125 0,0 0,0.109375 0.125,0.109375 0.3125,0 0.671875,-0.03125 1,-0.03125 0.328125,0 0.6875,0.03125 1.03125,0.03125 0.046875,0 0.171875,0 0.171875,-0.203125 C 3.828125,1.625 3.734375,1.625 3.5625,1.625 3.09375,1.625 3.09375,1.5625 3.09375,1.46875 3.09375,1.390625 3.109375,1.328125 3.125,1.25 Z m -2.75,4.1875 c -0.609375,0 -0.640625,-0.765625 -0.640625,-0.9375 0,-0.484375 0.28125,-1.5625 0.453125,-1.984375 0.3125,-0.734375 0.828125,-1.15625 1.234375,-1.15625 0.65625,0 0.796875,0.8125 0.796875,0.875 0,0.0625 -0.546875,2.25 -0.578125,2.28125 C 2.859375,-0.75 2.296875,-0.109375 1.75,-0.109375 Z m 0,0"
               id="id-67a88f12-efc8-4e4a-8243-ddbdb6ad463b" />
          </symbol>
          <symbol
             overflow="visible"
             id="id-0b2d521f-aaeb-4d41-a777-ff25a7f8d5cb">
            <path
               style="stroke:none"
               d=""
               id="id-22edab3f-244d-4da9-bdf3-6967a058b149" />
          </symbol>
          <symbol
             overflow="visible"
             id="id-f44e66f0-a75e-45ab-a219-0a6385b53c2b">
            <path
               style="stroke:none"
               d="m 3.046875,-2.671875 c -0.25,0.046875 -0.34375,0.234375 -0.34375,0.390625 0,0.1875 0.140625,0.265625 0.265625,0.265625 0.15625,0 0.390625,-0.109375 0.390625,-0.453125 0,-0.46875 -0.53125,-0.609375 -0.90625,-0.609375 -1.046875,0 -2.015625,0.96875 -2.015625,1.9375 0,0.59375 0.40625,1.203125 1.28125,1.203125 1.1875,0 1.734375,-0.6875 1.734375,-0.78125 0,-0.046875 -0.0625,-0.125 -0.125,-0.125 -0.03125,0 -0.046875,0.015625 -0.109375,0.078125 C 2.671875,-0.125 1.859375,-0.125 1.734375,-0.125 c -0.5,0 -0.71875,-0.34375 -0.71875,-0.78125 0,-0.1875 0.09375,-0.953125 0.453125,-1.4375 0.265625,-0.34375 0.625,-0.53125 0.984375,-0.53125 0.09375,0 0.421875,0.015625 0.59375,0.203125 z m 0,0"
               id="id-a3b74d47-5ea0-4f78-8b16-df657892cd71" />
          </symbol>
        </g>
      </defs>
      <g
         id="id-2c3e956f-3894-4327-b091-0bd6a4e7e9e0"
         transform="translate(-149.118,-130.359)">
        <g
           style="fill:#000000;fill-opacity:1"
           id="id-2a796344-7a59-49a2-88f9-2c6d175d5659">
          <g
             transform="translate(148.712,134.765)"
             id="g10199">
            <path
               style="stroke:none"
               d="m 4.5,-4.296875 c 0,-0.046875 -0.03125,-0.09375 -0.09375,-0.09375 -0.109375,0 -0.515625,0.390625 -0.671875,0.6875 C 3.515625,-4.25 3.125,-4.40625 2.796875,-4.40625 c -1.171875,0 -2.390625,1.46875 -2.390625,2.921875 0,0.96875 0.578125,1.59375 1.3125,1.59375 0.421875,0 0.8125,-0.234375 1.171875,-0.59375 -0.09375,0.34375 -0.421875,1.6875 -0.453125,1.78125 -0.078125,0.28125 -0.15625,0.3125 -0.71875,0.328125 -0.125,0 -0.21875,0 -0.21875,0.203125 0,0 0,0.109375 0.125,0.109375 0.3125,0 0.671875,-0.03125 1,-0.03125 0.328125,0 0.6875,0.03125 1.03125,0.03125 0.046875,0 0.171875,0 0.171875,-0.203125 C 3.828125,1.625 3.734375,1.625 3.5625,1.625 3.09375,1.625 3.09375,1.5625 3.09375,1.46875 3.09375,1.390625 3.109375,1.328125 3.125,1.25 Z m -2.75,4.1875 c -0.609375,0 -0.640625,-0.765625 -0.640625,-0.9375 0,-0.484375 0.28125,-1.5625 0.453125,-1.984375 0.3125,-0.734375 0.828125,-1.15625 1.234375,-1.15625 0.65625,0 0.796875,0.8125 0.796875,0.875 0,0.0625 -0.546875,2.25 -0.578125,2.28125 C 2.859375,-0.75 2.296875,-0.109375 1.75,-0.109375 Z m 0,0"
               id="id-5ff19b9a-2900-476a-aa93-9f8ce6ba132c" />
          </g>
        </g>
        <g
           style="fill:#000000;fill-opacity:1"
           id="id-81f0bbb7-64fd-4f13-8eae-ff340edf14a4">
          <g
             transform="translate(153.16,136.259)"
             id="g10203">
            <path
               style="stroke:none"
               d="m 3.046875,-2.671875 c -0.25,0.046875 -0.34375,0.234375 -0.34375,0.390625 0,0.1875 0.140625,0.265625 0.265625,0.265625 0.15625,0 0.390625,-0.109375 0.390625,-0.453125 0,-0.46875 -0.53125,-0.609375 -0.90625,-0.609375 -1.046875,0 -2.015625,0.96875 -2.015625,1.9375 0,0.59375 0.40625,1.203125 1.28125,1.203125 1.1875,0 1.734375,-0.6875 1.734375,-0.78125 0,-0.046875 -0.0625,-0.125 -0.125,-0.125 -0.03125,0 -0.046875,0.015625 -0.109375,0.078125 C 2.671875,-0.125 1.859375,-0.125 1.734375,-0.125 c -0.5,0 -0.71875,-0.34375 -0.71875,-0.78125 0,-0.1875 0.09375,-0.953125 0.453125,-1.4375 0.265625,-0.34375 0.625,-0.53125 0.984375,-0.53125 0.09375,0 0.421875,0.015625 0.59375,0.203125 z m 0,0"
               id="id-7097c7c1-4df7-403e-b707-aa0bfad0444f" />
          </g>
        </g>
      </g>
    </g>
  </g>
</svg>
