<?xml version="1.0" encoding="UTF-8" standalone="no"?>
<!-- Created with Inkscape (http://www.inkscape.org/) -->

<svg
   width="181.77933mm"
   height="250.09219mm"
   viewBox="0 0 181.77933 250.09219"
   version="1.1"
   id="svg5"
   inkscape:version="1.1.1 (3bf5ae0d25, 2021-09-20)"
   sodipodi:docname="crest_logo.svg"
   xmlns:inkscape="http://www.inkscape.org/namespaces/inkscape"
   xmlns:sodipodi="http://sodipodi.sourceforge.net/DTD/sodipodi-0.dtd"
   xmlns="http://www.w3.org/2000/svg"
   xmlns:svg="http://www.w3.org/2000/svg">
  <sodipodi:namedview
     id="namedview7"
     pagecolor="#505050"
     bordercolor="#ffffff"
     borderopacity="1"
     inkscape:pageshadow="0"
     inkscape:pageopacity="0"
     inkscape:pagecheckerboard="1"
     inkscape:document-units="mm"
     showgrid="false"
     inkscape:zoom="0.81134749"
     inkscape:cx="731.49915"
     inkscape:cy="445.55508"
     inkscape:window-width="2400"
     inkscape:window-height="1280"
     inkscape:window-x="2391"
     inkscape:window-y="-9"
     inkscape:window-maximized="1"
     inkscape:current-layer="layer1" />
  <defs
     id="defs2" />
  <g
     inkscape:label="Layer 1"
     inkscape:groupmode="layer"
     id="layer1"
     transform="translate(374.28548,-119.502)">
    <path
       style="fill:#2f97d2;stroke-width:1"
       d="m -283.01482,369.48719 c 0.1397,-0.0514 0.4064,-0.21681 0.59267,-0.36763 0.33578,-0.2719 0.33592,-0.27099 0.0161,0.10676 -0.17742,0.20955 -0.44412,0.37499 -0.59267,0.36764 -0.22924,-0.0113 -0.23167,-0.0275 -0.0161,-0.10677 z m -1.45542,-0.76887 -0.32258,-0.381 0.381,0.32258 c 0.35805,0.30314 0.45809,0.43942 0.32258,0.43942 -0.0321,0 -0.20358,-0.17145 -0.381,-0.381 z m 3.48742,-1.22767 c 0.31594,-0.32596 0.61254,-0.59266 0.6591,-0.59266 0.0466,0 -0.17383,0.2667 -0.48976,0.59266 -0.31594,0.32597 -0.61254,0.59267 -0.65911,0.59267 -0.0466,0 0.17383,-0.2667 0.48977,-0.59267 z m -7.28368,-2.75166 -2.28365,-2.32834 2.32833,2.28365 c 1.28059,1.25601 2.32834,2.30376 2.32834,2.32833 0,0.12141 -0.25166,-0.12077 -2.37302,-2.28364 z m 12.61768,-2.58234 c 0.36377,-0.37253 0.6995,-0.67733 0.74607,-0.67733 0.0466,0 -0.21297,0.3048 -0.57673,0.67733 -0.36377,0.37254 -0.6995,0.67734 -0.74607,0.67734 -0.0466,0 0.21296,-0.3048 0.57673,-0.67734 z m -16.69215,-1.31233 -0.41051,-0.46567 0.46566,0.41052 c 0.25612,0.22579 0.46567,0.43534 0.46567,0.46567 0,0.1328 -0.13713,0.0247 -0.52082,-0.41052 z m 18.72415,-0.55033 c 0.16857,-0.18627 0.34459,-0.33867 0.39116,-0.33867 0.0466,0 -0.0533,0.1524 -0.22182,0.33867 -0.16857,0.18626 -0.34459,0.33866 -0.39116,0.33866 -0.0466,0 0.0532,-0.1524 0.22182,-0.33866 z m -20.33608,-0.889 -0.32258,-0.381 0.381,0.32258 c 0.20955,0.17741 0.381,0.34886 0.381,0.381 0,0.1355 -0.13628,0.0355 -0.43942,-0.32258 z m 21.60608,-0.19094 c 0,-0.0352 0.13335,-0.16851 0.29634,-0.29634 0.26857,-0.21061 0.27456,-0.20464 0.0639,0.0639 -0.22121,0.28206 -0.36027,0.37177 -0.36027,0.2324 z m -22.8816,-0.90973 c -0.21063,-0.26858 -0.20464,-0.27456 0.0639,-0.0639 0.16299,0.12783 0.29634,0.26118 0.29634,0.29633 0,0.13938 -0.13906,0.0497 -0.36027,-0.23239 z m -1.18533,-1.016 c -0.21063,-0.26858 -0.20464,-0.27456 0.0639,-0.0639 0.28207,0.22122 0.37177,0.36027 0.2324,0.36027 -0.0352,0 -0.16851,-0.13335 -0.29633,-0.29633 z m -77.38867,-42.5878 c 0.0701,-0.0701 13.61086,-0.10821 30.09054,-0.0847 l 29.96306,0.0428 -30.09053,0.0847 c -16.5498,0.0466 -30.03318,0.0273 -29.96307,-0.0428 z m 90.08518,1.6e-4 c 0.07,-0.07 20.62116,-0.10811 45.66919,-0.0847 l 45.54189,0.0426 -45.66919,0.0847 c -25.11807,0.0466 -45.61192,0.0274 -45.54189,-0.0426 z m -90.06024,-77.25802 v -69.85 h 59.93536 59.93535 l -0.26062,0.635 c -0.14335,0.34925 -0.73553,1.6256 -1.31596,2.83634 -6.04118,12.60142 -17.31857,25.64964 -31.21714,36.11901 -9.74952,7.34402 -20.18563,12.87735 -25.70734,13.63029 l -1.42565,0.1944 v 43.14248 43.14248 h -29.972 -29.972 z m 17.13479,63.39183 c 8.10272,-5.6099 11.9922,-8.51747 16.16292,-12.0826 2.63585,-2.25311 6.99909,-6.57611 9.31583,-9.2299 2.47647,-2.83676 7.17908,-8.63663 8.40082,-10.36098 1.92689,-2.7196 3.06802,-5.35705 3.50298,-8.09635 0.11681,-0.73568 0.17355,-15.16666 0.17111,-43.51867 l -0.004,-42.41799 -0.98675,2.39371 c -5.07707,12.31628 -15.21638,24.50536 -27.8148,33.43784 -4.53906,3.21826 -9.42206,5.68984 -11.95784,6.05256 l -0.80207,0.11473 -0.0427,43.22024 c -0.0235,23.77114 -0.009,43.22024 0.0321,43.22024 0.0411,0 1.85103,-1.22978 4.02199,-2.73283 z m 85.92163,2.35183 c 4.45304,-4.49747 10.36674,-10.93207 12.48892,-13.589 2.87229,-3.59603 4.32702,-6.43451 5.30909,-10.35909 0.26917,-1.07567 0.29274,-4.97575 0.34096,-56.40057 l 0.0518,-55.245 h 29.96975 29.96973 v 69.85 69.85 h -41.098 -41.098 z m 26.87709,-2.02348 c 4.81778,-3.31627 9.56884,-6.73071 12.05248,-8.66177 4.8046,-3.73558 9.68667,-8.25651 13.37591,-12.38641 1.99304,-2.23112 7.02805,-8.36958 8.61138,-10.49867 1.40567,-1.89015 3.03127,-5.12145 3.53533,-7.02733 l 0.38067,-1.43933 0.0345,-43.01067 c 0.0201,-25.04857 -0.0281,-42.86923 -0.11535,-42.672 -0.0824,0.18627 -0.54097,1.28567 -1.01903,2.44311 -5.16031,12.49371 -16.50918,25.73864 -29.22171,34.10378 -4.20267,2.76545 -7.73208,4.49337 -10.05966,4.92495 l -1.10066,0.20409 -0.0427,43.1277 c -0.0304,30.69208 0.01,43.1277 0.13952,43.1277 0.10019,0 1.64338,-1.00582 3.42932,-2.23515 z M -329.03115,160.523 c 24.93645,-0.0236 65.74155,-0.0236 90.678,0 24.93645,0.0236 4.5339,0.043 -45.339,0.043 -49.8729,0 -70.27545,-0.0193 -45.339,-0.043 z m 45.06706,-5.02337 c -0.0506,-0.13183 -0.0673,-0.45568 -0.037,-0.71966 0.0515,-0.44949 0.10611,-0.48096 0.86038,-0.49558 l 0.80543,-0.0156 -0.77993,0.0679 -0.77993,0.0679 0.0636,0.66737 c 0.0664,0.69609 0.0235,0.83442 -0.13258,0.42767 z m 48.5453,-0.0284 c 0.008,-0.19726 0.0483,-0.23739 0.10231,-0.1023 0.0489,0.12223 0.0429,0.26829 -0.0134,0.32455 -0.0563,0.0563 -0.0963,-0.0437 -0.0889,-0.22225 z m -130.49983,-0.57856 c 0.0142,-0.55713 0.0507,-0.59399 0.60781,-0.61476 0.5733,-0.0214 0.575,-0.0197 0.052,0.0523 -0.46107,0.0635 -0.55059,0.15402 -0.60781,0.61476 -0.0645,0.51902 -0.0665,0.51695 -0.052,-0.0523 z m 3.95214,0.5516 c 0.67522,-0.0321 1.78012,-0.0321 2.45533,0 0.67522,0.0321 0.12277,0.0584 -1.22766,0.0584 -1.35044,0 -1.90289,-0.0263 -1.22767,-0.0584 z m 29.54866,-3.3e-4 c 0.81492,-0.031 2.14842,-0.031 2.96334,0 0.81492,0.031 0.14816,0.0564 -1.48167,0.0564 -1.62983,0 -2.29658,-0.0254 -1.48167,-0.0564 z m 15.32467,0.007 c 0.20955,-0.0404 0.55245,-0.0404 0.762,0 0.20955,0.0404 0.0381,0.0734 -0.381,0.0734 -0.4191,0 -0.59055,-0.033 -0.381,-0.0734 z m 4.74133,0 c 0.20955,-0.0404 0.55245,-0.0404 0.762,0 0.20955,0.0404 0.0381,0.0734 -0.381,0.0734 -0.4191,0 -0.59055,-0.033 -0.381,-0.0734 z m 13.63134,-0.002 c 0.25611,-0.0388 0.67521,-0.0388 0.93133,0 0.25612,0.0388 0.0466,0.0705 -0.46567,0.0705 -0.51223,0 -0.72178,-0.0318 -0.46566,-0.0705 z m 6.09832,-1.7e-4 c 0.2574,-0.0389 0.6384,-0.0379 0.84667,0.002 0.20827,0.0402 -0.002,0.072 -0.46799,0.0708 -0.46567,-0.001 -0.63607,-0.0342 -0.37868,-0.0731 z m 13.88301,-0.004 c 0.62865,-0.0326 1.65735,-0.0326 2.286,0 0.62865,0.0326 0.1143,0.0592 -1.143,0.0592 -1.2573,0 -1.77165,-0.0267 -1.143,-0.0592 z m 13.23519,-0.55182 c 0.0145,-0.56622 0.0435,-0.59346 0.65161,-0.61042 0.62897,-0.0175 0.62958,-0.0169 0.052,0.052 -0.51186,0.0611 -0.59283,0.13692 -0.65161,0.61042 -0.0646,0.52007 -0.0665,0.51809 -0.052,-0.052 z m 5.05792,0.55265 c 0.44519,-0.035 1.13099,-0.0346 1.524,10e-4 0.393,0.0355 0.0288,0.0641 -0.80945,0.0636 -0.8382,-5e-4 -1.15975,-0.0296 -0.71455,-0.0646 z m 44.27555,-0.002 c 1.14089,-0.0293 3.00779,-0.0293 4.14867,0 1.14088,0.0293 0.20743,0.0533 -2.07433,0.0533 -2.28177,0 -3.21522,-0.024 -2.07434,-0.0533 z m -22.24108,-0.7625 -0.32258,-0.381 0.381,0.32257 c 0.35804,0.30315 0.45808,0.43943 0.32258,0.43943 -0.0321,0 -0.20359,-0.17145 -0.381,-0.381 z m -117.71058,-0.41784 c 0.2574,-0.0389 0.63839,-0.0379 0.84666,0.002 0.20827,0.0402 -0.002,0.072 -0.46799,0.0708 -0.46567,-0.001 -0.63607,-0.0342 -0.37867,-0.0731 z m 18.53967,0.009 c 0.11641,-0.047 0.30691,-0.047 0.42333,0 0.11642,0.047 0.0212,0.0854 -0.21166,0.0854 -0.23284,0 -0.32809,-0.0384 -0.21167,-0.0854 z m 12.27667,-0.005 c 0.16298,-0.0426 0.42968,-0.0426 0.59266,0 0.16299,0.0426 0.0296,0.0774 -0.29633,0.0774 -0.32597,0 -0.45932,-0.0349 -0.29633,-0.0774 z m 15.41255,-6.7e-4 c 0.16476,-0.0429 0.39336,-0.0401 0.508,0.006 0.11464,0.0464 -0.0202,0.0815 -0.29956,0.0781 -0.2794,-0.004 -0.3732,-0.0414 -0.20844,-0.0843 z m 8.46667,0 c 0.16475,-0.0429 0.39335,-0.0401 0.508,0.006 0.11464,0.0464 -0.0202,0.0815 -0.29956,0.0781 -0.2794,-0.004 -0.3732,-0.0414 -0.20844,-0.0843 z m 11.77602,0.002 c 0.12224,-0.0489 0.26829,-0.0429 0.32456,0.0134 0.0563,0.0563 -0.0437,0.0963 -0.22225,0.0889 -0.19727,-0.008 -0.23739,-0.0483 -0.10231,-0.10231 z m 17.68708,-0.006 c 0.2574,-0.0389 0.6384,-0.0379 0.84667,0.002 0.20827,0.0402 -0.002,0.072 -0.468,0.0708 -0.46566,-10e-4 -0.63607,-0.0342 -0.37867,-0.0731 z m 16.59234,1.7e-4 c 0.25611,-0.0388 0.67521,-0.0388 0.93133,0 0.25612,0.0388 0.0466,0.0705 -0.46567,0.0705 -0.51223,0 -0.72178,-0.0317 -0.46566,-0.0705 z m 30.31298,-1.7e-4 c 0.25741,-0.0389 0.63841,-0.0379 0.84667,0.002 0.20828,0.0402 -0.002,0.072 -0.46799,0.0708 -0.46566,-10e-4 -0.63606,-0.0342 -0.37868,-0.0731 z m -87.61158,-0.68285 c -0.21063,-0.26857 -0.20464,-0.27456 0.0639,-0.0639 0.16298,0.12782 0.29633,0.26117 0.29633,0.29633 0,0.13937 -0.13905,0.0497 -0.36026,-0.2324 z m 54.69466,-0.16933 c -0.21062,-0.26858 -0.20463,-0.27457 0.0639,-0.0639 0.28206,0.22121 0.37177,0.36026 0.2324,0.36026 -0.0352,0 -0.16851,-0.13335 -0.29634,-0.29633 z m 44.52452,0.18066 c 0.12224,-0.0489 0.26829,-0.0429 0.32456,0.0134 0.0563,0.0563 -0.0438,0.0963 -0.22225,0.0889 -0.19727,-0.008 -0.23739,-0.0482 -0.10231,-0.10231 z m 5.06942,0.004 c 0.11641,-0.047 0.30691,-0.047 0.42333,0 0.11642,0.047 0.0212,0.0854 -0.21167,0.0854 -0.23283,0 -0.32808,-0.0384 -0.21166,-0.0854 z m -107.90767,-0.39583 c 0.16857,-0.18627 0.34459,-0.33867 0.39116,-0.33867 0.0466,0 -0.0533,0.1524 -0.22182,0.33867 -0.16857,0.18627 -0.34459,0.33867 -0.39116,0.33867 -0.0466,0 0.0533,-0.1524 0.22182,-0.33867 z m 76.44118,-0.127 -0.41051,-0.46567 0.46566,0.41052 c 0.25612,0.22579 0.46567,0.43534 0.46567,0.46567 0,0.1328 -0.13713,0.0247 -0.52082,-0.41052 z m 4.32589,-10.37167 c 0,-5.91396 0.0212,-8.33331 0.0472,-5.37633 0.0259,2.95698 0.0259,7.79568 0,10.75267 -0.0259,2.95698 -0.0472,0.53763 -0.0472,-5.37634 z m -63.05837,10.23056 c 0.008,-0.19727 0.0482,-0.23739 0.10231,-0.10231 0.0489,0.12224 0.0429,0.26829 -0.0134,0.32456 -0.0563,0.0563 -0.0963,-0.0437 -0.0889,-0.22225 z m 82.93836,-0.19756 c -0.21062,-0.26857 -0.20464,-0.27456 0.0639,-0.0639 0.28206,0.22122 0.37177,0.36027 0.23239,0.36027 -0.0351,0 -0.1685,-0.13335 -0.29633,-0.29633 z m -64.65036,-0.47977 c 0.008,-0.19727 0.0483,-0.23739 0.10231,-0.10231 0.0489,0.12224 0.0429,0.26829 -0.0134,0.32456 -0.0563,0.0563 -0.0963,-0.0437 -0.0889,-0.22225 z m -48.09066,-0.16934 c 0.008,-0.19726 0.0483,-0.23738 0.1023,-0.1023 0.0489,0.12223 0.0429,0.26828 -0.0134,0.32455 -0.0563,0.0563 -0.0963,-0.0437 -0.089,-0.22225 z m -30.78591,-0.57855 c 0,-0.4191 0.033,-0.59055 0.0734,-0.381 0.0404,0.20955 0.0404,0.55245 0,0.762 -0.0404,0.20955 -0.0734,0.0381 -0.0734,-0.381 z m 84.53128,-10.83734 c 0,-6.37963 0.0211,-8.98948 0.0468,-5.79966 0.0258,3.18981 0.0258,8.40951 0,11.59933 -0.0258,3.18982 -0.0468,0.57997 -0.0468,-5.79967 z m 33.26577,10.71034 -0.41051,-0.46567 0.46566,0.41052 c 0.25612,0.22578 0.46567,0.43533 0.46567,0.46566 0,0.13281 -0.13713,0.0247 -0.52082,-0.41051 z m -120.20047,-0.98778 c 0.008,-0.19726 0.0482,-0.23739 0.1023,-0.10231 0.0489,0.12224 0.0429,0.26829 -0.0134,0.32456 -0.0563,0.0563 -0.0963,-0.0438 -0.0889,-0.22225 z m 33.03336,-0.23989 c 0,-0.23283 0.0384,-0.32808 0.0854,-0.21167 0.047,0.11642 0.047,0.30692 0,0.42334 -0.047,0.11641 -0.0854,0.0212 -0.0854,-0.21167 z m 67.3813,0.0706 c 0.008,-0.19726 0.0483,-0.23739 0.1023,-0.10231 0.0489,0.12224 0.0429,0.26829 -0.0134,0.32456 -0.0563,0.0563 -0.0963,-0.0438 -0.0889,-0.22225 z m 18.34321,-0.45156 -0.32258,-0.38099 0.381,0.32257 c 0.35804,0.30315 0.45808,0.43943 0.32258,0.43943 -0.0321,0 -0.20359,-0.17146 -0.381,-0.38101 z m -116.2045,-0.80433 c 0,-0.23284 0.0384,-0.32809 0.0854,-0.21167 0.047,0.11642 0.047,0.30692 0,0.42333 -0.047,0.11642 -0.0854,0.0212 -0.0854,-0.21166 z m -2.38404,-0.0988 c 0.008,-0.19726 0.0482,-0.23739 0.10231,-0.10231 0.0489,0.12224 0.0429,0.26829 -0.0134,0.32456 -0.0563,0.0563 -0.0963,-0.0437 -0.0889,-0.22225 z m 27.1067,-0.0706 c 0,-0.23283 0.0384,-0.32808 0.0854,-0.21167 0.047,0.11642 0.047,0.30692 0,0.42334 -0.047,0.11641 -0.0854,0.0212 -0.0854,-0.21167 z m 5.588,-0.67733 c 0,-0.23284 0.0384,-0.32809 0.0854,-0.21167 0.047,0.11642 0.047,0.30692 0,0.42333 -0.047,0.11642 -0.0854,0.0212 -0.0854,-0.21166 z m 84.36984,-0.0423 -0.32258,-0.381 0.381,0.32258 c 0.35804,0.30314 0.45808,0.43942 0.32258,0.43942 -0.0321,0 -0.20359,-0.17145 -0.381,-0.381 z m -116.89521,-0.73378 c 0.008,-0.19726 0.0482,-0.23739 0.10231,-0.10231 0.0489,0.12224 0.0429,0.26829 -0.0134,0.32456 -0.0563,0.0563 -0.0963,-0.0438 -0.0889,-0.22225 z m 2.38404,-0.57856 c 0,-0.23283 0.0384,-0.32808 0.0854,-0.21166 0.047,0.11641 0.047,0.30691 0,0.42333 -0.047,0.11642 -0.0854,0.0212 -0.0854,-0.21167 z m 113.07511,-0.29633 -0.41052,-0.46567 0.46567,0.41052 c 0.25611,0.22579 0.46566,0.43534 0.46566,0.46567 0,0.1328 -0.13712,0.0247 -0.52081,-0.41052 z m -88.69111,-0.21167 c 0,-0.23283 0.0384,-0.32808 0.0854,-0.21166 0.047,0.11641 0.047,0.30691 0,0.42333 -0.047,0.11642 -0.0854,0.0212 -0.0854,-0.21167 z m 5.588,-0.16933 c 0,-0.23283 0.0384,-0.32808 0.0854,-0.21167 0.047,0.11642 0.047,0.30692 0,0.42334 -0.047,0.11641 -0.0854,0.0212 -0.0854,-0.21167 z m 89.61917,-0.55033 -0.32258,-0.381 0.381,0.32258 c 0.35804,0.30314 0.45808,0.43942 0.32258,0.43942 -0.0321,0 -0.20359,-0.17145 -0.381,-0.381 z m -7.95867,-0.67734 -0.32258,-0.381 0.381,0.32258 c 0.35804,0.30315 0.45808,0.43942 0.32258,0.43942 -0.0321,0 -0.20359,-0.17145 -0.381,-0.381 z m -111.47653,-0.22577 c 0.008,-0.19727 0.0482,-0.23739 0.1023,-0.10231 0.0489,0.12224 0.0429,0.26829 -0.0134,0.32456 -0.0563,0.0563 -0.0963,-0.0438 -0.0889,-0.22225 z m -2.20134,-0.508 c 0.008,-0.19727 0.0483,-0.23739 0.10231,-0.10231 0.0489,0.12224 0.0429,0.26829 -0.0134,0.32456 -0.0563,0.0563 -0.0963,-0.0437 -0.0889,-0.22225 z m 120.28187,-0.11289 -0.32258,-0.381 0.381,0.32258 c 0.35804,0.30314 0.45808,0.43942 0.32258,0.43942 -0.0321,0 -0.20359,-0.17145 -0.381,-0.381 z m -88.4472,-0.0564 c 0.008,-0.19727 0.0482,-0.23739 0.1023,-0.10231 0.0489,0.12224 0.0429,0.26829 -0.0134,0.32456 -0.0563,0.0563 -0.0963,-0.0437 -0.0889,-0.22225 z m -5.57464,-0.23989 c 0,-0.23284 0.0384,-0.32809 0.0854,-0.21167 0.047,0.11642 0.047,0.30692 0,0.42333 -0.047,0.11642 -0.0854,0.0212 -0.0854,-0.21166 z m 85.89384,-0.55034 -0.32258,-0.381 0.381,0.32258 c 0.35804,0.30315 0.45808,0.43942 0.32258,0.43942 -0.0321,0 -0.20359,-0.17145 -0.381,-0.381 z m -111.98454,-0.56444 c 0.008,-0.19727 0.0482,-0.23739 0.10231,-0.10231 0.0489,0.12224 0.0429,0.26829 -0.0134,0.32456 -0.0563,0.0563 -0.0963,-0.0437 -0.0889,-0.22225 z m 118.83702,-0.0282 c -0.21061,-0.26858 -0.20464,-0.27457 0.0639,-0.0639 0.28206,0.22121 0.37178,0.36026 0.2324,0.36026 -0.0352,0 -0.16851,-0.13335 -0.29634,-0.29633 z m -116.63568,-0.14112 c 0.008,-0.19726 0.0482,-0.23739 0.1023,-0.1023 0.0489,0.12223 0.0429,0.26828 -0.0134,0.32455 -0.0563,0.0563 -0.0963,-0.0437 -0.0889,-0.22225 z m 50.65963,0.14166 c 1.09431,-0.0295 2.88501,-0.0295 3.97933,0 1.09432,0.0295 0.19897,0.0536 -1.98967,0.0536 -2.18863,0 -3.08398,-0.0241 -1.98966,-0.0536 z m 101.28754,-2.49821 c 0,-1.49014 0.0261,-2.07707 0.0576,-1.3043 0.0314,0.77278 0.0313,1.99198 0,2.70934 -0.0317,0.71736 -0.0574,0.0851 -0.0572,-1.40504 z m -122.65251,1.84855 c 0.008,-0.19726 0.0482,-0.23739 0.10231,-0.1023 0.0489,0.12223 0.0429,0.26828 -0.0134,0.32455 -0.0563,0.0563 -0.0963,-0.0438 -0.0889,-0.22225 z m 120.36102,-0.19755 c -0.21061,-0.26858 -0.20464,-0.27456 0.0639,-0.0639 0.16299,0.12782 0.29634,0.26117 0.29634,0.29633 0,0.13937 -0.13906,0.0497 -0.36028,-0.2324 z m -41.39648,-0.254 -0.32258,-0.381 0.381,0.32258 c 0.35804,0.30314 0.45808,0.43942 0.32258,0.43942 -0.0321,0 -0.20359,-0.17145 -0.381,-0.381 z m -84.53289,-0.381 c 0.003,-0.2794 0.0414,-0.3732 0.0843,-0.20845 0.0429,0.16476 0.0401,0.39336 -0.006,0.508 -0.0464,0.11465 -0.0815,-0.0202 -0.0781,-0.29955 z m 91.64489,0.0423 -0.32258,-0.381 0.381,0.32258 c 0.35804,0.30314 0.45808,0.43942 0.32258,0.43942 -0.0321,0 -0.20359,-0.17145 -0.381,-0.381 z m -117.4032,-0.0564 c 0.008,-0.19727 0.0482,-0.23739 0.1023,-0.10231 0.0489,0.12224 0.0429,0.26829 -0.0134,0.32456 -0.0563,0.0563 -0.0963,-0.0437 -0.0889,-0.22225 z m 150.15354,-0.0169 c 0.12224,-0.0489 0.26829,-0.0429 0.32456,0.0134 0.0563,0.0563 -0.0438,0.0963 -0.22225,0.0889 -0.19727,-0.008 -0.23739,-0.0482 -0.10231,-0.10231 z m -147.95221,-0.82977 c 0.008,-0.19727 0.0482,-0.23739 0.10231,-0.10231 0.0489,0.12224 0.0429,0.26829 -0.0134,0.32456 -0.0563,0.0563 -0.0963,-0.0438 -0.0889,-0.22225 z m 106.65381,-0.36689 -0.41052,-0.46567 0.46567,0.41052 c 0.25612,0.22579 0.46567,0.43534 0.46567,0.46567 0,0.1328 -0.13713,0.0247 -0.52082,-0.41052 z m -77.69781,0.0282 c 0.008,-0.19726 0.0482,-0.23739 0.10231,-0.10231 0.0489,0.12224 0.0429,0.26829 -0.0134,0.32456 -0.0563,0.0563 -0.0963,-0.0437 -0.0889,-0.22225 z m 84.89121,-0.28222 -0.32258,-0.381 0.381,0.32258 c 0.35804,0.30314 0.45808,0.43942 0.32258,0.43942 -0.0321,0 -0.20359,-0.17145 -0.381,-0.381 z m -115.87921,-0.22578 c 0.008,-0.19726 0.0482,-0.23738 0.10231,-0.1023 0.0489,0.12223 0.0429,0.26828 -0.0134,0.32455 -0.0563,0.0563 -0.0963,-0.0437 -0.0889,-0.22225 z m 25.41964,-0.83255 c 0.003,-0.2794 0.0414,-0.3732 0.0843,-0.20845 0.0429,0.16476 0.0401,0.39336 -0.006,0.508 -0.0464,0.11465 -0.0815,-0.0202 -0.0781,-0.29955 z m 81.82357,-0.29634 -0.32258,-0.381 0.381,0.32258 c 0.35804,0.30315 0.45808,0.43942 0.32258,0.43942 -0.0321,0 -0.20359,-0.17145 -0.381,-0.381 z m -105.02851,-0.127 c 0,-0.23283 0.0384,-0.32808 0.0854,-0.21166 0.047,0.11641 0.047,0.30691 0,0.42333 -0.047,0.11642 -0.0854,0.0212 -0.0854,-0.21167 z m 112.30984,-0.0423 -0.32258,-0.38101 0.381,0.32258 c 0.35804,0.30315 0.45808,0.43942 0.32258,0.43942 -0.0321,0 -0.20359,-0.17145 -0.381,-0.38099 z m 36.84609,0.14773 c 0,-0.0352 0.13335,-0.16851 0.29633,-0.29634 0.26858,-0.21062 0.27456,-0.20463 0.0639,0.0639 -0.22122,0.28207 -0.36027,0.37177 -0.36027,0.2324 z m -151.20129,-0.37352 c 0.008,-0.19726 0.0482,-0.23738 0.1023,-0.1023 0.0489,0.12223 0.0429,0.26828 -0.0134,0.32455 -0.0563,0.0563 -0.0963,-0.0437 -0.0889,-0.22225 z m 30.64933,0 c 0.008,-0.19726 0.0482,-0.23738 0.1023,-0.1023 0.0489,0.12223 0.0429,0.26828 -0.0134,0.32455 -0.0563,0.0563 -0.0963,-0.0437 -0.0889,-0.22225 z m 74.90054,-1.29822 -0.32258,-0.381 0.381,0.32258 c 0.35804,0.30314 0.45809,0.43942 0.32258,0.43942 -0.0321,0 -0.20359,-0.17145 -0.381,-0.381 z m 7.45066,0 -0.32258,-0.381 0.381,0.32258 c 0.35804,0.30314 0.45808,0.43942 0.32258,0.43942 -0.0321,0 -0.20359,-0.17145 -0.381,-0.381 z m -112.8312,-0.22578 c 0.008,-0.19726 0.0482,-0.23738 0.1023,-0.1023 0.0489,0.12223 0.0429,0.26828 -0.0134,0.32455 -0.0563,0.0563 -0.0963,-0.0437 -0.0889,-0.22225 z m 24.91164,-0.32455 c 0.003,-0.2794 0.0414,-0.3732 0.0843,-0.20845 0.0429,0.16476 0.0401,0.39336 -0.006,0.508 -0.0464,0.11465 -0.0815,-0.0202 -0.0781,-0.29955 z m -22.86627,-0.0847 c 0,-0.23283 0.0384,-0.32809 0.0854,-0.21167 0.047,0.11642 0.047,0.30692 0,0.42333 -0.047,0.11642 -0.0854,0.0212 -0.0854,-0.21166 z m 28.26529,-0.0988 c 0.008,-0.19727 0.0482,-0.23739 0.10231,-0.10231 0.0489,0.12224 0.0429,0.26829 -0.0134,0.32456 -0.0563,0.0563 -0.0963,-0.0437 -0.0889,-0.22225 z m 73.63381,-0.87489 -0.41051,-0.46567 0.46566,0.41052 c 0.43524,0.38369 0.54333,0.52082 0.41052,0.52082 -0.0303,0 -0.23988,-0.20956 -0.46567,-0.46567 z m 7.53207,0.0847 -0.32258,-0.381 0.381,0.32258 c 0.35804,0.30314 0.45808,0.43942 0.32258,0.43942 -0.0321,0 -0.20359,-0.17145 -0.381,-0.381 z m -111.29384,-0.635 c 0,-0.23283 0.0384,-0.32808 0.0854,-0.21167 0.047,0.11642 0.047,0.30692 0,0.42334 -0.047,0.11641 -0.0854,0.0212 -0.0854,-0.21167 z m 2.032,-0.67733 c 0,-0.23284 0.0384,-0.32809 0.0854,-0.21167 0.047,0.11642 0.047,0.30692 0,0.42333 -0.047,0.11642 -0.0854,0.0212 -0.0854,-0.21166 z m 27.92663,0.0706 c 0.008,-0.19727 0.0483,-0.23739 0.1023,-0.10231 0.0489,0.12224 0.0429,0.26829 -0.0134,0.32456 -0.0563,0.0563 -0.0963,-0.0437 -0.089,-0.22225 z m -5.39902,-0.32456 c 0.003,-0.2794 0.0414,-0.3732 0.0843,-0.20844 0.0429,0.16475 0.0401,0.39335 -0.006,0.508 -0.0464,0.11464 -0.0815,-0.0202 -0.0781,-0.29956 z m 85.37956,0.0423 -0.32258,-0.381 0.381,0.32258 c 0.35804,0.30314 0.45808,0.43942 0.32258,0.43942 -0.0321,0 -0.20359,-0.17145 -0.381,-0.381 z m -7.7014,-0.254 -0.41051,-0.46567 0.46566,0.41052 c 0.25612,0.22579 0.46567,0.43534 0.46567,0.46567 0,0.1328 -0.13712,0.0247 -0.52082,-0.41052 z m 6.34673,-1.27 -0.32258,-0.381 0.381,0.32258 c 0.20955,0.17742 0.381,0.34887 0.381,0.381 0,0.13551 -0.13628,0.0355 -0.43942,-0.32258 z M -359.66725,130.932 c 6.8e-4,-0.65194 0.0314,-0.89788 0.068,-0.54656 0.0367,0.35133 0.036,0.88473 -0.001,1.18533 -0.0374,0.30061 -0.0674,0.0132 -0.0666,-0.63877 z m 29.59114,0.83255 c 0.008,-0.19726 0.0483,-0.23738 0.1023,-0.1023 0.0489,0.12224 0.0429,0.26828 -0.0134,0.32455 -0.0563,0.0563 -0.0963,-0.0437 -0.0889,-0.22225 z m 24.03196,-0.91722 c 0,-0.0931 0.0807,-0.16933 0.17933,-0.16933 0.0986,0 0.13223,0.0762 0.0747,0.16933 -0.0576,0.0931 -0.13826,0.16933 -0.17933,0.16933 -0.0411,0 -0.0747,-0.0762 -0.0747,-0.16933 z m 102.15412,-0.508 c 0,-0.4191 0.033,-0.59055 0.0734,-0.381 0.0404,0.20955 0.0404,0.55245 0,0.762 -0.0404,0.20955 -0.0734,0.0381 -0.0734,-0.381 z m -48.74554,0.127 -0.32258,-0.381 0.381,0.32258 c 0.20955,0.17742 0.381,0.34887 0.381,0.381 0,0.13551 -0.13628,0.0355 -0.43942,-0.32258 z m 14.84611,0.11289 c 0.008,-0.19726 0.0483,-0.23739 0.10231,-0.10231 0.0489,0.12224 0.0429,0.26829 -0.0134,0.32456 -0.0563,0.0563 -0.0963,-0.0437 -0.089,-0.22225 z m -92.42665,-1.00189 c 0.002,-0.37253 0.0366,-0.50499 0.0771,-0.29436 0.0405,0.21064 0.039,0.51544 -0.003,0.67734 -0.0424,0.16189 -0.0755,-0.0104 -0.0736,-0.38298 z m 76.22587,-0.635 -0.32258,-0.381 0.381,0.32258 c 0.20955,0.17742 0.381,0.34887 0.381,0.381 0,0.13551 -0.13628,0.0355 -0.43942,-0.32258 z m -26.924,-1.18533 -0.32258,-0.381 0.381,0.32258 c 0.20955,0.17741 0.381,0.34886 0.381,0.381 0,0.13551 -0.13628,0.0355 -0.43942,-0.32258 z m 25.56933,-0.33867 -0.32258,-0.381 0.381,0.32258 c 0.20955,0.17742 0.381,0.34887 0.381,0.381 0,0.13551 -0.13627,0.0355 -0.43942,-0.32258 z m 40.78309,0.25476 c 0.90805,-0.0304 2.39395,-0.0304 3.302,0 0.90805,0.0305 0.1651,0.0554 -1.651,0.0554 -1.8161,0 -2.55905,-0.0249 -1.651,-0.0554 z m -113.18874,-0.49743 c 0.12223,-0.0489 0.26828,-0.0429 0.32455,0.0134 0.0563,0.0563 -0.0437,0.0963 -0.22225,0.0889 -0.19726,-0.008 -0.23739,-0.0482 -0.1023,-0.1023 z m -36.15947,-0.73099 c 0,-0.4191 0.033,-0.59055 0.0734,-0.381 0.0404,0.20955 0.0404,0.55245 0,0.762 -0.0404,0.20955 -0.0734,0.0381 -0.0734,-0.381 z m 79.92533,0 c 0,-0.4191 0.033,-0.59055 0.0734,-0.381 0.0404,0.20955 0.0404,0.55245 0,0.762 -0.0404,0.20955 -0.0734,0.0381 -0.0734,-0.381 z m 18.45733,0 c 0,-0.4191 0.033,-0.59055 0.0734,-0.381 0.0404,0.20955 0.0404,0.55245 0,0.762 -0.0404,0.20955 -0.0734,0.0381 -0.0734,-0.381 z m 61.62422,-0.254 c 0.003,-0.2794 0.0414,-0.3732 0.0843,-0.20845 0.0429,0.16476 0.0401,0.39336 -0.006,0.508 -0.0464,0.11465 -0.0815,-0.0201 -0.0781,-0.29955 z m -52.71727,-0.21167 c -0.21063,-0.26857 -0.20464,-0.27456 0.0639,-0.0639 0.16299,0.12782 0.29634,0.26117 0.29634,0.29633 0,0.13937 -0.13906,0.0497 -0.36027,-0.2324 z m -106.02339,-0.16184 c 0.20955,-0.0404 0.55245,-0.0404 0.762,0 0.20955,0.0404 0.0381,0.0734 -0.381,0.0734 -0.4191,0 -0.59055,-0.033 -0.381,-0.0734 z m 6.35,0.003 c 0.16298,-0.0426 0.42968,-0.0426 0.59266,0 0.16299,0.0426 0.0296,0.0774 -0.29633,0.0774 -0.32597,0 -0.45932,-0.0348 -0.29633,-0.0774 z m 22.60797,-0.003 c 0.21063,-0.0405 0.51543,-0.039 0.67733,0.003 0.1619,0.0424 -0.0104,0.0755 -0.38297,0.0736 -0.37254,-0.002 -0.505,-0.0366 -0.29436,-0.0771 z m 6.096,0 c 0.21063,-0.0405 0.51543,-0.039 0.67733,0.003 0.1619,0.0424 -0.0104,0.0755 -0.38297,0.0736 -0.37254,-0.002 -0.505,-0.0366 -0.29436,-0.0771 z m 45.55066,0 c 0.21064,-0.0405 0.51544,-0.039 0.67734,0.003 0.16189,0.0424 -0.0105,0.0755 -0.38298,0.0736 -0.37253,-0.002 -0.50499,-0.0366 -0.29436,-0.0771 z m 8.29536,2.6e-4 c 0.20955,-0.0404 0.55245,-0.0404 0.762,0 0.20955,0.0404 0.0381,0.0734 -0.381,0.0734 -0.4191,0 -0.59055,-0.033 -0.381,-0.0734 z m 9.48267,0 c 0.20955,-0.0404 0.55245,-0.0404 0.762,0 0.20955,0.0404 0.0381,0.0734 -0.381,0.0734 -0.4191,0 -0.59055,-0.033 -0.381,-0.0734 z m 6.01133,0.003 c 0.16298,-0.0426 0.42968,-0.0426 0.59267,0 0.16298,0.0426 0.0296,0.0774 -0.29634,0.0774 -0.32596,0 -0.45931,-0.0348 -0.29633,-0.0774 z m 17.44365,-0.005 c 0.25741,-0.0389 0.63841,-0.0379 0.84667,0.002 0.20828,0.0402 -0.002,0.072 -0.46799,0.0708 -0.46566,-0.001 -0.63606,-0.0342 -0.37868,-0.0731 z m 7.70235,0.002 c 0.20955,-0.0404 0.55245,-0.0404 0.762,0 0.20955,0.0404 0.0381,0.0734 -0.381,0.0734 -0.4191,0 -0.59055,-0.033 -0.381,-0.0734 z m 10.668,-0.003 c 0.30268,-0.0376 0.79798,-0.0376 1.10067,0 0.30268,0.0376 0.055,0.0683 -0.55034,0.0683 -0.60536,0 -0.85301,-0.0307 -0.55033,-0.0683 z m 14.224,0 c 0.30268,-0.0376 0.79798,-0.0376 1.10067,0 0.30268,0.0376 0.055,0.0683 -0.55034,0.0683 -0.60536,0 -0.85301,-0.0307 -0.55033,-0.0683 z"
       id="path858" />
    <path
       style="fill:#003162;stroke-width:1"
       d="m -285.21615,367.81032 c -5.37946,-6.02661 -14.30678,-13.57691 -23.64796,-20.00031 -16.80392,-11.55516 -39.98355,-23.26251 -61.93683,-31.28249 -1.66913,-0.60977 -3.06919,-1.14307 -3.11125,-1.18513 -0.0421,-0.042 -0.0313,-0.19406 0.0238,-0.33777 0.0898,-0.23415 3.2148,-0.2613 30.07623,-0.2613 h 29.97596 l 0.0437,9.89975 0.0437,9.89975 6.77333,-4.19384 c 10.63151,-6.58268 15.56763,-9.8386 20.89927,-13.78532 l 2.4591,-1.82034 h 45.4934 c 44.31131,0 45.49556,0.008 45.57628,0.31694 0.0717,0.27431 -0.34124,0.47146 -3.07059,1.46587 -16.763,6.10747 -35.76577,15.12485 -50.56679,23.99548 -7.47168,4.47797 -15.15584,9.73892 -20.82289,14.25636 -4.56493,3.63889 -7.26642,6.06036 -11.56947,10.37021 -3.52762,3.53319 -4.36387,4.28847 -4.74134,4.28222 -0.3611,-0.006 -0.76356,-0.34957 -1.89763,-1.62008 z M -374.28548,139.99133 V 119.502 h 90.59333 90.59333 v 20.48933 20.48933 h -90.59333 -90.59333 z m 31.50311,8.67833 c 6.52196,-14.39939 7.43668,-16.38198 7.44153,-16.129 0.003,0.1397 0.27028,4.1783 0.59469,8.97467 0.63619,9.4061 0.69475,11.10535 0.40466,11.74203 -0.25209,0.55329 -0.84171,0.7953 -2.21892,0.91075 l -1.14907,0.0963 v 0.65278 0.65277 h 6.604 6.604 v -0.65458 -0.65458 l -1.143,-0.0863 c -1.38451,-0.10455 -2.01949,-0.37795 -2.3465,-1.01032 -0.17422,-0.3369 -0.51872,-3.72501 -1.17177,-11.52403 -0.97339,-11.62487 -1.0391,-12.80647 -0.74292,-13.3599 0.27126,-0.50685 1.46354,-0.96656 2.83813,-1.09432 l 1.21139,-0.11258 v -0.61069 -0.61068 h -4.47098 -4.47098 l -4.96515,10.96433 c -2.73082,6.03038 -5.0102,10.96433 -5.06527,10.96433 -0.0551,0 -2.30487,-4.92714 -4.99954,-10.94919 l -4.89941,-10.9492 -4.61433,-0.0219 -4.61434,-0.0219 v 0.61827 0.61826 l 1.00869,0.0915 c 1.15051,0.10432 2.25505,0.64605 2.78631,1.36655 0.32987,0.44737 0.35246,0.68667 0.33572,3.556 -0.0144,2.47601 -0.18863,4.62945 -0.8926,11.03502 -0.48105,4.37726 -0.99416,8.37776 -1.14023,8.89 -0.43101,1.51146 -1.12532,2.02751 -2.94455,2.18856 l -1.10067,0.0974 -0.0526,0.635 -0.0526,0.635 h 5.51355 5.51356 v -0.67734 -0.67733 h -1.09724 c -2.22546,0 -2.96676,-0.69824 -2.96676,-2.79443 0,-1.07077 1.31216,-18.38618 1.39996,-18.47397 0.0226,-0.0226 2.132,4.73447 4.68753,10.5713 2.55552,5.83684 4.86093,11.08868 5.12314,11.67077 0.44828,0.99514 0.51088,1.05833 1.04852,1.05833 h 0.57178 z m 107.43488,-5.59987 v -13.17757 l 0.5097,-1.00411 c 0.60138,-1.18477 1.24485,-1.5807 2.79776,-1.72152 l 1.01054,-0.0916 -1e-5,-0.61148 V 125.852 l -5.67267,-2.7e-4 -5.67265,-2.7e-4 v 0.63527 c 0,0.63434 0.002,0.63527 0.71967,0.63621 1.69521,0.002 2.98106,0.72593 3.57611,2.01269 0.35108,0.75917 0.36224,1.01494 0.41099,9.41637 l 0.0501,8.636 -0.49728,-0.508 c -0.27353,-0.2794 -4.54742,-5.07521 -9.49754,-10.65735 l -9.00022,-10.14936 -4.48025,-0.0172 -4.48026,-0.0172 v 0.64155 c 0,0.61377 0.0244,0.64156 0.56251,0.64156 0.90705,0 2.1279,0.50355 2.82212,1.16401 1.21017,1.15132 1.2125,1.17692 1.14772,12.5829 -0.0508,8.93422 -0.0891,10.14011 -0.34701,10.91013 -0.54305,1.62138 -1.34754,2.25306 -3.08467,2.42209 l -1.016,0.0989 -0.0523,0.63062 -0.0523,0.63062 5.76737,0.0467 5.76738,0.0467 -8e-5,-0.71967 -8e-5,-0.71966 h -1.0754 c -1.78447,0 -2.72445,-0.48238 -3.29972,-1.69334 -0.25109,-0.52855 -0.28599,-1.67346 -0.32263,-10.58333 l -0.0411,-9.99067 0.80308,0.89234 c 0.4417,0.49079 5.33698,5.9534 10.87842,12.13913 l 10.07533,11.2468 0.84667,0.0105 0.84666,0.0105 v -13.17758 z m -35.4753,11.86521 -3e-5,-0.71967 h -1.02144 c -0.56179,0 -1.28063,-0.1083 -1.59742,-0.24066 -1.16266,-0.48579 -1.1181,0.0761 -1.06741,-13.45969 l 0.0456,-12.18049 0.39492,-0.42032 c 0.43517,-0.46315 1.49792,-0.79217 2.55873,-0.79217 0.68112,0 0.68701,-0.005 0.68701,-0.63569 v -0.63569 l -6.60399,6.9e-4 -6.604,7e-4 v 0.61181 l -10e-6,0.61182 1.07496,0.0863 c 1.26443,0.10149 1.89534,0.37458 2.38115,1.0307 0.34978,0.4724 0.3544,0.61213 0.39774,12.02266 0.0336,8.84717 -0.006,11.7387 -0.16933,12.37491 -0.29399,1.14488 -0.80409,1.49231 -2.36984,1.61411 -1.19846,0.0932 -1.23142,0.108 -1.28497,0.57566 -0.0302,0.26399 -0.0209,0.56879 0.0208,0.67734 0.0559,0.14555 1.79301,0.19736 6.61666,0.19736 h 6.54088 l -3e-5,-0.71967 z m 68.31735,0.46566 c 0.0396,-0.1397 0.2686,-1.2446 0.5089,-2.45533 0.2403,-1.21073 0.54727,-2.61756 0.68214,-3.12628 0.24877,-0.93831 0.17411,-1.18207 -0.36424,-1.18913 -0.10879,-0.001 -0.30534,-0.0438 -0.43676,-0.0943 -0.16671,-0.064 -0.30382,0.12802 -0.45352,0.635 -0.3466,1.17379 -1.2124,2.66109 -1.86326,3.20078 -0.33256,0.27575 -1.13804,0.66883 -1.78997,0.87352 -1.04505,0.32811 -1.56612,0.37249 -4.40267,0.37494 -3.55277,0.003 -4.12254,-0.10606 -4.92508,-0.94336 l -0.49359,-0.51499 -0.0489,-5.5771 -0.0489,-5.5771 h 2.6229 c 1.44259,0 2.99732,0.0803 3.45494,0.17845 1.34194,0.28779 1.90211,1.10754 2.16341,3.16589 0.11809,0.93032 0.2161,1.00384 1.04289,0.78227 l 0.381,-0.10211 v -4.97558 -4.97558 h -0.64345 -0.64345 l -0.20534,0.99409 c -0.25153,1.2178 -0.78017,2.04327 -1.55913,2.43465 -0.49478,0.24858 -1.07139,0.29611 -3.59497,0.29633 l -3.00566,2.6e-4 v -5.51677 -5.51676 l 4.02166,0.064 c 3.29992,0.0525 4.13231,0.1147 4.63819,0.34665 1.30665,0.59908 2.01658,1.75638 2.28362,3.72256 0.1113,0.81956 0.1673,0.85971 0.90986,0.65238 l 0.42333,-0.1182 v -3.29392 -3.29392 h -10.795 -10.795 v 0.61182 0.61181 l 1.06599,0.0856 c 1.36019,0.10918 2.10854,0.49434 2.42306,1.24707 0.36864,0.88228 0.27535,24.35036 -0.099,24.91528 -0.34771,0.52466 -1.36129,0.89178 -2.46209,0.89178 h -0.92792 v 0.71967 0.71966 h 11.43203 c 10.01692,0 11.44093,-0.0314 11.50402,-0.254 z m -106.75604,-0.53426 v -0.65107 l -0.97367,-0.01 c -1.24131,-0.0122 -2.03789,-0.29319 -2.46523,-0.86966 l -0.33795,-0.45589 0.51982,-1.66078 c 0.2859,-0.91343 0.83416,-2.67043 1.21837,-3.90445 l 0.69855,-2.24367 h 4.77927 4.77927 l 1.22478,3.68714 c 0.67363,2.02793 1.22479,3.93117 1.22479,4.22943 0,0.73433 -0.55784,1.07391 -1.94738,1.18545 l -1.10062,0.0884 v 0.62765 0.62765 l 6.18066,-0.007 6.18067,-0.007 v -0.64369 c 0,-0.62413 -0.0182,-0.64369 -0.59941,-0.64369 -0.32968,0 -0.89472,-0.15065 -1.25565,-0.33478 -0.87509,-0.44658 -1.13294,-1.0095 -3.29833,-7.20069 -6.52823,-18.66531 -7.68345,-21.84566 -7.95472,-21.89975 -0.23127,-0.0461 -1.69219,0.58568 -3.97381,1.71853 -0.30927,0.15355 -0.47224,0.47464 -0.70304,1.38522 -0.16525,0.65193 -1.80124,5.49063 -3.63554,10.75266 -1.8343,5.26204 -3.64436,10.46285 -4.02236,11.55737 -0.48261,1.3974 -0.86571,2.19849 -1.28643,2.69 -0.67023,0.78302 -1.69452,1.32198 -2.52304,1.32758 -0.52396,0.004 -0.55034,0.0346 -0.55034,0.64903 v 0.6453 l 4.91067,0.006 4.91067,0.006 v -0.65114 z m -0.33803,-12.80074 c 2.7909,-8.53005 3.61216,-10.98653 3.70763,-11.08998 0.1,-0.10833 1.24283,3.26302 3.32889,9.81998 l 0.55218,1.73567 h -3.87053 -3.87052 z"
       id="path856" />
  </g>
</svg>
