<?xml version="1.0" encoding="UTF-8" standalone="no"?>
<!-- Created with Inkscape (http://www.inkscape.org/) -->

<svg
   width="1.2in"
   height="1.5in"
   viewBox="0 0 30.480002 38.099999"
   version="1.1"
   id="svg1"
   inkscape:version="1.3.2 (091e20e, 2023-11-25, custom)"
   sodipodi:docname="deviator_calculations.svg"
   xmlns:inkscape="http://www.inkscape.org/namespaces/inkscape"
   xmlns:sodipodi="http://sodipodi.sourceforge.net/DTD/sodipodi-0.dtd"
   xmlns="http://www.w3.org/2000/svg"
   xmlns:svg="http://www.w3.org/2000/svg"
   xmlns:ns1="http://www.iki.fi/pav/software/textext/">
  <sodipodi:namedview
     id="namedview1"
     pagecolor="#ffffff"
     bordercolor="#111111"
     borderopacity="1"
     inkscape:showpageshadow="0"
     inkscape:pageopacity="0"
     inkscape:pagecheckerboard="1"
     inkscape:deskcolor="#d1d1d1"
     inkscape:document-units="mm"
     inkscape:zoom="5.5660494"
     inkscape:cx="20.930465"
     inkscape:cy="38.986359"
     inkscape:window-width="2400"
     inkscape:window-height="1280"
     inkscape:window-x="2391"
     inkscape:window-y="-9"
     inkscape:window-maximized="1"
     inkscape:current-layer="layer1" />
  <defs
     id="defs1">
    <marker
       style="overflow:visible"
       id="DartArrow"
       refX="0"
       refY="0"
       orient="auto-start-reverse"
       inkscape:stockid="Dart arrow"
       markerWidth="1"
       markerHeight="1"
       viewBox="0 0 1 1"
       inkscape:isstock="true"
       inkscape:collect="always"
       preserveAspectRatio="xMidYMid">
      <path
         style="fill:context-stroke;fill-rule:evenodd;stroke:none"
         d="M 0,0 5,-5 -12.5,0 5,5 Z"
         transform="scale(-0.5)"
         id="path12" />
    </marker>
    <inkscape:path-effect
       effect="fill_between_many"
       method="originald"
       linkedpaths="#path3,0,1|#path2,0,1|"
       id="path-effect3" />
    <inkscape:path-effect
       effect="fill_between_many"
       method="originald"
       linkedpaths="#path6,0,1|#path7,0,1|"
       id="path-effect7" />
  </defs>
  <g
     inkscape:label="Layer 1"
     inkscape:groupmode="layer"
     id="layer1">
    <ellipse
       style="fill:#ffccaa;stroke:#000000;stroke-width:0.264999;stroke-linecap:round;stroke-miterlimit:4.1;stroke-dasharray:none"
       id="ellipse1"
       cx="15.125612"
       cy="34.812969"
       rx="7.125844"
       ry="1.781461" />
    <path
       inkscape:original-d="M 0,0"
       inkscape:path-effect="#path-effect3"
       d="m 22.251456,8.5711802 c 0.1325,5.8243078 2.647714,7.2458998 2.686379,11.4624928 0.03879,4.230405 -2.553879,6.81966 -2.686379,12.133461 H 7.9997683 C 7.8672688,26.853333 5.2745971,24.264078 5.3133891,20.033673 5.3520546,15.81708 7.8672688,14.395488 7.9997683,8.5711802 Z"
       id="path4"
       style="fill:#ffccaa"
       transform="translate(0,2.6458334)" />
    <ellipse
       style="fill:#999999;fill-opacity:1;stroke:#000000;stroke-width:0.264999;stroke-linecap:round;stroke-miterlimit:4.1;stroke-dasharray:none"
       id="path1"
       cx="15.125612"
       cy="11.217011"
       rx="7.125844"
       ry="1.781461" />
    <path
       style="fill:none;stroke:#000000;stroke-width:0.264583px;stroke-linecap:butt;stroke-linejoin:miter;stroke-opacity:1"
       d="M 7.9997683,8.5711802 C 7.8672688,14.395488 5.3520546,15.81708 5.3133891,20.033673 c -0.038792,4.230405 2.5538797,6.81966 2.6863792,12.133461"
       id="path2"
       sodipodi:nodetypes="csc"
       transform="translate(0,2.6458334)" />
    <path
       style="fill:none;stroke:#000000;stroke-width:0.264583px;stroke-linecap:butt;stroke-linejoin:miter;stroke-opacity:1"
       d="m 22.251456,8.5711802 c 0.1325,5.8243078 2.647714,7.2458998 2.686379,11.4624928 0.03879,4.230405 -2.553879,6.81966 -2.686379,12.133461"
       id="path3"
       sodipodi:nodetypes="csc"
       transform="translate(0,2.6458334)" />
    <g
       id="g5"
       style="stroke:#008000"
       transform="translate(0,2.6458334)">
      <ellipse
         style="fill:#ffccaa;stroke:#008000;stroke-width:0.264998;stroke-linecap:round;stroke-miterlimit:4.1;stroke-dasharray:none"
         id="ellipse4"
         cx="15.125612"
         cy="20.369156"
         rx="9.8097982"
         ry="2.4524496" />
      <path
         style="fill:none;stroke:#008000;stroke-width:0.264998"
         d="m 5.747898,19.690751 -0.207345,0.207345 m 0.290262,1.123952 2.258001,-2.258001 m 1.773801,-0.359588 -3.125259,3.125259 m 1.051933,0.36228 3.692566,-3.692566 m 1.532641,-0.118426 -4.085478,4.085478 m 1.203274,0.210939 4.34863,-4.34863 m 1.416554,-0.0023 -4.503873,4.503873 m 1.305616,0.108598 4.561997,-4.561997 m 1.314954,0.09926 -4.52437,4.52437 m 1.400835,0.01338 4.39334,-4.39334 m 1.213562,0.200652 -4.153075,4.153075 m 1.516372,-0.102159 3.791569,-3.791569 m 1.076151,0.338063 -3.273942,3.273942 m 1.732902,-0.318688 2.48823,-2.48823 m 0.60023,0.813983 -0.965891,0.965891"
         id="path5" />
    </g>
    <path
       inkscape:original-d="M 0,0"
       inkscape:path-effect="#path-effect7"
       d="M 7.9997683,6.6572198 V 8.5711802 H 22.251456 V 6.6572198 Z"
       id="path8"
       style="fill:#999999"
       transform="translate(0,2.6458334)" />
    <path
       style="fill:none;stroke:#000000;stroke-width:0.264583px;stroke-linecap:butt;stroke-linejoin:miter;stroke-opacity:1"
       d="M 7.9997683,6.6572198 V 8.5711802"
       id="path6"
       transform="translate(0,2.6458334)" />
    <path
       style="fill:none;stroke:#000000;stroke-width:0.264583px;stroke-linecap:butt;stroke-linejoin:miter;stroke-opacity:1"
       d="M 22.251456,6.6572198 V 8.5711802"
       id="path7"
       transform="translate(0,2.6458334)" />
    <g
       id="g9"
       style="stroke:#ff0000"
       transform="translate(0,2.6458334)">
      <path
         style="fill:none;stroke:#ff0000;stroke-width:0.264999"
         d="M 10.152731,5.485122 8.469768,7.168085 m 0.96245,0.451764 2.446368,-2.446368 m 1.559365,-0.145152 -2.890643,2.890643 m 1.206845,0.207369 3.147749,-3.147749 m 1.390987,0.023227 -3.258863,3.258863 m 1.346129,0.068084 3.237988,-3.237988 m 1.259008,0.155205 -3.084265,3.084265 m 1.48844,-0.074226 2.779409,-2.779409 m 1.078189,0.336025 -2.254935,2.254935 M 20.676983,7.688792 22.014705,6.35107"
         id="path9" />
      <g
         id="g10"
         style="stroke:#ff0000">
        <ellipse
           style="fill:#999999;fill-opacity:1;stroke:#ff0000;stroke-width:0.264999;stroke-linecap:round;stroke-miterlimit:4.1;stroke-dasharray:none"
           id="ellipse5"
           cx="15.125612"
           cy="6.6572199"
           rx="7.125844"
           ry="1.781461" />
        <path
           style="fill:none;stroke:#ff0000;stroke-width:0.264999"
           d="M 10.152731,5.485122 8.469768,7.168085 m 0.96245,0.451764 2.446368,-2.446368 m 1.559365,-0.145152 -2.890643,2.890643 m 1.206845,0.207369 3.147749,-3.147749 m 1.390987,0.023227 -3.258863,3.258863 m 1.346129,0.068084 3.237988,-3.237988 m 1.259008,0.155205 -3.084265,3.084265 m 1.48844,-0.074226 2.779409,-2.779409 m 1.078189,0.336025 -2.254935,2.254935 M 20.676983,7.688792 22.014705,6.35107"
           id="path10" />
      </g>
    </g>
    <rect
       style="fill:#999999;fill-opacity:1;stroke:none;stroke-width:0.264999;stroke-linecap:round;stroke-miterlimit:4.1;stroke-dasharray:none"
       id="rect10"
       width="2.1343918"
       height="2.2016168"
       x="13.966969"
       y="7.8699074" />
    <g
       transform="matrix(0.352778,0,0,0.352778,14.254603,8.1678451)"
       ns1:version="1.10.2"
       ns1:texconverter="pdflatex"
       ns1:pdfconverter="inkscape"
       ns1:text="$a$"
       ns1:preamble="C:\Users\zamcr\AppData\Roaming\inkscape\extensions\textext\default_packages.tex"
       ns1:scale="1.0"
       ns1:alignment="middle center"
       ns1:stroke-to-path="0"
       ns1:inkscapeversion="1.3.2"
       id="g9425"
       ns1:jacobian_sqrt="0.352778">
      <defs
         id="id-b852343b-ef2f-4509-b390-d5316162f37c">
        <g
           id="id-9c469846-c7bf-4508-b17f-a140f251a3ca">
          <g
             id="id-81318315-ef31-45a2-aa33-a7951af4df9c">
            <path
               d="M 3.71875,-3.765625 C 3.53125,-4.140625 3.25,-4.40625 2.796875,-4.40625 c -1.15625,0 -2.390625,1.46875 -2.390625,2.921875 0,0.9375 0.546875,1.59375 1.3125,1.59375 0.203125,0 0.703125,-0.046875 1.296875,-0.75 0.078125,0.421875 0.4375,0.75 0.90625,0.75 0.359375,0 0.578125,-0.234375 0.75,-0.546875 0.15625,-0.359375 0.296875,-0.96875 0.296875,-0.984375 0,-0.109375 -0.09375,-0.109375 -0.125,-0.109375 -0.09375,0 -0.109375,0.046875 -0.140625,0.1875 -0.171875,0.640625 -0.34375,1.234375 -0.75,1.234375 -0.28125,0 -0.296875,-0.265625 -0.296875,-0.453125 0,-0.21875 0.015625,-0.3125 0.125,-0.75 C 3.890625,-1.71875 3.90625,-1.828125 4,-2.203125 L 4.359375,-3.59375 c 0.0625,-0.28125 0.0625,-0.296875 0.0625,-0.34375 0,-0.171875 -0.109375,-0.265625 -0.28125,-0.265625 -0.25,0 -0.390625,0.21875 -0.421875,0.4375 z M 3.078125,-1.1875 C 3.015625,-1 3.015625,-0.984375 2.875,-0.8125 2.4375,-0.265625 2.03125,-0.109375 1.75,-0.109375 c -0.5,0 -0.640625,-0.546875 -0.640625,-0.9375 0,-0.5 0.3125,-1.71875 0.546875,-2.1875 0.3125,-0.578125 0.75,-0.953125 1.15625,-0.953125 0.640625,0 0.78125,0.8125 0.78125,0.875 0,0.0625 -0.015625,0.125 -0.03125,0.171875 z m 0,0"
               id="id-bb9e342b-a8f7-4714-adb7-d5a07e781bbf" />
          </g>
        </g>
      </defs>
      <g
         fill="#000000"
         fill-opacity="1"
         id="id-bf636070-c43b-4e0b-89b8-455bfefcb071"
         transform="translate(-149.118,-130.359)">
        <g
           transform="translate(148.712,134.765)"
           id="g883">
          <path
             d="M 3.71875,-3.765625 C 3.53125,-4.140625 3.25,-4.40625 2.796875,-4.40625 c -1.15625,0 -2.390625,1.46875 -2.390625,2.921875 0,0.9375 0.546875,1.59375 1.3125,1.59375 0.203125,0 0.703125,-0.046875 1.296875,-0.75 0.078125,0.421875 0.4375,0.75 0.90625,0.75 0.359375,0 0.578125,-0.234375 0.75,-0.546875 0.15625,-0.359375 0.296875,-0.96875 0.296875,-0.984375 0,-0.109375 -0.09375,-0.109375 -0.125,-0.109375 -0.09375,0 -0.109375,0.046875 -0.140625,0.1875 -0.171875,0.640625 -0.34375,1.234375 -0.75,1.234375 -0.28125,0 -0.296875,-0.265625 -0.296875,-0.453125 0,-0.21875 0.015625,-0.3125 0.125,-0.75 C 3.890625,-1.71875 3.90625,-1.828125 4,-2.203125 L 4.359375,-3.59375 c 0.0625,-0.28125 0.0625,-0.296875 0.0625,-0.34375 0,-0.171875 -0.109375,-0.265625 -0.28125,-0.265625 -0.25,0 -0.390625,0.21875 -0.421875,0.4375 z M 3.078125,-1.1875 C 3.015625,-1 3.015625,-0.984375 2.875,-0.8125 2.4375,-0.265625 2.03125,-0.109375 1.75,-0.109375 c -0.5,0 -0.640625,-0.546875 -0.640625,-0.9375 0,-0.5 0.3125,-1.71875 0.546875,-2.1875 0.3125,-0.578125 0.75,-0.953125 1.15625,-0.953125 0.640625,0 0.78125,0.8125 0.78125,0.875 0,0.0625 -0.015625,0.125 -0.03125,0.171875 z m 0,0"
             id="id-35567b81-1bb1-4057-ae9a-a56ccbfb0b5b" />
        </g>
      </g>
    </g>
    <g
       id="g11"
       transform="translate(12.170866,10.82316)">
      <rect
         style="fill:#ffccaa;fill-opacity:1;stroke:none;stroke-width:0.264999;stroke-linecap:round;stroke-miterlimit:4.1;stroke-dasharray:none"
         id="rect11"
         width="2.3536906"
         height="2.638134"
         x="1.8112364"
         y="10.81426" />
      <g
         transform="matrix(0.352778,0,0,0.352778,1.8113246,10.933207)"
         ns1:version="1.10.2"
         ns1:texconverter="pdflatex"
         ns1:pdfconverter="inkscape"
         ns1:text="$A$"
         ns1:preamble="C:\Users\zamcr\AppData\Roaming\inkscape\extensions\textext\default_packages.tex"
         ns1:scale="1.0"
         ns1:alignment="middle center"
         ns1:stroke-to-path="0"
         ns1:inkscapeversion="1.3.2"
         id="g3588"
         ns1:jacobian_sqrt="0.352778">
        <defs
           id="id-ac596297-edd8-4e31-af3e-5f0ce92fa204">
          <g
             id="id-1c2a2c03-8835-4b43-8e10-ad92fe6e9df1">
            <g
               id="id-bc3f8ddc-80ae-406a-8019-64f1e276641c">
              <path
                 d="M 1.78125,-1.140625 C 1.390625,-0.484375 1,-0.34375 0.5625,-0.3125 0.4375,-0.296875 0.34375,-0.296875 0.34375,-0.109375 0.34375,-0.046875 0.40625,0 0.484375,0 0.75,0 1.0625,-0.03125 1.328125,-0.03125 c 0.34375,0 0.6875,0.03125 1,0.03125 0.0625,0 0.1875,0 0.1875,-0.1875 0,-0.109375 -0.078125,-0.125 -0.15625,-0.125 -0.21875,-0.015625 -0.46875,-0.09375 -0.46875,-0.34375 0,-0.125 0.0625,-0.234375 0.140625,-0.375 l 0.765625,-1.265625 h 2.5 c 0.015625,0.203125 0.15625,1.5625 0.15625,1.65625 0,0.296875 -0.515625,0.328125 -0.71875,0.328125 C 4.59375,-0.3125 4.5,-0.3125 4.5,-0.109375 4.5,0 4.609375,0 4.640625,0 5.046875,0 5.46875,-0.03125 5.875,-0.03125 6.125,-0.03125 6.765625,0 7.015625,0 7.0625,0 7.1875,0 7.1875,-0.203125 7.1875,-0.3125 7.09375,-0.3125 6.953125,-0.3125 6.34375,-0.3125 6.34375,-0.375 6.3125,-0.671875 l -0.609375,-6.21875 c -0.015625,-0.203125 -0.015625,-0.25 -0.1875,-0.25 -0.15625,0 -0.203125,0.078125 -0.265625,0.171875 z M 2.984375,-2.609375 4.9375,-5.90625 5.265625,-2.609375 Z m 0,0"
                 id="id-ce5e2384-3c90-4f40-a08e-fb04b81c408f" />
            </g>
          </g>
        </defs>
        <g
           fill="#000000"
           fill-opacity="1"
           id="id-817f13dc-1409-4cbe-9e76-2e40db0c4dac"
           transform="translate(-149.056,-127.624)">
          <g
             transform="translate(148.712,134.765)"
             id="g3970">
            <path
               d="M 1.78125,-1.140625 C 1.390625,-0.484375 1,-0.34375 0.5625,-0.3125 0.4375,-0.296875 0.34375,-0.296875 0.34375,-0.109375 0.34375,-0.046875 0.40625,0 0.484375,0 0.75,0 1.0625,-0.03125 1.328125,-0.03125 c 0.34375,0 0.6875,0.03125 1,0.03125 0.0625,0 0.1875,0 0.1875,-0.1875 0,-0.109375 -0.078125,-0.125 -0.15625,-0.125 -0.21875,-0.015625 -0.46875,-0.09375 -0.46875,-0.34375 0,-0.125 0.0625,-0.234375 0.140625,-0.375 l 0.765625,-1.265625 h 2.5 c 0.015625,0.203125 0.15625,1.5625 0.15625,1.65625 0,0.296875 -0.515625,0.328125 -0.71875,0.328125 C 4.59375,-0.3125 4.5,-0.3125 4.5,-0.109375 4.5,0 4.609375,0 4.640625,0 5.046875,0 5.46875,-0.03125 5.875,-0.03125 6.125,-0.03125 6.765625,0 7.015625,0 7.0625,0 7.1875,0 7.1875,-0.203125 7.1875,-0.3125 7.09375,-0.3125 6.953125,-0.3125 6.34375,-0.3125 6.34375,-0.375 6.3125,-0.671875 l -0.609375,-6.21875 c -0.015625,-0.203125 -0.015625,-0.25 -0.1875,-0.25 -0.15625,0 -0.203125,0.078125 -0.265625,0.171875 z M 2.984375,-2.609375 4.9375,-5.90625 5.265625,-2.609375 Z m 0,0"
               id="id-3e3e5eb4-a431-48c1-be4b-6b9bfe6279d2" />
          </g>
        </g>
      </g>
    </g>
    <path
       style="fill:none;stroke:#008000;stroke-width:0.264583px;stroke-linecap:butt;stroke-linejoin:miter;stroke-opacity:1;marker-end:url(#DartArrow)"
       d="M 15.059466,2.0915493 V 7.5216688"
       id="path11" />
    <g
       transform="matrix(0.352778,0,0,0.352778,12.153905,1.3414853)"
       ns1:version="1.10.2"
       ns1:texconverter="pdflatex"
       ns1:pdfconverter="inkscape"
       ns1:text="$P$"
       ns1:preamble="C:\Users\zamcr\AppData\Roaming\inkscape\extensions\textext\default_packages.tex"
       ns1:scale="1.0"
       ns1:alignment="middle center"
       ns1:stroke-to-path="0"
       ns1:inkscapeversion="1.3.2"
       id="g3891"
       ns1:jacobian_sqrt="0.352778"
       style="fill:#008000">
      <defs
         id="id-bf262460-e968-4bd2-af8f-7641cd86be71">
        <g
           id="id-8f5cf15e-95e1-49a6-8f0f-7173b8377836">
          <g
             id="id-72495335-d142-4aa1-b462-2d4b6d0e272d">
            <path
               d="M 3.015625,-3.15625 H 4.71875 c 1.40625,0 2.796875,-1.03125 2.796875,-2.140625 0,-0.78125 -0.65625,-1.515625 -1.96875,-1.515625 h -3.21875 c -0.1875,0 -0.296875,0 -0.296875,0.1875 0,0.125 0.078125,0.125 0.28125,0.125 0.125,0 0.3125,0.015625 0.421875,0.015625 0.171875,0.03125 0.21875,0.046875 0.21875,0.171875 0,0.03125 0,0.0625 -0.03125,0.1875 l -1.34375,5.34375 c -0.09375,0.390625 -0.109375,0.46875 -0.90625,0.46875 -0.15625,0 -0.265625,0 -0.265625,0.1875 C 0.40625,0 0.515625,0 0.546875,0 0.828125,0 1.53125,-0.03125 1.8125,-0.03125 c 0.21875,0 0.4375,0.015625 0.640625,0.015625 0.21875,0 0.4375,0.015625 0.640625,0.015625 0.078125,0 0.203125,0 0.203125,-0.203125 0,-0.109375 -0.09375,-0.109375 -0.28125,-0.109375 -0.359375,0 -0.640625,0 -0.640625,-0.171875 0,-0.0625 0.015625,-0.109375 0.03125,-0.171875 z M 3.734375,-6.125 C 3.828125,-6.46875 3.84375,-6.5 4.28125,-6.5 h 0.953125 c 0.828125,0 1.359375,0.265625 1.359375,0.953125 0,0.390625 -0.203125,1.25 -0.59375,1.609375 -0.5,0.453125 -1.09375,0.53125 -1.53125,0.53125 H 3.0625 Z m 0,0"
               id="id-c454300e-a723-4df7-ac84-783910e681a1" />
          </g>
        </g>
      </defs>
      <g
         fill="#000000"
         fill-opacity="1"
         id="id-18220df6-c986-416d-b971-312a30f9993d"
         transform="translate(-149.118,-127.953)"
         style="fill:#008000">
        <g
           transform="translate(148.712,134.765)"
           id="g8415"
           style="fill:#008000">
          <path
             d="M 3.015625,-3.15625 H 4.71875 c 1.40625,0 2.796875,-1.03125 2.796875,-2.140625 0,-0.78125 -0.65625,-1.515625 -1.96875,-1.515625 h -3.21875 c -0.1875,0 -0.296875,0 -0.296875,0.1875 0,0.125 0.078125,0.125 0.28125,0.125 0.125,0 0.3125,0.015625 0.421875,0.015625 0.171875,0.03125 0.21875,0.046875 0.21875,0.171875 0,0.03125 0,0.0625 -0.03125,0.1875 l -1.34375,5.34375 c -0.09375,0.390625 -0.109375,0.46875 -0.90625,0.46875 -0.15625,0 -0.265625,0 -0.265625,0.1875 C 0.40625,0 0.515625,0 0.546875,0 0.828125,0 1.53125,-0.03125 1.8125,-0.03125 c 0.21875,0 0.4375,0.015625 0.640625,0.015625 0.21875,0 0.4375,0.015625 0.640625,0.015625 0.078125,0 0.203125,0 0.203125,-0.203125 0,-0.109375 -0.09375,-0.109375 -0.28125,-0.109375 -0.359375,0 -0.640625,0 -0.640625,-0.171875 0,-0.0625 0.015625,-0.109375 0.03125,-0.171875 z M 3.734375,-6.125 C 3.828125,-6.46875 3.84375,-6.5 4.28125,-6.5 h 0.953125 c 0.828125,0 1.359375,0.265625 1.359375,0.953125 0,0.390625 -0.203125,1.25 -0.59375,1.609375 -0.5,0.453125 -1.09375,0.53125 -1.53125,0.53125 H 3.0625 Z m 0,0"
             id="id-02366bec-863a-49db-a9dd-91dcb5b34031"
             style="fill:#008000" />
        </g>
      </g>
    </g>
  </g>
</svg>
