<?xml version="1.0" encoding="utf-8" standalone="no"?>
<!DOCTYPE svg PUBLIC "-//W3C//DTD SVG 1.1//EN"
  "http://www.w3.org/Graphics/SVG/1.1/DTD/svg11.dtd">
<svg height="158.4pt" version="1.1" viewBox="0 0 172.8 158.4" width="172.8pt" xmlns="http://www.w3.org/2000/svg" xmlns:xlink="http://www.w3.org/1999/xlink">
 <metadata>
  <rdf:RDF xmlns:cc="http://creativecommons.org/ns#" xmlns:dc="http://purl.org/dc/elements/1.1/" xmlns:rdf="http://www.w3.org/1999/02/22-rdf-syntax-ns#">
   <cc:Work>
    <dc:type rdf:resource="http://purl.org/dc/dcmitype/StillImage"/>
    <dc:date>2024-09-10T20:24:30.746600</dc:date>
    <dc:format>image/svg+xml</dc:format>
    <dc:creator>
     <cc:Agent>
      <dc:title>Matplotlib v3.4.3, https://matplotlib.org/</dc:title>
     </cc:Agent>
    </dc:creator>
   </cc:Work>
  </rdf:RDF>
 </metadata>
 <defs>
  <style type="text/css">*{stroke-linecap:butt;stroke-linejoin:round;}</style>
 </defs>
 <g id="figure_1">
  <g id="patch_1">
   <path d="M 0 158.4 
L 172.8 158.4 
L 172.8 0 
L 0 0 
z
" style="fill:none;"/>
  </g>
  <g id="axes_1">
   <g id="patch_2">
    <path d="M 39.316366 121.712812 
L 164.16 121.712812 
L 164.16 11.407401 
L 39.316366 11.407401 
z
" style="fill:#ffffff;"/>
   </g>
   <g id="matplotlib.axis_1">
    <g id="xtick_1">
     <g id="line2d_1">
      <defs>
       <path d="M 0 0 
L 0 3.5 
" id="mbc0724f44e" style="stroke:#000000;stroke-width:0.8;"/>
      </defs>
      <g>
       <use style="stroke:#000000;stroke-width:0.8;" x="82.822481" xlink:href="#mbc0724f44e" y="121.712812"/>
      </g>
     </g>
     <g id="text_1">
      <!-- $\mathdefault{0.0}$ -->
      <g transform="translate(77.412136 134.247614)scale(0.08 -0.08)">
       <defs>
        <path d="M 2688 2038 
C 2688 2430 2682 3099 2413 3613 
C 2176 4063 1798 4224 1466 4224 
C 1158 4224 768 4082 525 3620 
C 269 3137 243 2539 243 2038 
C 243 1671 250 1112 448 623 
C 723 -39 1216 -128 1466 -128 
C 1760 -128 2208 -7 2470 604 
C 2662 1048 2688 1568 2688 2038 
z
M 1466 -26 
C 1056 -26 813 328 723 816 
C 653 1196 653 1749 653 2109 
C 653 2604 653 3015 736 3407 
C 858 3954 1216 4121 1466 4121 
C 1728 4121 2067 3947 2189 3420 
C 2272 3054 2278 2623 2278 2109 
C 2278 1691 2278 1176 2202 797 
C 2067 96 1690 -26 1466 -26 
z
" id="CMR17-30" transform="scale(0.015625)"/>
        <path d="M 1178 307 
C 1178 492 1024 620 870 620 
C 685 620 557 467 557 313 
C 557 128 710 0 864 0 
C 1050 0 1178 153 1178 307 
z
" id="CMMI12-3a" transform="scale(0.015625)"/>
       </defs>
       <use transform="scale(0.996264)" xlink:href="#CMR17-30"/>
       <use transform="translate(45.690477 0)scale(0.996264)" xlink:href="#CMMI12-3a"/>
       <use transform="translate(72.787654 0)scale(0.996264)" xlink:href="#CMR17-30"/>
      </g>
     </g>
    </g>
    <g id="xtick_2">
     <g id="line2d_2">
      <g>
       <use style="stroke:#000000;stroke-width:0.8;" x="128.220166" xlink:href="#mbc0724f44e" y="121.712812"/>
      </g>
     </g>
     <g id="text_2">
      <!-- $\mathdefault{0.2}$ -->
      <g transform="translate(122.809821 134.247614)scale(0.08 -0.08)">
       <defs>
        <path d="M 2669 990 
L 2554 990 
C 2490 537 2438 460 2413 422 
C 2381 371 1920 371 1830 371 
L 602 371 
C 832 620 1280 1073 1824 1596 
C 2214 1966 2669 2400 2669 3033 
C 2669 3788 2067 4224 1395 4224 
C 691 4224 262 3603 262 3027 
C 262 2777 448 2745 525 2745 
C 589 2745 781 2783 781 3007 
C 781 3206 614 3264 525 3264 
C 486 3264 448 3257 422 3244 
C 544 3788 915 4057 1306 4057 
C 1862 4057 2227 3616 2227 3033 
C 2227 2477 1901 1998 1536 1583 
L 262 147 
L 262 0 
L 2515 0 
L 2669 990 
z
" id="CMR17-32" transform="scale(0.015625)"/>
       </defs>
       <use transform="scale(0.996264)" xlink:href="#CMR17-30"/>
       <use transform="translate(45.690477 0)scale(0.996264)" xlink:href="#CMMI12-3a"/>
       <use transform="translate(72.787654 0)scale(0.996264)" xlink:href="#CMR17-32"/>
      </g>
     </g>
    </g>
    <g id="text_3">
     <!-- $F(Z, T_v) \times T_v$ -->
     <g transform="translate(72.005359 147.26934)scale(0.1 -0.1)">
      <defs>
       <path d="M 1901 2054 
L 2515 2054 
C 3002 2054 3040 1947 3040 1764 
C 3040 1683 3027 1595 2995 1456 
C 2982 1431 2976 1399 2976 1387 
C 2976 1343 3002 1318 3046 1318 
C 3098 1318 3104 1343 3130 1444 
L 3501 2929 
C 3501 2955 3482 2993 3437 2993 
C 3379 2993 3373 2968 3347 2858 
C 3213 2375 3085 2240 2528 2240 
L 1946 2240 
L 2362 3908 
C 2419 4134 2432 4153 2694 4153 
L 3552 4153 
C 4352 4153 4467 3915 4467 3457 
C 4467 3419 4467 3277 4448 3109 
C 4442 3084 4429 3000 4429 2974 
C 4429 2922 4461 2903 4499 2903 
C 4544 2903 4570 2929 4582 3045 
L 4717 4172 
C 4717 4191 4730 4255 4730 4268 
C 4730 4339 4672 4339 4557 4339 
L 1523 4339 
C 1402 4339 1338 4339 1338 4223 
C 1338 4153 1382 4153 1491 4153 
C 1888 4153 1888 4108 1888 4037 
C 1888 4005 1882 3979 1862 3908 
L 998 468 
C 941 248 928 185 480 185 
C 358 185 294 185 294 70 
C 294 0 352 0 390 0 
C 512 0 640 12 762 12 
L 1594 12 
C 1734 12 1888 0 2029 0 
C 2086 0 2163 0 2163 115 
C 2163 185 2125 185 1984 185 
C 1478 185 1466 229 1466 324 
C 1466 355 1478 405 1491 449 
L 1901 2054 
z
" id="CMMI12-46" transform="scale(0.015625)"/>
       <path d="M 1958 -1562 
C 1958 -1556 1958 -1543 1939 -1524 
C 1645 -1223 858 -403 858 1596 
C 858 3595 1632 4408 1946 4729 
C 1946 4735 1958 4748 1958 4767 
C 1958 4787 1939 4800 1914 4800 
C 1843 4800 1299 4325 986 3620 
C 666 2909 576 2218 576 1603 
C 576 1141 621 360 1005 -467 
C 1312 -1133 1837 -1600 1914 -1600 
C 1946 -1600 1958 -1588 1958 -1562 
z
" id="CMR17-28" transform="scale(0.015625)"/>
       <path d="M 4480 4153 
C 4518 4198 4550 4236 4550 4300 
C 4550 4345 4544 4352 4397 4352 
L 1754 4352 
C 1606 4352 1600 4345 1562 4230 
L 1210 3083 
C 1190 3019 1190 3007 1190 2994 
C 1190 2968 1210 2930 1254 2930 
C 1306 2930 1318 2956 1344 3039 
C 1581 3726 1894 4166 2906 4166 
L 3955 4166 
L 448 217 
C 390 147 365 121 365 51 
C 365 0 397 0 518 0 
L 3251 0 
C 3398 0 3405 6 3443 121 
L 3891 1529 
C 3898 1548 3910 1593 3910 1618 
C 3910 1650 3885 1682 3846 1682 
C 3795 1682 3789 1676 3738 1516 
C 3469 695 3187 198 2074 198 
L 966 198 
L 4480 4153 
z
" id="CMMI12-5a" transform="scale(0.015625)"/>
       <path d="M 1248 -26 
C 1248 345 1126 620 864 620 
C 659 620 557 454 557 313 
C 557 172 653 0 870 0 
C 954 0 1024 25 1082 83 
C 1094 96 1101 96 1107 96 
C 1120 96 1120 6 1120 -26 
C 1120 -233 1082 -642 710 -1051 
C 640 -1127 640 -1140 640 -1152 
C 640 -1184 672 -1216 704 -1216 
C 755 -1216 1248 -749 1248 -26 
z
" id="CMMI12-3b" transform="scale(0.015625)"/>
       <path d="M 2669 3886 
C 2707 4038 2720 4096 2816 4121 
C 2867 4134 3078 4134 3213 4134 
C 3853 4134 4154 4109 4154 3612 
C 4154 3516 4128 3274 4090 3038 
L 4083 2962 
C 4083 2937 4109 2898 4147 2898 
C 4211 2898 4211 2930 4230 3032 
L 4416 4159 
C 4429 4217 4429 4230 4429 4249 
C 4429 4319 4390 4319 4262 4319 
L 762 4319 
C 614 4319 608 4313 570 4198 
L 179 3051 
C 173 3038 154 2968 154 2962 
C 154 2930 179 2898 218 2898 
C 269 2898 282 2924 307 3007 
C 576 3777 710 4134 1562 4134 
L 1990 4134 
C 2144 4134 2208 4134 2208 4064 
C 2208 4045 2208 4032 2176 3917 
L 1318 497 
C 1254 249 1242 185 563 185 
C 403 185 358 185 358 64 
C 358 0 429 0 461 0 
C 621 0 787 12 947 12 
L 1946 12 
C 2106 12 2278 0 2438 0 
C 2509 0 2573 0 2573 121 
C 2573 185 2528 185 2362 185 
C 1786 185 1786 242 1786 338 
C 1786 344 1786 389 1811 491 
L 2669 3886 
z
" id="CMMI12-54" transform="scale(0.015625)"/>
       <path d="M 2925 2388 
C 2925 2790 2720 2816 2669 2816 
C 2515 2816 2374 2662 2374 2534 
C 2374 2458 2419 2413 2445 2388 
C 2509 2330 2675 2158 2675 1826 
C 2675 1558 2291 64 1523 64 
C 1133 64 1056 389 1056 625 
C 1056 945 1203 1392 1376 1851 
C 1478 2113 1504 2177 1504 2305 
C 1504 2573 1312 2816 998 2816 
C 410 2816 173 1890 173 1838 
C 173 1813 198 1781 243 1781 
C 301 1781 307 1807 333 1896 
C 486 2445 736 2687 979 2687 
C 1037 2687 1146 2687 1146 2477 
C 1146 2311 1075 2126 979 1883 
C 672 1066 672 868 672 715 
C 672 574 691 313 890 134 
C 1120 -64 1440 -64 1498 -64 
C 2560 -64 2925 2024 2925 2388 
z
" id="CMMI12-76" transform="scale(0.015625)"/>
       <path d="M 1683 1596 
C 1683 2057 1638 2839 1254 3665 
C 947 4332 422 4800 346 4800 
C 326 4800 301 4793 301 4761 
C 301 4748 307 4742 314 4729 
C 621 4408 1402 3595 1402 1603 
C 1402 -396 627 -1210 314 -1530 
C 307 -1543 301 -1549 301 -1562 
C 301 -1594 326 -1600 346 -1600 
C 416 -1600 960 -1127 1274 -422 
C 1594 289 1683 981 1683 1596 
z
" id="CMR17-29" transform="scale(0.015625)"/>
       <path d="M 2490 1775 
L 1210 3046 
C 1133 3123 1120 3136 1069 3136 
C 1005 3136 941 3078 941 3008 
C 941 2963 954 2950 1024 2880 
L 2304 1596 
L 1024 313 
C 954 243 941 230 941 185 
C 941 115 1005 57 1069 57 
C 1120 57 1133 70 1210 147 
L 2483 1418 
L 3808 95 
C 3821 89 3866 57 3904 57 
C 3981 57 4032 115 4032 185 
C 4032 198 4032 223 4013 255 
C 4006 268 2989 1271 2669 1596 
L 3840 2765 
C 3872 2803 3968 2886 4000 2925 
C 4006 2937 4032 2963 4032 3008 
C 4032 3078 3981 3136 3904 3136 
C 3853 3136 3827 3110 3757 3040 
L 2490 1775 
z
" id="CMSY10-2" transform="scale(0.015625)"/>
      </defs>
      <use transform="scale(0.996264)" xlink:href="#CMMI12-46"/>
      <use transform="translate(76.696793 0)scale(0.996264)" xlink:href="#CMR17-28"/>
      <use transform="translate(111.97756 0)scale(0.996264)" xlink:href="#CMMI12-5a"/>
      <use transform="translate(180.481717 0)scale(0.996264)" xlink:href="#CMMI12-3b"/>
      <use transform="translate(224.183299 0)scale(0.996264)" xlink:href="#CMMI12-54"/>
      <use transform="translate(281.358343 -14.943915)scale(0.697382)" xlink:href="#CMMI12-76"/>
      <use transform="translate(317.370925 0)scale(0.996264)" xlink:href="#CMR17-29"/>
      <use transform="translate(374.790899 0)scale(0.996264)" xlink:href="#CMSY10-2"/>
      <use transform="translate(474.417574 0)scale(0.996264)" xlink:href="#CMMI12-54"/>
      <use transform="translate(531.592618 -14.943915)scale(0.697382)" xlink:href="#CMMI12-76"/>
     </g>
    </g>
   </g>
   <g id="matplotlib.axis_2">
    <g id="ytick_1">
     <g id="line2d_3">
      <defs>
       <path d="M 0 0 
L -3.5 0 
" id="ma1bfe9ddd0" style="stroke:#000000;stroke-width:0.8;"/>
      </defs>
      <g>
       <use style="stroke:#000000;stroke-width:0.8;" x="39.316366" xlink:href="#ma1bfe9ddd0" y="11.407401"/>
      </g>
     </g>
     <g id="text_4">
      <!-- $\mathdefault{0.0}$ -->
      <g transform="translate(21.495677 14.174802)scale(0.08 -0.08)">
       <use transform="scale(0.996264)" xlink:href="#CMR17-30"/>
       <use transform="translate(45.690477 0)scale(0.996264)" xlink:href="#CMMI12-3a"/>
       <use transform="translate(72.787654 0)scale(0.996264)" xlink:href="#CMR17-30"/>
      </g>
     </g>
    </g>
    <g id="ytick_2">
     <g id="line2d_4">
      <g>
       <use style="stroke:#000000;stroke-width:0.8;" x="39.316366" xlink:href="#ma1bfe9ddd0" y="33.468483"/>
      </g>
     </g>
     <g id="text_5">
      <!-- $\mathdefault{0.2}$ -->
      <g transform="translate(21.495677 36.235884)scale(0.08 -0.08)">
       <use transform="scale(0.996264)" xlink:href="#CMR17-30"/>
       <use transform="translate(45.690477 0)scale(0.996264)" xlink:href="#CMMI12-3a"/>
       <use transform="translate(72.787654 0)scale(0.996264)" xlink:href="#CMR17-32"/>
      </g>
     </g>
    </g>
    <g id="ytick_3">
     <g id="line2d_5">
      <g>
       <use style="stroke:#000000;stroke-width:0.8;" x="39.316366" xlink:href="#ma1bfe9ddd0" y="55.529566"/>
      </g>
     </g>
     <g id="text_6">
      <!-- $\mathdefault{0.4}$ -->
      <g transform="translate(21.495677 58.296966)scale(0.08 -0.08)">
       <defs>
        <path d="M 2150 4147 
C 2150 4281 2144 4288 2029 4288 
L 128 1254 
L 128 1088 
L 1779 1088 
L 1779 460 
C 1779 230 1766 166 1318 166 
L 1197 166 
L 1197 0 
C 1402 12 1747 12 1965 12 
C 2182 12 2528 12 2733 0 
L 2733 166 
L 2611 166 
C 2163 166 2150 230 2150 460 
L 2150 1088 
L 2803 1088 
L 2803 1254 
L 2150 1254 
L 2150 4147 
z
M 1798 3723 
L 1798 1254 
L 256 1254 
L 1798 3723 
z
" id="CMR17-34" transform="scale(0.015625)"/>
       </defs>
       <use transform="scale(0.996264)" xlink:href="#CMR17-30"/>
       <use transform="translate(45.690477 0)scale(0.996264)" xlink:href="#CMMI12-3a"/>
       <use transform="translate(72.787654 0)scale(0.996264)" xlink:href="#CMR17-34"/>
      </g>
     </g>
    </g>
    <g id="ytick_4">
     <g id="line2d_6">
      <g>
       <use style="stroke:#000000;stroke-width:0.8;" x="39.316366" xlink:href="#ma1bfe9ddd0" y="77.590648"/>
      </g>
     </g>
     <g id="text_7">
      <!-- $\mathdefault{0.6}$ -->
      <g transform="translate(21.495677 80.358049)scale(0.08 -0.08)">
       <defs>
        <path d="M 678 2198 
C 678 3712 1395 4076 1811 4076 
C 1946 4076 2272 4049 2400 3782 
C 2298 3782 2106 3782 2106 3558 
C 2106 3385 2246 3328 2336 3328 
C 2394 3328 2566 3353 2566 3571 
C 2566 3987 2246 4224 1805 4224 
C 1043 4224 243 3411 243 2011 
C 243 257 966 -128 1478 -128 
C 2099 -128 2688 431 2688 1295 
C 2688 2101 2170 2688 1517 2688 
C 1126 2688 838 2430 678 1979 
L 678 2198 
z
M 1478 25 
C 691 25 691 1212 691 1450 
C 691 1914 909 2585 1504 2585 
C 1613 2585 1926 2585 2138 2140 
C 2253 1889 2253 1624 2253 1302 
C 2253 954 2253 696 2118 438 
C 1978 173 1773 25 1478 25 
z
" id="CMR17-36" transform="scale(0.015625)"/>
       </defs>
       <use transform="scale(0.996264)" xlink:href="#CMR17-30"/>
       <use transform="translate(45.690477 0)scale(0.996264)" xlink:href="#CMMI12-3a"/>
       <use transform="translate(72.787654 0)scale(0.996264)" xlink:href="#CMR17-36"/>
      </g>
     </g>
    </g>
    <g id="ytick_5">
     <g id="line2d_7">
      <g>
       <use style="stroke:#000000;stroke-width:0.8;" x="39.316366" xlink:href="#ma1bfe9ddd0" y="99.65173"/>
      </g>
     </g>
     <g id="text_8">
      <!-- $\mathdefault{0.8}$ -->
      <g transform="translate(21.495677 102.419131)scale(0.08 -0.08)">
       <defs>
        <path d="M 1741 2289 
C 2144 2494 2554 2803 2554 3298 
C 2554 3884 1990 4224 1472 4224 
C 890 4224 378 3800 378 3215 
C 378 3054 416 2777 666 2533 
C 730 2469 998 2276 1171 2154 
C 883 2006 211 1652 211 945 
C 211 282 838 -128 1459 -128 
C 2144 -128 2720 366 2720 1022 
C 2720 1607 2330 1877 2074 2051 
L 1741 2289 
z
M 902 2855 
C 851 2887 595 3086 595 3388 
C 595 3781 998 4076 1459 4076 
C 1965 4076 2336 3716 2336 3298 
C 2336 2700 1670 2359 1638 2359 
C 1632 2359 1626 2359 1574 2398 
L 902 2855 
z
M 2080 1536 
C 2176 1466 2483 1253 2483 861 
C 2483 385 2010 25 1472 25 
C 890 25 448 443 448 951 
C 448 1459 838 1884 1280 2083 
L 2080 1536 
z
" id="CMR17-38" transform="scale(0.015625)"/>
       </defs>
       <use transform="scale(0.996264)" xlink:href="#CMR17-30"/>
       <use transform="translate(45.690477 0)scale(0.996264)" xlink:href="#CMMI12-3a"/>
       <use transform="translate(72.787654 0)scale(0.996264)" xlink:href="#CMR17-38"/>
      </g>
     </g>
    </g>
    <g id="ytick_6">
     <g id="line2d_8">
      <g>
       <use style="stroke:#000000;stroke-width:0.8;" x="39.316366" xlink:href="#ma1bfe9ddd0" y="121.712812"/>
      </g>
     </g>
     <g id="text_9">
      <!-- $\mathdefault{1.0}$ -->
      <g transform="translate(21.495677 124.480213)scale(0.08 -0.08)">
       <defs>
        <path d="M 1702 4083 
C 1702 4217 1696 4224 1606 4224 
C 1357 3927 979 3833 621 3820 
C 602 3820 570 3820 563 3808 
C 557 3795 557 3782 557 3648 
C 755 3648 1088 3686 1344 3839 
L 1344 467 
C 1344 243 1331 166 781 166 
L 589 166 
L 589 0 
C 896 6 1216 12 1523 12 
C 1830 12 2150 6 2458 0 
L 2458 166 
L 2266 166 
C 1715 166 1702 236 1702 467 
L 1702 4083 
z
" id="CMR17-31" transform="scale(0.015625)"/>
       </defs>
       <use transform="scale(0.996264)" xlink:href="#CMR17-31"/>
       <use transform="translate(45.690477 0)scale(0.996264)" xlink:href="#CMMI12-3a"/>
       <use transform="translate(72.787654 0)scale(0.996264)" xlink:href="#CMR17-30"/>
      </g>
     </g>
    </g>
    <g id="text_10">
     <!-- $Z$ -->
     <g transform="translate(15.558498 69.960555)rotate(-90)scale(0.1 -0.1)">
      <use transform="scale(0.996264)" xlink:href="#CMMI12-5a"/>
     </g>
    </g>
   </g>
   <g id="line2d_9">
    <path clip-path="url(#pe4de04ca38)" d="M 128.745248 11.407401 
L 126.48165 12.521597 
L 124.276453 13.635793 
L 122.129567 14.749989 
L 120.040843 15.864185 
L 118.010075 16.978381 
L 116.036996 18.092577 
L 114.121285 19.206773 
L 112.262561 20.320969 
L 110.46039 21.435166 
L 108.714285 22.549362 
L 107.023704 23.663558 
L 105.388056 24.777754 
L 103.806701 25.89195 
L 102.27895 27.006146 
L 100.804069 28.120342 
L 99.381284 29.234538 
L 98.009777 30.348734 
L 96.688691 31.46293 
L 95.417134 32.577126 
L 94.194181 33.691322 
L 93.018875 34.805518 
L 91.890229 35.919715 
L 90.80723 37.033911 
L 89.768844 38.148107 
L 88.774014 39.262303 
L 87.821663 40.376499 
L 86.910702 41.490695 
L 86.040027 42.604891 
L 85.208523 43.719087 
L 84.415067 44.833283 
L 83.658532 45.947479 
L 82.937787 47.061675 
L 82.2517 48.175871 
L 81.59914 49.290067 
L 80.978982 50.404264 
L 80.390104 51.51846 
L 79.831395 52.632656 
L 79.301751 53.746852 
L 78.800082 54.861048 
L 78.325311 55.975244 
L 77.876374 57.08944 
L 77.452227 58.203636 
L 77.051842 59.317832 
L 76.67421 60.432028 
L 76.318345 61.546224 
L 75.98328 62.66042 
L 75.668072 63.774616 
L 75.371801 64.888813 
L 75.093572 66.003009 
L 74.832513 67.117205 
L 74.58778 68.231401 
L 74.358553 69.345597 
L 74.144037 70.459793 
L 73.943468 71.573989 
L 73.756103 72.688185 
L 73.581229 73.802381 
L 73.41816 74.916577 
L 73.266233 76.030773 
L 73.124816 77.144969 
L 72.993299 78.259165 
L 72.871101 79.373362 
L 72.757663 80.487558 
L 72.652456 81.601754 
L 72.55497 82.71595 
L 72.464723 83.830146 
L 72.381255 84.944342 
L 72.304129 86.058538 
L 72.232932 87.172734 
L 72.16727 88.28693 
L 72.106772 89.401126 
L 72.051088 90.515322 
L 71.999885 91.629518 
L 71.952853 92.743714 
L 71.909697 93.857911 
L 71.870142 94.972107 
L 71.833928 96.086303 
L 71.800814 97.200499 
L 71.770573 98.314695 
L 71.742994 99.428891 
L 71.717879 100.543087 
L 71.695045 101.657283 
L 71.674322 102.771479 
L 71.655554 103.885675 
L 71.638594 104.999871 
L 71.62331 106.114067 
L 71.609579 107.228263 
L 71.597288 108.34246 
L 71.586337 109.456656 
L 71.576632 110.570852 
L 71.568092 111.685048 
L 71.560643 112.799244 
L 71.554219 113.91344 
L 71.548764 115.027636 
L 71.54423 116.141832 
L 71.540574 117.256028 
L 71.537765 118.370224 
L 71.535777 119.48442 
L 71.534591 120.598616 
L 71.534197 121.712812 
" style="fill:none;stroke:#5302a3;stroke-linecap:square;"/>
   </g>
   <g id="line2d_10">
    <path clip-path="url(#pe4de04ca38)" d="M 141.119066 11.407401 
L 138.846915 12.521597 
L 136.616074 13.635793 
L 134.426514 14.749989 
L 132.278181 15.864185 
L 130.171002 16.978381 
L 128.104882 18.092577 
L 126.079707 19.206773 
L 124.095342 20.320969 
L 122.151631 21.435166 
L 120.248398 22.549362 
L 118.385448 23.663558 
L 116.562567 24.777754 
L 114.779521 25.89195 
L 113.036057 27.006146 
L 111.331904 28.120342 
L 109.666773 29.234538 
L 108.040358 30.348734 
L 106.452335 31.46293 
L 104.902363 32.577126 
L 103.390087 33.691322 
L 101.915135 34.805518 
L 100.477119 35.919715 
L 99.075639 37.033911 
L 97.710279 38.148107 
L 96.380609 39.262303 
L 95.08619 40.376499 
L 93.826567 41.490695 
L 92.601276 42.604891 
L 91.40984 43.719087 
L 90.251774 44.833283 
L 89.126582 45.947479 
L 88.033761 47.061675 
L 86.972797 48.175871 
L 85.943171 49.290067 
L 84.944355 50.404264 
L 83.975818 51.51846 
L 83.03702 52.632656 
L 82.127418 53.746852 
L 81.246464 54.861048 
L 80.393609 55.975244 
L 79.568298 57.08944 
L 78.769975 58.203636 
L 77.998083 59.317832 
L 77.252064 60.432028 
L 76.53136 61.546224 
L 75.835412 62.66042 
L 75.163663 63.774616 
L 74.515559 64.888813 
L 73.890545 66.003009 
L 73.288071 67.117205 
L 72.707591 68.231401 
L 72.14856 69.345597 
L 71.61044 70.459793 
L 71.092698 71.573989 
L 70.594803 72.688185 
L 70.116235 73.802381 
L 69.656476 74.916577 
L 69.215017 76.030773 
L 68.791355 77.144969 
L 68.384998 78.259165 
L 67.995457 79.373362 
L 67.622255 80.487558 
L 67.264922 81.601754 
L 66.923 82.71595 
L 66.596037 83.830146 
L 66.283593 84.944342 
L 65.985237 86.058538 
L 65.700549 87.172734 
L 65.42912 88.28693 
L 65.170552 89.401126 
L 64.924457 90.515322 
L 64.69046 91.629518 
L 64.468197 92.743714 
L 64.257315 93.857911 
L 64.057474 94.972107 
L 63.868347 96.086303 
L 63.689617 97.200499 
L 63.520981 98.314695 
L 63.36215 99.428891 
L 63.212845 100.543087 
L 63.072802 101.657283 
L 62.941768 102.771479 
L 62.819506 103.885675 
L 62.70579 104.999871 
L 62.600408 106.114067 
L 62.503161 107.228263 
L 62.413864 108.34246 
L 62.332344 109.456656 
L 62.258445 110.570852 
L 62.192021 111.685048 
L 62.132941 112.799244 
L 62.081088 113.91344 
L 62.036359 115.027636 
L 61.998663 116.141832 
L 61.967924 117.256028 
L 61.944081 118.370224 
L 61.927085 119.48442 
L 61.916901 120.598616 
L 61.913509 121.712812 
" style="fill:none;stroke:#8b0aa5;stroke-linecap:square;"/>
   </g>
   <g id="line2d_11">
    <path clip-path="url(#pe4de04ca38)" d="M 152.091447 11.407401 
L 149.81344 12.521597 
L 147.56504 13.635793 
L 145.346238 14.749989 
L 143.157017 15.864185 
L 140.997355 16.978381 
L 138.867222 18.092577 
L 136.766582 19.206773 
L 134.695393 20.320969 
L 132.653606 21.435166 
L 130.641166 22.549362 
L 128.658013 23.663558 
L 126.704078 24.777754 
L 124.779289 25.89195 
L 122.883565 27.006146 
L 121.01682 28.120342 
L 119.178964 29.234538 
L 117.369899 30.348734 
L 115.589522 31.46293 
L 113.837724 32.577126 
L 112.114391 33.691322 
L 110.419404 34.805518 
L 108.752638 35.919715 
L 107.113964 37.033911 
L 105.503246 38.148107 
L 103.920344 39.262303 
L 102.365116 40.376499 
L 100.83741 41.490695 
L 99.337076 42.604891 
L 97.863954 43.719087 
L 96.417884 44.833283 
L 94.9987 45.947479 
L 93.606233 47.061675 
L 92.24031 48.175871 
L 90.900754 49.290067 
L 89.587388 50.404264 
L 88.300028 51.51846 
L 87.038488 52.632656 
L 85.802583 53.746852 
L 84.59212 54.861048 
L 83.406907 55.975244 
L 82.246751 57.08944 
L 81.111453 58.203636 
L 80.000817 59.317832 
L 78.914643 60.432028 
L 77.852729 61.546224 
L 76.814874 62.66042 
L 75.800875 63.774616 
L 74.810529 64.888813 
L 73.843631 66.003009 
L 72.899978 67.117205 
L 71.979365 68.231401 
L 71.081589 69.345597 
L 70.206446 70.459793 
L 69.353732 71.573989 
L 68.523246 72.688185 
L 67.714786 73.802381 
L 66.928153 74.916577 
L 66.163147 76.030773 
L 65.419571 77.144969 
L 64.697231 78.259165 
L 63.995933 79.373362 
L 63.315485 80.487558 
L 62.655699 81.601754 
L 62.01639 82.71595 
L 61.397372 83.830146 
L 60.798466 84.944342 
L 60.219495 86.058538 
L 59.660283 87.172734 
L 59.120661 88.28693 
L 58.60046 89.401126 
L 58.099519 90.515322 
L 57.617677 91.629518 
L 57.154779 92.743714 
L 56.710674 93.857911 
L 56.285215 94.972107 
L 55.878261 96.086303 
L 55.489673 97.200499 
L 55.11932 98.314695 
L 54.767073 99.428891 
L 54.43281 100.543087 
L 54.116414 101.657283 
L 53.817772 102.771479 
L 53.536778 103.885675 
L 53.27333 104.999871 
L 53.027334 106.114067 
L 52.798699 107.228263 
L 52.587341 108.34246 
L 52.393183 109.456656 
L 52.216152 110.570852 
L 52.056182 111.685048 
L 51.913214 112.799244 
L 51.787192 113.91344 
L 51.67807 115.027636 
L 51.585806 116.141832 
L 51.510366 117.256028 
L 51.45172 118.370224 
L 51.409846 119.48442 
L 51.384728 120.598616 
L 51.376356 121.712812 
" style="fill:none;stroke:#b83289;stroke-linecap:square;"/>
   </g>
   <g id="line2d_12">
    <path clip-path="url(#pe4de04ca38)" d="M 156.103767 11.407401 
L 153.823734 12.521597 
L 151.569257 13.635793 
L 149.340334 14.749989 
L 147.136957 15.864185 
L 144.95912 16.978381 
L 142.80681 18.092577 
L 140.680014 19.206773 
L 138.578718 20.320969 
L 136.502903 21.435166 
L 134.452548 22.549362 
L 132.427632 23.663558 
L 130.428129 24.777754 
L 128.454012 25.89195 
L 126.505252 27.006146 
L 124.581817 28.120342 
L 122.683673 29.234538 
L 120.810784 30.348734 
L 118.963113 31.46293 
L 117.140619 32.577126 
L 115.343259 33.691322 
L 113.570991 34.805518 
L 111.823767 35.919715 
L 110.10154 37.033911 
L 108.404259 38.148107 
L 106.731874 39.262303 
L 105.084331 40.376499 
L 103.461574 41.490695 
L 101.863547 42.604891 
L 100.290192 43.719087 
L 98.741449 44.833283 
L 97.217257 45.947479 
L 95.717552 47.061675 
L 94.242271 48.175871 
L 92.791348 49.290067 
L 91.364718 50.404264 
L 89.962311 51.51846 
L 88.584061 52.632656 
L 87.229896 53.746852 
L 85.899747 54.861048 
L 84.593541 55.975244 
L 83.311207 57.08944 
L 82.052671 58.203636 
L 80.81786 59.317832 
L 79.6067 60.432028 
L 78.419115 61.546224 
L 77.255031 62.66042 
L 76.114372 63.774616 
L 74.997063 64.888813 
L 73.903027 66.003009 
L 72.832188 67.117205 
L 71.784471 68.231401 
L 70.759799 69.345597 
L 69.758097 70.459793 
L 68.779288 71.573989 
L 67.823297 72.688185 
L 66.890049 73.802381 
L 65.97947 74.916577 
L 65.091484 76.030773 
L 64.22602 77.144969 
L 63.383002 78.259165 
L 62.56236 79.373362 
L 61.764021 80.487558 
L 60.987916 81.601754 
L 60.233974 82.71595 
L 59.502126 83.830146 
L 58.792306 84.944342 
L 58.104446 86.058538 
L 57.438482 87.172734 
L 56.794349 88.28693 
L 56.171984 89.401126 
L 55.571327 90.515322 
L 54.992318 91.629518 
L 54.434898 92.743714 
L 53.899011 93.857911 
L 53.384601 94.972107 
L 52.891616 96.086303 
L 52.420003 97.200499 
L 51.969714 98.314695 
L 51.540699 99.428891 
L 51.132913 100.543087 
L 50.746312 101.657283 
L 50.380853 102.771479 
L 50.036497 103.885675 
L 49.713205 104.999871 
L 49.410942 106.114067 
L 49.129674 107.228263 
L 48.869369 108.34246 
L 48.629998 109.456656 
L 48.411533 110.570852 
L 48.21395 111.685048 
L 48.037227 112.799244 
L 47.881342 113.91344 
L 47.746279 115.027636 
L 47.632021 116.141832 
L 47.538555 117.256028 
L 47.465871 118.370224 
L 47.413959 119.48442 
L 47.382815 120.598616 
L 47.372434 121.712812 
" style="fill:none;stroke:#db5c68;stroke-linecap:square;"/>
   </g>
   <g id="line2d_13">
    <path clip-path="url(#pe4de04ca38)" d="M 157.597707 11.407401 
L 155.316921 12.521597 
L 153.060188 13.635793 
L 150.827507 14.749989 
L 148.618876 15.864185 
L 146.43429 16.978381 
L 144.273747 18.092577 
L 142.137241 19.206773 
L 140.024767 20.320969 
L 137.936317 21.435166 
L 135.871885 22.549362 
L 133.831462 23.663558 
L 131.815038 24.777754 
L 129.822603 25.89195 
L 127.854147 27.006146 
L 125.909658 28.120342 
L 123.989123 29.234538 
L 122.092528 30.348734 
L 120.21986 31.46293 
L 118.371104 32.577126 
L 116.546243 33.691322 
L 114.745262 34.805518 
L 112.968143 35.919715 
L 111.214868 37.033911 
L 109.485419 38.148107 
L 107.779777 39.262303 
L 106.097921 40.376499 
L 104.439832 41.490695 
L 102.805487 42.604891 
L 101.194866 43.719087 
L 99.607946 44.833283 
L 98.044703 45.947479 
L 96.505116 47.061675 
L 94.989159 48.175871 
L 93.496809 49.290067 
L 92.028041 50.404264 
L 90.58283 51.51846 
L 89.161149 52.632656 
L 87.762973 53.746852 
L 86.388276 54.861048 
L 85.037032 55.975244 
L 83.709212 57.08944 
L 82.40479 58.203636 
L 81.123738 59.317832 
L 79.866029 60.432028 
L 78.631636 61.546224 
L 77.420529 62.66042 
L 76.23268 63.774616 
L 75.068063 64.888813 
L 73.926647 66.003009 
L 72.808406 67.117205 
L 71.71331 68.231401 
L 70.641331 69.345597 
L 69.592441 70.459793 
L 68.566612 71.573989 
L 67.563815 72.688185 
L 66.584023 73.802381 
L 65.627207 74.916577 
L 64.693341 76.030773 
L 63.782396 77.144969 
L 62.894345 78.259165 
L 62.029162 79.373362 
L 61.18682 80.487558 
L 60.367292 81.601754 
L 59.570552 82.71595 
L 58.796575 83.830146 
L 58.045336 84.944342 
L 57.31681 86.058538 
L 56.610972 87.172734 
L 55.927799 88.28693 
L 55.267268 89.401126 
L 54.629354 90.515322 
L 54.014037 91.629518 
L 53.421295 92.743714 
L 52.851106 93.857911 
L 52.303449 94.972107 
L 51.778306 96.086303 
L 51.275656 97.200499 
L 50.795481 98.314695 
L 50.337763 99.428891 
L 49.902486 100.543087 
L 49.489632 101.657283 
L 49.099186 102.771479 
L 48.731133 103.885675 
L 48.385458 104.999871 
L 48.062149 106.114067 
L 47.761193 107.228263 
L 47.482577 108.34246 
L 47.226292 109.456656 
L 46.992327 110.570852 
L 46.780672 111.685048 
L 46.59132 112.799244 
L 46.424262 113.91344 
L 46.279492 115.027636 
L 46.157004 116.141832 
L 46.056793 117.256028 
L 45.978856 118.370224 
L 45.923189 119.48442 
L 45.889789 120.598616 
L 45.878656 121.712812 
" style="fill:none;stroke:#f48849;stroke-linecap:square;"/>
   </g>
   <g id="line2d_14">
    <path clip-path="url(#pe4de04ca38)" d="M 158.485289 11.407401 
L 156.204057 12.521597 
L 153.945984 13.635793 
L 151.711071 14.749989 
L 149.499318 15.864185 
L 147.310724 16.978381 
L 145.14529 18.092577 
L 143.003016 19.206773 
L 140.883901 20.320969 
L 138.787947 21.435166 
L 136.715152 22.549362 
L 134.665516 23.663558 
L 132.639041 24.777754 
L 130.635725 25.89195 
L 128.655569 27.006146 
L 126.698572 28.120342 
L 124.764736 29.234538 
L 122.854059 30.348734 
L 120.966541 31.46293 
L 119.102184 32.577126 
L 117.260986 33.691322 
L 115.442948 34.805518 
L 113.64807 35.919715 
L 111.876351 37.033911 
L 110.127792 38.148107 
L 108.402393 39.262303 
L 106.700153 40.376499 
L 105.021074 41.490695 
L 103.365154 42.604891 
L 101.732393 43.719087 
L 100.122793 44.833283 
L 98.536352 45.947479 
L 96.973071 47.061675 
L 95.432949 48.175871 
L 93.915987 49.290067 
L 92.422185 50.404264 
L 90.951543 51.51846 
L 89.504061 52.632656 
L 88.079738 53.746852 
L 86.678575 54.861048 
L 85.300571 55.975244 
L 83.945727 57.08944 
L 82.614044 58.203636 
L 81.305519 59.317832 
L 80.020155 60.432028 
L 78.75795 61.546224 
L 77.518905 62.66042 
L 76.30302 63.774616 
L 75.110294 64.888813 
L 73.940728 66.003009 
L 72.794322 67.117205 
L 71.671075 68.231401 
L 70.570989 69.345597 
L 69.494062 70.459793 
L 68.440294 71.573989 
L 67.409687 72.688185 
L 66.402239 73.802381 
L 65.417951 74.916577 
L 64.456822 76.030773 
L 63.518854 77.144969 
L 62.604045 78.259165 
L 61.712395 79.373362 
L 60.843906 80.487558 
L 59.998576 81.601754 
L 59.176406 82.71595 
L 58.377396 83.830146 
L 57.601545 84.944342 
L 56.848854 86.058538 
L 56.119323 87.172734 
L 55.412951 88.28693 
L 54.72974 89.401126 
L 54.069687 90.515322 
L 53.432795 91.629518 
L 52.819063 92.743714 
L 52.22849 93.857911 
L 51.661076 94.972107 
L 51.116823 96.086303 
L 50.595729 97.200499 
L 50.097795 98.314695 
L 49.623021 99.428891 
L 49.171406 100.543087 
L 48.742952 101.657283 
L 48.337657 102.771479 
L 47.955521 103.885675 
L 47.596545 104.999871 
L 47.260729 106.114067 
L 46.948073 107.228263 
L 46.658577 108.34246 
L 46.39224 109.456656 
L 46.149063 110.570852 
L 45.929046 111.685048 
L 45.732188 112.799244 
L 45.55849 113.91344 
L 45.407952 115.027636 
L 45.280573 116.141832 
L 45.176355 117.256028 
L 45.095296 118.370224 
L 45.037396 119.48442 
L 45.002657 120.598616 
L 44.991077 121.712812 
" style="fill:none;stroke:#febd2a;stroke-linecap:square;"/>
   </g>
   <g id="patch_3">
    <path d="M 39.316366 121.712812 
L 39.316366 11.407401 
" style="fill:none;stroke:#000000;stroke-linecap:square;stroke-linejoin:miter;stroke-width:0.8;"/>
   </g>
   <g id="patch_4">
    <path d="M 164.16 121.712812 
L 164.16 11.407401 
" style="fill:none;stroke:#000000;stroke-linecap:square;stroke-linejoin:miter;stroke-width:0.8;"/>
   </g>
   <g id="patch_5">
    <path d="M 39.316366 121.712812 
L 164.16 121.712812 
" style="fill:none;stroke:#000000;stroke-linecap:square;stroke-linejoin:miter;stroke-width:0.8;"/>
   </g>
   <g id="patch_6">
    <path d="M 39.316366 11.407401 
L 164.16 11.407401 
" style="fill:none;stroke:#000000;stroke-linecap:square;stroke-linejoin:miter;stroke-width:0.8;"/>
   </g>
   <g id="legend_1">
    <g id="patch_7">
     <path d="M 106.705128 117.712812 
L 160.16 117.712812 
L 160.16 38.814338 
L 106.705128 38.814338 
z
" style="fill:#ffffff;stroke:#000000;stroke-linejoin:miter;"/>
    </g>
    <g id="line2d_15">
     <path d="M 114.705128 49.614338 
L 130.705128 49.614338 
" style="fill:none;stroke:#5302a3;stroke-linecap:square;"/>
    </g>
    <g id="line2d_16"/>
    <g id="text_11">
     <!-- 0.05 -->
     <g transform="translate(137.105128 52.414338)scale(0.08 -0.08)">
      <defs>
       <path d="M 1062 262 
C 1062 422 934 524 800 524 
C 672 524 538 422 538 262 
C 538 102 666 0 800 0 
C 928 0 1062 102 1062 262 
z
" id="CMR17-2e" transform="scale(0.015625)"/>
       <path d="M 730 3750 
C 794 3724 1056 3641 1325 3641 
C 1920 3641 2246 3961 2432 4140 
C 2432 4191 2432 4224 2394 4224 
C 2387 4224 2374 4224 2323 4198 
C 2099 4102 1837 4032 1517 4032 
C 1325 4032 1037 4055 723 4191 
C 653 4224 640 4224 634 4224 
C 602 4224 595 4217 595 4090 
L 595 2231 
C 595 2113 595 2080 659 2080 
C 691 2080 704 2093 736 2139 
C 941 2435 1222 2560 1542 2560 
C 1766 2560 2246 2415 2246 1293 
C 2246 1087 2246 716 2054 422 
C 1894 159 1645 25 1370 25 
C 947 25 518 319 403 812 
C 429 806 480 793 506 793 
C 589 793 749 838 749 1036 
C 749 1209 627 1280 506 1280 
C 358 1280 262 1190 262 1011 
C 262 454 704 -128 1382 -128 
C 2042 -128 2669 441 2669 1267 
C 2669 2054 2170 2662 1549 2662 
C 1222 2662 947 2540 730 2304 
L 730 3750 
z
" id="CMR17-35" transform="scale(0.015625)"/>
      </defs>
      <use transform="scale(0.996264)" xlink:href="#CMR17-30"/>
      <use transform="translate(45.690477 0)scale(0.996264)" xlink:href="#CMR17-2e"/>
      <use transform="translate(70.561536 0)scale(0.996264)" xlink:href="#CMR17-30"/>
      <use transform="translate(116.252013 0)scale(0.996264)" xlink:href="#CMR17-35"/>
     </g>
    </g>
    <g id="line2d_17">
     <path d="M 114.705128 60.764084 
L 130.705128 60.764084 
" style="fill:none;stroke:#8b0aa5;stroke-linecap:square;"/>
    </g>
    <g id="line2d_18"/>
    <g id="text_12">
     <!-- 0.1 -->
     <g transform="translate(137.105128 63.564084)scale(0.08 -0.08)">
      <use transform="scale(0.996264)" xlink:href="#CMR17-30"/>
      <use transform="translate(45.690477 0)scale(0.996264)" xlink:href="#CMR17-2e"/>
      <use transform="translate(70.561536 0)scale(0.996264)" xlink:href="#CMR17-31"/>
     </g>
    </g>
    <g id="line2d_19">
     <path d="M 114.705128 71.91383 
L 130.705128 71.91383 
" style="fill:none;stroke:#b83289;stroke-linecap:square;"/>
    </g>
    <g id="line2d_20"/>
    <g id="text_13">
     <!-- 0.2 -->
     <g transform="translate(137.105128 74.71383)scale(0.08 -0.08)">
      <use transform="scale(0.996264)" xlink:href="#CMR17-30"/>
      <use transform="translate(45.690477 0)scale(0.996264)" xlink:href="#CMR17-2e"/>
      <use transform="translate(70.561536 0)scale(0.996264)" xlink:href="#CMR17-32"/>
     </g>
    </g>
    <g id="line2d_21">
     <path d="M 114.705128 83.063575 
L 130.705128 83.063575 
" style="fill:none;stroke:#db5c68;stroke-linecap:square;"/>
    </g>
    <g id="line2d_22"/>
    <g id="text_14">
     <!-- 0.3 -->
     <g transform="translate(137.105128 85.863575)scale(0.08 -0.08)">
      <defs>
       <path d="M 1414 2176 
C 1984 2176 2234 1673 2234 1094 
C 2234 322 1824 25 1453 25 
C 1114 25 563 193 390 691 
C 422 678 454 678 486 678 
C 640 678 755 780 755 947 
C 755 1132 614 1216 486 1216 
C 378 1216 211 1164 211 927 
C 211 335 787 -128 1466 -128 
C 2176 -128 2720 432 2720 1087 
C 2720 1718 2208 2176 1600 2246 
C 2086 2347 2554 2776 2554 3353 
C 2554 3856 2048 4224 1472 4224 
C 890 4224 378 3862 378 3347 
C 378 3123 544 3084 627 3084 
C 762 3084 877 3167 877 3334 
C 877 3500 762 3584 627 3584 
C 602 3584 570 3584 544 3571 
C 730 3999 1235 4076 1459 4076 
C 1683 4076 2106 3966 2106 3347 
C 2106 3167 2080 2851 1862 2574 
C 1670 2329 1453 2316 1242 2297 
C 1210 2297 1062 2284 1037 2284 
C 992 2278 966 2272 966 2227 
C 966 2182 973 2176 1101 2176 
L 1414 2176 
z
" id="CMR17-33" transform="scale(0.015625)"/>
      </defs>
      <use transform="scale(0.996264)" xlink:href="#CMR17-30"/>
      <use transform="translate(45.690477 0)scale(0.996264)" xlink:href="#CMR17-2e"/>
      <use transform="translate(70.561536 0)scale(0.996264)" xlink:href="#CMR17-33"/>
     </g>
    </g>
    <g id="line2d_23">
     <path d="M 114.705128 94.213321 
L 130.705128 94.213321 
" style="fill:none;stroke:#f48849;stroke-linecap:square;"/>
    </g>
    <g id="line2d_24"/>
    <g id="text_15">
     <!-- 0.4 -->
     <g transform="translate(137.105128 97.013321)scale(0.08 -0.08)">
      <use transform="scale(0.996264)" xlink:href="#CMR17-30"/>
      <use transform="translate(45.690477 0)scale(0.996264)" xlink:href="#CMR17-2e"/>
      <use transform="translate(70.561536 0)scale(0.996264)" xlink:href="#CMR17-34"/>
     </g>
    </g>
    <g id="line2d_25">
     <path d="M 114.705128 105.363067 
L 130.705128 105.363067 
" style="fill:none;stroke:#febd2a;stroke-linecap:square;"/>
    </g>
    <g id="line2d_26"/>
    <g id="text_16">
     <!-- 100 -->
     <g transform="translate(137.105128 108.163067)scale(0.08 -0.08)">
      <use transform="scale(0.996264)" xlink:href="#CMR17-31"/>
      <use transform="translate(45.690477 0)scale(0.996264)" xlink:href="#CMR17-30"/>
      <use transform="translate(91.380954 0)scale(0.996264)" xlink:href="#CMR17-30"/>
     </g>
    </g>
   </g>
  </g>
 </g>
 <defs>
  <clipPath id="pe4de04ca38">
   <rect height="110.305412" width="124.843634" x="39.316366" y="11.407401"/>
  </clipPath>
 </defs>
</svg>
