<?xml version="1.0" encoding="UTF-8" standalone="no"?>
<!-- Created with Inkscape (http://www.inkscape.org/) -->

<svg
   width="1in"
   height="1in"
   viewBox="0 0 25.4 25.4"
   version="1.1"
   id="svg858"
   inkscape:version="1.3.2 (091e20e, 2023-11-25, custom)"
   sodipodi:docname="breaking_horizontal.svg"
   xmlns:inkscape="http://www.inkscape.org/namespaces/inkscape"
   xmlns:sodipodi="http://sodipodi.sourceforge.net/DTD/sodipodi-0.dtd"
   xmlns="http://www.w3.org/2000/svg"
   xmlns:svg="http://www.w3.org/2000/svg">
  <sodipodi:namedview
     id="namedview860"
     pagecolor="#505050"
     bordercolor="#ffffff"
     borderopacity="1"
     inkscape:pageshadow="0"
     inkscape:pageopacity="0"
     inkscape:pagecheckerboard="1"
     inkscape:document-units="mm"
     showgrid="false"
     units="in"
     inkscape:snap-intersection-paths="true"
     inkscape:snap-page="true"
     inkscape:snap-global="false"
     inkscape:zoom="4.5896746"
     inkscape:cx="131.70869"
     inkscape:cy="17.866191"
     inkscape:window-width="2400"
     inkscape:window-height="1280"
     inkscape:window-x="2391"
     inkscape:window-y="-9"
     inkscape:window-maximized="1"
     inkscape:current-layer="layer1"
     inkscape:snap-smooth-nodes="true"
     inkscape:showpageshadow="0"
     inkscape:deskcolor="#d1d1d1" />
  <defs
     id="defs855">
    <marker
       style="overflow:visible;"
       id="Arrow2Mend"
       refX="0.0"
       refY="0.0"
       orient="auto"
       inkscape:stockid="Arrow2Mend"
       inkscape:isstock="true">
      <path
         transform="scale(0.6) rotate(180) translate(0,0)"
         d="M 8.7185878,4.0337352 L -2.2072895,0.016013256 L 8.7185884,-4.0017078 C 6.9730900,-1.6296469 6.9831476,1.6157441 8.7185878,4.0337352 z "
         style="stroke:context-stroke;fill-rule:evenodd;fill:context-stroke;stroke-width:0.62500000;stroke-linejoin:round;"
         id="path1187" />
    </marker>
    <symbol
       id="hand-point-right">
      <title
         id="hand-point-right-title">Hand Pointing Right</title>
      <path
         d="M 113.45333,36.406667 H 90.652335 A 30.564667,30.564667 0 0 0 91.228069,30.48 c 0,-12.677246 -9.279467,-22.0133333 -24.341667,-22.0133333 -11.989329,0 -15.081779,12.8420813 -20.03081,20.8449333 -2.046552,3.284273 -4.49633,6.16929 -6.839744,8.79819 l -0.03466,0.03863 -0.03413,0.03916 C 35.893904,42.811435 33.804225,44.45 31.961667,44.45 h -0.708819 c -1.520561,-1.310217 -3.5814,-2.116667 -5.852583,-2.116667 H 8.4666667 C 3.7906854,42.333333 0,45.744871 0,49.953333 v 60.959997 c 0,4.20847 3.7906854,7.62 8.4666667,7.62 H 25.4 c 2.271183,0 4.332023,-0.80645 5.852583,-2.11666 h 0.708819 c 7.590367,0 17.763331,10.58333 33.655,10.58333 h 5.63536 c 16.547571,0 26.140834,-10.22826 26.442459,-24.11545 3.302529,-4.713021 4.892409,-10.791029 4.229369,-16.61345 a 24.645408,24.645408 0 0 0 2.09788,-5.837767 h 9.43186 c 12.02135,0 22.01334,-9.9441 22.01334,-22.013333 0,-11.932444 -10.08089,-22.013333 -22.01334,-22.013333 z m 0,31.326666 H 89.369371 c 3.396456,3.881173 3.813969,11.330782 -1.309688,16.152813 2.970477,5.198004 0.446352,12.07135 -3.419739,14.188281 C 86.366085,108.42704 81.974002,114.3 71.252027,114.3 h -5.63536 c -12.036161,0 -20.42848,-9.50198 -31.75,-10.49761 V 57.036494 c 6.677818,-0.784225 11.368087,-5.614988 15.63026,-10.476442 2.983177,-3.346979 5.748073,-6.693958 8.148902,-10.55026 3.831431,-6.188075 6.914092,-14.843125 9.240838,-14.843125 6.184635,0 11.641666,2.328333 11.641666,9.313333 0,9.313333 -6.985,14.04276 -6.985,18.626667 h 41.909997 c 4.87495,0 9.31334,4.365625 9.31334,9.313333 0,5.020469 -4.29287,9.313333 -9.31334,9.313333 z M 23.283333,101.6 c 0,3.50705 -2.842948,6.35 -6.35,6.35 -3.507052,0 -6.35,-2.84295 -6.35,-6.35 0,-3.507052 2.842948,-6.35 6.35,-6.35 3.507052,0 6.35,2.842948 6.35,6.35 z"
         id="path69907"
         style="stroke-width:1" />
    </symbol>
  </defs>
  <g
     inkscape:label="Layer 1"
     inkscape:groupmode="layer"
     id="layer1">
    <path
       style="fill:#d38d5f;stroke:none;stroke-width:0.999999;fill-opacity:1"
       d="m 11.184113,7.045311 c 0.209463,-0.08873 0.487578,-0.08653 0.712659,-0.138107 0.460526,-0.105563 0.918646,-0.284826 1.306541,-0.557893 0.555279,-0.390893 1.073055,-0.85136 1.603481,-1.275689 0.203524,-0.162813 0.460318,-0.459813 0.712659,-0.535117 0.265851,-0.07934 0.77561,0.164178 1.039293,0.237464 0.501831,0.139443 1.009095,0.261159 1.5144,0.387537 0.237374,0.05933 0.552132,0.09 0.766998,0.206137 0.167119,0.09033 0.3019,0.27565 0.45046,0.396 0.303177,0.24566 0.671799,0.382965 0.979786,0.614817 0.247114,0.186004 0.440482,0.452538 0.683083,0.651102 0.336048,0.275057 0.73294,0.447164 0.416608,0.934147 C 20.935478,8.634776 19.840865,7.934709 19.40938,7.617368 19.064988,7.364107 18.812707,7.026366 18.487705,6.75995 18.196436,6.52121 17.813293,6.382152 17.508958,6.150627 17.351579,6.030901 17.22624,5.865623 17.063546,5.755518 16.843157,5.606394 16.17106,5.434613 15.905476,5.460061 c -0.271909,0.02607 -0.623042,0.405444 -0.890823,0.520033 -0.211689,0.0906 -0.452568,0.142918 -0.682964,0.144551 -0.131753,9.5e-4 -0.289459,-0.05496 -0.415718,-0.01271 -0.214302,0.07174 -0.426051,0.256349 -0.623576,0.369157 -0.549222,0.313718 -1.457684,0.756517 -2.108282,0.564218"
       id="path1472" />
    <path
       style="fill:#d38d5f;stroke:none;stroke-width:0.999999;fill-opacity:1"
       d="m 15.638229,4.461925 c 0.09921,-0.183361 0.285895,-0.198297 0.475106,-0.224962 0.377828,-0.05324 0.747252,-0.07198 1.128376,-0.07198 0.495535,0 0.943144,0.107908 1.425317,0.207769 0.25623,0.05306 0.559437,0.07625 0.801741,0.174661 0.244085,0.09915 0.436502,0.335722 0.682963,0.452301 0.314579,0.148797 0.717647,0.199455 1.009481,0.378392 0.271404,0.166405 0.481609,0.461713 0.742471,0.653003 0.266327,0.195327 0.556854,0.382875 0.861129,0.513173 0.158211,0.06776 0.402326,0.08893 0.507948,0.237731 0.109927,0.154855 0.04953,0.427922 -0.01746,0.589933 C 22.948264,8.114358 21.914226,7.546725 21.487967,7.252427 21.069666,6.963593 20.776348,6.567889 20.38884,6.255151 20.101816,6.023477 19.737738,5.882935 19.439075,5.660675 19.264681,5.530911 19.118111,5.315689 18.931602,5.213274 18.613044,5.038316 18.13001,5.00301 17.776205,4.924439 17.078868,4.769555 16.350977,4.518639 15.638229,4.461924"
       id="path1470" />
    <path
       style="fill:#d38d5f;stroke:none;stroke-width:0.999999;fill-opacity:1"
       d="m 20.181426,3.452322 c 0.431337,0.396119 0.959595,0.518904 1.455011,0.794406 0.477838,0.265703 0.857447,0.664495 1.365929,0.904661 0.367168,0.173443 1.036087,0.156161 1.195544,0.587379 0.03831,0.103662 0.01713,0.221072 -5.05e-4,0.326635 C 24.077233,6.785128 23.364902,6.663769 22.853896,6.45107 22.4244,6.272311 22.009336,5.954763 21.666131,5.644637 21.5236,5.515854 21.409931,5.331483 21.249969,5.225891 20.999024,5.060168 20.635479,5.024476 20.359591,4.898157 20.065679,4.763583 19.836499,4.514331 19.556693,4.385281 19.209628,4.225229 18.716379,4.208215 18.340393,4.135286 v -0.02969 c 0.675867,-0.02901 1.270254,-0.328417 1.841033,-0.65327"
       id="path1468" />
    <path
       style="fill:#d38d5f;stroke:none;stroke-width:0.999999;fill-opacity:1"
       d="m 20.300207,3.333531 v -0.02969 c 0.09962,-0.117173 0.179976,-0.237226 0.224487,-0.386023 0.03213,-0.107315 0.04454,-0.214837 0.04231,-0.326635 -0.01811,-0.899761 -0.96865,-0.546223 -1.484259,-0.539928 -0.193457,0.0024 -0.403157,-0.04997 -0.593882,-0.08127 -0.697841,-0.114471 -1.405244,-0.199277 -2.108281,-0.274552 -0.39217,-0.04199 -0.823715,-0.116579 -1.217459,-0.0791 -1.216656,0.115778 -2.401154,0.581381 -3.62268,0.677917 0.507917,-0.486509 1.215528,-0.858962 1.81134,-1.230049 0.387211,-0.241146 0.825615,-0.548242 1.276847,-0.650182 0.241294,-0.05452 0.528258,0.01057 0.772046,0.03415 0.435316,0.04214 0.871107,0.07528 1.306541,0.118806 1.097672,0.109749 2.374044,0.115391 3.414821,0.511778 0.688666,0.262258 1.343391,0.795921 1.959811,1.19498 0.709155,0.459071 1.407085,0.946856 2.048893,1.497177 0.20489,0.1757 0.578649,0.435998 0.617964,0.720705 C 24.858753,5.288813 24.125813,5.389327 23.53686,5.221288 22.80882,5.013519 22.336892,4.493575 21.72552,4.100187 21.265439,3.804137 20.72076,3.717401 20.300203,3.333545"
       id="path1466" />
    <g
       id="use97435"
       style="fill:#ffffff;stroke:#ffffff;stroke-width:12.4239"
       transform="matrix(0.08108008,0,0,0.0799042,0.76224993,0.97859359)">
      <title
         id="title97294">Hand Pointing Right</title>
      <g
         id="path97296" />
    </g>
    <g
       id="g1059"
       transform="translate(0.48915475)">
      <path
         style="fill:#ff9955;stroke:none;stroke-width:0.264583px;stroke-linecap:butt;stroke-linejoin:miter;stroke-opacity:1"
         d="m 9.5977173,25.307259 0.109343,-9.915372 1.3318447,-1.037656 1.960016,0.807065 1.671778,-0.807065 1.729425,1.095303 1.38354,-1.15295 1.268246,-0.115295 0.397582,1.210598 V 25.4 Z"
         id="path1584" />
      <path
         style="fill:#ff9955;stroke:none;stroke-width:0.264583px;stroke-linecap:butt;stroke-linejoin:miter;stroke-opacity:1"
         d="m 14.164417,0.64352976 -3.483172,9.28407634 0.866552,1.4490099 2.119221,-0.04378 1.266861,1.35693 2.008451,-0.395888 0.873061,1.575195 1.140754,0.566056 0.808402,-0.984939 3.618648,-9.3310082 z"
         id="path1779"
         inkscape:transform-center-x="2.2177542"
         inkscape:transform-center-y="-6.6859269" />
      <path
         style="fill:#ffffff;stroke:#b3b3b3;stroke-width:0.865;stroke-linecap:butt;stroke-linejoin:miter;stroke-miterlimit:4;stroke-dasharray:none;stroke-opacity:1"
         d="M 9.7070603,25.307259 V 15.391887"
         id="path959"
         sodipodi:nodetypes="cc" />
      <path
         style="fill:#b3b3b3;stroke:#cccccc;stroke-width:0.865;stroke-linecap:butt;stroke-linejoin:miter;stroke-miterlimit:4;stroke-dasharray:none;stroke-opacity:1"
         d="M 19.449492,25.422554 V 15.391887"
         id="path1041"
         sodipodi:nodetypes="cc" />
      <g
         id="path98571">
        <path
           style="color:#000000;fill:#008000;-inkscape-stroke:none"
           d="M 17.230469,2.2480469 C 14.976727,2.2804728 12.841563,3.3621535 10.851563,5.3125 l 0.605468,0.6171875 c 1.88442,-1.8468702 3.798184,-2.7878185 5.785156,-2.8164062 1.986973,-0.028588 4.097969,0.8588118 6.367188,2.8339843 L 24.177734,5.2949219 C 21.804054,3.2288233 19.48421,2.215621 17.230469,2.2480469 Z"
           id="path97267" />
        <g
           id="g97257">
          <g
             id="path97259">
            <path
               style="color:#000000;fill:#008000;fill-rule:evenodd;stroke-width:0.324375;stroke-linejoin:round;-inkscape-stroke:none"
               d="m 21.855679,1.0706934 2.908176,5.2957981 -5.646231,-2.1501266 c 1.491592,-0.3338278 2.593512,-1.607743 2.738055,-3.1456715 z"
               id="path97263" />
            <path
               style="color:#000000;fill:#008000;fill-rule:evenodd;stroke-linejoin:round;-inkscape-stroke:none"
               d="M 21.822266,0.91210938 A 0.16220372,0.16220372 0 0 0 21.693359,1.0546875 C 21.555221,2.524466 20.504417,3.7402546 19.082031,4.0585937 a 0.16220372,0.16220372 0 0 0 -0.02148,0.3085938 l 5.646484,2.1503906 A 0.16220372,0.16220372 0 0 0 24.90625,6.2890625 l -2.908203,-5.296875 a 0.16220372,0.16220372 0 0 0 -0.175781,-0.0800781 z m 0.04687,0.52148432 2.539062,4.6230469 -4.929687,-1.8769531 c 1.242609,-0.4240851 2.13063,-1.4469737 2.39063,-2.7460938 z"
               id="path97265" />
          </g>
        </g>
      </g>
    </g>
    <g
       id="g97253"
       transform="matrix(1.1092437,0,0,1.1176471,29.427424,19.863546)"
       style="stroke-width:0.89812">
      <circle
         style="opacity:1;fill:#ff0000;stroke:#800000;stroke-width:0.776873;stroke-linejoin:round;stroke-miterlimit:4;stroke-dasharray:none;paint-order:stroke fill markers"
         id="path96759"
         cx="-21.237495"
         cy="-0.44839242"
         r="4.850791" />
      <g
         id="g97247"
         transform="matrix(0.55261287,0.55261287,-0.55261287,0.55261287,-9.7491695,11.535508)"
         style="stroke-width:1.14921">
        <path
           style="fill:none;stroke:#ffffff;stroke-width:1.72381;stroke-linecap:round;stroke-linejoin:miter;stroke-miterlimit:4;stroke-dasharray:none;stroke-opacity:1"
           d="m -21.237495,-5.2991834 v 9.701582"
           id="path97108" />
        <path
           style="fill:none;stroke:#ffffff;stroke-width:1.72381;stroke-linecap:round;stroke-linejoin:miter;stroke-miterlimit:4;stroke-dasharray:none;stroke-opacity:1"
           d="m -16.386704,-0.4483924 h -9.701582"
           id="path97243" />
      </g>
    </g>
    <path
       style="fill:#d38d5f;stroke:none;stroke-width:0.999999"
       d="m 7.2644959,-0.467321 c 0.637146,0.962089 1.478202,1.691317 2.434916,2.326028 0.274997,0.182411 0.7065121,0.539126 1.0392941,0.576482 0.484845,0.05443 1.092773,-0.142829 1.573787,-0.21745 1.349894,-0.209344 2.640816,-0.555488 4.008705,-0.377294 0.623843,0.08127 1.248251,0.162308 1.870728,0.254004 0.289666,0.04267 0.628327,0.15046 0.920517,0.128813 0.359804,-0.02661 1.019042,-0.320103 1.231889,0.16017 0.260714,0.58824 -0.392467,1.056724 -0.845865,1.251458 -0.544323,0.233752 -1.274946,0.404701 -1.870729,0.378511 -0.445263,-0.0196 -0.86196,-0.01568 -1.30654,0.03427 -0.184312,0.0207 -0.431693,0.02174 -0.593883,0.117529 -1.080271,0.638156 -1.844538,1.789515 -2.96941,2.3676 -0.866919,0.445501 -1.862503,0.542185 -2.8209401,0.542185 -1.230316,0 -2.449526,-0.106038 -3.503904,-0.792684 C 6.0057329,6.004007 5.6633889,5.592655 5.3046849,5.23395 L 3.4339559,3.363221 v -0.02969 l 3.83054,-3.800845"
       id="path1435" />
  </g>
</svg>
