<?xml version="1.0" encoding="UTF-8" standalone="no"?>
<!-- Created with Inkscape (http://www.inkscape.org/) -->

<svg
   width="1in"
   height="1in"
   viewBox="0 0 25.4 25.4"
   version="1.1"
   id="svg858"
   inkscape:version="1.1.1 (3bf5ae0d25, 2021-09-20)"
   sodipodi:docname="breaking.svg"
   xmlns:inkscape="http://www.inkscape.org/namespaces/inkscape"
   xmlns:sodipodi="http://sodipodi.sourceforge.net/DTD/sodipodi-0.dtd"
   xmlns="http://www.w3.org/2000/svg"
   xmlns:svg="http://www.w3.org/2000/svg">
  <sodipodi:namedview
     id="namedview860"
     pagecolor="#505050"
     bordercolor="#ffffff"
     borderopacity="1"
     inkscape:pageshadow="0"
     inkscape:pageopacity="0"
     inkscape:pagecheckerboard="1"
     inkscape:document-units="mm"
     showgrid="false"
     units="in"
     inkscape:snap-intersection-paths="true"
     inkscape:snap-page="true"
     inkscape:snap-global="false"
     inkscape:zoom="3.24539"
     inkscape:cx="-26.345062"
     inkscape:cy="74.25918"
     inkscape:window-width="1920"
     inkscape:window-height="1028"
     inkscape:window-x="1912"
     inkscape:window-y="-8"
     inkscape:window-maximized="1"
     inkscape:current-layer="layer1"
     inkscape:snap-smooth-nodes="true" />
  <defs
     id="defs855">
    <marker
       style="overflow:visible;"
       id="Arrow2Mend"
       refX="0.0"
       refY="0.0"
       orient="auto"
       inkscape:stockid="Arrow2Mend"
       inkscape:isstock="true">
      <path
         transform="scale(0.6) rotate(180) translate(0,0)"
         d="M 8.7185878,4.0337352 L -2.2072895,0.016013256 L 8.7185884,-4.0017078 C 6.9730900,-1.6296469 6.9831476,1.6157441 8.7185878,4.0337352 z "
         style="stroke:context-stroke;fill-rule:evenodd;fill:context-stroke;stroke-width:0.62500000;stroke-linejoin:round;"
         id="path1187" />
    </marker>
    <symbol
       id="hand-point-right">
      <title
         id="hand-point-right-title">Hand Pointing Right</title>
      <path
         d="M 113.45333,36.406667 H 90.652335 A 30.564667,30.564667 0 0 0 91.228069,30.48 c 0,-12.677246 -9.279467,-22.0133333 -24.341667,-22.0133333 -11.989329,0 -15.081779,12.8420813 -20.03081,20.8449333 -2.046552,3.284273 -4.49633,6.16929 -6.839744,8.79819 l -0.03466,0.03863 -0.03413,0.03916 C 35.893904,42.811435 33.804225,44.45 31.961667,44.45 h -0.708819 c -1.520561,-1.310217 -3.5814,-2.116667 -5.852583,-2.116667 H 8.4666667 C 3.7906854,42.333333 0,45.744871 0,49.953333 v 60.959997 c 0,4.20847 3.7906854,7.62 8.4666667,7.62 H 25.4 c 2.271183,0 4.332023,-0.80645 5.852583,-2.11666 h 0.708819 c 7.590367,0 17.763331,10.58333 33.655,10.58333 h 5.63536 c 16.547571,0 26.140834,-10.22826 26.442459,-24.11545 3.302529,-4.713021 4.892409,-10.791029 4.229369,-16.61345 a 24.645408,24.645408 0 0 0 2.09788,-5.837767 h 9.43186 c 12.02135,0 22.01334,-9.9441 22.01334,-22.013333 0,-11.932444 -10.08089,-22.013333 -22.01334,-22.013333 z m 0,31.326666 H 89.369371 c 3.396456,3.881173 3.813969,11.330782 -1.309688,16.152813 2.970477,5.198004 0.446352,12.07135 -3.419739,14.188281 C 86.366085,108.42704 81.974002,114.3 71.252027,114.3 h -5.63536 c -12.036161,0 -20.42848,-9.50198 -31.75,-10.49761 V 57.036494 c 6.677818,-0.784225 11.368087,-5.614988 15.63026,-10.476442 2.983177,-3.346979 5.748073,-6.693958 8.148902,-10.55026 3.831431,-6.188075 6.914092,-14.843125 9.240838,-14.843125 6.184635,0 11.641666,2.328333 11.641666,9.313333 0,9.313333 -6.985,14.04276 -6.985,18.626667 h 41.909997 c 4.87495,0 9.31334,4.365625 9.31334,9.313333 0,5.020469 -4.29287,9.313333 -9.31334,9.313333 z M 23.283333,101.6 c 0,3.50705 -2.842948,6.35 -6.35,6.35 -3.507052,0 -6.35,-2.84295 -6.35,-6.35 0,-3.507052 2.842948,-6.35 6.35,-6.35 3.507052,0 6.35,2.842948 6.35,6.35 z"
         id="path69907"
         style="stroke-width:1" />
    </symbol>
  </defs>
  <g
     inkscape:label="Layer 1"
     inkscape:groupmode="layer"
     id="layer1">
    <g
       id="use97435"
       style="fill:#ffffff;stroke:#ffffff;stroke-width:12.4239"
       transform="matrix(0.08108008,0,0,0.0799042,0.76224993,0.97859359)">
      <title
         id="title97294">Hand Pointing Right</title>
      <g
         id="path97296" />
    </g>
    <g
       id="g1059"
       transform="rotate(90,16.079395,9.2420878)">
      <path
         style="fill:#ff9955;stroke:none;stroke-width:0.264583px;stroke-linecap:butt;stroke-linejoin:miter;stroke-opacity:1"
         d="m 9.5977173,25.307259 0.109343,-9.915372 1.3318447,-1.037656 1.960016,0.807065 1.671778,-0.807065 1.729425,1.095303 1.38354,-1.15295 1.268246,-0.115295 0.397582,1.210598 V 25.4 Z"
         id="path1584" />
      <path
         style="fill:#ff9955;stroke:none;stroke-width:0.264583px;stroke-linecap:butt;stroke-linejoin:miter;stroke-opacity:1"
         d="m 14.164417,0.64352976 -3.483172,9.28407634 0.866552,1.4490099 2.119221,-0.04378 1.266861,1.35693 2.008451,-0.395888 0.873061,1.575195 1.140754,0.566056 0.808402,-0.984939 3.618648,-9.3310082 z"
         id="path1779"
         inkscape:transform-center-x="2.2177542"
         inkscape:transform-center-y="-6.6859269" />
      <path
         style="fill:#ffffff;stroke:#b3b3b3;stroke-width:0.865;stroke-linecap:butt;stroke-linejoin:miter;stroke-miterlimit:4;stroke-dasharray:none;stroke-opacity:1"
         d="M 9.7070603,25.307259 V 15.391887"
         id="path959"
         sodipodi:nodetypes="cc" />
      <path
         style="fill:#b3b3b3;stroke:#cccccc;stroke-width:0.865;stroke-linecap:butt;stroke-linejoin:miter;stroke-miterlimit:4;stroke-dasharray:none;stroke-opacity:1"
         d="M 19.449492,25.422554 V 15.391887"
         id="path1041"
         sodipodi:nodetypes="cc" />
      <g
         id="path98571">
        <path
           style="color:#000000;fill:#008000;-inkscape-stroke:none"
           d="M 17.230469,2.2480469 C 14.976727,2.2804728 12.841563,3.3621535 10.851563,5.3125 l 0.605468,0.6171875 c 1.88442,-1.8468702 3.798184,-2.7878185 5.785156,-2.8164062 1.986973,-0.028588 4.097969,0.8588118 6.367188,2.8339843 L 24.177734,5.2949219 C 21.804054,3.2288233 19.48421,2.215621 17.230469,2.2480469 Z"
           id="path97267" />
        <g
           id="g97257">
          <g
             id="path97259">
            <path
               style="color:#000000;fill:#008000;fill-rule:evenodd;stroke-width:0.324375;stroke-linejoin:round;-inkscape-stroke:none"
               d="m 21.855679,1.0706934 2.908176,5.2957981 -5.646231,-2.1501266 c 1.491592,-0.3338278 2.593512,-1.607743 2.738055,-3.1456715 z"
               id="path97263" />
            <path
               style="color:#000000;fill:#008000;fill-rule:evenodd;stroke-linejoin:round;-inkscape-stroke:none"
               d="M 21.822266,0.91210938 A 0.16220372,0.16220372 0 0 0 21.693359,1.0546875 C 21.555221,2.524466 20.504417,3.7402546 19.082031,4.0585937 a 0.16220372,0.16220372 0 0 0 -0.02148,0.3085938 l 5.646484,2.1503906 A 0.16220372,0.16220372 0 0 0 24.90625,6.2890625 l -2.908203,-5.296875 a 0.16220372,0.16220372 0 0 0 -0.175781,-0.0800781 z m 0.04687,0.52148432 2.539062,4.6230469 -4.929687,-1.8769531 c 1.242609,-0.4240851 2.13063,-1.4469737 2.39063,-2.7460938 z"
               id="path97265" />
          </g>
        </g>
      </g>
    </g>
    <g
       id="g97253"
       transform="matrix(1.1092437,0,0,1.1176471,29.998105,19.700494)"
       style="stroke-width:0.89812">
      <circle
         style="opacity:1;fill:#ff0000;stroke:#800000;stroke-width:0.776873;stroke-linejoin:round;stroke-miterlimit:4;stroke-dasharray:none;paint-order:stroke fill markers"
         id="path96759"
         cx="-21.237495"
         cy="-0.44839242"
         r="4.850791" />
      <g
         id="g97247"
         transform="matrix(0.55261287,0.55261287,-0.55261287,0.55261287,-9.7491695,11.535508)"
         style="stroke-width:1.14921">
        <path
           style="fill:none;stroke:#ffffff;stroke-width:1.72381;stroke-linecap:round;stroke-linejoin:miter;stroke-miterlimit:4;stroke-dasharray:none;stroke-opacity:1"
           d="m -21.237495,-5.2991834 v 9.701582"
           id="path97108" />
        <path
           style="fill:none;stroke:#ffffff;stroke-width:1.72381;stroke-linecap:round;stroke-linejoin:miter;stroke-miterlimit:4;stroke-dasharray:none;stroke-opacity:1"
           d="m -16.386704,-0.4483924 h -9.701582"
           id="path97243" />
      </g>
    </g>
  </g>
</svg>
