<?xml version="1.0" encoding="UTF-8" standalone="no"?>
<svg
   xmlns:dc="http://purl.org/dc/elements/1.1/"
   xmlns:cc="http://creativecommons.org/ns#"
   xmlns:rdf="http://www.w3.org/1999/02/22-rdf-syntax-ns#"
   xmlns:svg="http://www.w3.org/2000/svg"
   xmlns="http://www.w3.org/2000/svg"
   xmlns:sodipodi="http://sodipodi.sourceforge.net/DTD/sodipodi-0.dtd"
   xmlns:inkscape="http://www.inkscape.org/namespaces/inkscape"
   sodipodi:docname="Main_slide_Maine.svg"
   inkscape:version="1.0 (4035a4fb49, 2020-05-01)"
   id="svg8"
   version="1.1"
   viewBox="0 0 338.66667 190.5"
   height="720"
   width="1280">
  <defs
     id="defs2" />
  <sodipodi:namedview
     inkscape:window-maximized="1"
     inkscape:window-y="-5"
     inkscape:window-x="0"
     inkscape:window-height="1271"
     inkscape:window-width="2400"
     inkscape:snap-page="false"
     inkscape:snap-grids="true"
     units="px"
     showgrid="true"
     inkscape:document-rotation="0"
     inkscape:current-layer="layer1"
     inkscape:document-units="mm"
     inkscape:cy="441.90766"
     inkscape:cx="465.81085"
     inkscape:zoom="0.7"
     inkscape:pageshadow="2"
     inkscape:pageopacity="0.0"
     borderopacity="1.0"
     bordercolor="#666666"
     pagecolor="#ffffff"
     id="base">
    <inkscape:grid
       dotted="true"
       empspacing="4"
       empopacity="0.25098039"
       empcolor="#ff3f5b"
       spacingy="6.35"
       spacingx="6.35"
       units="in"
       id="grid833"
       type="xygrid" />
  </sodipodi:namedview>
  <metadata
     id="metadata5">
    <rdf:RDF>
      <cc:Work
         rdf:about="">
        <dc:format>image/svg+xml</dc:format>
        <dc:type
           rdf:resource="http://purl.org/dc/dcmitype/StillImage" />
        <dc:title></dc:title>
      </cc:Work>
    </rdf:RDF>
  </metadata>
  <g
     id="layer1"
     inkscape:groupmode="layer"
     inkscape:label="Layer 1">
    <rect
       y="0"
       x="0"
       height="190.5"
       width="338.66666"
       id="rect835"
       style="fill:#022a59;stroke:#004488;stroke-width:0.365001;stroke-linecap:square;stroke-linejoin:round;stroke-dasharray:2.19, 0.36500100000000002;fill-opacity:1" />
    <g
       transform="matrix(0.02027909,0,0,-0.02027909,3.7510527,36.894842)"
       id="g1053">
      <path
         id="path1055"
         style="fill:#ffffff;fill-opacity:1;fill-rule:evenodd;stroke:none"
         d="M 0,1623.63 H 1208.94 V 345.98 c 0,0 -281.338,-49.441 -600.178,-342.17141 -9.324,-8.57031 0,0 0,0 0,0 -321.528,300.97241 -608.762,339.42141 v 0 1280.4 0" />
      <path
         id="path1057"
         style="fill:#ffffff;fill-opacity:1;fill-rule:nonzero;stroke:none"
         d="m 1571.95,1207.29 c -22.16,0 -45.38,-2.23 -67.54,-2.23 -36.94,0 -74.93,1.12 -111.87,2.23 v -28.89 c 34.83,0 58.05,-4.44 72.82,-17.78 14.77,-13.32 20.06,-37.77 20.06,-76.64 0,-152.203 -7.39,-303.289 -11.61,-455.48 -4.23,-148.852 -50.66,-167.75 -125.6,-167.75 v -28.871 c 46.44,1.109 93.93,2.223 140.37,2.223 43.27,0 87.59,-2.223 130.86,-2.223 v 28.871 c -42.21,0 -68.6,3.352 -85.48,18.898 -16.89,15.543 -22.17,45.543 -22.17,99.973 0,15.559 1.06,55.551 1.06,69.988 l 8.44,402.151 h 2.12 c 100.26,-209.963 201.57,-417.697 291.27,-629.881 h 21.11 c 8.44,28.891 29.54,83.312 41.15,109.973 L 2126,1076.2 h 2.12 l 7.39,-529.891 c 0,-43.329 -8.45,-64.45 -27.44,-75.559 -17.94,-10 -44.33,-10 -81.27,-10 v -28.871 c 51.72,1.109 102.38,2.223 154.09,2.223 58.04,0 116.08,-2.223 174.13,-2.223 v 28.871 c -105.54,0 -112.92,24.441 -115.03,107.762 -4.22,167.758 -13.72,354.375 -13.72,529.908 0,36.66 6.33,55.54 20.05,66.65 13.72,11.11 37.99,13.33 73.88,13.33 v 28.89 c -30.61,0 -62.27,-2.23 -92.88,-2.23 -28.49,0 -58.04,1.12 -86.53,2.23 -87.6,-211.075 -189.97,-415.485 -284.95,-623.22 l -283.89,623.22 v 0" />
      <path
         id="path1059"
         style="fill:#ffffff;fill-opacity:1;fill-rule:evenodd;stroke:none"
         d="m 2774.73,1095.09 h 2.11 l 112.92,-326.617 h -217.4 z m 54.87,143.3 h -17.93 c -14.79,-25.55 -39.05,-37.77 -61.21,-48.88 2.11,-8.89 2.11,-17.77 2.11,-28.89 0,-33.32 -13.72,-74.42 -22.17,-99.98 L 2595.32,664.063 c -13.72,-41.114 -26.39,-84.442 -43.28,-124.434 -26.37,-62.199 -37.98,-71.09 -102.36,-78.879 v -28.871 c 42.21,1.109 85.48,2.223 127.69,2.223 41.16,0 83.38,-2.223 124.54,-2.223 v 28.871 h -24.28 c -36.93,2.238 -71.76,0 -71.76,52.23 0,34.418 14.77,85.532 28.49,132.192 l 23.22,77.766 h 248.01 l 52.77,-161.086 c 7.38,-21.114 15.83,-52.204 15.83,-64.442 0,-31.09 -31.66,-36.66 -58.05,-36.66 h -19 v -28.871 c 51.72,1.109 102.38,2.223 154.09,2.223 40.09,0 81.25,-2.223 121.36,-2.223 v 28.871 c -33.77,0 -65.42,7.789 -81.27,30.012 -16.87,24.429 -45.38,118.859 -60.14,162.176 L 2829.6,1238.39 v 0" />
      <path
         id="path1061"
         style="fill:#ffffff;fill-opacity:1;fill-rule:nonzero;stroke:none"
         d="m 3363.84,540.738 c 0,-77.75 -40.1,-78.879 -96.04,-79.988 v -28.871 c 52.77,1.109 102.36,2.223 153.02,2.223 46.44,0 91.82,-2.223 142.48,-2.223 v 28.871 c -55.94,1.109 -96.04,2.238 -96.04,79.988 v 557.682 c 0,77.76 40.1,78.87 96.04,79.98 v 28.89 c -52.77,-1.11 -101.32,-2.23 -149.85,-2.23 -47.5,0 -96.05,1.12 -145.65,2.23 v -28.89 c 55.94,-1.11 96.04,-2.22 96.04,-79.98 v -557.682 0" />
      <path
         id="path1063"
         style="fill:#ffffff;fill-opacity:1;fill-rule:nonzero;stroke:none"
         d="m 4399.99,1063.97 c 0,108.88 34.82,114.43 99.19,114.43 v 28.89 c -41.16,0 -81.26,-2.23 -122.41,-2.23 -48.55,0 -98.15,1.12 -146.7,2.23 v -28.89 c 105.54,-1.11 127.69,-32.22 127.69,-134.42 V 601.84 c -71.75,82.207 -170.96,192.199 -260.67,296.617 -120.3,139.973 -218.45,241.063 -261.73,308.833 -28.48,0 -58.03,-2.23 -86.54,-2.23 -32.72,0 -64.37,1.12 -97.08,2.23 v -28.89 c 90.76,0 129.81,-34.44 129.81,-129.98 V 601.84 c 0,-141.09 -48.55,-141.09 -112.93,-141.09 v -28.871 c 46.44,1.109 93.93,2.223 140.36,2.223 46.45,0 93.93,-2.223 140.37,-2.223 v 28.871 c -113.99,0 -125.58,31.109 -125.58,184.422 V 1059.54 L 4375.7,421.879 h 24.29 v 642.091 0" />
      <path
         id="path1065"
         style="fill:#ffffff;fill-opacity:1;fill-rule:nonzero;stroke:none"
         d="m 4802.04,1171.74 h 123.47 c 105.54,0 153.03,-31.11 168.85,-135.53 l 21.12,5.54 v 165.54 c -102.37,-2.23 -202.62,-2.23 -303.94,-2.23 -70.71,0 -142.48,0 -213.19,2.23 v -28.89 c 83.38,-3.33 100.26,-7.77 100.26,-98.87 V 586.289 c 0,-107.75 -8.44,-125.539 -100.26,-125.539 v -28.871 c 78.1,2.223 156.2,2.223 234.28,2.223 105.56,0 211.08,-2.223 316.61,-2.223 10.57,57.769 26.39,114.43 43.27,169.961 l -25.33,4.441 C 5126.02,487.43 5079.58,472.969 4976.17,467.43 h -65.44 c -104.47,0 -108.69,31.09 -108.69,154.41 v 188.855 h 112.91 c 81.27,0 115.04,0 115.04,-106.644 h 21.11 c 1.06,35.547 -4.22,87.754 -4.22,123.301 0,39.992 2.11,99.992 4.22,124.421 h -21.11 c -3.16,-25.55 -3.16,-95.539 -88.65,-95.539 h -139.3 v 315.506 0" />
      <path
         id="path1067"
         style="fill:#ffffff;fill-opacity:1;fill-rule:nonzero;stroke:none"
         d="m 1459.17,1397.77 c 0,-28.05 -1.81,-30.16 -15.38,-32.27 l -13.57,-1.5 c -2.42,-1.82 -2.42,-8.75 0,-10.56 21.1,0.6 36.78,0.91 51.26,0.91 13.57,0 28.64,-0.31 48.24,-0.91 2.11,1.81 2.11,8.74 0,10.56 l -12.06,1.5 c -13.56,2.11 -15.38,4.22 -15.38,32.27 v 132.97 c 0,7.84 0.91,8.74 8.15,8.74 h 18.09 c 22.61,0 26.83,-14.16 31.96,-33.47 1.51,-2.4 9.64,-1.8 11.15,0.91 -0.6,17.19 1.52,41.61 4.53,51.87 -0.61,0.9 -2.72,2.1 -4.53,2.1 -1.8,0 -2.71,-0.3 -3.91,-0.9 -2.72,-6.33 -7.24,-6.63 -27.15,-6.63 h -112.16 c -22.92,0 -23.83,1.2 -25.33,6.33 -1.21,0.9 -2.71,1.2 -4.22,1.2 -1.51,0 -3.02,-0.6 -4.22,-1.51 -2.11,-11.75 -3.62,-30.45 -9.96,-51.25 1.82,-3.92 7.54,-4.52 11.16,-2.72 9.05,22.01 15.39,34.07 37.39,34.07 h 18.7 c 7.24,0 7.24,-1.5 7.24,-8.74 v -132.97 0" />
      <path
         id="path1069"
         style="fill:#ffffff;fill-opacity:1;fill-rule:nonzero;stroke:none"
         d="m 1780.9,1449.93 c 12.67,0 12.67,-0.29 12.67,-8.74 v -43.42 c 0,-28.05 -1.51,-30.16 -15.38,-32.87 l -6.63,-0.9 c -2.42,-1.82 -2.42,-8.75 0,-10.56 14.47,0.6 29.24,0.91 44.32,0.91 13.87,0 28.64,-0.31 43.72,-0.91 2.41,1.81 2.41,8.74 0,10.56 l -7.23,1.2 c -13.87,2.41 -15.69,4.52 -15.69,32.57 v 112.16 c 0,28.05 1.82,30.16 15.69,32.87 l 6.03,0.9 c 2.4,1.82 2.4,8.75 0,10.57 -13.88,-0.61 -27.75,-0.91 -42.52,-0.91 -14.48,0 -29.25,0.3 -45.83,0.91 -2.42,-1.82 -2.42,-8.75 0,-10.57 l 8.14,-1.2 c 13.87,-2.41 15.38,-4.52 15.38,-32.57 v -34.97 c 0,-8.75 0,-9.05 -12.67,-9.05 h -62.71 c -12.37,0 -12.67,0.3 -12.67,9.05 v 34.97 c 0,28.05 1.81,30.16 14.78,32.87 l 6.32,0.9 c 2.42,1.82 2.42,8.75 0,10.57 -13.26,-0.61 -28.34,-0.91 -41.9,-0.91 -14.48,0 -30.16,0.3 -44.94,0.91 -2.41,-1.82 -2.41,-8.75 0,-10.57 l 7.25,-0.9 c 13.56,-2.71 15.37,-4.82 15.37,-32.87 v -112.16 c 0,-28.05 -1.81,-30.16 -15.37,-32.87 l -7.25,-0.9 c -2.41,-1.82 -2.41,-8.75 0,-10.56 15.38,0.6 30.46,0.91 44.94,0.91 13.56,0 28.64,-0.31 45.83,-0.91 2.41,1.81 2.41,8.74 0,10.56 l -9.65,1.2 c -13.57,2.41 -15.38,4.52 -15.38,32.57 v 43.42 c 0,8.45 0.3,8.74 12.67,8.74 h 62.71 v 0" />
      <path
         id="path1071"
         style="fill:#ffffff;fill-opacity:1;fill-rule:nonzero;stroke:none"
         d="m 2000.26,1527.73 c 0,11.15 0,11.75 9.94,11.75 h 24.13 c 14.77,0 23.81,-3.61 29.55,-9.34 3.92,-4.23 8.14,-13.26 11.45,-23.82 3.02,-2.71 9.95,-2.11 11.16,1.21 -1.51,20.2 -3.62,41.91 -3.92,46.74 -3.92,-0.61 -21.11,-0.91 -40.41,-0.91 h -63.92 c -14.48,0 -29.25,0.3 -43.42,0.91 -3.01,-1.82 -3.32,-8.75 -0.61,-10.57 l 7.54,-1.5 c 13.57,-2.41 15.39,-4.52 15.39,-31.97 v -112.46 c 0,-27.74 -1.82,-29.86 -15.39,-31.66 l -14.16,-2.11 c -2.42,-1.51 -2.42,-8.75 0,-10.56 22.61,0.6 37.38,0.91 51.86,0.91 h 39.2 c 24.73,0 53.66,-0.31 69.65,-0.91 4.22,8.14 11.45,32.57 12.66,48.25 -1.21,3.61 -8.74,4.83 -11.15,1.51 -16.59,-34.08 -26.84,-34.98 -53.08,-34.98 -22,0 -27.73,2.41 -31.65,7.84 -3.62,5.13 -4.82,14.77 -4.82,28.64 v 35.89 c 0,9.05 0.29,9.34 8.43,9.34 h 20.81 c 15.68,0 19,-2.41 22.31,-16.88 l 1.51,-7.54 c 2.11,-2.72 9.65,-2.42 11.16,0.3 -0.6,9.64 -0.91,20.5 -0.91,31.96 0,11.46 0.31,22.31 0.91,31.96 -1.51,2.71 -9.05,2.71 -11.16,0.31 l -1.51,-7.54 c -3.31,-14.47 -6.63,-16.59 -22.31,-16.59 h -20.81 c -8.14,0 -8.43,0.61 -8.43,9.05 v 52.77 0" />
      <path
         id="path1073"
         style="fill:#ffffff;fill-opacity:1;fill-rule:nonzero;stroke:none"
         d="m 2314.42,1434.55 c 0,-32.86 6.63,-55.17 22.32,-68.14 16.28,-13.27 36.79,-16.88 59.7,-16.88 24.42,0 46.43,7.53 59.7,21.7 16.59,18.4 19.31,44.32 19.31,72.67 v 33.78 c 0,24.41 1.2,47.34 4.51,55.17 2.71,6.34 8.45,8.15 16.29,9.95 l 5.42,1.21 c 2.42,2.41 1.81,8.44 0,10.26 -11.46,-0.61 -22.62,-0.91 -33.77,-0.91 -12.36,0 -24.12,0.3 -40.4,0.91 -1.81,-1.82 -2.42,-7.85 0,-10.26 l 8.14,-1.51 c 8.14,-1.5 14.77,-3.31 17.49,-9.65 3.31,-7.83 4.52,-30.76 4.52,-55.17 v -36.49 c 0,-41.31 -11.76,-75.08 -50.36,-75.08 -45.83,0 -49.75,38.9 -49.75,74.17 v 69.65 c 0,28.05 1.81,30.16 15.38,32.87 l 7.24,1.21 c 2.4,1.81 2.4,8.44 0,10.26 -14.48,-0.61 -29.25,-0.91 -44.03,-0.91 -14.47,0 -29.55,0.3 -44.02,0.91 -3.31,-1.82 -3.02,-8.45 -0.6,-10.26 l 7.54,-1.51 c 13.57,-2.41 15.37,-4.52 15.37,-32.57 v -75.38 0" />
      <path
         id="path1075"
         style="fill:#ffffff;fill-opacity:1;fill-rule:nonzero;stroke:none"
         d="m 2752.9,1477.68 c 0,24.41 1.2,47.03 4.51,55.17 2.72,6.34 8.46,8.15 16.3,9.95 l 5.42,0.9 c 2.41,2.43 1.82,8.75 0,10.57 -11.76,-0.61 -22.61,-0.91 -33.76,-0.91 -12.38,0 -24.13,0.3 -40.41,0.91 -1.81,-1.82 -2.42,-8.14 0,-10.57 l 8.14,-1.2 c 8.14,-1.5 14.76,-3.31 17.48,-9.65 3.32,-8.14 4.54,-30.76 4.54,-55.17 v -41.62 c 0,-5.42 0,-10.55 -1.22,-13.57 -6.93,6.94 -15.38,17.49 -28.94,33.18 l -25.33,29.84 c -27.14,32.26 -46.74,55.19 -49.75,68.76 -6.33,-0.61 -15.08,-0.91 -25.33,-0.91 -12.37,0 -27.44,0.3 -41.62,0.91 -3.01,-0.91 -3.31,-8.14 -1.2,-10.57 l 8.44,-1.2 c 10.55,-2.11 15.08,-5.12 17.19,-10.25 2.11,-4.22 2.11,-9.05 2.11,-25.64 v -76.57 c 0,-24.43 -1.21,-47.05 -4.22,-55.19 -2.71,-6.34 -8.45,-8.14 -16.59,-9.95 l -5.12,-0.9 c -2.41,-2.42 -1.81,-8.75 0,-10.56 11.46,0.6 22.61,0.91 33.77,0.91 12.06,0 24.11,-0.31 40.41,-0.91 1.8,1.81 2.41,8.14 0,10.56 l -8.45,1.2 c -7.85,1.51 -14.77,3.31 -17.49,9.65 -3.31,8.14 -4.52,30.76 -4.52,55.19 v 58.49 c 0,11.15 0,16.28 1.5,19.3 5.44,-4.53 15.69,-16.89 32.88,-38.6 l 69.65,-86.24 c 14.17,-17.49 24.12,-32.87 24.42,-32.87 7.23,0 15.69,3.32 17.8,6.94 -0.61,9.95 -0.61,28.95 -0.61,48.55 v 72.07 0" />
      <path
         id="path1077"
         style="fill:#ffffff;fill-opacity:1;fill-rule:nonzero;stroke:none"
         d="m 2910.92,1509.33 c 0,28.35 1.8,30.46 15.67,32.87 l 8.44,1.5 c 2.42,1.82 2.42,8.75 0,10.57 -16.28,-0.61 -31.36,-0.91 -45.53,-0.91 -14.47,0 -29.55,0.3 -45.83,0.91 -2.41,-1.82 -2.41,-8.75 0,-10.57 l 8.45,-1.5 c 13.86,-2.41 15.67,-4.52 15.67,-32.87 v -110.95 c 0,-28.35 -1.81,-30.47 -15.67,-32.88 l -8.45,-1.5 c -2.41,-1.82 -2.41,-8.75 0,-10.56 16.28,0.6 31.36,0.91 45.83,0.91 14.17,0 28.95,-0.31 45.24,-0.91 2.4,1.81 2.71,8.74 0.29,10.56 l -8.44,1.5 c -13.87,2.41 -15.67,4.53 -15.67,32.88 v 110.95 0" />
      <path
         id="path1079"
         style="fill:#ffffff;fill-opacity:1;fill-rule:nonzero;stroke:none"
         d="m 3154.86,1481.29 c 10.54,24.42 18.39,40.71 25.03,50.66 3.9,6.33 8.14,8.75 16.58,10.55 l 7.84,1.51 c 2.11,1.81 1.8,9.04 -0.61,10.26 -8.75,-0.61 -17.78,-0.91 -28.05,-0.91 -11.45,0 -22.9,0.3 -37.08,0.91 -3.62,-1.51 -3.62,-7.85 -1.2,-10.26 l 8.74,-2.11 c 7.23,-1.51 8.14,-3.02 8.14,-5.13 0,-1.8 -0.91,-5.12 -3.02,-10.86 -3.61,-10.24 -15.97,-44.02 -23.81,-63.01 l -11.16,-28.35 c -3.62,-9.04 -7.23,-17.18 -9.66,-22.31 -2.11,5.13 -5.12,12.06 -9.34,23.21 l -26.53,67.85 c -7.24,18.09 -12.07,30.76 -12.07,33.18 0,2.71 2.11,4.52 7.55,5.72 l 9.05,1.81 c 1.79,2.71 2.11,8.44 -0.31,10.26 -18.4,-0.61 -31.35,-0.91 -45.23,-0.91 -15.68,0 -25.64,0.6 -41.01,0.91 -2.71,-1.51 -3.61,-6.94 -1.21,-10.26 l 8.46,-2.11 c 14.47,-3.62 13.86,-2.42 26.22,-32.87 l 48.84,-122.73 c 4.24,-10.24 9.36,-26.22 12.68,-34.37 1.81,-1.5 4.51,-2.4 8.14,-2.4 4.51,0 8.14,0.9 10.55,2.4 6.93,16.89 15.07,40.71 30.45,77.2 l 22.02,52.16 v 0" />
      <path
         id="path1081"
         style="fill:#ffffff;fill-opacity:1;fill-rule:nonzero;stroke:none"
         d="m 3318.3,1527.73 c 0,11.15 0,11.75 9.96,11.75 h 24.12 c 14.77,0 23.82,-3.61 29.55,-9.34 3.92,-4.23 8.14,-13.26 11.46,-23.82 3.01,-2.71 9.95,-2.11 11.15,1.21 -1.5,20.2 -3.62,41.91 -3.92,46.74 -3.92,-0.61 -21.11,-0.91 -40.41,-0.91 h -63.92 c -14.47,0 -29.24,0.3 -43.43,0.91 -3,-1.82 -3.31,-8.75 -0.59,-10.57 l 7.53,-1.5 c 13.58,-2.41 15.38,-4.52 15.38,-31.97 v -112.46 c 0,-27.74 -1.8,-29.86 -15.38,-31.66 l -14.16,-2.11 c -2.42,-1.51 -2.42,-8.75 0,-10.56 22.61,0.6 37.38,0.91 51.85,0.91 h 39.2 c 24.74,0 53.68,-0.31 69.66,-0.91 4.22,8.14 11.46,32.57 12.66,48.25 -1.2,3.61 -8.73,4.83 -11.16,1.51 -16.58,-34.08 -26.83,-34.98 -53.06,-34.98 -22.02,0 -27.74,2.41 -31.66,7.84 -3.62,5.13 -4.83,14.77 -4.83,28.64 v 35.89 c 0,9.05 0.3,9.34 8.44,9.34 h 20.81 c 15.68,0 19,-2.41 22.32,-16.88 l 1.5,-7.54 c 2.11,-2.72 9.65,-2.42 11.16,0.3 -0.6,9.64 -0.91,20.5 -0.91,31.96 0,11.46 0.31,22.31 0.91,31.96 -1.51,2.71 -9.05,2.71 -11.16,0.31 l -1.5,-7.54 c -3.32,-14.47 -6.64,-16.59 -22.32,-16.59 h -20.81 c -8.14,0 -8.44,0.61 -8.44,9.05 v 52.77 0" />
      <path
         id="path1083"
         style="fill:#ffffff;fill-opacity:1;fill-rule:evenodd;stroke:none"
         d="m 3546.5,1525.02 c 0.61,14.46 0.61,15.37 12.97,15.37 23.53,0 39.5,-17.48 39.5,-44.62 0,-17.79 -5.72,-27.45 -10.84,-32.57 -5.73,-5.73 -12.06,-8.45 -22.92,-8.45 -17.8,0 -18.71,0.92 -18.71,11.46 z m -41.3,-127.25 c 0,-27.74 -1.81,-29.86 -15.37,-32.27 l -8.14,-1.5 c -2.43,-1.51 -2.43,-8.75 0,-10.56 15.67,0.6 28.93,0.91 44.01,0.91 14.47,0 28.35,-0.31 44.33,-0.91 2.11,1.81 2.11,9.05 0,10.56 l -8.15,1.5 c -13.57,2.41 -15.38,4.53 -15.38,32.27 v 37.08 c 0,6.04 0.61,6.65 11.16,6.65 7.55,0 12.37,-2.43 15.98,-10.57 6.94,-15.98 13.88,-30.75 23.54,-46.73 13.26,-21.71 30.75,-31.66 58.48,-31.66 9.35,0 19.01,0.6 23.82,2.71 1.51,1.81 1.51,6.33 -1.2,7.84 -4.52,0.3 -12.37,2.11 -20.21,8.45 -14.47,12.36 -26.83,34.98 -46.74,75.37 -1.5,3.32 -1.5,5.13 1.52,6.64 13.88,6.94 31.95,18.4 31.95,45.23 0,19.3 -9.04,34.38 -26.53,44.63 -11.45,6.93 -33.47,10.86 -59.1,10.86 -28.64,0 -52.16,-1.22 -74.78,-2.72 -3.61,-1.51 -3.61,-9.05 -0.59,-10.55 l 8.14,-1.21 c 12.65,-1.81 13.26,-5.13 13.26,-35.28 v -106.74 0" />
      <path
         id="path1085"
         style="fill:#ffffff;fill-opacity:1;fill-rule:nonzero;stroke:none"
         d="m 3866.25,1410.73 c 0,33.17 -23.83,50.66 -42.51,60.61 l -19.91,10.55 c -15.08,7.84 -27.44,20.5 -27.44,34.37 0,15.08 10.86,28.05 30.75,28.05 21.72,0 34.69,-22.01 39.82,-37.39 2.7,-3.01 10.25,-2.71 11.75,0.91 0,20.2 -3.02,36.48 -5.43,43.12 -3.62,0.6 -6.32,1.2 -10.25,2.41 -12.06,3.62 -24.42,4.82 -34.37,4.82 -43.72,0 -69.96,-23.52 -69.96,-57.59 0.3,-29.85 23.81,-47.94 45.53,-58.8 18.1,-9.05 41,-23.52 41,-47.94 0,-15.08 -10.25,-30.46 -32.56,-30.46 -25.63,0 -45.83,27.74 -51.86,47.34 -2.41,3.32 -9.34,3.02 -11.45,-0.9 0,-20.51 3.9,-42.22 9.64,-48.85 6.34,-3.62 23.51,-11.45 51.27,-11.45 45.53,0 75.98,24.11 75.98,61.2 v 0" />
      <path
         id="path1087"
         style="fill:#ffffff;fill-opacity:1;fill-rule:nonzero;stroke:none"
         d="m 4003.51,1509.33 c 0,28.35 1.8,30.46 15.67,32.87 l 8.44,1.5 c 2.42,1.82 2.42,8.75 0,10.57 -16.28,-0.61 -31.34,-0.91 -45.53,-0.91 -14.47,0 -29.55,0.3 -45.83,0.91 -2.41,-1.82 -2.41,-8.75 0,-10.57 l 8.45,-1.5 c 13.86,-2.41 15.67,-4.52 15.67,-32.87 v -110.95 c 0,-28.35 -1.81,-30.47 -15.67,-32.88 l -8.45,-1.5 c -2.41,-1.82 -2.41,-8.75 0,-10.56 16.28,0.6 31.36,0.91 45.83,0.91 14.19,0 28.95,-0.31 45.23,-0.91 2.41,1.81 2.72,8.74 0.3,10.56 l -8.44,1.5 c -13.87,2.41 -15.67,4.53 -15.67,32.88 v 110.95 0" />
      <path
         id="path1089"
         style="fill:#ffffff;fill-opacity:1;fill-rule:nonzero;stroke:none"
         d="m 4165.43,1397.77 c 0,-28.05 -1.8,-30.16 -15.38,-32.27 l -13.56,-1.5 c -2.43,-1.82 -2.43,-8.75 0,-10.56 21.11,0.6 36.78,0.91 51.25,0.91 13.58,0 28.64,-0.31 48.25,-0.91 2.11,1.81 2.11,8.74 0,10.56 l -12.06,1.5 c -13.56,2.11 -15.38,4.22 -15.38,32.27 v 132.97 c 0,7.84 0.89,8.74 8.14,8.74 h 18.1 c 22.61,0 26.83,-14.16 31.95,-33.47 1.52,-2.4 9.65,-1.8 11.16,0.91 -0.61,17.19 1.52,41.61 4.53,51.87 -0.61,0.9 -2.72,2.1 -4.53,2.1 -1.81,0 -2.72,-0.3 -3.92,-0.9 -2.72,-6.33 -7.24,-6.63 -27.14,-6.63 h -112.17 c -22.92,0 -23.81,1.2 -25.33,6.33 -1.2,0.9 -2.71,1.2 -4.21,1.2 -1.52,0 -3.02,-0.6 -4.22,-1.51 -2.11,-11.75 -3.63,-30.45 -9.96,-51.25 1.82,-3.92 7.53,-4.52 11.16,-2.72 9.05,22.01 15.38,34.07 37.39,34.07 h 18.69 c 7.24,0 7.24,-1.5 7.24,-8.74 v -132.97 0" />
      <path
         id="path1091"
         style="fill:#ffffff;fill-opacity:1;fill-rule:nonzero;stroke:none"
         d="m 4450.42,1418.88 c 0,17.18 3.02,24.71 10.85,38.89 l 19,34.37 c 14.47,26.24 22.02,37.09 26.53,42.83 3.32,4.22 9.05,6.03 14.47,7.23 l 7.85,1.5 c 2.42,2.12 2.42,9.35 -1.21,10.57 -8.73,-0.61 -18.09,-0.91 -29.54,-0.91 -10.86,0 -21.72,0.3 -33.77,0.91 -3.02,-1.51 -2.72,-9.05 -0.3,-10.57 l 6.92,-1.2 c 7.24,-1.2 10.25,-2.41 10.25,-4.22 0,-3.62 -4.21,-13.57 -15.67,-34.98 -8.14,-15.38 -16.58,-32.86 -25.33,-47.63 -3.62,7.53 -9.34,19.59 -13.88,29.54 l -14.17,32.26 c -6.33,14.18 -7.83,18.7 -7.83,21.11 0,0.3 1.8,1.51 7.24,2.72 l 10.25,2.4 c 2.72,2.43 2.11,9.35 -0.61,10.57 -10.25,-0.61 -25.63,-0.91 -44.02,-0.91 -17.79,0 -28.94,0.3 -42.52,0.91 -3.61,-0.91 -3.92,-8.14 -1.2,-10.57 l 10.25,-1.8 c 10.55,-2.11 13.27,-6.63 19.3,-18.99 l 35.88,-74.18 c 7.84,-15.99 8.14,-20.82 8.14,-35.89 v -15.07 c 0,-28.05 -1.82,-30.16 -15.38,-32.27 l -10.25,-1.5 c -2.41,-1.82 -2.41,-8.75 0,-10.56 17.8,0.6 32.86,0.91 47.35,0.91 14.47,0 29.25,-0.31 48.84,-0.91 2.11,1.81 2.11,8.74 0,10.56 l -12.06,1.5 c -13.56,2.11 -15.38,4.22 -15.38,32.27 v 21.11 0" />
      <path
         id="path1093"
         style="fill:#ffffff;fill-opacity:1;fill-rule:evenodd;stroke:none"
         d="m 4870.42,1450.83 c 0,-48.85 -15.38,-87.44 -54.88,-87.44 -49.14,0 -62.12,59.1 -62.12,95.9 0,50.35 19.9,85.02 56.99,85.02 37.4,0 60.01,-41.92 60.01,-93.48 z m -57.6,107.35 c -63.02,0 -107.65,-46.13 -107.65,-105.83 0,-63.03 44.02,-102.82 104.63,-102.82 64.83,0 108.87,39.49 108.87,105.22 0,61.22 -43.13,103.43 -105.85,103.43 v 0" />
      <path
         id="path1095"
         style="fill:#ffffff;fill-opacity:1;fill-rule:nonzero;stroke:none"
         d="m 5059.89,1527.12 c 0,11.76 0,12.36 9.96,12.36 h 23.51 c 15.38,0 24.44,-3.61 29.57,-9.94 3.02,-3.92 5.42,-11.16 8.73,-23.53 3.61,-2.4 10.25,-2.1 11.46,1.21 -0.6,20.2 -0.6,41.92 -0.6,47.05 -4.22,-0.61 -21.4,-0.91 -40.7,-0.91 h -63.33 c -14.47,0 -29.55,0.3 -42.5,0.91 -3.33,-1.22 -3.33,-8.75 -0.61,-10.57 l 6.03,-0.9 c 13.56,-2.71 15.37,-4.82 15.37,-32.87 v -112.16 c 0,-28.05 -1.81,-30.16 -15.37,-32.27 l -9.96,-1.5 c -2.4,-1.82 -2.4,-8.75 0,-10.56 18.1,0.6 33.18,0.91 47.04,0.91 14.47,0 29.25,-0.31 47.94,-0.91 2.12,1.81 2.12,8.74 0,10.56 l -11.16,1.5 c -13.56,2.11 -15.38,4.22 -15.38,32.27 v 40.71 c 0,8.13 0.32,9.04 8.44,9.04 h 23.24 c 15.97,0 18.98,-2.41 22.31,-16.88 l 1.5,-7.24 c 2.11,-2.71 9.66,-2.42 11.46,0.3 -0.6,9.04 -0.89,20.2 -0.89,31.36 0,11.46 0.29,22.62 0.89,32.26 -1.8,2.72 -9.35,3.02 -11.46,0.3 l -1.5,-7.23 c -3.33,-14.78 -6.34,-16.89 -22.31,-16.89 h -23.24 c -8.12,0 -8.44,0.9 -8.44,9.04 v 54.58 0" />
      <path
         id="path1097"
         style="fill:#17233a;fill-opacity:1;fill-rule:nonzero;stroke:none"
         d="M 604.727,391.309 H 54.543 c 0,0 368.27,-123.5 550.184,-329.3402 0.461,-0.5196 2.871,-0.5196 3.332,0 C 789.973,267.809 1158.24,391.309 1158.24,391.309 H 604.727" />
      <path
         id="path1099"
         style="fill:#77b5e6;fill-opacity:1;fill-rule:nonzero;stroke:none"
         d="M 54.5352,1289.23 H 1158.23 V 438.461 H 54.5352 v 850.769 0" />
      <path
         id="path1101"
         style="fill:#17233a;fill-opacity:1;fill-rule:nonzero;stroke:none"
         d="M 51.6602,1582.41 H 1155.36 V 1332.35 H 51.6602 v 250.06 0" />
      <path
         id="path1103"
         style="fill:#ffffff;fill-opacity:1;fill-rule:nonzero;stroke:none"
         d="m 824.824,461.461 v 526.273 c 40.895,0 200.696,108.046 252.936,256.316 V 737.832 c 0,-45.66 -22.95,-68.223 -53.05,-105.535 C 961.965,554.488 910.574,520.621 824.824,461.461 v 0" />
      <path
         id="path1105"
         style="fill:#ffffff;fill-opacity:1;fill-rule:nonzero;stroke:none"
         d="m 135.016,461.461 v 526.25 c 40.886,0 200.683,108.049 252.929,256.299 V 737.816 c 0,-45.66 -22.949,-68.207 -53.043,-105.519 C 272.156,554.488 220.766,520.621 135.016,461.461 v 0" />
      <path
         id="path1107"
         style="fill:#ffffff;fill-opacity:1;fill-rule:nonzero;stroke:none"
         d="M 422.438,277.512 V 961.75 c 59.472,0 291.914,140.48 367.902,333.23 V 636.844 c 0,-59.395 -33.383,-88.715 -77.16,-137.215 C 621.91,398.469 547.164,354.422 422.438,277.512 v 0" />
      <path
         id="path1109"
         style="fill:none;stroke:#ffffff;stroke-width:5.61065;stroke-linecap:butt;stroke-linejoin:miter;stroke-miterlimit:3.86371;stroke-dasharray:none;stroke-opacity:1"
         d="M 422.438,277.512 V 961.75 c 59.472,0 291.914,140.48 367.902,333.23 V 636.844 c 0,-59.395 -33.383,-88.715 -77.16,-137.215 C 621.91,398.469 547.164,354.422 422.438,277.512 Z" />
      <path
         id="path1111"
         style="fill:#ffffff;fill-opacity:1;fill-rule:nonzero;stroke:none"
         d="m 219.574,1368.29 c -27.304,0 -29.781,7.44 -29.781,25.93 v 157.24 h -4.695 l -69.512,-30.07 v -7.17 c 9.375,3.58 18.75,6.89 22.617,6.89 10.762,0 10.762,-12.13 10.762,-19.03 v -106.2 c 0,-17.11 -0.832,-27.86 -32.832,-27.59 v -6.62 h 103.441 v 6.62 0" />
      <path
         id="path1113"
         style="fill:#ffffff;fill-opacity:1;fill-rule:evenodd;stroke:none"
         d="m 422.961,1404.98 c 0,20.14 5.797,28.68 14.07,41.1 18.762,-12.42 36.692,-24.28 36.692,-46.89 0,-7.18 0,-32.29 -24.547,-32.29 -17.934,0 -26.215,18.21 -26.215,38.08 z m 32.277,146.48 c -44.136,0 -62.621,-23.44 -62.621,-49.1 0,-22.9 17.656,-39.73 38.344,-51.31 -18.477,-5.8 -41.375,-16.55 -41.375,-46.63 0,-30.33 27.859,-46.34 57.66,-46.34 39.445,0 64.82,21.52 64.82,56 0,25.65 -17.656,44.96 -41.375,59.04 15.172,4.96 37.516,14.89 37.516,38.34 0,15.72 -11.039,40 -52.969,40 z m -27.035,-30.35 c 0,11.32 9.106,22.35 22.621,22.35 20.414,0 24.555,-19.58 24.555,-33.66 0,-16.55 -4.969,-23.17 -11.305,-31.72 -2.765,1.38 -35.871,17.38 -35.871,43.03 v 0" />
      <path
         id="path1115"
         style="fill:#ffffff;fill-opacity:1;fill-rule:evenodd;stroke:none"
         d="m 755.176,1404.7 c 0,-21.79 0,-39.17 -16.824,-39.17 -17.11,0 -21.243,17.1 -21.243,71.45 0,9.1 2.204,24.56 2.477,24.82 3.039,3.32 7.727,3.59 12.144,3.59 19.032,0 23.446,-20.96 23.446,-60.69 z m 40.554,146.76 c -82.761,-8.28 -121.937,-61.24 -121.937,-111.45 0,-66.21 38.348,-81.93 63.18,-81.93 49.648,0 60.132,46.9 60.132,61.8 0,47.44 -30.898,57.93 -49.929,57.93 -13.246,0 -18.207,-1.93 -24.832,-4.69 12.14,50.76 45.801,65.65 73.386,71.17 v 7.17 0" />
      <path
         id="path1117"
         style="fill:#ffffff;fill-opacity:1;fill-rule:nonzero;stroke:none"
         d="m 991.391,1513.11 h 76.679 l 11.87,35.04 h -88.823 l -26.769,-95.18 c 19.871,-1.37 40.832,-2.75 59.322,-11.02 14.61,-6.35 29.51,-20.15 29.51,-36.97 0,-22.62 -18.21,-28.69 -27.58,-28.69 -17.39,0 -33.108,24 -52.139,24 -11.867,0 -17.113,-8.83 -17.113,-16.55 0,-15.72 18.215,-24.28 39.457,-24.28 50.205,0 78.895,30.34 78.895,66.49 0,27.02 -16.28,44.41 -28.69,51.3 -18.48,10.48 -35.59,12.14 -60.69,13.52 l 6.071,22.34 v 0" />
    </g>
  </g>
</svg>
