<?xml version="1.0" encoding="UTF-8" standalone="no"?>
<!-- Created with Inkscape (http://www.inkscape.org/) -->

<svg
   width="1in"
   height="1in"
   viewBox="0 0 25.400001 25.4"
   version="1.1"
   id="svg858"
   inkscape:version="1.1.1 (3bf5ae0d25, 2021-09-20)"
   sodipodi:docname="no_squish.svg"
   xmlns:inkscape="http://www.inkscape.org/namespaces/inkscape"
   xmlns:sodipodi="http://sodipodi.sourceforge.net/DTD/sodipodi-0.dtd"
   xmlns="http://www.w3.org/2000/svg"
   xmlns:svg="http://www.w3.org/2000/svg">
  <sodipodi:namedview
     id="namedview860"
     pagecolor="#505050"
     bordercolor="#ffffff"
     borderopacity="1"
     inkscape:pageshadow="0"
     inkscape:pageopacity="0"
     inkscape:pagecheckerboard="1"
     inkscape:document-units="mm"
     showgrid="false"
     units="in"
     inkscape:snap-intersection-paths="true"
     inkscape:snap-page="true"
     inkscape:snap-global="false"
     inkscape:zoom="4"
     inkscape:cx="26.125"
     inkscape:cy="28"
     inkscape:window-width="1920"
     inkscape:window-height="1028"
     inkscape:window-x="1912"
     inkscape:window-y="-8"
     inkscape:window-maximized="1"
     inkscape:current-layer="g864"
     inkscape:snap-smooth-nodes="true"
     width="16.53543in" />
  <defs
     id="defs855">
    <inkscape:path-effect
       effect="bend_path"
       id="path-effect5984"
       is_visible="true"
       lpeversion="1"
       bendpath="m 23.834927,-87.308276 c 1.914208,-4.647135 2.428895,-9.330632 0,-14.090614"
       prop_scale="1"
       scale_y_rel="false"
       vertical="false"
       hide_knot="false"
       bendpath-nodetypes="cc" />
    <marker
       style="overflow:visible"
       id="Arrow2Mend"
       refX="0"
       refY="0"
       orient="auto"
       inkscape:stockid="Arrow2Mend"
       inkscape:isstock="true">
      <path
         transform="scale(-0.6)"
         d="M 8.7185878,4.0337352 -2.2072895,0.01601326 8.7185884,-4.0017078 c -1.7454984,2.3720609 -1.7354408,5.6174519 -6e-7,8.035443 z"
         style="fill:context-stroke;fill-rule:evenodd;stroke:context-stroke;stroke-width:0.625;stroke-linejoin:round"
         id="path1187" />
    </marker>
    <symbol
       id="hand-point-right">
      <title
         id="hand-point-right-title">Hand Pointing Right</title>
      <path
         d="M 113.45333,36.406667 H 90.652335 A 30.564667,30.564667 0 0 0 91.228069,30.48 c 0,-12.677246 -9.279467,-22.0133333 -24.341667,-22.0133333 -11.989329,0 -15.081779,12.8420813 -20.03081,20.8449333 -2.046552,3.284273 -4.49633,6.16929 -6.839744,8.79819 l -0.03466,0.03863 -0.03413,0.03916 C 35.893904,42.811435 33.804225,44.45 31.961667,44.45 h -0.708819 c -1.520561,-1.310217 -3.5814,-2.116667 -5.852583,-2.116667 H 8.4666667 C 3.7906854,42.333333 0,45.744871 0,49.953333 v 60.959997 c 0,4.20847 3.7906854,7.62 8.4666667,7.62 H 25.4 c 2.271183,0 4.332023,-0.80645 5.852583,-2.11666 h 0.708819 c 7.590367,0 17.763331,10.58333 33.655,10.58333 h 5.63536 c 16.547571,0 26.140834,-10.22826 26.442459,-24.11545 3.302529,-4.713021 4.892409,-10.791029 4.229369,-16.61345 a 24.645408,24.645408 0 0 0 2.09788,-5.837767 h 9.43186 c 12.02135,0 22.01334,-9.9441 22.01334,-22.013333 0,-11.932444 -10.08089,-22.013333 -22.01334,-22.013333 z m 0,31.326666 H 89.369371 c 3.396456,3.881173 3.813969,11.330782 -1.309688,16.152813 2.970477,5.198004 0.446352,12.07135 -3.419739,14.188281 C 86.366085,108.42704 81.974002,114.3 71.252027,114.3 h -5.63536 c -12.036161,0 -20.42848,-9.50198 -31.75,-10.49761 V 57.036494 c 6.677818,-0.784225 11.368087,-5.614988 15.63026,-10.476442 2.983177,-3.346979 5.748073,-6.693958 8.148902,-10.55026 3.831431,-6.188075 6.914092,-14.843125 9.240838,-14.843125 6.184635,0 11.641666,2.328333 11.641666,9.313333 0,9.313333 -6.985,14.04276 -6.985,18.626667 h 41.909997 c 4.87495,0 9.31334,4.365625 9.31334,9.313333 0,5.020469 -4.29287,9.313333 -9.31334,9.313333 z M 23.283333,101.6 c 0,3.50705 -2.842948,6.35 -6.35,6.35 -3.507052,0 -6.35,-2.84295 -6.35,-6.35 0,-3.507052 2.842948,-6.35 6.35,-6.35 3.507052,0 6.35,2.842948 6.35,6.35 z"
         id="path69907"
         style="stroke-width:1" />
    </symbol>
  </defs>
  <g
     inkscape:label="Layer 1"
     inkscape:groupmode="layer"
     id="layer1"
     transform="translate(-11.580227,97.097361)">
    <g
       id="use97435"
       style="fill:#ffffff;stroke:#ffffff;stroke-width:12.4239"
       transform="matrix(0.08108008,0,0,0.0799042,0.76224993,0.97859359)">
      <title
         id="title97294">Hand Pointing Right</title>
      <g
         id="path97296" />
    </g>
    <path
       style="fill:#ff9955;fill-opacity:1;stroke:none;stroke-width:0.484658;stroke-linecap:round;stroke-linejoin:round;stroke-dasharray:2.90795, 0.484658;paint-order:stroke fill markers"
       id="rect3703"
       width="14.09061"
       height="6.2073116"
       x="87.308273"
       y="20.731272"
       inkscape:path-effect="#path-effect5984"
       sodipodi:type="rect"
       transform="rotate(-90)"
       d="m 20.932629,-88.408293 c 1.537462,-3.850286 1.954074,-8.258169 0.175948,-11.510847 l 5.545988,-2.77488 c 2.567106,5.431882 2.210273,11.561775 0.0034,16.676878 z" />
    <g
       id="g10560"
       transform="matrix(1.2554125,0,0,1.2554125,-5.0426446,33.100897)"
       style="stroke-width:0.796551">
      <g
         id="g10043"
         transform="translate(0.52916667,0.52916663)"
         style="stroke-width:0.796551">
        <path
           style="fill:#ffffff;stroke:none;stroke-width:0.79655"
           d="m 22.384611,-86.795292 v 0.01567 c -0.217059,0.232204 -0.228392,0.618816 0.155017,0.708581 0.188276,0.04409 0.35132,-0.02894 0.533947,-0.04545 0.116814,-0.01052 0.246115,0.02723 0.361706,0.0417 0.614539,0.07679 1.290791,0.225233 1.911875,0.186559 0.712217,-0.04435 1.405073,-0.307576 2.118565,-0.358854 -0.260911,0.229117 -0.62434,0.40401 -0.930102,0.580365 -0.260222,0.150096 -0.555856,0.348686 -0.861205,0.411417 -0.141754,0.02915 -0.305004,-0.0055 -0.447826,-0.01801 -0.252506,-0.02223 -0.505287,-0.03972 -0.757861,-0.06267 -0.636999,-0.05792 -1.37674,-0.06074 -1.980771,-0.269952 -0.404818,-0.1402 -0.793687,-0.425078 -1.154015,-0.641102 -0.403699,-0.242028 -0.80366,-0.492338 -1.171239,-0.778954 -0.118846,-0.09268 -0.335646,-0.229981 -0.358451,-0.380161 -0.06383,-0.420507 0.361327,-0.473524 0.702933,-0.384888 0.422611,0.109672 0.696026,0.383841 1.05067,0.591359 0.26687,0.156162 0.582812,0.201911 0.826757,0.40439"
           id="path3633" />
        <path
           style="fill:#ffffff;stroke:none;stroke-width:0.79655"
           d="m 23.521401,-87.218204 v 0.01567 c -0.359242,0.01406 -0.769469,0.142335 -1.050669,0.344589 -0.281752,-0.169316 -0.597729,-0.270483 -0.87843,-0.431657 -0.237503,-0.13638 -0.433892,-0.309205 -0.688964,-0.425927 -0.121877,-0.05578 -0.24608,-0.107335 -0.37893,-0.13741 -0.08652,-0.01957 -0.199369,-0.01577 -0.274053,-0.06366 -0.247786,-0.158931 -0.142615,-0.564825 0.153484,-0.612142 0.421974,-0.06744 0.899322,0.277657 1.188463,0.514406 0.08287,0.06784 0.148558,0.165137 0.241396,0.220866 0.145561,0.08741 0.356436,0.106242 0.516465,0.172872 0.168314,0.07008 0.30292,0.204405 0.46505,0.269047 0.206052,0.08215 0.485152,0.09437 0.706188,0.133354"
           id="path3635" />
        <path
           style="fill:#ffffff;stroke:none;stroke-width:0.79655"
           d="m 25.088796,-87.390463 c -0.05754,0.09672 -0.165833,0.104597 -0.275585,0.118664 -0.21916,0.02811 -0.433445,0.03795 -0.654516,0.03795 -0.397877,0 -0.920267,-0.06449 -1.291807,-0.201724 -0.147732,-0.05457 -0.263253,-0.184669 -0.413379,-0.247665 -0.177185,-0.07434 -0.404284,-0.09905 -0.568326,-0.190511 -0.157428,-0.08778 -0.279358,-0.243542 -0.430672,-0.344443 -0.153742,-0.10253 -0.323848,-0.202275 -0.499499,-0.270691 -0.09366,-0.03649 -0.229649,-0.04477 -0.292258,-0.12502 -0.0704,-0.09025 -0.02404,-0.251815 0.02628,-0.342882 0.201023,-0.363726 0.805898,-0.03649 1.041059,0.116331 0.22722,0.147671 0.389885,0.347593 0.603102,0.504083 0.161321,0.118413 0.366288,0.188068 0.533689,0.302062 0.105807,0.07205 0.198249,0.190916 0.311566,0.24751 0.184798,0.09229 0.464982,0.110906 0.670207,0.15235 0.404078,0.08162 0.827257,0.214083 1.240136,0.24397"
           id="path3639" />
        <path
           style="fill:#ffffff;stroke:none;stroke-width:0.79655"
           d="m 27.672411,-88.75316 c -0.116314,0.04482 -0.271021,0.0442 -0.396154,0.0693 -0.257982,0.05185 -0.521408,0.139757 -0.740636,0.275746 -0.336662,0.208819 -0.646369,0.463518 -0.96455,0.694988 -0.118054,0.08588 -0.267008,0.242538 -0.413378,0.282264 -0.154207,0.04186 -0.449894,-0.08661 -0.602844,-0.125259 -0.291139,-0.07357 -0.585274,-0.137743 -0.878429,-0.20442 -0.134658,-0.03061 -0.307312,-0.04727 -0.430602,-0.104566 -0.09754,-0.04534 -0.172844,-0.136801 -0.258362,-0.198813 -0.182902,-0.132631 -0.400874,-0.212105 -0.585551,-0.33854 -0.137224,-0.09393 -0.244306,-0.22804 -0.378999,-0.328389 -0.197147,-0.146874 -0.447774,-0.246567 -0.258878,-0.507627 0.255554,-0.3532 0.885164,0.01796 1.137308,0.183732 0.201246,0.132287 0.345963,0.311474 0.534618,0.452111 0.168952,0.125931 0.391194,0.199282 0.567724,0.321408 0.09129,0.06315 0.163991,0.150331 0.258361,0.208413 0.127838,0.07866 0.517688,0.16927 0.67174,0.155844 0.153622,-0.01338 0.348565,-0.206924 0.499499,-0.265631 0.130628,-0.05081 0.270712,-0.08221 0.413379,-0.08477 0.07691,-0.0016 0.167418,0.029 0.241137,0.0066 0.124307,-0.03785 0.247132,-0.135218 0.361706,-0.194721 0.318164,-0.165262 0.846014,-0.398923 1.222911,-0.297617"
           id="path3641" />
        <path
           style="fill:#ffffff;stroke:none;stroke-width:0.79655"
           d="m 32.1679,-86.810947 v 0.01567 l -1.515721,1.378346 c -0.208136,0.189277 -0.451151,0.500236 -0.723412,0.610861 -0.26985,-0.516441 -0.90287,-0.916208 -1.412376,-1.221669 -0.157498,-0.09442 -0.395276,-0.271894 -0.585619,-0.293509 -0.112199,-0.01275 -0.249699,0.02514 -0.361707,0.03842 -0.270418,0.03207 -0.540423,0.07227 -0.809533,0.112807 -0.41107,0.06191 -0.844135,0.175892 -1.257359,0.203463 -0.361689,0.0241 -0.728045,-0.02962 -1.085118,-0.07487 -0.286937,-0.03634 -0.575233,-0.06533 -0.861206,-0.107824 -0.14997,-0.02228 -0.349115,-0.0798 -0.499498,-0.05783 -0.204502,0.02988 -0.575457,0.150899 -0.694941,-0.08705 -0.153174,-0.304977 0.223224,-0.563357 0.488252,-0.660905 0.32178,-0.118445 0.735055,-0.212874 1.085118,-0.198871 0.275017,0.01099 0.53529,0.01119 0.809533,-0.02395 0.101381,-0.01301 0.221932,-0.01489 0.310034,-0.06696 0.614228,-0.363039 1.079176,-0.953534 1.739633,-1.253873 0.623031,-0.283316 1.370144,-0.298444 2.049669,-0.255907 0.549879,0.03446 1.058162,0.09751 1.532945,0.37255 0.276546,0.160202 0.493041,0.390479 0.723412,0.59997 l 1.067894,0.97111"
           id="path3637" />
      </g>
      <path
         style="fill:#ffffff;stroke:none;stroke-width:0.79655"
         d="m 27.713592,-101.12788 v -0.0157 c 0.217058,-0.2322 0.228392,-0.61881 -0.155017,-0.70858 -0.188277,-0.0441 -0.35132,0.0289 -0.533947,0.0455 -0.116814,0.0105 -0.246115,-0.0272 -0.361706,-0.0417 -0.614539,-0.0768 -1.290792,-0.22523 -1.911875,-0.18656 -0.712217,0.0443 -1.405073,0.30758 -2.118565,0.35885 0.260911,-0.22911 0.62434,-0.40401 0.930102,-0.58036 0.260222,-0.1501 0.555856,-0.34869 0.861205,-0.41142 0.141754,-0.0292 0.305004,0.005 0.447826,0.018 0.252506,0.0222 0.505286,0.0397 0.757861,0.0627 0.636998,0.0579 1.376739,0.0607 1.980771,0.26995 0.404818,0.1402 0.793687,0.42508 1.154015,0.64111 0.403699,0.24202 0.80366,0.49233 1.171239,0.77895 0.118846,0.0927 0.335646,0.22998 0.358451,0.38016 0.06383,0.42051 -0.361327,0.47353 -0.702933,0.38489 -0.422611,-0.10967 -0.696026,-0.38384 -1.05067,-0.59136 -0.26687,-0.15616 -0.582812,-0.20191 -0.826757,-0.40439"
         id="path2906" />
      <path
         style="fill:#ffffff;stroke:none;stroke-width:0.79655"
         d="m 26.576802,-100.70497 v -0.0157 c 0.359242,-0.014 0.769469,-0.14233 1.050669,-0.34459 0.281752,0.16932 0.597728,0.27049 0.878429,0.43166 0.237504,0.13638 0.433893,0.30921 0.688965,0.42593 0.121877,0.0558 0.24608,0.10733 0.37893,0.13741 0.08652,0.0196 0.199369,0.0158 0.274053,0.0637 0.247785,0.158927 0.142615,0.564818 -0.153484,0.612134 -0.421974,0.06744 -0.899323,-0.277657 -1.188464,-0.514407 -0.08287,-0.0678 -0.148557,-0.165127 -0.241395,-0.220857 -0.145561,-0.0874 -0.356436,-0.10625 -0.516465,-0.17288 -0.168314,-0.0701 -0.30292,-0.2044 -0.46505,-0.26904 -0.206052,-0.0821 -0.485152,-0.0944 -0.706188,-0.13336"
         id="path2904" />
      <path
         style="fill:#ffffff;stroke:none;stroke-width:0.79655"
         d="m 25.009406,-100.53271 c 0.05755,-0.0967 0.165834,-0.1046 0.275586,-0.11866 0.21916,-0.0281 0.433444,-0.038 0.654516,-0.038 0.397877,0 0.920267,0.0645 1.291807,0.20172 0.147731,0.0546 0.263253,0.18467 0.413379,0.24767 0.177184,0.0743 0.404284,0.099 0.568326,0.19051 0.157428,0.0878 0.279358,0.243537 0.430672,0.344437 0.153742,0.10253 0.323847,0.20227 0.499499,0.270691 0.09366,0.03649 0.229649,0.04477 0.292258,0.12502 0.0704,0.09025 0.02404,0.251815 -0.02628,0.342881 -0.201023,0.363726 -0.805898,0.03649 -1.041059,-0.116331 -0.22722,-0.14767 -0.389885,-0.347593 -0.603102,-0.504081 -0.161321,-0.11841 -0.366288,-0.18807 -0.533689,-0.30206 -0.105808,-0.0721 -0.198249,-0.190917 -0.311566,-0.247507 -0.184798,-0.0923 -0.464982,-0.11091 -0.670207,-0.15235 -0.404078,-0.0816 -0.827257,-0.21409 -1.240136,-0.24397"
         id="path2900" />
      <path
         style="fill:#ffffff;stroke:none;stroke-width:0.79655"
         d="m 22.425791,-99.170014 c 0.116315,-0.04482 0.271021,-0.0442 0.396155,-0.0693 0.257982,-0.05185 0.521408,-0.139758 0.740636,-0.275739 0.336662,-0.20882 0.646369,-0.46352 0.964549,-0.694987 0.118054,-0.0859 0.267009,-0.24254 0.413379,-0.28227 0.154207,-0.0418 0.449894,0.0866 0.602844,0.12526 0.291138,0.0736 0.585274,0.13775 0.878429,0.20442 0.134658,0.0306 0.307312,0.0473 0.430602,0.10457 0.09754,0.0453 0.172844,0.136797 0.258362,0.198807 0.182902,0.13263 0.400874,0.21211 0.585551,0.33854 0.137223,0.09393 0.244306,0.228038 0.378998,0.328387 0.197148,0.146875 0.447775,0.246568 0.258879,0.507628 -0.255554,0.3532 -0.885164,-0.01796 -1.137308,-0.183732 -0.201246,-0.132287 -0.345963,-0.311474 -0.534618,-0.452112 -0.168952,-0.125931 -0.391194,-0.199281 -0.567724,-0.321401 -0.09129,-0.0632 -0.163991,-0.15033 -0.258361,-0.20842 -0.127838,-0.0786 -0.517688,-0.169267 -0.671741,-0.155837 -0.153621,0.0134 -0.348564,0.206927 -0.499499,0.265627 -0.130627,0.0508 -0.270711,0.0822 -0.413378,0.0848 -0.07691,0.002 -0.167418,-0.029 -0.241137,-0.007 -0.124307,0.0379 -0.247132,0.13522 -0.361706,0.194718 -0.318164,0.165261 -0.846014,0.398923 -1.222912,0.297616"
         id="path2898" />
      <rect
         style="fill:#ff9955;fill-opacity:1;stroke:none;stroke-width:0.210754;stroke-linecap:round;stroke-linejoin:round;stroke-dasharray:1.26452, 0.210754;paint-order:stroke fill markers"
         id="rect10079"
         width="7.3421874"
         height="11.509375"
         x="22.097414"
         y="-100.93383" />
      <rect
         style="fill:#cccccc;fill-opacity:1;stroke:none;stroke-width:0.210754;stroke-linecap:round;stroke-linejoin:round;stroke-dasharray:1.26452, 0.210754;paint-order:stroke fill markers"
         id="rect10318"
         width="14.485937"
         height="1.9182291"
         x="18.723978"
         y="-89.689026" />
      <path
         style="fill:#ffffff;stroke:none;stroke-width:0.79655"
         d="m 17.930303,-101.11222 v -0.0157 l 1.51572,-1.37835 c 0.208137,-0.18928 0.451152,-0.50024 0.723413,-0.61086 0.26985,0.51644 0.90287,0.91621 1.412376,1.22167 0.157498,0.0944 0.395276,0.27189 0.585619,0.29351 0.112199,0.0127 0.249698,-0.0251 0.361706,-0.0384 0.270419,-0.0321 0.540424,-0.0723 0.809534,-0.11281 0.41107,-0.0619 0.844135,-0.17589 1.257359,-0.20346 0.361689,-0.0241 0.728045,0.0296 1.085118,0.0749 0.286937,0.0363 0.575233,0.0653 0.861205,0.10782 0.14997,0.0223 0.349116,0.0798 0.499499,0.0578 0.204502,-0.0299 0.575457,-0.1509 0.694941,0.0871 0.153174,0.30498 -0.223224,0.56336 -0.488252,0.66091 -0.321781,0.11844 -0.735055,0.21287 -1.085118,0.19887 -0.275017,-0.011 -0.53529,-0.0112 -0.809533,0.0239 -0.101381,0.013 -0.221932,0.0149 -0.310034,0.067 -0.614228,0.36303 -1.079176,0.953527 -1.739634,1.253866 -0.62303,0.283316 -1.370143,0.298444 -2.049668,0.255907 -0.549879,-0.03446 -1.058162,-0.09751 -1.532945,-0.372546 -0.276546,-0.16021 -0.493041,-0.39048 -0.723412,-0.599967 l -1.067894,-0.97111"
         id="path2902" />
    </g>
    <g
       id="g864"
       transform="translate(11.672738,-96.999474)">
      <g
         id="g10705"
         transform="translate(0.06614583,4.8286458)">
        <ellipse
           style="fill:#00ff00;stroke:#008000;stroke-width:0.864999;stroke-linejoin:round;stroke-miterlimit:4;stroke-dasharray:none;paint-order:stroke fill markers"
           id="path96759"
           cx="5.9929061"
           cy="6.3182583"
           rx="5.3807092"
           ry="5.4214725" />
        <path
           style="fill:none;stroke:#ffffff;stroke-width:1.5;stroke-linecap:round;stroke-linejoin:miter;stroke-miterlimit:4;stroke-dasharray:none;stroke-opacity:1"
           d="m 2.9571955,6.714908 1.461568,2.1220378 C 5.5278312,5.9246903 7.2302894,4.7763601 8.9496246,3.6781989"
           id="path2934"
           sodipodi:nodetypes="ccc" />
      </g>
    </g>
  </g>
</svg>
