<?xml version="1.0" encoding="UTF-8" standalone="no"?>
<!-- Created with Inkscape (http://www.inkscape.org/) -->

<svg
   width="1in"
   height="1in"
   viewBox="0 0 25.400001 25.4"
   version="1.1"
   id="svg858"
   inkscape:version="1.3.2 (091e20e, 2023-11-25, custom)"
   sodipodi:docname="no_squish.svg"
   xmlns:inkscape="http://www.inkscape.org/namespaces/inkscape"
   xmlns:sodipodi="http://sodipodi.sourceforge.net/DTD/sodipodi-0.dtd"
   xmlns="http://www.w3.org/2000/svg"
   xmlns:svg="http://www.w3.org/2000/svg">
  <sodipodi:namedview
     id="namedview860"
     pagecolor="#505050"
     bordercolor="#ffffff"
     borderopacity="1"
     inkscape:pageshadow="0"
     inkscape:pageopacity="0"
     inkscape:pagecheckerboard="1"
     inkscape:document-units="mm"
     showgrid="false"
     units="in"
     inkscape:snap-intersection-paths="true"
     inkscape:snap-page="true"
     inkscape:snap-global="false"
     inkscape:zoom="4"
     inkscape:cx="26"
     inkscape:cy="28"
     inkscape:window-width="2400"
     inkscape:window-height="1280"
     inkscape:window-x="2391"
     inkscape:window-y="-9"
     inkscape:window-maximized="1"
     inkscape:current-layer="layer1"
     inkscape:snap-smooth-nodes="true"
     width="16.53543in"
     inkscape:showpageshadow="0"
     inkscape:deskcolor="#d1d1d1" />
  <defs
     id="defs855">
    <inkscape:path-effect
       effect="bend_path"
       id="path-effect5984"
       is_visible="true"
       lpeversion="1"
       bendpath="m 23.834927,-87.308276 c 1.914208,-4.647135 2.428895,-9.330632 0,-14.090614"
       prop_scale="1"
       scale_y_rel="false"
       vertical="false"
       hide_knot="false"
       bendpath-nodetypes="cc" />
    <marker
       style="overflow:visible"
       id="Arrow2Mend"
       refX="0"
       refY="0"
       orient="auto"
       inkscape:stockid="Arrow2Mend"
       inkscape:isstock="true">
      <path
         transform="scale(-0.6)"
         d="M 8.7185878,4.0337352 -2.2072895,0.01601326 8.7185884,-4.0017078 c -1.7454984,2.3720609 -1.7354408,5.6174519 -6e-7,8.035443 z"
         style="fill:context-stroke;fill-rule:evenodd;stroke:context-stroke;stroke-width:0.625;stroke-linejoin:round"
         id="path1187" />
    </marker>
    <symbol
       id="hand-point-right">
      <title
         id="hand-point-right-title">Hand Pointing Right</title>
      <path
         d="M 113.45333,36.406667 H 90.652335 A 30.564667,30.564667 0 0 0 91.228069,30.48 c 0,-12.677246 -9.279467,-22.0133333 -24.341667,-22.0133333 -11.989329,0 -15.081779,12.8420813 -20.03081,20.8449333 -2.046552,3.284273 -4.49633,6.16929 -6.839744,8.79819 l -0.03466,0.03863 -0.03413,0.03916 C 35.893904,42.811435 33.804225,44.45 31.961667,44.45 h -0.708819 c -1.520561,-1.310217 -3.5814,-2.116667 -5.852583,-2.116667 H 8.4666667 C 3.7906854,42.333333 0,45.744871 0,49.953333 v 60.959997 c 0,4.20847 3.7906854,7.62 8.4666667,7.62 H 25.4 c 2.271183,0 4.332023,-0.80645 5.852583,-2.11666 h 0.708819 c 7.590367,0 17.763331,10.58333 33.655,10.58333 h 5.63536 c 16.547571,0 26.140834,-10.22826 26.442459,-24.11545 3.302529,-4.713021 4.892409,-10.791029 4.229369,-16.61345 a 24.645408,24.645408 0 0 0 2.09788,-5.837767 h 9.43186 c 12.02135,0 22.01334,-9.9441 22.01334,-22.013333 0,-11.932444 -10.08089,-22.013333 -22.01334,-22.013333 z m 0,31.326666 H 89.369371 c 3.396456,3.881173 3.813969,11.330782 -1.309688,16.152813 2.970477,5.198004 0.446352,12.07135 -3.419739,14.188281 C 86.366085,108.42704 81.974002,114.3 71.252027,114.3 h -5.63536 c -12.036161,0 -20.42848,-9.50198 -31.75,-10.49761 V 57.036494 c 6.677818,-0.784225 11.368087,-5.614988 15.63026,-10.476442 2.983177,-3.346979 5.748073,-6.693958 8.148902,-10.55026 3.831431,-6.188075 6.914092,-14.843125 9.240838,-14.843125 6.184635,0 11.641666,2.328333 11.641666,9.313333 0,9.313333 -6.985,14.04276 -6.985,18.626667 h 41.909997 c 4.87495,0 9.31334,4.365625 9.31334,9.313333 0,5.020469 -4.29287,9.313333 -9.31334,9.313333 z M 23.283333,101.6 c 0,3.50705 -2.842948,6.35 -6.35,6.35 -3.507052,0 -6.35,-2.84295 -6.35,-6.35 0,-3.507052 2.842948,-6.35 6.35,-6.35 3.507052,0 6.35,2.842948 6.35,6.35 z"
         id="path69907"
         style="stroke-width:1" />
    </symbol>
  </defs>
  <g
     inkscape:label="Layer 1"
     inkscape:groupmode="layer"
     id="layer1"
     transform="translate(-11.580227,97.097361)">
    <g
       id="use97435"
       style="fill:#ffffff;stroke:#ffffff;stroke-width:12.4239"
       transform="matrix(0.08108008,0,0,0.0799042,0.76224993,0.97859359)">
      <title
         id="title97294">Hand Pointing Right</title>
      <g
         id="path97296" />
    </g>
    <path
       style="fill:#ff9955;fill-opacity:1;stroke:none;stroke-width:0.484658;stroke-linecap:round;stroke-linejoin:round;stroke-dasharray:2.90795, 0.484658;paint-order:stroke fill markers"
       id="rect3703"
       width="14.09061"
       height="6.2073116"
       x="87.308273"
       y="20.731272"
       inkscape:path-effect="#path-effect5984"
       sodipodi:type="rect"
       transform="rotate(-90)"
       d="m 20.932629,-88.408293 c 1.537462,-3.850286 1.954074,-8.258169 0.175948,-11.510847 l 5.545988,-2.77488 c 2.567106,5.431882 2.210273,11.561775 0.0034,16.676878 z" />
    <g
       id="g10043"
       transform="matrix(1.2554125,0,0,1.2554125,-4.3783221,33.765219)"
       style="stroke-width:0.796551">
      <path
         style="fill:#d38d5f;stroke:none;stroke-width:0.79655"
         d="m 22.384611,-86.795292 v 0.01567 c -0.217059,0.232204 -0.228392,0.618816 0.155017,0.708581 0.188276,0.04409 0.35132,-0.02894 0.533947,-0.04545 0.116814,-0.01052 0.246115,0.02723 0.361706,0.0417 0.614539,0.07679 1.290791,0.225233 1.911875,0.186559 0.712217,-0.04435 1.405073,-0.307576 2.118565,-0.358854 -0.260911,0.229117 -0.62434,0.40401 -0.930102,0.580365 -0.260222,0.150096 -0.555856,0.348686 -0.861205,0.411417 -0.141754,0.02915 -0.305004,-0.0055 -0.447826,-0.01801 -0.252506,-0.02223 -0.505287,-0.03972 -0.757861,-0.06267 -0.636999,-0.05792 -1.37674,-0.06074 -1.980771,-0.269952 -0.404818,-0.1402 -0.793687,-0.425078 -1.154015,-0.641102 -0.403699,-0.242028 -0.80366,-0.492338 -1.171239,-0.778954 -0.118846,-0.09268 -0.335646,-0.229981 -0.358451,-0.380161 -0.06383,-0.420507 0.361327,-0.473524 0.702933,-0.384888 0.422611,0.109672 0.696026,0.383841 1.05067,0.591359 0.26687,0.156162 0.582812,0.201911 0.826757,0.40439"
         id="path3633" />
      <path
         style="fill:#d38d5f;stroke:none;stroke-width:0.79655"
         d="m 23.521401,-87.218204 v 0.01567 c -0.359242,0.01406 -0.769469,0.142335 -1.050669,0.344589 -0.281752,-0.169316 -0.597729,-0.270483 -0.87843,-0.431657 -0.237503,-0.13638 -0.433892,-0.309205 -0.688964,-0.425927 -0.121877,-0.05578 -0.24608,-0.107335 -0.37893,-0.13741 -0.08652,-0.01957 -0.199369,-0.01577 -0.274053,-0.06366 -0.247786,-0.158931 -0.142615,-0.564825 0.153484,-0.612142 0.421974,-0.06744 0.899322,0.277657 1.188463,0.514406 0.08287,0.06784 0.148558,0.165137 0.241396,0.220866 0.145561,0.08741 0.356436,0.106242 0.516465,0.172872 0.168314,0.07008 0.30292,0.204405 0.46505,0.269047 0.206052,0.08215 0.485152,0.09437 0.706188,0.133354"
         id="path3635" />
      <path
         style="fill:#d38d5f;stroke:none;stroke-width:0.79655"
         d="m 25.088796,-87.390463 c -0.05754,0.09672 -0.165833,0.104597 -0.275585,0.118664 -0.21916,0.02811 -0.433445,0.03795 -0.654516,0.03795 -0.397877,0 -0.920267,-0.06449 -1.291807,-0.201724 -0.147732,-0.05457 -0.263253,-0.184669 -0.413379,-0.247665 -0.177185,-0.07434 -0.404284,-0.09905 -0.568326,-0.190511 -0.157428,-0.08778 -0.279358,-0.243542 -0.430672,-0.344443 -0.153742,-0.10253 -0.323848,-0.202275 -0.499499,-0.270691 -0.09366,-0.03649 -0.229649,-0.04477 -0.292258,-0.12502 -0.0704,-0.09025 -0.02404,-0.251815 0.02628,-0.342882 0.201023,-0.363726 0.805898,-0.03649 1.041059,0.116331 0.22722,0.147671 0.389885,0.347593 0.603102,0.504083 0.161321,0.118413 0.366288,0.188068 0.533689,0.302062 0.105807,0.07205 0.198249,0.190916 0.311566,0.24751 0.184798,0.09229 0.464982,0.110906 0.670207,0.15235 0.404078,0.08162 0.827257,0.214083 1.240136,0.24397"
         id="path3639" />
      <path
         style="fill:#d38d5f;stroke:none;stroke-width:0.79655"
         d="m 27.672411,-88.75316 c -0.116314,0.04482 -0.271021,0.0442 -0.396154,0.0693 -0.257982,0.05185 -0.521408,0.139757 -0.740636,0.275746 -0.336662,0.208819 -0.646369,0.463518 -0.96455,0.694988 -0.118054,0.08588 -0.267008,0.242538 -0.413378,0.282264 -0.154207,0.04186 -0.449894,-0.08661 -0.602844,-0.125259 -0.291139,-0.07357 -0.585274,-0.137743 -0.878429,-0.20442 -0.134658,-0.03061 -0.307312,-0.04727 -0.430602,-0.104566 -0.09754,-0.04534 -0.172844,-0.136801 -0.258362,-0.198813 -0.182902,-0.132631 -0.400874,-0.212105 -0.585551,-0.33854 -0.137224,-0.09393 -0.244306,-0.22804 -0.378999,-0.328389 -0.197147,-0.146874 -0.447774,-0.246567 -0.258878,-0.507627 0.255554,-0.3532 0.885164,0.01796 1.137308,0.183732 0.201246,0.132287 0.345963,0.311474 0.534618,0.452111 0.168952,0.125931 0.391194,0.199282 0.567724,0.321408 0.09129,0.06315 0.163991,0.150331 0.258361,0.208413 0.127838,0.07866 0.517688,0.16927 0.67174,0.155844 0.153622,-0.01338 0.348565,-0.206924 0.499499,-0.265631 0.130628,-0.05081 0.270712,-0.08221 0.413379,-0.08477 0.07691,-0.0016 0.167418,0.029 0.241137,0.0066 0.124307,-0.03785 0.247132,-0.135218 0.361706,-0.194721 0.318164,-0.165262 0.846014,-0.398923 1.222911,-0.297617"
         id="path3641" />
      <path
         style="fill:#d38d5f;stroke:none;stroke-width:0.79655"
         d="m 32.1679,-86.810947 v 0.01567 l -1.515721,1.378346 c -0.208136,0.189277 -0.451151,0.500236 -0.723412,0.610861 -0.26985,-0.516441 -0.90287,-0.916208 -1.412376,-1.221669 -0.157498,-0.09442 -0.395276,-0.271894 -0.585619,-0.293509 -0.112199,-0.01275 -0.249699,0.02514 -0.361707,0.03842 -0.270418,0.03207 -0.540423,0.07227 -0.809533,0.112807 -0.41107,0.06191 -0.844135,0.175892 -1.257359,0.203463 -0.361689,0.0241 -0.728045,-0.02962 -1.085118,-0.07487 -0.286937,-0.03634 -0.575233,-0.06533 -0.861206,-0.107824 -0.14997,-0.02228 -0.349115,-0.0798 -0.499498,-0.05783 -0.204502,0.02988 -0.575457,0.150899 -0.694941,-0.08705 -0.153174,-0.304977 0.223224,-0.563357 0.488252,-0.660905 0.32178,-0.118445 0.735055,-0.212874 1.085118,-0.198871 0.275017,0.01099 0.53529,0.01119 0.809533,-0.02395 0.101381,-0.01301 0.221932,-0.01489 0.310034,-0.06696 0.614228,-0.363039 1.079176,-0.953534 1.739633,-1.253873 0.623031,-0.283316 1.370144,-0.298444 2.049669,-0.255907 0.549879,0.03446 1.058162,0.09751 1.532945,0.37255 0.276546,0.160202 0.493041,0.390479 0.723412,0.59997 l 1.067894,0.97111"
         id="path3637" />
    </g>
    <path
       style="fill:#d38d5f;stroke:none;stroke-width:0.999999"
       d="m 29.749345,-93.856308 v -0.01971 c 0.272498,-0.291506 0.286726,-0.776861 -0.19461,-0.88956 -0.236365,-0.05536 -0.441052,0.03628 -0.670324,0.05712 -0.14665,0.01318 -0.308976,-0.03415 -0.45409,-0.05235 -0.7715,-0.09642 -1.620476,-0.282757 -2.400192,-0.23421 -0.894126,0.05562 -1.763946,0.38614 -2.659673,0.450505 0.327551,-0.287628 0.783804,-0.507199 1.167662,-0.728591 0.326686,-0.188438 0.697828,-0.43775 1.081167,-0.516502 0.17796,-0.03666 0.382906,0.0063 0.562207,0.0226 0.316999,0.02787 0.634342,0.04984 0.951428,0.07872 0.799695,0.07269 1.728375,0.0762 2.486685,0.338898 0.508213,0.176009 0.996404,0.533651 1.448764,0.804858 0.506809,0.303835 1.008925,0.618077 1.470389,0.977903 0.1492,0.116377 0.421374,0.28872 0.450003,0.477258 0.08013,0.527913 -0.453614,0.594475 -0.88247,0.483196 -0.530552,-0.137682 -0.8738,-0.481878 -1.319025,-0.742401 -0.335032,-0.196045 -0.731669,-0.253481 -1.037921,-0.507676"
       id="path2906" />
    <path
       style="fill:#d38d5f;stroke:none;stroke-width:0.999999"
       d="m 28.322205,-93.325381 v -0.01971 c 0.450997,-0.01758 0.966001,-0.178683 1.319023,-0.432603 0.353715,0.212567 0.750395,0.339577 1.102791,0.541912 0.298165,0.171213 0.544714,0.388186 0.864935,0.534717 0.153006,0.07005 0.308932,0.134744 0.475713,0.172507 0.108619,0.02461 0.250291,0.01984 0.34405,0.07997 0.311072,0.199519 0.179041,0.70908 -0.192686,0.768481 -0.529751,0.08467 -1.129021,-0.348574 -1.492012,-0.645793 -0.104036,-0.08512 -0.186501,-0.207302 -0.303051,-0.277266 -0.182739,-0.109723 -0.447474,-0.133388 -0.648376,-0.217036 -0.211304,-0.088 -0.38029,-0.256606 -0.58383,-0.337756 -0.25868,-0.10307 -0.609066,-0.118511 -0.886557,-0.167422"
       id="path2904" />
    <path
       style="fill:#d38d5f;stroke:none;stroke-width:0.999999"
       d="m 26.354476,-93.109124 c 0.07225,-0.121398 0.20819,-0.131316 0.345974,-0.148967 0.275137,-0.03528 0.544151,-0.04771 0.821688,-0.04771 0.4995,0 1.155315,0.08097 1.621751,0.253242 0.185463,0.06855 0.330491,0.231837 0.518961,0.310928 0.222439,0.09328 0.507543,0.124286 0.713483,0.239169 0.197637,0.110225 0.35071,0.305739 0.540671,0.43241 0.19301,0.128718 0.406562,0.253933 0.627078,0.339829 0.117582,0.04581 0.288304,0.05621 0.366904,0.156952 0.08838,0.113301 0.03018,0.316131 -0.03299,0.430457 -0.252367,0.456626 -1.011735,0.04581 -1.306959,-0.146044 -0.285255,-0.185386 -0.489466,-0.436372 -0.757141,-0.632829 -0.202525,-0.148653 -0.459843,-0.236106 -0.67,-0.37921 -0.132833,-0.09051 -0.248885,-0.23968 -0.391144,-0.310723 -0.231998,-0.115875 -0.583744,-0.139238 -0.841386,-0.191262 -0.507285,-0.102442 -1.038549,-0.268772 -1.556883,-0.306283"
       id="path2900" />
    <path
       style="fill:#d38d5f;stroke:none;stroke-width:0.999999"
       d="m 23.110974,-91.398378 c 0.146023,-0.05627 0.340243,-0.05549 0.497338,-0.087 0.323874,-0.06509 0.654582,-0.175454 0.929803,-0.346166 0.42265,-0.262156 0.81146,-0.581909 1.210907,-0.872496 0.148207,-0.10784 0.335207,-0.304488 0.518961,-0.354365 0.193594,-0.05248 0.564803,0.108719 0.756818,0.157253 0.365499,0.0924 0.734761,0.172933 1.102791,0.256631 0.169051,0.03842 0.385803,0.05938 0.540583,0.131279 0.122453,0.05687 0.216991,0.171736 0.324351,0.249585 0.229618,0.166505 0.503262,0.266285 0.735108,0.425007 0.172272,0.117921 0.306705,0.286282 0.475799,0.412261 0.247502,0.184389 0.562142,0.309545 0.325,0.637283 -0.320826,0.443411 -1.111246,-0.02255 -1.427791,-0.23066 -0.252647,-0.166075 -0.434326,-0.391028 -0.671166,-0.567587 -0.212104,-0.158095 -0.49111,-0.25018 -0.712728,-0.403491 -0.114606,-0.07934 -0.205876,-0.188726 -0.324349,-0.261653 -0.16049,-0.09868 -0.649912,-0.2125 -0.843312,-0.19564 -0.192858,0.01682 -0.437592,0.259779 -0.627078,0.333472 -0.16399,0.06378 -0.339854,0.103195 -0.51896,0.106459 -0.09655,0.0025 -0.210178,-0.03641 -0.302726,-0.0088 -0.156057,0.04758 -0.310253,0.169757 -0.45409,0.244451 -0.399427,0.207471 -1.062097,0.500813 -1.535259,0.373631"
       id="path2898" />
    <rect
       style="fill:#ff9955;fill-opacity:1;stroke:none;stroke-width:0.264583;stroke-linecap:round;stroke-linejoin:round;stroke-dasharray:1.58749, 0.264583;paint-order:stroke fill markers"
       id="rect10079"
       width="9.217474"
       height="14.449013"
       x="22.698725"
       y="-93.612694" />
    <rect
       style="fill:#cccccc;fill-opacity:1;stroke:none;stroke-width:0.264583;stroke-linecap:round;stroke-linejoin:round;stroke-dasharray:1.58749, 0.264583;paint-order:stroke fill markers"
       id="rect10318"
       width="18.185827"
       height="2.4081688"
       x="18.463671"
       y="-79.495827" />
    <path
       style="fill:#d38d5f;stroke:none;stroke-width:0.999999"
       d="m 17.467282,-93.836648 v -0.01971 l 1.902854,-1.730398 c 0.261298,-0.237624 0.566382,-0.628007 0.908181,-0.766881 0.338774,0.648345 1.133475,1.150222 1.773115,1.5337 0.197725,0.118511 0.496234,0.341334 0.735193,0.368476 0.140856,0.01594 0.313474,-0.03151 0.454091,-0.04821 0.339487,-0.0403 0.678455,-0.09077 1.016299,-0.141623 0.516062,-0.07771 1.059737,-0.220814 1.578504,-0.255426 0.454069,-0.03026 0.913997,0.03716 1.362271,0.09403 0.360224,0.04557 0.722154,0.08198 1.081167,0.135359 0.188274,0.02799 0.438285,0.100182 0.627077,0.07256 0.256735,-0.03754 0.722436,-0.189442 0.872438,0.109346 0.192297,0.382876 -0.280238,0.707249 -0.612958,0.829715 -0.403968,0.148691 -0.922797,0.267239 -1.36227,0.249664 -0.34526,-0.01381 -0.67201,-0.01406 -1.016298,0.03 -0.127275,0.01632 -0.278616,0.01871 -0.389221,0.08411 -0.771109,0.455752 -1.354811,1.197069 -2.183958,1.574119 -0.78216,0.355678 -1.720095,0.37467 -2.573179,0.321268 -0.690325,-0.04326 -1.32843,-0.122415 -1.924478,-0.467698 -0.347179,-0.20113 -0.61897,-0.490214 -0.908181,-0.753206 l -1.340647,-1.219144"
       id="path2902" />
    <g
       id="g864"
       transform="translate(11.672738,-96.999474)">
      <g
         id="g10705"
         transform="translate(0.06614583,4.8286458)">
        <ellipse
           style="fill:#00ff00;stroke:#008000;stroke-width:0.864999;stroke-linejoin:round;stroke-miterlimit:4;stroke-dasharray:none;paint-order:stroke fill markers"
           id="path96759"
           cx="5.9929061"
           cy="6.3182583"
           rx="5.3807092"
           ry="5.4214725" />
        <path
           style="fill:none;stroke:#ffffff;stroke-width:1.5;stroke-linecap:round;stroke-linejoin:miter;stroke-miterlimit:4;stroke-dasharray:none;stroke-opacity:1"
           d="m 2.9571955,6.714908 1.461568,2.1220378 C 5.5278312,5.9246903 7.2302894,4.7763601 8.9496246,3.6781989"
           id="path2934"
           sodipodi:nodetypes="ccc" />
      </g>
    </g>
  </g>
</svg>
