<?xml version="1.0" encoding="UTF-8" standalone="no"?>
<!-- Created with Inkscape (http://www.inkscape.org/) -->

<svg
   width="1in"
   height="1in"
   viewBox="0 0 25.400001 25.4"
   version="1.1"
   id="svg858"
   inkscape:version="1.3.2 (091e20e, 2023-11-25, custom)"
   sodipodi:docname="squish.svg"
   xmlns:inkscape="http://www.inkscape.org/namespaces/inkscape"
   xmlns:sodipodi="http://sodipodi.sourceforge.net/DTD/sodipodi-0.dtd"
   xmlns="http://www.w3.org/2000/svg"
   xmlns:svg="http://www.w3.org/2000/svg">
  <sodipodi:namedview
     id="namedview860"
     pagecolor="#505050"
     bordercolor="#ffffff"
     borderopacity="1"
     inkscape:pageshadow="0"
     inkscape:pageopacity="0"
     inkscape:pagecheckerboard="1"
     inkscape:document-units="mm"
     showgrid="false"
     units="in"
     inkscape:snap-intersection-paths="true"
     inkscape:snap-page="true"
     inkscape:snap-global="false"
     inkscape:zoom="2"
     inkscape:cx="4.25"
     inkscape:cy="33"
     inkscape:window-width="2400"
     inkscape:window-height="1280"
     inkscape:window-x="2391"
     inkscape:window-y="-9"
     inkscape:window-maximized="1"
     inkscape:current-layer="layer1"
     inkscape:snap-smooth-nodes="true"
     width="16.53543in"
     inkscape:showpageshadow="0"
     inkscape:deskcolor="#d1d1d1" />
  <defs
     id="defs855">
    <inkscape:path-effect
       effect="bend_path"
       id="path-effect5984"
       is_visible="true"
       lpeversion="1"
       bendpath="m 16.386705,-90.045355 c 8.926664,3.343742 17.923175,4.242799 27.066597,0"
       prop_scale="1"
       scale_y_rel="false"
       vertical="false"
       hide_knot="false"
       bendpath-nodetypes="cc" />
    <marker
       style="overflow:visible"
       id="Arrow2Mend"
       refX="0"
       refY="0"
       orient="auto"
       inkscape:stockid="Arrow2Mend"
       inkscape:isstock="true">
      <path
         transform="scale(-0.6)"
         d="M 8.7185878,4.0337352 -2.2072895,0.01601326 8.7185884,-4.0017078 c -1.7454984,2.3720609 -1.7354408,5.6174519 -6e-7,8.035443 z"
         style="fill:context-stroke;fill-rule:evenodd;stroke:context-stroke;stroke-width:0.625;stroke-linejoin:round"
         id="path1187" />
    </marker>
    <symbol
       id="hand-point-right">
      <title
         id="hand-point-right-title">Hand Pointing Right</title>
      <path
         d="M 113.45333,36.406667 H 90.652335 A 30.564667,30.564667 0 0 0 91.228069,30.48 c 0,-12.677246 -9.279467,-22.0133333 -24.341667,-22.0133333 -11.989329,0 -15.081779,12.8420813 -20.03081,20.8449333 -2.046552,3.284273 -4.49633,6.16929 -6.839744,8.79819 l -0.03466,0.03863 -0.03413,0.03916 C 35.893904,42.811435 33.804225,44.45 31.961667,44.45 h -0.708819 c -1.520561,-1.310217 -3.5814,-2.116667 -5.852583,-2.116667 H 8.4666667 C 3.7906854,42.333333 0,45.744871 0,49.953333 v 60.959997 c 0,4.20847 3.7906854,7.62 8.4666667,7.62 H 25.4 c 2.271183,0 4.332023,-0.80645 5.852583,-2.11666 h 0.708819 c 7.590367,0 17.763331,10.58333 33.655,10.58333 h 5.63536 c 16.547571,0 26.140834,-10.22826 26.442459,-24.11545 3.302529,-4.713021 4.892409,-10.791029 4.229369,-16.61345 a 24.645408,24.645408 0 0 0 2.09788,-5.837767 h 9.43186 c 12.02135,0 22.01334,-9.9441 22.01334,-22.013333 0,-11.932444 -10.08089,-22.013333 -22.01334,-22.013333 z m 0,31.326666 H 89.369371 c 3.396456,3.881173 3.813969,11.330782 -1.309688,16.152813 2.970477,5.198004 0.446352,12.07135 -3.419739,14.188281 C 86.366085,108.42704 81.974002,114.3 71.252027,114.3 h -5.63536 c -12.036161,0 -20.42848,-9.50198 -31.75,-10.49761 V 57.036494 c 6.677818,-0.784225 11.368087,-5.614988 15.63026,-10.476442 2.983177,-3.346979 5.748073,-6.693958 8.148902,-10.55026 3.831431,-6.188075 6.914092,-14.843125 9.240838,-14.843125 6.184635,0 11.641666,2.328333 11.641666,9.313333 0,9.313333 -6.985,14.04276 -6.985,18.626667 h 41.909997 c 4.87495,0 9.31334,4.365625 9.31334,9.313333 0,5.020469 -4.29287,9.313333 -9.31334,9.313333 z M 23.283333,101.6 c 0,3.50705 -2.842948,6.35 -6.35,6.35 -3.507052,0 -6.35,-2.84295 -6.35,-6.35 0,-3.507052 2.842948,-6.35 6.35,-6.35 3.507052,0 6.35,2.842948 6.35,6.35 z"
         id="path69907"
         style="stroke-width:1" />
    </symbol>
  </defs>
  <g
     inkscape:label="Layer 1"
     inkscape:groupmode="layer"
     id="layer1"
     transform="translate(-11.580227,97.097361)">
    <g
       id="use97435"
       style="fill:#ffffff;stroke:#ffffff;stroke-width:12.4239"
       transform="matrix(0.08108008,0,0,0.0799042,0.76224993,0.97859359)">
      <title
         id="title97294">Hand Pointing Right</title>
      <g
         id="path97296" />
    </g>
    <path
       style="fill:#deaa87;stroke:none;stroke-width:0.999999"
       d="m 17.485931,-94.112541 h -0.01567 c -0.232204,-0.217059 -0.618815,-0.228392 -0.70858,0.155017 -0.04409,0.188276 0.02894,0.35132 0.04545,0.533947 0.01052,0.116814 -0.02723,0.246115 -0.0417,0.361706 -0.07679,0.614539 -0.225234,1.290791 -0.186559,1.911875 0.04435,0.712217 0.307575,1.405073 0.358853,2.118565 -0.229117,-0.260911 -0.404009,-0.62434 -0.580364,-0.930102 -0.150097,-0.260222 -0.348686,-0.555856 -0.411418,-0.861205 -0.02915,-0.141754 0.0055,-0.305004 0.01801,-0.447826 0.02223,-0.252506 0.03972,-0.505287 0.06267,-0.757861 0.05792,-0.636999 0.06074,-1.37674 0.269952,-1.980771 0.1402,-0.404818 0.425077,-0.793687 0.641102,-1.154015 0.242027,-0.403699 0.492337,-0.80366 0.778954,-1.171239 0.09268,-0.118846 0.229981,-0.335646 0.380161,-0.358451 0.420507,-0.06383 0.473524,0.361327 0.384888,0.702933 -0.109673,0.422611 -0.383842,0.696026 -0.59136,1.05067 -0.156161,0.26687 -0.201911,0.582812 -0.404389,0.826757"
       id="path3633" />
    <path
       style="fill:#deaa87;stroke:none;stroke-width:0.999999"
       d="m 17.908843,-92.975751 h -0.01567 c -0.01406,-0.359242 -0.142334,-0.769469 -0.344589,-1.050669 0.169317,-0.281752 0.270483,-0.597729 0.431658,-0.87843 0.136379,-0.237503 0.309205,-0.433892 0.425926,-0.688964 0.05578,-0.121877 0.107336,-0.24608 0.13741,-0.37893 0.01957,-0.08652 0.01577,-0.199369 0.06366,-0.274053 0.158931,-0.247786 0.564825,-0.142615 0.612141,0.153484 0.06744,0.421974 -0.277657,0.899322 -0.514405,1.188463 -0.06784,0.08287 -0.165137,0.148558 -0.220866,0.241396 -0.08741,0.145561 -0.106242,0.356436 -0.172873,0.516465 -0.07008,0.168314 -0.204404,0.30292 -0.269046,0.46505 -0.08215,0.206052 -0.09437,0.485152 -0.133354,0.706188"
       id="path3635" />
    <path
       style="fill:#deaa87;stroke:none;stroke-width:0.999999"
       d="m 18.081101,-91.408356 c -0.09672,-0.05755 -0.104597,-0.165833 -0.118663,-0.275585 -0.02811,-0.21916 -0.03795,-0.433445 -0.03795,-0.654516 0,-0.397877 0.06449,-0.920267 0.201723,-1.291807 0.05457,-0.147732 0.184669,-0.263253 0.247666,-0.413379 0.07434,-0.177185 0.09905,-0.404284 0.19051,-0.568326 0.08778,-0.157428 0.243543,-0.279358 0.344444,-0.430672 0.10253,-0.153742 0.202275,-0.323848 0.270691,-0.499499 0.03649,-0.09366 0.04477,-0.229649 0.12502,-0.292258 0.09025,-0.0704 0.251814,-0.02404 0.342881,0.02628 0.363726,0.201023 0.03649,0.805898 -0.116331,1.041059 -0.14767,0.22722 -0.347593,0.389885 -0.504082,0.603102 -0.118414,0.161321 -0.188069,0.366288 -0.302062,0.533689 -0.07205,0.105807 -0.190917,0.198249 -0.24751,0.311566 -0.09228,0.184798 -0.110906,0.464982 -0.152351,0.670207 -0.08162,0.404078 -0.214082,0.827257 -0.243969,1.240136"
       id="path3639" />
    <path
       style="fill:#deaa87;stroke:none;stroke-width:0.999999"
       d="m 19.443799,-88.824741 c -0.04482,-0.116314 -0.0442,-0.271021 -0.0693,-0.396154 -0.05185,-0.257982 -0.139758,-0.521408 -0.275746,-0.740636 -0.20882,-0.336662 -0.463519,-0.646369 -0.694989,-0.96455 -0.08588,-0.118054 -0.242538,-0.267008 -0.282264,-0.413378 -0.04186,-0.154207 0.08661,-0.449894 0.125259,-0.602844 0.07357,-0.291139 0.137744,-0.585274 0.204421,-0.878429 0.03061,-0.134658 0.04727,-0.307312 0.104566,-0.430602 0.04534,-0.09754 0.1368,-0.172844 0.198813,-0.258362 0.132631,-0.182902 0.212104,-0.400874 0.33854,-0.585551 0.09393,-0.137224 0.228039,-0.244306 0.328388,-0.378999 0.146874,-0.197147 0.246568,-0.447774 0.507628,-0.258878 0.3532,0.255554 -0.01796,0.885164 -0.183732,1.137308 -0.132287,0.201246 -0.311474,0.345963 -0.452112,0.534618 -0.125931,0.168952 -0.199282,0.391194 -0.321407,0.567724 -0.06315,0.09129 -0.150331,0.163991 -0.208413,0.258361 -0.07866,0.127838 -0.16927,0.517688 -0.155844,0.67174 0.01338,0.153622 0.206924,0.348565 0.265631,0.499499 0.05081,0.130628 0.08221,0.270712 0.08477,0.413379 0.0016,0.07691 -0.029,0.167418 -0.0066,0.241137 0.03785,0.124307 0.135218,0.247132 0.194722,0.361706 0.165261,0.318164 0.398923,0.846014 0.297616,1.222911"
       id="path3641" />
    <path
       style="fill:#deaa87;stroke:none;stroke-width:0.999999"
       d="m 32.347687,-94.39257 h 0.01567 c 0.232204,-0.217058 0.618816,-0.228392 0.708581,0.155017 0.04409,0.188277 -0.02895,0.35132 -0.04545,0.533947 -0.01052,0.116814 0.02723,0.246115 0.0417,0.361706 0.07679,0.614539 0.225233,1.290792 0.186559,1.911875 -0.04435,0.712217 -0.307576,1.405073 -0.358854,2.118565 0.229117,-0.260911 0.40401,-0.62434 0.580365,-0.930102 0.150096,-0.260222 0.348686,-0.555856 0.411417,-0.861205 0.02915,-0.141754 -0.0055,-0.305004 -0.01801,-0.447826 -0.02223,-0.252506 -0.03972,-0.505286 -0.06267,-0.757861 -0.05792,-0.636998 -0.06074,-1.376739 -0.269952,-1.980771 -0.1402,-0.404818 -0.425078,-0.793687 -0.641102,-1.154015 -0.242028,-0.403699 -0.492338,-0.80366 -0.778954,-1.171239 -0.09268,-0.118846 -0.229981,-0.335646 -0.380161,-0.358451 -0.420507,-0.06383 -0.473524,0.361327 -0.384888,0.702933 0.109672,0.422611 0.383841,0.696026 0.591359,1.05067 0.156162,0.26687 0.201911,0.582812 0.404389,0.826757"
       id="path2906" />
    <path
       style="fill:#deaa87;stroke:none;stroke-width:0.999999"
       d="m 31.924775,-93.25578 h 0.01567 c 0.01406,-0.359242 0.142335,-0.769469 0.344589,-1.050669 -0.169316,-0.281752 -0.270483,-0.597728 -0.431658,-0.878429 -0.136379,-0.237504 -0.309204,-0.433893 -0.425926,-0.688965 -0.05578,-0.121877 -0.107335,-0.24608 -0.13741,-0.37893 -0.01957,-0.08652 -0.01577,-0.199369 -0.06366,-0.274053 -0.158931,-0.247785 -0.564825,-0.142615 -0.612142,0.153484 -0.06744,0.421974 0.277657,0.899323 0.514406,1.188464 0.06784,0.08286 0.165136,0.148557 0.220866,0.241395 0.08741,0.145561 0.106242,0.356436 0.172872,0.516465 0.07008,0.168314 0.204405,0.30292 0.269046,0.46505 0.08215,0.206052 0.09437,0.485152 0.133355,0.706188"
       id="path2904" />
    <path
       style="fill:#deaa87;stroke:none;stroke-width:0.999999"
       d="m 31.752517,-91.688384 c 0.09672,-0.05755 0.104597,-0.165834 0.118664,-0.275586 0.02811,-0.21916 0.03795,-0.433444 0.03795,-0.654516 0,-0.397877 -0.06449,-0.920267 -0.201724,-1.291807 -0.05457,-0.147731 -0.184669,-0.263253 -0.247666,-0.413379 -0.07433,-0.177184 -0.09905,-0.404284 -0.19051,-0.568326 -0.08778,-0.157428 -0.243542,-0.279358 -0.344443,-0.430672 -0.10253,-0.153742 -0.202275,-0.323847 -0.270691,-0.499499 -0.03649,-0.09366 -0.04477,-0.229649 -0.12502,-0.292258 -0.09025,-0.07039 -0.251815,-0.02404 -0.342882,0.02628 -0.363726,0.201023 -0.03649,0.805898 0.116331,1.041059 0.147671,0.22722 0.347593,0.389885 0.504083,0.603102 0.118413,0.161321 0.188068,0.366288 0.302062,0.533689 0.07205,0.105808 0.190916,0.198249 0.247509,0.311566 0.09229,0.184798 0.110907,0.464982 0.152351,0.670207 0.08162,0.404078 0.214083,0.827257 0.24397,1.240136"
       id="path2900" />
    <path
       style="fill:#deaa87;stroke:none;stroke-width:0.999999"
       d="m 30.38982,-89.104769 c 0.04482,-0.116315 0.0442,-0.271021 0.0693,-0.396155 0.05185,-0.257982 0.139757,-0.521408 0.275746,-0.740636 0.208819,-0.336662 0.463518,-0.646369 0.694988,-0.964549 0.08588,-0.118054 0.242538,-0.267009 0.282264,-0.413379 0.04186,-0.154207 -0.0866,-0.449894 -0.125259,-0.602844 -0.07357,-0.291138 -0.137743,-0.585274 -0.20442,-0.878429 -0.03061,-0.134658 -0.04727,-0.307312 -0.104566,-0.430602 -0.04534,-0.09754 -0.136801,-0.172844 -0.198813,-0.258362 -0.132631,-0.182902 -0.212105,-0.400874 -0.33854,-0.585551 -0.09393,-0.137223 -0.22804,-0.244306 -0.328389,-0.378998 -0.146874,-0.197148 -0.246567,-0.447775 -0.507627,-0.258879 -0.3532,0.255554 0.01796,0.885164 0.183731,1.137308 0.132288,0.201246 0.311475,0.345963 0.452112,0.534618 0.125931,0.168952 0.199282,0.391194 0.321408,0.567724 0.06315,0.09129 0.150331,0.163991 0.208413,0.258361 0.07866,0.127838 0.16927,0.517688 0.155844,0.671741 -0.01338,0.153621 -0.206924,0.348564 -0.265631,0.499499 -0.05081,0.130627 -0.08221,0.270711 -0.08477,0.413378 -0.0016,0.07691 0.029,0.167418 0.0066,0.241137 -0.03785,0.124307 -0.135218,0.247132 -0.194721,0.361706 -0.165262,0.318164 -0.398924,0.846014 -0.297617,1.222912"
       id="path2898" />
    <path
       style="fill:#ff9955;fill-opacity:1;stroke:none;stroke-width:0.484658;stroke-linecap:round;stroke-linejoin:round;stroke-dasharray:2.90795, 0.484658;paint-order:stroke fill markers"
       id="rect3703"
       width="27.066597"
       height="10.842945"
       x="16.386705"
       y="-95.466827"
       inkscape:path-effect="#path-effect5984"
       d="m 18.203366,-95.153077 c 7.672098,2.780701 16.234541,3.507282 22.894201,0.226441 l 4.524685,9.848804 c -10.203727,4.466445 -21.549704,3.837945 -31.244805,0.0678 z"
       sodipodi:type="rect"
       transform="matrix(0.52059038,0,0,0.5724747,9.4681536,-41.113537)" />
    <path
       style="fill:#deaa87;stroke:none;stroke-width:0.999999"
       d="m 17.501585,-84.329252 h -0.01567 l -1.378346,-1.515721 c -0.189276,-0.208136 -0.500235,-0.451151 -0.610861,-0.723412 0.516442,-0.26985 0.916208,-0.90287 1.22167,-1.412376 0.09442,-0.157498 0.271894,-0.395276 0.293509,-0.585619 0.01275,-0.112199 -0.02515,-0.249699 -0.03842,-0.361707 -0.03207,-0.270418 -0.07227,-0.540423 -0.112807,-0.809533 -0.06191,-0.41107 -0.175891,-0.844135 -0.203462,-1.257359 -0.0241,-0.361689 0.02962,-0.728045 0.07487,-1.085118 0.03634,-0.286937 0.06533,-0.575233 0.107825,-0.861206 0.02228,-0.14997 0.0798,-0.349115 0.05783,-0.499498 -0.02988,-0.204502 -0.150898,-0.575457 0.08705,-0.694941 0.304978,-0.153174 0.563357,0.223224 0.660905,0.488252 0.118445,0.32178 0.212875,0.735055 0.198871,1.085118 -0.01098,0.275017 -0.01119,0.53529 0.02395,0.809533 0.01301,0.101381 0.01489,0.221932 0.06696,0.310034 0.363039,0.614228 0.953534,1.079176 1.253873,1.739633 0.283316,0.623031 0.298444,1.370144 0.255906,2.049669 -0.03446,0.549879 -0.09751,1.058162 -0.37255,1.532945 -0.160201,0.276546 -0.390479,0.493041 -0.59997,0.723412 l -0.971109,1.067894"
       id="path3637" />
    <path
       style="fill:#deaa87;stroke:none;stroke-width:0.999999"
       d="m 32.332033,-84.609281 h 0.01567 l 1.378346,-1.51572 c 0.189277,-0.208137 0.500236,-0.451152 0.610861,-0.723413 -0.516441,-0.26985 -0.916208,-0.90287 -1.221669,-1.412376 -0.09442,-0.157498 -0.271894,-0.395276 -0.293509,-0.585619 -0.01275,-0.112199 0.02514,-0.249698 0.03842,-0.361706 0.03207,-0.270419 0.07227,-0.540424 0.112807,-0.809534 0.06191,-0.41107 0.175892,-0.844135 0.203462,-1.257359 0.0241,-0.361689 -0.02962,-0.728045 -0.07487,-1.085118 -0.03634,-0.286937 -0.06533,-0.575233 -0.107825,-0.861205 -0.02228,-0.14997 -0.0798,-0.349116 -0.05783,-0.499499 0.02988,-0.204502 0.150899,-0.575457 -0.08705,-0.694941 -0.304977,-0.153174 -0.563357,0.223224 -0.660905,0.488252 -0.118445,0.321781 -0.212875,0.735055 -0.198871,1.085118 0.01099,0.275017 0.01119,0.53529 -0.02395,0.809533 -0.01301,0.101381 -0.01489,0.221932 -0.06696,0.310034 -0.363039,0.614228 -0.953534,1.079176 -1.253873,1.739634 -0.283316,0.62303 -0.298444,1.370143 -0.255907,2.049668 0.03446,0.549879 0.09751,1.058162 0.37255,1.532945 0.160201,0.276546 0.390479,0.493041 0.59997,0.723412 l 0.971109,1.067894"
       id="path2902" />
    <path
       style="fill:#deaa87;stroke:none;stroke-width:0.999996"
       d="m 26.518934,-79.031156 v -0.01951 c -0.249163,-0.289133 -0.262173,-0.770529 0.177946,-0.882302 0.216125,-0.05491 0.403283,0.03604 0.612923,0.05659 0.134092,0.01309 0.282518,-0.0339 0.415207,-0.05192 0.705434,-0.09562 1.481712,-0.280454 2.19466,-0.232297 0.817561,0.05523 1.612898,0.382983 2.431922,0.446833 -0.299502,-0.28529 -0.716685,-0.50306 -1.067673,-0.722652 -0.298711,-0.186895 -0.638073,-0.434173 -0.988586,-0.512284 -0.162721,-0.0363 -0.350117,0.0068 -0.514064,0.02243 -0.289854,0.02768 -0.580024,0.04946 -0.869956,0.07803 -0.731218,0.07212 -1.580374,0.07563 -2.273748,0.336136 -0.464695,0.174572 -0.911081,0.529293 -1.324706,0.798279 -0.463409,0.301365 -0.922529,0.613044 -1.344476,0.969929 -0.136425,0.115403 -0.385292,0.286365 -0.41147,0.473365 -0.07327,0.523601 0.414771,0.589616 0.806904,0.47925 0.485119,-0.136561 0.798975,-0.477947 1.206075,-0.736342 0.306343,-0.194447 0.669016,-0.251413 0.949042,-0.503533"
       id="path3217" />
    <path
       style="fill:#deaa87;stroke:none;stroke-width:0.999996"
       d="m 27.823868,-78.504559 v -0.01951 c -0.412379,-0.0175 -0.883282,-0.17723 -1.206075,-0.429071 -0.323426,0.210828 -0.686138,0.336797 -1.008357,0.537487 -0.272633,0.169814 -0.49807,0.385011 -0.790869,0.530349 -0.139905,0.06945 -0.282479,0.133651 -0.434978,0.171099 -0.09931,0.02437 -0.228858,0.01964 -0.314588,0.07926 -0.284436,0.197896 -0.16371,0.703302 0.176186,0.762219 0.484387,0.08398 1.032341,-0.345729 1.364249,-0.640521 0.09512,-0.08447 0.17053,-0.205623 0.2771,-0.275015 0.167091,-0.108843 0.409156,-0.13229 0.592855,-0.215256 0.193209,-0.08726 0.347726,-0.254518 0.533836,-0.335007 0.236529,-0.10229 0.556911,-0.117504 0.810641,-0.166049"
       id="path3219" />
    <path
       style="fill:#deaa87;stroke:none;stroke-width:0.999996"
       d="m 29.623097,-78.290069 c -0.06606,-0.120433 -0.190363,-0.130241 -0.316348,-0.147756 -0.251575,-0.035 -0.497555,-0.04725 -0.751325,-0.04725 -0.456727,0 -1.056384,0.08029 -1.482879,0.25118 -0.169582,0.06795 -0.302191,0.229944 -0.474522,0.308385 -0.203392,0.09256 -0.464082,0.123337 -0.652387,0.237217 -0.180714,0.109297 -0.320678,0.303252 -0.494372,0.42889 -0.176483,0.127668 -0.371749,0.251867 -0.57338,0.337056 -0.107519,0.04544 -0.263617,0.05575 -0.335487,0.155671 -0.08081,0.112382 -0.0276,0.313552 0.03017,0.426945 0.230756,0.4529 0.925099,0.04544 1.195042,-0.144851 0.260828,-0.183875 0.447553,-0.432812 0.692307,-0.627668 0.185182,-0.147445 0.420465,-0.234177 0.612627,-0.376118 0.121457,-0.08971 0.227572,-0.237723 0.35765,-0.308191 0.212131,-0.11491 0.533757,-0.138097 0.769338,-0.189702 0.463844,-0.101635 0.949616,-0.266569 1.423564,-0.303783"
       id="path3223" />
    <path
       style="fill:#deaa87;stroke:none;stroke-width:0.999996"
       d="m 32.588855,-76.593281 c -0.133519,-0.05581 -0.311108,-0.05503 -0.45475,-0.08628 -0.29614,-0.06456 -0.59853,-0.174022 -0.850184,-0.343351 -0.386458,-0.260015 -0.741973,-0.577158 -1.107216,-0.865377 -0.135515,-0.106931 -0.306502,-0.302 -0.474522,-0.351466 -0.177015,-0.05212 -0.516437,0.107838 -0.69201,0.155969 -0.334201,0.09161 -0.671843,0.171513 -1.008358,0.254537 -0.154575,0.03812 -0.352767,0.05886 -0.494292,0.130202 -0.111968,0.05646 -0.19841,0.17034 -0.296577,0.247556 -0.209955,0.165148 -0.460167,0.264106 -0.672159,0.421539 -0.157521,0.116959 -0.280442,0.283948 -0.435057,0.408899 -0.226307,0.182883 -0.514005,0.307018 -0.297169,0.632082 0.293353,0.439793 1.016089,-0.02236 1.305527,-0.228777 0.231013,-0.16472 0.397135,-0.387838 0.613694,-0.562956 0.193942,-0.156805 0.449056,-0.248139 0.651696,-0.400206 0.104791,-0.07864 0.188247,-0.187187 0.296576,-0.259509 0.146746,-0.09794 0.594259,-0.21077 0.771097,-0.194052 0.176344,0.01666 0.400121,0.257656 0.57338,0.330756 0.149948,0.06327 0.310752,0.102367 0.474521,0.10555 0.08828,0.0019 0.192182,-0.03611 0.276804,-0.0082 0.142693,0.04713 0.283685,0.168369 0.415206,0.242461 0.365224,0.205778 0.971148,0.496727 1.403793,0.370583"
       id="path3225" />
    <path
       id="rect7001"
       style="fill:#ff9955;stroke-width:0.264583;stroke-linecap:round;stroke-linejoin:round;stroke-dasharray:1.5875, 0.264583;paint-order:stroke fill markers"
       d="m 23.942777,-85.22562 c 2.454445,-0.45746 4.981314,-0.676789 7.780719,0 -2.55885,8.790453 -0.218236,8.631078 0,12.348639 -2.538947,0.48495 -5.125936,0.543412 -7.780719,0 1.130556,-4.328632 1.301138,-8.476895 0,-12.348639 z"
       sodipodi:nodetypes="ccccc" />
    <path
       style="fill:#deaa87;stroke:none;stroke-width:0.999996"
       d="m 37.749272,-79.011664 v -0.01951 l -1.739911,-1.716273 c -0.238922,-0.235681 -0.517882,-0.622877 -0.830413,-0.760624 -0.309764,0.643056 -1.036414,1.140832 -1.621281,1.521183 -0.180793,0.117569 -0.453741,0.338554 -0.672238,0.365468 -0.128794,0.01588 -0.286631,-0.03131 -0.415206,-0.04784 -0.310417,-0.03993 -0.620358,-0.08999 -0.929272,-0.140463 -0.471871,-0.07709 -0.968992,-0.219015 -1.443335,-0.253345 -0.415187,-0.03001 -0.835731,0.03688 -1.245619,0.09323 -0.329377,0.04525 -0.660315,0.08134 -0.988586,0.13426 -0.172152,0.02774 -0.400753,0.09937 -0.573379,0.072 -0.23475,-0.03721 -0.660574,-0.187894 -0.79773,0.108396 -0.17583,0.379748 0.256241,0.701474 0.560469,0.822938 0.369375,0.147483 0.843778,0.265065 1.245619,0.247627 0.315694,-0.01368 0.614465,-0.01394 0.92927,0.02982 0.116377,0.0162 0.254759,0.01854 0.355891,0.08337 0.70508,0.452044 1.238798,1.18731 1.996944,1.561283 0.715183,0.352776 1.572801,0.371613 2.352835,0.318647 0.631212,-0.04291 1.214675,-0.121412 1.759683,-0.463888 0.31745,-0.199477 0.565967,-0.486212 0.830412,-0.747063 l 1.225847,-1.209195"
       id="path3221" />
    <g
       id="g97253"
       transform="matrix(1.1092437,0,0,1.1176471,41.412887,-77.65727)"
       style="stroke-width:0.89812">
      <circle
         style="opacity:1;fill:#ff0000;stroke:#800000;stroke-width:0.776873;stroke-linejoin:round;stroke-miterlimit:4;stroke-dasharray:none;paint-order:stroke fill markers"
         id="path96759"
         cx="-21.237495"
         cy="-0.44839242"
         r="4.850791" />
      <g
         id="g97247"
         transform="matrix(0.55261287,0.55261287,-0.55261287,0.55261287,-9.7491695,11.535508)"
         style="stroke-width:1.14921">
        <path
           style="fill:none;stroke:#ffffff;stroke-width:1.72381;stroke-linecap:round;stroke-linejoin:miter;stroke-miterlimit:4;stroke-dasharray:none;stroke-opacity:1"
           d="m -21.237495,-5.2991834 v 9.701582"
           id="path97108" />
        <path
           style="fill:none;stroke:#ffffff;stroke-width:1.72381;stroke-linecap:round;stroke-linejoin:miter;stroke-miterlimit:4;stroke-dasharray:none;stroke-opacity:1"
           d="m -16.386704,-0.4483924 h -9.701582"
           id="path97243" />
      </g>
    </g>
  </g>
</svg>
