<?xml version="1.0" encoding="UTF-8" standalone="no"?>
<!-- Created with Inkscape (http://www.inkscape.org/) -->

<svg
   width="1in"
   height="1in"
   viewBox="0 0 25.400001 25.4"
   version="1.1"
   id="svg858"
   inkscape:version="1.1.1 (3bf5ae0d25, 2021-09-20)"
   sodipodi:docname="squish.svg"
   xmlns:inkscape="http://www.inkscape.org/namespaces/inkscape"
   xmlns:sodipodi="http://sodipodi.sourceforge.net/DTD/sodipodi-0.dtd"
   xmlns="http://www.w3.org/2000/svg"
   xmlns:svg="http://www.w3.org/2000/svg">
  <sodipodi:namedview
     id="namedview860"
     pagecolor="#505050"
     bordercolor="#ffffff"
     borderopacity="1"
     inkscape:pageshadow="0"
     inkscape:pageopacity="0"
     inkscape:pagecheckerboard="1"
     inkscape:document-units="mm"
     showgrid="false"
     units="in"
     inkscape:snap-intersection-paths="true"
     inkscape:snap-page="true"
     inkscape:snap-global="false"
     inkscape:zoom="2"
     inkscape:cx="4.25"
     inkscape:cy="33"
     inkscape:window-width="1920"
     inkscape:window-height="1028"
     inkscape:window-x="1912"
     inkscape:window-y="-8"
     inkscape:window-maximized="1"
     inkscape:current-layer="layer1"
     inkscape:snap-smooth-nodes="true"
     width="16.53543in" />
  <defs
     id="defs855">
    <inkscape:path-effect
       effect="bend_path"
       id="path-effect5984"
       is_visible="true"
       lpeversion="1"
       bendpath="m 16.386705,-90.045355 c 8.926664,3.343742 17.923175,4.242799 27.066597,0"
       prop_scale="1"
       scale_y_rel="false"
       vertical="false"
       hide_knot="false"
       bendpath-nodetypes="cc" />
    <marker
       style="overflow:visible"
       id="Arrow2Mend"
       refX="0"
       refY="0"
       orient="auto"
       inkscape:stockid="Arrow2Mend"
       inkscape:isstock="true">
      <path
         transform="scale(-0.6)"
         d="M 8.7185878,4.0337352 -2.2072895,0.01601326 8.7185884,-4.0017078 c -1.7454984,2.3720609 -1.7354408,5.6174519 -6e-7,8.035443 z"
         style="fill:context-stroke;fill-rule:evenodd;stroke:context-stroke;stroke-width:0.625;stroke-linejoin:round"
         id="path1187" />
    </marker>
    <symbol
       id="hand-point-right">
      <title
         id="hand-point-right-title">Hand Pointing Right</title>
      <path
         d="M 113.45333,36.406667 H 90.652335 A 30.564667,30.564667 0 0 0 91.228069,30.48 c 0,-12.677246 -9.279467,-22.0133333 -24.341667,-22.0133333 -11.989329,0 -15.081779,12.8420813 -20.03081,20.8449333 -2.046552,3.284273 -4.49633,6.16929 -6.839744,8.79819 l -0.03466,0.03863 -0.03413,0.03916 C 35.893904,42.811435 33.804225,44.45 31.961667,44.45 h -0.708819 c -1.520561,-1.310217 -3.5814,-2.116667 -5.852583,-2.116667 H 8.4666667 C 3.7906854,42.333333 0,45.744871 0,49.953333 v 60.959997 c 0,4.20847 3.7906854,7.62 8.4666667,7.62 H 25.4 c 2.271183,0 4.332023,-0.80645 5.852583,-2.11666 h 0.708819 c 7.590367,0 17.763331,10.58333 33.655,10.58333 h 5.63536 c 16.547571,0 26.140834,-10.22826 26.442459,-24.11545 3.302529,-4.713021 4.892409,-10.791029 4.229369,-16.61345 a 24.645408,24.645408 0 0 0 2.09788,-5.837767 h 9.43186 c 12.02135,0 22.01334,-9.9441 22.01334,-22.013333 0,-11.932444 -10.08089,-22.013333 -22.01334,-22.013333 z m 0,31.326666 H 89.369371 c 3.396456,3.881173 3.813969,11.330782 -1.309688,16.152813 2.970477,5.198004 0.446352,12.07135 -3.419739,14.188281 C 86.366085,108.42704 81.974002,114.3 71.252027,114.3 h -5.63536 c -12.036161,0 -20.42848,-9.50198 -31.75,-10.49761 V 57.036494 c 6.677818,-0.784225 11.368087,-5.614988 15.63026,-10.476442 2.983177,-3.346979 5.748073,-6.693958 8.148902,-10.55026 3.831431,-6.188075 6.914092,-14.843125 9.240838,-14.843125 6.184635,0 11.641666,2.328333 11.641666,9.313333 0,9.313333 -6.985,14.04276 -6.985,18.626667 h 41.909997 c 4.87495,0 9.31334,4.365625 9.31334,9.313333 0,5.020469 -4.29287,9.313333 -9.31334,9.313333 z M 23.283333,101.6 c 0,3.50705 -2.842948,6.35 -6.35,6.35 -3.507052,0 -6.35,-2.84295 -6.35,-6.35 0,-3.507052 2.842948,-6.35 6.35,-6.35 3.507052,0 6.35,2.842948 6.35,6.35 z"
         id="path69907"
         style="stroke-width:1" />
    </symbol>
  </defs>
  <g
     inkscape:label="Layer 1"
     inkscape:groupmode="layer"
     id="layer1"
     transform="translate(-11.580227,97.097361)">
    <g
       id="use97435"
       style="fill:#ffffff;stroke:#ffffff;stroke-width:12.4239"
       transform="matrix(0.08108008,0,0,0.0799042,0.76224993,0.97859359)">
      <title
         id="title97294">Hand Pointing Right</title>
      <g
         id="path97296" />
    </g>
    <g
       id="g6309"
       transform="matrix(0.52059038,0,0,0.5724747,9.4681536,-41.113537)"
       style="stroke-width:1.83178">
      <path
         style="fill:#ffffff;stroke:none;stroke-width:1.83178"
         d="m 15.401317,-92.578771 h -0.0301 c -0.44604,-0.379158 -1.18868,-0.398955 -1.36111,0.270784 -0.0847,0.328882 0.0556,0.613686 0.0873,0.9327 0.0202,0.204051 -0.0523,0.429914 -0.0801,0.631829 -0.14751,1.073477 -0.43265,2.254757 -0.35836,3.339667 0.0852,1.244102 0.59082,2.454385 0.68932,3.700713 -0.44011,-0.455759 -0.77606,-1.090597 -1.11482,-1.624703 -0.28832,-0.454556 -0.66979,-0.970971 -0.79029,-1.504355 -0.056,-0.247617 0.0105,-0.532782 0.0346,-0.782264 0.0427,-0.441077 0.0763,-0.882635 0.12038,-1.323832 0.11126,-1.112711 0.11667,-2.404892 0.51855,-3.460016 0.26931,-0.707137 0.81653,-1.386414 1.23149,-2.015836 0.46491,-0.705181 0.94573,-1.403834 1.49629,-2.045922 0.17803,-0.207601 0.44177,-0.586307 0.73025,-0.626143 0.80775,-0.111503 0.90959,0.631167 0.73933,1.227885 -0.21067,0.738217 -0.73732,1.215819 -1.13594,1.835312 -0.29997,0.46617 -0.38785,1.018058 -0.77679,1.444181"
         id="path3633" />
      <path
         style="fill:#ffffff;stroke:none;stroke-width:1.83178"
         d="m 16.213687,-90.593023 h -0.0301 c -0.027,-0.627526 -0.27341,-1.344111 -0.66192,-1.835312 0.32524,-0.492165 0.51957,-1.044113 0.82917,-1.534442 0.26197,-0.414871 0.59395,-0.757924 0.81816,-1.203484 0.10714,-0.212896 0.20618,-0.429854 0.26395,-0.661916 0.0376,-0.151128 0.0303,-0.348258 0.12228,-0.478716 0.30529,-0.432833 1.08497,-0.249121 1.17586,0.268106 0.12955,0.737104 -0.53335,1.570938 -0.98812,2.07601 -0.13031,0.144749 -0.31721,0.259501 -0.42426,0.42167 -0.16791,0.254266 -0.20408,0.622623 -0.33207,0.902162 -0.13461,0.294011 -0.39264,0.529142 -0.51681,0.812351 -0.1578,0.359932 -0.18127,0.847464 -0.25616,1.233571"
         id="path3635" />
      <path
         style="fill:#ffffff;stroke:none;stroke-width:1.83178"
         d="m 16.544577,-87.855094 c -0.18579,-0.100521 -0.20092,-0.289679 -0.22794,-0.481394 -0.054,-0.382828 -0.0729,-0.757141 -0.0729,-1.143309 0,-0.695012 0.12387,-1.607524 0.38749,-2.256532 0.10482,-0.258057 0.35473,-0.459851 0.47574,-0.722091 0.14279,-0.309506 0.19027,-0.706204 0.36595,-0.992753 0.16861,-0.274996 0.46782,-0.487983 0.66164,-0.752298 0.19695,-0.268557 0.38855,-0.565698 0.51997,-0.872526 0.0701,-0.163613 0.086,-0.401151 0.24015,-0.510518 0.17337,-0.122966 0.48371,-0.042 0.65864,0.04591 0.69868,0.351147 0.0701,1.407745 -0.22346,1.818524 -0.28366,0.396909 -0.66769,0.681052 -0.96829,1.0535 -0.22746,0.281796 -0.36126,0.639832 -0.58023,0.932249 -0.1384,0.184825 -0.36673,0.346302 -0.47544,0.544245 -0.17727,0.322805 -0.21304,0.812231 -0.29265,1.170719 -0.15679,0.705843 -0.41123,1.445053 -0.46864,2.166271"
         id="path3639" />
      <path
         style="fill:#ffffff;stroke:none;stroke-width:1.83178"
         d="m 19.162177,-83.34203 c -0.0861,-0.203178 -0.0849,-0.47342 -0.13311,-0.692003 -0.0996,-0.450644 -0.26846,-0.910797 -0.52968,-1.293745 -0.40112,-0.588082 -0.89037,-1.129078 -1.335,-1.684877 -0.16496,-0.206217 -0.46589,-0.466411 -0.5422,-0.722091 -0.0804,-0.269369 0.16636,-0.785875 0.24061,-1.053048 0.14132,-0.508562 0.26459,-1.022359 0.39267,-1.534442 0.0588,-0.235221 0.0908,-0.536814 0.20086,-0.752177 0.0871,-0.170383 0.26278,-0.301924 0.3819,-0.451307 0.25477,-0.319494 0.40743,-0.700247 0.6503,-1.022841 0.18043,-0.239703 0.43804,-0.426755 0.6308,-0.662036 0.28213,-0.344377 0.47363,-0.782174 0.9751,-0.452209 0.67846,0.446402 -0.0345,1.546206 -0.35293,1.986651 -0.25411,0.351538 -0.59831,0.604329 -0.86846,0.933873 -0.2419,0.295125 -0.3828,0.683338 -0.61739,0.991701 -0.12131,0.159462 -0.28877,0.286459 -0.40034,0.451306 -0.15109,0.223307 -0.32515,0.904298 -0.29936,1.173397 0.0257,0.268347 0.39748,0.608873 0.51025,0.872526 0.0976,0.22818 0.15792,0.472879 0.16283,0.72209 0.003,0.134339 -0.0557,0.292447 -0.0126,0.421219 0.0727,0.217139 0.25974,0.43169 0.37404,0.631829 0.31745,0.555769 0.76629,1.477818 0.57169,2.136184"
         id="path3641" />
      <path
         style="fill:#ffffff;stroke:none;stroke-width:1.83178"
         d="m 43.949206,-93.067926 h 0.0301 c 0.44604,-0.379158 1.18868,-0.398955 1.36111,0.270784 0.0847,0.328882 -0.0556,0.613686 -0.0873,0.9327 -0.0202,0.204051 0.0523,0.429914 0.0801,0.631829 0.14751,1.073477 0.43265,2.254757 0.35836,3.339667 -0.0852,1.244102 -0.59082,2.454385 -0.68932,3.700713 0.44011,-0.455759 0.77606,-1.090597 1.11482,-1.624703 0.28832,-0.454556 0.66979,-0.970971 0.79029,-1.504355 0.056,-0.247617 -0.0105,-0.532782 -0.0346,-0.782264 -0.0427,-0.441077 -0.0763,-0.882635 -0.12038,-1.323832 -0.11126,-1.112711 -0.11667,-2.404892 -0.51855,-3.460016 -0.26931,-0.707137 -0.81653,-1.386414 -1.23149,-2.015836 -0.46491,-0.705181 -0.94573,-1.403834 -1.49629,-2.045922 -0.17803,-0.207601 -0.44177,-0.586307 -0.73025,-0.626143 -0.80775,-0.111503 -0.90959,0.631167 -0.73933,1.227885 0.21067,0.738217 0.73732,1.215819 1.13594,1.835312 0.29997,0.46617 0.38785,1.018058 0.77679,1.444181"
         id="path2906" />
      <path
         style="fill:#ffffff;stroke:none;stroke-width:1.83178"
         d="m 43.136836,-91.082178 h 0.0301 c 0.027,-0.627526 0.27341,-1.344111 0.66192,-1.835312 -0.32524,-0.492165 -0.51957,-1.044113 -0.82917,-1.534442 -0.26197,-0.414871 -0.59395,-0.757924 -0.81816,-1.203484 -0.10714,-0.212896 -0.20618,-0.429854 -0.26395,-0.661916 -0.0376,-0.151128 -0.0303,-0.348258 -0.12228,-0.478716 -0.30529,-0.432833 -1.08497,-0.249121 -1.17586,0.268106 -0.12955,0.737104 0.53335,1.570938 0.98812,2.07601 0.13031,0.144749 0.31721,0.259501 0.42426,0.42167 0.16791,0.254266 0.20408,0.622623 0.33207,0.902162 0.13461,0.294011 0.39264,0.529142 0.51681,0.812351 0.1578,0.359932 0.18127,0.847464 0.25616,1.233571"
         id="path2904" />
      <path
         style="fill:#ffffff;stroke:none;stroke-width:1.83178"
         d="m 42.805946,-88.344249 c 0.18579,-0.100521 0.20092,-0.289679 0.22794,-0.481394 0.054,-0.382828 0.0729,-0.757141 0.0729,-1.143309 0,-0.695012 -0.12387,-1.607524 -0.38749,-2.256532 -0.10482,-0.258057 -0.35473,-0.459851 -0.47574,-0.722091 -0.14279,-0.309506 -0.19027,-0.706204 -0.36595,-0.992753 -0.16861,-0.274996 -0.46782,-0.487983 -0.66164,-0.752298 -0.19695,-0.268557 -0.38855,-0.565698 -0.51997,-0.872526 -0.0701,-0.163613 -0.086,-0.401151 -0.24015,-0.510518 -0.17337,-0.122966 -0.48371,-0.042 -0.65864,0.04591 -0.69868,0.351147 -0.0701,1.407745 0.22346,1.818524 0.28366,0.396909 0.66769,0.681052 0.96829,1.0535 0.22746,0.281796 0.36126,0.639832 0.58023,0.932249 0.1384,0.184825 0.36673,0.346302 0.47544,0.544245 0.17727,0.322805 0.21304,0.812231 0.29265,1.170719 0.15679,0.705843 0.41123,1.445053 0.46864,2.166271"
         id="path2900" />
      <path
         style="fill:#ffffff;stroke:none;stroke-width:1.83178"
         d="m 40.188346,-83.831185 c 0.0861,-0.203178 0.0849,-0.47342 0.13311,-0.692003 0.0996,-0.450644 0.26846,-0.910797 0.52968,-1.293745 0.40112,-0.588082 0.89037,-1.129078 1.335,-1.684877 0.16496,-0.206217 0.46589,-0.466411 0.5422,-0.722091 0.0804,-0.269369 -0.16636,-0.785875 -0.24061,-1.053048 -0.14132,-0.508562 -0.26459,-1.022359 -0.39267,-1.534442 -0.0588,-0.235221 -0.0908,-0.536814 -0.20086,-0.752177 -0.0871,-0.170383 -0.26278,-0.301924 -0.3819,-0.451307 -0.25477,-0.319494 -0.40743,-0.700247 -0.6503,-1.022841 -0.18043,-0.239703 -0.43804,-0.426755 -0.6308,-0.662036 -0.28213,-0.344377 -0.47363,-0.782174 -0.9751,-0.452209 -0.67846,0.446402 0.0345,1.546206 0.35293,1.986651 0.25411,0.351538 0.59831,0.604329 0.86846,0.933873 0.2419,0.295125 0.3828,0.683338 0.61739,0.991701 0.12131,0.159462 0.28877,0.286459 0.40034,0.451306 0.15109,0.223307 0.32515,0.904298 0.29936,1.173397 -0.0257,0.268347 -0.39748,0.608873 -0.51025,0.872526 -0.0976,0.22818 -0.15792,0.472879 -0.16283,0.72209 -0.003,0.134339 0.0557,0.292447 0.0126,0.421219 -0.0727,0.217139 -0.25974,0.43169 -0.37404,0.631829 -0.31745,0.555769 -0.76629,1.477818 -0.57169,2.136184"
         id="path2898" />
      <path
         style="fill:#ff9955;fill-opacity:1;stroke:none;stroke-width:0.484658;stroke-linecap:round;stroke-linejoin:round;stroke-dasharray:2.90795, 0.484658;paint-order:stroke fill markers"
         id="rect3703"
         width="27.066597"
         height="10.842945"
         x="16.386705"
         y="-95.466827"
         inkscape:path-effect="#path-effect5984"
         d="m 18.203366,-95.153077 c 7.672098,2.780701 16.234541,3.507282 22.894201,0.226441 l 4.524685,9.848804 c -10.203727,4.466445 -21.549704,3.837945 -31.244805,0.0678 z"
         sodipodi:type="rect" />
      <path
         style="fill:#ffffff;stroke:none;stroke-width:1.83178"
         d="m 15.431387,-75.489301 h -0.0301 l -2.64766,-2.647664 c -0.36358,-0.363573 -0.9609,-0.788072 -1.1734,-1.263658 0.99203,-0.471375 1.75994,-1.577136 2.3467,-2.467142 0.18137,-0.275117 0.52228,-0.690469 0.5638,-1.022961 0.0245,-0.195988 -0.0483,-0.436173 -0.0738,-0.631829 -0.0616,-0.472368 -0.13882,-0.944013 -0.21669,-1.414094 -0.11893,-0.718058 -0.33787,-1.474538 -0.39083,-2.196358 -0.0463,-0.631799 0.0569,-1.271751 0.14382,-1.895487 0.0698,-0.501221 0.12549,-1.004818 0.20712,-1.504355 0.0428,-0.261968 0.15329,-0.609835 0.11108,-0.872525 -0.0574,-0.357224 -0.28986,-1.00521 0.16722,-1.213924 0.58583,-0.267565 1.08215,0.389928 1.26953,0.852879 0.22752,0.562087 0.40891,1.283996 0.38201,1.895487 -0.0211,0.4804 -0.0215,0.935046 0.046,1.414093 0.025,0.177093 0.0286,0.387672 0.12862,0.541568 0.69736,1.072936 1.83164,1.885107 2.40856,3.038796 0.54422,1.088311 0.57328,2.393369 0.49157,3.580365 -0.0662,0.96053 -0.1873,1.8484 -0.71563,2.677751 -0.30773,0.483072 -0.75007,0.861246 -1.15248,1.263658 l -1.8654,1.8654"
         id="path3637" />
      <path
         style="fill:#ffffff;stroke:none;stroke-width:1.83178"
         d="m 43.919136,-75.978456 h 0.0301 l 2.64766,-2.647664 c 0.36358,-0.363573 0.9609,-0.788072 1.1734,-1.263658 -0.99203,-0.471375 -1.75994,-1.577136 -2.3467,-2.467142 -0.18137,-0.275117 -0.52228,-0.690469 -0.5638,-1.022961 -0.0245,-0.195988 0.0483,-0.436173 0.0738,-0.631829 0.0616,-0.472368 0.13882,-0.944013 0.21669,-1.414094 0.11893,-0.718058 0.33787,-1.474538 0.39083,-2.196358 0.0463,-0.631799 -0.0569,-1.271751 -0.14382,-1.895487 -0.0698,-0.501221 -0.12549,-1.004818 -0.20712,-1.504355 -0.0428,-0.261968 -0.15329,-0.609835 -0.11108,-0.872525 0.0574,-0.357224 0.28986,-1.00521 -0.16722,-1.213924 -0.58583,-0.267565 -1.08215,0.389928 -1.26953,0.852879 -0.22752,0.562087 -0.40891,1.283996 -0.38201,1.895487 0.0211,0.4804 0.0215,0.935046 -0.046,1.414093 -0.025,0.177093 -0.0286,0.387672 -0.12862,0.541568 -0.69736,1.072936 -1.83164,1.885107 -2.40856,3.038796 -0.54422,1.088311 -0.57328,2.393369 -0.49157,3.580365 0.0662,0.96053 0.1873,1.8484 0.71563,2.677751 0.30773,0.483072 0.75007,0.861246 1.15248,1.263658 l 1.8654,1.8654"
         id="path2902" />
    </g>
    <g
       id="g9381"
       transform="matrix(0.65714954,0,0,0.64822255,11.855663,-43.637776)"
       style="stroke-width:1.53217">
      <path
         style="fill:#ffffff;stroke:none;stroke-width:1.53216"
         d="m 22.313447,-54.600661 v -0.0301 c -0.379158,-0.44604 -0.398955,-1.18868 0.270784,-1.36111 0.328882,-0.0847 0.613686,0.0556 0.9327,0.0873 0.204051,0.0202 0.429914,-0.0523 0.631829,-0.0801 1.073477,-0.14751 2.254757,-0.43265 3.339667,-0.35836 1.244102,0.0852 2.454385,0.59082 3.700713,0.68932 -0.455759,-0.44011 -1.090597,-0.77606 -1.624703,-1.11482 -0.454556,-0.28832 -0.970971,-0.66979 -1.504355,-0.79029 -0.247617,-0.056 -0.532782,0.0105 -0.782264,0.0346 -0.441077,0.0427 -0.882635,0.0763 -1.323832,0.12038 -1.112711,0.11126 -2.404892,0.11667 -3.460016,0.51855 -0.707137,0.26931 -1.386414,0.81653 -2.015836,1.23149 -0.705181,0.46491 -1.403834,0.94573 -2.045922,1.49629 -0.207601,0.17803 -0.586307,0.44177 -0.626143,0.73025 -0.111503,0.80775 0.631167,0.90959 1.227885,0.73933 0.738217,-0.21067 1.215819,-0.73732 1.835312,-1.13594 0.46617,-0.29997 1.018058,-0.38785 1.444181,-0.77679"
         id="path3217" />
      <path
         style="fill:#ffffff;stroke:none;stroke-width:1.53216"
         d="m 24.299195,-53.788291 v -0.0301 c -0.627526,-0.027 -1.344111,-0.27341 -1.835312,-0.66192 -0.492165,0.32524 -1.044113,0.51957 -1.534442,0.82917 -0.414871,0.26197 -0.757924,0.59395 -1.203484,0.81816 -0.212896,0.10714 -0.429854,0.20618 -0.661916,0.26395 -0.151128,0.0376 -0.348258,0.0303 -0.478716,0.12228 -0.432833,0.30529 -0.249121,1.08497 0.268106,1.17586 0.737104,0.12955 1.570938,-0.53335 2.07601,-0.98812 0.144749,-0.13031 0.259501,-0.31721 0.42167,-0.42426 0.254266,-0.16791 0.622623,-0.20408 0.902162,-0.33207 0.294011,-0.13461 0.529142,-0.39264 0.812351,-0.51681 0.359932,-0.1578 0.847464,-0.18127 1.233571,-0.25616"
         id="path3219" />
      <path
         style="fill:#ffffff;stroke:none;stroke-width:1.53216"
         d="m 27.037124,-53.457401 c -0.100521,-0.18579 -0.289679,-0.20092 -0.481394,-0.22794 -0.382828,-0.054 -0.757141,-0.0729 -1.143309,-0.0729 -0.695012,0 -1.607524,0.12387 -2.256532,0.38749 -0.258057,0.10482 -0.459851,0.35473 -0.722091,0.47574 -0.309506,0.14279 -0.706204,0.19027 -0.992753,0.36595 -0.274996,0.16861 -0.487983,0.46782 -0.752298,0.66164 -0.268557,0.19695 -0.565698,0.38855 -0.872526,0.51997 -0.163613,0.0701 -0.401151,0.086 -0.510518,0.24015 -0.122966,0.17337 -0.042,0.48371 0.04591,0.65864 0.351147,0.69868 1.407745,0.0701 1.818524,-0.22346 0.396909,-0.28366 0.681052,-0.66769 1.0535,-0.96829 0.281796,-0.22746 0.639832,-0.36126 0.932249,-0.58023 0.184825,-0.1384 0.346302,-0.36673 0.544245,-0.47544 0.322805,-0.17727 0.812231,-0.21304 1.170719,-0.29265 0.705843,-0.15679 1.445053,-0.41123 2.166271,-0.46864"
         id="path3223" />
      <path
         style="fill:#ffffff;stroke:none;stroke-width:1.53216"
         d="m 31.550188,-50.839801 c -0.203178,-0.0861 -0.47342,-0.0849 -0.692003,-0.13311 -0.450644,-0.0996 -0.910797,-0.26846 -1.293745,-0.52968 -0.588082,-0.40112 -1.129078,-0.89037 -1.684877,-1.335 -0.206217,-0.16496 -0.466411,-0.46589 -0.722091,-0.5422 -0.269369,-0.0804 -0.785875,0.16636 -1.053048,0.24061 -0.508562,0.14132 -1.022359,0.26459 -1.534442,0.39267 -0.235221,0.0588 -0.536814,0.0908 -0.752177,0.20086 -0.170383,0.0871 -0.301924,0.26278 -0.451307,0.3819 -0.319494,0.25477 -0.700247,0.40743 -1.022841,0.6503 -0.239703,0.18043 -0.426755,0.43804 -0.662036,0.6308 -0.344377,0.28213 -0.782174,0.47363 -0.452209,0.9751 0.446402,0.67846 1.546206,-0.0345 1.986651,-0.35293 0.351538,-0.25411 0.604329,-0.59831 0.933873,-0.86846 0.295125,-0.2419 0.683338,-0.3828 0.991701,-0.61739 0.159462,-0.12131 0.286459,-0.28877 0.451306,-0.40034 0.223307,-0.15109 0.904298,-0.32515 1.173397,-0.29936 0.268347,0.0257 0.608873,0.39748 0.872526,0.51025 0.22818,0.0976 0.472879,0.15792 0.72209,0.16283 0.134339,0.003 0.292447,-0.0557 0.421219,-0.0126 0.217139,0.0727 0.43169,0.25974 0.631829,0.37404 0.555769,0.31745 1.477818,0.76629 2.136184,0.57169"
         id="path3225" />
      <path
         id="rect7001"
         style="fill:#ff9955;stroke-width:0.405385;stroke-linecap:round;stroke-linejoin:round;stroke-dasharray:2.43231, 0.405385;paint-order:stroke fill markers"
         d="m 18.393247,-64.156738 c 3.734987,-0.705714 7.580183,-1.044068 11.840105,0 -3.893863,13.560857 -0.332096,13.314993 0,19.049999 -3.863577,0.748124 -7.800258,0.838311 -11.840105,0 1.720394,-6.677694 1.979973,-13.077137 0,-19.049999 z"
         sodipodi:nodetypes="ccccc" />
      <path
         style="fill:#ffffff;stroke:none;stroke-width:1.53216"
         d="m 39.402917,-54.570591 v -0.0301 l -2.647664,-2.64766 c -0.363573,-0.36358 -0.788072,-0.9609 -1.263658,-1.1734 -0.471375,0.99203 -1.577136,1.75994 -2.467142,2.3467 -0.275117,0.18137 -0.690469,0.52228 -1.022961,0.5638 -0.195988,0.0245 -0.436173,-0.0483 -0.631829,-0.0738 -0.472368,-0.0616 -0.944013,-0.13882 -1.414094,-0.21669 -0.718058,-0.11893 -1.474538,-0.33787 -2.196358,-0.39083 -0.631799,-0.0463 -1.271751,0.0569 -1.895487,0.14382 -0.501221,0.0698 -1.004818,0.12549 -1.504355,0.20712 -0.261968,0.0428 -0.609835,0.15329 -0.872525,0.11108 -0.357224,-0.0574 -1.00521,-0.28986 -1.213924,0.16722 -0.267565,0.58583 0.389928,1.08215 0.852879,1.26953 0.562087,0.22752 1.283996,0.40891 1.895487,0.38201 0.4804,-0.0211 0.935046,-0.0215 1.414093,0.046 0.177093,0.025 0.387672,0.0286 0.541568,0.12862 1.072936,0.69736 1.885107,1.83164 3.038796,2.40856 1.088311,0.54422 2.393369,0.57328 3.580365,0.49157 0.96053,-0.0662 1.8484,-0.1873 2.677751,-0.71563 0.483072,-0.30773 0.861246,-0.75007 1.263658,-1.15248 l 1.8654,-1.8654"
         id="path3221" />
    </g>
    <g
       id="g97253"
       transform="matrix(1.1092437,0,0,1.1176471,41.412887,-77.65727)"
       style="stroke-width:0.89812">
      <circle
         style="opacity:1;fill:#ff0000;stroke:#800000;stroke-width:0.776873;stroke-linejoin:round;stroke-miterlimit:4;stroke-dasharray:none;paint-order:stroke fill markers"
         id="path96759"
         cx="-21.237495"
         cy="-0.44839242"
         r="4.850791" />
      <g
         id="g97247"
         transform="matrix(0.55261287,0.55261287,-0.55261287,0.55261287,-9.7491695,11.535508)"
         style="stroke-width:1.14921">
        <path
           style="fill:none;stroke:#ffffff;stroke-width:1.72381;stroke-linecap:round;stroke-linejoin:miter;stroke-miterlimit:4;stroke-dasharray:none;stroke-opacity:1"
           d="m -21.237495,-5.2991834 v 9.701582"
           id="path97108" />
        <path
           style="fill:none;stroke:#ffffff;stroke-width:1.72381;stroke-linecap:round;stroke-linejoin:miter;stroke-miterlimit:4;stroke-dasharray:none;stroke-opacity:1"
           d="m -16.386704,-0.4483924 h -9.701582"
           id="path97243" />
      </g>
    </g>
  </g>
</svg>
