<?xml version="1.0" encoding="UTF-8" standalone="no"?>
<!-- Created with Inkscape (http://www.inkscape.org/) -->

<svg
   width="1.2in"
   height="0.64999998in"
   viewBox="0 0 30.480002 16.509999"
   version="1.1"
   id="svg1"
   inkscape:version="1.3.2 (091e20e, 2023-11-25, custom)"
   sodipodi:docname="destructuration.svg"
   xml:space="preserve"
   xmlns:inkscape="http://www.inkscape.org/namespaces/inkscape"
   xmlns:sodipodi="http://sodipodi.sourceforge.net/DTD/sodipodi-0.dtd"
   xmlns="http://www.w3.org/2000/svg"
   xmlns:svg="http://www.w3.org/2000/svg"><sodipodi:namedview
     id="namedview1"
     pagecolor="#ffffff"
     bordercolor="#111111"
     borderopacity="1"
     inkscape:showpageshadow="0"
     inkscape:pageopacity="0"
     inkscape:pagecheckerboard="1"
     inkscape:deskcolor="#d1d1d1"
     inkscape:document-units="mm"
     inkscape:zoom="3.9357913"
     inkscape:cx="53.229449"
     inkscape:cy="44.590779"
     inkscape:window-width="1920"
     inkscape:window-height="1015"
     inkscape:window-x="1217"
     inkscape:window-y="1347"
     inkscape:window-maximized="1"
     inkscape:current-layer="layer1" /><defs
     id="defs1" /><g
     inkscape:label="Layer 1"
     inkscape:groupmode="layer"
     id="layer1"><g
       id="g30"
       transform="matrix(0.50101923,0,0,0.50101923,-0.03982353,-6.6976842)"
       style="stroke-width:1.99593"><rect
         style="fill:#ffccaa;stroke:none;stroke-width:0.52892;stroke-linecap:round;stroke-miterlimit:4.1;stroke-dasharray:1.58427, 0.528089"
         id="rect28"
         width="23.285931"
         height="19.146656"
         x="2.2132051"
         y="25.799063" /><path
         style="fill:none;stroke:#000000;stroke-width:0.528089px;stroke-linecap:butt;stroke-linejoin:miter;stroke-opacity:1"
         d="m 7.3275184,36.032567 3.4956966,-6.117469 5.646895,-0.470574 1.613399,5.915795 -3.361247,5.176318 -5.3779953,0.605026 z"
         id="path2" /><path
         style="fill:none;stroke:#000000;stroke-width:0.528089px;stroke-linecap:butt;stroke-linejoin:miter;stroke-opacity:1"
         d="M 2.218423,36.234243 7.3275184,36.032567"
         id="path3" /><path
         style="fill:none;stroke:#000000;stroke-width:0.528089px;stroke-linecap:butt;stroke-linejoin:miter;stroke-opacity:1"
         d="m 7.1811496,25.881602 0.7513933,0.94115 2.8906721,3.092346"
         id="path4" /><path
         style="fill:none;stroke:#000000;stroke-width:0.528089px;stroke-linecap:butt;stroke-linejoin:miter;stroke-opacity:1"
         d="M 20.974181,25.799063 16.47011,29.444524"
         id="path5"
         sodipodi:nodetypes="cc" /><path
         style="fill:none;stroke:#000000;stroke-width:0.528089px;stroke-linecap:butt;stroke-linejoin:miter;stroke-opacity:1"
         d="m 25.499136,31.611334 -1.970407,1.79946 1.970407,6.186956"
         id="path6"
         sodipodi:nodetypes="ccc" /><path
         style="fill:none;stroke:#000000;stroke-width:0.528089px;stroke-linecap:butt;stroke-linejoin:miter;stroke-opacity:1"
         d="m 18.083509,35.360319 5.44522,-1.949525"
         id="path7" /><path
         style="fill:none;stroke:#000000;stroke-width:0.528089px;stroke-linecap:butt;stroke-linejoin:miter;stroke-opacity:1"
         d="m 14.722262,40.536637 2.083973,3.294023 0.502498,1.115059"
         id="path8"
         sodipodi:nodetypes="ccc" /><path
         style="fill:none;stroke:#000000;stroke-width:0.528089px;stroke-linecap:butt;stroke-linejoin:miter;stroke-opacity:1"
         d="M 9.3442667,41.141663 6.0165369,44.945719"
         id="path9"
         sodipodi:nodetypes="cc" /></g><text
       xml:space="preserve"
       style="font-style:normal;font-variant:normal;font-weight:normal;font-stretch:normal;font-size:4.22472px;line-height:0.95;font-family:'Times New Roman';-inkscape-font-specification:'Times New Roman, Normal';font-variant-ligatures:normal;font-variant-caps:normal;font-variant-numeric:normal;font-variant-east-asian:normal;text-align:center;text-anchor:middle;white-space:pre;inline-size:29.0123;display:inline;stroke-width:1.05403"
       x="24.55022"
       y="50.687401"
       id="text30"
       transform="matrix(0.50101923,0,0,0.50101923,-5.3533579,-23.475478)"><tspan
         x="24.55022"
         y="50.687401"
         id="tspan1">Fissure pattern<tspan
   y="50.687401"
   id="tspan2"> </tspan></tspan><tspan
         x="24.55022"
         y="54.700886"
         id="tspan3">in OC clay</tspan></text><path
       style="fill:none;stroke:#666666;stroke-width:0.264583px;stroke-linecap:butt;stroke-linejoin:miter;stroke-opacity:1"
       d="M 6.5880445,4.2519773 4.4670721,7.2838257"
       id="path30"
       sodipodi:nodetypes="cc" /><g
       id="g29"
       transform="matrix(0.51283244,0,0,0.51205594,-7.5185208,-7.0562439)"
       style="stroke-width:1.95143"><rect
         style="fill:#ffccaa;stroke:none;stroke-width:0.517128;stroke-linecap:round;stroke-miterlimit:4.1;stroke-dasharray:1.54895, 0.516316"
         id="rect29"
         width="23.285929"
         height="19.146656"
         x="48.956192"
         y="25.799063" /><path
         style="fill:none;stroke:#000000;stroke-width:0.516316px;stroke-linecap:butt;stroke-linejoin:miter;stroke-opacity:1"
         d="m 54.070504,36.032567 3.495697,-6.117469 5.646895,-0.470574 1.613399,5.915795 -3.361247,5.176318 -5.377996,0.605026 z"
         id="path10" /><path
         style="fill:none;stroke:#000000;stroke-width:0.516316px;stroke-linecap:butt;stroke-linejoin:miter;stroke-opacity:1"
         d="m 48.961409,36.234243 5.109095,-0.201676"
         id="path11" /><path
         style="fill:none;stroke:#000000;stroke-width:0.516316px;stroke-linecap:butt;stroke-linejoin:miter;stroke-opacity:1"
         d="m 53.924135,25.881602 0.751393,0.94115 2.890673,3.092346"
         id="path12" /><path
         style="fill:none;stroke:#000000;stroke-width:0.516316px;stroke-linecap:butt;stroke-linejoin:miter;stroke-opacity:1"
         d="m 67.379063,25.799063 -4.165967,3.645461"
         id="path13"
         sodipodi:nodetypes="cc" /><path
         style="fill:none;stroke:#000000;stroke-width:0.516316px;stroke-linecap:butt;stroke-linejoin:miter;stroke-opacity:1"
         d="m 72.242121,31.540031 -1.970406,1.870763 1.970406,5.674443"
         id="path14"
         sodipodi:nodetypes="ccc" /><path
         style="fill:none;stroke:#000000;stroke-width:0.516316px;stroke-linecap:butt;stroke-linejoin:miter;stroke-opacity:1"
         d="m 64.826495,35.360319 5.44522,-1.949525"
         id="path15" /><path
         style="fill:none;stroke:#000000;stroke-width:0.516316px;stroke-linecap:butt;stroke-linejoin:miter;stroke-opacity:1"
         d="m 61.465248,40.536637 2.083973,3.294023 0.773087,1.115059"
         id="path16"
         sodipodi:nodetypes="ccc" /><path
         style="fill:none;stroke:#000000;stroke-width:0.516316px;stroke-linecap:butt;stroke-linejoin:miter;stroke-opacity:1"
         d="m 56.087252,41.141663 -3.238716,3.804056"
         id="path17"
         sodipodi:nodetypes="cc" /><path
         style="fill:none;stroke:#000000;stroke-width:0.516316px;stroke-linecap:butt;stroke-linejoin:miter;stroke-opacity:1"
         d="m 61.159545,29.615654 2.704661,-0.706488 -0.01347,2.873425"
         id="path18" /><path
         style="fill:none;stroke:#000000;stroke-width:0.516316px;stroke-linecap:butt;stroke-linejoin:miter;stroke-opacity:1"
         d="m 66.127044,34.894689 -3.35327,3.626816 -0.526415,1.944403 1.301862,3.364752"
         id="path19" /><path
         style="fill:none;stroke:#000000;stroke-width:0.516316px;stroke-linecap:butt;stroke-linejoin:miter;stroke-opacity:1"
         d="m 54.572447,42.977659 1.780545,-1.146675 2.423258,-0.991835"
         id="path20" /><path
         style="fill:none;stroke:#000000;stroke-width:0.516316px;stroke-linecap:butt;stroke-linejoin:miter;stroke-opacity:1"
         d="m 52.771576,36.133405 2.55455,3.208234"
         id="path21" /><path
         style="fill:none;stroke:#000000;stroke-width:0.516316px;stroke-linecap:butt;stroke-linejoin:miter;stroke-opacity:1"
         d="m 48.95619,36.906493 2.559767,-0.773088"
         id="path22" /><path
         style="fill:#000000;stroke:#000000;stroke-width:1.9545;stroke-linecap:round;stroke-miterlimit:4.1;stroke-dasharray:5.8543, 1.95143"
         d="m 203.94706,141.31915 -3.51389,-4.41774 1.40396,-0.0684 c 0.77219,-0.0376 1.57837,-0.0578 1.79152,-0.0449 l 0.38756,0.0235 1.74978,4.43525 c 0.96238,2.43939 1.73745,4.44758 1.72237,4.46265 -0.0151,0.0151 -1.60866,-1.96057 -3.5413,-4.39033 z"
         id="path23"
         transform="scale(0.26458333)" /><path
         style="fill:#000000;stroke:#000000;stroke-width:1.9545;stroke-linecap:round;stroke-miterlimit:4.1;stroke-dasharray:5.8543, 1.95143"
         d="m 210.66626,157.96662 c 0.89581,-1.08695 1.68545,-1.97627 1.75475,-1.97627 0.0693,0 1.36315,-0.14208 2.87523,-0.31573 1.51208,-0.17366 2.76206,-0.30291 2.77773,-0.28724 0.0157,0.0157 -1.18115,0.52196 -2.65962,1.12508 -2.64344,1.07835 -2.71813,1.11597 -4.4941,2.2635 -0.9933,0.64181 -1.82326,1.16693 -1.84436,1.16693 -0.0211,0 0.69456,-0.88932 1.59037,-1.97627 z"
         id="path24"
         transform="scale(0.26458333)" /><path
         style="fill:#000000;stroke:#000000;stroke-width:1.9545;stroke-linecap:round;stroke-miterlimit:4.1;stroke-dasharray:5.8543, 1.95143"
         d="m 235.23127,156.79018 c -1.22183,-1.9309 -2.20913,-3.5592 -2.19401,-3.61844 0.0426,-0.16691 2.61118,-4.10476 2.65127,-4.06466 0.0195,0.0195 -0.18892,0.86399 -0.4632,1.87661 -0.27429,1.01262 -0.4987,1.89865 -0.4987,1.96895 0,0.0703 0.62495,1.74085 1.38878,3.71233 0.76384,1.97149 1.37722,3.59609 1.36308,3.61023 -0.0141,0.0141 -1.02539,-1.55412 -2.24722,-3.48502 z"
         id="path25"
         transform="scale(0.26458333)" /><path
         style="fill:#000000;stroke:#000000;stroke-width:1.9545;stroke-linecap:round;stroke-miterlimit:4.1;stroke-dasharray:5.8543, 1.95143"
         d="m 241.56542,140.03028 c 0.0183,-0.0578 0.88212,-1.41519 1.91966,-3.0165 l 1.88644,-2.91147 1.19598,-0.42876 c 0.65779,-0.23582 1.21373,-0.41101 1.23542,-0.38931 0.0217,0.0217 -1.31901,1.51142 -2.97936,3.31051 -3.35582,3.63623 -3.30453,3.58215 -3.25814,3.43553 z"
         id="path26"
         transform="scale(0.26458333)" /><path
         style="fill:#000000;stroke:#000000;stroke-width:1.9545;stroke-linecap:round;stroke-miterlimit:4.1;stroke-dasharray:5.8543, 1.95143"
         d="m 240.18043,113.83698 c -0.33536,-1.24725 -0.60822,-2.29349 -0.60636,-2.32498 0.002,-0.0315 0.28636,-0.28588 0.63221,-0.56531 l 0.62881,-0.50805 v 2.83352 c 0,1.55844 -0.0101,2.83331 -0.0225,2.83303 -0.0124,-2.6e-4 -0.29684,-1.02096 -0.6322,-2.26821 z"
         id="path27"
         transform="scale(0.26458333)" /><path
         style="fill:#000000;stroke:#000000;stroke-width:1.9545;stroke-linecap:round;stroke-miterlimit:4.1;stroke-dasharray:5.8543, 1.95143"
         d="m 237.07345,110.9188 c 0.0522,-0.0229 2.10843,-0.55179 2.12291,-0.54607 0.009,0.003 -0.0971,0.099 -0.23513,0.21229 l -0.25102,0.20601 -0.69487,0.0575 c -0.38217,0.0317 -0.7555,0.0626 -0.82961,0.0688 -0.0741,0.006 -0.12464,0.007 -0.11228,10e-4 z"
         id="path28"
         transform="scale(0.26458333)" /></g><text
       xml:space="preserve"
       style="font-style:normal;font-variant:normal;font-weight:normal;font-stretch:normal;font-size:4.22472px;line-height:0.95;font-family:'Times New Roman';-inkscape-font-specification:'Times New Roman, Normal';font-variant-ligatures:normal;font-variant-caps:normal;font-variant-numeric:normal;font-variant-east-asian:normal;text-align:center;text-anchor:middle;white-space:pre;inline-size:27.6981;display:inline;stroke-width:1.05403"
       x="24.55022"
       y="50.687401"
       id="text31"
       transform="matrix(0.50101923,0,0,0.50101923,11.241226,-23.475478)"><tspan
         x="24.55022"
         y="50.687401"
         id="tspan4">Naturally<tspan
   y="50.687401"
   id="tspan5"> </tspan></tspan><tspan
         x="24.55022"
         y="54.700886"
         id="tspan6">&quot;remolded&quot;<tspan
   y="54.700886"
   id="tspan7"> </tspan></tspan><tspan
         x="24.55022"
         y="58.714371"
         id="tspan8">material</tspan></text><path
       style="fill:none;stroke:#666666;stroke-width:0.264583px;stroke-linecap:butt;stroke-linejoin:miter;stroke-opacity:1"
       d="m 23.964953,5.9704895 0.906378,1.9833976"
       id="path31" /></g></svg>
