<?xml version="1.0" encoding="UTF-8" standalone="no"?>
<!-- Created with Inkscape (http://www.inkscape.org/) -->

<svg
   width="1.6in"
   height="1.9in"
   viewBox="0 0 40.640001 48.26"
   version="1.1"
   id="svg1"
   inkscape:version="1.3.2 (091e20e, 2023-11-25, custom)"
   sodipodi:docname="void_evolution.svg"
   xmlns:inkscape="http://www.inkscape.org/namespaces/inkscape"
   xmlns:sodipodi="http://sodipodi.sourceforge.net/DTD/sodipodi-0.dtd"
   xmlns="http://www.w3.org/2000/svg"
   xmlns:svg="http://www.w3.org/2000/svg"
   xmlns:ns1="http://www.iki.fi/pav/software/textext/">
  <sodipodi:namedview
     id="namedview1"
     pagecolor="#ffffff"
     bordercolor="#111111"
     borderopacity="1"
     inkscape:showpageshadow="0"
     inkscape:pageopacity="0"
     inkscape:pagecheckerboard="1"
     inkscape:deskcolor="#d1d1d1"
     inkscape:document-units="mm"
     inkscape:zoom="3.9357913"
     inkscape:cx="84.735185"
     inkscape:cy="84.735185"
     inkscape:window-width="1920"
     inkscape:window-height="1015"
     inkscape:window-x="1217"
     inkscape:window-y="1347"
     inkscape:window-maximized="1"
     inkscape:current-layer="layer1" />
  <defs
     id="defs1">
    <marker
       style="overflow:visible"
       id="ArrowWideRounded"
       refX="0"
       refY="0"
       orient="auto-start-reverse"
       inkscape:stockid="Wide, rounded arrow"
       markerWidth="1"
       markerHeight="1"
       viewBox="0 0 1 1"
       inkscape:isstock="true"
       inkscape:collect="always"
       preserveAspectRatio="xMidYMid">
      <path
         style="fill:none;stroke:context-stroke;stroke-width:1;stroke-linecap:round"
         d="M 3,-3 0,0 3,3"
         transform="rotate(180,0.125,0)"
         sodipodi:nodetypes="ccc"
         id="path20" />
    </marker>
    <marker
       style="overflow:visible"
       id="ArrowWide"
       refX="0"
       refY="0"
       orient="auto-start-reverse"
       inkscape:stockid="Wide arrow"
       markerWidth="1"
       markerHeight="1"
       viewBox="0 0 1 1"
       inkscape:isstock="true"
       inkscape:collect="always"
       preserveAspectRatio="xMidYMid">
      <path
         style="fill:none;stroke:context-stroke;stroke-width:1;stroke-linecap:butt"
         d="M 3,-3 0,0 3,3"
         transform="rotate(180,0.125,0)"
         sodipodi:nodetypes="ccc"
         id="path18" />
    </marker>
    <marker
       style="overflow:visible"
       id="DartArrow"
       refX="0"
       refY="0"
       orient="auto-start-reverse"
       inkscape:stockid="Dart arrow"
       markerWidth="0.75"
       markerHeight="0.75"
       viewBox="0 0 1 1"
       inkscape:isstock="true"
       inkscape:collect="always"
       preserveAspectRatio="xMidYMid">
      <path
         style="fill:context-stroke;fill-rule:evenodd;stroke:none"
         d="M 0,0 5,-5 -12.5,0 5,5 Z"
         transform="scale(-0.5)"
         id="path6" />
    </marker>
  </defs>
  <g
     inkscape:label="Layer 1"
     inkscape:groupmode="layer"
     id="layer1">
    <path
       style="fill:none;stroke:#000000;stroke-width:0.264583px;stroke-linecap:butt;stroke-linejoin:miter;stroke-opacity:1;marker-end:url(#DartArrow);marker-start:url(#DartArrow)"
       d="M 2.6217726,2.6217726 V 16.537335 H 37.645967"
       id="path1" />
    <path
       style="fill:none;stroke:#000000;stroke-width:0.264583px;stroke-linecap:butt;stroke-linejoin:miter;stroke-opacity:1;marker-start:url(#DartArrow);marker-end:url(#DartArrow)"
       d="M 2.4894811,21.000079 V 43.45321 H 37.645967"
       id="path2"
       sodipodi:nodetypes="ccc" />
    <g
       transform="matrix(0.352778,0,0,0.352778,0.53813533,1.381628)"
       ns1:version="1.10.2"
       ns1:texconverter="pdflatex"
       ns1:pdfconverter="inkscape"
       ns1:text="$e$"
       ns1:preamble="C:\Users\zamcr\AppData\Roaming\inkscape\extensions\textext\default_packages.tex"
       ns1:scale="1.0"
       ns1:alignment="middle center"
       ns1:stroke-to-path="0"
       ns1:inkscapeversion="1.3.2"
       id="g5313"
       ns1:jacobian_sqrt="0.352778">
      <defs
         id="id-a80419c8-3bd4-4ffc-9609-7b56e0920e26">
        <g
           id="id-ebe6a65a-d30c-40db-acf5-640edaf7261b">
          <g
             id="id-1dcba926-f585-4b4f-b433-4f3a996c25f4">
            <path
               d="m 1.859375,-2.296875 c 0.296875,0 1.03125,-0.03125 1.53125,-0.234375 0.703125,-0.296875 0.75,-0.890625 0.75,-1.03125 0,-0.4375 -0.375,-0.84375 -1.0625,-0.84375 -1.109375,0 -2.625,0.96875 -2.625,2.71875 0,1.015625 0.59375,1.796875 1.578125,1.796875 1.421875,0 2.25,-1.0625 2.25,-1.171875 0,-0.0625 -0.046875,-0.140625 -0.109375,-0.140625 -0.0625,0 -0.078125,0.03125 -0.140625,0.109375 -0.78125,0.984375 -1.875,0.984375 -1.984375,0.984375 -0.78125,0 -0.875,-0.84375 -0.875,-1.15625 0,-0.125 0.015625,-0.421875 0.15625,-1.03125 z m -0.46875,-0.21875 C 1.78125,-4.03125 2.8125,-4.1875 3.078125,-4.1875 c 0.453125,0 0.734375,0.296875 0.734375,0.625 0,1.046875 -1.59375,1.046875 -2.015625,1.046875 z m 0,0"
               id="id-87083084-6f8b-4398-b76c-b4547374e0fb" />
          </g>
        </g>
      </defs>
      <g
         fill="#000000"
         fill-opacity="1"
         id="id-13d21c2f-c078-4420-9532-53cff3e2e1cc"
         transform="translate(-149.165,-130.359)">
        <g
           transform="translate(148.712,134.765)"
           id="g2717">
          <path
             d="m 1.859375,-2.296875 c 0.296875,0 1.03125,-0.03125 1.53125,-0.234375 0.703125,-0.296875 0.75,-0.890625 0.75,-1.03125 0,-0.4375 -0.375,-0.84375 -1.0625,-0.84375 -1.109375,0 -2.625,0.96875 -2.625,2.71875 0,1.015625 0.59375,1.796875 1.578125,1.796875 1.421875,0 2.25,-1.0625 2.25,-1.171875 0,-0.0625 -0.046875,-0.140625 -0.109375,-0.140625 -0.0625,0 -0.078125,0.03125 -0.140625,0.109375 -0.78125,0.984375 -1.875,0.984375 -1.984375,0.984375 -0.78125,0 -0.875,-0.84375 -0.875,-1.15625 0,-0.125 0.015625,-0.421875 0.15625,-1.03125 z m -0.46875,-0.21875 C 1.78125,-4.03125 2.8125,-4.1875 3.078125,-4.1875 c 0.453125,0 0.734375,0.296875 0.734375,0.625 0,1.046875 -1.59375,1.046875 -2.015625,1.046875 z m 0,0"
             id="id-15a93be3-25cc-4484-b81d-9494f5e48b99" />
        </g>
      </g>
    </g>
    <g
       transform="matrix(0.352778,0,0,0.352778,35.318073,17.018877)"
       ns1:version="1.10.2"
       ns1:texconverter="pdflatex"
       ns1:pdfconverter="inkscape"
       ns1:text="$\\varepsilon_a$"
       ns1:preamble="C:\Users\zamcr\AppData\Roaming\inkscape\extensions\textext\default_packages.tex"
       ns1:scale="1.0"
       ns1:alignment="middle center"
       ns1:stroke-to-path="0"
       ns1:inkscapeversion="1.3.2"
       id="g2117"
       ns1:jacobian_sqrt="0.352778">
      <defs
         id="id-f552d199-5f4d-43dc-8213-0eae7187d4a6">
        <g
           id="id-7f86778b-eb9e-4230-984b-c01aac47c109">
          <g
             id="id-e64bf8c4-fdb6-4e8b-aa75-3f35d679894d">
            <path
               d="M 1.40625,-2.265625 C 1.734375,-2.125 2.03125,-2.125 2.265625,-2.125 c 0.25,0 0.8125,0 0.8125,-0.3125 0,-0.234375 -0.359375,-0.265625 -0.734375,-0.265625 -0.203125,0 -0.5625,0.015625 -0.921875,0.1875 C 1.1875,-2.625 1.015625,-2.828125 1.015625,-3.09375 c 0,-0.609375 0.984375,-0.96875 1.875,-0.96875 0.15625,0 0.515625,0 0.921875,0.28125 0.109375,0.078125 0.125,0.109375 0.1875,0.109375 0.140625,0 0.28125,-0.140625 0.28125,-0.28125 0,-0.1875 -0.609375,-0.5625 -1.296875,-0.5625 -1.140625,0 -2.21875,0.671875 -2.21875,1.421875 0,0.4375 0.359375,0.6875 0.40625,0.71875 -0.59375,0.328125 -0.90625,0.875 -0.90625,1.34375 0,0.640625 0.5625,1.25 1.625,1.25 1.3125,0 1.875,-0.875 1.875,-1.03125 0,-0.0625 -0.0625,-0.09375 -0.109375,-0.09375 -0.0625,0 -0.09375,0.03125 -0.109375,0.0625 -0.140625,0.234375 -0.375,0.609375 -1.578125,0.609375 -0.609375,0 -1.453125,-0.15625 -1.453125,-0.859375 0,-0.34375 0.28125,-0.875 0.890625,-1.171875 z m 0.328125,-0.125 c 0.234375,-0.078125 0.4375,-0.09375 0.609375,-0.09375 0.25,0 0.28125,0.015625 0.46875,0.0625 -0.15625,0.0625 -0.171875,0.078125 -0.546875,0.078125 -0.21875,0 -0.34375,0 -0.53125,-0.046875 z m 0,0"
               id="id-3ecc19d9-4bc2-4aac-a5b2-6c5797c4c8b4" />
          </g>
          <g
             id="id-53e2eea1-0577-4163-843b-307414f31af8">
            <path
               d="m 2.9375,-2.65625 c -0.140625,-0.234375 -0.375,-0.421875 -0.71875,-0.421875 -0.890625,0 -1.796875,0.984375 -1.796875,1.984375 0,0.6875 0.453125,1.15625 1.0625,1.15625 0.375,0 0.703125,-0.203125 0.984375,-0.484375 C 2.59375,0 3,0.0625 3.1875,0.0625 c 0.25,0 0.421875,-0.140625 0.546875,-0.359375 0.15625,-0.28125 0.25,-0.671875 0.25,-0.703125 0,-0.09375 -0.09375,-0.09375 -0.109375,-0.09375 -0.109375,0 -0.109375,0.03125 -0.15625,0.21875 C 3.625,-0.53125 3.5,-0.125 3.203125,-0.125 3.03125,-0.125 2.96875,-0.28125 2.96875,-0.46875 c 0,-0.109375 0.0625,-0.375 0.109375,-0.546875 0.046875,-0.1875 0.125,-0.46875 0.15625,-0.625 L 3.375,-2.171875 C 3.421875,-2.359375 3.5,-2.6875 3.5,-2.71875 3.5,-2.875 3.375,-2.9375 3.265625,-2.9375 c -0.125,0 -0.28125,0.078125 -0.328125,0.28125 z M 2.5,-0.875 C 2.453125,-0.671875 2.296875,-0.53125 2.140625,-0.40625 2.078125,-0.34375 1.796875,-0.125 1.5,-0.125 c -0.265625,0 -0.515625,-0.1875 -0.515625,-0.671875 0,-0.375 0.203125,-1.140625 0.375,-1.421875 0.3125,-0.5625 0.671875,-0.65625 0.859375,-0.65625 0.484375,0 0.625,0.53125 0.625,0.609375 0,0.015625 -0.015625,0.078125 -0.015625,0.09375 z m 0,0"
               id="id-7f6528a2-6983-4df6-98f5-8ef0c5f484d7" />
          </g>
        </g>
      </defs>
      <g
         fill="#000000"
         fill-opacity="1"
         id="id-c602d8ff-e102-44a3-a7b2-ffeec4cead12"
         transform="translate(-148.978,-130.249)">
        <g
           transform="translate(148.712,134.765)"
           id="g4563">
          <path
             d="M 1.40625,-2.265625 C 1.734375,-2.125 2.03125,-2.125 2.265625,-2.125 c 0.25,0 0.8125,0 0.8125,-0.3125 0,-0.234375 -0.359375,-0.265625 -0.734375,-0.265625 -0.203125,0 -0.5625,0.015625 -0.921875,0.1875 C 1.1875,-2.625 1.015625,-2.828125 1.015625,-3.09375 c 0,-0.609375 0.984375,-0.96875 1.875,-0.96875 0.15625,0 0.515625,0 0.921875,0.28125 0.109375,0.078125 0.125,0.109375 0.1875,0.109375 0.140625,0 0.28125,-0.140625 0.28125,-0.28125 0,-0.1875 -0.609375,-0.5625 -1.296875,-0.5625 -1.140625,0 -2.21875,0.671875 -2.21875,1.421875 0,0.4375 0.359375,0.6875 0.40625,0.71875 -0.59375,0.328125 -0.90625,0.875 -0.90625,1.34375 0,0.640625 0.5625,1.25 1.625,1.25 1.3125,0 1.875,-0.875 1.875,-1.03125 0,-0.0625 -0.0625,-0.09375 -0.109375,-0.09375 -0.0625,0 -0.09375,0.03125 -0.109375,0.0625 -0.140625,0.234375 -0.375,0.609375 -1.578125,0.609375 -0.609375,0 -1.453125,-0.15625 -1.453125,-0.859375 0,-0.34375 0.28125,-0.875 0.890625,-1.171875 z m 0.328125,-0.125 c 0.234375,-0.078125 0.4375,-0.09375 0.609375,-0.09375 0.25,0 0.28125,0.015625 0.46875,0.0625 -0.15625,0.0625 -0.171875,0.078125 -0.546875,0.078125 -0.21875,0 -0.34375,0 -0.53125,-0.046875 z m 0,0"
             id="id-c0349a70-f364-4cf7-810b-7c3f774206c2" />
        </g>
      </g>
      <g
         fill="#000000"
         fill-opacity="1"
         id="id-9e71b69f-07b2-45ff-a3ca-ba4d81d548d7"
         transform="translate(-148.978,-130.249)">
        <g
           transform="translate(153.358,136.259)"
           id="g9694">
          <path
             d="m 2.9375,-2.65625 c -0.140625,-0.234375 -0.375,-0.421875 -0.71875,-0.421875 -0.890625,0 -1.796875,0.984375 -1.796875,1.984375 0,0.6875 0.453125,1.15625 1.0625,1.15625 0.375,0 0.703125,-0.203125 0.984375,-0.484375 C 2.59375,0 3,0.0625 3.1875,0.0625 c 0.25,0 0.421875,-0.140625 0.546875,-0.359375 0.15625,-0.28125 0.25,-0.671875 0.25,-0.703125 0,-0.09375 -0.09375,-0.09375 -0.109375,-0.09375 -0.109375,0 -0.109375,0.03125 -0.15625,0.21875 C 3.625,-0.53125 3.5,-0.125 3.203125,-0.125 3.03125,-0.125 2.96875,-0.28125 2.96875,-0.46875 c 0,-0.109375 0.0625,-0.375 0.109375,-0.546875 0.046875,-0.1875 0.125,-0.46875 0.15625,-0.625 L 3.375,-2.171875 C 3.421875,-2.359375 3.5,-2.6875 3.5,-2.71875 3.5,-2.875 3.375,-2.9375 3.265625,-2.9375 c -0.125,0 -0.28125,0.078125 -0.328125,0.28125 z M 2.5,-0.875 C 2.453125,-0.671875 2.296875,-0.53125 2.140625,-0.40625 2.078125,-0.34375 1.796875,-0.125 1.5,-0.125 c -0.265625,0 -0.515625,-0.1875 -0.515625,-0.671875 0,-0.375 0.203125,-1.140625 0.375,-1.421875 0.3125,-0.5625 0.671875,-0.65625 0.859375,-0.65625 0.484375,0 0.625,0.53125 0.625,0.609375 0,0.015625 -0.015625,0.078125 -0.015625,0.09375 z m 0,0"
             id="id-2443627f-81f8-45db-bf49-741ca597bb31" />
        </g>
      </g>
    </g>
    <g
       transform="matrix(0.352778,0,0,0.352778,28.554084,44.059194)"
       ns1:version="1.10.2"
       ns1:texconverter="pdflatex"
       ns1:pdfconverter="inkscape"
       ns1:text="$\\sigma'_{3CON}$"
       ns1:preamble="C:\Users\zamcr\AppData\Roaming\inkscape\extensions\textext\default_packages.tex"
       ns1:scale="1.0"
       ns1:alignment="middle center"
       ns1:stroke-to-path="0"
       ns1:inkscapeversion="1.3.2"
       id="g1206"
       ns1:jacobian_sqrt="0.352778">
      <defs
         id="id-15522da6-e116-4d56-9585-e1204c61d90e">
        <g
           id="id-09dea0f7-3994-4f06-ad22-e88ec92dbe59">
          <g
             id="id-22e77c83-b440-4476-9b79-12160f21ad42">
            <path
               d="m 5.15625,-3.71875 c 0.140625,0 0.5,0 0.5,-0.34375 0,-0.234375 -0.21875,-0.234375 -0.390625,-0.234375 h -2.28125 c -1.5,0 -2.609375,1.640625 -2.609375,2.828125 0,0.875 0.59375,1.578125 1.5,1.578125 1.171875,0 2.5,-1.203125 2.5,-2.734375 0,-0.171875 0,-0.65625 -0.3125,-1.09375 z M 1.890625,-0.109375 C 1.390625,-0.109375 1,-0.46875 1,-1.1875 c 0,-0.296875 0.109375,-1.109375 0.46875,-1.703125 0.421875,-0.6875 1.015625,-0.828125 1.359375,-0.828125 0.828125,0 0.90625,0.65625 0.90625,0.96875 0,0.46875 -0.203125,1.28125 -0.53125,1.796875 -0.390625,0.578125 -0.9375,0.84375 -1.3125,0.84375 z m 0,0"
               id="id-d4a3c6b8-5fe1-43d6-97c7-cab4a271fc1f" />
          </g>
          <g
             id="id-6cee2443-491a-4fa5-962d-07dbb2db7d1f">
            <path
               d="m 2.015625,-3.296875 c 0.0625,-0.109375 0.0625,-0.171875 0.0625,-0.21875 0,-0.21875 -0.1875,-0.375 -0.40625,-0.375 -0.265625,0 -0.34375,0.21875 -0.375,0.328125 L 0.375,-0.546875 c -0.015625,0.015625 -0.046875,0.09375 -0.046875,0.109375 0,0.078125 0.21875,0.15625 0.28125,0.15625 0.046875,0 0.046875,-0.015625 0.09375,-0.125 z m 0,0"
               id="id-ba85fbed-c8b9-4535-9974-358ef8a8e330" />
          </g>
          <g
             id="id-017ec68d-ce8d-4949-bc2c-918b4b350372">
            <path
               d="m 1.90625,-2.328125 c 0.546875,0 0.9375,0.375 0.9375,1.125 0,0.859375 -0.515625,1.125 -0.90625,1.125 -0.28125,0 -0.90625,-0.078125 -1.1875,-0.5 0.328125,0 0.40625,-0.234375 0.40625,-0.390625 0,-0.21875 -0.171875,-0.375 -0.390625,-0.375 -0.1875,0 -0.390625,0.125 -0.390625,0.40625 0,0.65625 0.71875,1.078125 1.5625,1.078125 0.96875,0 1.640625,-0.65625 1.640625,-1.34375 0,-0.546875 -0.4375,-1.09375 -1.203125,-1.25 0.71875,-0.265625 0.984375,-0.78125 0.984375,-1.21875 0,-0.546875 -0.625,-0.953125 -1.40625,-0.953125 -0.765625,0 -1.359375,0.375 -1.359375,0.9375 0,0.234375 0.15625,0.359375 0.359375,0.359375 0.21875,0 0.359375,-0.15625 0.359375,-0.34375 0,-0.203125 -0.140625,-0.359375 -0.359375,-0.375 0.25,-0.296875 0.71875,-0.375 0.984375,-0.375 0.3125,0 0.75,0.15625 0.75,0.75 0,0.296875 -0.09375,0.625 -0.28125,0.828125 -0.21875,0.265625 -0.421875,0.28125 -0.765625,0.3125 -0.171875,0.015625 -0.1875,0.015625 -0.21875,0.015625 -0.015625,0 -0.078125,0.015625 -0.078125,0.09375 0,0.09375 0.0625,0.09375 0.1875,0.09375 z m 0,0"
               id="id-09ba0925-e207-421c-b212-8f83373c1183" />
          </g>
          <g
             id="id-cac31a37-f78b-4c91-90b2-452b7d1518a4">
            <path
               d="m 5.875,-4.8125 c 0,-0.03125 -0.015625,-0.09375 -0.09375,-0.09375 -0.046875,0 -0.0625,0.015625 -0.125,0.09375 l -0.5,0.53125 c -0.0625,-0.078125 -0.453125,-0.625 -1.3125,-0.625 -1.703125,0 -3.359375,1.5 -3.359375,3.078125 0,1.140625 0.890625,1.96875 2.140625,1.96875 0.375,0 1.046875,-0.078125 1.765625,-0.6875 0.546875,-0.46875 0.703125,-1.0625 0.703125,-1.125 0,-0.09375 -0.078125,-0.09375 -0.125,-0.09375 -0.078125,0 -0.09375,0.03125 -0.125,0.109375 -0.28125,0.953125 -1.25,1.546875 -2.09375,1.546875 -0.75,0 -1.5625,-0.40625 -1.5625,-1.5 0,-0.203125 0.046875,-1.296875 0.84375,-2.1875 0.484375,-0.53125 1.21875,-0.84375 1.875,-0.84375 0.8125,0 1.28125,0.578125 1.28125,1.359375 0,0.1875 -0.015625,0.25 -0.015625,0.28125 0,0.09375 0.09375,0.09375 0.125,0.09375 0.109375,0 0.109375,-0.015625 0.140625,-0.15625 z m 0,0"
               id="id-3b49c1c3-408a-4190-999a-dd75fdfdd676" />
          </g>
          <g
             id="id-a11d9d41-5b1f-49ff-86c5-3c5e5adb5e13">
            <path
               d="m 5.78125,-2.96875 c 0,-1.09375 -0.796875,-1.9375 -2.03125,-1.9375 -1.65625,0 -3.265625,1.5625 -3.265625,3.140625 0,1.125 0.828125,1.90625 2.03125,1.90625 1.65625,0 3.265625,-1.515625 3.265625,-3.109375 z m -3.21875,2.875 c -0.734375,0 -1.359375,-0.5 -1.359375,-1.53125 0,-0.359375 0.09375,-1.34375 0.734375,-2.140625 0.46875,-0.5625 1.140625,-0.90625 1.765625,-0.90625 0.71875,0 1.390625,0.453125 1.390625,1.46875 0,0.5 -0.21875,1.53125 -0.859375,2.265625 C 3.75,-0.375 3.109375,-0.09375 2.5625,-0.09375 Z m 0,0"
               id="id-a03ec6de-146d-48ad-bdd0-00ded1dc2ae2" />
          </g>
          <g
             id="id-925be302-608b-4e59-ac52-300166c17dcd">
            <path
               d="M 5.8125,-4 C 5.875,-4.265625 6,-4.5 6.546875,-4.515625 c 0.03125,0 0.140625,0 0.140625,-0.140625 0,-0.046875 -0.03125,-0.109375 -0.109375,-0.109375 -0.21875,0 -0.484375,0.03125 -0.71875,0.03125 -0.171875,0 -0.5625,-0.03125 -0.734375,-0.03125 -0.03125,0 -0.140625,0 -0.140625,0.15625 0,0.09375 0.09375,0.09375 0.15625,0.09375 0.328125,0.015625 0.4375,0.125 0.4375,0.296875 0,0.046875 0,0.09375 -0.03125,0.15625 l -0.75,3.046875 -1.765625,-3.625 c -0.0625,-0.125 -0.078125,-0.125 -0.25,-0.125 H 1.828125 c -0.125,0 -0.21875,0 -0.21875,0.15625 0,0.09375 0.078125,0.09375 0.234375,0.09375 0.140625,0 0.296875,0.015625 0.4375,0.046875 L 1.359375,-0.75 c -0.0625,0.265625 -0.1875,0.484375 -0.734375,0.5 -0.046875,0 -0.140625,0 -0.140625,0.140625 C 0.484375,-0.03125 0.53125,0 0.578125,0 0.8125,0 1.078125,-0.03125 1.3125,-0.03125 1.484375,-0.03125 1.875,0 2.046875,0 2.125,0 2.1875,-0.03125 2.1875,-0.140625 2.1875,-0.25 2.109375,-0.25 2.03125,-0.25 c -0.4375,-0.015625 -0.4375,-0.203125 -0.4375,-0.296875 0,-0.03125 0,-0.0625 0.015625,-0.171875 l 0.90625,-3.5625 2.03125,4.15625 C 4.59375,0 4.625,0 4.703125,0 4.8125,0 4.8125,-0.015625 4.84375,-0.140625 Z m 0,0"
               id="id-07978549-b1a0-4655-b7fc-59395bd0798d" />
          </g>
        </g>
      </defs>
      <g
         fill="#000000"
         fill-opacity="1"
         id="id-8efe0299-f2e4-469c-87a2-8f9fc641bd12"
         transform="translate(-149.087,-127.258)">
        <g
           transform="translate(148.712,134.765)"
           id="g6766">
          <path
             d="m 5.15625,-3.71875 c 0.140625,0 0.5,0 0.5,-0.34375 0,-0.234375 -0.21875,-0.234375 -0.390625,-0.234375 h -2.28125 c -1.5,0 -2.609375,1.640625 -2.609375,2.828125 0,0.875 0.59375,1.578125 1.5,1.578125 1.171875,0 2.5,-1.203125 2.5,-2.734375 0,-0.171875 0,-0.65625 -0.3125,-1.09375 z M 1.890625,-0.109375 C 1.390625,-0.109375 1,-0.46875 1,-1.1875 c 0,-0.296875 0.109375,-1.109375 0.46875,-1.703125 0.421875,-0.6875 1.015625,-0.828125 1.359375,-0.828125 0.828125,0 0.90625,0.65625 0.90625,0.96875 0,0.46875 -0.203125,1.28125 -0.53125,1.796875 -0.390625,0.578125 -0.9375,0.84375 -1.3125,0.84375 z m 0,0"
             id="id-15939b3f-948a-4f80-8382-223436320a45" />
        </g>
      </g>
      <g
         fill="#000000"
         fill-opacity="1"
         id="id-3a04d08a-cf34-40b2-aadf-0ad62b83fdc5"
         transform="translate(-149.087,-127.258)">
        <g
           transform="translate(154.763,131.149)"
           id="g167">
          <path
             d="m 2.015625,-3.296875 c 0.0625,-0.109375 0.0625,-0.171875 0.0625,-0.21875 0,-0.21875 -0.1875,-0.375 -0.40625,-0.375 -0.265625,0 -0.34375,0.21875 -0.375,0.328125 L 0.375,-0.546875 c -0.015625,0.015625 -0.046875,0.09375 -0.046875,0.109375 0,0.078125 0.21875,0.15625 0.28125,0.15625 0.046875,0 0.046875,-0.015625 0.09375,-0.125 z m 0,0"
             id="id-f53ca83e-8ffe-4c3e-b7b5-3acdb5bccde4" />
        </g>
      </g>
      <g
         fill="#000000"
         fill-opacity="1"
         id="id-91c61025-7930-4144-bd9d-3d8a6617584b"
         transform="translate(-149.087,-127.258)">
        <g
           transform="translate(154.405,137.509)"
           id="g7672">
          <path
             d="m 1.90625,-2.328125 c 0.546875,0 0.9375,0.375 0.9375,1.125 0,0.859375 -0.515625,1.125 -0.90625,1.125 -0.28125,0 -0.90625,-0.078125 -1.1875,-0.5 0.328125,0 0.40625,-0.234375 0.40625,-0.390625 0,-0.21875 -0.171875,-0.375 -0.390625,-0.375 -0.1875,0 -0.390625,0.125 -0.390625,0.40625 0,0.65625 0.71875,1.078125 1.5625,1.078125 0.96875,0 1.640625,-0.65625 1.640625,-1.34375 0,-0.546875 -0.4375,-1.09375 -1.203125,-1.25 0.71875,-0.265625 0.984375,-0.78125 0.984375,-1.21875 0,-0.546875 -0.625,-0.953125 -1.40625,-0.953125 -0.765625,0 -1.359375,0.375 -1.359375,0.9375 0,0.234375 0.15625,0.359375 0.359375,0.359375 0.21875,0 0.359375,-0.15625 0.359375,-0.34375 0,-0.203125 -0.140625,-0.359375 -0.359375,-0.375 0.25,-0.296875 0.71875,-0.375 0.984375,-0.375 0.3125,0 0.75,0.15625 0.75,0.75 0,0.296875 -0.09375,0.625 -0.28125,0.828125 -0.21875,0.265625 -0.421875,0.28125 -0.765625,0.3125 -0.171875,0.015625 -0.1875,0.015625 -0.21875,0.015625 -0.015625,0 -0.078125,0.015625 -0.078125,0.09375 0,0.09375 0.0625,0.09375 0.1875,0.09375 z m 0,0"
             id="id-e24d62bb-3a2b-4130-b611-21bba02d6868" />
        </g>
      </g>
      <g
         fill="#000000"
         fill-opacity="1"
         id="id-8ff26bc3-52d1-4aae-af66-55a776ebc8b6"
         transform="translate(-149.087,-127.258)">
        <g
           transform="translate(158.376,137.509)"
           id="g8710">
          <path
             d="m 5.875,-4.8125 c 0,-0.03125 -0.015625,-0.09375 -0.09375,-0.09375 -0.046875,0 -0.0625,0.015625 -0.125,0.09375 l -0.5,0.53125 c -0.0625,-0.078125 -0.453125,-0.625 -1.3125,-0.625 -1.703125,0 -3.359375,1.5 -3.359375,3.078125 0,1.140625 0.890625,1.96875 2.140625,1.96875 0.375,0 1.046875,-0.078125 1.765625,-0.6875 0.546875,-0.46875 0.703125,-1.0625 0.703125,-1.125 0,-0.09375 -0.078125,-0.09375 -0.125,-0.09375 -0.078125,0 -0.09375,0.03125 -0.125,0.109375 -0.28125,0.953125 -1.25,1.546875 -2.09375,1.546875 -0.75,0 -1.5625,-0.40625 -1.5625,-1.5 0,-0.203125 0.046875,-1.296875 0.84375,-2.1875 0.484375,-0.53125 1.21875,-0.84375 1.875,-0.84375 0.8125,0 1.28125,0.578125 1.28125,1.359375 0,0.1875 -0.015625,0.25 -0.015625,0.28125 0,0.09375 0.09375,0.09375 0.125,0.09375 0.109375,0 0.109375,-0.015625 0.140625,-0.15625 z m 0,0"
             id="id-6fa4fce4-fc83-4d61-83d1-dcd5bda33076" />
        </g>
      </g>
      <g
         fill="#000000"
         fill-opacity="1"
         id="id-5d07f1f6-c4b6-47b3-884d-66240baa86b4"
         transform="translate(-149.087,-127.258)">
        <g
           transform="translate(164.578,137.509)"
           id="g4536">
          <path
             d="m 5.78125,-2.96875 c 0,-1.09375 -0.796875,-1.9375 -2.03125,-1.9375 -1.65625,0 -3.265625,1.5625 -3.265625,3.140625 0,1.125 0.828125,1.90625 2.03125,1.90625 1.65625,0 3.265625,-1.515625 3.265625,-3.109375 z m -3.21875,2.875 c -0.734375,0 -1.359375,-0.5 -1.359375,-1.53125 0,-0.359375 0.09375,-1.34375 0.734375,-2.140625 0.46875,-0.5625 1.140625,-0.90625 1.765625,-0.90625 0.71875,0 1.390625,0.453125 1.390625,1.46875 0,0.5 -0.21875,1.53125 -0.859375,2.265625 C 3.75,-0.375 3.109375,-0.09375 2.5625,-0.09375 Z m 0,0"
             id="id-85552d2c-35e3-4d84-a523-207dbb3550fb" />
        </g>
      </g>
      <g
         fill="#000000"
         fill-opacity="1"
         id="id-0cb40c44-3c12-40ff-95f9-7502e67568fc"
         transform="translate(-149.087,-127.258)">
        <g
           transform="translate(170.854,137.509)"
           id="g5216">
          <path
             d="M 5.8125,-4 C 5.875,-4.265625 6,-4.5 6.546875,-4.515625 c 0.03125,0 0.140625,0 0.140625,-0.140625 0,-0.046875 -0.03125,-0.109375 -0.109375,-0.109375 -0.21875,0 -0.484375,0.03125 -0.71875,0.03125 -0.171875,0 -0.5625,-0.03125 -0.734375,-0.03125 -0.03125,0 -0.140625,0 -0.140625,0.15625 0,0.09375 0.09375,0.09375 0.15625,0.09375 0.328125,0.015625 0.4375,0.125 0.4375,0.296875 0,0.046875 0,0.09375 -0.03125,0.15625 l -0.75,3.046875 -1.765625,-3.625 c -0.0625,-0.125 -0.078125,-0.125 -0.25,-0.125 H 1.828125 c -0.125,0 -0.21875,0 -0.21875,0.15625 0,0.09375 0.078125,0.09375 0.234375,0.09375 0.140625,0 0.296875,0.015625 0.4375,0.046875 L 1.359375,-0.75 c -0.0625,0.265625 -0.1875,0.484375 -0.734375,0.5 -0.046875,0 -0.140625,0 -0.140625,0.140625 C 0.484375,-0.03125 0.53125,0 0.578125,0 0.8125,0 1.078125,-0.03125 1.3125,-0.03125 1.484375,-0.03125 1.875,0 2.046875,0 2.125,0 2.1875,-0.03125 2.1875,-0.140625 2.1875,-0.25 2.109375,-0.25 2.03125,-0.25 c -0.4375,-0.015625 -0.4375,-0.203125 -0.4375,-0.296875 0,-0.03125 0,-0.0625 0.015625,-0.171875 l 0.90625,-3.5625 2.03125,4.15625 C 4.59375,0 4.625,0 4.703125,0 4.8125,0 4.8125,-0.015625 4.84375,-0.140625 Z m 0,0"
             id="id-e91f4f31-95cd-4273-b77d-e72c2dc23602" />
        </g>
      </g>
    </g>
    <g
       transform="matrix(0.352778,0,0,0.352778,0.53813533,20.283589)"
       ns1:version="1.10.2"
       ns1:texconverter="pdflatex"
       ns1:pdfconverter="inkscape"
       ns1:text="$e$"
       ns1:preamble="C:\Users\zamcr\AppData\Roaming\inkscape\extensions\textext\default_packages.tex"
       ns1:scale="1.0"
       ns1:alignment="middle center"
       ns1:stroke-to-path="0"
       ns1:inkscapeversion="1.3.2"
       id="g7"
       ns1:jacobian_sqrt="0.352778">
      <defs
         id="defs4">
        <g
           id="g4">
          <g
             id="g3">
            <path
               d="m 1.859375,-2.296875 c 0.296875,0 1.03125,-0.03125 1.53125,-0.234375 0.703125,-0.296875 0.75,-0.890625 0.75,-1.03125 0,-0.4375 -0.375,-0.84375 -1.0625,-0.84375 -1.109375,0 -2.625,0.96875 -2.625,2.71875 0,1.015625 0.59375,1.796875 1.578125,1.796875 1.421875,0 2.25,-1.0625 2.25,-1.171875 0,-0.0625 -0.046875,-0.140625 -0.109375,-0.140625 -0.0625,0 -0.078125,0.03125 -0.140625,0.109375 -0.78125,0.984375 -1.875,0.984375 -1.984375,0.984375 -0.78125,0 -0.875,-0.84375 -0.875,-1.15625 0,-0.125 0.015625,-0.421875 0.15625,-1.03125 z m -0.46875,-0.21875 C 1.78125,-4.03125 2.8125,-4.1875 3.078125,-4.1875 c 0.453125,0 0.734375,0.296875 0.734375,0.625 0,1.046875 -1.59375,1.046875 -2.015625,1.046875 z m 0,0"
               id="path3" />
          </g>
        </g>
      </defs>
      <g
         fill="#000000"
         fill-opacity="1"
         id="g6"
         transform="translate(-149.165,-130.359)">
        <g
           transform="translate(148.712,134.765)"
           id="g5">
          <path
             d="m 1.859375,-2.296875 c 0.296875,0 1.03125,-0.03125 1.53125,-0.234375 0.703125,-0.296875 0.75,-0.890625 0.75,-1.03125 0,-0.4375 -0.375,-0.84375 -1.0625,-0.84375 -1.109375,0 -2.625,0.96875 -2.625,2.71875 0,1.015625 0.59375,1.796875 1.578125,1.796875 1.421875,0 2.25,-1.0625 2.25,-1.171875 0,-0.0625 -0.046875,-0.140625 -0.109375,-0.140625 -0.0625,0 -0.078125,0.03125 -0.140625,0.109375 -0.78125,0.984375 -1.875,0.984375 -1.984375,0.984375 -0.78125,0 -0.875,-0.84375 -0.875,-1.15625 0,-0.125 0.015625,-0.421875 0.15625,-1.03125 z m -0.46875,-0.21875 C 1.78125,-4.03125 2.8125,-4.1875 3.078125,-4.1875 c 0.453125,0 0.734375,0.296875 0.734375,0.625 0,1.046875 -1.59375,1.046875 -2.015625,1.046875 z m 0,0"
             id="path4" />
        </g>
      </g>
    </g>
    <path
       style="fill:none;stroke:#800080;stroke-width:0.264583px;stroke-linecap:butt;stroke-linejoin:miter;stroke-opacity:1;stroke-dasharray:0.79374898, 0.79374898;stroke-dashoffset:0"
       d="M 2.6217726,9.5795538 H 37.242617"
       id="path7" />
    <path
       style="fill:none;stroke:#000080;stroke-width:0.264583px;stroke-linecap:butt;stroke-linejoin:miter;stroke-opacity:1"
       d="m 2.6217726,3.8978874 c 8.6343194,1.8908122 0,5.6816664 34.6208444,5.6816664"
       id="path8"
       sodipodi:nodetypes="cc" />
    <path
       style="fill:none;stroke:#008000;stroke-width:0.264583px;stroke-linecap:butt;stroke-linejoin:miter;stroke-opacity:1"
       d="m 2.6217726,6.738721 c 5.0146529,0 0.3255227,2.9676206 34.6208444,2.8408328"
       id="path9"
       sodipodi:nodetypes="cc" />
    <path
       style="fill:none;stroke:#ff0000;stroke-width:0.264583px;stroke-linecap:butt;stroke-linejoin:miter;stroke-opacity:1"
       d="M 2.6217726,13.262324 C 7.2509199,16.537335 4.510236,9.4369482 37.242617,9.5795538"
       id="path10"
       sodipodi:nodetypes="cc" />
    <path
       style="fill:none;stroke:#800080;stroke-width:0.264583px;stroke-linecap:butt;stroke-linejoin:miter;stroke-opacity:1"
       d="M 5.3107703,22.856479 35.124154,41.343339"
       id="path11" />
    <text
       xml:space="preserve"
       style="font-size:3.175px;line-height:0.95;font-family:'Times New Roman';-inkscape-font-specification:'Times New Roman, ';text-align:center;text-anchor:middle;stroke-width:0.264583"
       x="26.053719"
       y="46.728512"
       id="text11"><tspan
         sodipodi:role="line"
         id="tspan11"
         style="stroke-width:0.264583"
         x="26.053719"
         y="46.728512">log</tspan></text>
    <ellipse
       style="fill:#800080;stroke:none;stroke-width:0.264999;stroke-linecap:round;stroke-miterlimit:4.1;stroke-dasharray:0.79375, 0.79375;stroke-dashoffset:0"
       id="ellipse12"
       cx="19.812166"
       cy="31.854574"
       rx="0.62762767"
       ry="0.69297564" />
    <text
       xml:space="preserve"
       style="font-size:3.175px;line-height:0.95;font-family:'Times New Roman';-inkscape-font-specification:'Times New Roman, ';text-align:center;text-anchor:middle;white-space:pre;inline-size:11.4065;display:inline;fill:#000000;stroke-width:0.264583"
       x="20.32"
       y="27.285212"
       id="text13"
       transform="translate(-9.0858407,-7.7557607)"><tspan
         x="20.32"
         y="27.285212"
         id="tspan1">Critical<tspan
   y="27.285212"
   id="tspan2"> </tspan></tspan><tspan
         x="20.32"
         y="30.301463"
         id="tspan3">state line</tspan></text>
    <text
       xml:space="preserve"
       style="font-size:3.175px;line-height:0.95;font-family:'Times New Roman';-inkscape-font-specification:'Times New Roman, ';text-align:center;text-anchor:middle;white-space:pre;inline-size:18.1644;display:inline;fill:#800080;stroke-width:0.264583"
       x="13.880281"
       y="5.0387321"
       id="text14"
       transform="translate(4.3732394,-0.6561691)"><tspan
         x="13.880281"
         y="5.0387321"
         id="tspan4">Critical void<tspan
   y="5.0387321"
   id="tspan5"> </tspan></tspan><tspan
         x="13.880281"
         y="8.0549817"
         id="tspan6">ratio</tspan></text>
    <g
       transform="matrix(0.352778,0,0,0.352778,3.2470381,9.7158842)"
       ns1:version="1.10.2"
       ns1:texconverter="pdflatex"
       ns1:pdfconverter="inkscape"
       ns1:text="$e_c$"
       ns1:preamble="C:\Users\zamcr\AppData\Roaming\inkscape\extensions\textext\default_packages.tex"
       ns1:scale="1.0"
       ns1:alignment="middle center"
       ns1:stroke-to-path="0"
       ns1:inkscapeversion="1.3.2"
       id="g3416"
       ns1:jacobian_sqrt="0.352778"
       style="fill:#800080">
      <defs
         id="id-eddeca83-b2e1-445c-9b65-4f8d20bfaab0">
        <g
           id="id-7bc9ecad-676e-4bb8-abfc-cf0794ff91d7">
          <g
             id="id-d9966779-37bf-4927-ba57-4d685ec0a827">
            <path
               d="m 1.859375,-2.296875 c 0.296875,0 1.03125,-0.03125 1.53125,-0.234375 0.703125,-0.296875 0.75,-0.890625 0.75,-1.03125 0,-0.4375 -0.375,-0.84375 -1.0625,-0.84375 -1.109375,0 -2.625,0.96875 -2.625,2.71875 0,1.015625 0.59375,1.796875 1.578125,1.796875 1.421875,0 2.25,-1.0625 2.25,-1.171875 0,-0.0625 -0.046875,-0.140625 -0.109375,-0.140625 -0.0625,0 -0.078125,0.03125 -0.140625,0.109375 -0.78125,0.984375 -1.875,0.984375 -1.984375,0.984375 -0.78125,0 -0.875,-0.84375 -0.875,-1.15625 0,-0.125 0.015625,-0.421875 0.15625,-1.03125 z m -0.46875,-0.21875 C 1.78125,-4.03125 2.8125,-4.1875 3.078125,-4.1875 c 0.453125,0 0.734375,0.296875 0.734375,0.625 0,1.046875 -1.59375,1.046875 -2.015625,1.046875 z m 0,0"
               id="id-d20796c2-84b2-4d92-b532-56f21616981c" />
          </g>
          <g
             id="id-05f7787f-3d26-4e71-8a70-bd62729d54cf">
            <path
               d="m 3.046875,-2.671875 c -0.25,0.046875 -0.34375,0.234375 -0.34375,0.390625 0,0.1875 0.140625,0.265625 0.265625,0.265625 0.15625,0 0.390625,-0.109375 0.390625,-0.453125 0,-0.46875 -0.53125,-0.609375 -0.90625,-0.609375 -1.046875,0 -2.015625,0.96875 -2.015625,1.9375 0,0.59375 0.40625,1.203125 1.28125,1.203125 1.1875,0 1.734375,-0.6875 1.734375,-0.78125 0,-0.046875 -0.0625,-0.125 -0.125,-0.125 -0.03125,0 -0.046875,0.015625 -0.109375,0.078125 C 2.671875,-0.125 1.859375,-0.125 1.734375,-0.125 c -0.5,0 -0.71875,-0.34375 -0.71875,-0.78125 0,-0.1875 0.09375,-0.953125 0.453125,-1.4375 0.265625,-0.34375 0.625,-0.53125 0.984375,-0.53125 0.09375,0 0.421875,0.015625 0.59375,0.203125 z m 0,0"
               id="id-8e0ddebc-71a1-4aeb-8fd5-693e0c53672f" />
          </g>
        </g>
      </defs>
      <g
         fill="#000000"
         fill-opacity="1"
         id="id-43c1bf07-5606-4d92-9e66-a49793c1a4fb"
         transform="translate(-149.165,-130.359)"
         style="fill:#800080">
        <g
           transform="translate(148.712,134.765)"
           id="g4823"
           style="fill:#800080">
          <path
             d="m 1.859375,-2.296875 c 0.296875,0 1.03125,-0.03125 1.53125,-0.234375 0.703125,-0.296875 0.75,-0.890625 0.75,-1.03125 0,-0.4375 -0.375,-0.84375 -1.0625,-0.84375 -1.109375,0 -2.625,0.96875 -2.625,2.71875 0,1.015625 0.59375,1.796875 1.578125,1.796875 1.421875,0 2.25,-1.0625 2.25,-1.171875 0,-0.0625 -0.046875,-0.140625 -0.109375,-0.140625 -0.0625,0 -0.078125,0.03125 -0.140625,0.109375 -0.78125,0.984375 -1.875,0.984375 -1.984375,0.984375 -0.78125,0 -0.875,-0.84375 -0.875,-1.15625 0,-0.125 0.015625,-0.421875 0.15625,-1.03125 z m -0.46875,-0.21875 C 1.78125,-4.03125 2.8125,-4.1875 3.078125,-4.1875 c 0.453125,0 0.734375,0.296875 0.734375,0.625 0,1.046875 -1.59375,1.046875 -2.015625,1.046875 z m 0,0"
             id="id-108031b9-6b80-499e-acb9-a232b28bc564"
             style="fill:#800080" />
        </g>
      </g>
      <g
         fill="#000000"
         fill-opacity="1"
         id="id-397ecc0f-2f63-4042-9b99-1d218fdad004"
         transform="translate(-149.165,-130.359)"
         style="fill:#800080">
        <g
           transform="translate(153.351,136.259)"
           id="g5260"
           style="fill:#800080">
          <path
             d="m 3.046875,-2.671875 c -0.25,0.046875 -0.34375,0.234375 -0.34375,0.390625 0,0.1875 0.140625,0.265625 0.265625,0.265625 0.15625,0 0.390625,-0.109375 0.390625,-0.453125 0,-0.46875 -0.53125,-0.609375 -0.90625,-0.609375 -1.046875,0 -2.015625,0.96875 -2.015625,1.9375 0,0.59375 0.40625,1.203125 1.28125,1.203125 1.1875,0 1.734375,-0.6875 1.734375,-0.78125 0,-0.046875 -0.0625,-0.125 -0.125,-0.125 -0.03125,0 -0.046875,0.015625 -0.109375,0.078125 C 2.671875,-0.125 1.859375,-0.125 1.734375,-0.125 c -0.5,0 -0.71875,-0.34375 -0.71875,-0.78125 0,-0.1875 0.09375,-0.953125 0.453125,-1.4375 0.265625,-0.34375 0.625,-0.53125 0.984375,-0.53125 0.09375,0 0.421875,0.015625 0.59375,0.203125 z m 0,0"
             id="id-e61ad171-4662-42da-8bfd-ffdf7d2f71e7"
             style="fill:#800080" />
        </g>
      </g>
    </g>
    <path
       style="fill:none;stroke:#000000;stroke-width:0.264583px;stroke-linecap:butt;stroke-linejoin:miter;stroke-opacity:1"
       d="M 12.264084,5.3477112 7.772007,9.5795538"
       id="path14" />
    <ellipse
       style="fill:#000080;stroke:none;stroke-width:0.264999;stroke-linecap:round;stroke-miterlimit:4.1;stroke-dasharray:0.79375, 0.79375;stroke-dashoffset:0"
       id="ellipse15"
       cx="19.812166"
       cy="22.051073"
       rx="0.62762767"
       ry="0.69297564" />
    <ellipse
       style="fill:#ff0000;stroke:none;stroke-width:0.264999;stroke-linecap:round;stroke-miterlimit:4.1;stroke-dasharray:0.79375, 0.79375;stroke-dashoffset:0"
       id="ellipse16"
       cx="19.812166"
       cy="36.862831"
       rx="0.62762767"
       ry="0.69297564" />
    <path
       style="fill:none;stroke:#000080;stroke-width:0.264583px;stroke-linecap:butt;stroke-linejoin:miter;stroke-opacity:1;marker-mid:url(#ArrowWide);marker-end:url(#DartArrow)"
       d="m 19.812166,22.744048 v 1.826668 4.739358 1.851524"
       id="path16"
       sodipodi:nodetypes="cccc" />
    <path
       style="fill:none;stroke:#008000;stroke-width:0.264583px;stroke-linecap:butt;stroke-linejoin:miter;stroke-opacity:1;marker-end:url(#DartArrow)"
       d="m 19.812166,27.27039 v 3.891208"
       id="path17" />
    <ellipse
       style="fill:#008000;stroke:none;stroke-width:0.264999;stroke-linecap:round;stroke-miterlimit:4.1;stroke-dasharray:0.79375, 0.79375;stroke-dashoffset:0"
       id="ellipse14"
       cx="19.812166"
       cy="26.577415"
       rx="0.62762767"
       ry="0.69297564" />
    <path
       style="fill:none;stroke:#ff0000;stroke-width:0.264583px;stroke-linecap:butt;stroke-linejoin:miter;stroke-opacity:1;marker-end:url(#DartArrow);marker-mid:url(#ArrowWideRounded)"
       d="M 19.812166,38.620729 V 34.738488 32.547549"
       id="path19"
       sodipodi:nodetypes="ccc" />
    <text
       xml:space="preserve"
       style="font-size:3.175px;line-height:0.95;font-family:'Times New Roman';-inkscape-font-specification:'Times New Roman, ';text-align:center;text-anchor:middle;stroke-width:0.264583"
       x="38.640717"
       y="3.6917927"
       id="text25"
       transform="rotate(33.415993)"><tspan
         sodipodi:role="line"
         id="tspan25"
         style="stroke-width:0.264583"
         x="38.640717"
         y="3.6917927">Compression</tspan></text>
    <text
       xml:space="preserve"
       style="font-size:3.175px;line-height:0.95;font-family:'Times New Roman';-inkscape-font-specification:'Times New Roman, ';text-align:center;text-anchor:middle;stroke-width:0.264583"
       x="29.516562"
       y="26.49774"
       id="text28"
       transform="rotate(32.17424)"><tspan
         sodipodi:role="line"
         id="tspan28"
         style="stroke-width:0.264583"
         x="29.516562"
         y="26.49774">Dilatancy</tspan></text>
  </g>
</svg>
