<?xml version="1.0" encoding="UTF-8" standalone="no"?>
<!-- Created with Inkscape (http://www.inkscape.org/) -->

<svg
   width="1in"
   height="0.80000001in"
   viewBox="0 0 25.4 20.32"
   version="1.1"
   id="svg1"
   inkscape:version="1.3.2 (091e20e, 2023-11-25, custom)"
   sodipodi:docname="axysimmetric.svg"
   xmlns:inkscape="http://www.inkscape.org/namespaces/inkscape"
   xmlns:sodipodi="http://sodipodi.sourceforge.net/DTD/sodipodi-0.dtd"
   xmlns="http://www.w3.org/2000/svg"
   xmlns:svg="http://www.w3.org/2000/svg"
   xmlns:ns2="http://www.iki.fi/pav/software/textext/">
  <sodipodi:namedview
     id="namedview1"
     pagecolor="#ffffff"
     bordercolor="#111111"
     borderopacity="1"
     inkscape:showpageshadow="0"
     inkscape:pageopacity="0"
     inkscape:pagecheckerboard="1"
     inkscape:deskcolor="#d1d1d1"
     inkscape:document-units="mm"
     inkscape:zoom="14.909315"
     inkscape:cx="33.536081"
     inkscape:cy="38.633565"
     inkscape:window-width="2400"
     inkscape:window-height="1280"
     inkscape:window-x="2391"
     inkscape:window-y="-9"
     inkscape:window-maximized="1"
     inkscape:current-layer="layer1" />
  <defs
     id="defs1">
    <marker
       style="overflow:visible"
       id="marker17"
       refX="0"
       refY="0"
       orient="auto-start-reverse"
       inkscape:stockid="Dart arrow"
       markerWidth="0.5"
       markerHeight="0.5"
       viewBox="0 0 1 1"
       inkscape:isstock="true"
       inkscape:collect="always"
       preserveAspectRatio="xMidYMid">
      <path
         style="fill:context-stroke;fill-rule:evenodd;stroke:none"
         d="M 0,0 5,-5 -12.5,0 5,5 Z"
         transform="scale(-0.5)"
         id="path17" />
    </marker>
    <marker
       style="overflow:visible"
       id="marker8"
       refX="0"
       refY="0"
       orient="auto-start-reverse"
       inkscape:stockid="Dart arrow"
       markerWidth="0.5"
       markerHeight="0.5"
       viewBox="0 0 1 1"
       inkscape:isstock="true"
       inkscape:collect="always"
       preserveAspectRatio="xMidYMid">
      <path
         style="fill:context-stroke;fill-rule:evenodd;stroke:none"
         d="M 0,0 5,-5 -12.5,0 5,5 Z"
         transform="scale(-0.5)"
         id="path8" />
    </marker>
    <marker
       style="overflow:visible"
       id="DartArrow"
       refX="0"
       refY="0"
       orient="auto-start-reverse"
       inkscape:stockid="Dart arrow"
       markerWidth="0.5"
       markerHeight="0.5"
       viewBox="0 0 1 1"
       inkscape:isstock="true"
       inkscape:collect="always"
       preserveAspectRatio="xMidYMid">
      <path
         style="fill:context-stroke;fill-rule:evenodd;stroke:none"
         d="M 0,0 5,-5 -12.5,0 5,5 Z"
         transform="scale(-0.5)"
         id="path7" />
    </marker>
  </defs>
  <g
     inkscape:label="Layer 1"
     inkscape:groupmode="layer"
     id="layer1">
    <g
       id="g15">
      <path
         id="path14"
         style="opacity:1;fill:#ffccaa;stroke:none;stroke-width:0.264999;stroke-linecap:round;stroke-linejoin:round;stroke-miterlimit:6.2;fill-opacity:1"
         d="m 6.4238973,15.863932 a 3.7976813,1.0304867 0 0 0 -3.797701,1.030428 3.7976813,1.0304867 0 0 0 1.1177612,0.727087 L 6.4238973,16.89436 H 10.221598 A 3.7976813,1.0304867 0 0 0 6.4238973,15.863932 Z m 3.7718627,1.147217 a 3.7976813,1.0304867 0 0 1 -0.02429,0.04134 3.7976813,1.0304867 0 0 0 0.02429,-0.04134 z m -0.07545,0.116789 a 3.7976813,1.0304867 0 0 1 -0.04547,0.04496 3.7976813,1.0304867 0 0 0 0.04547,-0.04496 z m -0.1240229,0.113171 a 3.7976813,1.0304867 0 0 1 -0.068213,0.04702 3.7976813,1.0304867 0 0 0 0.068213,-0.04702 z M 9.829891,17.347562 a 3.7976813,1.0304867 0 0 1 -0.094051,0.04909 3.7976813,1.0304867 0 0 0 0.094051,-0.04909 z m -0.2191081,0.104904 a 3.7976813,1.0304867 0 0 1 -0.1018026,0.04134 3.7976813,1.0304867 0 0 0 0.1018026,-0.04134 z m -0.2790528,0.102319 a 3.7976813,1.0304867 0 0 1 -0.090434,0.02946 3.7976813,1.0304867 0 0 0 0.090434,-0.02946 z m -5.4849365,0.09457 a 3.7976813,1.0304867 0 0 0 0.1090373,0.02687 3.7976813,1.0304867 0 0 1 -0.1090373,-0.02687 z m 5.1469727,0.0021 a 3.7976813,1.0304867 0 0 1 -0.061495,0.01602 3.7976813,1.0304867 0 0 0 0.061495,-0.01602 z m -4.8110759,0.07286 a 3.7976813,1.0304867 0 0 0 0.1374593,0.02687 3.7976813,1.0304867 0 0 1 -0.1374593,-0.02687 z m 0.342098,0.06046 a 3.7976813,1.0304867 0 0 0 0.1731161,0.02687 3.7976813,1.0304867 0 0 1 -0.1731161,-0.02687 z m 3.6974487,0.01654 a 3.7976813,1.0304867 0 0 1 -0.1653645,0.02171 3.7976813,1.0304867 0 0 0 0.1653645,-0.02171 z m -0.4066935,0.05116 a 3.7976813,1.0304867 0 0 1 -0.1508952,0.01395 3.7976813,1.0304867 0 0 0 0.1508952,-0.01395 z m -0.407727,0.03617 a 3.7976813,1.0304867 0 0 1 -0.1819011,0.01137 3.7976813,1.0304867 0 0 0 0.1819011,-0.01137 z m -1.9058269,0.0052 a 3.7976813,1.0304867 0 0 0 0.092501,0.0052 3.7976813,1.0304867 0 0 1 -0.092501,-0.0052 z m 1.4681275,0.01912 a 3.7976813,1.0304867 0 0 1 -0.1612305,0.0052 3.7976813,1.0304867 0 0 0 0.1612305,-0.0052 z m -1.0268107,0.0031 a 3.7976813,1.0304867 0 0 0 0.1023193,0.0026 3.7976813,1.0304867 0 0 1 -0.1023193,-0.0026 z m 0.5823934,0.0072 a 3.7976813,1.0304867 0 0 1 -0.1565796,5.17e-4 3.7976813,1.0304867 0 0 0 0.054777,0.001 3.7976813,1.0304867 0 0 0 0.1018026,-0.0015 z" />
      <rect
         style="fill:#ffccaa;stroke:none;stroke-width:0.264999;stroke-linecap:round;stroke-linejoin:round;stroke-miterlimit:6.2"
         id="rect15"
         width="3.7976813"
         height="13.342708"
         x="2.6264343"
         y="3.5516522"
         ry="2.5482177e-07" />
      <path
         id="path13"
         style="opacity:1;fill:#ff9955;stroke:none;stroke-width:0.264999;stroke-linecap:round;stroke-linejoin:round;stroke-miterlimit:6.2"
         d="M 6.4238973 2.5212931 A 3.7976813 1.0304867 0 0 0 2.6261963 3.5517212 A 3.7976813 1.0304867 0 0 0 3.7439575 4.2788086 L 6.4238973 3.5517212 L 10.221598 3.5517212 A 3.7976813 1.0304867 0 0 0 6.4238973 2.5212931 z M 10.19576 3.6685099 A 3.7976813 1.0304867 0 0 1 10.171472 3.7098511 A 3.7976813 1.0304867 0 0 0 10.19576 3.6685099 z M 10.120312 3.7852987 A 3.7976813 1.0304867 0 0 1 10.074837 3.8302572 A 3.7976813 1.0304867 0 0 0 10.120312 3.7852987 z M 9.9962891 3.8984701 A 3.7976813 1.0304867 0 0 1 9.9280762 3.9454956 A 3.7976813 1.0304867 0 0 0 9.9962891 3.8984701 z M 9.829891 4.0049235 A 3.7976813 1.0304867 0 0 1 9.7358398 4.0540161 A 3.7976813 1.0304867 0 0 0 9.829891 4.0049235 z M 9.6107829 4.1098267 A 3.7976813 1.0304867 0 0 1 9.5089803 4.1511678 A 3.7976813 1.0304867 0 0 0 9.6107829 4.1098267 z M 9.3317301 4.212146 A 3.7976813 1.0304867 0 0 1 9.2412964 4.2416016 A 3.7976813 1.0304867 0 0 0 9.3317301 4.212146 z M 3.8467936 4.3067139 A 3.7976813 1.0304867 0 0 0 3.9558309 4.3335856 A 3.7976813 1.0304867 0 0 1 3.8467936 4.3067139 z M 8.9937663 4.3087809 A 3.7976813 1.0304867 0 0 1 8.9322713 4.3248006 A 3.7976813 1.0304867 0 0 0 8.9937663 4.3087809 z M 4.1826904 4.3816447 A 3.7976813 1.0304867 0 0 0 4.3201497 4.4085164 A 3.7976813 1.0304867 0 0 1 4.1826904 4.3816447 z M 4.5247884 4.4421061 A 3.7976813 1.0304867 0 0 0 4.6979045 4.4689779 A 3.7976813 1.0304867 0 0 1 4.5247884 4.4421061 z M 8.2222371 4.4586426 A 3.7976813 1.0304867 0 0 1 8.0568726 4.4803467 A 3.7976813 1.0304867 0 0 0 8.2222371 4.4586426 z M 7.8155436 4.5098022 A 3.7976813 1.0304867 0 0 1 7.6646484 4.5237549 A 3.7976813 1.0304867 0 0 0 7.8155436 4.5098022 z M 7.4078166 4.5459757 A 3.7976813 1.0304867 0 0 1 7.2259155 4.5573446 A 3.7976813 1.0304867 0 0 0 7.4078166 4.5459757 z M 5.5019897 4.5511434 A 3.7976813 1.0304867 0 0 0 5.5944906 4.556311 A 3.7976813 1.0304867 0 0 1 5.5019897 4.5511434 z M 6.9701172 4.5702637 A 3.7976813 1.0304867 0 0 1 6.8088867 4.5754313 A 3.7976813 1.0304867 0 0 0 6.9701172 4.5702637 z M 5.9433065 4.5733643 A 3.7976813 1.0304867 0 0 0 6.0456258 4.5759481 A 3.7976813 1.0304867 0 0 1 5.9433065 4.5733643 z M 6.5256999 4.580599 A 3.7976813 1.0304867 0 0 1 6.3691203 4.5811157 A 3.7976813 1.0304867 0 0 0 6.4238973 4.5821493 A 3.7976813 1.0304867 0 0 0 6.5256999 4.580599 z " />
      <path
         id="rect14"
         style="fill:#ffb380;stroke-width:0.264999;stroke-linecap:round;stroke-linejoin:round;stroke-miterlimit:6.2"
         d="m 3.7439575,4.2788086 2.6801581,-0.7271564 3e-7,2e-7 V 16.89436 h -3e-7 l -2.6801581,0.727087 z"
         sodipodi:nodetypes="ccccccc" />
      <rect
         style="fill:#ffccaa;stroke:none;stroke-width:0.264999;stroke-linecap:round;stroke-linejoin:round;stroke-miterlimit:6.2"
         id="rect13"
         width="3.7976813"
         height="13.342708"
         x="6.4241157"
         y="3.5516522"
         ry="2.5482177e-07" />
    </g>
    <path
       style="fill:none;stroke:#ff0000;stroke-width:0.264583px;stroke-linecap:butt;stroke-linejoin:miter;stroke-dasharray:1.05833, 0.264583;stroke-dashoffset:0;stroke-opacity:1"
       d="M 6.4241158,16.89436 V 3.5516522"
       id="path15"
       sodipodi:nodetypes="cc" />
    <path
       style="fill:none;stroke:#ff0000;stroke-width:0.264583px;stroke-linecap:butt;stroke-linejoin:miter;stroke-opacity:1;marker-end:url(#marker17)"
       d="m 4.755975,3.0466909 c 0.015198,-1.00612 2.1876687,-1.3140758 3.5669813,-1.00612"
       id="path16"
       sodipodi:nodetypes="cc" />
    <text
       xml:space="preserve"
       style="font-size:3.52777px;line-height:0.95;font-family:'Times New Roman';-inkscape-font-specification:'Times New Roman, ';text-align:center;text-anchor:middle;stroke-width:0.264583;fill:#ff0000"
       x="17.781668"
       y="19.122812"
       id="text17"><tspan
         sodipodi:role="line"
         id="tspan17"
         style="stroke-width:0.264583;fill:#ff0000"
         x="17.781668"
         y="19.122812">Centerline</tspan></text>
    <path
       style="fill:none;stroke:#000000;stroke-width:0.264583px;stroke-linecap:butt;stroke-linejoin:miter;stroke-opacity:1"
       d="M 10.221598,17.799414 6.4241158,16.89436"
       id="path18" />
    <path
       style="fill:none;stroke:#000000;stroke-width:0.264583px;stroke-linecap:butt;stroke-linejoin:miter;stroke-opacity:1;marker-start:url(#marker8);marker-end:url(#DartArrow)"
       d="M 6.4241159,4.9271581 V 10.223006 H 12.280353"
       id="path6" />
    <g
       transform="matrix(0.352778,0,0,0.352778,11.86417,10.553735)"
       ns2:version="1.10.2"
       ns2:texconverter="pdflatex"
       ns2:pdfconverter="inkscape"
       ns2:text="$r$"
       ns2:preamble="C:\Users\zamcr\AppData\Roaming\inkscape\extensions\textext\default_packages.tex"
       ns2:scale="1.0"
       ns2:alignment="middle center"
       ns2:stroke-to-path="0"
       ns2:inkscapeversion="1.3.2"
       id="g335"
       ns2:jacobian_sqrt="0.352778">
      <defs
         id="id-f1be1923-1325-4d52-b9e7-3f7926ef888e">
        <g
           id="id-82f28990-f770-4f20-9052-a1e92eff71a4">
          <g
             id="id-845c0c39-b14b-4551-b41b-c85734af2815">
            <path
               d="m 0.875,-0.59375 c -0.03125,0.15625 -0.09375,0.390625 -0.09375,0.4375 0,0.171875 0.140625,0.265625 0.296875,0.265625 0.125,0 0.296875,-0.078125 0.375,-0.28125 C 1.46875,-0.203125 1.796875,-1.5625 1.84375,-1.75 c 0.078125,-0.328125 0.265625,-1.015625 0.3125,-1.296875 0.046875,-0.125 0.328125,-0.59375 0.5625,-0.8125 0.078125,-0.0625 0.375,-0.328125 0.796875,-0.328125 0.265625,0 0.40625,0.125 0.421875,0.125 -0.296875,0.046875 -0.515625,0.28125 -0.515625,0.546875 0,0.15625 0.109375,0.34375 0.375,0.34375 0.265625,0 0.546875,-0.234375 0.546875,-0.59375 0,-0.34375 -0.3125,-0.640625 -0.828125,-0.640625 C 2.875,-4.40625 2.4375,-3.921875 2.25,-3.640625 2.15625,-4.09375 1.796875,-4.40625 1.328125,-4.40625 0.875,-4.40625 0.6875,-4.015625 0.59375,-3.84375 0.421875,-3.5 0.296875,-2.90625 0.296875,-2.875 c 0,0.109375 0.09375,0.109375 0.109375,0.109375 0.109375,0 0.109375,-0.015625 0.171875,-0.234375 0.171875,-0.703125 0.375,-1.1875 0.734375,-1.1875 0.15625,0 0.296875,0.078125 0.296875,0.453125 0,0.21875 -0.03125,0.328125 -0.15625,0.84375 z m 0,0"
               id="id-c588cef6-41e3-4e1f-b835-24604475a827" />
          </g>
        </g>
      </defs>
      <g
         fill="#000000"
         fill-opacity="1"
         id="id-07e58d49-b1ca-4ec3-85aa-65a21ab23666"
         transform="translate(-149.009,-130.359)">
        <g
           transform="translate(148.712,134.765)"
           id="g3497">
          <path
             d="m 0.875,-0.59375 c -0.03125,0.15625 -0.09375,0.390625 -0.09375,0.4375 0,0.171875 0.140625,0.265625 0.296875,0.265625 0.125,0 0.296875,-0.078125 0.375,-0.28125 C 1.46875,-0.203125 1.796875,-1.5625 1.84375,-1.75 c 0.078125,-0.328125 0.265625,-1.015625 0.3125,-1.296875 0.046875,-0.125 0.328125,-0.59375 0.5625,-0.8125 0.078125,-0.0625 0.375,-0.328125 0.796875,-0.328125 0.265625,0 0.40625,0.125 0.421875,0.125 -0.296875,0.046875 -0.515625,0.28125 -0.515625,0.546875 0,0.15625 0.109375,0.34375 0.375,0.34375 0.265625,0 0.546875,-0.234375 0.546875,-0.59375 0,-0.34375 -0.3125,-0.640625 -0.828125,-0.640625 C 2.875,-4.40625 2.4375,-3.921875 2.25,-3.640625 2.15625,-4.09375 1.796875,-4.40625 1.328125,-4.40625 0.875,-4.40625 0.6875,-4.015625 0.59375,-3.84375 0.421875,-3.5 0.296875,-2.90625 0.296875,-2.875 c 0,0.109375 0.09375,0.109375 0.109375,0.109375 0.109375,0 0.109375,-0.015625 0.171875,-0.234375 0.171875,-0.703125 0.375,-1.1875 0.734375,-1.1875 0.15625,0 0.296875,0.078125 0.296875,0.453125 0,0.21875 -0.03125,0.328125 -0.15625,0.84375 z m 0,0"
             id="id-b1a7ef08-11dd-47c6-8d16-8ea02d5b03bb" />
        </g>
      </g>
    </g>
    <g
       transform="matrix(0.352778,0,0,0.352778,7.2879709,3.6766554)"
       ns2:version="1.10.2"
       ns2:texconverter="pdflatex"
       ns2:pdfconverter="inkscape"
       ns2:text="$z$"
       ns2:preamble="C:\Users\zamcr\AppData\Roaming\inkscape\extensions\textext\default_packages.tex"
       ns2:scale="1.0"
       ns2:alignment="middle center"
       ns2:stroke-to-path="0"
       ns2:inkscapeversion="1.3.2"
       id="g13"
       ns2:jacobian_sqrt="0.352778">
      <defs
         id="id-c47f09b2-e0c3-4cd8-8d81-a14be4e8d922">
        <g
           id="id-11b49654-5faf-41c2-a28b-c2146e0f22f6">
          <g
             id="id-7c73a925-ab70-4bc2-b795-21e1a312aa02">
            <path
               d="m 1.328125,-0.828125 c 0.53125,-0.578125 0.828125,-0.828125 1.1875,-1.140625 0,0 0.609375,-0.53125 0.96875,-0.890625 C 4.4375,-3.78125 4.65625,-4.265625 4.65625,-4.3125 c 0,-0.09375 -0.09375,-0.09375 -0.109375,-0.09375 -0.078125,0 -0.09375,0.015625 -0.15625,0.109375 -0.296875,0.484375 -0.5,0.640625 -0.734375,0.640625 -0.25,0 -0.359375,-0.15625 -0.515625,-0.328125 -0.1875,-0.21875 -0.359375,-0.421875 -0.6875,-0.421875 -0.75,0 -1.203125,0.921875 -1.203125,1.140625 0,0.046875 0.03125,0.109375 0.109375,0.109375 0.09375,0 0.109375,-0.046875 0.140625,-0.109375 0.1875,-0.46875 0.765625,-0.46875 0.84375,-0.46875 0.203125,0 0.390625,0.0625 0.625,0.140625 0.40625,0.15625 0.515625,0.15625 0.765625,0.15625 -0.359375,0.421875 -1.1875,1.140625 -1.375,1.296875 l -0.90625,0.84375 C 0.78125,-0.625 0.421875,-0.0625 0.421875,0.015625 c 0,0.09375 0.109375,0.09375 0.125,0.09375 0.078125,0 0.09375,-0.015625 0.15625,-0.125 0.234375,-0.359375 0.53125,-0.625 0.859375,-0.625 0.21875,0 0.328125,0.09375 0.578125,0.375 0.15625,0.21875 0.34375,0.375 0.625,0.375 1,0 1.578125,-1.265625 1.578125,-1.53125 0,-0.046875 -0.046875,-0.109375 -0.125,-0.109375 -0.09375,0 -0.109375,0.0625 -0.140625,0.140625 C 3.84375,-0.75 3.203125,-0.5625 2.875,-0.5625 c -0.1875,0 -0.375,-0.0625 -0.578125,-0.125 -0.34375,-0.125 -0.5,-0.171875 -0.703125,-0.171875 -0.015625,0 -0.171875,0 -0.265625,0.03125 z m 0,0"
               id="id-27ce23ae-0e5e-46da-a5bc-c7c58a2d546d" />
          </g>
        </g>
      </defs>
      <g
         fill="#000000"
         fill-opacity="1"
         id="id-1c54c690-f05c-4d76-8d9b-b406354b9293"
         transform="translate(-149.134,-130.359)">
        <g
           transform="translate(148.712,134.765)"
           id="g1348">
          <path
             d="m 1.328125,-0.828125 c 0.53125,-0.578125 0.828125,-0.828125 1.1875,-1.140625 0,0 0.609375,-0.53125 0.96875,-0.890625 C 4.4375,-3.78125 4.65625,-4.265625 4.65625,-4.3125 c 0,-0.09375 -0.09375,-0.09375 -0.109375,-0.09375 -0.078125,0 -0.09375,0.015625 -0.15625,0.109375 -0.296875,0.484375 -0.5,0.640625 -0.734375,0.640625 -0.25,0 -0.359375,-0.15625 -0.515625,-0.328125 -0.1875,-0.21875 -0.359375,-0.421875 -0.6875,-0.421875 -0.75,0 -1.203125,0.921875 -1.203125,1.140625 0,0.046875 0.03125,0.109375 0.109375,0.109375 0.09375,0 0.109375,-0.046875 0.140625,-0.109375 0.1875,-0.46875 0.765625,-0.46875 0.84375,-0.46875 0.203125,0 0.390625,0.0625 0.625,0.140625 0.40625,0.15625 0.515625,0.15625 0.765625,0.15625 -0.359375,0.421875 -1.1875,1.140625 -1.375,1.296875 l -0.90625,0.84375 C 0.78125,-0.625 0.421875,-0.0625 0.421875,0.015625 c 0,0.09375 0.109375,0.09375 0.125,0.09375 0.078125,0 0.09375,-0.015625 0.15625,-0.125 0.234375,-0.359375 0.53125,-0.625 0.859375,-0.625 0.21875,0 0.328125,0.09375 0.578125,0.375 0.15625,0.21875 0.34375,0.375 0.625,0.375 1,0 1.578125,-1.265625 1.578125,-1.53125 0,-0.046875 -0.046875,-0.109375 -0.125,-0.109375 -0.09375,0 -0.109375,0.0625 -0.140625,0.140625 C 3.84375,-0.75 3.203125,-0.5625 2.875,-0.5625 c -0.1875,0 -0.375,-0.0625 -0.578125,-0.125 -0.34375,-0.125 -0.5,-0.171875 -0.703125,-0.171875 -0.015625,0 -0.171875,0 -0.265625,0.03125 z m 0,0"
             id="id-6166a664-5496-4b31-9c7d-f6e79eed2610" />
        </g>
      </g>
    </g>
  </g>
</svg>
